<svg width="16" height="14" viewBox="0 0 16 14" fill="none" xmlns="http://www.w3.org/2000/svg">
<path fill-rule="evenodd" clip-rule="evenodd" d="M1 7.99951H12.865L9.232 12.3595C8.878 12.7835 8.936 13.4145 9.36 13.7675C9.785 14.1215 10.415 14.0635 10.769 13.6395L15.769 7.63951C15.808 7.59251 15.827 7.53751 15.856 7.48551C15.88 7.44351 15.909 7.40751 15.927 7.36151C15.972 7.24651 15.999 7.12551 15.999 7.00351C15.999 7.00251 16 7.00051 16 6.99951C16 6.99851 15.999 6.99651 15.999 6.99551C15.999 6.87351 15.972 6.75251 15.927 6.63751C15.909 6.59151 15.88 6.55551 15.856 6.51351C15.827 6.46151 15.808 6.40651 15.769 6.35951L10.769 0.359512C10.57 0.122512 10.286 -0.000488281 10 -0.000488281C9.774 -0.000488281 9.547 0.0755117 9.36 0.231512C8.936 0.584512 8.878 1.21551 9.232 1.63951L12.865 5.99951H1C0.448 5.99951 0 6.44751 0 6.99951C0 7.55151 0.448 7.99951 1 7.99951Z" fill="#F6F6F6"/>
</svg>
