<?xml version="1.0" encoding="utf-8"?>
<!-- Generator: Adobe Illustrator 24.0.1, SVG Export Plug-In . SVG Version: 6.00 Build 0)  -->
<svg version="1.1" id="Layer_1" xmlns="http://www.w3.org/2000/svg" xmlns:xlink="http://www.w3.org/1999/xlink" x="0px" y="0px"
	 viewBox="0 0 750 500" style="enable-background:new 0 0 750 500;" xml:space="preserve">
<style type="text/css">
	.st0{fill:#E0E0E0;}
	.st1{fill:#FAFAFA;}
	.st2{fill:#EBEBEB;}
	.st3{fill:#F5F5F5;}
	.st4{fill:#FFFFFF;}
	.st5{fill:#263238;}
	.st6{fill:#098B81;}
	.st7{fill:#BA7E6D;}
	.st8{opacity:0.6;}
	.st9{fill:#875149;}
	.st10{fill:#455A64;}
	.st11{opacity:0.3;}
	.st12{fill:#FFBE9D;}
	.st13{fill:#EB996E;}
	.st14{fill:#9F7362;}
	.st15{fill:#65463C;}
</style>
<g id="freepik--background-complete--inject-7">
	<path class="st0" d="M620.8,386.4c-3.9-2.5-8.4-4-13-4.5c-2.1-0.2-4.4-0.2-6.1,1.1c-0.4,0.2-0.7,0.7-0.6,1.1
		c0.1,0.3,0.3,0.6,0.6,0.8C607.2,389,614.6,389.5,620.8,386.4"/>
	<path class="st0" d="M620.5,386c-3-2.2-5.8-4.7-8.4-7.4c-2.6-2.7-4.4-6.1-5.3-9.7c-0.3-1.1-0.2-2.3,0.4-3.3
		C613.9,370.9,619.2,377.6,620.5,386"/>
	<path class="st0" d="M620.7,386.4c-0.6-3.6-0.6-7.4,0.2-11c0.7-3.7,2.8-6.9,5.9-9.1c1.2,2.7,0.7,5.8-0.2,8.6
		c-1.3,4.4-3.2,8.5-5.8,12.3"/>
	<path class="st0" d="M627.3,398.1c-3.9,0.6-7.6,2.5-10.4,5.3c-3,2.7-5.1,6.3-6,10.2c3.9-0.2,7.2-3,9.6-6.1S624.5,401.1,627.3,398.1
		"/>
	<path class="st0" d="M628.7,400c-3.2-8.1-2-17.2,3-24.3C634,383.8,633.1,392.9,628.7,400"/>
	<path class="st0" d="M637.3,410.3c-7.4-0.4-14.4,3.6-17.8,10.2c-0.2,0.4-0.4,1-0.1,1.4c0.3,0.3,0.8,0.4,1.2,0.4
		c3.5-0.2,6.6-2.3,9.2-4.7S634.6,412.4,637.3,410.3"/>
	<path class="st0" d="M637.1,409.7c-1.9-6-2-12.4-0.3-18.5c0.7-2.4,1.7-4.9,3.9-6c0.2-0.1,0.4-0.2,0.6-0.1c0.2,0.1,0.3,0.2,0.4,0.4
		c0.7,1.7,1.1,3.5,0.9,5.3c-0.1,1.8-0.4,3.6-0.8,5.4c-0.7,3.3-1.1,6.8-2.9,9.6c-0.4,0.7-0.8,1.4-1.1,2.1c-0.3,0.7-0.3,1-0.7,1.5"/>
	<path class="st0" d="M660,413.1c-1.6-6.8,0-14,4.2-19.6c0.3-0.4,0.7-0.8,1.2-0.8c0.8,0.1,1,1.1,0.9,1.8
		C666,401.3,663.8,407.7,660,413.1"/>
	<path class="st0" d="M662.1,414.6c8.1,1.9,16.7,0.2,23.4-4.8c-3.9-2-8.4-2.5-12.7-1.6C668.6,409.3,664.7,411.1,662.1,414.6"/>
	<path class="st0" d="M663.8,410.3c4.4-7.2,12.8-11.8,21.2-12.3c-1,3.4-3.8,6.1-6.9,7.7c-3.2,1.5-6.7,2.5-10.2,3
		C666.5,408.9,664.7,409.2,663.8,410.3"/>
	<path class="st0" d="M660.4,389.4c1.3-4,2.2-8.2,2.7-12.4c0.5-4.3-0.4-8.5-2.5-12.3c-4.1,7.9-4.5,17.2-0.4,25.1"/>
	<path class="st0" d="M674.3,382.4c4.8-8.7,14.6-15.7,24.5-16.7C695,375.3,684.5,382.6,674.3,382.4"/>
	<path class="st0" d="M671.2,384.1c7.2,1.1,13.3,5.7,20,8.4c1.4,0.7,3,1,4.5,0.9c1.9,0,3.5-1.6,3.5-3.6c0-1-0.5-2-1.3-2.7
		c-0.9-0.9-2.1-1.6-3.3-2c-7.3-3-15.1-3.1-22.8-1.3"/>
	<path class="st0" d="M667.1,389.1c1.6,0.5,2.2,1.3,3.5,2.4c4.4,3.7,9.6,6.4,15.1,7.8c0.6,0.1,1.3,0.2,1.6-0.3s-0.1-1-0.4-1.4
		c-2.4-2.9-5.6-5-9.1-6.2c-3.5-1.3-6.5-2.9-10.7-2.5"/>
	<path class="st0" d="M662.4,358.8c6,5.5,13.9,8.2,22,7.5c0.4,0,0.7-0.1,1-0.4c0.5-0.6-0.1-1.5-0.8-2
		C678.2,358.9,670.4,356.8,662.4,358.8"/>
	<path class="st0" d="M668,356.8c7.9-5.8,18.1-7.5,27.4-4.5c-3.6,3.3-8.2,5.4-13.1,5.8C677.5,358.4,672.7,358,668,356.8"/>
	<path class="st0" d="M665.8,342.8c-0.6-6.5-0.2-11.5-0.7-18c0-0.5-0.1-1.1-0.6-1.3c-0.7-0.3-1.2,0.6-1.5,1.3
		c-1.9,6.1-0.9,12.7,2.7,17.9"/>
	<path class="st0" d="M665.3,343.5c4.2-2.7,7.9-6.2,10.7-10.4c2.1-2.9,3.9-6.3,3.4-9.9c-3,0.1-5.8,1.5-7.7,3.8
		c-1.8,2.3-3.2,5-3.9,7.9C666.9,337.8,666.3,340.8,665.3,343.5"/>
	<path class="st0" d="M675.8,340.6c9.6-3.6,18.5-8.8,26.3-15.5c-3.1-1.3-6.7-0.5-9.9,0.8c-7.1,2.7-13,7.9-16.5,14.7"/>
	<path class="st0" d="M668.3,347.1c4.8,0.7,9.7,0.7,14.6,0.1c4.7-0.8,9.2-2.7,13.6-4.5c0.4-0.1,0.7-0.4,0.9-0.7
		c0.1-0.4,0-0.9-0.3-1.2c-0.3-0.3-0.7-0.5-1.2-0.5c-4.8-1.3-10-0.7-14.7,0.9C676.7,342.6,672.3,344.6,668.3,347.1"/>
	<path class="st0" d="M640.6,359c-3.3-6.7-3.1-14.5-0.2-21.4c2,3.1,2.3,7,1.9,10.6s-1.5,7.4-1.5,11.1"/>
	<path class="st0" d="M627.3,352.4c-8.4-0.1-16.4,3.3-22.1,9.4c4.2,0.5,8.4-0.3,12.1-2.3c3.7-2,7.2-4.3,10.4-7"/>
	<path class="st0" d="M618.5,349.4c-4-0.3-7.9-0.8-11.8,0.4c-4,1.1-7.3,3.9-9,7.6c3.8,0.3,7.6-0.4,11.1-2.1
		C612.1,353.6,615.4,351.6,618.5,349.4"/>
	<path class="st0" d="M631.6,349.5c-3.6-2.4-7.4-4.8-11.6-5.8s-9.1-0.3-12.1,2.9c3.4,2,7.6,2.2,11.5,2.2s8.8,0,12.6,1.3"/>
	<path class="st0" d="M631.6,349.7c-6.2-6.1-8.6-17.1-6.1-25.4C630.5,331.8,632.6,340.8,631.6,349.7"/>
	<path class="st0" d="M648.7,332.4c1.2-2.7,2-5.6,3-8.4c1-2.8,2.4-5.4,4.3-7.7c1.9-2.3,4.7-3.7,7.7-4c-1.9,8.5-7.4,15.8-14.9,20.1"
		/>
	<path class="st0" d="M645.6,336c-1.9-2.7-4.2-6.3-6.8-8.3s-6-3.2-9.3-2.4C632.9,331.2,638.9,335.2,645.6,336"/>
	<path class="st0" d="M646.3,332.6c-1.4-3.2-2.4-6.5-3.1-9.9c-0.6-3.4-0.1-7,1.5-10.1c3.4,6.5,4.5,13.4,1.7,20.1"/>
	<path class="st0" d="M648.8,312.6c1.9-6.4,7.8-11.1,14.1-13.3c0.8-0.3,1.6-0.4,2.5-0.4c0.9,0.1,1.6,0.7,1.8,1.5
		c0.2,1.1-0.7,2.1-1.5,2.8C660.7,307.5,655,310.7,648.8,312.6"/>
	<path class="st0" d="M648.8,307.4c0.2-4.1,0.5-8.3,1.8-12.2s3.9-7.6,7.7-9.3c0.6,4.2-1.2,8.3-3.4,11.9s-4.9,7-6.2,11"/>
	<path class="st0" d="M648.7,310.2c-1.6-4.7-1.8-10.6-4.6-14.6c-2-2.8-5.1-4.8-6.8-7.8c-1,2.9-0.9,6,0.4,8.8c1.3,2.7,3,5.2,5.2,7.4
		C645.1,306.2,646.8,307.9,648.7,310.2"/>
	<path class="st0" d="M648.8,447.4c-0.1,0-0.2-31.1-0.2-69.4s0.1-69.4,0.2-69.4s0.2,31.1,0.2,69.4S648.9,447.4,648.8,447.4z"/>
	<path class="st0" d="M675.9,354.3c-0.4,0.2-0.8,0.3-1.2,0.4l-3.2,1.1c-2.7,0.9-6.4,2.3-10.5,3.9s-7.8,3.1-9.9,5
		c-0.9,0.7-1.5,1.6-2,2.6c-0.3,0.7-0.4,1.2-0.4,1.2s0-0.1,0-0.3c0-0.3,0.1-0.6,0.2-0.9c0.4-1.1,1.1-2,1.9-2.8c1.3-1.1,2.7-2,4.3-2.7
		c1.7-0.8,3.6-1.6,5.7-2.5c4.1-1.7,7.8-3,10.5-3.8c1.4-0.4,2.5-0.7,3.3-1C675.1,354.5,675.5,354.4,675.9,354.3z"/>
	<path class="st0" d="M684.8,332.5c0,0-0.1,0.1-0.3,0.4l-1,0.9l-3.7,3.4l-12.4,11c-4.8,4.3-9,8.4-11.9,11.5
		c-1.5,1.5-2.6,2.8-3.4,3.7l-0.9,1c-0.1,0.1-0.2,0.2-0.3,0.3c0,0,0.1-0.1,0.3-0.4s0.5-0.6,0.8-1.1c0.7-0.9,1.8-2.3,3.3-3.8
		c3.7-4.1,7.7-8,11.8-11.6c4.8-4.3,9.3-8.2,12.5-10.9l3.8-3.3l1.1-0.9C684.5,332.6,684.7,332.5,684.8,332.5z"/>
	<path class="st0" d="M662.2,352.5c-0.1-0.1,0.9-2.4,1.9-5.3s1.5-5.4,1.6-5.4c-0.1,1.9-0.5,3.8-1.2,5.6c-0.4,1.3-0.9,2.5-1.5,3.7
		C662.8,351.6,662.5,352.1,662.2,352.5z"/>
	<path class="st0" d="M648.8,371.4c-0.3-0.3-0.5-0.5-0.8-0.9l-1.9-2.5c-1.6-2.1-3.8-4.9-6.3-8.1s-4.8-5.9-6.4-8l-2-2.4
		c-0.3-0.3-0.5-0.6-0.7-0.9c0.3,0.2,0.6,0.5,0.8,0.8c0.5,0.5,1.2,1.3,2.1,2.3c1.7,2,4,4.8,6.5,7.9s4.7,6,6.2,8.2
		c0.8,1.1,1.4,1.9,1.8,2.5C648.4,370.6,648.6,371,648.8,371.4z"/>
	<path class="st0" d="M642.8,363.7c-1.2-1.3-2-2.9-2.5-4.7c-0.5-1.5-0.7-3.1-0.6-4.7h0.2c-0.1,0.4-0.2,0.5-0.2,0.5s0-0.2,0-0.6h0.2
		c0.1,1.6,0.4,3.1,0.8,4.6C641.3,360.5,642,362.2,642.8,363.7z"/>
	<path class="st0" d="M635.1,354c-0.5-0.4-1.1-0.7-1.7-1c-1.6-0.5-3.2-0.6-4.8-0.4c-1.6,0.1-3.3,0.4-4.9,0.8c-0.7,0.2-1.3,0.4-2,0.5
		c0.6-0.4,1.2-0.6,1.9-0.8c1.6-0.5,3.3-0.8,4.9-0.9c1.7-0.2,3.4,0,5,0.5C634.2,352.9,634.8,353.4,635.1,354z"/>
	<path class="st0" d="M633.3,351.7c0,0.1-1-0.4-2.7-1c-4.3-1.5-8.9-1.8-13.4-1c-1.7,0.3-2.8,0.6-2.8,0.5c0.2-0.1,0.5-0.2,0.7-0.3
		c0.7-0.2,1.3-0.4,2-0.6c2.3-0.5,4.6-0.7,6.9-0.5c2.3,0.2,4.6,0.7,6.7,1.5c0.7,0.3,1.3,0.5,1.9,0.9
		C632.9,351.4,633.1,351.5,633.3,351.7z"/>
	<path class="st0" d="M648.7,341.8c-0.8-2.2-1.5-4.5-2-6.8c-0.7-2.3-1.2-4.5-1.5-6.9c0.8,2.2,1.4,4.5,1.9,6.8
		C647.8,337.2,648.4,339.5,648.7,341.8z"/>
	<path class="st0" d="M648.8,341.8c-0.6-1.4-1.3-2.7-2.2-4c-0.9-1.2-2-2.3-3.2-3.3c0.4,0.1,0.9,0.3,1.2,0.6c0.9,0.7,1.7,1.5,2.3,2.4
		C648,338.8,648.6,340.2,648.8,341.8z"/>
	<path class="st0" d="M648.8,430.9c0,0-0.1-0.8-0.5-2.1c-0.5-1.9-1.2-3.7-2.1-5.4c-3-5.6-6.7-10.8-11-15.5c-2.5-2.8-4.8-5.5-6.9-8
		c-1.8-2.2-3.5-4.6-4.9-7.1c-1-1.7-1.8-3.4-2.5-5.3c-0.2-0.6-0.4-1.1-0.5-1.5c-0.1-0.2-0.1-0.4-0.1-0.5c0,0,0.3,0.7,0.8,2
		c0.7,1.8,1.6,3.5,2.6,5.2c1.5,2.4,3.2,4.8,5,7c2,2.5,4.4,5.1,6.9,8c4.4,4.7,8.1,10,11,15.7c0.9,1.8,1.5,3.6,2,5.5
		c0.1,0.5,0.2,1,0.3,1.6C648.8,430.5,648.8,430.7,648.8,430.9z"/>
	<path class="st0" d="M673.3,403.1c-0.4,0.3-0.8,0.5-1.3,0.7c-1.2,0.7-2.3,1.4-3.3,2.2c-1.6,1.2-3,2.6-4.4,4
		c-1.5,1.6-3.1,3.5-4.7,5.5c-3.2,4-6.3,7.6-8.1,10.5c-0.9,1.4-1.6,2.6-2,3.5c-0.2,0.4-0.4,0.9-0.7,1.3c0,0,0-0.1,0.1-0.4
		s0.2-0.6,0.4-1c0.6-1.2,1.2-2.4,1.9-3.5c2.5-3.7,5.1-7.2,8-10.6c1.6-2,3.2-3.9,4.8-5.5c1.4-1.5,2.9-2.8,4.5-4
		c1.1-0.8,2.2-1.5,3.5-2.1c0.4-0.2,0.8-0.4,1-0.5C673.1,403.2,673.2,403.2,673.3,403.1z"/>
	<path class="st0" d="M673.8,412.1c-0.9,0.2-1.8,0.3-2.7,0.4c-2.2,0.2-4.3,0.6-6.5,1.3c-2.1,0.7-4,1.7-5.8,3c-1.3,1-2,1.9-2,1.8
		c0.1-0.2,0.2-0.4,0.4-0.6c0.4-0.5,0.9-1,1.4-1.5c1.7-1.4,3.7-2.5,5.8-3.2c2.1-0.6,4.3-1,6.5-1.1
		C671.9,412.1,672.9,412.1,673.8,412.1z"/>
	<path class="st0" d="M657.6,417.7c-0.1-0.1,1.1-2,2-4.5s1.1-4.8,1.3-4.7c0.1,0.5,0.1,1,0,1.5c-0.1,1.2-0.4,2.3-0.8,3.4
		c-0.4,1.1-0.9,2.2-1.6,3.2C658.3,416.9,658,417.3,657.6,417.7z"/>
	<path class="st0" d="M681.2,379c0,0-0.1,0.1-0.4,0.2l-1.3,0.6c-0.6,0.2-1.2,0.5-2,1s-1.7,0.8-2.6,1.4l-1.5,0.8
		c-0.5,0.3-1,0.6-1.6,1c-1.1,0.7-2.2,1.5-3.3,2.3c-5,3.7-9.4,8.2-12.9,13.4c-0.8,1.2-1.6,2.3-2.2,3.4c-0.3,0.6-0.7,1.1-0.9,1.6
		s-0.5,1-0.8,1.5c-0.5,1-0.9,1.9-1.3,2.6s-0.7,1.5-0.9,2s-0.4,1-0.5,1.3c-0.1,0.2-0.1,0.3-0.2,0.4c0-0.2,0.1-0.3,0.1-0.5
		c0.1-0.4,0.3-0.8,0.5-1.3c0.2-0.7,0.5-1.4,0.8-2.1c0.3-0.8,0.7-1.7,1.2-2.7l0.8-1.5c0.3-0.5,0.6-1.1,0.9-1.6
		c0.6-1.1,1.4-2.3,2.2-3.5c3.5-5.2,7.9-9.8,13-13.5c1.2-0.8,2.3-1.6,3.4-2.3c0.5-0.3,1.1-0.7,1.6-1l1.5-0.8c1-0.5,1.9-0.9,2.6-1.3
		s1.5-0.7,2-0.9l1.3-0.5C680.9,379,681.1,379,681.2,379z"/>
	<path class="st0" d="M661.8,392c0.2-0.6,0.6-1.2,1.1-1.6c1.2-1,2.7-1.6,4.3-1.6c1.6,0,3.1,0.3,4.5,0.9c0.6,0.2,1.2,0.5,1.7,0.8
		c-0.6-0.1-1.2-0.3-1.8-0.5c-1.4-0.5-2.9-0.7-4.4-0.7c-1.5,0-2.9,0.5-4.1,1.4C662.6,391.1,662.2,391.5,661.8,392z"/>
	<path class="st0" d="M658.9,395c0.6-1.3,1-2.6,1.2-4c0.1-1.4,0-2.8-0.3-4.1c0.3,0.3,0.4,0.7,0.5,1.2c0.3,1,0.3,2,0.2,3
		c-0.1,1-0.4,2-0.9,2.9C659.3,394.7,659,395,658.9,395z"/>
	<path class="st0" d="M627.3,435.3c0.7,11.9,4.3,24,9.8,36.2h24c5.3-12.1,8.6-24.1,9.2-36.2H627.3z"/>
	<path class="st1" d="M666.3,454.5c0,0.1-7.9,0.2-17.6,0.2s-17.6-0.1-17.6-0.2s7.9-0.2,17.6-0.2S666.3,454.4,666.3,454.5z"/>
	<path class="st1" d="M665.7,458.8c0,0.1-7.4,0.2-16.5,0.2s-16.5-0.1-16.5-0.2s7.4-0.2,16.5-0.2S665.7,458.7,665.7,458.8z"/>
	<path class="st1" d="M637.4,443.1c0.3,3.7,0.3,7.3,0,11C637.1,450.4,637.1,446.8,637.4,443.1z"/>
	<path class="st1" d="M650.3,443.1c0.3,3.8,0.3,7.6,0,11.4C650,450.7,650,446.9,650.3,443.1z"/>
	<path class="st1" d="M662.3,443c0.3,3.9,0.3,7.8,0,11.6C662,450.8,662,446.9,662.3,443z"/>
	<path class="st1" d="M669.4,443.1c0,0.1-9.3,0.2-20.7,0.2s-20.6-0.1-20.6-0.2s9.2-0.2,20.6-0.2S669.4,443,669.4,443.1z"/>
	<rect x="301.4" y="91.3" class="st1" width="31.4" height="67.2"/>
	<rect x="334.1" y="163.1" class="st1" width="38.5" height="64.9"/>
	<polygon class="st1" points="377.3,90.1 413.9,90.1 413.9,30.6 415.2,30.6 415.2,90.1 449.1,90.1 449.1,29.2 377.3,29.2 	"/>
	<rect x="301.4" y="163.1" class="st1" width="31.4" height="64.9"/>
	<rect x="415.2" y="163.1" class="st1" width="33.9" height="64.9"/>
	<rect x="334.1" y="91.3" class="st1" width="38.5" height="67.2"/>
	<rect x="415.2" y="91.3" class="st1" width="33.9" height="67.2"/>
	<rect x="301.4" y="229.2" class="st1" width="31.4" height="58.5"/>
	<polygon class="st1" points="332.8,90.1 332.8,30.6 334.1,30.6 334.1,90.1 372.6,90.1 372.6,29.2 301.4,29.2 301.4,90.1 	"/>
	<rect x="334.1" y="229.2" class="st1" width="38.5" height="58.5"/>
	<rect x="415.2" y="229.2" class="st1" width="33.9" height="58.5"/>
	<rect x="377.3" y="91.3" class="st1" width="36.6" height="67.2"/>
	<rect x="377.3" y="229.2" class="st1" width="36.6" height="58.5"/>
	<rect x="377.3" y="163.1" class="st1" width="36.6" height="64.9"/>
	<rect x="453.8" y="91.3" class="st1" width="31.4" height="67.2"/>
	<rect x="486.5" y="163.1" class="st1" width="38.5" height="64.9"/>
	<polygon class="st1" points="529.7,90.1 566.3,90.1 566.3,30.6 567.6,30.6 567.6,90.1 601.5,90.1 601.5,29.2 529.7,29.2 	"/>
	<rect x="453.8" y="163.1" class="st1" width="31.4" height="64.9"/>
	<rect x="567.6" y="163.1" class="st1" width="33.9" height="64.9"/>
	<rect x="486.5" y="91.3" class="st1" width="38.5" height="67.2"/>
	<rect x="567.6" y="91.3" class="st1" width="33.9" height="67.2"/>
	<rect x="453.8" y="229.2" class="st1" width="31.4" height="58.5"/>
	<polygon class="st1" points="485.2,90.1 485.2,30.6 486.5,30.6 486.5,90.1 525,90.1 525,29.2 453.8,29.2 453.8,90.1 	"/>
	<rect x="486.5" y="229.2" class="st1" width="38.5" height="58.5"/>
	<rect x="567.6" y="229.2" class="st1" width="33.9" height="58.5"/>
	<rect x="529.7" y="91.3" class="st1" width="36.6" height="67.2"/>
	<rect x="529.7" y="229.2" class="st1" width="36.6" height="58.5"/>
	<rect x="529.7" y="163.1" class="st1" width="36.6" height="64.9"/>
	<rect x="148.5" y="91.3" class="st1" width="31.4" height="67.2"/>
	<rect x="181.2" y="163.1" class="st1" width="38.6" height="64.9"/>
	<polygon class="st1" points="224.4,90.1 261,90.1 261,30.6 262.3,30.6 262.3,90.1 296.2,90.1 296.2,29.2 224.4,29.2 	"/>
	<rect x="148.5" y="163.1" class="st1" width="31.4" height="64.9"/>
	<rect x="262.3" y="163.1" class="st1" width="33.9" height="64.9"/>
	<rect x="181.2" y="91.3" class="st1" width="38.6" height="67.2"/>
	<rect x="262.3" y="91.3" class="st1" width="33.9" height="67.2"/>
	<rect x="148.5" y="229.2" class="st1" width="31.4" height="58.5"/>
	<polygon class="st1" points="179.9,90.1 179.9,30.6 181.2,30.6 181.2,90.1 219.7,90.1 219.7,29.2 148.5,29.2 148.5,90.1 	"/>
	<rect x="181.2" y="229.2" class="st1" width="38.6" height="58.5"/>
	<rect x="262.3" y="229.2" class="st1" width="33.9" height="58.5"/>
	<rect x="224.4" y="91.3" class="st1" width="36.6" height="67.2"/>
	<rect x="224.4" y="229.2" class="st1" width="36.6" height="58.5"/>
	<rect x="224.4" y="163.1" class="st1" width="36.6" height="64.9"/>
	<rect x="501.5" y="364.7" class="st0" width="7.8" height="93"/>
	<path class="st2" d="M450.5,368.9h111c0-6.6-5.4-12-12-12h-86.9C455.9,356.9,450.6,362.3,450.5,368.9L450.5,368.9z"/>
	<path class="st0" d="M561.9,369.4H450v-0.5c0-6.9,5.6-12.5,12.5-12.5h86.9c6.9,0,12.5,5.6,12.5,12.5L561.9,369.4z M450.9,368.5H561
		c-0.3-6.2-5.4-11.1-11.6-11.1h-86.9C456.3,357.3,451.2,362.2,450.9,368.5z"/>
	<path class="st0" d="M497.9,369.1c4.5,0.4,9.1,0.4,13.6,0C506.9,368.8,502.4,368.8,497.9,369.1z"/>
	<path class="st2" d="M471.4,466.1h1.1c0-18.2,14.8-33,33-33s33,14.8,33,33h1.1c-0.3-18.8-15.9-33.9-34.7-33.5
		C486.6,432.9,471.8,447.7,471.4,466.1z"/>
	<path class="st0" d="M534,467.8c0,2.8,2.3,5.1,5.1,5.1s5.1-2.3,5.1-5.1s-2.3-5.1-5.1-5.1l0,0C536.3,462.7,534,465,534,467.8
		C534,467.8,534,467.8,534,467.8z"/>
	<path class="st0" d="M466.6,467.1c0,2.8,2.3,5.1,5.1,5.1s5.1-2.3,5.1-5.1s-2.3-5.1-5.1-5.1c0,0,0,0,0,0
		C468.9,462,466.6,464.3,466.6,467.1z"/>
	<path class="st2" d="M471.8,457.7c0,0.2,14.9,0.3,33.2,0.3s33.2-0.1,33.2-0.3s-14.8-0.3-33.2-0.3S471.8,457.5,471.8,457.7z"/>
	<path class="st2" d="M564.8,272.6v68.5c0,9-7.3,16.3-16.3,16.3c0,0,0,0,0,0h-52.8l7.2-84.7c0-4,3.2-7.2,7.3-7.2h47.4
		C561.5,265.4,564.7,268.6,564.8,272.6z"/>
	<path class="st0" d="M546.1,356.9c0,0,0-0.1,0.1-0.2l0.4-0.6c0.3-0.5,0.8-1.2,1.5-2.2c1.7-2.7,3-5.7,3.9-8.7
		c0.6-2.1,1.1-4.3,1.3-6.5c0.2-2.5,0.3-5.1,0.2-7.6c0-5.4,0-11.3,0-17.5c0-12.4,0.1-23.6,0.1-31.8c0-4,0.1-7.3,0.1-9.6
		c0-1.1,0-2,0-2.6c0-0.3,0-0.6,0.1-0.9c0,0.3,0,0.6,0,0.9c0,0.6,0,1.5,0.1,2.6c0,2.3,0,5.6,0.1,9.6c0,8.2,0,19.4,0.1,31.8
		c0,6.2,0,12.1,0,17.5c0.1,2.6,0,5.1-0.3,7.7c-0.3,2.2-0.7,4.4-1.4,6.5c-1,3.1-2.3,6-4.1,8.7c-0.6,1-1.2,1.7-1.5,2.1
		C546.5,356.4,546.3,356.6,546.1,356.9z"/>
	<path class="st0" d="M517.4,356.9c0.6-0.1,1.1-0.1,1.7-0.1l4.6,0c3.9,0,9.2,0,15.1,0c2.9,0,5.8,0,8.3,0.1c2.3,0,4.6,0.2,6.8,0.7
		c1.5,0.4,2.9,1.1,4.1,2.1c0.3,0.3,0.6,0.6,0.9,0.9c0.2,0.2,0.3,0.3,0.3,0.4s-0.4-0.4-1.3-1.1c-1.2-0.9-2.5-1.6-4-1.9
		c-2.2-0.5-4.4-0.7-6.7-0.6l-8.3,0c-5.9,0-11.2-0.1-15.1-0.2l-4.6-0.1C518.5,357,517.9,357,517.4,356.9z"/>
	<rect x="225" y="364.7" class="st0" width="7.8" height="93"/>
	<path class="st2" d="M283.8,368.9h-111c0-6.6,5.4-12,12.1-12h86.9C278.3,356.9,283.7,362.3,283.8,368.9L283.8,368.9z"/>
	<path class="st0" d="M172.3,368.9c0-6.9,5.6-12.5,12.5-12.5h86.9c6.9,0,12.5,5.6,12.5,12.5v0.5H172.3V368.9z M271.7,357.3h-86.9
		c-6.2,0-11.3,4.9-11.6,11.1h110.1C283.1,362.2,278,357.3,271.7,357.3z"/>
	<path class="st0" d="M236.4,369.1c-2.3,0.3-4.5,0.4-6.8,0.3c-2.3,0.1-4.6,0-6.8-0.3c2.3-0.3,4.5-0.4,6.8-0.3
		C231.9,368.8,234.1,368.9,236.4,369.1z"/>
	<path class="st2" d="M262.8,466.1h-1.1c0-18.2-14.8-33-33-33s-33,14.8-33,33l0,0h-1.1c0.3-18.8,15.9-33.9,34.7-33.5
		C247.7,432.9,262.5,447.7,262.8,466.1L262.8,466.1z"/>
	<path class="st0" d="M200.2,467.8c0,2.8-2.3,5.1-5.1,5.1s-5.1-2.3-5.1-5.1c0-2.8,2.3-5.1,5.1-5.1c0,0,0,0,0,0
		C197.9,462.7,200.2,465,200.2,467.8C200.2,467.8,200.2,467.8,200.2,467.8z"/>
	<path class="st0" d="M267.6,467.1c0,2.8-2.3,5.1-5.1,5.1s-5.1-2.3-5.1-5.1c0-2.8,2.3-5.1,5.1-5.1c0,0,0,0,0,0
		C265.3,462,267.6,464.3,267.6,467.1z"/>
	<path class="st2" d="M262.5,457.7c0,0.2-14.9,0.3-33.2,0.3s-33.2-0.1-33.2-0.3s14.9-0.3,33.2-0.3S262.5,457.5,262.5,457.7z"/>
	<path class="st2" d="M169.5,272.6v68.5c0,9,7.3,16.3,16.3,16.3c0,0,0,0,0,0h52.8l-7.2-84.7c0-4-3.2-7.2-7.2-7.2h-47.3
		C172.7,265.4,169.5,268.6,169.5,272.6z"/>
	<path class="st0" d="M188.1,356.9c0-0.1-0.1-0.1-0.1-0.2l-0.4-0.6c-0.4-0.5-0.9-1.2-1.4-2.2c-1.7-2.7-3-5.7-3.9-8.7
		c-0.6-2.1-1.1-4.3-1.3-6.5c-0.2-2.5-0.3-5.1-0.2-7.6c0-5.4,0-11.3,0-17.5c0-12.4-0.1-23.6-0.1-31.8c0-4-0.1-7.3-0.1-9.6
		c0-1.1,0-2,0-2.6c0-0.3,0-0.6-0.1-0.9c0,0.3-0.1,0.6-0.1,0.9c0,0.6,0,1.5-0.1,2.6c0,2.3,0,5.6-0.1,9.6c0,8.2,0,19.4-0.1,31.8
		c0,6.2,0,12.1,0,17.5c-0.1,2.6,0,5.1,0.3,7.7c0.3,2.2,0.7,4.4,1.4,6.5c1,3.1,2.3,6,4.1,8.7c0.6,1,1.2,1.7,1.5,2.1
		C187.7,356.4,187.9,356.6,188.1,356.9z"/>
	<path class="st0" d="M216.9,356.9c-0.6-0.1-1.1-0.1-1.7-0.1l-4.6,0c-3.9,0-9.2,0-15.1,0c-2.9,0-5.8,0-8.3,0.1
		c-2.3,0-4.6,0.2-6.8,0.7c-1.5,0.4-2.9,1.1-4.1,2.1c-0.3,0.3-0.6,0.6-0.9,0.9c-0.2,0.2-0.3,0.3-0.3,0.4s0.4-0.4,1.3-1.1
		c1.2-0.9,2.5-1.6,4-1.9c2.2-0.5,4.4-0.7,6.7-0.6l8.3,0c5.9,0,11.2-0.1,15.1-0.2l4.6-0.1C215.7,357,216.3,357,216.9,356.9z"/>
	<rect x="50.8" y="311.8" class="st2" width="297.6" height="9.2"/>
	<polygon class="st2" points="76.6,319.9 54.3,472.9 59.1,472.9 86.6,321 	"/>
	<polygon class="st2" points="327.4,318.9 351,472.9 346.2,472.9 317.4,320.3 	"/>
	<path class="st3" d="M62.1,274.9v20.6h-3.5v2.2h3.5v13.8h64.4V299h-4.8v-2.7h4.8v-4.1h2.1v-1.9h-2.5v-15.4H62.1z"/>
	<polygon class="st0" points="109.4,274.9 109.4,311.3 126.6,311.3 126.6,298.8 121.8,298.8 121.8,296.2 126.6,296.3 126.6,292.2 
		128.7,292.2 128.7,290.1 126.2,290 126.2,274.9 	"/>
	<path class="st0" d="M110.7,297.4c0,0.1-11.7,0.2-26,0.2s-26-0.1-26-0.2s11.7-0.2,26-0.2S110.7,297.3,110.7,297.4z"/>
	<path class="st0" d="M110.7,295.3c0,0.1-11.7,0.2-26,0.2s-26-0.1-26-0.2s11.7-0.2,26-0.2S110.7,295.2,110.7,295.3z"/>
	<path class="st0" d="M114,289.7c0,0.1-11.7,0.2-26,0.2s-26-0.1-26-0.2s11.7-0.2,26-0.2S114,289.6,114,289.7z"/>
	<path class="st0" d="M114.3,305.1c0,0.1-11.7,0.2-26,0.2s-26-0.1-26-0.2s11.7-0.2,26-0.2S114.3,305,114.3,305.1z"/>
	<rect x="120.1" y="261" class="st3" width="11.2" height="13.4"/>
	<rect x="69.7" y="260.2" class="st0" width="50.8" height="15.1"/>
	<path class="st0" d="M131.7,261.4h-12.5v-1.3h12.5c0.3,0,0.6,0.3,0.6,0.6l0,0l0,0C132.3,261.1,132,261.4,131.7,261.4
		C131.7,261.4,131.7,261.4,131.7,261.4z"/>
	<path class="st0" d="M131.7,275.2h-12.5V274h12.5c0.3,0,0.6,0.3,0.6,0.6l0,0l0,0C132.3,275,132,275.2,131.7,275.2z"/>
	<rect x="110.5" y="260.2" class="st2" width="6" height="15.1"/>
	<rect x="74.5" y="260.3" class="st2" width="6" height="15.1"/>
	<path class="st0" d="M131.3,263.2c0,0-2.4,0.1-5.4,0.1s-5.4,0-5.4-0.1s2.4-0.1,5.4-0.1C128.9,263.2,131.3,263.2,131.3,263.2z"/>
	<path class="st0" d="M131.3,265.2c0,0-2.4,0.1-5.4,0.1s-5.4,0-5.4-0.1s2.4-0.1,5.4-0.1C128.9,265.2,131.3,265.2,131.3,265.2z"/>
	<path class="st0" d="M131.3,267.7c0,0-2.4,0.1-5.4,0.1s-5.4,0-5.4-0.1s2.4-0.1,5.4-0.1C128.9,267.6,131.3,267.7,131.3,267.7z"/>
	<path class="st0" d="M131.3,270.2c0,0-2.4,0.1-5.4,0.1s-5.4,0-5.4-0.1s2.4-0.1,5.4-0.1C128.9,270.1,131.3,270.1,131.3,270.2z"/>
	<path class="st0" d="M131.3,272.6c0,0-2.4,0.1-5.4,0.1s-5.4,0-5.4-0.1s2.4-0.1,5.4-0.1C128.9,272.6,131.3,272.6,131.3,272.6z"/>
	<rect x="84.4" y="266.4" class="st2" width="22.8" height="2.7"/>
	<polygon class="st0" points="109.8,245.5 116.1,260.4 112.1,260.4 109.3,252.4 	"/>
	<polygon class="st2" points="90.4,232.1 88,260.4 108.6,260.4 110.9,232.1 	"/>
	<polygon class="st1" points="92.4,234.3 90.3,258 105.8,258.2 107.9,234.2 	"/>
	<polygon class="st0" points="95.7,237.6 94.5,253.9 102.8,253.9 104.2,237.6 	"/>
	<path class="st0" d="M585.1,63.8h100.1c4.3,0,7.9,3.5,7.9,7.9v56.1c0,4.3-3.5,7.9-7.9,7.9H585.1c-4.3,0-7.9-3.5-7.9-7.9V71.7
		C577.2,67.3,580.7,63.8,585.1,63.8z"/>
	
		<ellipse transform="matrix(0.7071 -0.7071 0.7071 0.7071 114.8262 478.6084)" class="st2" cx="635.1" cy="100.7" rx="8.8" ry="8.8"/>
	<path class="st4" d="M633,103.3v-5.2c0-0.2,0.1-0.3,0.3-0.3c0.1,0,0.1,0,0.2,0l4.7,2.6c0.2,0.1,0.2,0.3,0.1,0.5
		c0,0-0.1,0.1-0.1,0.1l-4.7,2.6c-0.2,0.1-0.4,0-0.4-0.1C633,103.4,633,103.3,633,103.3z"/>
	<path class="st4" d="M583.8,127.4v0.2H583v-0.2l0.5-0.4c0.1-0.1,0.1-0.2,0.1-0.2s-0.1-0.2-0.2-0.2c-0.1,0-0.2,0-0.3,0.1l-0.2-0.1
		c0.1-0.1,0.3-0.2,0.5-0.2c0.3,0,0.4,0.1,0.4,0.3c0,0.1-0.1,0.3-0.2,0.4l-0.3,0.3L583.8,127.4z"/>
	<path class="st4" d="M584,126.8c0-0.1,0.1-0.1,0.1-0.1c0,0,0,0,0,0c0.1,0,0.1,0.1,0.1,0.1c0,0,0,0,0,0c0,0.1-0.1,0.1-0.1,0.1l0,0
		C584.1,126.9,584,126.9,584,126.8C584,126.8,584,126.8,584,126.8z M584,127.4c0-0.1,0-0.1,0.1-0.1c0,0,0,0,0,0
		c0.1,0,0.1,0.1,0.1,0.1c0,0.1-0.1,0.1-0.1,0.1c0,0,0,0,0,0C584.1,127.6,584,127.5,584,127.4C584,127.4,584,127.4,584,127.4z"/>
	<path class="st4" d="M584.8,126.4v1.2h-0.2v-1h-0.3v-0.2H584.8z"/>
	<path class="st4" d="M586.1,127.3h-0.2v0.3h-0.2v-0.3H585v-0.2l0.6-0.8h0.2l-0.5,0.7h0.4v-0.2h0.2v0.2h0.2L586.1,127.3z"/>
	<rect x="588" y="126.8" class="st4" width="89.7" height="0.5"/>
	<rect x="587.9" y="126.3" class="st2" width="28" height="1.3"/>
	<path class="st2" d="M616.9,127c0,0.8-0.6,1.4-1.4,1.4c-0.8,0-1.4-0.6-1.4-1.4c0-0.8,0.6-1.4,1.4-1.4c0,0,0,0,0,0
		C616.3,125.6,616.9,126.2,616.9,127z"/>
	<path class="st4" d="M680,127c0,0.2-0.2,0.4-0.4,0.4c0,0,0,0,0,0c-0.3,0-0.5-0.2-0.5-0.6c0-0.3,0.2-0.6,0.5-0.6
		c0.1,0,0.2,0,0.3,0.1l-0.1,0.2c-0.1,0-0.1-0.1-0.2-0.1c-0.2,0-0.4,0.1-0.4,0.4l0,0c0.1-0.1,0.2-0.1,0.3-0.1
		C679.8,126.6,680,126.8,680,127C680,127,680,127,680,127z M679.8,127c0-0.1-0.1-0.2-0.2-0.2s-0.2,0.1-0.2,0.2
		c0,0.1,0.1,0.2,0.2,0.2c0,0,0,0,0,0C679.7,127.2,679.8,127.2,679.8,127z"/>
	<path class="st4" d="M680.1,126.6c0-0.1,0.1-0.1,0.1-0.1l0,0c0.1,0,0.1,0.1,0.1,0.1c0,0.1-0.1,0.1-0.1,0.1c0,0,0,0,0,0
		C680.2,126.8,680.1,126.7,680.1,126.6C680.1,126.6,680.1,126.6,680.1,126.6z M680.1,127.3c0-0.1,0.1-0.1,0.1-0.1l0,0
		c0.1,0,0.1,0,0.1,0.1c0,0,0,0,0,0c0,0.1-0.1,0.1-0.1,0.1l0,0C680.2,127.4,680.1,127.3,680.1,127.3
		C680.1,127.3,680.1,127.3,680.1,127.3z"/>
	<path class="st4" d="M680.5,126.8c0-0.4,0.2-0.6,0.5-0.6s0.5,0.2,0.5,0.6s-0.2,0.6-0.5,0.6S680.5,127.2,680.5,126.8z M681.3,126.8
		c0-0.3-0.1-0.4-0.3-0.4s-0.3,0.1-0.3,0.4s0.1,0.4,0.3,0.4S681.3,127.1,681.3,126.8L681.3,126.8z"/>
	<path class="st4" d="M681.7,126.8c0-0.4,0.2-0.6,0.5-0.6s0.5,0.2,0.5,0.6s-0.2,0.6-0.5,0.6S681.7,127.2,681.7,126.8z M682.4,126.8
		c0-0.3-0.1-0.4-0.3-0.4s-0.3,0.1-0.3,0.4s0.1,0.4,0.3,0.4S682.4,127.1,682.4,126.8z"/>
	<polygon class="st4" points="684.6,126.7 684.1,126.7 684.1,125.5 685.3,125.5 685.3,126 684.6,126 	"/>
	<polygon class="st4" points="685.3,128.3 684.1,128.3 684.1,127.1 684.6,127.1 684.6,127.8 685.3,127.8 	"/>
	<polygon class="st4" points="687.2,128.3 686,128.3 686,127.8 686.8,127.8 686.8,127.1 687.2,127.1 	"/>
	<polygon class="st4" points="687.2,126.7 686.8,126.7 686.8,126 686,126 686,125.5 687.2,125.5 	"/>
	<path class="st4" d="M671.9,70.8c0.8-0.1,1.6-0.1,2.4-0.1h0.1v0.1c0,0.9,0,2,0,3.1v0.4l-0.3-0.3l-0.3-0.3c-0.3-0.3-0.6-0.6-0.8-0.8
		h0.2L672,74l-0.2,0.2v-0.3c0-1,0-1.8,0.1-2.3C671.8,71.3,671.9,71.1,671.9,70.8c0,0.3,0,0.6,0,0.9c0,0.6,0.1,1.3,0.1,2.2l-0.2-0.1
		l1.3-1.2l0.1-0.1l0.1,0.1c0.3,0.3,0.5,0.6,0.8,0.8l0.3,0.3l-0.3,0.1c0-1.1,0-2.2,0-3.1l0.1,0.1C673.5,70.9,672.7,70.9,671.9,70.8z"
		/>
	<path class="st4" d="M680.9,71.2c-0.2,0.3-0.4,0.5-0.6,0.8c-0.4,0.5-1,1.2-1.7,2.1l-0.3,0.3v-2.1l0,0.1l-1.1-1L677,71h0.4
		c1.1,0,2,0.1,2.6,0.1S681,71.2,680.9,71.2l-1,0c-0.6,0-1.5,0.1-2.5,0.1l0.1-0.3c0.3,0.3,0.7,0.7,1.1,1l0,0v0.2c0,0.5,0,1.1,0,1.5
		l-0.3-0.1c0.7-0.8,1.3-1.4,1.8-1.8S680.9,71.2,680.9,71.2z"/>
	<path class="st4" d="M680.9,71.2c0,0.1-0.5,0.4-1.2,0.7s-1.3,0.4-1.3,0.4s0.5-0.4,1.2-0.7C680,71.3,680.5,71.2,680.9,71.2z"/>
	<path class="st4" d="M685.3,70.8c0,0,0.2,0,0.4,0c0.4,0.1,0.7,0.3,1,0.6c0.4,0.5,0.5,1.2,0.3,1.8c-0.3,1-1.4,1.5-2.4,1.1
		c-0.5-0.2-1-0.6-1.1-1.1c-0.2-0.6-0.1-1.3,0.3-1.8c0.3-0.3,0.6-0.5,1-0.6C685.1,70.8,685.2,70.8,685.3,70.8c-0.1,0-0.2,0-0.5,0.1
		c-0.4,0.1-0.7,0.3-0.9,0.6c-0.3,0.4-0.4,1-0.2,1.5c0.3,0.8,1.2,1.3,2,1c0.5-0.2,0.8-0.5,1-1c0.2-0.5,0.1-1.1-0.2-1.5
		c-0.2-0.3-0.5-0.5-0.9-0.6C685.4,70.8,685.3,70.8,685.3,70.8z"/>
	<path class="st4" d="M685.9,73.3c-0.1,0.1-0.5-0.2-0.9-0.6v-0.1v-0.1l0,0c0-0.6,0.1-1,0.2-1s0.2,0.5,0.2,1l0,0v-0.1
		C685.7,72.8,685.9,73.2,685.9,73.3z"/>
	<path class="st4" d="M643.3,73.2c0,0.1-11.9,0.2-26.6,0.2s-26.6-0.1-26.6-0.2S602,73,616.7,73S643.3,73.1,643.3,73.2z"/>
	<path class="st4" d="M587.6,73.2c0,1.2-0.9,2.1-2.1,2.1s-2.1-0.9-2.1-2.1c0-1.2,0.9-2.1,2.1-2.1c0,0,0,0,0,0
		C586.7,71.1,587.6,72,587.6,73.2z"/>
</g>
<g id="freepik--Floor--inject-7">
	<path class="st5" d="M698.8,472.9c0,0.1-145,0.3-323.8,0.3s-323.8-0.1-323.8-0.3s144.9-0.3,323.8-0.3S698.8,472.8,698.8,472.9z"/>
</g>
<g id="freepik--Post--inject-7">
	<polygon class="st4" points="71.8,65.1 71.8,154 149.3,154 149.3,154 162.4,154 149.3,139.5 149.3,65.1 	"/>
	<path class="st5" d="M71.8,65.1c0,0,0.5,0,1.4,0h4.1h15.6l56.5-0.1h0.2v0.2c0,21.5,0,47,0,74.5l-0.1-0.2l13.1,14.5l0.4,0.4h-13.6
		l0.3-0.3l-0.3,0.3H71.8h-0.2V154c0-26.7,0.1-48.9,0.1-64.5c0-7.8,0-13.9,0.1-18.1v-4.7v-1.2C71.8,65.2,71.8,65.1,71.8,65.1
		c-0.1,0-0.1,0.2-0.1,0.4v1.2v4.8c0,4.2,0,10.3,0.1,18.1c0,15.6,0.1,37.8,0.1,64.4l-0.2-0.2h77.5L149,154l0.3-0.3h13.1l-0.2,0.4
		L149,139.7l-0.1-0.1v-0.1c0-27.5,0-52.9,0-74.5l0.2,0.2L93,65.2H77.3h-4.1C72.3,65.1,71.8,65.1,71.8,65.1z"/>
	<path class="st5" d="M137.7,149.9c-0.9,0-1.7-0.8-1.7-1.7c0-0.9,0.8-1.7,1.7-1.7c0.9,0,1.7,0.8,1.7,1.7l0,0c0,0.3-0.1,0.7-0.3,0.9
		l0.3,0.6c0,0,0,0.1,0,0.1c0,0-0.1,0-0.1,0l-0.6-0.3C138.4,149.8,138.1,149.9,137.7,149.9z M137.7,146.7c-0.9,0-1.5,0.7-1.5,1.5
		c0,0.9,0.7,1.5,1.5,1.5c0.3,0,0.7-0.1,0.9-0.3c0,0,0.1,0,0.1,0l0.5,0.2l-0.2-0.5c0,0,0,0,0-0.1c0.5-0.7,0.3-1.7-0.4-2.1
		C138.3,146.8,138,146.7,137.7,146.7L137.7,146.7z"/>
	<path class="st5" d="M143.8,150.2L143.8,150.2l-1.3-1l-1.3,1c-0.1,0-0.1,0-0.1,0c0,0,0,0,0,0v-3.6c0,0,0-0.1,0.1-0.1h2.8
		c0,0,0.1,0,0.1,0.1v3.6c0,0,0,0,0,0.1L143.8,150.2z M142.4,149.1L142.4,149.1l1.3,0.9v-3.3h-2.6v3.3L142.4,149.1L142.4,149.1z"/>
	<path class="st5" d="M86.8,73.3v1.6h-0.3l-0.8-1v1h-0.4v-1.6h0.3l0.8,1v-1H86.8z"/>
	<path class="st5" d="M87.1,73.3c0-0.1,0.1-0.2,0.2-0.2c0,0,0,0,0,0c0.1,0,0.2,0.1,0.2,0.2c0,0.1-0.1,0.2-0.2,0.2c0,0,0,0,0,0
		C87.2,73.5,87.1,73.4,87.1,73.3C87.1,73.3,87.1,73.3,87.1,73.3z M87.1,73.7h0.3v1.2h-0.3V73.7z"/>
	<path class="st5" d="M87.7,74.3c0-0.3,0.3-0.6,0.6-0.6c0,0,0,0,0.1,0c0.3,0,0.5,0.1,0.6,0.3l-0.3,0.1C88.7,74,88.5,74,88.4,74
		c-0.2,0-0.3,0.2-0.3,0.4c0,0.1,0.1,0.3,0.3,0.3c0.1,0,0.2-0.1,0.3-0.2l0.3,0.2c-0.1,0.2-0.3,0.3-0.6,0.3
		C88.1,75,87.7,74.7,87.7,74.3C87.7,74.4,87.7,74.3,87.7,74.3z"/>
	<path class="st5" d="M89.7,74.4l-0.2,0.2v0.3h-0.3v-1.7h0.3v1l0.5-0.5h0.4l-0.5,0.5l0.6,0.7h-0.4L89.7,74.4z"/>
	<path class="st5" d="M91.9,74.2v0.7h-0.4v-0.7c0-0.2-0.1-0.3-0.2-0.3c-0.2,0-0.3,0.1-0.3,0.3c0,0,0,0,0,0.1v0.6h-0.3v-1.2H91v0.2
		c0.1-0.1,0.2-0.2,0.4-0.2C91.7,73.7,91.9,73.9,91.9,74.2C91.9,74.2,91.9,74.2,91.9,74.2z"/>
	<path class="st5" d="M93.3,74.2v0.7H93v-0.2c-0.1,0.1-0.2,0.2-0.4,0.2c-0.3,0-0.5-0.2-0.5-0.4s0.2-0.4,0.5-0.4H93
		c0-0.2-0.1-0.2-0.3-0.2c-0.1,0-0.2,0-0.3,0.1l-0.1-0.3c0.2-0.1,0.3-0.2,0.5-0.2C93.1,73.7,93.3,73.8,93.3,74.2z M92.9,74.5v-0.1
		h-0.3c-0.2,0-0.2,0.1-0.2,0.2s0.1,0.1,0.2,0.1C92.8,74.7,92.9,74.6,92.9,74.5z"/>
	<path class="st5" d="M95.7,74.2v0.7h-0.4v-0.7c0-0.2-0.1-0.3-0.2-0.3s-0.3,0.1-0.3,0.3v0.6h-0.3v-0.7c0-0.2-0.1-0.3-0.2-0.3
		S94,74.1,94,74.3v0.6h-0.4v-1.2H94v0.1c0.1-0.1,0.2-0.2,0.4-0.2c0.2,0,0.3,0.1,0.4,0.2c0.1-0.1,0.3-0.2,0.4-0.2
		C95.5,73.7,95.7,73.8,95.7,74.2z"/>
	<path class="st5" d="M97.2,74.4h-0.9c0,0.2,0.2,0.3,0.3,0.3c0.1,0,0.2,0,0.3-0.1l0.2,0.2c-0.1,0.1-0.3,0.2-0.5,0.2
		c-0.3,0-0.6-0.3-0.7-0.6c0-0.3,0.3-0.6,0.6-0.7c0.3,0,0.6,0.2,0.6,0.6C97.2,74.3,97.2,74.3,97.2,74.4
		C97.2,74.3,97.2,74.4,97.2,74.4z M96.3,74.2h0.6c0-0.2-0.1-0.3-0.3-0.3C96.4,73.9,96.3,74,96.3,74.2z"/>
	<path class="st5" d="M139.5,73.7c0,0.3-0.2,0.5-0.5,0.5c-0.3,0-0.5-0.2-0.5-0.5s0.2-0.5,0.5-0.5c0,0,0,0,0,0
		C139.3,73.2,139.5,73.4,139.5,73.7z"/>
	<path class="st5" d="M141.4,73.7c0,0.2-0.2,0.5-0.4,0.5c0,0,0,0,0,0c-0.3,0-0.5-0.2-0.5-0.5v0c0-0.3,0.2-0.5,0.5-0.5
		C141.2,73.2,141.4,73.4,141.4,73.7L141.4,73.7z"/>
	<path class="st5" d="M143.3,73.7c0,0.3-0.2,0.5-0.5,0.5c-0.3,0-0.5-0.2-0.5-0.5c0-0.3,0.2-0.5,0.5-0.5
		C143.1,73.2,143.3,73.4,143.3,73.7z"/>
	<path class="st6" d="M133.1,149.9L133.1,149.9c-0.1,0-1.9-1.2-1.9-2.2c0-0.6,0.5-1.1,1.1-1.1c0.3,0,0.6,0.1,0.8,0.3
		c0.2-0.2,0.5-0.3,0.8-0.3c0.6,0,1.1,0.5,1.1,1.1C135,148.8,133.2,149.9,133.1,149.9C133.1,149.9,133.1,149.9,133.1,149.9
		C133.1,149.9,133.1,149.9,133.1,149.9z"/>
	<rect x="76.5" y="80.5" class="st0" width="68.2" height="62.4"/>
	<path class="st5" d="M144.7,142.9c0,0,0-0.4,0-1.2s0-1.9,0-3.4c0-2.9,0-7.2,0-12.7c0-10.9,0-26.5-0.1-45.2l0.1,0.2H76.6l0,0
		l0.2-0.2c0,22.7,0,44.1,0,62.4l-0.2-0.1l49.4,0.1h13.9h3.7l0,0h-3.6H126l-49.5,0.1h-0.2v-0.1c0-18.3,0-39.7,0-62.4v-0.2h0.2h68.2
		h0.1v0.1c0,18.8-0.1,34.4-0.1,45.3c0,5.4,0,9.7,0,12.6c0,1.4,0,2.6,0,3.3S144.7,142.9,144.7,142.9z"/>
	<path class="st3" d="M83.3,73.5c0,1.9-1.6,3.5-3.5,3.5c-1.9,0-3.5-1.6-3.5-3.5c0-1.9,1.6-3.5,3.5-3.5C81.7,70,83.3,71.6,83.3,73.5
		C83.3,73.5,83.3,73.5,83.3,73.5z"/>
	<circle class="st0" cx="79.8" cy="72.7" r="1.1"/>
	<path class="st0" d="M82,76.2c0-1.2-1-2.2-2.2-2.2c-1.2,0-2.2,1-2.2,2.2c0.6,0.6,1.4,0.9,2.2,0.8C80.6,77,81.4,76.7,82,76.2z"/>
	<path class="st4" d="M103.8,98.6l-1.9,9.4h-0.8l-4.5-7.8L95,108h-1l1.9-9.4h0.8l4.5,7.8l1.6-7.8L103.8,98.6z"/>
	<path class="st4" d="M107.7,99.4l-0.7,3.4h4.9l-0.2,0.8h-4.9l-0.7,3.5h5.7l-0.2,0.9H105l1.9-9.4h6.5l-0.2,0.9H107.7z"/>
	<path class="st4" d="M128.7,98.6l-5.1,9.4h-1.1l-1.2-8l-4.4,8h-1l-1.3-9.4h1l1.1,8.1l4.4-8.1h0.9l1.2,8.1l4.4-8.1L128.7,98.6z"/>
	<path class="st4" d="M96.8,118.2c0,2.1-1.6,3.4-4.1,3.4h-1.9v2.6h-2.2v-9.4h4.1C95.3,114.7,96.8,116,96.8,118.2z M94.6,118.2
		c0-1-0.7-1.6-2-1.6h-1.8v3.3h1.8C94,119.8,94.6,119.2,94.6,118.2z"/>
	<path class="st4" d="M97.9,119.4c-0.2-2.9,2-5.3,4.9-5.5s5.3,2,5.5,4.9c0.2,2.9-2,5.3-4.9,5.5c-0.1,0-0.2,0-0.3,0
		c-2.7,0.1-5-1.9-5.2-4.6C97.9,119.6,97.9,119.5,97.9,119.4z M106.1,119.4c0-1.7-1.3-3-3-3s-3,1.3-3,3s1.3,3,3,3
		c1.6,0.1,2.9-1.2,3-2.8C106.1,119.6,106.1,119.5,106.1,119.4z"/>
	<path class="st4" d="M109.2,123.2l0.7-1.7c0.9,0.6,2,1,3.1,1c1.3,0,1.8-0.4,1.8-1c0-1.8-5.5-0.6-5.5-4c0-1.6,1.3-2.9,4-2.9
		c1.1,0,2.3,0.3,3.3,0.8l-0.7,1.7c-0.8-0.5-1.7-0.7-2.6-0.7c-1.3,0-1.8,0.5-1.8,1.1c0,1.7,5.5,0.5,5.5,4c0,1.6-1.3,2.9-4,2.9
		C111.7,124.4,110.3,124,109.2,123.2z"/>
	<path class="st4" d="M120.3,116.5h-3v-1.8h8.2v1.8h-3v7.7h-2.2L120.3,116.5z"/>
	<path class="st4" d="M126.5,123.1c0.1-0.7,0.7-1.2,1.4-1.2c0.6,0.1,1.1,0.6,1.2,1.2c-0.1,0.7-0.7,1.2-1.4,1.2
		C127.1,124.2,126.6,123.7,126.5,123.1z M126.5,114.7h2.5l-0.4,6.2H127L126.5,114.7z"/>
	<path class="st4" d="M130.4,123.1c0-0.7,0.6-1.3,1.3-1.3c0.7,0,1.3,0.6,1.3,1.3s-0.6,1.3-1.3,1.3
		C131,124.3,130.4,123.8,130.4,123.1z M130.4,114.7h2.5l-0.4,6.2h-1.7L130.4,114.7z"/>
	<path class="st5" d="M119.9,148.1c1.9,0-9.1,0.1-21.2,0.2c-11.7,0-21.2-0.1-21.2-0.2S87,148,98.7,148S119.8,148.1,119.9,148.1z"/>
</g>
<g id="freepik--Video--inject-7">
	<path class="st6" d="M693.3,203.8c0,0,0-0.3,0-0.9s0-1.5,0-2.6c0-2.3,0-5.7,0-10c0-8.6,0-21-0.1-36.1l0.2,0.1h-71.2l0,0l0.2-0.2
		c0,17.7,0,34.6,0,49.6l-0.2-0.2l51.3,0.1h14.6h3.9l0,0h-3.9h-14.6l-51.4,0.1H622v-0.2c0-15,0-31.9,0-49.6v0h0.2h71.2h0.2v0.1
		c0,15.1-0.1,27.5-0.1,36.2c0,4.3,0,7.7,0,10c0,1.1,0,2,0,2.6S693.3,203.8,693.3,203.8z"/>
	<ellipse transform="matrix(0.217 -0.9762 0.9762 0.217 340.2626 782.1575)" class="st6" cx="657.7" cy="179" rx="10.3" ry="10.3"/>
	<polygon class="st4" points="655.1,179 655.1,174.3 659.1,176.7 663.2,179 659.1,181.3 655.1,183.6 	"/>
</g>
<g id="freepik--Chart--inject-7">
	<polygon class="st1" points="517.8,175.3 418,175.3 418,96.4 517.8,96.2 	"/>
	<path class="st5" d="M517.8,175.3c0-0.7,0-31.7,0-79.1l0.1,0.1l-99.7,0.2H418l0.1-0.1c0,28.9,0,55.9,0,78.9l-0.1-0.1L517.8,175.3
		l-99.8,0.1h-0.1v-0.1c0-23,0-50.1,0-78.9v-0.1h0.3l99.7-0.2h0.1v0.1C517.9,143.7,517.8,174.6,517.8,175.3z"/>
	<rect x="423.8" y="102.3" class="st0" width="87.8" height="66.1"/>
	<path class="st5" d="M496.7,111.9c-0.1-0.4-0.1-0.7-0.1-1.1c0-0.7,0-1.6,0-2.7l0.1,0.1h-0.3c-1.1,0-2.1,0-2.9,0
		c-0.4,0-0.8,0-1.2-0.1c0.4-0.1,0.8-0.1,1.2-0.1c0.7,0,1.8,0,2.9,0h0.5v0.1c0,1,0,2,0,2.7C496.8,111.2,496.8,111.6,496.7,111.9z"/>
	<path class="st5" d="M465.6,106.7c0,0.1-7.7,0.1-17.1,0.1s-17.1-0.1-17.1-0.1s7.7-0.1,17.1-0.1S465.6,106.6,465.6,106.7z"/>
	<path class="st5" d="M443.9,109.8c0,0.1-2.9,0.1-6.4,0.1s-6.4-0.1-6.4-0.1s2.9-0.1,6.4-0.1S443.9,109.8,443.9,109.8z"/>
	<path class="st5" d="M450.8,109.8c-1.6,0.2-3.3,0.2-5,0C447.4,109.6,449.1,109.6,450.8,109.8z"/>
</g>
<g id="freepik--speech-bubble--inject-7">
	<path class="st1" d="M323.1,156.8l-5.8-10.1c7.9-12.8,3.9-29.6-8.9-37.4s-29.6-3.9-37.4,8.9s-3.9,29.6,8.9,37.4
		c9.6,5.9,22,5.3,30.9-1.6l0,0L323.1,156.8z"/>
	<path class="st5" d="M323.1,156.8l-12.3-2.8h-0.1l0.1-0.1l0,0l0.1,0.1c-1.7,1.3-3.6,2.5-5.6,3.4c-2.4,1.1-4.9,1.8-7.5,2.1
		c-1.4,0.2-2.9,0.3-4.3,0.2c-0.7,0-1.5-0.1-2.3-0.1l-2.3-0.4c-6.8-1.3-12.9-5.2-17-10.9c-2.3-3.1-3.8-6.7-4.6-10.5
		c-0.8-4-0.7-8.1,0.3-12.1c1-4.1,3-8,5.8-11.2l1.1-1.2c0.4-0.4,0.8-0.8,1.2-1.1s0.8-0.8,1.2-1.1l1.3-1c0.4-0.3,0.9-0.6,1.3-0.9
		l1.4-0.8l1.4-0.7c0.5-0.2,1-0.5,1.5-0.7c3.9-1.5,8-2.2,12.2-1.9c3.9,0.3,7.7,1.4,11.2,3.3c6.2,3.4,10.8,9.1,12.9,15.9
		c0.8,2.9,1.2,5.8,1.2,8.8c-0.1,4.8-1.5,9.4-4,13.5v-0.1L323.1,156.8l-5.9-10.1l0,0l0,0c1.1-1.8,2-3.8,2.7-5.8
		c0.8-2.4,1.2-5,1.3-7.6c0-3-0.4-5.9-1.2-8.8c-1-3.2-2.6-6.1-4.6-8.7c-2.2-2.8-5-5.2-8.2-7c-3.4-1.9-7.2-3-11-3.3
		c-4.1-0.3-8.2,0.4-12,1.9c-0.5,0.2-1,0.4-1.4,0.6l-1.4,0.7l-1.4,0.8c-0.5,0.3-0.9,0.6-1.3,0.9l-1.3,1c-0.4,0.3-0.8,0.7-1.2,1.1
		s-0.8,0.7-1.2,1.1l-1.1,1.2c-2.8,3.2-4.7,6.9-5.8,11c-1,3.9-1.1,8-0.3,11.9c2.2,10.7,10.6,19.1,21.3,21.2l2.3,0.4
		c0.8,0.1,1.5,0.1,2.2,0.1c1.4,0.1,2.8,0,4.3-0.2c2.6-0.3,5-1,7.4-2.1c2-0.9,3.8-2,5.6-3.3l0.5-0.4l-0.4,0.5l0,0l0-0.1L323.1,156.8z
		"/>
	<path class="st5" d="M286.6,132.4c0,1.5-1.2,2.8-2.8,2.8c-1.5,0-2.8-1.2-2.8-2.8s1.2-2.8,2.8-2.8S286.6,130.9,286.6,132.4
		L286.6,132.4z"/>
	<path class="st5" d="M297.6,132.4c0,1.5-1.2,2.8-2.8,2.8c-1.5,0-2.8-1.2-2.8-2.8s1.2-2.8,2.8-2.8
		C296.4,129.6,297.6,130.8,297.6,132.4C297.6,132.4,297.6,132.4,297.6,132.4z"/>
	<path class="st5" d="M308.6,131c0.8,1.3,0.3,3-1,3.8c-1.3,0.8-3,0.3-3.8-1c-0.8-1.3-0.3-3,1-3.8c0,0,0,0,0,0
		C306.2,129.2,307.9,129.7,308.6,131C308.6,131,308.6,131,308.6,131z"/>
</g>
<g id="freepik--character-3--inject-7">
	<path class="st7" d="M544.2,377.5l15.3,81.8c0,0,8.8,5.1,13.2,3l-3.1-83.2L544.2,377.5z"/>
	<path class="st6" d="M559.5,459.3v1c0,0-17.4,7.6-17.5,10.9l35-1l-0.8-11.6C571,461.2,564.9,461.5,559.5,459.3z"/>
	<g class="st8">
		<path class="st4" d="M572.7,462.4c0.7,0.2,1.1,0.9,1,1.6c-0.2,0.7-0.9,1.2-1.6,1c-0.7-0.2-1.2-0.9-1.1-1.7
			C571.3,462.6,572.1,462.2,572.7,462.4"/>
	</g>
	<g class="st8">
		<path class="st4" d="M577,470.2l-0.2-2.8l-33.5,2c0,0-1.5,0.7-1.3,1.8L577,470.2z"/>
	</g>
	<path class="st5" d="M559.4,460.4c0,0.2,0.9,0.2,1.7,0.7s1.3,1.2,1.5,1.2s-0.1-1-1.2-1.7S559.4,460.3,559.4,460.4z"/>
	<path class="st5" d="M555.8,462.1c0,0.2,0.7,0.4,1.3,1.1s0.8,1.5,1,1.5s0.3-1-0.5-1.9S555.8,461.9,555.8,462.1z"/>
	<path class="st5" d="M553.8,466.5c0.2,0,0.4-0.8-0.1-1.8s-1.3-1.3-1.3-1.1s0.4,0.6,0.8,1.4S553.7,466.5,553.8,466.5z"/>
	<path class="st7" d="M593.2,375.9c0.3,0.8,2.3,14.5,1.9,19.6s-9.1,72.8-9.1,72.8l-13.5,0.3l-7.9-91.2L593.2,375.9z"/>
	<path class="st9" d="M565.1,382.9c0.1,0.3,0.1,0.5,0.1,0.8c0.1,0.6,0.2,1.3,0.3,2.3c0.2,2,0.6,4.9,1,8.4c0.8,7.1,1.8,16.9,2.7,27.8
		s1.7,20.7,2.1,27.8c0.2,3.5,0.4,6.4,0.5,8.4c0,1,0.1,1.7,0.1,2.3c0,0.3,0,0.5,0,0.8c-0.1-0.3-0.1-0.5-0.1-0.8
		c0-0.6-0.1-1.3-0.2-2.3c-0.2-2-0.4-4.9-0.7-8.4c-0.5-7.1-1.3-17-2.3-27.8s-1.9-20.7-2.6-27.8c-0.3-3.5-0.6-6.4-0.8-8.4
		c-0.1-1-0.2-1.7-0.2-2.3C565.1,383.4,565.1,383.2,565.1,382.9z"/>
	<path class="st6" d="M586.7,462.4c0,0-8.9,7.1-13.7,1.6l-1,2.8l-4.2,20c-0.3,1.3,0.4,2.6,1.7,3.1c0.9,0.3,2,0.1,2.7-0.7
		c3.6-3.8,16.9-18,16.7-19.8l-0.3-4.8C588.4,463.6,587.7,462.7,586.7,462.4L586.7,462.4z"/>
	<path class="st4" d="M569.8,490l18.8-22.3v1c0.1,0.9-0.2,1.7-0.8,2.4c-1.5,2.3-5.7,7.4-15.7,18.1
		C571.5,489.9,570.6,490.1,569.8,490L569.8,490z"/>
	<path class="st4" d="M585.5,464.7c-0.6,0.5-0.7,1.3-0.3,2c0.5,0.6,1.3,0.8,2,0.3c0.6-0.5,0.8-1.5,0.3-2.2c-0.6-0.6-1.5-0.7-2.1-0.1
		"/>
	<path class="st5" d="M575,478.8c-1.2-1.6-3.2-2.5-5.2-2.2c0-0.1,0.3-0.3,0.9-0.4c0.8-0.1,1.5,0,2.3,0.3c0.7,0.3,1.3,0.8,1.8,1.5
		C575,478.4,575,478.8,575,478.8z"/>
	<path class="st5" d="M573.4,482.2c-0.7-0.4-1.5-0.7-2.3-1c-0.8-0.1-1.6-0.2-2.5-0.2c0.8-0.5,1.7-0.7,2.6-0.3
		C572.7,481.1,573.5,482.1,573.4,482.2z"/>
	<path class="st5" d="M578.1,474.4c-1.1-0.7-2.2-1.2-3.4-1.7c-1.2-0.3-2.5-0.5-3.7-0.7C573.6,471.3,576.4,472.2,578.1,474.4z"/>
	<path class="st5" d="M578.2,468.3c-0.1,0.1-1.5-0.4-3.3-0.3s-3.2,0.5-3.3,0.4c0.9-0.7,2.1-1,3.3-0.9
		C576.1,467.4,577.2,467.7,578.2,468.3z"/>
	<path class="st5" d="M573.9,468c0-0.3,0-0.6,0.1-0.9c0.2-0.8,0.6-1.6,1.1-2.4c0.3-0.5,0.8-1,1.4-1.2c0.4-0.1,0.9,0,1.1,0.4
		c0.2,0.3,0.3,0.8,0.2,1.2c-0.3,1.7-1.8,2.9-3.6,2.9c-1.7-0.1-3.2-1.1-3.8-2.7c-0.1-0.4-0.1-0.8,0.1-1.2c0.2-0.4,0.7-0.5,1.1-0.4
		c0.6,0.2,1.1,0.6,1.5,1.1c0.6,0.6,1.1,1.3,1.4,2.1c0.2,0.3,0.2,0.6,0.3,0.9c-0.5-1-1.2-2-2-2.8c-0.4-0.4-0.8-0.7-1.3-0.9
		c-0.2-0.1-0.5,0-0.6,0.2c-0.1,0.3-0.1,0.5,0,0.8c0.6,1.4,1.9,2.3,3.3,2.3c1.5,0,2.7-1,3.1-2.4c0.1-0.3,0-0.6-0.1-0.8
		c-0.1-0.2-0.4-0.3-0.6-0.2c-0.5,0.2-0.9,0.5-1.2,1C574.7,465.9,574.2,466.9,573.9,468z"/>
	<path class="st5" d="M585.8,152.9l-47.1,0.5c0.6,14.6,1.9,27.2-3,39.7c-1.3,3.2-2.9,6.2-3.8,9.5s-1,7,0.8,9.9l9.6-2.7
		c0-1,0-2-0.1-3c0.4,1.3,1.3,2.4,2.6,2.9c1.7,0.5,3.4,0.7,5.2,0.4c10-0.9,20-2.8,29.6-5.7c1.3-0.4,7.4,0.1,7.4,0.1
		C590.3,189.5,589.1,168,585.8,152.9z"/>
	<path class="st7" d="M494.7,230.4c-0.4-1.2-1.2-2.2-2.2-2.9c-1.5-0.7-7.8-0.1-9.2,0s-5.7-1.3-7.6,0.4c-0.2,0.7,0.2,1.4,0.9,1.6
		c0.1,0,0.1,0,0.2,0c2.4,0.3,6.7,1,6.5,1.3s-7.6-0.1-9.1,0.5l-11,0.3c0,0-1.8,1.9,0,2.5l0.1,1.4c0.6,0.4,1.2,0.6,1.9,0.8
		c1.5,0.4,0,1.3,1.9,1.6c1.3,0.2,2.6,0.2,3.9,0.1l0.2,0.9c0.6,0.3,1.3,0.4,1.9,0.5c1.5,0.3,18.5-1,18.5-1l8.8,2.3l0.8-8.6
		L494.7,230.4z"/>
	<path class="st9" d="M491.1,230.1c-1.4,0.5-2.8,1.1-4.1,1.8c-0.9,0.6-1.7,1.3-2.3,2.2c-0.5,0.7-0.6,1.2-0.7,1.1
		c0-0.5,0.2-0.9,0.4-1.3c0.6-1,1.3-1.8,2.3-2.4c0.9-0.6,1.9-1,3-1.3C490.2,230.1,490.7,230.1,491.1,230.1z"/>
	<path class="st9" d="M478.4,236.8c-1.2,0.3-2.5,0.5-3.8,0.5c-0.9,0-1.7,0.1-2.6,0.3c-0.3,0.2-0.6,0.4-0.8,0.7c-0.1,0,0-0.6,0.6-1
		c0.9-0.4,1.8-0.5,2.7-0.5C475.9,236.6,477.1,236.6,478.4,236.8z"/>
	<path class="st9" d="M477.7,234.4c-0.6,0.2-1.1,0.4-1.8,0.5c-1.4,0.3-2.9,0.4-4.4,0.4c-1.4-0.1-2.9,0-4.2,0.4
		c-0.4,0.1-0.8,0.3-1.1,0.6c-0.2,0.2-0.2,0.4-0.2,0.4s-0.1-0.2,0.1-0.5c0.3-0.4,0.7-0.6,1.1-0.8c0.6-0.3,1.3-0.4,1.9-0.5
		c0.8-0.1,1.6-0.1,2.4-0.1c1.4,0,2.9-0.1,4.3-0.3C476.5,234.4,477.1,234.4,477.7,234.4z"/>
	<path class="st9" d="M476.1,232.6c-0.6,0.2-1.3,0.2-1.9,0.3c-1.2,0.1-2.8,0.2-4.6,0.3c-0.9,0.1-1.8,0-2.5,0.1c-0.7,0-1.3,0.1-2,0.2
		c-0.4,0.1-0.9,0.2-1.3,0.5c-0.3,0.2-0.3,0.4-0.4,0.4s0-0.2,0.2-0.5c0.4-0.3,0.8-0.5,1.3-0.6c0.7-0.2,1.4-0.3,2.1-0.3
		c0.8-0.1,1.6,0,2.5-0.1c1.8-0.1,3.4-0.2,4.6-0.2C474.8,232.5,475.5,232.5,476.1,232.6z"/>
	<polygon class="st7" points="554.5,191.5 546.7,202.2 548.8,206.3 558.6,206.5 568.6,204.3 574.1,202 577.2,192.5 575.7,185.3 
		571.8,185.7 	"/>
	<path class="st4" d="M545.7,201.4c0,0-0.5,3.4,5.5,3.2s21.3-4.6,21.3-4.6l13.8,21.6l-6.1,60.7l-49.9,8.3l2-45.4
		c0,0-3.8-2.3-4.6-9.9c-0.5-4.4-0.1-8.9,1.2-13.1L545.7,201.4z"/>
	<path class="st5" d="M595.4,269.7c0,0,10.5,23.2,7.9,40.2s-9.2,70.2-9.2,70.2l-48.9,2.6c0,0-13.8-67-14.3-79.5s-1.8-21.7-1.8-21.7
		L595.4,269.7z"/>
	<path class="st10" d="M566.5,310.6c0.2,0-1,12-2.6,26.7s-3,26.6-3.1,26.6s1-12,2.6-26.7S566.4,310.6,566.5,310.6z"/>
	<path class="st5" d="M563.3,259.8c0,0-0.1-0.2-0.2-0.5c-0.2-0.5-0.5-0.9-1-1.2c-0.6-0.4-1.4-0.5-2.1-0.2c-1.1,0.5-1.6,1.8-1.1,2.9
		c0.3,0.6,0.8,1,1.4,1.2c0.7,0.2,1.5,0.1,2.1-0.4c0.4-0.3,0.7-0.8,0.8-1.3C563.3,260,563.3,259.8,563.3,259.8c0.1,0.2,0.1,0.4,0,0.6
		c-0.1,0.6-0.4,1.1-0.8,1.5c-0.7,0.6-1.6,0.8-2.4,0.5c-1.4-0.4-2.2-1.8-1.8-3.2c0.2-0.8,0.8-1.4,1.5-1.7c0.8-0.3,1.7-0.2,2.5,0.3
		c0.5,0.3,0.8,0.8,0.9,1.4C563.4,259.4,563.4,259.6,563.3,259.8z"/>
	<path class="st6" d="M551.3,189.5c0,0-11.4,2.6-12.8,3.4s-6.8,7.6-8.4,12.2s-2.6,15.6-2.6,15.6s-4.2,6.7-4.1,7.8l0.2,2.9
		c0,0-3.1,5.4-3.1,5.9v0.5l-22-9.8l-6,11.4c0,0,17.8,15.4,27.4,20.6c2.5,1.3,5.6,0.5,7.1-1.8l0,0l-2.3,46.3l11.3,3l-1.7-55.3
		l-0.4-7.3c0,0-7.8-7.2-2.1-17.9c2-3.7,7.7-13.8,10.9-18.8s11.2-15.9,11.2-15.9l-0.3-5.6L551.3,189.5z"/>
	<path class="st5" d="M524.9,253.2c-0.1,0,0-0.9,0-2.4c0-2-0.2-3.9-0.7-5.8c-0.4-1.9-1.1-3.7-2.2-5.4c-0.5-0.6-1.1-1.2-1.7-1.6
		c0.2,0,0.4,0.1,0.6,0.3c0.5,0.3,1,0.7,1.4,1.2c1.2,1.6,2,3.5,2.3,5.4c0.4,1.9,0.6,3.9,0.5,5.9C525.2,251.6,525.1,252.4,524.9,253.2
		z"/>
	<path class="st5" d="M530,240.5c-0.1-0.1-0.3-0.3-0.4-0.5c-0.3-0.5-0.6-1-0.8-1.5c-0.8-2-1-4.1-0.8-6.1c0.5-3,1.3-6,2.6-8.8
		c1.3-3.2,2.6-6.8,4.3-10.4c0.8-1.8,1.8-3.5,2.9-5.1c1.1-1.5,2.2-2.9,3.5-4.2c2-2.3,3.7-4.8,5.2-7.5c1.4-2.2,2.6-3.9,3.5-5.1
		c0.4-0.6,0.8-1,1-1.3c0.1-0.2,0.2-0.3,0.4-0.4c-0.1,0.2-0.2,0.3-0.3,0.5l-1,1.4c-0.8,1.2-2,2.9-3.4,5.2c-1.4,2.7-3.2,5.3-5.1,7.6
		c-1.1,1.3-2.3,2.6-3.4,4.2c-1.1,1.6-2.1,3.3-2.9,5c-1.7,3.6-3,7.2-4.3,10.4c-1.3,2.8-2.2,5.7-2.7,8.7c-0.3,2-0.1,4.1,0.6,6
		C529.3,239.1,529.6,239.8,530,240.5z"/>
	<path class="st5" d="M526.3,264.8c0-0.3,0-0.7,0-1c0.1-0.6,0.2-1.5,0.3-2.6c0.3-2.3,0.8-5.3,1.3-8.5c0.4-2.8,0.7-5.7,0.7-8.6
		c0-2.2-0.2-3.6-0.1-3.6c0.1,0.3,0.2,0.6,0.2,0.9c0,0.3,0.1,0.7,0.1,1.1s0.1,0.9,0.1,1.5c0.1,2.9-0.1,5.8-0.6,8.6
		c-0.5,3.3-1,6.3-1.4,8.5c-0.2,1-0.3,1.9-0.5,2.6C526.5,264.2,526.4,264.5,526.3,264.8z"/>
	<g class="st11">
		<path d="M520.6,237.9c1.9,0.5,3.5,1.7,4.5,3.4c1,1.8,1.6,3.7,1.9,5.7c0.3,1.2,0.2,2.4-0.2,3.5c-0.3,0.5-1,0.9-1.4,0.5
			c-0.1-0.1-0.2-0.3-0.2-0.4c-0.5-2.4-0.8-4.8-1.4-7.1S522.4,239.4,520.6,237.9"/>
	</g>
	<path class="st6" d="M574.8,183.6l5.7,0.6l2.8,3.1c0,0,16.2,3.2,18.3,5.6s-8,34.4-8,34.4l-4.7,25.9c0,0,11.8,25,13.2,37.4
		l-43.4,14.9c0,0-3.6-43.1-2.7-50.9s5.1-28,8.3-36.5s11.3-27,11.2-27.6S574.8,183.6,574.8,183.6z"/>
	<g class="st11">
		<path d="M589.7,255.7c-0.4-0.5-0.9-0.9-1.5-1.1c-4.4-2-9.3-2-13.9-3.4c-4.3-1.3-8.7-3.9-13.1-3c-1.7,0.4-2.6,0.4-4.3,0.9l-0.2,1.4
			c2.8,1.3,7.4-0.3,10.1,1.2c0.9,0.6,1.7,1.3,2.5,2c1.1,0.7,2.3,1.3,3.5,1.8c2.5,1,5,1.9,7.5,2.8s5,1.6,7.4,0.9
			c0.8-0.2,1.5-0.7,2-1.3C589.9,257.3,590,256.5,589.7,255.7z"/>
	</g>
	<path class="st6" d="M595.6,190.5c-0.6,0.3-7,14-8.3,20.9s7.7,26.8,7.7,26.8l-24.3-0.3l-1.7,12.1c0,0,22.8,6.8,30.2,8.3
		s14.9,2.2,16.9-0.9c1.2-1.9,2-4,2.3-6.2l-4.6-25l-4-15.8c0,0-0.7-7-2.6-11.1S598,189.4,595.6,190.5z"/>
	<path class="st5" d="M582.8,187.7c0,0.2,0,0.4,0,0.6c0,0.4,0,1-0.1,1.8c-0.1,2.2-0.4,4.4-0.8,6.6c-0.6,3.2-1.4,6.4-2.4,9.6
		c-0.6,1.8-1.3,3.6-2.1,5.4c-0.2,0.5-0.4,1-0.7,1.4c-0.3,0.5-0.8,0.8-1.4,0.9l-3,0.9l-1,0.3l0.1-0.4l3.7,2.4l0.2,0.1l-0.1,0.2
		l-10.3,15l-3.1,4.4l-0.8,1.2c-0.1,0.1-0.2,0.3-0.3,0.4c0.1-0.2,0.1-0.3,0.3-0.4l0.8-1.2l3-4.5l10.2-15.1l0.1,0.3l-3.7-2.4l-0.4-0.3
		l0.5-0.1l1-0.3l3-0.9c0.5-0.1,0.9-0.3,1.2-0.7c0.2-0.4,0.5-0.9,0.6-1.3c0.8-1.8,1.5-3.6,2.1-5.4c1.1-3.1,1.9-6.3,2.5-9.5
		c0.5-2.7,0.8-5,0.9-6.6c0.1-0.7,0.1-1.3,0.2-1.8C582.8,188.1,582.8,187.9,582.8,187.7z"/>
	<path class="st5" d="M596.8,190.8c-0.6,0.1-1.2,0.2-1.8,0.4c-1.6,0.7-2.9,1.8-3.8,3.3c-0.7,1-1.2,2-1.7,3.1c-0.5,1.3-1,2.6-1.3,3.9
		c-0.8,3-1.2,6.2-1.1,9.3c0.1,3.3,1.2,6.4,1.9,9.2s1.5,5.3,2.1,7.4s1.2,3.8,1.6,4.9c0.2,0.6,0.4,1,0.5,1.3c0.1,0.1,0.1,0.3,0.2,0.5
		c-0.1-0.1-0.2-0.3-0.3-0.4c-0.2-0.3-0.3-0.7-0.6-1.3c-0.5-1.1-1.1-2.8-1.8-4.9s-1.4-4.6-2.2-7.4c-0.4-1.4-0.8-2.9-1.2-4.4
		c-0.4-1.6-0.7-3.2-0.8-4.9c-0.1-3.2,0.3-6.4,1.1-9.4c0.4-1.3,0.8-2.6,1.4-3.9c0.5-1.1,1.1-2.2,1.8-3.2c1-1.5,2.4-2.6,4-3.3
		c0.5-0.2,0.9-0.3,1.4-0.3C596.4,190.7,596.6,190.7,596.8,190.8z"/>
	<path class="st5" d="M590.3,255.9c-0.1,0-0.3,0-0.4-0.1l-1.2-0.3l-4.4-1.2l-15.3-4.3l-0.2-0.1v-0.2l1.8-11.9v-0.2v-0.2h0.2
		c9.4-0.3,18-0.1,24.1,0.3c3.1,0.2,5.6,0.4,7.3,0.6l2,0.2c0.2,0,0.5,0.1,0.7,0.1c-0.2,0-0.5,0-0.7,0l-2-0.1
		c-1.7-0.1-4.2-0.3-7.3-0.4c-6.2-0.3-14.7-0.5-24.1-0.1l0.2-0.2v0.2c-0.6,4.2-1.3,8.3-1.8,11.9l-0.2-0.2l15.3,4.5l4.4,1.3l1.2,0.4
		C590.1,255.8,590.2,255.9,590.3,255.9z"/>
	<path class="st5" d="M604.2,236.3c0,0.1-2.2,0.4-4.8,0.9s-4.8,1.1-4.8,1c1.5-0.7,3.1-1.2,4.7-1.4
		C600.9,236.4,602.6,236.2,604.2,236.3z"/>
	<path class="st5" d="M565,281.8c0,0-0.1-0.2-0.2-0.6c-0.2-0.5-0.5-0.9-0.9-1.2c-0.6-0.4-1.4-0.5-2.1-0.2c-1.1,0.5-1.6,1.8-1.1,2.9
		c0.3,0.6,0.8,1,1.4,1.2c0.7,0.2,1.5,0.1,2.1-0.4c0.4-0.3,0.7-0.8,0.8-1.3C565,282,565,281.8,565,281.8c0.1,0.2,0.1,0.4,0,0.6
		c-0.1,0.6-0.4,1.1-0.8,1.5c-0.7,0.6-1.6,0.8-2.4,0.5c-1.4-0.4-2.2-1.9-1.7-3.2c0.2-0.7,0.8-1.4,1.5-1.7c0.8-0.3,1.7-0.2,2.5,0.3
		c0.5,0.3,0.8,0.8,0.9,1.4C565.1,281.6,565,281.8,565,281.8z"/>
	<g class="st11">
		<path d="M560.9,238.2c6-2.9,10.4-8.8,13.7-14.7c0.7-1.3,1.4-2.5,2.1-3.8c0.4-0.7,0.7-1.4,0.8-2.3c0.1-0.8-0.5-1.6-1.3-1.8
			c1,0.2,2.1-0.3,2.6-1.2c0.5-0.9,0.8-1.9,0.8-2.9c0.3-2.5,0.7-6.1,1-8.6c-0.6,1.8-1.9,4.8-2.5,6.6c-0.3,1.3-0.9,2.6-1.8,3.7
			c-1.5,1.5-3.2,1.1-5,1.8c1.2,0.3,2.8,1.6,3.7,2.4C570.8,224.4,561,238.2,560.9,238.2"/>
	</g>
	<path class="st10" d="M533.4,221.6c0,0,35,37.3,35.6,37.3c1.3-0.1-26,27.8-26,27.8l-35.5-40.4L533.4,221.6z"/>
	<path class="st7" d="M562,239.4l-14.1-5.6l-9.5,1.5l-4.2,5.6c0,0,0.1,1.6,1,1.3c0.7-0.3,1.4-0.8,2-1.3l0.3,4c0,0,1.5,1.6,2.4-0.1
		l1.1,3c0,0,1.2,1.3,1.9-0.1l1.6,3.4c0.7-0.2,1.3-0.7,1.6-1.3c0.3-0.6,0.3-1.2,0.1-1.8c0,0,4.8,0.6,6.7,1.1s11.5-0.3,11.5-0.3
		l4.1,0.9l1.6-10.5L562,239.4z"/>
	<path class="st9" d="M546,235.4c-0.6-0.1-1.2,0-1.7,0.1c-0.5,0.1-1.1,0.4-1.8,0.6s-1.4,0.5-2.2,0.8c-0.7,0.3-1.4,0.7-2,1.1
		c-0.3,0.1-0.4,0.4-0.5,0.7c-0.1,0.3-0.1,0.6-0.2,0.9c-0.2,1.1-0.2,1.7-0.3,1.7c-0.2-0.6-0.2-1.2-0.1-1.8c0-0.3,0-0.6,0.1-0.9
		c0.1-0.4,0.3-0.7,0.6-0.9c0.6-0.5,1.3-0.9,2.1-1.2c0.7-0.3,1.5-0.6,2.2-0.8c0.6-0.2,1.2-0.4,1.9-0.5
		C544.8,235.1,545.5,235.1,546,235.4z"/>
	<path class="st9" d="M546.9,238.1c-0.4,0.3-1,0.6-1.5,0.8c-1,0.4-2.4,0.7-3.8,1.2c-0.3,0.1-0.7,0.2-0.9,0.5
		c-0.5,0.8-0.7,1.7-0.8,2.6c0,0.5,0.2,0.9,0.2,1.2s0,0.4,0,0.5s-0.1-0.1-0.2-0.4c-0.2-0.4-0.3-0.8-0.4-1.2c-0.1-0.6,0-1.3,0.3-1.9
		c0.1-0.4,0.3-0.7,0.5-1c0.3-0.3,0.7-0.5,1.1-0.6c1.5-0.5,2.9-0.8,3.9-1.1C545.8,238.4,546.4,238.3,546.9,238.1z"/>
	<path class="st9" d="M543.2,247.8c0,0-0.4-0.3-0.8-1c-0.2-0.4-0.3-0.9-0.2-1.4c0.1-0.6,0.6-1.1,1.2-1.3c0.5-0.2,1.1-0.3,1.7-0.3
		h1.3c0.3,0,0.6,0,0.9,0c0.2,0,0.3,0.2,0.3,0.2s-0.1,0-0.3,0s-0.5,0.1-0.9,0.1l-1.3,0.1c-0.5,0-1,0.1-1.5,0.3
		c-0.5,0.2-0.8,0.5-0.9,1c-0.1,0.4,0,0.8,0.1,1.2C542.9,247,543.1,247.4,543.2,247.8z"/>
	<path class="st5" d="M584.4,145.4c-2.1-7.2-4.3-14.6-10.5-18.7c-5.6-3.6-11.6-4.3-18.2-3.4c-3.4,0.6-6.7,2-9.5,4.1
		c-3.7,2.6-5,7.2-6.5,11.4c-3.1,8.5-1.6,19.4,1.2,22.3l35.6,15c5.8-3.6,9.7-5.5,10.7-12.2C587.8,159.3,585.7,149.9,584.4,145.4z"/>
	<path class="st7" d="M573.7,133.5l-22-4.5c-7-0.4-11.2,8.4-11.3,15.4c-0.1,7.8,0,17.3,1.2,23C544,178.9,553,180,553,180
		s0,0.2,0.3,3.6l0.3,7.8c3.4,9.3,12.9,7.6,24.5,2.1l-0.6-56C577.5,135.4,575.8,133.6,573.7,133.5z"/>
	<path class="st5" d="M544,153.3c0,0.8,0.7,1.4,1.5,1.4c0.8,0,1.5-0.6,1.5-1.4c0,0,0,0,0,0c0-0.8-0.7-1.4-1.5-1.4
		C544.7,151.9,544.1,152.5,544,153.3C544.1,153.3,544.1,153.3,544,153.3z"/>
	<path class="st5" d="M542.8,150.4c0.2,0.2,1.3-0.7,2.9-0.8s2.8,0.7,3,0.5s-0.1-0.4-0.7-0.8c-0.7-0.4-1.6-0.7-2.4-0.6
		c-0.8,0-1.6,0.3-2.3,0.9C542.8,150,542.7,150.3,542.8,150.4z"/>
	<path class="st5" d="M558.5,152.5c0,0.8,0.7,1.4,1.5,1.4c0.8,0,1.4-0.6,1.5-1.4c0,0,0,0,0,0c0-0.8-0.7-1.4-1.5-1.4
		C559.2,151.1,558.6,151.7,558.5,152.5C558.6,152.5,558.6,152.5,558.5,152.5z"/>
	<path class="st5" d="M558.4,149.2c0.2,0.2,1.3-0.7,2.9-0.8s2.8,0.7,3,0.5s-0.1-0.4-0.7-0.8c-0.7-0.4-1.6-0.7-2.4-0.6
		c-0.8,0-1.6,0.3-2.3,0.9C558.5,148.8,558.3,149.1,558.4,149.2z"/>
	<path class="st5" d="M553.2,160.9c-0.9-0.2-1.7-0.3-2.6-0.3c-0.4,0-0.8-0.1-0.9-0.4c-0.1-0.4,0-0.8,0.2-1.2c0.3-1,0.7-2.1,1.1-3.2
		c1.5-4.5,2.5-8.2,2.3-8.3s-1.5,3.6-3,8.1c-0.3,1.1-0.7,2.2-1,3.2c-0.2,0.5-0.3,1.1-0.1,1.6c0.1,0.3,0.4,0.5,0.7,0.6
		c0.2,0.1,0.5,0.1,0.7,0.1C551.5,161.1,552.4,161.1,553.2,160.9z"/>
	<path class="st9" d="M553,180c5.5-0.2,10.8-1.9,15.4-4.9c0,0-3.5,8.3-15.2,7.8L553,180z"/>
	<path class="st9" d="M557.4,164.4c-0.4-0.6-1.1-0.9-1.8-0.9c-1,0-2,0.5-2.5,1.4c-0.2,0.4-0.2,0.8-0.1,1.3c0.1,0.2,0,0.1,0.2,0.2
		c0.6,0.5,1,1.3,1.8,1.4c1,0.1,1.9-0.4,2.4-1.2C557.9,166,557.9,165.1,557.4,164.4z"/>
	<path class="st5" d="M557.5,144.2c0.2,0.4,1.8,0.3,3.6,0.5s3.4,0.8,3.7,0.4c0.1-0.2-0.2-0.6-0.8-1c-0.8-0.5-1.7-0.9-2.7-1
		c-1-0.1-1.9,0-2.9,0.3C557.7,143.7,557.4,144,557.5,144.2z"/>
	<path class="st5" d="M542.6,146.9c0.4,0.3,1.5-0.4,3-0.7s2.7-0.4,2.9-0.8c0.1-0.2-0.2-0.5-0.8-0.7c-0.8-0.2-1.7-0.2-2.5,0
		c-0.8,0.2-1.6,0.6-2.2,1.3C542.5,146.3,542.4,146.7,542.6,146.9z"/>
	<path class="st5" d="M551.4,127.7c-0.3,4.7,0.8,9.5,3,13.7c0.6,1.2,1.4,2.3,2.4,3.1c1,0.9,2.4,1.2,3.7,0.9
		c-2.2-2.4-3.6-5.5-3.9-8.7c1.7,3.2,3.3,6.4,5.9,8.9s6.2,4.2,9.7,3.6l-0.4-2.4c0.6,1.7,1.7,3.2,3.2,4.2c1.6,1,3.6,0.9,5-0.3
		c-1.7-5.7,1.4-12.3-1.3-17.6c-1.9-3.7-6-5.6-10-6.6c-5.7-1.3-11.6-1-17.2,0.7"/>
	<path class="st5" d="M551.9,127.7v0.3l0,0C551.9,127.9,551.9,127.8,551.9,127.7z"/>
	<path class="st5" d="M551.9,128l-0.7-0.2c-2.3-0.9-3.8-2.1-7,1.2c-1.8,2-3.2,4.4-4.1,7c-1,2.3-1.7,4.8-2,7.3c-0.3,3-0.1,6,0.5,8.9
		c1.9-1.5,2.7-3.9,3.1-6.2s0.6-4.8,1.6-6.9c-0.3,2-0.2,4,0.1,5.9c0.1,0.5,0.3,1,0.8,1.4c0.4,0.4,1,0.3,1.4-0.1c0,0,0,0,0,0
		c-0.8-2.2-1-4.7-0.5-7c0.5-2.3,1.2-4.6,2.1-6.8c-0.2,4,0.3,7.9,1.4,11.8c0.1,0.6,0.4,1.1,0.8,1.5c0.7,0.5,1.6,0.6,2.4,0.3
		c0.8-0.3,1.7-0.4,2.5-0.3C551.9,140.1,551.1,134,551.9,128z"/>
	<path class="st5" d="M564.9,194.7c1.8-3.1,4-6.3,4.1-9.9c0.1-3.1-1.4-6-1.3-9.1c0.1-3.3,1.9-6.2,2.5-9.4c1.4-7.8-4.7-15.6-2.7-23.3
		l10.2,0.5l7.4,39.5c0.6,8.6-1.2,17.1-5.1,24.8l-1-0.8c0.6-1.9,1.1-3.8,1.6-5.7c-1.8,3.3-4.4,6.2-7.5,8.4c-3.4-1.3-6.9-2.4-10.4-4.7
		C561.5,201.6,563.1,197.9,564.9,194.7z"/>
	<path class="st5" d="M552.2,166.8c0-0.3,1.8-0.2,3.6-1.2s2.7-2.4,3-2.3s0.1,0.5-0.3,1.2c-1.1,1.7-3,2.8-5,2.7
		C552.6,167.1,552.2,166.9,552.2,166.8z"/>
</g>
<g id="freepik--character-2--inject-7">
	<polygon class="st12" points="350.5,461.7 357.2,386.1 334,386.8 333.3,463.4 339.5,467.1 	"/>
	<path class="st6" d="M332.9,461.2v1.1c0,0-18.9,8-19,11.6l37.8-0.8l-0.8-12.6C345.3,463.3,338.7,463.6,332.9,461.2z"/>
	<g class="st8">
		<path class="st4" d="M347.1,464.6c0.8,0.2,1.2,1,1.1,1.7c-0.2,0.8-0.9,1.3-1.7,1.1c-0.8-0.2-1.3-1-1.2-1.8c0.3-0.8,1.1-1.2,1.9-1"
			/>
	</g>
	<g class="st8">
		<path class="st4" d="M351.6,473l-0.2-3l-36.1,1.9c0,0-1.7,0.8-1.5,2L351.6,473z"/>
	</g>
	<path class="st5" d="M332.8,462.4c0,0.2,0.9,0.3,1.9,0.8s1.4,1.3,1.6,1.3s-0.1-1.1-1.3-1.8S332.7,462.2,332.8,462.4z"/>
	<path class="st5" d="M328.9,464.1c0,0.2,0.8,0.5,1.4,1.3s0.8,1.6,1,1.6s0.3-1.1-0.5-2S328.9,464,328.9,464.1z"/>
	<path class="st5" d="M326.7,468.9c0.2,0,0.4-0.9-0.1-1.9s-1.4-1.4-1.4-1.2s0.5,0.7,0.9,1.5S326.5,468.9,326.7,468.9z"/>
	<polygon class="st12" points="403.4,375.5 391.6,471.3 376.5,469.7 375.6,376.3 	"/>
	<path class="st6" d="M376.3,463.6c0,0,10.4,7.3,15.8,1.5l1.2,2.9l5,20.7c0.3,1.4-0.5,2.8-1.9,3.2c-1.1,0.3-2.2,0.1-3.1-0.7
		c-4.2-4-19.6-18.5-19.4-20.4l0.3-5C374.4,464.9,375.2,464,376.3,463.6L376.3,463.6z"/>
	<g class="st8">
		<path class="st4" d="M395.9,492.1l-21.8-22.9v1.1c-0.2,1.2,0.4,1.7,1,2.5c1.7,2.3,6.6,7.6,18.3,18.6
			C394.1,492,395,492.3,395.9,492.1L395.9,492.1z"/>
	</g>
	<g class="st8">
		<path class="st4" d="M377.6,466.1c0.7,0.5,0.9,1.4,0.4,2.1c0,0,0,0,0,0c-0.6,0.7-1.6,0.8-2.3,0.4c-0.7-0.5-0.9-1.5-0.4-2.2
			c0,0,0,0,0,0c0.7-0.6,1.7-0.7,2.5-0.1"/>
	</g>
	<path class="st5" d="M389.9,480.6c0.7-0.8,1.6-1.4,2.6-1.9c1.1-0.3,2.2-0.5,3.3-0.5c0-0.1-0.3-0.3-1-0.4c-0.9-0.1-1.8,0-2.6,0.3
		c-0.8,0.3-1.5,0.8-2,1.5C389.9,480.2,389.8,480.6,389.9,480.6z"/>
	<path class="st5" d="M391.8,484.1c0.8-0.4,1.7-0.7,2.6-1c0.9-0.1,1.9-0.2,2.8-0.2c-0.9-0.5-2-0.7-3-0.3
		C392.5,483,391.6,484.1,391.8,484.1z"/>
	<path class="st5" d="M386.3,476c1.3-0.7,2.6-1.3,3.9-1.8c1.4-0.3,2.9-0.6,4.3-0.7c-1.5-0.4-3.1-0.3-4.5,0.2
		C387.5,474.4,386.1,475.9,386.3,476z"/>
	<path class="st5" d="M386.1,469.8c0.1,0.1,1.7-0.4,3.8-0.4s3.7,0.5,3.8,0.4c-1.1-0.7-2.4-1-3.8-0.9
		C387.6,468.8,386,469.6,386.1,469.8z"/>
	<path class="st5" d="M391,469.4c0.1-0.3,0-0.7-0.1-1c-0.2-0.9-0.7-1.7-1.3-2.4c-0.4-0.6-1-1-1.6-1.2c-0.5-0.1-1,0-1.3,0.4
		c-0.3,0.4-0.4,0.8-0.3,1.2c0.5,1.9,2.2,3.1,4.1,3c1.9,0,3.6-1.1,4.3-2.9c0.2-0.4,0.1-0.9-0.1-1.3c-0.3-0.4-0.8-0.5-1.3-0.4
		c-0.7,0.2-1.3,0.6-1.7,1.2c-0.7,0.6-1.2,1.4-1.6,2.2c-0.3,0.6-0.3,0.9-0.3,0.9c0.6-1.1,1.4-2.1,2.3-2.9c0.4-0.4,1-0.8,1.5-0.9
		c0.3-0.1,0.5,0,0.7,0.2c0.1,0.3,0.1,0.6,0,0.8c-0.7,1.5-2.2,2.4-3.8,2.4c-1.6,0.1-3.1-0.9-3.6-2.5c-0.1-0.3,0-0.6,0.1-0.9
		c0.2-0.2,0.4-0.3,0.7-0.2c0.6,0.2,1,0.5,1.4,1C390,467.2,390.6,468.2,391,469.4z"/>
	<path class="st5" d="M394.3,256.6c0,0,5.7,6.2,8.5,12.1s4.5,20,4.5,20s5.5,17.2,4.2,26.2s-7.5,71.2-7.5,71.2s-4.1,63.7-9.9,74.4
		l0,0l-20.3-2.2l0,0l-4-121.3L356,256.8L394.3,256.6z"/>
	<path class="st10" d="M383.7,280.6c0.1-0.3,0.1-0.6,0.2-0.9c0.1-0.6,0.1-1.5,0.1-2.6c0-2.8-0.1-5.7-0.5-8.5
		c-0.4-3.2-0.7-6.1-0.9-8.5c-0.1-1.2-0.2-2.3-0.4-3.5c-0.1,1.2-0.1,2.4,0,3.5c0.1,2.2,0.4,5.2,0.8,8.5s0.6,6.3,0.6,8.5
		S383.6,280.6,383.7,280.6z"/>
	<path class="st10" d="M379.5,266.4c0.6-1.5,1-3.1,1.2-4.8c0.3-1.6,0.4-3.3,0.2-4.9c-0.3,1.6-0.6,3.2-0.7,4.8
		C379.8,263.1,379.6,264.8,379.5,266.4z"/>
	<path class="st10" d="M364.7,261.5c0.1,0,0.1-0.8,0.9-1.3c0.5-0.3,1.1-0.4,1.6-0.1c0.8,0.3,1.2,1.3,0.9,2.1c-0.2,0.4-0.5,0.8-1,0.9
		c-0.5,0.2-1.1,0.1-1.6-0.2C364.8,262.3,364.8,261.5,364.7,261.5s-0.1,0.2-0.1,0.5c0.1,0.5,0.3,0.9,0.6,1.2c0.5,0.5,1.3,0.6,2,0.4
		c1.1-0.4,1.7-1.6,1.3-2.7c-0.2-0.6-0.6-1-1.2-1.3c-0.7-0.3-1.4-0.1-2,0.3c-0.4,0.3-0.6,0.7-0.7,1.1
		C364.6,261.4,364.7,261.5,364.7,261.5z"/>
	<path class="st5" d="M340.8,272.4c0,0-11.9,77.2-13.2,90.4s3.6,93.3,3.6,93.3l19.8,0.1l8.6-78.9l14.9-68.9l-13.6-51.1l-15.6,1.2
		L340.8,272.4z"/>
	<path class="st5" d="M409.8,200.9c0,0.2,0,0.4,0,0.6c0,0.4,0,1,0,1.8c0,0.4,0,0.8,0,1.3s-0.1,1-0.1,1.5c-0.1,1.1-0.1,2.3-0.4,3.7
		c-0.1,0.7-0.2,1.4-0.3,2.1s-0.3,1.5-0.4,2.3c-0.3,1.6-0.6,3.3-1,5.1c-0.8,3.5-1.9,7.4-3,11.5s-2.1,7.9-2.9,11.5
		c-0.4,1.8-0.7,3.5-0.9,5.1c-0.1,0.8-0.3,1.6-0.4,2.3s-0.1,1.5-0.2,2.2c-0.2,1.4-0.2,2.6-0.2,3.7c0,0.5,0,1.1,0,1.5s0,0.9,0.1,1.3
		c0,0.7,0.1,1.3,0.1,1.8c0,0.2,0,0.4,0.1,0.6c0-0.2,0-0.4,0-0.6c0-0.5,0-1,0-1.8c0-0.4,0-0.8,0-1.3s0-1,0.1-1.5
		c0.1-1.1,0.1-2.3,0.3-3.7c0.1-0.7,0.2-1.4,0.2-2.1s0.2-1.5,0.4-2.3c0.2-1.6,0.6-3.3,1-5.1c0.8-3.6,1.8-7.4,2.9-11.5
		s2.1-7.9,2.9-11.5c0.4-1.8,0.8-3.5,1-5.1c0.1-0.8,0.3-1.6,0.4-2.3s0.2-1.5,0.3-2.1c0.2-1.4,0.2-2.6,0.3-3.7c0-0.5,0.1-1.1,0.1-1.5
		s0-0.9,0-1.3c0-0.7,0-1.3,0-1.8C410,201.3,409.9,201.1,409.8,200.9z"/>
	<path class="st12" d="M325.1,230.4l-8.7-31l-10.7,2c0,0,2.6,2.9,2.6,5.6s1.7,28,1.7,28s10.7,3.1,15-4.1"/>
	<path class="st12" d="M316.4,199.4c0.7-1.9,0.8-4,0.2-6c-0.9-2.8-4.2-5-4-6.6s-1.5-5.7-3-5.4s-2.7,1.8-1.4,4.4
		c0.8,1.7,1.5,3.5,2,5.3c0,0-16-8.3-17.3-8.5s-2.6-0.4-3,0.7s2.9,2.4,2.9,2.4l4.3,5.6c0.7,2.1,1.7,4.1,3,6c1.5,1.8,3.4,3.2,5.5,4.2
		l4.7,5.6C310.3,207,317.4,204.6,316.4,199.4z"/>
	<path class="st13" d="M293.2,185.8c0,0,0.1-0.1,0.4-0.2c0.4-0.2,0.8-0.2,1.1-0.1c1.3,0.4,2.4,1.1,3.2,2.2c0.9,1,1.6,2.2,2.2,3.4
		c0.2,0.5,0.5,1,0.8,1.5c-0.1-0.6-0.3-1.1-0.5-1.6c-0.5-1.3-1.2-2.5-2.1-3.6c-0.9-1.1-2.1-1.9-3.5-2.2c-0.4-0.1-0.9,0.1-1.3,0.3
		C293.2,185.6,293.2,185.8,293.2,185.8z"/>
	<path class="st13" d="M299.1,187.9c0.7,0.6,1.5,1.2,2.3,1.6c0.8,0.5,1.6,0.9,2.5,1.2c-0.7-0.6-1.5-1.2-2.3-1.6
		C300.8,188.6,300,188.2,299.1,187.9z"/>
	<path class="st13" d="M307.5,191.5c-0.9-0.4-1.8-0.4-2.7,0c-0.9,0.2-1.7,0.8-2.1,1.6c0.7-0.5,1.5-0.9,2.3-1.2
		C305.8,191.7,306.7,191.6,307.5,191.5z"/>
	<path class="st10" d="M341,232.2c0.1,0.5-12.1,16.9-16.1,20c-9.7,7.6-16.9-2.7-16.1-11.4s26-49.4,26-49.4l8.2,19.3L341,232.2z"/>
	<polygon class="st4" points="404.9,187.1 382.7,181.9 380.6,178.3 358.3,178.7 353.2,184.2 338.3,191.5 350.8,243.8 392.6,245.9 	
		"/>
	<path class="st10" d="M379.5,177.6l8.3,5.2l17.5,3.8l-5.5,70.1c0,0,16.1,28.1,14.3,61.5l-46-2c0,0,2.2-35.2,2.7-49.3
		s0.2-38.8,0.2-38.8l11.4-42.5L379.5,177.6z"/>
	<path class="st10" d="M356.8,182.8l1.6-4.8l-5.8,5.8l-4.2,1.5c-5.8,2.2-13.6,6.1-13.6,6.1l9.8,62.3c0,0-11.3,39-12.1,62.5
		c0,0,30.2,0.5,42.1,0l-3.2-89.4c0,0-10.5-12.4-12.2-24.8S356.8,182.8,356.8,182.8z"/>
	<path class="st5" d="M371.8,236.6c0.1-0.1,0.3-0.2,0.4-0.4l1.1-1.1l3.9-4.3l13.1-14.8l0.1-0.1v-0.1c-0.7-2.4-1.4-4.9-2.1-7.5
		c-0.3-1.1-0.6-2.2-0.9-3.3l-0.2,0.3l8.7-0.3h0.3l-0.1-0.3l-5.8-15.7l-1.7-4.5l-0.5-1.2c-0.1-0.3-0.2-0.4-0.2-0.4
		c0,0.1,0.1,0.3,0.1,0.4l0.4,1.2l1.6,4.5l5.7,15.8l0.2-0.3l-8.7,0.3h-0.3l0.1,0.3c0.3,1.1,0.6,2.2,0.9,3.3c0.7,2.6,1.4,5.1,2.1,7.5
		v-0.2c-5.2,5.9-9.7,11.1-13,14.9l-3.8,4.4l-1,1.2C372,236.4,371.8,236.6,371.8,236.6z"/>
	<path class="st5" d="M352.6,183.6c0,0.2-0.1,0.3-0.1,0.5c0,0.4-0.1,0.9-0.2,1.4c-0.2,1.3-0.4,3.1-0.7,5.4
		c-0.6,4.7-1.4,11.1-2.3,18.5v0.3l0.3-0.1l4.8-0.8l-0.3-0.3c-0.3,0.6-0.6,1.4-0.9,2.1l-1.8,4.1l-0.1,0.1l0.1,0.1l13.4,15.5l4,4.6
		c0.5,0.5,0.8,0.9,1.1,1.2s1.9,1.5,1.9,1.5s-1.6-1.3-1.9-1.6l-1-1.3l-3.9-4.7l-13.3-15.6v0.2c0.6-1.3,1.2-2.7,1.8-4.1
		c0.3-0.7,0.6-1.4,0.9-2l0.2-0.4l-0.4,0.1l-4.8,0.8l0.3,0.2c0.9-7.4,1.6-13.8,2.1-18.5c0.2-2.3,0.4-4.1,0.6-5.4
		c0-0.6,0.1-1.1,0.1-1.5C352.6,184,352.6,183.8,352.6,183.6z"/>
	<path class="st5" d="M375.9,264c0.9-1.2,2.7-1.9,3.6-0.8l0,0c0.9,0.7,1.3,1.9,1,3.1c-0.6,1.4-2.1,2.1-3.5,1.5c0,0-0.1,0-0.1,0
		c-1.3-0.7-1.8-2.2-1.1-3.5C375.8,264.2,375.8,264.1,375.9,264z"/>
	<g class="st11">
		<path d="M395.8,204.7c-0.1,0.5-3.3,1-3.8,2.3c-0.4,1.4-0.4,2.9,0.1,4.2c0.5,1.3,0.8,2.8,0.8,4.2c-0.2,2.6-2.2,4.6-4.1,6.3
			c-5.3,4.9-11.7,10.1-17,15c4.7-6,10.8-12.1,15.9-17.7c2.1-1.6,2.7-4.5,1.5-6.9l-1.6-5.4c-0.1-0.5-0.4-1.2-0.5-1.5
			c0.7-0.1,1.3-0.2,2-0.2C391.4,204.8,393.6,204.7,395.8,204.7"/>
	</g>
	<path class="st5" d="M335.5,202c0,0.2,0,0.4,0.1,0.5c0.1,0.4,0.1,0.9,0.2,1.5c0.2,1.4,0.5,3.3,0.9,5.6c0.8,4.7,1.9,11.2,3.1,18.3
		s2.3,13.6,3.2,18.3c0.4,2.3,0.8,4.2,1.1,5.5c0.1,0.6,0.2,1.1,0.3,1.5c0,0.2,0.1,0.4,0.1,0.5c0-0.2,0-0.4,0-0.5l-0.2-1.5
		c-0.2-1.4-0.5-3.3-0.9-5.6c-0.8-4.7-1.9-11.2-3.1-18.3s-2.3-13.6-3.2-18.3c-0.4-2.3-0.8-4.2-1.1-5.5c-0.1-0.6-0.2-1.1-0.3-1.5
		C335.7,202.3,335.6,202.2,335.5,202z"/>
	<path class="st10" d="M405,186.5c3.3,1.1,6.1,3.3,8,6.2c3.7,5.5,10.1,58.4,9.8,62.1s-3.4,13-12,11.7s-31.3-17.1-31.3-17.1l7.8-15.2
		l16.6,7.8l-2.3-26.2L405,186.5z"/>
	<g class="st11">
		<path d="M354.5,261.4c0.5-2.4,3.5-3.1,5.9-3.5l39.5-5l3.4,11.1c-0.2,2.6-0.8,5.1-1.8,7.5c-1,2.4-3,4.2-5.5,5
			c-2.2,0.5-4.5-0.1-6.7-0.8l-29-8.6c-1.5-0.3-2.9-0.9-4.1-1.8C354.9,264.5,354.3,262.9,354.5,261.4z"/>
	</g>
	<g class="st11">
		<path d="M403.1,215.6c0.5-1.9,1.2-4,3-4.7s4.2,0.6,5,2.5s0.7,4.1,0.4,6.1c-1,7.1-3.5,15-5.9,21.8l-8.1-3
			C398.6,230.8,401.2,223,403.1,215.6z"/>
	</g>
	<path class="st10" d="M319.4,209.1l8,24l-10.4,7.5l-8.4,3.3c0,0-1.6-12-1.2-7.8l-1.9-24.7L319.4,209.1z"/>
	<path class="st5" d="M319.4,209.1c0,0.4,0.1,0.7,0.2,1.1c0.1,0.7,0.4,1.7,0.7,2.9c0.6,2.4,1.7,5.7,3,9.3s2.4,6.8,3,9.2
		c0.3,1.2,0.6,2.2,0.8,2.8c0.1,0.3,0.2,0.7,0.3,1c0-0.4-0.1-0.7-0.2-1.1c-0.1-0.7-0.4-1.7-0.7-2.9c-0.6-2.4-1.7-5.7-3-9.3
		s-2.4-6.8-3-9.2c-0.3-1.2-0.6-2.2-0.8-2.8C319.7,209.8,319.6,209.5,319.4,209.1z"/>
	<path class="st5" d="M322,245.3c0.4-0.4,0.7-0.8,1-1.3c0.7-1.1,1.4-2.2,2-3.3c0.6-1.1,1.2-2.3,1.6-3.5c0.2-0.5,0.4-1,0.5-1.5
		c-0.3,0.5-0.5,0.9-0.7,1.4c-0.4,0.9-1,2.1-1.7,3.5s-1.4,2.5-1.9,3.4C322.5,244.4,322.2,244.8,322,245.3z"/>
	<path class="st5" d="M405,240.4c0.9-0.2,1.7-0.5,2.5-0.8c0.9-0.3,1.7-0.6,2.5-1c-0.9,0.1-1.8,0.3-2.6,0.6
		C406.6,239.5,405.7,239.9,405,240.4z"/>
	<path class="st5" d="M402.4,206.4c0.1-0.2,0.2-0.3,0.3-0.5c0.1-0.4,0.3-0.9,0.5-1.5c0.5-1.7,0.9-3.4,1.2-5.1
		c0.3-1.7,0.4-3.5,0.4-5.3c0-0.7,0-1.2,0-1.6c0-0.2,0-0.4-0.1-0.6c-0.1,0.7-0.1,1.4-0.1,2.2c-0.1,1.7-0.2,3.5-0.5,5.2
		c-0.3,1.7-0.6,3.4-1.1,5.1C402.6,205.6,402.4,206.4,402.4,206.4z"/>
	<g class="st11">
		<path d="M351.6,211.3l-2.9,0.2c1.3-1.7,3.4-2.5,5.5-2.1c-0.1,1.8-1.9,3.1-1.8,4.9c0.2,0.9,0.6,1.8,1.3,2.5l5.4,6.7l-0.4,3.4
			c-2.2-3.2-4.5-6.1-6.7-9.3c-0.7-0.9-1.3-2-1.6-3.1C350.1,213.2,350.6,211.9,351.6,211.3z"/>
	</g>
	<g class="st11">
		<path d="M322.7,220.2l-0.9-2.6c1.5,4.5,6.5,7.9,8.2,12.3c1.4,3.8,0.7,8-1.8,11.2c-0.6,0.7-1.6,1.4-2.3,0.9c-0.6-0.3-0.9-1-0.7-1.7
			c0.2-0.6,2-4.2,2.3-4.8s-0.3-1.7-1-4C325.2,227.3,323.9,224.3,322.7,220.2z"/>
	</g>
	<path class="st0" d="M410.3,213.9l-10.4,54.6c-0.4,2.2-2.5,3.6-4.7,3.2c0,0,0,0-0.1,0l-39.9-7.7c-2.2-0.4-3.6-2.5-3.2-4.7
		c0,0,0-0.1,0-0.1l11-55.5c0.4-2.2,2.5-3.6,4.7-3.2c0,0,0.1,0,0.1,0l39.3,8.6C409.4,209.7,410.7,211.8,410.3,213.9z"/>
	<circle class="st4" cx="382.1" cy="232.2" r="6.6"/>
	<path class="st12" d="M383.7,234.1l-3.3-1.6c0,0-1.1-5.7-2.8-7.7s-4.3-4.3-4.3-4.9s-0.8-4.3-0.8-4.3s-1.5-1.3-1.9,1.4
		c-0.2,1.6-0.2,3.2,0,4.7l-10.4-2.6c-1.1-0.3-2.4-0.2-2.3,0.9c0.2,1,0.7,1.8,1.5,2.3c0.3,0.2,0.6,0.4,1,0.6c0,0-1.7,1.6-1.7,3.2
		s-1.8,5.2-0.2,6.9s9,7,12.9,7.7s4.9,1.8,6.7,4.1L383.7,234.1z"/>
	<path class="st13" d="M369.7,221.5c0,0.1,1.2,0.8,2.6,1.9s2.4,2.1,2.5,2c-0.6-0.9-1.4-1.6-2.3-2.3
		C371.7,222.4,370.7,221.8,369.7,221.5z"/>
	<path class="st13" d="M359.8,222.6c0.8,0.5,1.6,0.8,2.5,1c0.8,0.3,1.7,0.5,2.6,0.7c-0.8-0.5-1.6-0.8-2.5-1
		C361.6,223,360.7,222.7,359.8,222.6z"/>
	<polygon class="st10" points="406.9,241.9 384,232.2 375.4,249.3 406.9,265.3 	"/>
	<path class="st5" d="M384.4,232.7c0,0.1,6.1,2.6,13.8,5.7s13.9,5.5,13.9,5.4s-6.1-2.6-13.8-5.7S384.5,232.6,384.4,232.7z"/>
	<g class="st11">
		<path d="M405.4,240.8c2.8,0.6,5.5,1.4,8.1,2.4c1.1,0.4,2.1,1,3,1.7c0.9,0.7,1.5,1.8,1.6,3c-0.8-0.3-1.5-0.8-2.1-1.3
			c-2.6-2.6-7.1-4.1-10.9-5.6L405.4,240.8z"/>
	</g>
	<path class="st5" d="M372.5,317.3c-0.1,0-0.3-11-0.3-24.6s0.1-24.6,0.3-24.6s0.3,11,0.3,24.6S372.6,317.3,372.5,317.3z"/>
	<path class="st6" d="M343.7,144.5c0.6-5.6,1.5-11.3,4.6-16s8.9-8,14.3-6.6l6.8,3.3c-0.3,15.3-2.3,30.5-6,45.3
		c-0.3,1.5-0.9,2.9-1.8,4.1c-2,2.3-5.4,2.3-8.5,2.2c-3.6-0.2-7.9-0.7-9.7-3.9c-0.7-1.6-1.1-3.4-0.9-5.1
		C342.4,160,342.8,152.3,343.7,144.5z"/>
	<path class="st12" d="M379.7,132.1l-20.6-5.3c-6.6-0.7-11,7.4-11.4,14c-0.5,7.4-0.8,16.4,0.1,21.8c1.7,11,10.2,12.5,10.2,12.5
		c-0.5,2.8-0.5,5.6-0.1,8.4c1,7.5,6.1,9.1,10.1,9.1l0,0c6.4,0.2,12.8-2.2,13.1-8.6l2.1-48.1C383.2,134,381.7,132.3,379.7,132.1z"/>
	<path class="st5" d="M352.5,150c0,0.8,0.6,1.4,1.4,1.4c0.7,0.1,1.4-0.5,1.5-1.3c0,0,0,0,0,0c0-0.8-0.6-1.4-1.4-1.4
		C353.2,148.7,352.6,149.2,352.5,150C352.5,150,352.5,150,352.5,150z"/>
	<path class="st5" d="M350.3,146.5c0.2,0.2,1.2-0.6,2.8-0.6s2.6,0.8,2.8,0.6s-0.1-0.4-0.6-0.8c-0.7-0.5-1.5-0.7-2.3-0.7
		c-0.8,0-1.6,0.2-2.2,0.7C350.4,146,350.2,146.4,350.3,146.5z"/>
	<path class="st5" d="M367.7,150c0,0.7,0.6,1.4,1.3,1.4c0.8,0.1,1.4-0.5,1.5-1.3c0,0,0,0,0,0c0-0.8-0.6-1.4-1.4-1.4
		C368.4,148.7,367.7,149.2,367.7,150C367.7,150,367.7,150,367.7,150z"/>
	<path class="st5" d="M365.5,146.9c0.2,0.2,1.3-0.6,2.8-0.6s2.6,0.8,2.8,0.6s-0.1-0.4-0.6-0.8c-0.7-0.5-1.4-0.7-2.3-0.7
		c-0.8,0-1.6,0.2-2.2,0.7C365.6,146.5,365.5,146.8,365.5,146.9z"/>
	<path class="st5" d="M359.7,157.2c-0.8-0.2-1.6-0.4-2.5-0.4c-0.4,0-0.8-0.1-0.8-0.4c0-0.4,0.1-0.8,0.3-1.2c0.4-0.9,0.8-1.9,1.2-3
		c1.6-4.2,2.8-7.7,2.6-7.7s-1.6,3.3-3.2,7.5c-0.4,1-0.8,2-1.1,3c-0.2,0.5-0.3,1-0.2,1.5c0.1,0.3,0.3,0.5,0.6,0.6
		c0.2,0.1,0.4,0.1,0.7,0.1C358,157.3,358.9,157.3,359.7,157.2z"/>
	<path class="st13" d="M358,175.2c5.4,0.1,10.7-1.2,15.4-3.9c0,0-4.4,7.7-15.4,6.7V175.2z"/>
	<path class="st6" d="M364.5,142.3c0.1,0.4,1.7,0.2,3.5,0.4s3.2,0.7,3.5,0.3c0.1-0.2-0.1-0.6-0.7-1c-1.6-1-3.5-1.2-5.3-0.6
		C364.8,141.8,364.4,142.1,364.5,142.3z"/>
	<path class="st6" d="M349.9,142c0.3,0.4,1.6,0,3.2,0s2.9,0.2,3.2-0.1c0.1-0.2-0.1-0.5-0.6-0.9c-0.8-0.4-1.7-0.6-2.6-0.6
		c-0.9,0-1.8,0.2-2.5,0.7C349.9,141.4,349.7,141.8,349.9,142z"/>
	<path class="st6" d="M357.3,129.7c1,1.3,2.1,2.5,3.4,3.5l5.9,5.1c1.4,1.2,2.9,2.4,4.4,3.4c1.4,0.9,2.8,1.7,4.3,2.4
		c1.5,0.8,2.4,3,4,3.8c0.4,0.2,1.4,0,1.8,0.2c0.1,2.5,0.6,10.3,0.8,13.4c0.3,4.9-0.5,18.1-0.5,18.1l4.2-0.3c3.2-0.7,6.4-4.8,6.9-8
		c0.4-3.1,0-7.3,0-9.8c0.1-6.4-1.6-12.8-2.5-19.1c-0.2-2.6-0.8-5.1-1.8-7.5c-1.5-3.3-4.4-5.9-7.4-8c-3.4-2.5-7.3-4.2-11.5-5
		c-4.2-0.8-8.5,0.2-12,2.7c-0.6,0.4-1,0.9-1.1,1.6C355.6,127.7,356.4,128.4,357.3,129.7z M381.1,148.2
		C381.3,148.5,381.2,149.2,381.1,148.2z"/>
	<path class="st12" d="M380.6,151.2c0.1-1.8,1.6-3.2,3.3-3.1c0.5,0,1,0.1,1.4,0.4c1.1,0.6,2,1.9,1.9,4.4c-0.3,6.6-6.9,5-6.9,4.8
		S380.4,153.9,380.6,151.2z"/>
	<path class="st13" d="M382.4,155.3c0,0,0.1,0.1,0.3,0.2c0.3,0.1,0.6,0.1,0.9,0.1c0.9-0.5,1.4-1.5,1.5-2.5c0-0.6,0-1.1-0.3-1.7
		c-0.1-0.4-0.4-0.8-0.8-0.9c-0.3-0.1-0.6,0-0.7,0.3c-0.1,0.2-0.1,0.3-0.1,0.3s-0.1-0.1-0.1-0.4c0-0.2,0.1-0.3,0.3-0.4
		c0.2-0.1,0.4-0.2,0.6-0.1c0.6,0.1,1,0.5,1.2,1.1c0.3,0.6,0.4,1.2,0.3,1.9c0,1.2-0.7,2.3-1.8,2.8c-0.4,0.1-0.8,0-1-0.2
		C382.4,155.4,382.4,155.3,382.4,155.3z"/>
	<path class="st5" d="M384.6,158.1c0,0.7-0.6,1.3-1.3,1.3c-0.7,0-1.3-0.6-1.3-1.3c0-0.7,0.6-1.3,1.3-1.3c0,0,0,0,0,0
		C384,156.8,384.6,157.4,384.6,158.1z"/>
	<path class="st13" d="M363.9,160c1,1.3,0.8,3.2-0.5,4.2c-0.3,0.2-0.6,0.4-1,0.5c-0.4,0.1-0.8,0.1-1.1,0c-0.6-0.3-1-0.9-1.2-1.6
		l-0.6-1.6c-0.1-0.2-0.1-0.4-0.1-0.6c0.1-0.2,0.3-0.3,0.5-0.3l3.9-0.9"/>
	<path class="st5" d="M361.3,164.5c0.6,0.1,1.2,0,1.8-0.2c0.7-0.2,1.2-0.7,1.6-1.3c0.2-0.4,0.3-0.8,0.2-1.2c0-0.4-0.1-0.9-0.3-1.3
		c-0.2-0.4-0.4-0.7-0.7-1l-0.1-0.1h-0.1c-2.6,0.9-4.6,1.4-4.6,1.5c1.6-0.1,3.2-0.5,4.8-1.1h-0.2c0.3,0.3,0.5,0.6,0.6,0.9
		c0.3,0.6,0.4,1.4,0.1,2.1c-0.3,0.5-0.7,0.9-1.3,1.1C362,164.4,361.3,164.4,361.3,164.5z"/>
	<path class="st6" d="M373.3,132.6c4.4,2.7,8.1,6.2,11.1,10.3l-3.1,6.3c-6.1-0.1-6.9-0.7-11.4-4.7s-13.7-12.1-14.6-18.1
		C361.2,127.6,368.2,129.5,373.3,132.6z"/>
	<path class="st4" d="M386.2,179c0.1-0.2,0.1-0.4,0.2-0.6c0.2-0.4,0.4-1,0.8-1.8c0.9-2.3,1.6-4.6,2.1-7c0.8-3.5,1.1-7.1,1-10.8
		c0-2.1-0.3-4.2-0.8-6.3c-0.5-2.2-1.7-4.2-3.3-5.8c-1.8-1.4-3.8-2.5-6-3.3c-2-0.8-4-1.7-5.8-2.8c-3.1-1.8-6-4.1-8.6-6.7
		c-1.7-1.7-3.3-3.6-4.7-5.6c-0.5-0.7-0.9-1.3-1.1-1.7c-0.1-0.2-0.3-0.4-0.4-0.6c0.2,0.2,0.3,0.3,0.4,0.5c0.3,0.4,0.7,0.9,1.2,1.6
		c1.5,1.9,3.1,3.8,4.8,5.5c2.6,2.5,5.4,4.8,8.6,6.6c1.9,1.1,3.8,2,5.8,2.7c2.2,0.8,4.3,1.9,6.1,3.3c1.7,1.6,3,3.7,3.5,6
		c0.5,2.1,0.7,4.3,0.8,6.4c0.1,3.6-0.3,7.3-1.1,10.9c-0.6,2.4-1.3,4.7-2.3,7c-0.4,0.8-0.6,1.4-0.9,1.8
		C386.5,178.6,386.4,178.8,386.2,179z"/>
	<path class="st4" d="M388.5,144.3c-0.5-1.7-1.3-3.2-2.4-4.4c-1.3-1.4-2.7-2.5-4.4-3.3c-2-1-4.1-1.9-6.3-2.6c-3.9-1.4-7.7-3.5-11-6
		c-1-0.8-2-1.6-2.9-2.5c-0.4-0.3-0.7-0.6-1-1c0.4,0.3,0.7,0.5,1.1,0.9c0.7,0.6,1.7,1.4,3,2.3c3.4,2.4,7,4.4,10.9,5.8
		c2.2,0.8,4.3,1.7,6.4,2.7c1.7,0.9,3.2,2.1,4.4,3.5c0.8,1,1.5,2.1,1.9,3.3c0.1,0.3,0.2,0.7,0.2,1
		C388.5,144.1,388.5,144.3,388.5,144.3z"/>
	<path class="st4" d="M345,175.2c0-0.2-0.1-0.4-0.1-0.6c0-0.4,0-1-0.1-1.6c-0.1-1.4-0.1-3.4-0.2-5.9c-0.1-5-0.2-11.9,0.4-19.5
		c0.1-3.6,0.6-7.2,1.5-10.6c0.7-2.9,2.1-5.5,4.1-7.8c1.3-1.5,2.9-2.7,4.8-3.5c0.5-0.2,1-0.4,1.5-0.5c0.2-0.1,0.4-0.1,0.5-0.1
		c0,0-0.8,0.2-2,0.8c-1.8,0.9-3.3,2.1-4.6,3.6c-1.9,2.2-3.2,4.8-3.9,7.7c-0.9,3.5-1.4,7-1.5,10.6c-0.5,7.6-0.5,14.5-0.5,19.5v5.8
		c0,0.6,0,1.2,0,1.6C345.1,174.8,345,175,345,175.2z"/>
</g>
<g id="freepik--character-1--inject-7">
	<path class="st6" d="M207.3,435.7l-5.8,19.5c0,0,19.5,12,18.8,15.7l-41.2-8.9l7.6-30.8L207.3,435.7z"/>
	<path class="st0" d="M189.2,450.8c-0.8,0-1.5,0.7-1.6,1.5c0.1,0.8,0.8,1.5,1.6,1.5c0.9,0,1.8-0.9,1.7-1.6c-0.2-0.9-1-1.5-1.9-1.4"
		/>
	<g class="st8">
		<path class="st4" d="M179.1,462l0.9-3.1l39.2,9.7c0,0,1.6,1.1,1.1,2.3L179.1,462z"/>
	</g>
	<path class="st5" d="M202.3,455.2c-0.1,0.2-1.1,0-2.2,0.4s-1.9,1.1-2,0.9s0.4-1.1,1.8-1.6S202.4,455,202.3,455.2z"/>
	<path class="st5" d="M206.2,457.8c0,0.2-1,0.3-1.8,1s-1.3,1.4-1.5,1.4s-0.1-1.1,1.1-1.9S206.2,457.6,206.2,457.8z"/>
	<path class="st5" d="M207.4,463.1c-0.2,0-0.2-1,0.5-1.9s1.8-1.1,1.9-0.9s-0.7,0.6-1.3,1.4S207.6,463.2,207.4,463.1z"/>
	<path class="st5" d="M203.1,450.6c-0.1,0.1-1-0.3-2.1-0.5s-2.1,0-2.2-0.2s1-0.7,2.3-0.4S203.2,450.5,203.1,450.6z"/>
	<path class="st6" d="M193,440.9l-0.6,20.2c0,0,22,7.4,22.2,11.1l-42.3,0.3l-0.4-31.6L193,440.9z"/>
	<path class="st0" d="M179.2,459.5c-0.8,0.2-1.3,1-1.2,1.8c0.3,0.9,1.2,1.3,2.1,1c0.8-0.3,1.2-1.1,1.1-1.9c-0.4-0.8-1.3-1.2-2.2-0.9
		"/>
	<g class="st8">
		<path class="st4" d="M172.2,472.6l0.1-3.2l40.6,0.9c0,0,1.9,0.8,1.7,2L172.2,472.6z"/>
	</g>
	<path class="st5" d="M193,461c0,0.2-1,0.3-2.1,0.9s-1.6,1.4-1.7,1.4s0.1-1.2,1.4-1.9S193.1,460.8,193,461z"/>
	<path class="st5" d="M197.5,462.6c0.1,0.2-0.8,0.5-1.5,1.3s-0.9,1.7-1.1,1.7s-0.3-1.1,0.5-2.1S197.5,462.4,197.5,462.6z"/>
	<path class="st5" d="M200,467.5c-0.2,0-0.5-0.9,0-2s1.5-1.5,1.6-1.3s-0.5,0.7-0.9,1.6S200.2,467.5,200,467.5z"/>
	<path class="st5" d="M192.6,456.3c-0.1,0.2-1-0.1-2.2,0s-2.1,0.4-2.2,0.3s0.8-0.9,2.1-0.9S192.7,456.2,192.6,456.3z"/>
	<path class="st5" d="M192.3,455.4c-0.1,0.5-0.1,1.1-0.1,1.6c0,1,0,2.5,0,4.2v0.1l0.1,0c2.2,0.8,4.9,1.7,7.7,2.8
		c3.7,1.4,7,2.9,9.3,4l2.8,1.4c0.3,0.2,0.7,0.3,1,0.5c-0.3-0.2-0.6-0.4-0.9-0.6c-0.6-0.4-1.5-0.9-2.7-1.5c-3-1.5-6.1-2.9-9.3-4.1
		c-2.9-1.1-5.6-2-7.8-2.8l0.1,0.2c0-1.8-0.1-3.2-0.1-4.2C192.4,456.4,192.4,455.9,192.3,455.4z"/>
	<path class="st5" d="M164.5,292.4l0.2,13.1l5.6,62.3c0,0-2.4,30.3-3.9,47.4c-1.3,14.8,1.6,40.6,1.6,40.6l27-0.4l8.3-86.2l5.2-53.8
		l10-24.6L164.5,292.4z"/>
	<polygon class="st5" points="232.3,290.2 231.7,378.3 205.4,443.8 204.2,447.7 188.1,444.3 197.7,290.1 	"/>
	<path class="st10" d="M208.4,316c0,0.1,0,0.2,0,0.4c0,0.3,0,0.6,0,1.1c0,1,0,2.3-0.1,4.1c-0.1,3.5-0.3,8.7-0.5,15
		c-0.6,12.6-1.9,30.1-3.9,49.4s-4.3,36.6-6,49.2c-0.9,6.3-1.6,11.3-2,14.9c-0.3,1.7-0.4,3.1-0.6,4c-0.1,0.4-0.1,0.8-0.2,1
		s-0.1,0.4-0.1,0.4c0-0.1,0-0.2,0-0.4c0-0.3,0.1-0.6,0.1-1c0.1-1,0.3-2.3,0.5-4.1c0.4-3.5,1.1-8.6,1.9-14.9
		c1.6-12.6,3.8-30,5.9-49.2s3.4-36.7,4.1-49.3c0.3-6.3,0.6-11.4,0.7-15c0.1-1.8,0.1-3.1,0.2-4.1c0-0.5,0-0.8,0.1-1.1
		C208.4,316.2,208.4,316.1,208.4,316z"/>
	<path class="st10" d="M206.7,310.9c0,0,0,0.1,0.1,0.2c0.2,0.1,0.4,0.1,0.6,0c0.3-0.2,0.4-0.5,0.4-0.8c0-0.3,0.1-0.7,0.2-1.1
		c0.2-1.6,0.5-3.9,0.8-6.3s0.5-4.7,0.6-6.3c0.1-0.9,0.2-1.8,0.1-2.6c-0.2,0.9-0.4,1.7-0.5,2.6c-0.2,1.6-0.5,3.9-0.8,6.3
		s-0.5,4.7-0.6,6.3c-0.1,0.8,0,1.5-0.3,1.8c-0.1,0.1-0.3,0.1-0.5,0C206.8,311,206.7,310.9,206.7,310.9z"/>
	<path class="st10" d="M203.7,295.1c0,0-0.1-0.1-0.4,0c-0.4,0.1-0.7,0.3-1,0.5c-0.4,0.4-0.5,1-0.3,1.6c0.3,0.7,1,1.1,1.7,1.1
		c0.7,0,1.4-0.4,1.7-1.1c0.4-0.7,0.1-1.6-0.7-2c-0.2-0.1-0.3-0.1-0.5-0.1c-0.3,0-0.4,0.1-0.4,0.1c0.4,0.1,0.8,0.3,1.1,0.6
		c0.2,0.4,0.2,0.8,0,1.2c-0.2,0.5-0.7,0.8-1.3,0.8c-0.5,0-1-0.3-1.3-0.8c-0.2-0.4-0.1-0.9,0.1-1.2
		C202.8,295.5,203.2,295.2,203.7,295.1z"/>
	<path class="st10" d="M220.2,296.4c0.1,0,0.5-0.8,0.7-1.8c0.2-0.6,0.2-1.3-0.1-1.9c-0.1,0-0.3,0.8-0.4,1.9S220.1,296.4,220.2,296.4
		z"/>
	<path class="st10" d="M217.3,296.5c0.4-0.6,0.6-1.2,0.6-1.9c0.2-0.6,0.3-1.3,0.1-2c-0.1,0-0.4,0.8-0.6,1.9S217.1,296.4,217.3,296.5
		z"/>
	<path class="st10" d="M187.4,296.8c0.1,0,0.4-0.5,0.6-1.3s0.2-1.4,0.1-1.4s-0.4,0.6-0.6,1.3S187.2,296.8,187.4,296.8z"/>
	<path class="st10" d="M184.4,297.8c0.5-0.7,0.8-1.6,0.8-2.5c0.2-0.9,0.2-1.8-0.1-2.6c-0.2,0.8-0.4,1.7-0.4,2.5
		C184.6,296,184.5,296.9,184.4,297.8z"/>
	<path class="st10" d="M164.3,307.3c0.3,0.1,0.5,0.2,0.8,0.3c0.8,0.2,1.6,0.3,2.4,0.2c2.6-0.2,5.1-1.3,6.9-3.2c1.7-1.8,3-4,3.6-6.4
		c0.2-0.7,0.4-1.4,0.5-2.1c0.1-0.5,0.1-0.8,0.1-0.8s-0.3,1.1-0.9,2.9c-0.7,2.3-2,4.4-3.7,6.2c-1.8,1.8-4.1,2.9-6.6,3.1
		C166.4,307.5,165.3,307.4,164.3,307.3z"/>
	<path class="st5" d="M208.9,119.9c2.6,0.1,4.8-1.8,4.9-4.4c0.1-2.2-1.3-4.2-3.5-4.8c1.7-2,1.5-5.1-0.5-6.8c-1.2-1-2.7-1.4-4.2-1.1
		c-0.3-3.2-3.1-5.5-6.3-5.2c-1,0.1-1.9,0.4-2.7,1c-2.4-1.7-5.7-1.6-8,0.3c-2.5-0.3-4.8,1.5-5.1,4c-0.2,1.5,0.4,3,1.6,4"/>
	<path class="st14" d="M209.6,120.5c-1.4-10.2-10.4-17.5-20.7-16.9l-1,0.1C177,105,172,115,173.6,125.9l3.8,36.5l0.3,10.9l25.8,6
		l-0.9-20.8c0,0,10.5-2.3,9.9-12.8C212.3,140.4,211,129.9,209.6,120.5z"/>
	<path class="st15" d="M202.7,158.3c-4.9,0.3-9.8-0.8-14.1-3.2c0,0,3.7,7.4,14.2,5.8L202.7,158.3z"/>
	<path class="st5" d="M208,128.8c0.1,0.8-0.6,1.5-1.4,1.6c-0.8,0.1-1.5-0.4-1.6-1.2c0,0,0,0,0,0c-0.1-0.8,0.5-1.5,1.4-1.6
		C207.2,127.4,207.9,128,208,128.8C208,128.8,208,128.8,208,128.8z"/>
	<path class="st5" d="M207.7,125.8c-0.2,0.2-1.4-0.6-3-0.5s-2.8,1-2.9,0.8s0.1-0.4,0.6-0.9c0.7-0.5,1.5-0.8,2.3-0.9
		c0.8-0.1,1.7,0.2,2.4,0.6C207.6,125.3,207.8,125.7,207.7,125.8z"/>
	<path class="st5" d="M192.6,130.4c0.1,0.8-0.5,1.5-1.4,1.6c-0.8,0.1-1.5-0.4-1.6-1.2c0,0,0,0,0,0c-0.1-0.8,0.5-1.5,1.4-1.6
		C191.8,129,192.5,129.6,192.6,130.4C192.6,130.4,192.6,130.4,192.6,130.4z"/>
	<path class="st5" d="M191.7,127.1c-0.2,0.2-1.4-0.6-3-0.5s-2.8,1-2.9,0.8s0.1-0.4,0.6-0.9c0.7-0.5,1.5-0.8,2.3-0.9
		c0.8-0.1,1.7,0.2,2.4,0.6C191.6,126.6,191.8,127,191.7,127.1z"/>
	<path class="st5" d="M198.4,138.7c0.8-0.3,1.7-0.5,2.6-0.6c0.4-0.1,0.8-0.2,0.9-0.5c0-0.4-0.1-0.9-0.4-1.2l-1.5-3.1
		c-2-4.4-3.4-8-3.2-8.1s1.9,3.4,3.9,7.8c0.5,1.1,0.9,2.1,1.4,3.1c0.3,0.5,0.4,1.1,0.3,1.6c-0.1,0.3-0.3,0.5-0.6,0.6
		c-0.2,0.1-0.5,0.1-0.7,0.1C200.1,138.7,199.2,138.8,198.4,138.7z"/>
	<path class="st5" d="M193.6,140.1c0.3,0,0.4,1.7,1.9,2.9s3.4,0.9,3.5,1.1s-0.4,0.4-1.2,0.4c-1,0.1-2.1-0.2-2.9-0.8
		c-0.8-0.6-1.3-1.5-1.5-2.4C193.4,140.6,193.5,140.1,193.6,140.1z"/>
	<path class="st5" d="M191.8,120.7c-0.1,0.4-1.8,0.3-3.6,0.7s-3.4,1-3.7,0.6c-0.1-0.2,0.1-0.6,0.7-1.1c1.6-1.2,3.7-1.5,5.6-1
		C191.5,120.1,191.8,120.5,191.8,120.7z"/>
	<path class="st5" d="M206.8,121.1c-0.3,0.4-1.4,0.1-2.7,0.1s-2.5,0.4-2.8,0c-0.1-0.2,0-0.6,0.5-0.9c1.3-0.9,3.1-1,4.4-0.1
		C206.7,120.6,206.9,120.9,206.8,121.1z"/>
	<path class="st5" d="M208.3,115.7c0,0-3.2-6.4-6.5-7.8c-4-1.6-5.4,2.7-9.1,1.9s-7.5-2.4-11.1,0.7c-3.9,3.4-1.9,5.4-1.8,10.1
		c0.1,19-3,24.6-4.6,15.7c-0.2-1-2.9-1.6-3.6-5.7c-0.9-5.3-1.4-11.8-0.5-15.7c0.8-3.3,2.5-5.6,5.6-8.2c5-4.2,12.1-4.7,16.9-4.5
		S208.3,107.4,208.3,115.7z"/>
	<path class="st14" d="M175.9,136c-0.1-1.6-1.5-2.7-3.1-2.6c0,0-0.1,0-0.1,0c-2,0.3-4.1,1.6-3.7,5.6c0.7,7.2,7.8,5,7.8,4.8
		S176.2,139.1,175.9,136z"/>
	<path class="st15" d="M174.9,141.4c0,0-0.1,0.1-0.3,0.2c-0.3,0.2-0.6,0.2-0.9,0.1c-1-0.5-1.6-1.5-1.7-2.6c-0.1-0.6,0-1.2,0.2-1.8
		c0.1-0.5,0.4-0.9,0.9-1.1c0.3-0.1,0.6,0,0.8,0.3c0.1,0.2,0.1,0.3,0.1,0.4s0.1-0.1,0.1-0.4c-0.1-0.2-0.2-0.3-0.3-0.4
		c-0.2-0.1-0.5-0.2-0.7-0.1c-0.6,0.2-1.1,0.6-1.2,1.2c-0.2,0.6-0.3,1.3-0.3,2c0.2,1.4,1.1,2.7,2.1,2.9c0.4,0.1,0.8,0,1.1-0.3
		C174.9,141.5,174.9,141.4,174.9,141.4z"/>
	<path class="st5" d="M175.2,122.1c0.9,0.7,2,1.1,3.1,1.2c1.2,0.1,2.2-0.7,2.5-1.8c0-0.5-0.1-1.1,0.2-1.5s1.1-0.4,1.7-0.4
		c2.2,0,4.1-1.5,4.6-3.6c0.7,0.7,1.8,0.7,2.6,0.1c0.7-0.7,1.3-1.4,1.8-2.2c0.5-0.8,1.4-1.3,2.4-1.4c0.5,0.1,1.1,0.2,1.6,0.3
		c0.9-0.1,1.3-1.3,1.4-2.2s0.1-2,0.9-2.6s1.7-0.3,2.6-0.2s2-0.2,2.2-1.1c0-0.5-0.1-0.9-0.4-1.3c-1.3-1.7-3.6-2.3-5.6-1.4
		c-1.2-3.3-4.8-5-8.1-3.8c-1.6,0.6-2.9,1.8-3.6,3.3c-2.8-2.2-6.8-1.8-9.1,1c-0.5,0.6-0.8,1.3-1.1,2c-2.5-0.5-5,1.2-5.5,3.7
		c-0.2,1.2,0,2.4,0.6,3.4c-1.3,0.8-2.2,2.1-2.2,3.7c0.1,1.5,1.6,2.9,3,2.4c-0.6,1.3-0.1,2.8,1.2,3.5c1.3,0.6,2.8,0.1,3.5-1.2"/>
	<path class="st10" d="M197.5,106c0,0,0,0.1,0,0.1c0,0.1,0,0.3,0,0.4c-0.1,0.5-0.2,1-0.4,1.4c-0.4,0.7-0.9,1.3-1.5,1.8
		c-0.8,0.6-1.9,1-2.9,1l0.1-0.2c0.3,0.6,0.3,1.4,0,2c-0.3,0.7-0.7,1.3-1.1,1.8c-0.2,0.3-0.5,0.6-0.8,0.9c-0.3,0.3-0.7,0.4-1.1,0.5
		c-0.9,0.2-1.8-0.1-2.4-0.7l0.3-0.1c-0.1,1.5-0.9,2.9-2.1,3.9c-0.7,0.5-1.5,0.9-2.3,0.9c-0.8,0-1.6-0.1-2.4-0.4l0.2-0.1
		c-0.3,0.9-0.9,1.7-1.6,2.3c-0.7,0.6-1.6,0.9-2.5,0.8c-1.6-0.2-2.8-1.4-3.3-2.9l0.2,0.1c-0.7,0.5-1.6,0.6-2.5,0.5
		c-0.6-0.1-1.2-0.3-1.8-0.7c-0.3-0.2-0.6-0.5-0.9-0.8c-0.1-0.1-0.1-0.2-0.2-0.4c0.3,0.4,0.7,0.8,1.1,1.1c0.5,0.3,1.1,0.5,1.7,0.6
		c0.8,0.1,1.6-0.1,2.3-0.5l0.1-0.1v0.2c0.4,1.4,1.6,2.5,3.1,2.7c0.8,0.1,1.7-0.2,2.2-0.8c0.7-0.6,1.2-1.4,1.5-2.2v-0.1h0.1
		c0.7,0.2,1.5,0.4,2.3,0.4c0.8,0,1.5-0.3,2.1-0.9c1.1-0.9,1.8-2.2,1.9-3.7v-0.3l0.2,0.3c0.6,0.5,1.3,0.8,2.1,0.6
		c0.4-0.1,0.7-0.2,1-0.4c0.3-0.2,0.5-0.5,0.7-0.8c0.4-0.5,0.8-1.1,1.1-1.8c0.2-0.6,0.2-1.2,0-1.8l-0.1-0.2h0.2c1,0,2-0.3,2.8-0.9
		c0.6-0.5,1.1-1,1.5-1.7C197.1,107.3,197.4,106.6,197.5,106z"/>
	<path class="st6" d="M205.1,175.7c0,0,5.4,2.8,6.8,3.8s13,35.2,13,35.2l-0.1,44.3l15.2,51.5l-9.2,4.9l-6.7-28.4l-19.8-105.4
		L205.1,175.7z"/>
	<path class="st6" d="M175.2,156.9l-4.8,9.1l-21,16.3l14.5,85.1l-7.7,57.9l60.7-0.6c0,0,10-24.3,8-42.8S213,214.3,213,214.3
		C203.4,193.4,190.7,174,175.2,156.9z"/>
	<path class="st0" d="M175.6,157.3l0.6-4.1l24.3,19.9l3.4-5.8l1.4,8.3l-0.8,5.9c0,0,10.4,25.8,11.6,31.3s4.7,41.6,4.7,41.6l-20.7-57
		L175.6,157.3z"/>
	<path class="st5" d="M199.5,173.7c0.1,0-0.4,0.7-0.9,2.1c-0.7,1.9-1.1,3.9-1,5.9v0.6l-0.4-0.5c-1.9-2.5-4.2-5.6-7-8.7
		c-3.5-4.1-6.9-7.6-9.5-10.1l-3-2.9c-0.4-0.3-0.8-0.7-1.1-1.1c0.4,0.3,0.8,0.6,1.2,1c0.8,0.6,1.8,1.6,3.1,2.8
		c3.4,3.2,6.6,6.5,9.6,10c2.7,3.2,5.1,6.3,6.9,8.8l-0.4,0.1c0-2.1,0.4-4.1,1.2-6c0.2-0.5,0.5-1,0.8-1.5
		C199.2,174,199.4,173.9,199.5,173.7z"/>
	<path class="st5" d="M203.8,181.1c-1.1-2.1-1.8-4.3-2.3-6.6c0.6,1,1.1,2.1,1.4,3.2C203.3,178.8,203.6,180,203.8,181.1z"/>
	<path class="st5" d="M220.6,254.4c-0.1-0.3-0.2-0.5-0.3-0.8c-0.2-0.6-0.4-1.4-0.6-2.3l-2.3-8.6c-1.9-7.3-4.5-17.3-7.4-28.3
		s-5.4-21.1-7.3-28.4c-0.9-3.6-1.6-6.5-2.1-8.6c-0.2-1-0.4-1.8-0.6-2.4s-0.2-0.8-0.2-0.8c0.1,0.3,0.2,0.5,0.3,0.8
		c0.2,0.6,0.4,1.4,0.6,2.3l2.3,8.6c1.9,7.3,4.5,17.3,7.4,28.4s5.4,21.1,7.3,28.4l2.1,8.6c0.2,1,0.4,1.8,0.6,2.3
		C220.6,253.9,220.6,254.2,220.6,254.4z"/>
	<path class="st5" d="M218.9,249.5c-0.1-0.1-0.1-0.1-0.2-0.2l-0.4-0.6c-0.4-0.6-0.9-1.4-1.6-2.4l-5.9-8.9l-19.4-29.7l-0.1-0.1v-0.1
		l0.9-2.8l1.7-5.1l0.4,0.3l-5,3.4l-0.3,0.2l-0.1-0.3c-4.4-11.1-8.8-20.5-12.1-27.1c-1.7-3.3-3-5.9-4-7.7l-1.1-2.1l-0.3-0.5
		c0-0.1-0.1-0.2-0.1-0.2c0,0.1,0.1,0.1,0.1,0.2l0.3,0.5l1.2,2c1,1.8,2.4,4.4,4.1,7.7c3.4,6.6,7.9,16,12.3,27.1l-0.4-0.1l5-3.4
		l0.6-0.4l-0.2,0.7c-0.6,1.7-1.1,3.4-1.7,5.1c-0.3,0.9-0.6,1.9-0.9,2.8v-0.2l19.3,29.8l5.7,9l1.5,2.4l0.4,0.6L218.9,249.5z"/>
	<path class="st5" d="M205.9,281.7c0,0.2-0.1,0.4-0.1,0.5c-0.1,0.4-0.2,0.9-0.4,1.6c-0.4,1.5-0.9,3.6-1.5,6.2v0.1h-0.1
		c-6.9,0.4-17.9,1.1-30.1,1.8h-0.7h-0.4l0.1-0.4c1-2.5,2-4.9,3-7.3l0.3,0.3c-0.1-0.9,0-0.3-0.1-0.5h0.2h0.2h0.4l0.8-0.1l1.6-0.1
		l3.1-0.3l5.7-0.5l9.5-0.8l6.3-0.5l1.7-0.1C205.5,281.7,205.7,281.7,205.9,281.7c-0.2,0.1-0.4,0.1-0.6,0.1l-1.7,0.2l-6.3,0.6
		l-9.5,0.9l-5.7,0.5l-3.1,0.3l-1.6,0.1l-0.8,0.1h-0.4h-0.2h-0.2c0-0.2,0,0.5-0.1-0.5l0.3,0.3l-3,7.3l-0.2-0.3h0.8
		c12.3-0.7,23.2-1.2,30.1-1.6l-0.1,0.1c0.7-2.5,1.3-4.6,1.6-6c0.2-0.7,0.3-1.2,0.5-1.6S205.9,281.8,205.9,281.7z"/>
	<path class="st5" d="M220.3,251.6c0.2,0.5,0.3,1,0.4,1.6c0.2,1,0.5,2.5,0.9,4.3c0.7,3.6,1.5,8.6,2.2,14.2s1.1,10.6,1.4,14.3
		c0.1,1.8,0.2,3.3,0.2,4.4c0,0.5,0,1.1,0,1.6c-0.1-0.5-0.2-1.1-0.2-1.6c-0.1-1.1-0.2-2.6-0.4-4.3c-0.3-3.7-0.8-8.7-1.5-14.3
		s-1.5-10.6-2.1-14.2c-0.3-1.8-0.5-3.2-0.7-4.3C220.4,252.7,220.3,252.2,220.3,251.6z"/>
	<g class="st11">
		<path d="M164,268.7c4.8,3.4,10.6,2.9,16.2,1.1c9-2.9,17.9-6.1,26.8-9.5c2.9-1.1,6.1-2.7,6.8-5.7
			C196.7,259.9,180.9,263.4,164,268.7z"/>
	</g>
	<g class="st11">
		<polygon points="175.6,291.8 174.4,294.1 203.8,293 205.4,283.9 203.8,289.9 		"/>
	</g>
	<g class="st11">
		<polygon points="178.9,179.2 187.8,207.5 191.4,203.8 190,210.4 207.4,232.6 191.8,207.5 194.1,199.7 189.6,203 		"/>
	</g>
	<path class="st14" d="M221.5,217.4l-6.5,9.1l-1.4,5.2l-5.7,3.3l5.1,13.2l3.7-3.7l21.6-9.4l7.4-9c0,0-0.9-1.4-2-1.3s-6,4.1-6,4.1
		l-3.2,1.8l7.7-6.3c0,0,0.1-1-1.9-1.1s-7.9,3.4-7.9,3.4s-5.3,3.3-6.5,3.2s-5.5-1.1-5.4-2.6s2.4-3,2.7-4.8S224.1,218.6,221.5,217.4z"
		/>
	<path class="st6" d="M153.4,180.3c-3.3,0.7-6,3.2-6.8,6.5c-1,3.9-1.4,8-1.4,12c0.1,5.5,4.1,58.6,5.3,61.9c1.2,3.5,4.5,8.2,9.2,8.7
		c3.9,0.4,56-14.9,56-14.9l-8.5-21.7l-29.9,2c0,0-3-40.7-5.6-46.1C169.7,184.4,161,178.9,153.4,180.3z"/>
	<path class="st5" d="M171.9,190.2c-0.1,0-0.7-1.1-2.1-2.7c-0.8-0.9-1.7-1.8-2.7-2.5c-1.2-0.9-2.5-1.7-3.9-2.3
		c-1.4-0.6-2.8-1.1-4.3-1.5c-1.2-0.3-2.4-0.4-3.7-0.5c-2.1-0.1-3.4,0.2-3.4,0.1c0.3-0.1,0.6-0.2,0.9-0.2c0.4-0.1,0.7-0.1,1.1-0.1
		c0.5-0.1,1-0.1,1.4-0.1c1.3,0,2.5,0.1,3.8,0.4c3,0.6,5.9,2,8.3,3.9c1,0.8,1.9,1.7,2.7,2.6c0.3,0.4,0.6,0.7,0.9,1.1
		c0.2,0.3,0.4,0.6,0.6,0.9C171.6,189.6,171.8,189.9,171.9,190.2z"/>
	<path class="st5" d="M164,268.8l0.3-0.1l0.7-0.2l2.9-0.9l10.8-3.1l37-10.3l-0.2,0.3c-2-5.1-4.1-10.6-6.4-16.3
		c-0.7-1.8-1.4-3.6-2.1-5.4l0.2,0.2l-30.1,1.6H177v-0.2c-1.1-10.5-2-19.2-2.6-25.4c-0.3-3-0.5-5.4-0.7-7.1c-0.1-0.8-0.1-1.4-0.2-1.9
		c0-0.2,0-0.4,0-0.5s0-0.2,0-0.2s0,0.1,0,0.2l0.1,0.5c0.1,0.4,0.1,1.1,0.2,1.9c0.2,1.7,0.5,4.1,0.8,7.1c0.7,6.2,1.6,14.9,2.8,25.4
		l-0.2-0.2l30.1-1.7h0.2l0.1,0.2c0.7,1.8,1.4,3.6,2.1,5.4c2.2,5.6,4.3,11.1,6.3,16.3l0.1,0.2l-0.3,0.1l-37.1,10.2l-10.8,2.9
		l-2.9,0.8l-0.8,0.2C164.1,268.8,164.1,268.8,164,268.8z"/>
	<path class="st5" d="M177.4,234.8c0.1,0.1-1.4,2.2-3.1,4.9s-2.8,5.1-2.9,5c0.5-1.9,1.3-3.7,2.5-5.3
		C174.8,237.7,176,236.2,177.4,234.8z"/>
</g>
</svg>