<svg xmlns="http://www.w3.org/2000/svg" viewBox="0 0 226.36 226.36"><defs><style>.cls-1{fill:#fff;}.cls-2{fill:#749;}</style></defs><title>Asset 34</title><g id="Layer_2" data-name="Layer 2"><g id="Layer_1-2" data-name="Layer 1"><rect class="cls-1" width="226.36" height="226.36" rx="2"/><path class="cls-2" d="M204.13,36.49a2,2,0,0,0-.21-.28c-.42-.44-60.08,10.95-83.7,13.48-43.36,4.65-72.55,3.87-72.55,3.87-14.08-1.42-18.13,1.44-19,4.09-.85,2.45.76,5.39,4.22,7.68,5.16,3.42,11.33.78,18-.08,6-.77,83.77-12.15,114.91-16.58-18.55,11.84-46.52,37.77-56,89.64-1.31,9.15-6.76,33-16.15,33.14A41.1,41.1,0,0,1,84.15,170c-10-2.25-22.24-5-43.5,6.44,3.37-4.74,8-12.11,8.37-17.57.34-4.57-1.52-8.33-4.32-8.76-1.52-.25-5.29.29-7.49,10-3,13.54-12.48,26.54-12.58,26.67l-2.4,3.29L26,188.69c.57-.22,57.71-22,89.89-.32l2.27,1.53-.46-2.73c-.15-.86-13.5-84.13,50.25-133.32a41.58,41.58,0,0,1,11.6-6.25l24.12-8.44C203.82,38.27,204,37.38,204.13,36.49Z"/></g></g></svg>