<?xml version="1.0" encoding="utf-8"?>
<!-- Generator: Adobe Illustrator 24.0.1, SVG Export Plug-In . SVG Version: 6.00 Build 0)  -->
<svg version="1.1" id="Layer_1" xmlns="http://www.w3.org/2000/svg" xmlns:xlink="http://www.w3.org/1999/xlink" x="0px" y="0px"
	 viewBox="0 0 750 500" style="enable-background:new 0 0 750 500;" xml:space="preserve">
<style type="text/css">
	.st0{fill:#F5F5F5;}
	.st1{fill:#EBEBEB;}
	.st2{fill:#E0E0E0;}
	.st3{fill:#FFFFFF;}
	.st4{fill:#263238;}
	.st5{fill:#8A57A3;}
	.st6{opacity:0.1;}
	.st7{opacity:0.2;}
	.st8{opacity:0.3;}
	.st9{fill:#455A64;}
	.st10{opacity:0.6;}
	.st11{fill:#FFBF9D;}
	.st12{fill:#FF9A6C;}
</style>
<g id="freepik--background-complete--inject-8">
	<path class="st0" d="M392,77.6c3.6,24-13,46.3-37,49.9c-24,3.6-46.3-13-49.9-37c-3.6-24,13-46.3,37-49.9c0,0,0.1,0,0.1,0
		C366.2,37.1,388.5,53.6,392,77.6z"/>
	<path class="st1" d="M381.6,79.1c2.7,18.3-9.9,35.3-28.2,38c-18.3,2.7-35.3-9.9-38-28.2c-2.7-18.3,9.9-35.3,28.2-38c0,0,0,0,0.1,0
		C362,48.2,378.9,60.8,381.6,79.1C381.6,79.1,381.6,79.1,381.6,79.1z"/>
	<path class="st2" d="M381.5,78.1c-0.2,0-0.5-1.4-1.5-3.9c-1.3-3.5-3-6.7-5.3-9.6c-1.6-2-3.3-3.8-5.3-5.4c-2.2-1.8-4.7-3.3-7.3-4.5
		c-2.9-1.3-6-2.2-9.1-2.6c-1.7-0.2-3.3-0.3-5-0.3c-1.7,0-3.4,0.2-5.1,0.5c-1.7,0.3-3.4,0.7-5,1.3c-1.6,0.5-3.1,1.2-4.6,2
		c-1.4,0.7-2.8,1.6-4.1,2.6c-1.3,0.9-2.4,1.9-3.5,3c-2.1,2-3.8,4.3-5.3,6.8c-1.3,2.2-2.3,4.5-3.1,6.9c-1.1,3.5-1.7,7.2-1.7,10.8
		c0,2.6,0.2,4.1,0,4.1s-0.6-1.4-1-4.1c-0.4-3.8-0.1-7.7,0.9-11.4c1.5-5.6,4.4-10.7,8.5-14.8c1.2-1.2,2.4-2.3,3.8-3.3
		c1.4-1.1,2.8-2,4.4-2.8c1.6-0.9,3.2-1.6,5-2.2c1.8-0.6,3.6-1.1,5.4-1.4c1.8-0.3,3.7-0.5,5.5-0.5c1.8,0,3.6,0.1,5.4,0.3
		c3.4,0.5,6.7,1.5,9.7,3c2.8,1.3,5.4,3,7.7,5c2,1.8,3.8,3.7,5.3,5.9c2.2,3.1,3.9,6.7,4.8,10.4C381.6,76.5,381.6,78,381.5,78.1z"/>
	<path class="st2" d="M355.1,103.1l0.9,5.8l-5.1,0.8l-0.9-5.6c-5.1,0.5-10.3-0.3-13.5-2.1l1.8-6.7c3.3,1.6,6.9,2.3,10.6,2l-1.4-8.6
		c-5.9-0.5-12.6-1.3-13.8-8.7c-0.9-5.4,2.3-10.8,10.3-13l-0.9-5.7l5.1-0.8l0.9,5.6c3.7-0.4,7.5,0.1,10.9,1.5l-1.6,6.7
		c-2.6-1-5.5-1.5-8.3-1.4l1.4,8.7c5.9,0.4,12.5,1.3,13.6,8.6C366.2,95.6,363,100.8,355.1,103.1z M346.4,81.2l-1.2-7.3
		c-2.6,1.1-3.5,2.7-3.2,4.4S344,80.8,346.4,81.2L346.4,81.2z M357.2,92.2c-0.3-1.8-1.9-2.5-4.3-3l1.1,7.1
		C356.5,95.3,357.4,93.8,357.2,92.2L357.2,92.2z"/>
	<path class="st0" d="M491.5,58.4c-1.1,15.8-14.8,27.8-30.6,26.7S433,70.3,434.1,54.5c1.1-15.8,14.8-27.8,30.6-26.7c0,0,0,0,0.1,0
		C480.6,28.8,492.5,42.5,491.5,58.4z"/>
	<path class="st1" d="M484.6,57.9c-0.8,12.1-11.3,21.2-23.3,20.4c-12.1-0.8-21.2-11.3-20.4-23.3s11.3-21.2,23.3-20.4c0,0,0,0,0,0
		C476.3,35.4,485.4,45.8,484.6,57.9C484.6,57.9,484.6,57.9,484.6,57.9z"/>
	<path class="st2" d="M484.7,57.2c-0.2-0.9-0.4-1.8-0.4-2.7c-0.3-2.4-1-4.7-2-6.9c-0.7-1.5-1.6-2.9-2.6-4.2c-1.2-1.5-2.5-2.8-4-3.9
		c-1.7-1.2-3.5-2.2-5.5-2.9c-1-0.4-2.1-0.7-3.2-0.9c-1.1-0.2-2.2-0.3-3.4-0.4c-1.1,0-2.3,0-3.4,0.1c-1.1,0.1-2.2,0.3-3.2,0.6
		c-2,0.6-3.9,1.4-5.7,2.5c-1.6,1-3.1,2.2-4.4,3.6c-1.1,1.2-2.1,2.6-2.9,4c-1.2,2.1-2.1,4.3-2.6,6.7c-0.1,0.9-0.3,1.8-0.6,2.6
		c-0.2-0.9-0.2-1.8,0-2.7c0.2-2.5,0.9-5,2.1-7.2c0.8-1.6,1.8-3,3-4.3c2.1-2.3,4.6-4.2,7.4-5.5c1-0.5,2.1-0.9,3.2-1.2
		c1.1-0.3,2.3-0.6,3.5-0.7c1.2-0.1,2.4-0.2,3.6-0.2c1.2,0.1,2.4,0.2,3.6,0.4c1.2,0.2,2.3,0.6,3.4,1c1.1,0.4,2.1,0.9,3.1,1.4
		c1,0.5,1.9,1.1,2.7,1.8c1.6,1.2,3,2.7,4.2,4.3c1,1.4,1.9,2.9,2.6,4.5c1,2.3,1.5,4.8,1.6,7.3C485.1,55.4,485,56.3,484.7,57.2z"/>
	<path class="st2" d="M464.3,69.6l-0.2,3.8l-3.4-0.2l0.2-3.7c-3-0.3-5.9-1.4-8.3-3.2l2.1-4c1.9,1.5,4.1,2.4,6.5,2.7l0.3-5.7
		c-3.7-1.1-7.9-2.6-7.6-7.5c0.2-3.6,3-6.5,8.4-6.9l0.2-3.8l3.4,0.2l-0.2,3.7c2.4,0.3,4.8,1.1,6.8,2.5l-1.9,4.1
		c-1.5-1-3.3-1.7-5.1-2.1l-0.3,5.8c3.7,1.1,7.8,2.6,7.5,7.4C472.5,66.3,469.7,69.2,464.3,69.6z M461.8,54.3l0.2-4.8
		c-1.8,0.3-2.6,1.3-2.7,2.4S460.3,53.8,461.8,54.3z M467.2,62.9c0.1-1.2-0.9-1.9-2.3-2.5l-0.3,4.7C466.3,64.8,467.1,63.9,467.2,62.9
		z"/>
	<path class="st2" d="M102.7,72.3c6.4-23.9,30.9-38.1,54.8-31.7s38.1,30.9,31.7,54.8c-2.4,9-7.6,17.1-14.8,23l0,0
		c-19.1,15.7-47.3,13-63-6.1C102.2,101.2,98.9,86.3,102.7,72.3z M186.2,94.7c5.9-22.3-7.3-45.1-29.6-51.1s-45.1,7.3-51.1,29.6
		s7.3,45.1,29.6,51.1c13,3.5,26.9,0.4,37.3-8.1C179.2,110.6,184,103.1,186.2,94.7L186.2,94.7z"/>
	<path class="st0" d="M101.7,70.1c6.4-23.9,30.9-38,54.8-31.7s38,30.9,31.7,54.8c-2.4,9-7.6,17.1-14.8,23l0,0
		c-19.1,15.7-47.3,12.9-63-6.1C101.2,99,98,84.1,101.7,70.1z M185.3,92.5c5.9-22.3-7.3-45.1-29.6-51.1s-45.1,7.3-51.1,29.6
		s7.3,45.1,29.6,51.1c13,3.5,26.9,0.4,37.3-8.1C178.2,108.4,183,100.9,185.3,92.5z"/>
	<path class="st0" d="M68.3,152.1l-0.7-0.8c-1.5-1.7-2-3.7-1-4.6l42.9-39c0.2-0.2,0.7,0,1,0.3l5,5.5c0.3,0.4,0.4,0.8,0.2,1l-42.9,39
		C71.8,154.4,69.8,153.7,68.3,152.1z"/>
	<path class="st2" d="M129.2,51c0.3-0.3,0.7-0.5,1.1-0.7c0.4-0.3,0.9-0.5,1.4-0.7c0.6-0.3,1.2-0.6,1.9-0.9c1.7-0.7,3.4-1.3,5.1-1.7
		c2.1-0.5,4.3-0.8,6.5-0.9c2.2-0.1,4.4,0,6.6,0.3c1.8,0.3,3.5,0.7,5.3,1.2c0.7,0.2,1.4,0.5,2,0.7c0.5,0.2,1,0.4,1.4,0.6
		c0.4,0.2,0.8,0.4,1.2,0.6c0,0.1-1.7-0.7-4.7-1.6c-1.7-0.5-3.4-0.9-5.2-1.1c-4.3-0.6-8.7-0.4-12.9,0.6c-1.8,0.4-3.5,0.9-5.1,1.5
		C130.9,50.1,129.3,51.1,129.2,51z"/>
	<path class="st2" d="M169.5,54.3c-0.9-0.2-1.7-0.6-2.4-1.2c-0.8-0.4-1.5-1-2.1-1.6c0.9,0.2,1.7,0.6,2.4,1.2
		C168.6,53.5,169.6,54.2,169.5,54.3z"/>
	<path class="st1" d="M656.4,152.6l-41.1-20c-2.8-1.4-4-4.8-2.6-7.6c0,0,0,0,0,0l27.7-57c1.4-2.8,4.8-4,7.6-2.6l26.1,12.7l10,30.6
		l-20,41.3C662.7,152.8,659.3,154,656.4,152.6z"/>
	<path class="st2" d="M674.1,78.1l-7.8,16c-1.3,2.6-0.2,5.8,2.5,7.1l15.4,7.5L674.1,78.1z"/>
	<path class="st3" d="M663.2,91.8c-0.1,0.2-4.4-1.7-9.7-4.3s-9.4-4.8-9.3-5s4.4,1.7,9.7,4.3S663.3,91.6,663.2,91.8z"/>
	<path class="st3" d="M671,106.8c-0.1,0.2-7.2-3-15.8-7.3s-15.6-7.8-15.5-8s7.2,3,15.8,7.3S671.2,106.6,671,106.8z"/>
	<path class="st3" d="M670.2,115.7c-0.1,0.2-7.8-3.3-17.2-7.9s-17-8.5-16.9-8.7s7.8,3.3,17.3,7.9S670.3,115.5,670.2,115.7z"/>
	<path class="st3" d="M666.7,122.9c-0.1,0.2-7.8-3.3-17.3-7.9s-17-8.5-16.9-8.7s7.8,3.3,17.2,7.9S666.8,122.7,666.7,122.9z"/>
	<path class="st3" d="M663.2,130c-0.1,0.2-7.8-3.3-17.2-7.9s-17-8.5-16.9-8.7s7.8,3.3,17.3,7.9S663.3,129.8,663.2,130z"/>
	<path class="st3" d="M659.8,137.1c-0.1,0.2-7.8-3.4-17.3-7.9s-17-8.5-16.9-8.7s7.8,3.3,17.3,7.9S659.9,136.9,659.8,137.1z"/>
	<path class="st2" d="M148.1,197.9c-2.5-0.6-4-3-3.4-5.5l8.9-38.8c0.5-2,2.6-3.2,4.6-2.7c0,0,0,0,0,0l3.6,0.8c1.5,0.4,3-0.1,4-1.3
		l1.1-1.4c1-1.1,2.5-1.6,3.9-1.3l17.3,4c1.3,0.3,2.4,1.2,2.9,2.5l0.5,1.5c0.5,1.3,1.6,2.2,2.9,2.5l22.1,5.1c2.1,0.4,3.4,2.4,3,4.4
		c0,0,0,0,0,0l-9.1,39.7c-0.6,2.5-3,4-5.5,3.4L148.1,197.9z"/>
	<path class="st1" d="M192.2,157.9l-14-3.3l-0.7-2.6c-0.5-1.8-1.9-3.1-3.7-3.5l-13.8-3.2c-2.3-0.6-4.8,0.8-5.4,3.1l-0.4,1.6
		l-9.7,42.1c-0.5,2.7,1.2,5.3,3.9,5.9l55.7,12.8c2.7,0.7,5.4-0.9,6.1-3.6l9.2-39.8c0.4-1.8-0.7-3.5-2.5-3.9c0,0,0,0,0,0L192.2,157.9
		z"/>
	
		<rect x="175.9" y="162.6" transform="matrix(0.2244 -0.9745 0.9745 0.2244 -33.0281 317.726)" class="st3" width="14.3" height="34"/>
	<path class="st2" d="M194.8,181.4c0,0.1-5.1-1-11.4-2.4s-11.4-2.7-11.4-2.9s5.2,0.9,11.4,2.4S194.8,181.3,194.8,181.4z"/>
	<path class="st2" d="M194.1,184.4c0,0.1-5.2-1-11.4-2.4s-11.4-2.7-11.3-2.9s5.1,1,11.4,2.4S194.1,184.3,194.1,184.4z"/>
</g>
<g id="freepik--Floor--inject-8">
	<path class="st4" d="M697.2,474.2c0,0.1-149.6,0.3-334.2,0.3s-334.2-0.1-334.2-0.3s149.6-0.3,334.2-0.3S697.2,474,697.2,474.2z"/>
</g>
<g id="freepik--Coins--inject-8">
	<path class="st5" d="M714.3,184.7c-1.7,11.6-12.6,19.6-24.1,17.8c-11.6-1.7-19.6-12.6-17.8-24.1c1.7-11.6,12.6-19.6,24.1-17.8
		c0,0,0,0,0,0C708.1,162.3,716,173.1,714.3,184.7C714.3,184.7,714.3,184.7,714.3,184.7z"/>
	<g class="st6">
		<path class="st3" d="M696.5,160.5c-11.6-1.7-22.4,6.2-24.1,17.8c0,0,14.6,2.9,19.1-2.5S696.5,160.5,696.5,160.5z"/>
	</g>
	<path class="st5" d="M709,183.5c-1.3,8.8-9.5,14.9-18.3,13.5c-8.8-1.3-14.9-9.5-13.5-18.3c1.3-8.8,9.5-14.9,18.3-13.5
		C704.3,166.5,710.3,174.7,709,183.5C709,183.5,709,183.5,709,183.5z"/>
	<g class="st7">
		<path d="M709,183.5c-1.3,8.8-9.5,14.9-18.3,13.5c-8.8-1.3-14.9-9.5-13.5-18.3c1.3-8.8,9.5-14.9,18.3-13.5
			C704.3,166.5,710.3,174.7,709,183.5C709,183.5,709,183.5,709,183.5z"/>
	</g>
	<path class="st5" d="M709.3,184.3c-1.3,8.7-9.4,14.7-18.1,13.3c-8.7-1.3-14.7-9.4-13.3-18.1s9.4-14.7,18.1-13.3c0,0,0,0,0,0
		C704.7,167.5,710.6,175.6,709.3,184.3z"/>
	<g class="st7">
		<path class="st3" d="M709.3,184.3c-1.3,8.7-9.4,14.7-18.1,13.3c-8.7-1.3-14.7-9.4-13.3-18.1s9.4-14.7,18.1-13.3c0,0,0,0,0,0
			C704.7,167.5,710.6,175.6,709.3,184.3z"/>
	</g>
	<path class="st5" d="M694.4,180.6l0.6-4l0,0c0.7,0.2,1.4,0.5,2.1,0.9c0.3,0.2,0.6,0.5,0.9,0.8l0.1-0.1l0.8-1.4l0.2-0.3l-0.6-0.9
		l-0.4,0.1c-0.8-0.6-1.8-1-2.8-1.3l0.3-2.2l-0.6-0.7l-0.1,0.6L694,172l-0.3,2.3c-3.2-0.2-4.9,1.4-5.2,3.4c-0.4,2.8,1.8,3.9,4,4.7
		l-0.6,4c-1.4-0.3-2.7-1.1-3.8-2.1l-1.2,1.9c1.3,1.2,2.9,2.1,4.6,2.4l-0.3,1.7l-0.8-0.1l0.7,0.6l1.6,0.3l0.3-2.2
		c3.2,0.1,4.9-1.4,5.2-3.4C698.9,182.6,696.6,181.5,694.4,180.6z M692.8,179.9c-1.1-0.5-1.9-1.1-1.8-2s0.8-1.5,2.3-1.5L692.8,179.9z
		 M693.5,186.6l0.5-3.5c1.2,0.5,2,1.1,1.8,2.1S695,186.6,693.5,186.6L693.5,186.6z"/>
	<g class="st8">
		<path d="M694.4,180.6l0.6-4l0,0c0.7,0.2,1.4,0.5,2.1,0.9c0.3,0.2,0.6,0.5,0.9,0.8l0.1-0.1l0.8-1.4l0.2-0.3l-0.6-0.9l-0.4,0.1
			c-0.8-0.6-1.8-1-2.8-1.3l0.3-2.2l-0.6-0.7l-0.1,0.6L694,172l-0.3,2.3c-3.2-0.2-4.9,1.4-5.2,3.4c-0.4,2.8,1.8,3.9,4,4.7l-0.6,4
			c-1.4-0.3-2.7-1.1-3.8-2.1l-1.2,1.9c1.3,1.2,2.9,2.1,4.6,2.4l-0.3,1.7l-0.8-0.1l0.7,0.6l1.6,0.3l0.3-2.2c3.2,0.1,4.9-1.4,5.2-3.4
			C698.9,182.6,696.6,181.5,694.4,180.6z M692.8,179.9c-1.1-0.5-1.9-1.1-1.8-2s0.8-1.5,2.3-1.5L692.8,179.9z M693.5,186.6l0.5-3.5
			c1.2,0.5,2,1.1,1.8,2.1S695,186.6,693.5,186.6L693.5,186.6z"/>
	</g>
	<path class="st5" d="M692.6,188.1l-0.3,2.2l-1.6-0.2l0.3-2.2c-1.7-0.3-3.4-1.1-4.6-2.4l1.2-1.9c1,1,2.3,1.8,3.8,2.1l0.6-4
		c-2.1-0.9-4.4-2-4-4.7c0.3-2,2-3.6,5.2-3.4l0.3-2.3l1.6,0.2l-0.3,2.2c1.4,0.3,2.7,0.9,3.9,1.8l-1.1,1.9c-0.9-0.7-2-1.3-3.1-1.6
		l-0.6,4c2.1,0.9,4.4,1.9,4,4.7C697.5,186.7,695.8,188.2,692.6,188.1z M692.3,179.3l0.5-3.6c-1.5,0-2.2,0.6-2.3,1.5
		S691.2,178.8,692.3,179.3z M695.3,184.5c0.2-1-0.7-1.6-1.8-2.1l-0.5,3.5C694.4,185.9,695.1,185.3,695.3,184.5L695.3,184.5z"/>
	<path class="st3" d="M689,178.9c-0.2-0.1-0.3-0.3-0.4-0.5c-0.5-1-0.3-2.2,0.5-3c0.2-0.2,0.3-0.3,0.6-0.4c0,0-0.2,0.1-0.5,0.4
		c-0.4,0.4-0.6,0.8-0.7,1.3c-0.1,0.5,0,1,0.2,1.5C688.9,178.7,689,178.9,689,178.9z"/>
	<path class="st3" d="M693.5,173.3c0-0.2,0-0.4,0-0.7c0-0.2,0.1-0.4,0.2-0.6c0,0.2,0,0.4,0,0.7C693.7,172.9,693.6,173.1,693.5,173.3
		z"/>
	<path class="st5" d="M652.2,196.2c0.9,5.6-2.9,10.9-8.6,11.8c-5.6,0.9-10.9-2.9-11.8-8.6c-0.9-5.6,2.9-10.9,8.5-11.8
		C646,186.7,651.3,190.6,652.2,196.2z"/>
	<g class="st6">
		<path class="st3" d="M640.4,187.6c-5.6,0.9-9.4,6.2-8.6,11.8c0,0,0,0,0,0c0,0,7.2-0.8,8.5-4S640.4,187.6,640.4,187.6z"/>
	</g>
	<path class="st5" d="M649.6,196.4c0.7,4.3-2.2,8.3-6.5,9c-4.3,0.7-8.3-2.2-9-6.5c-0.7-4.3,2.2-8.3,6.5-9
		C644.8,189.2,648.9,192.1,649.6,196.4C649.6,196.4,649.6,196.4,649.6,196.4z"/>
	<g class="st7">
		<path d="M649.6,196.4c0.7,4.3-2.2,8.3-6.5,9c-4.3,0.7-8.3-2.2-9-6.5c-0.7-4.3,2.2-8.3,6.5-9C644.8,189.2,648.9,192.1,649.6,196.4
			C649.6,196.4,649.6,196.4,649.6,196.4z"/>
	</g>
	<path class="st5" d="M649.8,196.7c0.7,4.2-2.2,8.2-6.4,8.8c-4.2,0.7-8.2-2.2-8.8-6.4c-0.7-4.2,2.2-8.2,6.4-8.8c0,0,0,0,0,0
		C645.2,189.6,649.2,192.5,649.8,196.7z"/>
	<g class="st7">
		<path class="st3" d="M649.8,196.7c0.7,4.2-2.2,8.2-6.4,8.8c-4.2,0.7-8.2-2.2-8.8-6.4c-0.7-4.2,2.2-8.2,6.4-8.8c0,0,0,0,0,0
			C645.2,189.6,649.2,192.5,649.8,196.7z"/>
	</g>
	<path class="st5" d="M642.4,197.2l-0.3-2l0,0c0.4,0,0.7,0,1.1,0.1c0.2,0.1,0.4,0.1,0.5,0.2v-0.1l0.2-0.8v-0.2l-0.4-0.3l-0.2,0.1
		c-0.5-0.2-1-0.2-1.5-0.2l-0.2-1.1l-0.4-0.2v0.3l-0.5,0.1l0.2,1.1c-1.5,0.4-2.1,1.4-1.9,2.4c0.2,1.3,1.4,1.5,2.5,1.6l0.3,1.9
		c-0.7,0.1-1.4-0.1-2-0.4l-0.3,1.1c0.8,0.4,1.6,0.5,2.5,0.4l0.1,0.8l-0.4,0.1l0.4,0.2l0.8-0.1l-0.2-1.1c1.5-0.4,2.1-1.4,1.9-2.4
		C644.7,197.5,643.5,197.3,642.4,197.2z M641.6,197.1c-0.6-0.1-1-0.2-1.1-0.7s0.2-0.8,0.8-1L641.6,197.1z M642.9,200.1l-0.3-1.7
		c0.6,0.1,1.1,0.2,1.1,0.7S643.5,199.9,642.9,200.1L642.9,200.1z"/>
	<g class="st8">
		<path d="M642.4,197.2l-0.3-2l0,0c0.4,0,0.7,0,1.1,0.1c0.2,0.1,0.4,0.1,0.5,0.2v-0.1l0.2-0.8v-0.2l-0.4-0.3l-0.2,0.1
			c-0.5-0.2-1-0.2-1.5-0.2l-0.2-1.1l-0.4-0.2v0.3l-0.5,0.1l0.2,1.1c-1.5,0.4-2.1,1.4-1.9,2.4c0.2,1.3,1.4,1.5,2.5,1.6l0.3,1.9
			c-0.7,0.1-1.4-0.1-2-0.4l-0.3,1.1c0.8,0.4,1.6,0.5,2.5,0.4l0.1,0.8l-0.4,0.1l0.4,0.2l0.8-0.1l-0.2-1.1c1.5-0.4,2.1-1.4,1.9-2.4
			C644.7,197.5,643.5,197.3,642.4,197.2z M641.6,197.1c-0.6-0.1-1-0.2-1.1-0.7s0.2-0.8,0.8-1L641.6,197.1z M642.9,200.1l-0.3-1.7
			c0.6,0.1,1.1,0.2,1.1,0.7S643.5,199.9,642.9,200.1L642.9,200.1z"/>
	</g>
	<path class="st5" d="M642.7,200.9l0.2,1.1l-0.8,0.1l-0.2-1.1c-0.9,0.1-1.7,0-2.5-0.4l0.3-1.1c0.6,0.3,1.3,0.5,2,0.4l-0.3-1.9
		c-1.1-0.1-2.3-0.3-2.5-1.6c-0.2-1,0.4-2,1.9-2.4l-0.2-1.1l0.8-0.1l0.2,1.1c0.7-0.1,1.4,0,2.1,0.3l-0.2,1c-0.5-0.2-1.1-0.3-1.7-0.3
		l0.3,2c1.1,0.1,2.3,0.2,2.5,1.6C644.7,199.6,644.2,200.5,642.7,200.9z M641.2,196.9l-0.3-1.7c-0.7,0.2-0.9,0.6-0.8,1
		S640.6,196.9,641.2,196.9L641.2,196.9z M643.4,198.9c-0.1-0.5-0.5-0.6-1.1-0.7l0.3,1.7C643.2,199.7,643.4,199.3,643.4,198.9
		L643.4,198.9z"/>
	<path class="st3" d="M639.7,197.2c0,0-0.1,0-0.3-0.2c-0.2-0.2-0.3-0.4-0.3-0.7c0-0.3,0-0.5,0.2-0.8c0.1-0.1,0.1-0.2,0.2-0.3
		c0,0-0.1,0.1-0.2,0.3c-0.1,0.2-0.1,0.5-0.1,0.7c0,0.2,0.1,0.5,0.3,0.7C639.5,197.1,639.7,197.2,639.7,197.2z"/>
	<path class="st3" d="M640.9,194c0,0-0.1-0.1-0.1-0.3c0-0.1,0-0.2,0-0.3c0.1,0.1,0.1,0.2,0.1,0.3C640.9,193.8,640.9,193.9,640.9,194
		z"/>
</g>
<g id="freepik--ring-binder--inject-8">
	<polygon class="st5" points="224.6,98.7 218.3,135.4 218.3,474.2 523.3,474.2 523.3,452.6 	"/>
	<path class="st5" d="M224.6,98.7H518c6.7,0,12.2,5.5,12.2,12.2v0v333.8c0,6.7-5.5,12.2-12.2,12.2l0,0H224.6l0,0V98.7L224.6,98.7z"
		/>
	<path class="st4" d="M518,457.4H224V98.2h294c7,0,12.7,5.7,12.7,12.7v333.8C530.7,451.7,525,457.4,518,457.4z M225,456.4h293
		c6.5,0,11.7-5.2,11.7-11.7V110.9c0-6.5-5.2-11.7-11.7-11.7H225V456.4z"/>
	<polygon class="st2" points="497.2,109 514.2,137.2 514.2,446.3 250.3,443.7 235.9,428.7 	"/>
	<rect x="235.9" y="107.6" class="st3" width="261.4" height="321.1"/>
	<g>
		<path d="M277.8,127.4h2.2l3,7.1l3-7.1h2.2v9.5h-1.9v-6.2l-2.6,6.2h-1.4l-2.6-6.2v6.2h-1.9V127.4z"/>
		<path d="M296,135.1h-3.8l-0.6,1.8h-2l3.4-9.5h2.2l3.4,9.5h-2L296,135.1z M294.1,129.6l-1.4,4h2.8L294.1,129.6z"/>
		<path d="M303.5,127.4c2.3,0,3.4,1.3,3.4,2.9c0,1.2-0.6,2.3-2.2,2.7l2.3,3.9h-2.2l-2.1-3.7h-0.9v3.7h-1.9v-9.5H303.5z M303.4,129
			h-1.6v2.8h1.6c1.1,0,1.5-0.6,1.5-1.4C305,129.5,304.5,129,303.4,129z"/>
		<path d="M310.6,132.7v4.2h-1.9v-9.5h1.9v4.3l3.5-4.3h2.3l-3.9,4.7l4,4.8H314L310.6,132.7z"/>
		<path d="M323.3,129h-3.6v2.4h3.2v1.5h-3.2v2.5h3.6v1.6h-5.5v-9.5h5.5V129z"/>
		<path d="M324.5,127.4h7v1.5h-2.5v8H327v-8h-2.5V127.4z"/>
		<path d="M332.9,127.4h1.9v9.5h-1.9V127.4z"/>
		<path d="M344.8,127.4v9.5h-1.9l-4.3-6.5v6.5h-1.9v-9.5h1.9l4.3,6.6v-6.6H344.8z"/>
		<path d="M355.6,130.3h-2.2c-0.4-0.8-1.2-1.2-2.2-1.2c-1.7,0-2.9,1.2-2.9,3.1c0,1.9,1.2,3.1,3,3.1c1.5,0,2.4-0.8,2.7-2.2h-3.3v-1.5
			h5.2v1.7c-0.4,1.9-2.1,3.7-4.7,3.7c-2.8,0-4.9-2-4.9-4.9c0-2.9,2.1-4.9,4.9-4.9C353.2,127.3,354.9,128.4,355.6,130.3z"/>
		<path d="M363.8,137c-2,0-3.5-1-3.5-2.8h2c0.1,0.8,0.6,1.3,1.4,1.3c0.9,0,1.4-0.5,1.4-1.2c0-2.1-4.9-0.8-4.9-4.3
			c0-1.7,1.4-2.8,3.4-2.8c2,0,3.3,1,3.4,2.7h-2.1c0-0.6-0.5-1.1-1.4-1.1c-0.8,0-1.3,0.3-1.3,1.1c0,1.9,4.9,0.8,4.9,4.2
			C367.1,135.7,365.9,137,363.8,137z"/>
		<path d="M368.3,127.4h7v1.5h-2.5v8h-1.9v-8h-2.5V127.4z"/>
		<path d="M380.2,127.4c2.3,0,3.4,1.3,3.4,2.9c0,1.2-0.6,2.3-2.2,2.7l2.3,3.9h-2.2l-2.1-3.7h-0.9v3.7h-1.9v-9.5H380.2z M380.2,129
			h-1.6v2.8h1.6c1.1,0,1.5-0.6,1.5-1.4C381.7,129.5,381.2,129,380.2,129z"/>
		<path d="M391.3,135.1h-3.8l-0.6,1.8h-2l3.4-9.5h2.2l3.4,9.5h-2L391.3,135.1z M389.4,129.6l-1.4,4h2.8L389.4,129.6z"/>
		<path d="M394.7,127.4h7v1.5h-2.5v8h-1.9v-8h-2.5V127.4z"/>
		<path d="M408.6,129H405v2.4h3.2v1.5H405v2.5h3.6v1.6h-5.5v-9.5h5.5V129z"/>
		<path d="M419.2,130.3H417c-0.4-0.8-1.2-1.2-2.2-1.2c-1.7,0-2.9,1.2-2.9,3.1c0,1.9,1.2,3.1,3,3.1c1.5,0,2.4-0.8,2.7-2.2h-3.3v-1.5
			h5.2v1.7c-0.4,1.9-2.1,3.7-4.7,3.7c-2.8,0-4.9-2-4.9-4.9c0-2.9,2.1-4.9,4.9-4.9C416.9,127.3,418.6,128.4,419.2,130.3z"/>
		<path d="M420.1,127.4h2.2l2,4.4l2-4.4h2.1l-3.2,6.2v3.3h-1.9v-3.3L420.1,127.4z"/>
	</g>
	<path class="st4" d="M497.2,428.7c0-2-0.1-130.1-0.2-321.1l0.2,0.2H235.9l0,0l0.3-0.3c0,118.8,0,229.3,0,321.1l-0.2-0.2
		L497.2,428.7L235.9,429h-0.2v-0.2c0-91.8,0-202.3,0-321.1v-0.3h0.3h261.3h0.2v0.2C497.3,298.6,497.2,426.7,497.2,428.7z"/>
	<path class="st4" d="M268,215.8c0,3.6-2.7,6.5-5.9,6.5s-5.9-2.9-5.9-6.5s2.6-6.5,5.9-6.5S268,212.2,268,215.8z"/>
	<g class="st8">
		<polygon points="224.6,261.9 235.9,261.9 235.9,252.1 224.6,252.1 		"/>
	</g>
	<path class="st2" d="M230,183.4c-19.7,0-35.6,15.6-35.6,34.7s16.2,34.7,35.8,34.7h5.7l-0.1-8.2l-5.6,0.2c-15.6,0-28.6-12-28.6-26.7
		s12.7-26.7,28.4-26.7s28.4,12,28.4,26.7c-0.2,2,1.2,3.8,3.2,4s3.8-1.2,4-3.2c0-0.3,0-0.5,0-0.8C265.7,199,249.7,183.4,230,183.4z"
		/>
	<path class="st4" d="M230,183.4c0,0,0.3,0,0.8,0l2.5,0.1c1.1,0.1,2.4,0.3,4,0.6c1.8,0.4,3.6,0.9,5.3,1.5c4.8,1.7,9.1,4.4,12.7,7.9
		l1.5,1.6c0.3,0.3,0.5,0.6,0.8,0.8l0.7,0.9c0.5,0.6,1,1.3,1.4,1.9l1.3,2.1c1.8,3.1,3.1,6.4,3.9,9.8c0.4,1.9,0.6,3.8,0.7,5.7
		c0.1,1,0.1,2-0.1,3c-0.3,1-1,1.9-1.9,2.4c-1,0.5-2.1,0.6-3.1,0.1c-1-0.5-1.8-1.3-2.1-2.4c-0.2-0.5-0.3-1.1-0.3-1.6l-0.1-1.6
		c-0.1-1.1-0.2-2.1-0.4-3.2c-0.9-4.4-2.9-8.5-5.9-11.9c-2.4-2.6-5.2-4.8-8.3-6.5c-0.5-0.3-1.1-0.5-1.6-0.8c-0.5-0.3-1.1-0.5-1.7-0.7
		l-1.7-0.6c-0.6-0.2-1.2-0.3-1.8-0.4c-1.2-0.3-2.4-0.5-3.6-0.6c-2.5-0.2-5-0.2-7.5,0.2c-1.3,0.2-2.5,0.4-3.8,0.8
		c-0.6,0.2-1.2,0.4-1.8,0.6l-0.9,0.3l-0.9,0.4c-2.4,1-4.6,2.4-6.7,4.1c-2.1,1.7-3.9,3.7-5.4,5.9c-1.5,2.2-2.7,4.7-3.4,7.3
		c-0.8,2.6-1.1,5.4-0.9,8.1c0.1,2.8,0.8,5.5,1.9,8.1c2.6,6.1,7.4,11.1,13.4,13.9c2.9,1.4,6,2.3,9.2,2.7c1.6,0.2,3.1,0.3,4.7,0.2
		l4.7-0.2h0.3v0.3c0,2.8,0,5.5,0.1,8.2v0.3h-0.3c-2.1,0-4.2,0-6.3,0l-3.1-0.2l-3.1-0.5c-3.9-0.8-7.7-2.1-11.2-4.1
		c-0.8-0.5-1.7-0.9-2.5-1.5l-2.3-1.7l-2.1-1.9c-0.4-0.3-0.7-0.6-1-1l-1-1c-2.5-2.7-4.5-5.7-6-9c-0.4-0.8-0.6-1.6-1-2.4l-0.5-1.2
		l-0.3-1.3c-0.2-0.8-0.5-1.6-0.6-2.5s-0.3-1.7-0.4-2.5c-0.4-3.2-0.3-6.4,0.2-9.6c0.2-1.5,0.6-3,1-4.4c0.2-0.7,0.4-1.4,0.7-2.1
		c0.3-0.7,0.5-1.4,0.8-2c0.6-1.3,1.3-2.5,2-3.7c0.4-0.6,0.7-1.1,1.1-1.7s0.8-1.1,1.2-1.6c2.8-3.7,6.4-6.7,10.4-9
		c0.4-0.3,0.9-0.5,1.3-0.7l1.3-0.6c0.8-0.4,1.6-0.8,2.5-1.1l2.3-0.8c0.8-0.2,1.5-0.4,2.2-0.6c1.2-0.3,2.4-0.5,3.7-0.7
		c0.5-0.1,1-0.2,1.5-0.2l1.2-0.1l1.7-0.1h0.6l-0.6,0.1l-1.7,0.1l-1.2,0.1c-0.5,0-0.9,0.1-1.5,0.2c-1.2,0.2-2.5,0.4-3.6,0.7
		c-0.7,0.2-1.4,0.3-2.1,0.6L217,186c-0.9,0.3-1.7,0.6-2.5,1l-1.3,0.6c-0.4,0.2-0.8,0.5-1.3,0.7c-4,2.3-7.5,5.4-10.3,9
		c-0.4,0.5-0.8,1-1.2,1.6l-1.1,1.7c-0.7,1.2-1.4,2.4-1.9,3.7c-0.3,0.6-0.5,1.3-0.8,2c-0.3,0.7-0.5,1.4-0.7,2.1
		c-0.4,1.4-0.8,2.9-1,4.4c-0.5,3.1-0.6,6.3-0.2,9.5c0.1,0.8,0.3,1.6,0.4,2.5c0.1,0.8,0.4,1.6,0.6,2.4l0.3,1.2l0.5,1.2
		c0.3,0.8,0.6,1.6,1,2.4c1.5,3.3,3.5,6.3,6,8.9l1,1c0.3,0.4,0.6,0.7,1,1l2.1,1.9l2.3,1.7c0.8,0.6,1.6,1,2.5,1.5
		c3.5,1.9,7.2,3.3,11.1,4l3,0.4l3.1,0.2c2.1,0.1,4.1,0,6.3,0l-0.3,0.3c0-2.7-0.1-5.4-0.1-8.2l0.3,0.3l-4.7,0.2c-0.8,0-1.6,0-2.4,0
		c-0.8,0-1.6-0.1-2.4-0.2c-3.3-0.4-6.5-1.3-9.4-2.7c-6.1-2.9-11-8-13.7-14.2c-1.1-2.6-1.8-5.4-1.9-8.2c-0.2-2.8,0.1-5.6,0.9-8.3
		c0.7-2.7,1.9-5.2,3.4-7.5c1.5-2.3,3.3-4.3,5.4-6c2.1-1.7,4.3-3.1,6.8-4.1l0.9-0.4l0.9-0.3c0.6-0.2,1.2-0.4,1.9-0.6
		c1.2-0.3,2.5-0.6,3.8-0.8c2.5-0.4,5.1-0.4,7.6-0.2c1.2,0.1,2.5,0.3,3.7,0.6c0.6,0.1,1.2,0.3,1.8,0.4l1.8,0.6
		c0.6,0.2,1.2,0.4,1.7,0.7c0.6,0.3,1.1,0.5,1.7,0.8c1.1,0.6,2.1,1.2,3.1,1.9c2,1.3,3.7,2.9,5.3,4.7c3,3.4,5,7.6,5.9,12.1
		c0.2,1.1,0.3,2.1,0.4,3.2c0,0.5,0,1.1,0.1,1.6c0,0.5,0.1,1,0.3,1.5c0.3,0.9,1,1.7,1.9,2.1c0.9,0.4,1.9,0.3,2.8-0.1
		c0.8-0.5,1.5-1.2,1.7-2.2c0.2-0.9,0.2-1.9,0.1-2.9c-0.1-1.9-0.3-3.8-0.7-5.6c-0.8-3.4-2.1-6.7-3.8-9.7l-1.3-2.1
		c-0.5-0.7-1-1.3-1.4-1.9l-0.7-0.9c-0.3-0.3-0.5-0.6-0.8-0.8l-1.5-1.6c-3.6-3.5-7.9-6.2-12.6-8c-1.7-0.6-3.5-1.2-5.3-1.6
		c-1.6-0.3-2.9-0.5-4-0.6l-2.5-0.1L230,183.4z"/>
	<path class="st4" d="M268,310.1c0,3.6-2.7,6.5-5.9,6.5s-5.9-2.9-5.9-6.5s2.6-6.5,5.9-6.5S268,306.5,268,310.1z"/>
	<rect x="276.9" y="188.6" class="st5" width="201.3" height="8.4"/>
	<rect x="276.9" y="178.3" class="st5" width="117.3" height="8.4"/>
	<rect x="276.9" y="369.8" class="st5" width="117.3" height="8.4"/>
	<rect x="277.8" y="160.1" class="st2" width="201.6" height="12.3"/>
	<rect x="275.6" y="272.8" class="st2" width="201.6" height="12.3"/>
	<rect x="277.8" y="212.3" class="st2" width="80.4" height="12.3"/>
	<rect x="376.7" y="212.3" class="st2" width="100.5" height="12.3"/>
	<path class="st4" d="M394.2,183.3c0,0.1-25.9,0.3-57.8,0.3s-57.8-0.1-57.8-0.3s25.9-0.3,57.8-0.3S394.2,183.2,394.2,183.3z"/>
	<path class="st4" d="M478.2,193c0,0.1-44.7,0.3-99.9,0.3s-99.9-0.1-99.9-0.3s44.7-0.3,99.9-0.3S478.2,192.8,478.2,193z"/>
	<path class="st4" d="M478.2,202.1c0,0.1-44.7,0.3-99.9,0.3s-99.9-0.1-99.9-0.3s44.7-0.3,99.9-0.3S478.2,202,478.2,202.1z"/>
	<path class="st4" d="M357.5,232.1c0,0.1-18,0.3-40.2,0.3s-40.2-0.1-40.2-0.3s18-0.3,40.2-0.3S357.5,231.9,357.5,232.1z"/>
	<path class="st4" d="M357.5,241.5c0,0.1-17.7,0.3-39.5,0.3s-39.5-0.1-39.5-0.3s17.7-0.3,39.5-0.3S357.5,241.4,357.5,241.5z"/>
	<path class="st4" d="M357.1,251.1c0,0.1-17.8,0.3-39.8,0.3s-39.8-0.1-39.8-0.3s17.8-0.3,39.8-0.3S357.1,251,357.1,251.1z"/>
	<path class="st4" d="M357.1,260.4c0,0.1-17.8,0.3-39.8,0.3s-39.8-0.1-39.8-0.3s17.8-0.3,39.8-0.3S357.1,260.3,357.1,260.4z"/>
	<path class="st4" d="M475.6,234.3c0,0.1-18.6,0.3-41.6,0.3s-41.6-0.1-41.6-0.3s18.6-0.3,41.6-0.3S475.6,234.1,475.6,234.3z"/>
	<path class="st4" d="M386,237.3c-0.1-0.6-0.1-1.1-0.1-1.7c0-1.1-0.1-2.5-0.1-4.3l0.2,0.2h-5.7l0.2-0.3l0,0v1.6c0,0.5,0,1,0,1.6
		c0,1,0,2,0,2.8l-0.2-0.2c1.7,0,3.1,0.1,4.1,0.1C385,237.1,385.5,237.2,386,237.3c-0.5,0-1,0.1-1.5,0.1c-1,0-2.5,0.1-4.2,0.1h-0.2
		v-0.2c0-0.9,0-1.8,0-2.8c0-0.5,0-1,0-1.6v-1.6l0,0c-0.2,0.2,0.3-0.3,0.3-0.3h5.7h0.2v0.2c0,1.9-0.1,3.4-0.1,4.4
		C386.2,236.2,386.1,236.7,386,237.3z"/>
	<path class="st4" d="M475.6,245.9c0,0.1-18.6,0.3-41.6,0.3s-41.6-0.1-41.6-0.3s18.6-0.3,41.6-0.3S475.6,245.7,475.6,245.9z"/>
	<path class="st4" d="M386,248.9c-0.1-0.6-0.1-1.2-0.1-1.7c0-1.1-0.1-2.5-0.1-4.3l0.2,0.2h-5.7c-0.1,0.1,0.5-0.5,0.2-0.3l0,0v1.6
		c0,0.5,0,1,0,1.6c0,1,0,1.9,0,2.8l-0.2-0.2c1.7,0,3.1,0.1,4.1,0.1C385,248.7,385.5,248.7,386,248.9c-0.5,0-1,0.1-1.5,0.1
		c-1,0-2.5,0.1-4.2,0.1h-0.2v-0.2c0-0.9,0-1.8,0-2.8c0-0.5,0-1,0-1.6v-1.6l0,0l0.3-0.3h5.7h0.2v0.2c0,1.9-0.1,3.4-0.1,4.4
		C386.2,247.8,386.1,248.3,386,248.9z"/>
	<path class="st4" d="M475.6,257.4c0,0.1-18.6,0.3-41.6,0.3s-41.6-0.1-41.6-0.3s18.6-0.3,41.6-0.3S475.6,257.3,475.6,257.4z"/>
	<path class="st4" d="M386,260.4c-0.1-0.6-0.1-1.2-0.1-1.7c0-1.1-0.1-2.5-0.1-4.3l0.2,0.2h-5.7l0.2-0.3l0,0v1.6c0,0.5,0,1,0,1.6
		c0,1,0,2,0,2.8l-0.2-0.2c1.7,0,3.1,0.1,4.1,0.1C385,260.3,385.5,260.3,386,260.4c-0.5,0.1-1,0.1-1.5,0.1c-1,0-2.5,0.1-4.2,0.1h-0.2
		v-0.2c0-0.9,0-1.8,0-2.8c0-0.5,0-1,0-1.6v-1.6l0,0l0.3-0.3h5.7h0.2v0.2c0,1.9-0.1,3.4-0.1,4.4C386.2,259.3,386.1,259.9,386,260.4z"
		/>
	<path class="st4" d="M475.6,353c0,0,0-0.3,0-1s0-1.6,0-2.9c0-2.5,0-6.3,0-11.2c0-9.7,0-24-0.1-41.9l0.1,0.2l-198.5,0.1l0,0l0.3-0.3
		c0,19.6,0,38.7,0,56.9l-0.2-0.3l141.8,0.1l41.6,0.1h11.2h2.9L475.6,353l-0.9-0.1h-2.9h-11.1l-41.6,0.1l-141.9,0.1H277V353
		c0-18.3,0-37.4,0-56.9v-0.3h0.3l198.5,0.1h0.2v0.2c0,18-0.1,32.3-0.1,42c0,4.9,0,8.6,0,11.1c0,1.3,0,2.2,0,2.9S475.6,353,475.6,353
		z"/>
	<path class="st4" d="M475.6,310.4c0,0.1-44.3,0.3-99,0.3s-99-0.1-99-0.3s44.3-0.3,99-0.3S475.6,310.3,475.6,310.4z"/>
	<path class="st4" d="M475.6,324.5c0,0.1-44.3,0.3-99,0.3s-99-0.1-99-0.3s44.3-0.3,99-0.3S475.6,324.4,475.6,324.5z"/>
	<path class="st4" d="M475.6,338.8c0,0.1-44.3,0.3-99,0.3s-99-0.1-99-0.3s44.3-0.3,99-0.3S475.6,338.7,475.6,338.8z"/>
	<path class="st4" d="M300.2,353.5c-0.1,0-0.3-12.9-0.3-28.8s0.1-28.8,0.3-28.8s0.3,12.9,0.3,28.8S300.4,353.5,300.2,353.5z"/>
	<path class="st4" d="M367.3,351.8c-0.1,0-0.3-12.3-0.3-27.5s0.1-27.5,0.3-27.5s0.3,12.3,0.3,27.5S367.5,351.8,367.3,351.8z"/>
	<path class="st4" d="M438.1,354.4c-0.1,0-0.2-12.7-0.2-28.3s0.1-28.3,0.2-28.3s0.3,12.7,0.3,28.3S438.2,354.4,438.1,354.4z"/>
	<path class="st4" d="M471.7,365.8c0,0.1-43.4,0.3-96.8,0.3s-96.8-0.1-96.8-0.3s43.3-0.3,96.8-0.3S471.7,365.6,471.7,365.8z"/>
	<path class="st4" d="M471.7,374c0,0.1-43.4,0.3-96.8,0.3s-96.8-0.1-96.8-0.3s43.3-0.3,96.8-0.3S471.7,373.9,471.7,374z"/>
	<path class="st4" d="M348.5,382.2c0,0.1-15.8,0.3-35.2,0.3s-35.2-0.1-35.2-0.3s15.8-0.3,35.2-0.3S348.5,382.1,348.5,382.2z"/>
	<g class="st8">
		<polygon points="224.6,353.3 235.9,353.3 235.9,343.5 224.6,343.5 		"/>
	</g>
	<path class="st2" d="M230,277c-19.7,0-35.6,15.6-35.6,34.7s16.2,34.7,35.8,34.7h5.7l-0.1-8.2l-5.6,0.2c-15.6,0-28.6-12-28.6-26.7
		S214.4,285,230,285s28.4,12,28.4,26.7c-0.2,2,1.2,3.8,3.2,4s3.8-1.2,4-3.2c0-0.3,0-0.5,0-0.8C265.7,292.6,249.7,277,230,277z"/>
	<path class="st4" d="M230,277c0,0,0.3,0,0.8,0l2.5,0.1c1.1,0.1,2.4,0.3,4,0.5c1.8,0.4,3.6,0.9,5.3,1.5c4.8,1.8,9.1,4.5,12.7,8
		l1.5,1.6c0.3,0.3,0.5,0.5,0.8,0.9l0.7,0.9c0.5,0.6,1,1.2,1.4,1.9l1.3,2.1c1.8,3.1,3.1,6.4,3.9,9.8c0.4,1.9,0.6,3.8,0.7,5.7
		c0.1,1,0.1,2-0.1,3c-0.3,1-1,1.9-1.9,2.4c-1,0.5-2.1,0.6-3.1,0.1c-1-0.5-1.8-1.3-2.1-2.4c-0.2-0.5-0.3-1.1-0.3-1.6l-0.1-1.6
		c-0.1-1.1-0.2-2.1-0.4-3.2c-0.9-4.4-2.9-8.5-5.8-11.9c-1.5-1.8-3.3-3.3-5.2-4.6c-1-0.7-2-1.3-3.1-1.9c-0.5-0.3-1.1-0.5-1.6-0.8
		c-0.5-0.3-1.1-0.5-1.7-0.7l-1.7-0.6c-0.6-0.2-1.2-0.3-1.8-0.4c-1.2-0.3-2.4-0.5-3.6-0.6c-3.8-0.4-7.6,0-11.3,1
		c-0.6,0.2-1.2,0.4-1.8,0.6l-0.9,0.3l-0.9,0.4c-2.4,1-4.6,2.4-6.7,4.1c-2.1,1.7-3.9,3.7-5.4,5.9c-1.5,2.2-2.7,4.7-3.4,7.3
		c-0.8,2.6-1.1,5.4-0.9,8.1c0.1,2.8,0.8,5.5,1.9,8.1c2.6,6.1,7.4,11.1,13.4,14c2.9,1.4,6,2.3,9.2,2.7c0.8,0.1,1.6,0.2,2.4,0.2
		c0.8,0.1,1.6,0.1,2.4,0l4.7-0.2h0.3v0.3c0,2.8,0,5.5,0.1,8.2v0.3h-0.3c-2.1,0-4.2,0-6.3,0l-3.1-0.1l-3.1-0.5
		c-3.9-0.8-7.7-2.1-11.2-4.1c-0.8-0.5-1.7-1-2.5-1.5l-2.3-1.7l-2.1-1.9c-0.4-0.3-0.7-0.6-1-1l-1-1c-2.5-2.7-4.5-5.7-6-9
		c-0.4-0.8-0.6-1.6-1-2.4l-0.5-1.2l-0.3-1.3c-0.2-0.8-0.5-1.6-0.6-2.5l-0.4-2.5c-0.4-3.2-0.3-6.4,0.2-9.6c0.2-1.5,0.6-3,1-4.4
		c0.2-0.7,0.4-1.4,0.7-2.1c0.3-0.7,0.5-1.4,0.8-2c0.6-1.3,1.3-2.5,2-3.7l1.1-1.7c0.4-0.5,0.8-1,1.2-1.6c2.8-3.7,6.4-6.7,10.4-9
		c0.4-0.3,0.9-0.5,1.3-0.8l1.3-0.6c0.8-0.4,1.6-0.8,2.5-1.1l2.3-0.8c0.8-0.2,1.5-0.4,2.2-0.5c1.2-0.3,2.4-0.5,3.7-0.7
		c0.5-0.1,1-0.2,1.5-0.2h1.2l1.7-0.1c0.4,0,0.6,0,0.6,0h-0.6l-1.7,0.1l-1.2,0.1c-0.5,0-0.9,0.1-1.5,0.2c-1.2,0.2-2.5,0.4-3.6,0.7
		c-0.7,0.2-1.4,0.3-2.1,0.6l-2.3,0.8c-0.8,0.3-1.7,0.7-2.5,1.1l-1.3,0.6c-0.4,0.2-0.8,0.5-1.3,0.8c-4,2.3-7.5,5.4-10.3,9
		c-0.4,0.5-0.8,1-1.2,1.6l-1.1,1.7c-0.7,1.2-1.4,2.4-1.9,3.6c-0.3,0.6-0.5,1.3-0.8,2c-0.3,0.6-0.5,1.3-0.7,2
		c-1.3,4.5-1.7,9.2-1.1,13.9l0.4,2.5c0.1,0.8,0.4,1.6,0.6,2.5l0.3,1.2l0.5,1.2c0.3,0.8,0.6,1.6,1,2.4c1.5,3.3,3.5,6.3,6,8.9l1,1
		c0.3,0.4,0.6,0.7,1,1l2.1,1.9l2.2,1.6c0.8,0.6,1.6,1,2.5,1.5c3.5,1.9,7.2,3.3,11.1,4l3,0.5l3.1,0.1c2.1,0.1,4.1,0,6.3,0l-0.3,0.3
		c0-2.7,0-5.4-0.1-8.2l0.3,0.3l-4.7,0.2c-0.8,0-1.6,0-2.4,0c-0.8,0-1.6-0.1-2.4-0.2c-3.2-0.4-6.4-1.3-9.3-2.8
		c-6.1-2.9-11-8-13.7-14.2c-1.1-2.6-1.8-5.4-1.9-8.2c-0.1-1.4-0.1-2.8,0.1-4.2c0.2-1.4,0.4-2.8,0.8-4.1c0.7-2.7,1.9-5.2,3.4-7.5
		c1.5-2.3,3.3-4.3,5.4-6c2.1-1.7,4.3-3.1,6.8-4.1l0.9-0.4l0.9-0.3c0.6-0.2,1.2-0.5,1.9-0.6c1.2-0.3,2.5-0.6,3.8-0.8
		c2.5-0.4,5.1-0.4,7.6-0.2c1.2,0.1,2.5,0.4,3.7,0.6c0.6,0.2,1.2,0.3,1.8,0.5l1.8,0.6c0.6,0.2,1.2,0.4,1.7,0.7
		c0.6,0.3,1.1,0.5,1.7,0.8c1.1,0.6,2.1,1.2,3.1,1.9c2,1.3,3.7,2.9,5.3,4.7c3,3.4,5,7.6,5.9,12.1c0.2,1.1,0.3,2.1,0.4,3.2
		c0,0.5,0,1.1,0.1,1.6c0,0.5,0.1,1,0.3,1.5c0.3,0.9,1,1.7,1.9,2.1c0.9,0.4,1.9,0.3,2.8-0.1c0.8-0.5,1.5-1.2,1.7-2.2
		c0.2-0.9,0.2-1.9,0.1-2.8c-0.1-1.9-0.3-3.8-0.7-5.6c-0.8-3.4-2.1-6.7-3.8-9.8l-1.3-2.1c-0.5-0.7-1-1.3-1.4-1.9l-0.7-0.9
		c-0.3-0.3-0.5-0.6-0.8-0.9l-1.5-1.6c-3.6-3.5-7.9-6.2-12.6-8c-1.7-0.6-3.5-1.1-5.3-1.5c-1.6-0.3-2.9-0.5-4-0.6l-2.5-0.1L230,277z"
		/>
	<g class="st8">
		<polygon points="224.6,456.9 218.3,474.2 523.3,474.2 523.3,456.9 		"/>
	</g>
	<path class="st4" d="M243.4,436.5c0,0,0.4,0,1.3,0h3.9h15.1l55.8,0.3l187,1.1l-0.3,0.3v-25.6c0-79.8,0-151.9,0.1-204.2
		c0-26.1,0.1-47.3,0.1-61.9c0-7.3,0-13,0-16.8c0-1.9,0-3.4,0-4.4s0-1.5,0-1.5s0,0.5,0,1.5s0,2.5,0,4.4c0,3.9,0,9.5,0,16.8
		c0,14.6,0,35.8,0.1,61.9c0,52.3,0,124.4,0.1,204.2v25.9h-0.3l-186.9-1.3l-55.9-0.5l-15.1-0.1l-3.9,0L243.4,436.5z"/>
	<path class="st4" d="M239.1,432.3h1.3h19l55.7,0.1l186.7,0.6l-0.3,0.3c0-8.6,0-17.8,0-27c0.1-80,0.2-152.4,0.3-204.9
		c0.1-26.2,0.1-47.4,0.1-62.1c0-7.3,0-13,0.1-16.9c0-1.9,0-3.4,0-4.4s0-1.5,0-1.5s0,0.5,0,1.5s0,2.5,0,4.4c0,3.9,0,9.6,0,16.9
		c0,14.7,0,35.9,0,62.1c0,52.4-0.1,124.9-0.1,204.9c0,9.3,0,18.4,0,27v0.3h-0.3L315,432.7l-55.7-0.3l-15.1-0.1h-3.9L239.1,432.3z"/>
	<path class="st4" d="M247.3,440.6h5.3l15.1,0l55.8,0.3l186.5,1.1l-0.3,0.3c0-7.5,0.1-15.6,0.1-23.7c0.3-79.1,0.6-150.6,0.9-202.4
		c0.1-25.9,0.3-46.9,0.3-61.4c0-7.2,0.1-12.9,0.1-16.7c0-1.9,0-3.4,0-4.3s0-1.5,0-1.5s0,0.5,0,1.5s0,2.4,0,4.3c0,3.8,0,9.4,0,16.7
		c0,14.5-0.1,35.4-0.1,61.4c-0.2,51.8-0.4,123.4-0.7,202.4c0,8.1-0.1,16.1-0.1,23.7v0.3h-0.3l-186.5-1.3l-55.8-0.4l-15.1-0.1l-3.9,0
		L247.3,440.6z"/>
	<polygon class="st9" points="502,144.8 526.5,144.8 535.3,154.6 527.7,166.3 502,166.3 	"/>
</g>
<g id="freepik--Folders--inject-8">
	<path class="st9" d="M19.9,307.4c-1.8-0.2-3.1-1.9-2.9-3.8c0,0,0,0,0,0l4.2-28.9c0.3-1.5,1.7-2.5,3.2-2.3c0,0,0,0,0,0l2.7,0.4
		c1.1,0.2,2.2-0.3,2.8-1.2l0.8-1.1c0.6-0.9,1.7-1.3,2.8-1.2l12.9,1.9c1,0.1,1.8,0.8,2.3,1.7l0.5,1.1c0.4,0.9,1.3,1.5,2.3,1.7
		l16.5,2.4c1.5,0.2,2.6,1.5,2.5,3.1c0,0,0,0,0,0l-4.3,29.6c-0.3,1.8-2,3.1-3.8,2.9L19.9,307.4z"/>
	<g class="st8">
		<path d="M19.9,307.4c-1.8-0.2-3.1-1.9-2.9-3.8c0,0,0,0,0,0l4.2-28.9c0.3-1.5,1.7-2.5,3.2-2.3c0,0,0,0,0,0l2.7,0.4
			c1.1,0.2,2.2-0.3,2.8-1.2l0.8-1.1c0.6-0.9,1.7-1.3,2.8-1.2l12.9,1.9c1,0.1,1.8,0.8,2.3,1.7l0.5,1.1c0.4,0.9,1.3,1.5,2.3,1.7
			l16.5,2.4c1.5,0.2,2.6,1.5,2.5,3.1c0,0,0,0,0,0l-4.3,29.6c-0.3,1.8-2,3.1-3.8,2.9L19.9,307.4z"/>
	</g>
	<path class="st9" d="M49.8,275.4l-10.5-1.5l-0.7-1.9c-0.5-1.3-1.6-2.1-2.9-2.3l-10.2-1.5c-1.8-0.3-3.4,0.9-3.7,2.6l-0.2,1.2
		L17,303.4c-0.2,2,1.2,3.8,3.3,4l41.6,6c2,0.3,3.9-1,4.2-3l4.3-29.7c0.2-1.3-0.7-2.5-2-2.7L49.8,275.4z"/>
	
		<rect x="39.8" y="279.3" transform="matrix(0.1423 -0.9898 0.9898 0.1423 -250.124 294.8823)" class="st3" width="10.5" height="25"/>
	<path class="st4" d="M53.7,292.4c0,0.1-3.8-0.4-8.5-1.1s-8.5-1.3-8.5-1.4s3.8,0.4,8.5,1.1S53.7,292.3,53.7,292.4z"/>
	<path class="st4" d="M53.4,294.6c0,0.1-3.8-0.4-8.5-1s-8.5-1.3-8.5-1.4s3.8,0.4,8.5,1S53.4,294.5,53.4,294.6z"/>
	<path class="st5" d="M73,268.9c-1.2,0.2-2.3-0.6-2.5-1.8c0,0,0-0.1,0-0.1l-2.7-19c-0.1-1,0.6-1.9,1.6-2l1.8-0.3
		c0.7-0.1,1.3-0.6,1.6-1.3l0.3-0.8c0.2-0.7,0.8-1.2,1.6-1.3l8.5-1.2c0.6-0.1,1.3,0.1,1.7,0.6l0.5,0.6c0.4,0.5,1.1,0.7,1.8,0.6
		l10.8-1.6c1-0.2,1.9,0.5,2.1,1.5l2.8,19.4c0.2,1.2-0.7,2.3-1.9,2.5L73,268.9z"/>
	<g class="st8">
		<path d="M73,268.9c-1.2,0.2-2.3-0.6-2.5-1.8c0,0,0-0.1,0-0.1l-2.7-19c-0.1-1,0.6-1.9,1.6-2l1.8-0.3c0.7-0.1,1.3-0.6,1.6-1.3
			l0.3-0.8c0.2-0.7,0.8-1.2,1.6-1.3l8.5-1.2c0.6-0.1,1.3,0.1,1.7,0.6l0.5,0.6c0.4,0.5,1.1,0.7,1.8,0.6l10.8-1.6
			c1-0.2,1.9,0.5,2.1,1.5l2.8,19.4c0.2,1.2-0.7,2.3-1.9,2.5L73,268.9z"/>
	</g>
	<path class="st5" d="M85.9,243.2l-6.9,1l-0.8-1.1c-0.5-0.7-1.4-1-2.3-0.9l-6.7,1c-1.2,0.1-2,1.2-1.9,2.3c0,0,0,0,0,0l0.1,0.8
		l3,20.6c0.2,1.3,1.5,2.2,2.8,2c0,0,0,0,0,0l27.3-3.9c1.3-0.2,2.3-1.3,2.1-2.7l-2.8-19.5c-0.1-0.9-0.9-1.5-1.8-1.3c0,0,0,0,0,0
		L85.9,243.2z"/>
	
		<rect x="77.7" y="250.9" transform="matrix(0.9898 -0.1428 0.1428 0.9898 -35.4407 14.877)" class="st3" width="16.4" height="6.9"/>
	<path class="st4" d="M91.5,253.1c0,0.1-2.5,0.5-5.6,0.9s-5.6,0.8-5.6,0.7s2.5-0.5,5.6-0.9S91.5,253.1,91.5,253.1z"/>
	<path class="st4" d="M91.7,254.6c0,0.1-2.5,0.5-5.6,0.9s-5.6,0.8-5.6,0.7s2.5-0.5,5.6-0.9S91.7,254.5,91.7,254.6z"/>
</g>
<g id="freepik--speech-bubble-1--inject-8">
	<path class="st3" d="M105.8,218l-7.3-0.1c-9.1,9.3-24.1,9.4-33.3,0.3s-9.4-24.1-0.3-33.3c9.1-9.3,24.1-9.4,33.3-0.3
		c7,6.9,9,17.4,5,26.3l0,0L105.8,218z"/>
	<path class="st4" d="M105.8,218l-0.2-0.5c-0.1-0.3-0.3-0.8-0.5-1.4c-0.4-1.2-1.1-2.9-2-5.2h0.2l0,0c0,0.1-0.1,0.1-0.2,0
		s-0.1-0.1,0-0.2l0,0c1.6-3.6,2.2-7.4,1.9-11.3c-0.2-2.5-0.8-4.9-1.8-7.3c-5-11.8-18.6-17.4-30.5-12.4c-4.1,1.7-7.6,4.6-10.1,8.3
		c-0.3,0.4-0.5,0.8-0.8,1.2l-0.7,1.3l-0.3,0.6l-0.3,0.6l-0.6,1.3c-0.6,1.7-1.1,3.6-1.3,5.4c-1.5,12.8,7.7,24.4,20.5,25.9
		c3.2,0.4,6.4,0.1,9.5-0.8c3.7-1.1,7.1-3.1,9.8-5.9h0.1l5.4,0.1h1.4L105.8,218l-7.3-0.1h0.1c-2.7,2.8-6.1,4.9-9.9,6.1
		c-12.1,3.7-25-2.7-29.3-14.6c-1.9-5.3-1.8-11.1,0.1-16.4l0.6-1.3l0.3-0.7l0.3-0.6l0.7-1.3c0.3-0.4,0.5-0.8,0.8-1.2
		c7.4-10.8,22.2-13.5,33-6c1.4,0.9,2.6,2,3.7,3.2c2,2.1,3.6,4.5,4.7,7.2c1,2.3,1.6,4.8,1.8,7.4c0.3,3.9-0.4,7.8-2,11.4l-0.2-0.1l0,0
		c0,0,0.1,0,0.1,0c0,0,0,0,0,0l0,0l1.9,5.3l0.5,1.4C105.7,217.7,105.7,217.8,105.8,218z"/>
	<path class="st4" d="M80.5,206.5c-4.2,0-7.7-3.4-7.7-7.6c0-4.2,3.4-7.7,7.6-7.7s7.7,3.4,7.7,7.6c0,2.5-1.2,4.9-3.3,6.3
		C83.5,206.1,82,206.5,80.5,206.5z M80.5,193.3c-1.1,0-2.2,0.4-3.2,1c-2.6,1.8-3.2,5.3-1.5,7.9c1.8,2.6,5.3,3.2,7.9,1.5
		c2.6-1.8,3.2-5.3,1.5-7.9C84.1,194.2,82.4,193.2,80.5,193.3z"/>
	<path class="st4" d="M88.6,211.8c-0.3,0-0.6-0.2-0.8-0.4l-4.4-6.4c-0.3-0.5-0.2-1.1,0.3-1.4c0.5-0.3,1.1-0.2,1.4,0.2c0,0,0,0,0,0
		l4.4,6.4c0.3,0.5,0.2,1.1-0.3,1.4C89,211.8,88.8,211.8,88.6,211.8z"/>
</g>
<g id="freepik--character-2--inject-8">
	<path class="st9" d="M581.2,437.4l-5.7,19.6c0,0,18,12.3,17.3,16l-38.4-9.6l7.6-30.9L581.2,437.4z"/>
	<path class="st2" d="M564.1,452.4c-0.8,0-1.5,0.7-1.5,1.5c0,0.8,0.7,1.5,1.5,1.5c0.9,0,1.6-0.7,1.6-1.6c-0.1-0.9-0.9-1.5-1.7-1.4"
		/>
	<g class="st10">
		<path class="st3" d="M554.5,463.5l0.9-3.1l36.5,10.4c0,0,1.5,1.2,1,2.3L554.5,463.5z"/>
	</g>
	<path class="st4" d="M576.3,457c0,0.2-1,0-2.1,0.4s-1.8,1-1.9,0.9s0.4-1.1,1.7-1.5S576.3,456.8,576.3,457z"/>
	<path class="st4" d="M579.9,459.6c0,0.2-0.9,0.3-1.7,0.9s-1.2,1.4-1.4,1.4s0-1.1,1-1.9S579.9,459.5,579.9,459.6z"/>
	<path class="st4" d="M580.9,465c-0.2,0-0.2-1,0.5-1.9s1.7-1.1,1.8-0.9s-0.6,0.6-1.2,1.3S581.1,465,580.9,465z"/>
	<path class="st4" d="M577,452.4c-0.1,0.1-0.9-0.3-2-0.5s-2-0.1-2-0.3s0.9-0.6,2.2-0.4S577.2,452.2,577,452.4z"/>
	<path class="st9" d="M567.8,442l-0.9,20.4c0,0,20.4,7.8,20.6,11.5l-39.6-0.3l0.1-31.8L567.8,442z"/>
	<path class="st2" d="M554.7,460.6c-0.8,0.2-1.3,1-1.1,1.8c0.2,0.8,1,1.3,1.8,1.1c0.8-0.2,1.4-1.1,1.2-2c-0.3-0.8-1.2-1.3-2-1"/>
	<g class="st10">
		<path class="st3" d="M547.9,473.6l0.1-3.2l37.9,1.5c0,0,1.8,0.8,1.5,2L547.9,473.6z"/>
	</g>
	<path class="st4" d="M567.5,462.2c0,0.2-1,0.3-1.9,0.9s-1.5,1.4-1.6,1.4s0.1-1.2,1.3-1.9S567.6,462,567.5,462.2z"/>
	<path class="st4" d="M571.7,463.9c0,0.2-0.8,0.5-1.5,1.3s-0.9,1.7-1,1.7s-0.3-1.1,0.5-2.1S571.7,463.8,571.7,463.9z"/>
	<path class="st4" d="M574,468.9c-0.2,0-0.4-0.9,0.1-2s1.4-1.5,1.5-1.3s-0.5,0.7-0.9,1.6S574.2,468.9,574,468.9z"/>
	<path class="st4" d="M567.2,457.5c-0.1,0.2-1-0.1-2.1,0s-2,0.4-2,0.2s0.7-0.9,2-0.9S567.3,457.4,567.2,457.5z"/>
	<path class="st4" d="M567.7,457.3c0.1,1.6,0.1,3.3,0,4.9l-0.2-0.2c2.3,0.9,5.4,2.1,8.7,3.6c3.1,1.4,6,3.1,8.8,5
		c0.8,0.6,1.6,1.4,2.2,2.2c0.4,0.6,0.4,1.1,0.3,1.1c-0.1-0.3-0.3-0.7-0.5-1c-0.7-0.8-1.4-1.4-2.2-2c-2.8-1.9-5.7-3.5-8.8-4.8
		c-3.2-1.5-6.3-2.8-8.5-3.7l-0.2-0.1v-0.2C567.3,460.5,567.4,458.9,567.7,457.3z"/>
	<path class="st4" d="M545.8,305.7v14.6l3.9,57c0,0-2.5,27.7-4,43.3c-1.3,13.5,0.8,37.2,0.8,37.2h22.9l8.2-78.7l5.1-49.1l8.8-22.3
		L545.8,305.7z"/>
	<polygon class="st4" points="607.2,308.4 601.7,387.8 578.5,447.4 577.5,450.9 563.8,447.6 573.9,306.7 	"/>
	<path class="st9" d="M585.5,319.4c0,0.1,0,0.2,0,0.4c0,0.3,0,0.6,0,1.1c0,1-0.1,2.3-0.1,4.1c-0.1,3.5-0.4,8.6-0.8,14.9
		c-0.8,12.6-2.4,29.9-4.8,49s-5,36.4-7,48.8c-1,6.2-1.8,11.3-2.3,14.8c-0.3,1.7-0.5,3.1-0.7,4c-0.1,0.4-0.1,0.8-0.2,1
		c0,0.1,0,0.2-0.1,0.4c0-0.1,0-0.2,0-0.4c0-0.3,0.1-0.6,0.1-1l0.6-4c0.5-3.5,1.3-8.6,2.2-14.8c1.8-12.5,4.4-29.7,6.8-48.9
		s4-36.4,5-49c0.5-6.3,0.8-11.4,1-14.9c0.1-1.7,0.2-3.1,0.2-4c0-0.5,0-0.8,0.1-1.1C585.5,319.6,585.5,319.5,585.5,319.4z"/>
	<path class="st11" d="M569.5,162.5v38.3c0,6.5,7.8,18.2,18.1,17.7h0.8c8.9-1.1,3.8-11.7,3.8-17.8c0-2.9,0-5.3,0-5.6
		c0,0,9.8-0.9,10.5-10.6c0.3-4.7,0.3-14.3,0.1-23.1c-0.2-9.4-7.6-17-16.9-17.6l-0.9-0.1C574.9,143.9,569.3,152.4,569.5,162.5z"/>
	<path class="st12" d="M592.3,195.2c-4.4-0.3-8.7-1.8-12.3-4.5c0,0,2.6,7.3,12.3,7L592.3,195.2z"/>
	<path class="st4" d="M586.4,165.7c-0.2,0.2-1.3-0.7-2.9-0.7s-2.8,0.8-3,0.6s0.1-0.5,0.6-0.8c0.7-0.5,1.5-0.7,2.4-0.7
		c0.8,0,1.7,0.3,2.3,0.8C586.4,165.3,586.5,165.6,586.4,165.7z"/>
	<path class="st4" d="M586.7,170.2c0,0.7-0.6,1.3-1.3,1.2c-0.7,0-1.3-0.5-1.3-1.2c0,0,0,0,0-0.1c0-0.7,0.6-1.3,1.3-1.2
		C586.1,169,586.6,169.5,586.7,170.2C586.7,170.2,586.7,170.2,586.7,170.2z"/>
	<path class="st4" d="M590.6,176.9c0.8-0.2,1.6-0.3,2.4-0.3c0.4,0,0.7-0.1,0.8-0.3c0.1-0.4,0-0.8-0.2-1.1l-1-3
		c-1.3-4.2-2.2-7.7-2-7.7s1.4,3.3,2.7,7.5l0.9,3c0.2,0.5,0.2,1,0.1,1.5c-0.1,0.3-0.4,0.4-0.7,0.5c-0.2,0-0.4,0.1-0.7,0.1
		C592.2,177.1,591.4,177.1,590.6,176.9z"/>
	<path class="st4" d="M585.7,160.5c-0.2,0.4-1.5,0.1-3,0.2s-2.8,0.4-3,0.1c-0.1-0.2,0.2-0.5,0.7-0.8c0.7-0.4,1.5-0.6,2.3-0.7
		c0.8-0.1,1.6,0.1,2.3,0.4C585.5,160,585.8,160.3,585.7,160.5z"/>
	<path class="st4" d="M601.1,161.8c-0.2,0.3-1.4,0-3,0s-2.8,0.2-3-0.1s0.2-0.4,0.7-0.6c0.7-0.3,1.5-0.4,2.3-0.4
		c0.8,0,1.5,0.2,2.3,0.5C600.9,161.4,601.1,161.7,601.1,161.8z"/>
	<path class="st11" d="M569.9,169.7c-0.2-0.1-6.5-2.4-6.7,4.3s6.5,5.4,6.5,5.3S569.9,169.7,569.9,169.7z"/>
	<path class="st12" d="M567.7,176.6c0,0-0.1,0.1-0.3,0.2c-0.3,0.1-0.6,0.1-0.9,0c-0.9-0.6-1.3-1.6-1.3-2.6c0-0.6,0.1-1.1,0.4-1.6
		c0.1-0.4,0.5-0.7,0.9-0.9c0.3-0.1,0.6,0.1,0.7,0.3c0.1,0.2,0,0.3,0.1,0.3s0.2-0.1,0.1-0.4c0-0.2-0.1-0.3-0.3-0.4
		c-0.2-0.1-0.4-0.2-0.6-0.2c-0.6,0.1-1,0.5-1.2,1c-0.3,0.6-0.4,1.2-0.5,1.8c-0.1,1.2,0.5,2.4,1.6,2.9c0.4,0.1,0.7,0.1,1.1-0.1
		C567.7,176.8,567.7,176.7,567.7,176.6z"/>
	<path class="st4" d="M561,159.1c1.3-2.4,1.6-5.1,2.4-7.8s2.1-5.3,4.7-6.3l0,0c2.3-0.9,5.1-1,7,0.6c0.4-3.4,3.4-6.2,6.8-7.1
		c4-0.8,8.1-0.6,12,0.8c2.5,1,4.9,3,7.9,6c1.2,1.2,2.4,2.6,3.4,4l3,9l-2.5,4.8c-0.2,0.3-0.3,0.6-0.5,1l0,0l-2.1,10
		c-0.2-2.7-0.1-12.2-0.3-14.9c-4.1-0.1-8.1-1.8-10.9-4.9c-1.5-1.6-2.7-3.7-4.7-4.6c-2.6-1.2-5.6-0.3-8.3,0.7l0.1-0.1
		c-1.4,0.7-2.7,1.6-3.7,2.7c0.7,5.4,0.2,10.8-1.5,16c-0.2,0.8-0.9,2.4-1.7,2.7c-1.5,0.6-1.9-0.9-2.8-1.7c-0.8-0.5-1.8-0.8-2.7-0.6
		c-0.8-2.2-1.4-4.5-1.9-6.8c-0.9,0.3-1.8,0.4-2.8,0.2c0.3-0.7,0.5-1.4,0.8-2c-0.4,0.3-0.8,0.5-1.2,0.6c-0.4,0.1-0.9-0.1-1.1-0.5
		C560.3,160.2,560.7,159.6,561,159.1z"/>
	<path class="st9" d="M578.1,146.8c-0.4,0.3-0.7,0.6-1,0.9c-0.8,0.9-1.2,2-1.4,3.2c-0.2,0.8-0.2,1.6-0.2,2.5c0,0.9,0.1,1.8,0.2,2.8
		c0.1,1,0.1,2.1,0.1,3.2c0,0.6-0.1,1.1-0.2,1.7c-0.1,0.6-0.3,1.2-0.7,1.6c-0.3,0.4-0.9,0.6-1.4,0.5c-0.5-0.1-0.9-0.3-1.2-0.7
		c-0.5-0.7-0.9-1.6-1-2.4h0.2c-0.3,0.7-0.7,1.4-1.2,2c-0.5,0.6-1.1,0.9-1.9,1c-0.3,0-0.7,0-1-0.2c-0.3-0.1-0.5-0.4-0.7-0.7
		c-0.1-0.3-0.2-0.6-0.2-0.9c0-0.3,0.1-0.5,0.3-0.8l0.1,0.1c-0.6,0.7-1.3,1.2-2.1,1.6c-0.2,0.1-0.4,0.2-0.6,0.3
		c-0.1,0-0.2,0.1-0.2,0.1c0.1,0,0.1-0.1,0.2-0.1c0.1-0.1,0.3-0.1,0.6-0.3c0.8-0.4,1.4-0.9,2-1.6l0.1,0.1c-0.3,0.4-0.3,1,0,1.4
		c0.1,0.3,0.4,0.5,0.6,0.6c0.3,0.1,0.6,0.2,0.9,0.1c0.7-0.1,1.3-0.5,1.7-1c0.5-0.6,0.8-1.3,1.1-2l0.1-0.3l0.1,0.3
		c0.1,0.8,0.4,1.7,0.9,2.3c0.3,0.3,0.7,0.5,1.1,0.6c0.4,0.1,0.9-0.1,1.2-0.4c0.3-0.4,0.5-1,0.6-1.5c0.1-0.5,0.2-1.1,0.2-1.6
		c0-1,0-2.1-0.1-3.1c-0.1-1-0.2-2-0.2-2.9c0-0.8,0.1-1.7,0.3-2.5c0.2-1.2,0.7-2.3,1.5-3.3C577.4,147.2,577.7,146.9,578.1,146.8z"/>
	<path class="st9" d="M608.1,155.8L608.1,155.8l-0.3,0.2c-0.1,0.1-0.3,0.2-0.4,0.3c-0.2,0.1-0.4,0.2-0.6,0.3
		c-1.3,0.6-2.7,0.9-4.1,0.8c-2.1-0.1-4.1-0.8-5.8-2.1c-2.1-1.5-3.8-3.5-5.1-5.7c-0.7-1.2-1.3-2.4-2-3.4c-0.6-1.1-1.3-2-2.2-2.9
		c-0.8-0.8-1.7-1.3-2.8-1.7c-0.9-0.2-1.9-0.2-2.8,0.1c-0.7,0.3-1.4,0.7-2,1.2c-0.4,0.4-0.8,0.9-1.1,1.4c-0.2,0.5-0.4,1-0.5,1.4
		c0,0,0-0.1,0-0.1v-0.3c0.1-0.4,0.2-0.7,0.4-1.1c0.3-0.6,0.6-1.1,1.1-1.5c0.6-0.6,1.2-1,2-1.3c0.4-0.2,0.9-0.3,1.4-0.3
		c0.5,0,1,0,1.5,0.1c1.1,0.3,2.1,0.9,2.9,1.7c0.9,0.9,1.6,1.9,2.2,2.9c0.7,1.1,1.2,2.3,2,3.4c1.3,2.2,3,4.1,5,5.6
		c1.7,1.2,3.7,2,5.7,2.1c1.4,0.1,2.8-0.2,4.1-0.7C607.1,156.3,607.6,156.1,608.1,155.8z"/>
	<path class="st4" d="M601.2,166.2c-0.2,0.2-1.3-0.7-2.9-0.7s-2.8,0.8-3,0.6s0.1-0.4,0.6-0.8c1.4-1,3.3-1,4.7,0.1
		C601.1,165.7,601.3,166.1,601.2,166.2z"/>
	<path class="st4" d="M599.7,170.2c0,0.7-0.6,1.3-1.3,1.2c-0.7,0-1.3-0.5-1.3-1.2c0,0,0,0,0-0.1c0-0.7,0.6-1.3,1.3-1.2
		C599.1,169,599.7,169.5,599.7,170.2C599.7,170.2,599.7,170.2,599.7,170.2z"/>
	<path class="st4" d="M604.3,148.3c0.7,1.2,2,1.9,3.4,1.9c0.5-0.1,1-0.2,1.4-0.4c0.5,0.3,0.4,1.9,0,2.4c-0.3,0.4-0.6,0.7-1,1
		c1.6,0.9,3,0.4,4.7-0.2c-0.3,2.9-2.2,5.5-4.9,6.6c-0.8,0.4-1.8,0.5-2.7,0.1c-0.6-0.5-1-1.3-1.2-2.1c-0.8-2.9-1.1-5.9-1.2-8.9
		L604.3,148.3z"/>
	<path class="st4" d="M590.6,181.1c0,0.1-0.3,0.3-0.9,0.4c-0.8,0.1-1.6-0.1-2.3-0.5c-0.7-0.4-1.2-1-1.5-1.8c-0.2-0.6-0.2-0.9-0.1-1
		s0.6,1.4,2,2.2S590.6,180.9,590.6,181.1z"/>
	<path class="st11" d="M616.3,234.6l2.2,20.8l30.8,8c0,0,0.9,10.9,0,11.1s-38.4,0.6-41.8-4.6s-0.4,1-0.8,0s-6.1-31.9-6.1-31.9
		L616.3,234.6z"/>
	<path class="st11" d="M640,273.4c0,0,8.5,1,10.5,1.1s7.6-1.4,7.6-1.4s9.2,1.8,9.7,1.3s1.1-1,0.5-1.4s-7.6-2.7-7.6-2.7l4.8-0.1
		c0,0,6.9,1.9,7.4,1.7s1.3-1,0.8-1.7l-0.4-0.7c0.3-0.7,0-1.5-0.6-1.9l-0.7-0.3l0.2-0.6c0.1-0.9-0.2-1.8-1-2.3c-1.3-1-4.2-3-4.2-3
		l-8.9-1.4l-17,2.5"/>
	<path class="st12" d="M641.4,270.3c0.3,0.3,0.7,0.6,1,0.9c1,0.7,2.2,1,3.5,1c1.8-0.1,3.6-0.6,5.3-1.4c1.9-0.8,4-1.9,6.5-2
		c0.6,0,1.2,0,1.8,0c0.5,0,0.8-0.4,0.8-0.9c-0.1-0.4-0.7-0.5-1.2-0.6l-1.6-0.4l-5.4-1.4l-3.6-1c-0.5-0.1-0.9-0.2-1.3-0.4
		c0.5,0,0.9,0.1,1.4,0.2l3.7,0.8l5.4,1.3l1.6,0.4c0.3,0.1,0.6,0.1,0.8,0.2c0.4,0.1,0.6,0.4,0.7,0.8c0.1,0.8-0.5,1.4-1.2,1.5
		c-0.6,0-1.2,0-1.8,0c-2.4,0.1-4.5,1.2-6.4,2c-1.7,0.8-3.6,1.3-5.5,1.3c-1.3,0-2.5-0.4-3.6-1.2c-0.3-0.2-0.5-0.5-0.7-0.7
		C641.5,270.5,641.4,270.4,641.4,270.3z"/>
	<path class="st12" d="M657.4,264.6c0-0.2,3.4,0.2,7.4-0.3c0.5-0.1,1-0.1,1.5-0.2h0.1l0.1,0.1c1.6,1.2,3.3,2.1,5.2,2.8
		c-0.6,0-1.2-0.1-1.7-0.3c-1.4-0.4-2.7-1.1-3.8-2.1l0.2,0.1c-0.5,0.1-1,0.1-1.5,0.2c-1.8,0.2-3.6,0.2-5.3,0.1
		C658.8,265,658.1,264.9,657.4,264.6z"/>
	<path class="st12" d="M665.5,267.5c0.1-0.1,1.8,0.6,4,1.1s4.1,0.5,4.1,0.7C670.8,269.7,667.9,269,665.5,267.5L665.5,267.5z"/>
	<path class="st9" d="M609.8,309.4c0,0-2.4-63.8-3.5-74.9s-4.1-31-4.1-31l-10-3.7v0.1c0.1,1.2,0,6.2-3.8,6.9
		c-10.3,2-19.4-9.4-19.4-9.4l-20.1,10l2.3,57.9l-6,40.9L609.8,309.4z"/>
	<path class="st11" d="M597.2,262.8l-40-4.3l4.2-26.6l-14.5-5.9h-5.2c0,0-2.9,29.1-3.6,34.6c-0.7,5.8,0,15.3,12.3,15.8
		c6,0.3,45.7-2.7,45.7-2.7L597.2,262.8z"/>
	<path class="st9" d="M557.5,208.7c8.6,5,5.5,35.1,5.5,35.1l-26.1-0.8l3.4-23.9c0.8-3.6,2.7-6.9,5.5-9.4c1.5-1.5,3.5-2.5,5.6-2.9
		C553.6,206.4,555.9,207.1,557.5,208.7z"/>
	<path class="st9" d="M611.9,212.1c-2.7-6.3-9.8-8.6-9.8-8.6l2.8,38l13.9-1C618.8,240.5,615.4,220.2,611.9,212.1z"/>
	<path class="st4" d="M605.8,216.1c0.1,0,0.7,7.8,1.1,17.5s0.8,17.5,0.6,17.5s-0.7-7.8-1.1-17.5S605.7,216.1,605.8,216.1z"/>
	<path class="st11" d="M592.8,273.4c0,0,8.5,1,10.5,1.1s7.6-1.4,7.6-1.4s9.2,1.8,9.7,1.3s1.1-1,0.5-1.4s-7.6-2.7-7.6-2.7l4.8-0.1
		c0,0,6.9,1.9,7.4,1.7s1.3-1,0.8-1.7l-0.4-0.7c0.3-0.7,0-1.5-0.6-1.9l-0.7-0.3l0.2-0.6c0.1-0.9-0.2-1.8-1-2.3c-1.3-1-4.2-3-4.2-3
		l-8.9-1.4l-17,2.5"/>
	<path class="st12" d="M594.1,262.6c0.1,0,0.2-0.1,0.3-0.1l0.9-0.2l3.4-0.6l12.4-1.9h0.1l8.9,1.3h0l0,0l3.1,2.3
		c0.6,0.4,1.1,0.8,1.6,1.3c0.5,0.6,0.7,1.3,0.6,2.1l0,0c0,0.2-0.1,0.4-0.2,0.6l-0.1-0.3l0.6,0.3l0,0c0.4,0.2,0.7,0.5,0.8,0.9
		c0.1,0.4,0.1,0.9-0.1,1.3v-0.2c0.2,0.3,0.3,0.5,0.5,0.9c0.1,0.4,0,0.8-0.2,1.1c-0.2,0.3-0.5,0.6-0.8,0.7c-0.1,0-0.2,0-0.4,0h-0.3
		l-0.5-0.1c-1.3-0.3-2.6-0.6-3.9-0.9l-2.6-0.7h0.1l-4.8,0.1l0.1-0.5c1.7,0.6,3.4,1.1,5.1,1.7c0.8,0.3,1.7,0.6,2.5,1
		c0.1,0.1,0.2,0.2,0.3,0.3c0.1,0.1,0.1,0.3,0.1,0.5c-0.1,0.3-0.2,0.5-0.4,0.7c-0.2,0.2-0.3,0.3-0.4,0.5c-0.1,0.1-0.3,0.2-0.4,0.2
		H620c-1.6-0.1-3.2-0.3-4.8-0.6c-1.5-0.3-3-0.5-4.3-0.8h0.1c-2.5,0.7-5,1.1-7.5,1.3c-2.3-0.1-4.2-0.4-5.8-0.5l-3.7-0.5l-1-0.1
		l-0.3-0.1c0,0,0.1,0,0.3,0l1,0.1l3.7,0.4c1.6,0.1,3.5,0.4,5.7,0.5c2.5-0.3,5-0.7,7.4-1.4h0.1c1.4,0.3,2.8,0.5,4.3,0.8
		c1.6,0.3,3.1,0.5,4.7,0.6h0.3c0.1,0,0.2,0,0.2,0l0.4-0.4c0.1-0.1,0.2-0.3,0.3-0.4c0-0.1,0-0.2-0.2-0.3c-0.7-0.3-1.6-0.6-2.4-0.9
		c-1.7-0.6-3.3-1.1-5.1-1.7l-1.5-0.5h1.5l4.8-0.1h0.1l2.5,0.7c1.3,0.3,2.6,0.7,3.9,0.9l0.5,0.1c0.1,0,0.2,0,0.4,0
		c0.3-0.1,0.5-0.3,0.6-0.5c0.1-0.2,0.2-0.5,0.1-0.7c-0.1-0.2-0.3-0.5-0.4-0.8l-0.1-0.1v-0.1c0.1-0.3,0.1-0.6,0-0.9
		c-0.1-0.3-0.3-0.5-0.5-0.6l0,0l-0.6-0.3l-0.2-0.1l0.1-0.2c0.1-0.2,0.1-0.4,0.2-0.6l0,0c0.1-0.6-0.1-1.2-0.5-1.7
		c-0.5-0.4-1-0.8-1.5-1.2l-3.1-2.3h0.1l-8.8-1.4h0.1l-12.3,1.9l-3.4,0.5l-0.9,0.1C594.3,262.6,594.2,262.6,594.1,262.6z"/>
	<path class="st12" d="M612.5,265.8c0.7,0.3,1.4,0.5,2.1,0.5c1.7,0.1,3.4,0.3,5.1,0.8c0.9,0.4,1.7,0.8,2.5,1.3
		c0.7,0.4,1.4,0.7,2.2,0.9c0.7,0.3,1.4,0.5,2.1,0.6c-0.7-0.3-1.3-0.6-2-0.8c-0.6-0.3-1.3-0.6-2.1-1c-0.8-0.5-1.7-0.9-2.6-1.3
		c-0.9-0.3-1.9-0.5-2.9-0.6c-0.9-0.1-1.7-0.1-2.3-0.1C613.3,266,612.5,265.8,612.5,265.8z"/>
	<path class="st12" d="M613.5,263.4c0.6,0.3,1.3,0.4,1.9,0.4c1.5-0.1,3,0.2,4.4,0.9c1.6,0.8,3.1,1.6,4.2,2.1
		c0.6,0.3,1.2,0.6,1.8,0.8c-0.5-0.4-1.1-0.7-1.6-1c-1-0.6-2.5-1.4-4.1-2.2c-0.8-0.4-1.6-0.6-2.5-0.7c-0.8-0.1-1.5,0-2.1-0.1
		C614.2,263.5,613.5,263.3,613.5,263.4z"/>
	<path class="st4" d="M538.6,243c0.2,0,0.3,0,0.5,0h1.3l4.9,0.1c4.2,0.1,9.9,0.2,16.2,0.4h1.4l-0.3,0.3c-0.2-4.8-0.3-9.3-0.4-12.8
		l0,0c-0.3-2.7-0.4-4.8-0.5-6.3c0-0.7-0.1-1.3-0.1-1.7c0-0.2,0-0.4,0-0.6c0.1,0.2,0.1,0.4,0.1,0.6c0.1,0.4,0.1,1,0.2,1.7
		c0.2,1.5,0.3,3.7,0.7,6.3l0,0l0,0c0.2,3.6,0.3,8,0.5,12.8v0.3H563h-1.4c-6.3-0.2-12.1-0.4-16.2-0.6l-4.9-0.2l-1.3-0.1
		C538.9,243.1,538.8,243.1,538.6,243z"/>
	<rect x="651.1" y="375.9" class="st2" width="7.9" height="95.6"/>
	<rect x="641.2" y="359.2" class="st2" width="3.5" height="6.5"/>
	<rect x="644.4" y="361.1" class="st2" width="4" height="2.7"/>
	<rect x="647.5" y="282.6" class="st2" width="15.1" height="93.3"/>
	<path class="st4" d="M662.7,375.9c0,0,0-0.2,0-0.5s0-0.8,0-1.4c0-1.2,0-3,0-5.3c0-4.6,0-11.4-0.1-19.7c0-16.7-0.1-40-0.1-66.4
		l0.3,0.3h-15.2l0.3-0.3c-0.1,39.9-0.1,74.8-0.1,93.3l-0.1-0.1l11.2,0.1h2.9h0.8L662.7,375.9l-1-0.1h-2.9l-11.3,0.1h-0.1v-0.1
		c0-18.5-0.1-53.4-0.1-93.3v-0.3h15.7v0.3c0,26.4-0.1,49.8-0.1,66.5c0,8.3,0,15-0.1,19.7c0,2.3,0,4.1,0,5.3c0,0.6,0,1,0,1.4
		S662.7,375.9,662.7,375.9z"/>
	<rect x="625.3" y="469.8" class="st2" width="59.4" height="4.3"/>
	<rect x="526.3" y="273.6" class="st9" width="202.6" height="9.1"/>
	<path class="st4" d="M728.9,282.6c0,0,0-0.2,0-0.6s0-0.9,0-1.7c0-1.5,0-3.8,0-6.8l0.1,0.1l-202.6,0.2l0,0l0.3-0.3v9.1l-0.3-0.3
		l143.5,0.1l43.2,0.1h11.7h3.1L728.9,282.6l-1-0.1h-3h-11.7l-43.2,0.1l-143.7,0.1H526v-9.4h0.3l202.6,0.2h0.2v0.1c0,3.1,0,5.4,0,6.9
		c0,0.7,0,1.3,0,1.6S728.9,282.6,728.9,282.6z"/>
	<path class="st2" d="M690.5,221h-56.1c-1.9,0-3.6,1-3.9,3l-7.5,45.7h-29.5c-1,0.1-1.8,1-1.7,2c0.1,0.9,0.8,1.7,1.7,1.7h94.2
		l6.4-47.8c0.4-2.2-1.1-4.2-3.3-4.6C690.7,221,690.6,221,690.5,221z"/>
	<path class="st4" d="M690.5,221c0.3,0,0.7,0.1,1,0.1c0.9,0.3,1.7,0.9,2.2,1.8c0.4,0.6,0.6,1.3,0.6,2c0,0.4,0,0.8-0.1,1.2
		c0,0.4-0.1,0.9-0.2,1.3c-0.3,1.8-0.5,3.9-0.9,6.3c-1.3,9.5-3.1,23.1-5.4,39.8l0.1-0.1h-91.1h-3.2c-0.2,0-0.4,0-0.6-0.1
		c-0.4-0.1-0.7-0.4-0.8-0.8c-0.4-0.7-0.3-1.6,0.3-2.1c0.3-0.3,0.6-0.4,1-0.5h29.7v-0.1c2.5-15.4,4.8-29.7,6.9-42.6
		c0.1-0.8,0.3-1.6,0.4-2.4c0.1-0.4,0.1-0.8,0.2-1.2c0.1-0.4,0.2-0.7,0.5-1c0.5-0.6,1.1-1.1,1.8-1.3c0.4-0.1,0.7-0.2,1.1-0.2
		c0.4,0,0.8,0,1.2,0h8.9h15.8h22.5h6l0,0h-6h-22.5h-24.6c-0.4,0-0.8,0-1.2,0c-0.4,0-0.8,0.1-1.2,0.2c-0.8,0.2-1.5,0.7-2,1.4
		c-0.2,0.3-0.4,0.7-0.5,1.1c-0.1,0.4-0.1,0.8-0.2,1.2l-0.4,2.4c-2.1,12.9-4.5,27.2-7,42.6l0.1-0.1h-29.5c-0.4,0-0.9,0.2-1.2,0.5
		c-0.6,0.7-0.8,1.6-0.3,2.4c0.2,0.4,0.6,0.7,1,0.9c0.2,0.1,0.4,0.1,0.7,0.1h3.1h91.1h0.1v-0.1c2.2-16.7,4-30.3,5.3-39.8
		c0.3-2.4,0.6-4.5,0.8-6.3l0.2-1.3c0.1-0.4,0.1-0.8,0.1-1.2c0-0.7-0.2-1.4-0.6-2c-0.5-0.8-1.3-1.5-2.2-1.7c-0.2-0.1-0.5-0.1-0.7-0.1
		L690.5,221z"/>
	<path class="st3" d="M656.4,248.4c0,2.1,1.7,3.9,3.9,3.9s3.9-1.7,3.9-3.9c0-2.1-1.7-3.9-3.9-3.9S656.4,246.3,656.4,248.4
		L656.4,248.4z"/>
	<path class="st4" d="M625.8,273c0.1,0,2.1-11.5,4.4-25.8s4.2-25.8,4.1-25.8s-2.1,11.5-4.4,25.8S625.8,273,625.8,273z"/>
</g>
<g id="freepik--character-1--inject-8">
	<path class="st4" d="M160.4,224.2l-13,9.6c1.3,3.9,2.7,7.7,4,11.6C157.2,240,160.5,232.3,160.4,224.2z"/>
	<path class="st4" d="M130.2,201.2c3.5-1.8,7.6-2.3,11.4-1.4c3.8,0.9,7.5,2.4,10.8,4.5c2,1,3.7,2.4,5.2,4c2.5,3.1,5,8.3,5.2,12.3
		c0.2,3.2-1,11.3-2.4,14.3c-1.3,2.7-7.1,4.8-10,5.4l-26.6-30.9C124.7,205.9,127,202.9,130.2,201.2z"/>
	<path class="st4" d="M125.6,205.4l6.4-1.1c-3.5,8.3-4.4,27.3-6.4,36.1c-2.3-3.4-7.8-13.8-7.5-17.9S118,204.6,125.6,205.4z"/>
	<path class="st11" d="M155.8,219.2c-0.2-4.8-3.6-8.8-8.2-10l-14.6-3.8c-6.3-0.7-10.6,7.1-11,13.5c-0.5,7.1-0.8,14.5,0.1,19.8
		c1.7,10.6,9.8,12,9.8,12v8.2l4.9,20.3l16.4-17.7l2.7-42.2C155.9,219.1,155.9,219.4,155.8,219.2z"/>
	<path class="st4" d="M125.1,226.9c0,0.7,0.6,1.4,1.3,1.4c0.7,0.1,1.3-0.5,1.4-1.2c0,0,0,0,0,0c0-0.7-0.6-1.3-1.3-1.4
		C125.8,225.6,125.2,226.1,125.1,226.9C125.1,226.9,125.1,226.9,125.1,226.9z"/>
	<path class="st4" d="M123.5,223.1c0.2,0.2,1.2-0.6,2.7-0.6s2.5,0.7,2.7,0.6s-0.1-0.4-0.6-0.8c-0.6-0.4-1.4-0.7-2.2-0.7
		c-0.8,0-1.5,0.2-2.1,0.7C123.6,222.6,123.5,223,123.5,223.1z"/>
	<path class="st4" d="M137.9,226.9c0,0.7,0.6,1.3,1.3,1.4c0.7,0.1,1.4-0.5,1.4-1.2c0,0,0,0,0,0c0-0.7-0.6-1.3-1.3-1.4
		C138.6,225.6,138,226.2,137.9,226.9C137.9,226.9,137.9,226.9,137.9,226.9z"/>
	<path class="st4" d="M137.5,223.1c0.2,0.2,1.2-0.6,2.7-0.6s2.5,0.8,2.7,0.6s-0.1-0.4-0.6-0.8c-0.6-0.4-1.4-0.7-2.2-0.7
		c-0.8,0-1.5,0.2-2.1,0.7C137.5,222.6,137.4,223,137.5,223.1z"/>
	<path class="st4" d="M132.9,234.6c-0.8-0.2-1.6-0.4-2.4-0.4c-0.4,0-0.7-0.1-0.8-0.4c0-0.4,0.1-0.8,0.3-1.1c0.4-0.9,0.7-1.9,1.1-2.9
		c1.6-4.1,2.7-7.4,2.5-7.4s-1.6,3.2-3.1,7.2c-0.4,1-0.7,1.9-1.1,2.9c-0.2,0.5-0.3,1-0.2,1.5c0.1,0.3,0.3,0.5,0.6,0.6
		c0.2,0.1,0.4,0.1,0.6,0.1C131.3,234.7,132.1,234.7,132.9,234.6z"/>
	<path class="st12" d="M145.9,246.9c0,0-3.4,7.3-14.1,6.3v-2.5C136.8,250.8,141.7,249.5,145.9,246.9z"/>
	<path class="st4" d="M137.9,217.8c0.1,0.4,1.6,0.2,3.3,0.4s3.1,0.7,3.3,0.3c0.1-0.2-0.1-0.5-0.7-0.9c-1.5-1-3.4-1.2-5.1-0.6
		C138.2,217.3,137.9,217.6,137.9,217.8z"/>
	<path class="st4" d="M124,218.6c0.3,0.3,1.3,0,2.5,0s2.2,0.2,2.5-0.1c0.1-0.2-0.1-0.5-0.5-0.8c-0.6-0.4-1.3-0.6-2-0.6
		c-0.7,0-1.4,0.2-2,0.7C124.1,218.1,123.9,218.4,124,218.6z"/>
	<path class="st4" d="M124.8,209.2c0.8-1.6,2.4-2.6,4.1-2.6c1.7,0,3.4,0.5,4.9,1.4c6.3,3.7,9.6,12.5,15.8,16.3
		c1.5,0.9,3.5,0.1,4.9,1.3s2.1,3.2,1.4,4.9c0.9-1.1,1.6-2.3,2.2-3.7c0.5-1.3,0.5-2.9-0.2-4.1c-0.5-0.9-1.5-1.6-1.8-2.7
		c-0.1-0.9,0-1.9,0.1-2.8c-0.1-1-0.5-1.9-1-2.7c-2.4-4.4-5.9-8.1-10.2-10.7c-2.8-1.6-6.1-2.5-9.3-2.4c-3.3,0.1-6.4,1.3-8.9,3.5
		C125.5,206.1,124.1,207.4,124.8,209.2"/>
	<path class="st11" d="M154.4,226.9c0.1-0.3,5.6-2.3,5.7,3.6c0.1,5.7-5.7,4.6-5.7,4.4S154.4,226.9,154.4,226.9z"/>
	<path class="st12" d="M156.1,232.7c0,0,0.1,0.1,0.3,0.1c0.2,0.1,0.5,0.1,0.8,0c0.7-0.5,1.2-1.3,1.1-2.2c0-0.5-0.1-1-0.3-1.4
		c-0.1-0.4-0.4-0.6-0.8-0.8c-0.2-0.1-0.5,0.1-0.6,0.3c-0.1,0.2,0,0.3-0.1,0.3s-0.1-0.1-0.1-0.3c0-0.1,0.1-0.3,0.2-0.4
		c0.2-0.1,0.4-0.2,0.6-0.1c0.5,0.1,0.9,0.4,1.1,0.9c0.2,0.5,0.4,1,0.4,1.6c0.1,1-0.5,2-1.4,2.5c-0.3,0.1-0.6,0-0.9-0.1
		C156.1,232.8,156.1,232.7,156.1,232.7z"/>
	<path class="st9" d="M156.6,223.9c-0.1-0.1-0.2-0.1-0.3-0.2c-0.3-0.2-0.7-0.4-1-0.6c-1.1-0.8-2.2-1.8-3.1-2.8
		c-1.3-1.6-2.6-3.2-3.8-4.9c-1.4-2.1-3-4.1-4.7-5.9c-0.9-0.9-1.9-1.7-3-2.4c-1-0.6-2.1-1.1-3.3-1.5c-2-0.6-4-0.9-6.1-0.8
		c-1.4,0.1-2.7,0.4-4.1,0.8c-0.5,0.1-0.8,0.3-1.1,0.4c-0.1,0.1-0.2,0.1-0.4,0.1l0.3-0.2c0.2-0.1,0.6-0.3,1-0.4
		c1.3-0.5,2.7-0.8,4.1-0.9c2.1-0.2,4.2,0.1,6.1,0.7c1.2,0.4,2.3,0.9,3.4,1.5c1.1,0.7,2.2,1.5,3.1,2.4c1.7,1.8,3.3,3.8,4.7,5.9
		c1.2,1.7,2.4,3.3,3.7,4.9c0.9,1,1.9,2,3,2.9c0.4,0.3,0.7,0.5,0.9,0.6C156.4,223.8,156.5,223.8,156.6,223.9z"/>
	<path class="st3" d="M156.8,233.7c0.6-0.1,1.2,0.3,1.3,0.9s-0.3,1.2-0.9,1.3s-1.2-0.3-1.3-0.9c-0.1-0.5,0.2-1,0.6-1.2"/>
	<path class="st4" d="M156.5,233.8c-0.2,0.2-0.4,0.5-0.5,0.8c-0.1,0.3,0,0.7,0.2,0.9c0.4,0.4,1,0.5,1.4,0.1c0.2-0.2,0.3-0.4,0.4-0.7
		c0-0.3-0.1-0.6-0.3-0.9c-0.3-0.2-0.6-0.3-0.9-0.3c0.1,0,0.2-0.1,0.3-0.1c0.7,0,1.2,0.5,1.2,1.2c0,0,0,0,0,0.1
		c0,0.7-0.6,1.2-1.3,1.1c-0.3,0-0.7-0.2-0.9-0.5c-0.4-0.5-0.4-1.2,0.1-1.7c0,0,0.1,0,0.1-0.1C156.4,233.8,156.5,233.8,156.5,233.8z"
		/>
	<path class="st4" d="M155.2,225.6c0.2,1.6,0,3.1-0.6,4.6c-0.7,1.4-2.5,2.3-3.9,1.6c-1.1-0.6-1.4-2-1.6-3.3c-0.5-3.6-0.8-7.3-1.4-11
		L155.2,225.6z"/>
	<path class="st9" d="M126.2,206.5c0,0,0.5-0.1,1.4-0.1c1.3,0,2.6,0.2,3.8,0.7c0.8,0.3,1.6,0.7,2.4,1.2c0.9,0.6,1.7,1.2,2.4,1.9
		c1.8,1.5,3.4,3.3,4.8,5.2c0.7,1,1.4,2.1,2.1,3c0.7,0.9,1.4,1.8,2.3,2.6c1.5,1.3,3.1,2.3,4.8,3.2c1.5,0.8,2.7,1.3,3.5,1.7l1,0.4
		c0.1,0.1,0.2,0.1,0.4,0.1c-0.1-0.1-0.2-0.1-0.3-0.2l-0.9-0.5c-0.8-0.4-2-1-3.5-1.8c-1.7-0.9-3.3-2-4.8-3.3
		c-0.8-0.8-1.6-1.6-2.2-2.5c-0.7-1-1.3-2-2.1-3.1c-1.4-1.9-3-3.7-4.9-5.2c-0.8-0.7-1.6-1.3-2.5-1.9c-0.8-0.5-1.6-0.9-2.4-1.2
		c-1.2-0.5-2.6-0.7-3.9-0.6c-0.4,0-0.7,0.1-1.1,0.1C126.5,206.4,126.4,206.4,126.2,206.5z"/>
	<path class="st9" d="M155.4,222c0.2,0.1,0.3,0.3,0.5,0.3l1.4,0.9l0.5,0.3c0.2,0.1,0.4,0.2,0.6,0.2c0.1,0,0.3,0,0.4-0.1
		c0.1-0.1,0.2-0.2,0.2-0.4c0-0.3-0.1-0.5-0.3-0.7l-1.7-2.7l-0.2,0.2c0.6,0.4,1.2,0.7,1.8,0.9c0.7,0.2,1.4,0.3,2.1,0.3
		c0.2,0,0.4,0,0.5-0.1c0.2-0.1,0.4-0.2,0.4-0.4c0.1-0.2,0-0.4-0.1-0.6c-0.1-0.1-0.2-0.2-0.3-0.4c-0.8-0.7-1.4-1.6-1.9-2.4
		c-0.5-0.8-0.9-1.7-1.2-2.6c0,0.3,0.1,0.5,0.2,0.8c0.2,0.7,0.5,1.4,0.9,2c0.5,0.9,1.2,1.8,1.9,2.6c0.2,0.2,0.4,0.4,0.3,0.6
		s-0.4,0.3-0.7,0.3c-0.7,0-1.3,0-1.9-0.2c-0.6-0.2-1.2-0.5-1.7-0.9l-0.7-0.5l0.4,0.7l1.7,2.7c0.1,0.2,0.2,0.3,0.2,0.6
		c0,0.2-0.2,0.3-0.3,0.3c0,0,0,0,0,0c-0.4-0.1-0.7-0.2-1-0.4l-1.5-0.8C155.8,222.2,155.6,222.1,155.4,222z"/>
	<path class="st12" d="M138.4,237.3c-0.2-0.9-1.1-1.5-2-1.4c-0.7,0.1-1.2,0.5-1.5,1.1c-0.3,0.6-0.3,1.3-0.1,1.9v0.1
		c0.6,0.7,1.6,0.9,2.4,0.5C138.1,239.1,138.6,238.2,138.4,237.3z"/>
	<path class="st4" d="M133.8,239c0-0.2,1.5-0.2,2.6-1.4s1-2.8,1.2-2.8s0.3,0.4,0.3,1c0,0.9-0.4,1.7-0.9,2.3c-0.6,0.6-1.3,1-2.2,1.1
		C134.2,239.3,133.8,239.1,133.8,239z"/>
	<path class="st0" d="M111.2,352.6c1.3-6.9,5.6-30.1,5.6-34.8c0-0.8-1.2-3.2-1.4-3.9c-1.3-4.2-5.6-19.6-4.6-27.7
		c0.8-6.5,6.3-14.8,7.9-19.2c0.8-2.1,6.9-4.2,9-5.1l4.4-6.2c0,0-1,2.9,2.9,5.4c2.1,1.3,4.5,2,7,1.9c5-0.2,9.6-2.5,12.9-6.3l0.7,0.6
		c14.1,4.5,14,4.6,16.7,5.7c3.5,1.5-7.6,37.3-7.6,37.3s-6.5,24.2-3,31.7c2,4.2,8.7,11.2,10.4,15.1c0,0,2.9,4.1,3,5.1
		s-17.4,8.6-31.2,9.4C118.4,363,111.2,352.6,111.2,352.6z"/>
	<path class="st4" d="M112.9,415.5h104.4c2.1,0,3.8,1.7,3.8,3.8v21.6c0,2.1-1.7,3.8-3.8,3.8H112.9c-2.1,0-3.8-1.7-3.8-3.8v-21.6
		C109.1,417.2,110.8,415.5,112.9,415.5z"/>
	<path class="st3" d="M160.2,422.4h48.2c0.4,0,0.7,0.3,0.7,0.7v15c0,0.4-0.3,0.7-0.7,0.7h-48.2c-0.4,0-0.7-0.3-0.7-0.7v-15
		C159.5,422.7,159.8,422.4,160.2,422.4z"/>
	<circle class="st4" cx="134.6" cy="430.7" r="6"/>
	<path class="st2" d="M134.6,437.6c-3.9,0-7-3.1-7-7s3.1-7,7-7s7,3.1,7,7S138.5,437.6,134.6,437.6z M134.6,425.7c-2.8,0-5,2.2-5,5
		s2.2,5,5,5s5-2.2,5-5C139.6,427.9,137.4,425.7,134.6,425.7L134.6,425.7z"/>
	<path class="st2" d="M164.7,425.2c0.3,3.7,0.3,7.3,0,11C164.4,432.6,164.4,428.9,164.7,425.2z"/>
	<path class="st2" d="M169.5,425.2c0.3,3.7,0.3,7.3,0,11C169.2,432.6,169.2,428.9,169.5,425.2z"/>
	<path class="st2" d="M174.4,425.2c0.3,3.7,0.3,7.3,0,11C174,432.6,174,428.9,174.4,425.2z"/>
	<path class="st2" d="M179.2,425.2c0.3,3.7,0.3,7.3,0,11C178.8,432.6,178.8,428.9,179.2,425.2z"/>
	<path class="st2" d="M184,425.2c0.3,3.7,0.3,7.3,0,11C183.7,432.6,183.7,428.9,184,425.2z"/>
	<path class="st2" d="M188.9,425.2c0.3,3.7,0.3,7.3,0,11C188.5,432.6,188.5,428.9,188.9,425.2z"/>
	<path class="st2" d="M193.7,425.2c0.3,3.7,0.3,7.3,0,11C193.3,432.6,193.3,428.9,193.7,425.2z"/>
	<path class="st2" d="M198.5,425.2c0.3,3.7,0.3,7.3,0,11C198.2,432.6,198.2,428.9,198.5,425.2z"/>
	<path class="st2" d="M203.3,425.2c0.3,3.7,0.3,7.3,0,11C203,432.6,203,428.9,203.3,425.2z"/>
	<path class="st9" d="M112.9,387.4h104.4c2.1,0,3.8,1.7,3.8,3.8v21.6c0,2.1-1.7,3.8-3.8,3.8H112.9c-2.1,0-3.8-1.7-3.8-3.8v-21.6
		C109.1,389.1,110.8,387.4,112.9,387.4z"/>
	<path class="st3" d="M160.2,394.4h48.2c0.4,0,0.7,0.3,0.7,0.7v15c0,0.4-0.3,0.7-0.7,0.7h-48.2c-0.4,0-0.7-0.3-0.7-0.7v-15
		C159.5,394.7,159.8,394.4,160.2,394.4z"/>
	<circle class="st4" cx="134.6" cy="402.6" r="6"/>
	<path class="st2" d="M134.6,409.5c-3.9,0-7-3.1-7-7s3.1-7,7-7s7,3.1,7,7l0,0C141.6,406.4,138.5,409.5,134.6,409.5z M134.6,397.6
		c-2.8,0-5,2.2-5,5c0,2.8,2.2,5,5,5c2.8,0,5-2.2,5-5c0,0,0,0,0,0C139.6,399.8,137.4,397.6,134.6,397.6L134.6,397.6z"/>
	<path class="st2" d="M164.7,397.2c0.3,3.7,0.3,7.3,0,11C164.4,404.5,164.4,400.8,164.7,397.2z"/>
	<path class="st2" d="M169.5,397.2c0.3,3.7,0.3,7.3,0,11C169.2,404.5,169.2,400.8,169.5,397.2z"/>
	<path class="st2" d="M174.4,397.2c0.3,3.7,0.3,7.3,0,11C174,404.5,174,400.8,174.4,397.2z"/>
	<path class="st2" d="M179.2,397.2c0.3,3.7,0.3,7.3,0,11C178.8,404.5,178.8,400.8,179.2,397.2z"/>
	<path class="st2" d="M184,397.2c0.3,3.7,0.3,7.3,0,11C183.7,404.5,183.7,400.8,184,397.2z"/>
	<path class="st2" d="M188.9,397.2c0.3,3.7,0.3,7.3,0,11C188.5,404.5,188.5,400.8,188.9,397.2z"/>
	<path class="st2" d="M193.7,397.2c0.3,3.7,0.3,7.3,0,11C193.3,404.5,193.3,400.8,193.7,397.2z"/>
	<path class="st2" d="M198.5,397.2c0.3,3.7,0.3,7.3,0,11C198.2,404.5,198.2,400.8,198.5,397.2z"/>
	<path class="st2" d="M203.3,397.2c0.3,3.7,0.3,7.3,0,11C203,404.5,203,400.8,203.3,397.2z"/>
	<path class="st2" d="M112.9,444.8h104.4c2.1,0,3.8,1.7,3.8,3.8v21.6c0,2.1-1.7,3.8-3.8,3.8H112.9c-2.1,0-3.8-1.7-3.8-3.8v-21.6
		C109.1,446.5,110.8,444.8,112.9,444.8z"/>
	<path class="st3" d="M160.2,451.7h48.2c0.4,0,0.7,0.3,0.7,0.7v15c0,0.4-0.3,0.7-0.7,0.7h-48.2c-0.4,0-0.7-0.3-0.7-0.7v-15
		C159.5,452.1,159.8,451.7,160.2,451.7z"/>
	<path class="st4" d="M140.6,460c0-3.3-2.7-6-6-6s-6,2.7-6,6s2.7,6,6,6S140.6,463.3,140.6,460z"/>
	<path class="st0" d="M134.6,466.9c-3.9,0-7-3.1-7-7s3.1-7,7-7s7,3.1,7,7S138.5,466.9,134.6,466.9z M134.6,455c-2.8,0-5,2.2-5,5
		s2.2,5,5,5s5-2.2,5-5C139.7,457.2,137.4,455,134.6,455C134.7,455,134.7,455,134.6,455L134.6,455z"/>
	<path class="st2" d="M164.7,454.5c0.3,3.7,0.3,7.3,0,11C164.4,461.9,164.4,458.2,164.7,454.5z"/>
	<path class="st2" d="M169.5,454.5c0.3,3.7,0.3,7.3,0,11C169.2,461.9,169.2,458.2,169.5,454.5z"/>
	<path class="st2" d="M174.4,454.5c0.3,3.7,0.3,7.3,0,11C174,461.9,174,458.2,174.4,454.5z"/>
	<path class="st2" d="M179.2,454.5c0.3,3.7,0.3,7.3,0,11C178.8,461.9,178.8,458.2,179.2,454.5z"/>
	<path class="st2" d="M184,454.5c0.3,3.7,0.3,7.3,0,11C183.7,461.9,183.7,458.2,184,454.5z"/>
	<path class="st2" d="M188.9,454.5c0.3,3.7,0.3,7.3,0,11C188.5,461.9,188.5,458.2,188.9,454.5z"/>
	<path class="st2" d="M193.7,454.5c0.3,3.7,0.3,7.3,0,11C193.3,461.9,193.3,458.2,193.7,454.5z"/>
	<path class="st2" d="M198.5,454.5c0.3,3.7,0.3,7.3,0,11C198.2,461.9,198.2,458.2,198.5,454.5z"/>
	<path class="st2" d="M203.3,454.5c0.3,3.7,0.3,7.3,0,11C203,461.9,203,458.2,203.3,454.5z"/>
	<path class="st9" d="M55.4,415.1L47.1,433c0,0-20.7-2.7-22.6,0.4l33.8,17.6l14.1-27.4L55.4,415.1z"/>
	<path class="st2" d="M58.2,436.8c0.6,0.6,0.6,1.5,0.2,2.1c-0.5,0.6-1.5,0.7-2.1,0.2c-0.6-0.6-0.7-1.6-0.2-2.2
		c0.6-0.6,1.6-0.5,2.2,0.1"/>
	<path class="st4" d="M58.4,451.1l1.1-2.2l-33.2-16.5c-0.8,0.1-1.5,0.5-2,1.1L58.4,451.1z"/>
	<path class="st4" d="M46.8,433c-0.1,0.2,0.7,0.7,1.3,1.6s0.6,1.9,0.8,1.9s0.4-1.1-0.3-2.2S46.8,432.8,46.8,433z"/>
	<path class="st4" d="M42.4,432.6c-0.1,0.1,0.5,0.8,0.7,1.8s0,1.8,0.2,1.9s0.8-0.8,0.5-2S42.5,432.5,42.4,432.6z"/>
	<path class="st4" d="M38.2,435.9c0.1,0.1,0.8-0.6,0.8-1.8s-0.6-1.9-0.7-1.8s0.1,0.8,0,1.8S38,435.8,38.2,435.9z"/>
	<path class="st4" d="M49.1,429.1c0,0.2,0.9,0.3,1.8,0.9s1.5,1.2,1.7,1.1s-0.3-1.1-1.3-1.7S49.1,428.9,49.1,429.1z"/>
	<path class="st4" d="M50.4,425c0,0.1,0.6,0.5,1.7,0.9c0.7,0.2,1.4,0.3,2.1,0.4c0.4,0,0.8,0,1.3,0c0.2,0,0.5-0.1,0.7-0.1
		c0.3-0.1,0.6-0.5,0.5-0.9c-0.1-0.3-0.3-0.6-0.5-0.8c-0.2-0.1-0.5-0.2-0.7-0.2c-0.4-0.1-0.8-0.2-1.3-0.2c-0.7,0-1.4,0-2.1,0.2
		c-1.2,0.3-1.8,0.8-1.7,0.9s0.7-0.2,1.8-0.4c0.7-0.1,1.3-0.1,2-0.1c0.4,0,0.8,0.1,1.1,0.2c0.4,0.1,0.7,0.2,0.7,0.5s0,0.1-0.1,0.2
		c-0.2,0.1-0.3,0.1-0.5,0.1c-0.4,0-0.8,0.1-1.2,0.1c-0.7,0-1.3-0.1-2-0.2C51.7,425.3,51.1,425.1,50.4,425z"/>
	<path class="st9" d="M87.6,443.9l1.1,19.7c0,0-19.6,7.3-19.7,10.9l38.2-0.3l-0.4-30.8L87.6,443.9z"/>
	<path class="st2" d="M100.2,461.8c0.8,0.2,1.3,1,1.1,1.8c-0.2,0.8-1,1.3-1.8,1.1c-0.8-0.2-1.3-1.1-1.2-1.9c0.3-0.8,1.2-1.3,2-1
		c0,0,0,0,0,0"/>
	<path class="st4" d="M107.1,474.3v-2.5l-37,1c-0.7,0.4-1.1,1.1-1.3,1.9L107.1,474.3z"/>
	<path class="st4" d="M88.3,463.7c0,0.2,1,0.3,1.9,0.8s1.4,1.4,1.6,1.3s-0.1-1.2-1.3-1.9S88.3,463.5,88.3,463.7z"/>
	<path class="st4" d="M84.3,465.5c0,0.2,0.8,0.5,1.4,1.3s0.8,1.6,1,1.6s0.3-1.1-0.5-2S84.3,465.3,84.3,465.5z"/>
	<path class="st4" d="M82.1,470.3c0.2,0,0.4-0.9-0.1-1.9s-1.4-1.4-1.5-1.3s0.5,0.7,0.9,1.5S81.9,470.3,82.1,470.3z"/>
	<path class="st4" d="M88.6,459.2c0.1,0.2,0.9-0.1,2,0s1.9,0.4,2,0.2s-0.7-0.8-2-0.9S88.5,459,88.6,459.2z"/>
	<path class="st4" d="M87.8,454.9c0.6,0.2,1.3,0.2,1.9,0c0.7-0.1,1.4-0.4,2-0.6c0.4-0.2,0.7-0.4,1.1-0.6c0.2-0.1,0.4-0.3,0.6-0.5
		c0.2-0.3,0.3-0.7,0.1-1c-0.2-0.3-0.5-0.4-0.8-0.4c-0.2,0-0.5,0-0.7,0.1c-0.4,0.1-0.8,0.3-1.2,0.4c-0.6,0.3-1.2,0.7-1.8,1.2
		c-0.9,0.8-1.2,1.5-1.1,1.6s0.5-0.5,1.4-1.2c0.5-0.4,1.1-0.7,1.7-1c0.4-0.1,0.7-0.3,1.1-0.4c0.4-0.1,0.8-0.1,0.9,0.1s0,0.1,0,0.2
		c-0.1,0.1-0.3,0.2-0.4,0.3c-0.3,0.2-0.7,0.4-1,0.6c-0.6,0.3-1.2,0.6-1.8,0.8C89.1,454.6,88.5,454.7,87.8,454.9z"/>
	<path class="st4" d="M174.9,349.3c0,0-78.2-9.3-82.7-9.3c-10.6,0-15.5,7.8-17.1,14c-1.2,4.6-24.7,71.1-24.7,71.1l17.4,9l25.5-45.4
		l13-22.6l67.1,10.4L174.9,349.3z"/>
	<path class="st4" d="M103.2,364c0,0-10.5,0-16.1,8.4c-3.3,4.9-2.2,13.7-2.2,20.4c-0.1,9,2.1,64.2,2.1,64.2l21.4,0.4l4.5-57.5
		l-0.3-10.6l42.8-3.5c0,0,3.9-13-5.7-23.2C148.5,361.2,103.2,364,103.2,364z"/>
	<path class="st4" d="M174.9,350.4c0,0,6.7,15.4-2.3,28.6c-6,8.7-17.4,6.7-17.4,6.7l-15.2-19l12.1-18.9L174.9,350.4z"/>
	<path class="st9" d="M86.9,457c0.1,0,0.3,0,0.4,0h1.1h4.3l15.7,0.2l-0.2,0.2c0.8-11.5,1.9-27.1,3.2-44.1c0.4-5.5,0.8-10.9,1.2-16.1
		l0,0c-0.1-2.7-0.1-5.4-0.2-7.9V389h0.2c12.2-1,22.5-1.9,29.9-2.5c3.7-0.3,6.6-0.6,8.6-0.8c1-0.1,1.8-0.2,2.3-0.3
		c0.3-0.1,0.5-0.1,0.8-0.1c-0.2,0.1-0.5,0.2-0.8,0.2c-0.5,0.1-1.3,0.2-2.3,0.4c-2,0.3-4.9,0.6-8.5,1c-7.3,0.8-17.7,1.7-29.8,2.7
		l0.2-0.3c0.1,2.6,0.1,5.2,0.2,7.9l0,0l0,0c-0.4,5.1-0.8,10.5-1.2,16.1c-1.3,17-2.4,32.6-3.3,44.1v0.2h-0.2l-15.7-0.4l-4.3-0.1
		l-1.1-0.1H86.9z"/>
	<path class="st9" d="M155.2,385.7c0,0-0.1-0.1-0.3-0.1l-0.9-0.4l-3.3-1.5l-12.2-5.4l-18.1-8l-10.7-4.7c-0.9-0.4-1.8-0.9-2.8-1.2
		c-1-0.3-2-0.6-3-0.8c-2.1-0.3-4.3-0.3-6.4-0.1c-2.1,0.3-4.2,0.8-6.2,1.8c-1,0.4-1.9,1-2.7,1.7c-0.8,0.7-1.4,1.5-1.9,2.4
		c-1,1.8-1.6,3.7-1.8,5.7c-0.1,1,0,2,0,2.9s0,1.9,0,2.8c0.1,7.4,0.2,14.1,0.2,19.7s0.1,10.1,0.2,13.3c0,1.5,0,2.8,0.1,3.6v0.9
		c0,0.1,0,0.2,0,0.3c0,0,0-0.1,0-0.3s0-0.5,0-1c0-0.9,0-2.1,0-3.6c0-3.2,0-7.7-0.1-13.3s-0.1-12.3-0.1-19.8c0-0.9,0-1.9,0-2.8
		s0-1.9,0-2.9c0.2-2,0.8-3.8,1.7-5.5c0.5-0.9,1.1-1.7,1.9-2.3c0.8-0.7,1.6-1.2,2.5-1.7c1.9-0.9,3.9-1.5,6-1.7c2.1-0.3,4.2-0.3,6.3,0
		c1,0.2,2,0.4,3,0.8c1,0.3,1.9,0.8,2.8,1.2l10.7,4.7l18.1,7.9l12.2,5.3l3.3,1.4l0.9,0.4L155.2,385.7z"/>
	<path class="st4" d="M116.5,308.8c0-0.4-0.1-0.8-0.2-1.3c-0.1-0.8-0.3-2-0.5-3.4s-0.3-3.1-0.3-5.1c0-4.1,0.4-8.3,1.4-12.3
		c0.4-1.6,0.9-3.3,1.5-4.9c0.5-1.4,0.9-2.5,1.2-3.2c0.2-0.4,0.3-0.8,0.4-1.2c-0.2,0.4-0.4,0.7-0.6,1.1c-0.4,0.7-0.8,1.8-1.4,3.2
		c-0.6,1.6-1.1,3.2-1.6,4.9c-1,4.1-1.5,8.2-1.4,12.4c0,1.7,0.2,3.4,0.4,5.1c0.1,1.1,0.3,2.3,0.6,3.4
		C116.2,308,116.4,308.4,116.5,308.8z"/>
	<path class="st5" d="M132.1,255.7v-3.2l-3.7,6l-7.6,2.8c-2.4,2.7-10.1,33.5-8.5,38.6l2.7,30.1l-7.7,11.5l13.7,1.5
		c0,0,2.9-2.9,2.2-10.6c-1.9-19.5,0.1-41.8,0.3-46.8C124,278.3,132.1,255.7,132.1,255.7z"/>
	<path class="st5" d="M128.3,258.6c0,0-12.4,4.1-14,6.4c-4.4,6.4-31,49.8-18,62.7c8.6,8.5,20.6-9.4,20.6-9.4L128.3,258.6z"/>
	<path class="st4" d="M98,310.4c0.4,0,0.8-0.1,1.1-0.2l3.1-0.7c2.6-0.6,6.3-1.3,10.5-2l-0.2-0.1c0.4,1,0.8,2.1,1.3,3.2
		c1.1,2.8,2.1,5.4,3,7.6v-0.2l-4.7,5.9l-1.3,1.7c-0.2,0.2-0.3,0.4-0.4,0.6c0.2-0.2,0.4-0.3,0.5-0.5l1.4-1.6l4.8-5.7l0.1-0.1v-0.1
		c-0.9-2.3-1.9-4.9-3-7.6c-0.4-1.1-0.9-2.2-1.3-3.2l-0.1-0.2h-0.2c-4.2,0.7-7.9,1.5-10.5,2.1c-1.3,0.3-2.3,0.6-3.1,0.8
		C98.7,310.2,98.3,310.3,98,310.4z"/>
	<path class="st4" d="M110.7,307c0-0.5-0.1-0.9-0.1-1.4c-0.1-1-0.3-2.2-0.5-3.8c-0.6-4.1-0.7-8.3-0.4-12.4c0.4-4.1,1.6-8.2,3.4-11.9
		c0.7-1.4,1.3-2.6,1.8-3.3c0.3-0.4,0.5-0.8,0.7-1.2c-0.1,0.1-0.2,0.2-0.2,0.3c-0.1,0.2-0.3,0.5-0.6,0.9c-0.5,0.8-1.2,1.9-1.9,3.3
		c-2,3.7-3.2,7.8-3.6,12c-0.3,4.2-0.1,8.4,0.5,12.5c0.2,1.6,0.4,2.9,0.6,3.7C110.5,306.1,110.6,306.6,110.7,307z"/>
	<path class="st4" d="M121.9,301.8c0-0.2,0-0.3,0-0.5c0-0.4-0.1-0.8-0.1-1.4c-0.1-1.3-0.3-3-0.5-5.2s-0.5-4.8-0.8-7.7
		c-0.1-1.5-0.3-3-0.4-4.6c-0.1-0.8-0.1-1.6-0.1-2.4c0-0.8,0.2-1.6,0.7-2.3c0.5-0.8,1.3-1.3,2.2-1.3h0.8L123,276l-3.3-2.2l0.1,0.3
		l6.4-10.9l1.8-3.2l0.5-0.9c0.1-0.1,0.1-0.2,0.1-0.3c-0.1,0.1-0.1,0.2-0.2,0.3c-0.1,0.2-0.3,0.5-0.5,0.8l-1.9,3.1l-6.5,10.8
		l-0.1,0.2l0.2,0.1l3.3,2.2l0.1-0.4c-1.1,0-2,0.6-2.6,1.5c-0.5,0.7-0.7,1.6-0.7,2.5c0,0.8,0,1.6,0.1,2.5c0.2,1.6,0.3,3.1,0.5,4.6
		c0.3,2.9,0.6,5.5,0.8,7.7s0.4,3.9,0.6,5.2c0.1,0.6,0.1,1,0.2,1.4C121.8,301.5,121.8,301.6,121.9,301.8z"/>
	<path class="st5" d="M153.6,253.3l3.7,4l13.8,4.3c-0.5,10.1-1.5,20.2-3.3,30.1c-3,17-4.7,34.3-4.8,34.5c-0.7-1.3,6.9,9.1,11.1,19.4
		c3.3,8,5.1,24.8,5.1,24.8L144.6,381l-5.9-62.8l1.5-29L153.6,253.3z"/>
	<path class="st4" d="M140.3,304.8c0.1-0.2,0.2-0.3,0.3-0.5l0.7-1.5c0.6-1.3,1.4-3.2,2.5-5.5c2.8-6.1,6-12,9.4-17.7l1-1.6l0.1-0.2
		l-0.2-0.1l-3.9-1.6v0.4c1.3-1.1,2.7-1.8,4.3-2.2h0.1V274c0.2-2.3,0.7-4.6,1.2-6.9c0.5-2,0.9-3.9,1.1-5.4c0.2-1.2,0.3-2.4,0.4-3.6
		c0-0.4,0-0.7,0-1c0-0.1,0-0.2,0-0.3c-0.1,0.4-0.1,0.9-0.1,1.3c-0.1,1.2-0.2,2.4-0.5,3.5c-0.3,1.5-0.7,3.3-1.2,5.4
		c-0.6,2.3-1,4.6-1.3,6.9l0.1-0.2c-1.7,0.4-3.2,1.2-4.5,2.2l-0.3,0.2l0.3,0.1l3.9,1.6l-0.1-0.3l-1,1.6c-3.4,5.8-6.5,11.7-9.3,17.8
		c-1,2.4-1.9,4.3-2.4,5.6l-0.6,1.5C140.3,304.4,140.3,304.6,140.3,304.8z"/>
	<path class="st4" d="M168.7,347.8c0.1,0.2,0.2,0.3,0.3,0.4l0.9,1.1l3.4,4.1l0.1-0.3l-16.4,3.1l0.2,0.1c-0.1-0.1-0.2-0.2-0.3-0.4
		l-4.6-6.4l-0.1,0.3l11.8-1.5l3.4-0.5l0.9-0.1L168.7,347.8c0,0-0.1,0-0.3,0l-0.9,0.1l-3.4,0.4l-11.9,1.4h-0.3l0.2,0.3l4.6,6.4
		c0.1,0.1,0.2,0.3,0.3,0.4l0.1,0.1h0.1l16.4-3.2h0.3l-0.2-0.2l-3.5-4.1l-1-1.1C168.8,347.9,168.7,347.8,168.7,347.8z"/>
	<g class="st8">
		<polygon points="171.3,353.9 172.4,356 156.9,359.3 153.1,351.2 157,356.6 		"/>
	</g>
	<path class="st2" d="M56.3,303.9l8.4,41.5h73.3c0.8,0,1.5-0.7,1.5-1.5l0,0c0-0.8-0.6-1.5-1.4-1.5c0,0,0,0,0,0h-14.8l-7.8-38.5
		c-0.2-0.7-0.8-1.3-1.6-1.3l-56-0.6c-0.9,0-1.6,0.7-1.6,1.6C56.3,303.6,56.3,303.7,56.3,303.9z"/>
	<path class="st4" d="M56.3,303.9c0,0,0-0.1,0-0.1c0-0.1,0-0.3,0-0.4c0.1-0.5,0.3-1,0.8-1.2c0.1-0.1,0.3-0.2,0.5-0.2
		c0.2,0,0.4,0,0.6,0h1.3h3.3l21.2,0.2l14.8,0.1l8.3,0.1l4.3,0h2.2c0.2,0,0.4,0,0.6,0c0.2,0,0.4,0.1,0.6,0.2c0.4,0.2,0.6,0.5,0.8,0.8
		c0.1,0.2,0.1,0.4,0.2,0.6l0.1,0.5c0.1,0.4,0.2,0.8,0.2,1.1c0.2,0.8,0.3,1.5,0.5,2.3c0.3,1.5,0.6,3,0.9,4.6c0.6,3.1,1.3,6.3,2,9.5
		c1.3,6.5,2.7,13.3,4.1,20.2l-0.1-0.1h14.5c0.2,0,0.4,0,0.6,0c0.8,0.2,1.4,1,1.2,1.8c-0.1,0.4-0.4,0.8-0.8,1.1
		c-0.2,0.1-0.4,0.2-0.7,0.2h-39H64.8h-0.1v-0.1c-2.6-12.7-4.7-23-6.1-30.3c-0.7-3.6-1.3-6.4-1.7-8.3c-0.2-1-0.3-1.7-0.4-2.2
		S56.3,303.8,56.3,303.9c0,0,0.1,0.2,0.2,0.7s0.3,1.2,0.5,2.1c0.4,1.9,1,4.7,1.7,8.3l6.2,30.3l-0.1-0.1h73.3c0.2,0,0.4-0.1,0.6-0.2
		c0.4-0.2,0.6-0.6,0.7-1c0.1-0.4,0-0.7-0.2-1c-0.2-0.3-0.5-0.5-0.8-0.5c-0.2,0-0.3,0-0.5,0h-14.6v-0.1l-4.1-20.2
		c-0.7-3.2-1.3-6.4-1.9-9.5c-0.3-1.5-0.6-3.1-0.9-4.6c-0.2-0.8-0.3-1.5-0.5-2.3l-0.2-1.1l-0.1-0.6c0-0.2-0.1-0.4-0.1-0.5
		c-0.2-0.5-0.7-0.8-1.2-0.9h-0.6h-2.2l-4.3,0l-8.3-0.1l-14.8-0.2L62.8,302h-3.3h-1.3c-0.2,0-0.4,0-0.6,0c-0.2,0-0.3,0.1-0.5,0.2
		c-0.4,0.3-0.7,0.7-0.8,1.2C56.3,303.5,56.3,303.7,56.3,303.9z"/>
	<circle class="st3" cx="87.7" cy="322.8" r="2.4"/>
	<path class="st4" d="M56.4,304.2h3.8l10.5,0l34.6,0.2h5h1.2c0.2,0,0.4,0,0.6,0c0.2,0,0.4,0.1,0.6,0.2c0.4,0.2,0.6,0.6,0.8,1
		c0.1,0.4,0.2,0.8,0.2,1.2c0.6,3.1,1.2,6.1,1.8,9c1.1,5.7,2.2,10.9,3,15.2s1.5,7.9,2,10.3c0.2,1.2,0.4,2.1,0.5,2.8
		c0.1,0.3,0.1,0.6,0.1,0.7s0,0.3,0,0.3l-0.1-0.2c0-0.2-0.1-0.4-0.2-0.7c-0.1-0.6-0.3-1.6-0.6-2.8c-0.5-2.4-1.2-5.9-2.1-10.3
		s-1.9-9.5-3.1-15.2c-0.6-2.9-1.2-5.9-1.8-9c-0.1-0.4-0.2-0.8-0.2-1.2c-0.1-0.4-0.3-0.7-0.7-0.9c-0.2-0.1-0.3-0.2-0.5-0.2
		c-0.2,0-0.4,0-0.6,0h-1.2h-5l-34.6-0.3l-10.5-0.1h-2.8h-0.8L56.4,304.2z"/>
	<path class="st11" d="M132.1,322.5L132.1,322.5z"/>
	<path class="st11" d="M132.2,322.6L132.2,322.6L132.2,322.6z"/>
	<path class="st11" d="M132.1,322.5l0.1,0.1L132.1,322.5z"/>
	<path class="st11" d="M132,322.5L132,322.5L132,322.5z"/>
	<path class="st11" d="M117.6,332.9c1.4-2,10.7-6.5,10.7-6.5l-2.3-0.8l-2.7,0.8c-0.3,0.9-0.8,1.6-1.4,2.3c-1.1,1.2-2.6-0.4-2.6-0.4
		l1.7-5.1l5.5-2.5c1.9,0.5,3.7,1.1,5.5,1.8l1.8,2.1c0.8,0.8,3.1,3.9,3.8,4.1c0.2,0,6.7-2.1,6.7-2.1l2.7,11.9l-9.9,0.9l-6,0.9
		c-1.6,0.5-3.3,0.8-5,1.1c-2,0.2-3.2-0.6-3.1-1.7s1.6-1,1.6-1c1.4-0.3,2.7-0.7,4-1.2c1-0.5,1.8-1.2,2.4-2.1h-2.2
		c0,0-4.8,2.5-6.6,3.3s-1.9-1-2-1.5s5.6-4.9,5.6-4.9s-5.2,2.4-6.2,3.1s-2.3,0.7-2.5,0.2S116.2,334.9,117.6,332.9z"/>
	<path class="st11" d="M132.3,322.7L132.3,322.7L132.3,322.7z"/>
	<path class="st11" d="M132.3,322.7"/>
	<path class="st11" d="M132.3,322.7L132.3,322.7z"/>
	<path class="st12" d="M141.4,336.2c0,0,0-0.1,0.1-0.3c0-0.1,0-0.3,0-0.4c0-0.2,0-0.4,0-0.5c-0.2-1-0.5-2-1.1-2.9
		c-0.5-0.9-1.2-1.7-1.9-2.5c-0.3-0.3-0.6-0.6-0.9-0.9c0.2,0.3,0.5,0.7,0.8,1c0.7,0.8,1.3,1.6,1.8,2.5c0.5,0.9,0.9,1.8,1.1,2.8
		C141.4,335.4,141.4,335.8,141.4,336.2z"/>
	<path class="st12" d="M128.5,326.3c0.5,0.2,1,0.2,1.5,0c0.5-0.1,1-0.3,1.4-0.6c0,0-0.6,0.3-1.4,0.4S128.5,326.2,128.5,326.3z"/>
	<path class="st12" d="M126.4,331.9c0.8-0.1,1.6-0.3,2.3-0.5c0.8-0.2,1.5-0.4,2.3-0.7c-0.8,0.1-1.6,0.3-2.3,0.5
		C127.9,331.3,127.1,331.6,126.4,331.9z"/>
	<path class="st12" d="M130.7,335.4c0.8-0.1,1.6-0.3,2.3-0.6c-0.4,0-0.8,0-1.2,0.1C131.4,335,131,335.1,130.7,335.4z"/>
	<path class="st12" d="M127.1,332.3c0.3,0.2,0.6,0.5,0.8,0.9c0.2,0.3,0.3,0.7,0.4,1.1c0,0,0.1-0.1,0.1-0.4c0-0.6-0.4-1.1-0.9-1.5
		C127.2,332.3,127.1,332.3,127.1,332.3z"/>
	<path class="st12" d="M125.4,328.9c0,0,0.3,0.3,0.5,0.8c0.1,0.3,0.2,0.6,0.2,0.9c0.2-0.3,0.2-0.7,0-1
		C125.9,329,125.4,328.8,125.4,328.9z"/>
	<path class="st12" d="M126.8,323.2c0,0,0.1-0.1,0.2-0.3c0.1-0.2,0.1-0.5,0.1-0.8c0-0.3-0.1-0.5-0.3-0.7c-0.1-0.2-0.2-0.2-0.2-0.2
		c0.1,0.3,0.3,0.6,0.3,0.9C126.9,322.6,126.8,322.9,126.8,323.2z"/>
	<path class="st5" d="M171,261.6c4.1,1.8,7.1,5.4,8.2,9.7c0,0,1.5,4.5,2.6,9.6c2.6,12.3,7.4,33.4,7.6,39.5
		c0.4,11.1-7.6,14.3-12.1,15.2s-32.5,4.4-32.5,4.4l-4.9-13.8l28.5-12.4c0,0-5.4-18.7-6.7-24.5"/>
	<path class="st4" d="M161.7,289.3c0,0,0,0.1,0.1,0.4s0.2,0.7,0.3,1.3c0.3,1.1,0.7,2.8,1.3,4.9c1.2,4.2,2.9,10.3,5.1,17.9v0.1
		l-0.1,0.1L140,326.5l0.1-0.3c1.6,4.4,3.2,9,4.9,13.8l-0.3-0.2c7.3-0.9,15-1.9,23-3c3.2-0.5,6.4-0.9,9.5-1.5c3-0.6,5.8-2,8.1-4.1
		c2.1-2.1,3.4-4.9,3.6-7.9c0-0.4,0.1-0.7,0.1-1.1v-1.1c0-0.7,0-1.4-0.1-2.1c-0.2-1.4-0.4-2.8-0.6-4.2c-0.9-5.6-2-10.8-3-15.7
		s-2-9.5-2.9-13.7c-0.4-2.1-0.9-4.1-1.3-6s-0.9-3.6-1.3-5.3s-0.9-3.1-1.4-4.5c-0.5-1.2-1.1-2.4-1.9-3.4c-1.1-1.5-2.5-2.7-4-3.7
		c-0.5-0.3-1-0.6-1.2-0.7c-0.1-0.1-0.3-0.1-0.4-0.2c0.2,0,0.3,0.1,0.4,0.2c0.4,0.2,0.9,0.4,1.3,0.7c1.6,1,3,2.2,4.1,3.7
		c0.8,1.1,1.5,2.2,2,3.5c0.5,1.4,0.9,2.9,1.4,4.5s0.9,3.4,1.4,5.3s0.9,3.9,1.3,6c0.9,4.2,1.9,8.7,3,13.6s2,10.1,3,15.7
		c0.2,1.4,0.4,2.8,0.6,4.3c0.1,0.7,0.1,1.5,0.1,2.2v1.1c0,0.4-0.1,0.8-0.1,1.1c-0.3,3.1-1.6,6-3.8,8.2c-2.3,2.2-5.2,3.7-8.4,4.3
		c-3.1,0.6-6.3,1-9.6,1.5c-8,1.1-15.7,2.1-23,3h-0.2l-0.1-0.2l-4.9-13.8l-0.1-0.2l0.2-0.1l28.6-12.4l-0.1,0.2
		c-2.2-7.6-3.9-13.7-5-18c-0.5-2.1-1-3.8-1.2-4.9c-0.1-0.6-0.2-1-0.3-1.3S161.7,289.3,161.7,289.3z"/>
	<path class="st4" d="M160.5,284c-0.1-0.3-0.2-0.6-0.2-0.9c-0.1-0.8-0.1-1.6-0.1-2.5c0.1-5.5,1.9-10.9,5.2-15.3
		c0.5-0.7,1-1.3,1.6-1.9c0.4-0.4,0.6-0.6,0.7-0.6s-0.8,1-2,2.7c-1.5,2.2-2.7,4.6-3.6,7.2c-0.9,2.6-1.4,5.2-1.5,7.9
		C160.5,282.7,160.6,284,160.5,284z"/>
</g>
</svg>