<svg id="Layer_1" data-name="Layer 1" xmlns="http://www.w3.org/2000/svg" xmlns:xlink="http://www.w3.org/1999/xlink" viewBox="0 0 1476 738"><defs><style>.cls-1{fill:#512c79;}.cls-2{font-size:84px;font-family:BebasNeue, Bebas Neue;}.cls-2,.cls-29,.cls-6{fill:#fff;}.cls-3{letter-spacing:0em;}.cls-4{fill:#8958a3;}.cls-5{fill:#2b1a4e;}.cls-6{font-size:36.34px;font-family:Poppins-Bold, Poppins;font-weight:700;}.cls-7{font-size:151.6px;font-family:BeVietnamPro-Black, Be Vietnam Pro;font-weight:800;}.cls-18,.cls-7{fill:#f5f5f5;}.cls-8{font-family:BeVietnamPro-LightItalic, Be Vietnam Pro;font-weight:300;font-style:italic;}.cls-9{fill:none;}.cls-10,.cls-11,.cls-12,.cls-13,.cls-14,.cls-15,.cls-16,.cls-17,.cls-9{stroke:#fff;stroke-miterlimit:10;stroke-width:3.74px;}.cls-10{fill:#ed3324;}.cls-11{fill:#713e97;}.cls-12{fill:#b9d432;}.cls-13{fill:#44b549;}.cls-14{fill:#f37820;}.cls-15{fill:#0a8a80;}.cls-16{fill:#2b388f;}.cls-17{fill:#b44498;}.cls-19{fill:#d0d2d3;}.cls-20{fill:#6d6e70;}.cls-21{fill:#808184;}.cls-22{fill:#e6e7e8;}.cls-23{fill:#bbbdbf;}.cls-24{fill:#5d5d5e;}.cls-25{fill:#8a9178;}.cls-26{fill:#84653b;}.cls-27{fill:#61747d;}.cls-28{fill:#99b873;}.cls-30{fill:#556985;}.cls-31{fill:#41544f;}.cls-32{fill:#372233;}.cls-33{fill:#204263;}.cls-34{fill:#80595e;}.cls-35{fill:#2e8256;}.cls-36{fill:#514140;}.cls-37{fill:#5b6e5f;}.cls-38{fill:#a6a8ab;}.cls-39{fill:#f1f1f2;}.cls-40{fill:#44bfb1;}.cls-41{fill:#1a1a1a;}</style></defs><title>SM PostArtboard 2 copy</title><rect class="cls-1" width="369" height="369"/><text class="cls-2" transform="translate(47.67 153.65)">GRAPHIC <tspan x="0" y="84">D</tspan><tspan class="cls-3" x="34.1" y="84">E</tspan><tspan x="64.76" y="84">SIGN </tspan><tspan x="0" y="168">ELEMENTS</tspan></text><rect class="cls-1" x="1107" width="369" height="369"/><rect class="cls-4" x="369" width="369" height="369"/><rect class="cls-5" y="369" width="369" height="369"/><rect class="cls-1" x="369" y="369" width="369" height="369"/><rect class="cls-4" x="738" y="369" width="369" height="369"/><rect class="cls-5" x="738" width="369" height="369"/><rect class="cls-5" x="1107" y="369" width="369" height="369"/><text class="cls-6" transform="translate(1154.67 84.46)">LINE</text><text class="cls-6" transform="translate(420.96 84.46)">SHAPE</text><text class="cls-6" transform="translate(794.26 84.46)">COLOR</text><text class="cls-6" transform="translate(47.67 452.46)">TYPOGRAPHY</text><text class="cls-7" transform="translate(60.63 636.21)">A<tspan class="cls-8" x="119.92" y="0">a</tspan></text><text class="cls-6" transform="translate(420.96 452.46)">SPACE</text><text class="cls-6" transform="translate(794.26 452.46)">TEXTURE</text><text class="cls-6" transform="translate(1160.4 452.46)">SIZE</text><polyline class="cls-9" points="1167.63 278.63 1294.4 133.6 1373.85 326.97 1186.22 159.63 1409.35 122.44 1238.59 316.83"/><path class="cls-10" d="M821.38,214H906l-59.87-59.87A84.4,84.4,0,0,0,821.38,214Z"/><path class="cls-11" d="M906,214V129.32a84.4,84.4,0,0,0-59.87,24.79Z"/><path class="cls-12" d="M906,298.64a84.39,84.39,0,0,0,59.86-24.8L906,214Z"/><path class="cls-13" d="M990.7,214H906l59.86,59.86A84.39,84.39,0,0,0,990.7,214Z"/><path class="cls-14" d="M906,214H990.7a84.41,84.41,0,0,0-24.8-59.87Z"/><path class="cls-15" d="M906,129.32V214l59.86-59.87A84.38,84.38,0,0,0,906,129.32Z"/><path class="cls-16" d="M906,214l-59.87,59.86A84.41,84.41,0,0,0,906,298.64Z"/><path class="cls-17" d="M821.38,214a84.38,84.38,0,0,0,24.79,59.86L906,214Z"/><polygon class="cls-18" points="463.13 491.7 535.48 491.7 535.48 561.52 532.95 561.52 463.13 491.7"/><polygon class="cls-18" points="566.18 658.5 566.18 592.26 632.42 658.5 566.18 658.5"/><polygon class="cls-18" points="632.42 491.7 632.42 561.52 561.21 561.52 631.03 491.7 632.42 491.7"/><polygon class="cls-18" points="530.47 592.26 463.13 659.6 463.13 592.26 530.47 592.26"/><circle class="cls-18" cx="906.04" cy="213.98" r="24.17"/><rect class="cls-19" x="1181.45" y="491.7" width="108.7" height="167.9"/><rect class="cls-20" x="1290.15" y="491.7" width="98.21" height="83.95"/><rect class="cls-21" x="1290.15" y="575.65" width="49.1" height="83.95"/><rect class="cls-22" x="1339.25" y="575.65" width="49.1" height="41.98"/><rect class="cls-23" x="1339.25" y="617.62" width="24.55" height="41.98"/><rect class="cls-24" x="1363.81" y="617.62" width="24.55" height="20.99"/><rect class="cls-25" x="1363.81" y="638.61" width="12.28" height="20.99"/><rect class="cls-26" x="1376.08" y="638.61" width="12.28" height="10.49"/><rect class="cls-27" x="1376.08" y="649.11" width="6.14" height="10.49"/><rect class="cls-28" x="1382.22" y="649.11" width="6.14" height="5.25"/><rect class="cls-29" x="1382.22" y="654.35" width="3.07" height="5.25"/><rect class="cls-30" x="1385.29" y="654.35" width="3.07" height="2.62"/><rect class="cls-31" x="1385.29" y="656.98" width="1.53" height="2.62"/><rect class="cls-32" x="1386.82" y="656.98" width="1.53" height="1.31"/><rect class="cls-33" x="1386.82" y="658.29" width="0.77" height="1.31"/><rect class="cls-34" x="1387.59" y="658.29" width="0.77" height="0.66"/><rect class="cls-35" x="1387.59" y="658.94" width="0.38" height="0.66"/><rect class="cls-36" x="1387.98" y="658.94" width="0.38" height="0.33"/><rect class="cls-37" x="1387.97" y="659.27" width="0.38" height="0.33"/><image width="3600" height="3600" transform="translate(822.09 491.7) scale(0.05)" xlink:href="../../../../../../Pictures/Johnny/Background/PATTERN/DesignBundles-Plaster-Textures/16.jpg"/><rect class="cls-18" x="466.21" y="125.07" width="174.57" height="174.57"/><circle class="cls-38" cx="553.5" cy="212.35" r="87.29"/><polygon class="cls-39" points="553.5 256.04 477.88 256.04 515.69 190.56 553.5 125.07 591.31 190.56 629.12 256.04 553.5 256.04"/><g id="Layer_2" data-name="Layer 2"><g id="Layer_1-2" data-name="Layer 1-2"><rect class="cls-40" x="126.35" y="60.56" width="68.53" height="19.5" rx="0.31"/><path class="cls-29" d="M83,55.71v0c-.07-.07-9.52,1.74-13.27,2.13a94.08,94.08,0,0,1-11.5.62c-2.24-.22-2.88.23-3,.62s.12.86.67,1.25c.81.54,1.79.12,2.86,0S72,58.36,77,57.66c-3,1.86-7.41,6-8.9,14.2-.22,1.45-1.08,5.22-2.57,5.25A6.48,6.48,0,0,1,64,76.89a8.52,8.52,0,0,0-6.9,1,7,7,0,0,0,1.33-2.79c.06-.72-.24-1.32-.69-1.38-.23,0-.83,0-1.18,1.59a13.47,13.47,0,0,1-2,4.23l-.38.52.62-.23c.1,0,9.16-3.5,14.27,0l.36.24-.07-.44c0-.13-2.14-13.34,8-21.13a6.41,6.41,0,0,1,1.86-1l3.77-1.35Z"/><path class="cls-29" d="M91.7,63.29v0l.09-.08-.13,0a.94.94,0,0,0-.62,0c-6.19,2.2-16.85,3.44-17,3.44h-.22l.06.18c.62,1.83,1.69,1.64,3.18,1.37.42-.08.91-.18,1.44-.23,2-.18,9.3-3,11.74-3.91a22.64,22.64,0,0,0-4.62,7.48,23.4,23.4,0,0,0,0,5.51,3,3,0,0,0,0,.62h-.14a8.88,8.88,0,0,0-1.92-2,76,76,0,0,0-7.54-3.66c-1.94-1-2.74-.78-3.1-.53-.62.48-.5,1.48-.67,3.4a24.29,24.29,0,0,1-.71,4c-.19.41-.39.84-.31.89s.15,0,.62-.62a4.66,4.66,0,0,1,.78-.53,11.12,11.12,0,0,1,7.86-.58,9.8,9.8,0,0,0,4.34.26,13.62,13.62,0,0,1,1,1.15l.24.34.11-.38c0-.07.19-.7.42-1.58a5.72,5.72,0,0,0,1.24-.55,7.3,7.3,0,0,0,.72-.52l-1.87.62a29.52,29.52,0,0,0,1-5.83c0-1.36,1.28-4,3.72-7.58l0-.05C91.71,63.83,91.9,63.5,91.7,63.29ZM80.47,77.09a11.48,11.48,0,0,0-4-.66,7.32,7.32,0,0,0-3.17.79,19.52,19.52,0,0,0,.87-3.36,1,1,0,0,1,.5-.9,1.51,1.51,0,0,1,1.08.16h0a18.58,18.58,0,0,1,8.56,4.72A12.71,12.71,0,0,1,80.47,77.09Z"/><path class="cls-29" d="M108.61,55c-.71-.33-1.72.79-1.92,1.11-.54.76-1.62,8.39-1.75,9.3a36.62,36.62,0,0,1-2.86,12.48,83.2,83.2,0,0,0-5.38-8.07c-1.3-1.71-2-4.34-3.86-4.73a.58.58,0,0,0-.54.26c-1.4,2.22-.37,6-1.53,9.67a34.54,34.54,0,0,1-1.56,4l-.62,1.15.93-.9c2.79-2.73,5.67-1.37,8.69.08l.26.13a5.82,5.82,0,0,0,5.69-.13l1.24-.87L104,78.9c-2.56.88-5.29-1.35-5.34-1.39-3.15-2.15-5.39-1.89-6.57-1.49a20.86,20.86,0,0,0,1.36-5.77c.16-1.09.39-1.34.52-1.4s.39.11.55.25a1,1,0,0,0,.25.17c.43.39,4.51,6,7.18,9.66l0,.07h.08c.22,0,2.21.06,3.77-9.13a45.47,45.47,0,0,1,2.3-9.13,12.61,12.61,0,0,0,.92-3.43C109.24,56,109.09,55.17,108.61,55Z"/><path class="cls-29" d="M122.09,75.26c-.44-.1-1.08.56-1.39,1.24,0,0-1.81,2.81-6.09,1.86a10,10,0,0,0-6,.21l.1-.2a45.34,45.34,0,0,0,1.47-5.49,3.39,3.39,0,0,0,.66,1.09c.35.29,6.56-.53,9-1.93,1.18-.65,1.81-1.3,1.92-2a1.59,1.59,0,0,0-.45-1.32c-.13-.18-.52-.29-1.62-.59-2-.54-5.77-1.54-8.06-3.72-1.2-1.12-2-1.5-2.55-1.16s-.42,1.8-.39,2c.18,1,.55,9.08-.86,13.14l-.21,1.53a4.45,4.45,0,0,1,1.45-.79l.24-.08a7.31,7.31,0,0,1,2.6.26,44,44,0,0,0,4.58.69c.44,0,.85.06,1.24.06,4.65,0,5-2.92,5-3.05C122.65,76.26,122.5,75.36,122.09,75.26Zm-11.7-8.46a5.22,5.22,0,0,1-.21-1.47,2.86,2.86,0,0,1,.46.58c1.06,1.69,8.85,3.61,10.29,4A2.59,2.59,0,0,1,119.79,71c-2.48,1.47-7.65,1.75-8.68,1.33a1.43,1.43,0,0,0-.54-.13.37.37,0,0,0-.26.08C111,68.4,110.43,66.87,110.39,66.8Z"/><path class="cls-41" d="M130.46,66.38H132l3.05,6.82,3-6.82h1.52v8.68h-1.42V69.15l-2.65,6h-1l-2.66-6v6h-1.43Z"/><path class="cls-41" d="M144.46,75.19A3.34,3.34,0,0,1,141,72a1.82,1.82,0,0,1,0-.33,3.3,3.3,0,0,1,3.44-3.56,3.22,3.22,0,0,1,3.38,3,1.82,1.82,0,0,1,0,.33,3.25,3.25,0,0,1,0,.7H142.5a1.91,1.91,0,0,0,2,1.83,1.67,1.67,0,0,0,1.62-1h1.54A3.14,3.14,0,0,1,144.46,75.19Zm-2-4.18h3.82a1.8,1.8,0,0,0-1.84-1.74h-.09A1.85,1.85,0,0,0,142.51,71Z"/><path class="cls-41" d="M152,68.07a3.19,3.19,0,0,1,2.38,1.08V65.82h1.43v9.26h-1.43V74A2.88,2.88,0,0,1,152,75.19a3.34,3.34,0,0,1-3.26-3.59A3.28,3.28,0,0,1,152,68.07Zm.29,1.24a2.11,2.11,0,0,0-2.1,2.13.86.86,0,0,0,0,.16,2.16,2.16,0,0,0,2,2.34h.11a2.15,2.15,0,0,0,2.09-2.2v-.11a2.14,2.14,0,0,0-1.95-2.32Z"/><path class="cls-41" d="M157.51,66.36a.91.91,0,1,1,1.82,0,.91.91,0,0,1-1.82,0Zm.19,1.82h1.43v6.9H157.7Z"/><path class="cls-41" d="M163.78,68.07a2.89,2.89,0,0,1,2.39,1.12v-1h1.44v6.9h-1.44v-1a3,3,0,0,1-2.41,1.14,3.33,3.33,0,0,1-3.23-3.59A3.28,3.28,0,0,1,163.78,68.07Zm.3,1.24A2.11,2.11,0,0,0,162,71.45a.76.76,0,0,0,0,.15,2.16,2.16,0,0,0,2,2.34h.1a2.15,2.15,0,0,0,2.1-2.18.62.62,0,0,1,0-.13,2.13,2.13,0,0,0-1.93-2.32Z"/><path class="cls-41" d="M175.64,71.23h-1.86v3.85h-.57V66.3h2.44c2,0,2.88,1,2.88,2.48S177.59,71.23,175.64,71.23Zm0-.51c1.68,0,2.32-.76,2.32-2s-.62-2-2.32-2h-1.86v3.93Z"/><path class="cls-41" d="M180.6,75.08H180V68.25h.56v1.41a2.36,2.36,0,0,1,2.51-1.54v.59h-.18a2.15,2.15,0,0,0-2.33,2.42Z"/><path class="cls-41" d="M187.4,75.18a3.25,3.25,0,0,1-3.34-3.51,3.36,3.36,0,0,1,6.71-.29v.29a3.28,3.28,0,0,1-3,3.5Zm0-.51a3,3,0,1,0-2.76-3A2.74,2.74,0,0,0,187.4,74.67Z"/></g></g></svg>