<svg xmlns="http://www.w3.org/2000/svg" viewBox="0 0 1476 738"><defs><style>.cls-1{fill:#2b1a4e;}.cls-2{fill:#8958a3;}.cls-3{fill:#fff;}.cls-4{fill:#006838;}.cls-5{fill:#00af4b;}.cls-6{fill:#eb008b;}.cls-7{fill:#44bfb1;}.cls-8{fill:none;stroke:#fff;stroke-miterlimit:10;stroke-width:1.5px;}.cls-9{fill:#1a1a1a;}</style></defs><title>Asset 12</title><g id="Layer_2" data-name="Layer 2"><g id="Layer_1-2" data-name="Layer 1"><rect class="cls-1" width="1476" height="738"/><path class="cls-2" d="M110.17,137.12c5.32,0,8.52-2.46,11.25-4.5l6.68,11a27.23,27.23,0,0,1-18.68,7.29c-14.25,0-25-10.29-25-23.86s10.71-23.87,25-23.87a27.24,27.24,0,0,1,18.68,7.3l-6.68,11c-2.73-2-5.93-4.5-11.25-4.5a10.1,10.1,0,1,0,0,20.19Z"/><path class="cls-2" d="M152.65,103.16c13.7,0,23.93,10.23,23.93,23.93s-10.23,23.8-23.93,23.8-23.8-10.23-23.8-23.8S139.08,103.16,152.65,103.16Zm0,33.62c5.52,0,9.2-4.3,9.2-9.69s-3.68-9.81-9.2-9.81-9.21,4.29-9.21,9.81S147.26,136.78,152.65,136.78Z"/><path class="cls-2" d="M196.83,127.71v22.5h-15V103.84h12.95l18.41,22.5v-22.5h15v46.37H215.24Z"/><path class="cls-2" d="M260.09,116.87v33.34h-15V116.87H232.82v-13h39.55v13Z"/><path class="cls-2" d="M277,103.84h25.16c9.48,0,16.57,5.32,16.57,15.82a14,14,0,0,1-8.86,13.09l11.39,14.05v3.41h-15l-11.8-16H292v16H277Zm15,20h7.64a3.55,3.55,0,1,0,0-7.09H292Z"/><path class="cls-2" d="M340.35,103.84h17.73l16.84,46.37H359.78l-2.38-7.09H341l-2.32,7.09H323.51Zm4.3,28.37h9.13l-4.57-13.64Z"/><path class="cls-2" d="M380.62,134.19A26.47,26.47,0,0,0,395,139c2.8,0,4.43-.89,4.43-2.93,0-1.16-1.16-2-3-2.53l-7.29-2.25c-7.57-2.31-11.73-6.06-11.73-13.09,0-8.39,6.75-14.93,19.23-14.93a42.68,42.68,0,0,1,16.91,3.68l-4.16,12A30.69,30.69,0,0,0,396,115.16c-2.46,0-3.55.89-3.55,2.39,0,1,.61,1.63,2.59,2.25l7.71,2.32c8.79,2.66,11.86,6.95,11.86,13,0,9.14-7.5,15.75-19.84,15.75a42.58,42.58,0,0,1-17.59-4Z"/><path class="cls-2" d="M444.76,116.87v33.34h-15V116.87H417.49v-13H457v13Z"/><path class="cls-3" d="M130.61,193.81a3.38,3.38,0,0,0,2.09-.7l.69,1a4,4,0,0,1-2.79,1,3.67,3.67,0,1,1,0-7.33,4,4,0,0,1,2.79,1l-.69,1a3.38,3.38,0,0,0-2.09-.7,2.31,2.31,0,0,0,0,4.61Z"/><path class="cls-3" d="M137.86,187.84a3.67,3.67,0,1,1-3.66,3.67A3.58,3.58,0,0,1,137.86,187.84Zm0,6a2.29,2.29,0,1,0-2.22-2.29A2.19,2.19,0,0,0,137.87,193.8Z"/><path class="cls-3" d="M143.1,195.06v-7.12h1.46v5.85h3.7v1.27Z"/><path class="cls-3" d="M152.57,187.84a3.67,3.67,0,1,1-3.65,3.67A3.58,3.58,0,0,1,152.57,187.84Zm0,6a2.29,2.29,0,1,0-2.22-2.29A2.19,2.19,0,0,0,152.58,193.8Z"/><path class="cls-3" d="M157.81,187.94h3.13c1.75,0,2.84.72,2.84,2.32a2.24,2.24,0,0,1-1.87,2.19l2.27,2.37v.24h-1.64l-2.38-2.56h-.88v2.56h-1.47Zm1.47,1.28v2.13h1.82a1,1,0,0,0,1.15-1.06,1,1,0,0,0-1.15-1.07Z"/><path class="cls-3" d="M95.11,231.44v5.84H93.64v-5.84H91.29v-1.28h6.08v1.28Z"/><path class="cls-3" d="M101.7,230.05a3.67,3.67,0,1,1-3.65,3.68A3.59,3.59,0,0,1,101.7,230.05Zm0,6a2.29,2.29,0,1,0-2.22-2.28A2.19,2.19,0,0,0,101.71,236Z"/><path class="cls-3" d="M108.41,232.49v4.79h-1.47v-7.12h1.28l4,4.79v-4.79h1.46v7.12h-1.27Z"/><path class="cls-3" d="M115.68,237.28v-7.12h5.63v1.28h-4.23V233h3.47v1.29h-3.47V236h4.23v1.29Z"/><path class="cls-3" d="M126,230.16h1.26v.1l-3.64,7h-1.27v-.12Z"/><path class="cls-3" d="M128.06,230.16h1.6l2.07,5.77,2.15-5.77h1.6l-2.83,7.12h-1.84Z"/><path class="cls-3" d="M138.1,230.16h1.72l2.75,7.12h-1.49l-.54-1.43H137.3l-.55,1.43h-1.49Zm-.42,4.6h2.49L139,231.61Z"/><path class="cls-3" d="M143.74,237.28v-7.12h1.47V236h3.69v1.28Z"/><path class="cls-3" d="M151.35,234.18a1.63,1.63,0,0,0,1.76,1.85,1.67,1.67,0,0,0,1.79-1.86v-4h1.46v4.11a3,3,0,0,1-3.25,3.12,2.94,2.94,0,0,1-3.23-3.12v-4.11h1.47Z"/><path class="cls-3" d="M158.26,237.28v-7.12h5.64v1.28h-4.23V233h3.46v1.29h-3.46V236h4.23v1.29Z"/><path class="cls-3" d="M297,194.81a4.32,4.32,0,0,0,2.26.69c.86,0,1.39-.28,1.39-.8s-.26-.61-1-.79l-1.17-.3c-1.27-.31-1.83-1-1.83-2,0-1.18.88-2.13,2.79-2.13a6,6,0,0,1,2.55.56l-.42,1.34a4.84,4.84,0,0,0-2.18-.56c-.86,0-1.22.26-1.22.67s.26.53.78.68l1.31.37c1.28.35,1.91,1,1.91,2,0,1.34-1.23,2.25-2.95,2.25a6,6,0,0,1-2.58-.62Z"/><path class="cls-3" d="M303.69,189.61h1.47v7.12h-1.47Z"/><path class="cls-3" d="M310.42,190.89h-3.67v-1.28h5.55v1l-3.64,4.81h3.64v1.28h-5.55v-1Z"/><path class="cls-3" d="M313.9,196.73v-7.12h5.63v1.29H315.3v1.54h3.47v1.29H315.3v1.71h4.23v1.29Z"/><path class="cls-3" d="M324.21,189.61h1.26v.11l-3.64,7h-1.27v-.11Z"/><path class="cls-3" d="M326.54,194.81a4.32,4.32,0,0,0,2.26.69c.86,0,1.39-.28,1.39-.8s-.26-.61-1-.79l-1.17-.3c-1.26-.31-1.82-1-1.82-2,0-1.18.88-2.13,2.79-2.13a6,6,0,0,1,2.55.56l-.42,1.34a4.85,4.85,0,0,0-2.19-.56c-.86,0-1.21.26-1.21.67s.26.53.77.68l1.31.37c1.29.35,1.92,1,1.92,2,0,1.34-1.24,2.25-3,2.25a6,6,0,0,1-2.58-.62Z"/><path class="cls-3" d="M338.56,193.78h-3.82v2.95h-1.47v-7.12h1.47v2.89h3.82v-2.89H340v7.12h-1.47Z"/><path class="cls-3" d="M344,189.61h1.72l2.75,7.12H347l-.55-1.42h-3.23l-.56,1.42h-1.49Zm-.42,4.61h2.49l-1.21-3.15Z"/><path class="cls-3" d="M349.65,189.61h3.4a2.41,2.41,0,0,1,2.59,2.6,2.47,2.47,0,0,1-2.59,2.55h-1.93v2h-1.47Zm1.47,1.28v2.6h1.7a1.24,1.24,0,0,0,1.3-1.29,1.23,1.23,0,0,0-1.3-1.31Z"/><path class="cls-3" d="M357,196.73v-7.12h5.64v1.29h-4.23v1.54h3.46v1.29h-3.46v1.71h4.23v1.29Z"/><path class="cls-3" d="M302.73,231.82h3.06a3.56,3.56,0,1,1,0,7.12h-3.06Zm1.46,1.28v4.57h1.54a2.29,2.29,0,0,0,0-4.57Z"/><path class="cls-3" d="M311.06,231.82h1.46v7.12h-1.46Z"/><path class="cls-3" d="M314.49,231.82h3.13c1.75,0,2.84.72,2.84,2.32a2.24,2.24,0,0,1-1.88,2.19l2.28,2.37v.24h-1.65l-2.37-2.56H316v2.56h-1.47ZM316,233.1v2.13h1.82a1,1,0,0,0,1.15-1.06,1,1,0,0,0-1.15-1.07Z"/><path class="cls-3" d="M322.14,238.94v-7.12h5.64v1.29h-4.23v1.54H327v1.29h-3.46v1.72h4.23v1.28Z"/><path class="cls-3" d="M332.57,237.69a3.38,3.38,0,0,0,2.09-.7l.69,1a4,4,0,0,1-2.79,1,3.67,3.67,0,1,1,0-7.33,4,4,0,0,1,2.79,1l-.69,1a3.38,3.38,0,0,0-2.09-.7,2.31,2.31,0,0,0,0,4.61Z"/><path class="cls-3" d="M340.1,233.11v5.83h-1.47v-5.83h-2.34v-1.29h6.07v1.29Z"/><path class="cls-3" d="M343.59,231.82h1.47v7.12h-1.47Z"/><path class="cls-3" d="M350.26,231.72a3.67,3.67,0,1,1-3.65,3.68A3.59,3.59,0,0,1,350.26,231.72Zm0,6a2.29,2.29,0,1,0-2.22-2.28A2.18,2.18,0,0,0,350.28,237.68Z"/><path class="cls-3" d="M357,234.16v4.78H355.5v-7.12h1.28l4,4.8v-4.8h1.47v7.12H361Z"/><circle class="cls-3" cx="437.08" cy="190.88" r="9.35" transform="translate(151.23 572.68) rotate(-76.77)"/><rect class="cls-3" x="377.8" y="177.98" width="37.71" height="28.28"/><rect class="cls-4" x="181.14" y="218.84" width="37.71" height="28.28"/><rect class="cls-5" x="218.85" y="218.84" width="37.71" height="28.28"/><rect class="cls-6" x="181.14" y="177.98" width="37.71" height="28.28"/><rect class="cls-7" x="218.85" y="177.98" width="37.71" height="28.28"/><polygon class="cls-3" points="417.14 236.85 405.04 224.87 405.04 228.26 377.8 228.26 377.8 245.03 405.04 245.03 405.04 248.83 417.14 236.85"/><polygon class="cls-3" points="437.08 217.21 425.1 229.31 429.13 229.31 429.13 249.22 445.89 249.22 445.89 229.31 449.06 229.31 437.08 217.21"/><path class="cls-2" d="M87.41,645.7V618l72.43-26.31v23.65l-11.07,3.73v25.67l11.07,3.62V672ZM131.72,639V624.71l-21.3,7.14Z"/><path class="cls-2" d="M159.84,586.2H87.41V562.76h52.2V529.53h20.23Z"/><path class="cls-2" d="M87.41,523.14V499.71h72.43v23.43Z"/><path class="cls-2" d="M150.36,419.65c5.54,6.71,10.55,20.66,10.55,31.74,0,21.41-13.85,38.56-37.18,38.56-23.54,0-37.38-17.15-37.38-38.56a48.28,48.28,0,0,1,9.37-29L113.4,433a29.56,29.56,0,0,0-5.54,17.89c0,8.63,5.65,14.91,15.87,14.91,10,0,15.66-6.28,15.66-16a34.57,34.57,0,0,0-1.7-9.58h-5.54v14.27H117V419.65Z"/><path class="cls-2" d="M124.69,384.31h35.15v23.43H87.41V387.51l35.15-28.76H87.41V335.31h72.43v20.24Z"/><path class="cls-2" d="M219.15,363.76l-13.36,16h-3l-13.36-16v27.63H171.32V335.31h14.84l18.15,20.62,18.14-20.62h14.84v56.08H219.15Z"/><path class="cls-2" d="M248.08,391.39V335.31h46.34V351h-29v4.95h23v14.43h-23v5.36h29v15.67Z"/><path class="cls-2" d="M322,364.17v27.22H303.9V335.31h15.67l22.26,27.22V335.31H360v56.08H344.31Z"/><path class="cls-2" d="M398.4,351.06v40.33H380.26V351.06H365.42V335.31h47.83v15.75Z"/><rect class="cls-3" x="185.06" y="419.65" width="2.26" height="63.33"/><rect class="cls-3" x="195.23" y="428.7" width="29.4" height="16.96"/><rect class="cls-3" x="195.23" y="456.97" width="42.97" height="16.96"/><rect class="cls-3" x="186.19" y="516.9" width="63.33" height="2.26"/><rect class="cls-3" x="223.51" y="528.21" width="15.83" height="28.27"/><rect class="cls-3" x="195.23" y="528.21" width="16.96" height="41.84"/><rect class="cls-3" x="264.22" y="540.65" width="63.33" height="2.26"/><rect class="cls-3" x="301.54" y="528.21" width="16.96" height="28.27"/><rect class="cls-3" x="274.39" y="521.43" width="15.83" height="41.84"/><rect class="cls-3" x="342.25" y="568.93" width="63.33" height="2.26"/><rect class="cls-3" x="379.57" y="531.61" width="15.83" height="28.27"/><rect class="cls-3" x="351.29" y="518.04" width="16.96" height="41.84"/><rect class="cls-3" x="184.73" y="611.06" width="63.33" height="2.26"/><rect class="cls-3" x="202.26" y="617.56" width="28.27" height="15.83"/><rect class="cls-3" x="184.73" y="644.87" width="63.33" height="2.26"/><rect class="cls-3" x="195.47" y="651.37" width="41.84" height="15.83"/><rect class="cls-3" x="343.7" y="664.94" width="63.33" height="2.26"/><rect class="cls-3" x="354.45" y="644.87" width="41.84" height="15.83"/><rect class="cls-3" x="343.7" y="631.13" width="63.33" height="2.26"/><rect class="cls-3" x="361.23" y="611.06" width="28.27" height="15.83"/><rect class="cls-3" x="264.22" y="618.9" width="63.33" height="2.26"/><rect class="cls-3" x="281.75" y="612.12" width="28.27" height="15.83"/><rect class="cls-3" x="264.22" y="652.71" width="63.33" height="2.26"/><rect class="cls-3" x="274.96" y="645.93" width="41.84" height="15.83"/><rect class="cls-3" x="295.88" y="419.65" width="2.26" height="63.33"/><rect class="cls-3" x="282.31" y="428.7" width="29.4" height="16.96"/><rect class="cls-3" x="275.53" y="456.97" width="41.84" height="16.96"/><rect class="cls-3" x="404.44" y="419.65" width="2.26" height="63.33"/><rect class="cls-3" x="367.13" y="428.7" width="28.27" height="16.96"/><rect class="cls-3" x="353.56" y="456.97" width="41.84" height="16.96"/><path class="cls-2" d="M966.47,103.8h23.6c8.89,0,15.54,5,15.54,14.83a13.13,13.13,0,0,1-8.32,12.28L1008,144.08v3.2H993.9l-11.06-15h-2.3v15H966.47Zm14.07,18.8h7.16a3.33,3.33,0,1,0,0-6.65h-7.16Z"/><path class="cls-2" d="M1012.44,147.28V103.8h35.94V116h-22.51v3.84h17.84V131h-17.84v4.15h22.51v12.15Z"/><path class="cls-2" d="M1055.83,103.8H1079c8.89,0,16.44,5.24,16.44,16.56,0,10.23-7.55,16.31-16.44,16.31h-9.14v10.61h-14.07Zm14.07,20.72h6.9a4.29,4.29,0,0,0,0-8.57h-6.9Z"/><path class="cls-2" d="M1098.8,147.28V103.8h35.93V116h-22.51v3.84h17.85V131h-17.85v4.15h22.51v12.15Z"/><path class="cls-2" d="M1164.34,116v31.27h-14.07V116h-11.51V103.8h37.09V116Z"/><path class="cls-2" d="M1180.14,103.8h14.07v43.48h-14.07Z"/><path class="cls-2" d="M1224,116v31.27H1210V116h-11.51V103.8h37.09V116Z"/><path class="cls-2" d="M1239.83,103.8h14.07v43.48h-14.07Z"/><path class="cls-2" d="M1282.18,103.16c12.85,0,22.44,9.59,22.44,22.44s-9.59,22.32-22.44,22.32a21.82,21.82,0,0,1-22.32-22.32C1259.86,112.75,1269.45,103.16,1282.18,103.16Zm0,31.52c5.18,0,8.63-4,8.63-9.08s-3.45-9.2-8.63-9.2-8.64,4-8.64,9.2S1277.13,134.68,1282.18,134.68Z"/><path class="cls-2" d="M1324.65,126.18v21.1h-14.07V103.8h12.15L1340,124.9V103.8h14.06v43.48h-12.15Z"/><path class="cls-3" d="M1178,177.86v-3.55h-3.55v1.78h-5.31v-1.78h-3.54v1.78H1162v-1.78h-3.55v1.78h-3.54v-1.78h-3.54v1.78h-3.54v-1.78h-3.54v1.78h-3.55v-1.78h-3.54v1.78h-3.54v-1.78h-3.54v1.78h-3.55v-1.78h-3.54v1.78h-3.54v-1.78H1116v1.78h-3.54v-1.78h-3.55v1.78h-3.54v-1.78h-3.54v1.78h-3.54v-1.78h-3.54v1.78h-3.55v-1.78h-3.54v1.78h-3.54v-1.78h-3.54v1.78H1077v-1.78h-3.54v1.78h-3.54v-1.78h-3.54v1.78h-3.54v-1.78h-3.55v1.78h-3.54v-1.78h-3.54v1.78h-3.54v-1.78h-3.54v1.78h-3.55v-1.78H1038v1.78h-3.54v-1.78H1031v1.78h-3.55v-1.78h-3.54v1.78h-3.54v-1.78h-3.54v1.78h-3.54v-1.78h-3.55v1.78h-3.54v-1.78h-3.54v1.78h-3.54v-1.78h-3.54v1.78H992v-1.78h-3.54v1.78h-3.54v-1.78h-3.54v1.78h-3.55v-1.78h-3.54v1.78h-3.54v-1.78H967.2v3.55H969v3.54H967.2v3.54H969v3.54H967.2V192H969v3.54H967.2v3.54H969v3.54H967.2v3.54H969v3.55H967.2v3.54H969v3.54H967.2v3.54H969v3.54H967.2v3.55H969V231H967.2v3.54H969v3.54H967.2v3.55H969v3.54H967.2v3.54H969v3.54H967.2v3.54H969v3.55H967.2v3.54H969v3.54H967.2V270H969v3.55H967.2V277H969v3.54H967.2v3.54H969v3.54H967.2v3.55h3.54v-1.78h5.31v1.78h3.55v-1.78h3.54v1.78h3.54v-1.78h3.54v1.78h3.54v-1.78h3.55v1.78h3.54v-1.78h3.54v1.78h3.54v-1.78h3.54v1.78H1015v-1.78h3.54v1.78h3.54v-1.78h3.54v1.78h3.55v-1.78h3.54v1.78h3.54v-1.78h3.54v1.78h3.54v-1.78h3.55v1.78h3.54v-1.78H1054v1.78h3.54v-1.78h3.55v1.78h3.54v-1.78h3.54v1.78h3.54v-1.78h3.54v1.78h3.55v-1.78h3.54v1.78h3.54v-1.78h3.54v1.78h3.54v-1.78h3.55v1.78H1100v-1.78h3.54v1.78h3.54v-1.78h3.55v1.78h3.54v-1.78h3.54v1.78h3.54v-1.78h3.54v1.78h3.55v-1.78h3.54v1.78h3.54v-1.78H1139v1.78h3.54v-1.78h3.55v1.78h3.54v-1.78h3.54v1.78h3.54v-1.78h3.55v1.78h3.54v-1.78h3.54v1.78h3.54v-1.78h3.54v1.78H1178v-3.55h-1.77v-3.54H1178v-3.54h-1.77V277H1178V273.5h-1.77V270H1178v-3.54h-1.77v-3.54H1178v-3.54h-1.77v-3.55H1178v-3.54h-1.77V248.7H1178v-3.54h-1.77v-3.54H1178v-3.55h-1.77v-3.54H1178V231h-1.77v-3.54H1178V223.9h-1.77v-3.54H1178v-3.54h-1.77v-3.54H1178v-3.54h-1.77v-3.55H1178v-3.54h-1.77v-3.54H1178v-3.54h-1.77V192H1178v-3.55h-1.77v-3.54H1178V181.4h-1.77v-3.54Zm-20.35,99.92a8.34,8.34,0,1,1,8.33-8.34A8.33,8.33,0,0,1,1157.61,277.78Zm0-24.8a8.33,8.33,0,1,1,8.33-8.33A8.33,8.33,0,0,1,1157.61,253Zm0-24.79a8.34,8.34,0,1,1,8.33-8.34A8.33,8.33,0,0,1,1157.61,228.19Zm0-24.8a8.33,8.33,0,1,1,8.33-8.33A8.33,8.33,0,0,1,1157.61,203.39Z"/><path class="cls-3" d="M1352.83,227.8h-4.25v1.41h-2.83V227.8h-2.83v1.41h-2.83V227.8h-2.84v1.41h-2.83V227.8h-2.83v1.41h-2.83V227.8h-2.83v1.41h-2.83V227.8h-2.83v1.41h-2.84V227.8h-2.83v1.41h-2.83V227.8h-2.83v1.41h-2.83V227.8h-2.83v1.41h-2.83V227.8h-2.84v1.41h-2.83V227.8H1292v1.41h-2.83V227.8h-2.83v1.41h-2.83V227.8h-2.83v1.41h-2.84V227.8H1275v1.41h-2.83V227.8h-2.83v1.41h-2.83V227.8h-2.83v1.41h-2.83V227.8H1258v1.41h-2.83V227.8h-2.83v1.41h-2.83V227.8h-2.83v1.41h-2.83V227.8H1241v1.41h-2.84V227.8h-2.83v1.41h-2.83V227.8h-2.83v1.41h-2.83V227.8H1224v1.41h-2.83V227.8h-2.83v1.41h-2.84V227.8h-2.83v1.41h-2.83V227.8H1207v1.41h-2.83V227.8h-2.83v1.41h-2.83V227.8h-2.84v1.41h-2.83V227.8H1190v1.41h-1.41v1.42H1190v2.83h-1.41v2.83H1190v2.83h-1.41V242H1190v2.83h-1.41v2.83H1190v2.83h-1.41v2.83H1190v1.42h4.25v-1.42h2.83v1.42h2.83v-1.42h2.83v1.42h2.83v-1.42h2.84v1.42h2.83v-1.42h2.83v1.42h2.83v-1.42h2.83v1.42h2.83v-1.42h2.83v1.42h2.83v-1.42h2.84v1.42h2.83v-1.42h2.83v1.42h2.83v-1.42h2.83v1.42h2.83v-1.42h2.83v1.42h2.84v-1.42h2.83v1.42h2.83v-1.42h2.83v1.42h2.83v-1.42h2.83v1.42h2.83v-1.42h2.84v1.42h2.83v-1.42h2.83v1.42h2.83v-1.42H1282v1.42h2.83v-1.42h2.83v1.42h2.84v-1.42h2.83v1.42h2.83v-1.42H1299v1.42h2.83v-1.42h2.83v1.42h2.83v-1.42h2.84v1.42h2.83v-1.42H1316v1.42h2.83v-1.42h2.83v1.42h2.83v-1.42h2.83v1.42h2.84v-1.42H1333v1.42h2.83v-1.42h2.83v1.42h2.83v-1.42h2.83v1.42h2.83v-1.42H1350v1.42h2.83v-1.42h1.41v-2.83h-1.41v-2.83h1.41v-2.83h-1.41V242h1.41v-2.84h-1.41v-2.83h1.41v-2.83h-1.41v-2.83h1.41v-1.42h-1.41Zm-33.26,20.41a6.66,6.66,0,1,1,6.66-6.66A6.66,6.66,0,0,1,1319.57,248.21Zm19.82,0a6.66,6.66,0,1,1,6.66-6.66A6.66,6.66,0,0,1,1339.39,248.21Z"/><path class="cls-3" d="M1352.83,174.31h-4.25v1.42h-2.83v-1.42h-2.83v1.42h-2.83v-1.42h-2.84v1.42h-2.83v-1.42h-2.83v1.42h-2.83v-1.42h-2.83v1.42h-2.83v-1.42h-2.83v1.42h-2.84v-1.42h-2.83v1.42h-2.83v-1.42h-2.83v1.42h-2.83v-1.42h-2.83v1.42h-2.83v-1.42h-2.84v1.42h-2.83v-1.42H1292v1.42h-2.83v-1.42h-2.83v1.42h-2.83v-1.42h-2.83v1.42h-2.84v-1.42H1275v1.42h-2.83v-1.42h-2.83v1.42h-2.83v-1.42h-2.83v1.42h-2.83v-1.42H1258v1.42h-2.83v-1.42h-2.83v1.42h-2.83v-1.42h-2.83v1.42h-2.83v-1.42H1241v1.42h-2.84v-1.42h-2.83v1.42h-2.83v-1.42h-2.83v1.42h-2.83v-1.42H1224v1.42h-2.83v-1.42h-2.83v1.42h-2.84v-1.42h-2.83v1.42h-2.83v-1.42H1207v1.42h-2.83v-1.42h-2.83v1.42h-2.83v-1.42h-2.84v1.42h-2.83v-1.42H1190v1.42h-1.41v1.42H1190V180h-1.41v2.83H1190v2.83h-1.41v2.83H1190v2.83h-1.41v2.83H1190V197h-1.41v2.83H1190v1.41h4.25V199.8h2.83v1.41h2.83V199.8h2.83v1.41h2.83V199.8h2.84v1.41h2.83V199.8h2.83v1.41h2.83V199.8h2.83v1.41h2.83V199.8h2.83v1.41h2.83V199.8h2.84v1.41h2.83V199.8h2.83v1.41h2.83V199.8h2.83v1.41h2.83V199.8h2.83v1.41h2.84V199.8h2.83v1.41h2.83V199.8h2.83v1.41h2.83V199.8h2.83v1.41h2.83V199.8h2.84v1.41h2.83V199.8h2.83v1.41h2.83V199.8H1282v1.41h2.83V199.8h2.83v1.41h2.84V199.8h2.83v1.41h2.83V199.8H1299v1.41h2.83V199.8h2.83v1.41h2.83V199.8h2.84v1.41h2.83V199.8H1316v1.41h2.83V199.8h2.83v1.41h2.83V199.8h2.83v1.41h2.84V199.8H1333v1.41h2.83V199.8h2.83v1.41h2.83V199.8h2.83v1.41h2.83V199.8H1350v1.41h2.83V199.8h1.41V197h-1.41v-2.84h1.41V191.3h-1.41v-2.83h1.41v-2.83h-1.41v-2.83h1.41V180h-1.41v-2.83h1.41v-1.42h-1.41Zm-33.26,20.42a6.67,6.67,0,1,1,6.66-6.66A6.66,6.66,0,0,1,1319.57,194.73Zm19.82,0a6.67,6.67,0,1,1,6.66-6.66A6.66,6.66,0,0,1,1339.39,194.73Z"/><polygon class="cls-3" points="1352.83 190.99 1348.58 190.99 1348.58 192.4 1345.75 198.66 1345.75 197.25 1342.92 197.25 1342.92 198.66 1340.09 198.66 1340.09 197.25 1337.25 197.25 1337.25 198.66 1334.42 198.66 1334.42 197.25 1331.59 190.99 1331.59 192.4 1328.76 192.4 1328.76 190.99 1325.93 190.99 1325.93 192.4 1323.1 198.66 1323.1 197.25 1320.27 197.25 1320.27 198.66 1317.43 198.66 1317.43 197.25 1314.6 197.25 1314.6 198.66 1311.77 192.4 1311.77 190.99 1308.94 190.99 1308.94 192.4 1306.11 192.4 1306.11 190.99 1303.28 190.99 1303.28 192.4 1300.45 192.4 1300.45 190.99 1297.61 190.99 1297.61 192.4 1294.78 192.4 1294.78 190.99 1291.95 190.99 1291.95 192.4 1289.12 192.4 1289.12 190.99 1286.29 190.99 1286.29 192.4 1283.46 192.4 1283.46 190.99 1280.63 190.99 1280.63 192.4 1277.79 192.4 1277.79 190.99 1274.96 190.99 1274.96 192.4 1272.13 192.4 1272.13 190.99 1269.3 190.99 1269.3 192.4 1266.47 192.4 1266.47 190.99 1263.64 190.99 1263.64 192.4 1260.81 192.4 1260.81 190.99 1257.97 190.99 1257.97 192.4 1255.14 192.4 1255.14 190.99 1252.31 190.99 1252.31 192.4 1249.48 192.4 1249.48 190.99 1246.65 190.99 1246.65 192.4 1243.82 192.4 1243.82 190.99 1240.99 190.99 1240.99 192.4 1238.15 192.4 1238.15 190.99 1235.32 190.99 1235.32 192.4 1232.49 192.4 1232.49 190.99 1229.66 190.99 1229.66 192.4 1226.83 192.4 1226.83 190.99 1224 190.99 1224 192.4 1221.17 192.4 1221.17 190.99 1218.34 190.99 1218.34 192.4 1215.5 192.4 1215.5 190.99 1212.67 190.99 1212.67 192.4 1209.84 192.4 1209.84 190.99 1207.01 190.99 1207.01 192.4 1204.18 192.4 1204.18 190.99 1201.35 190.99 1201.35 192.4 1198.52 192.4 1198.52 190.99 1195.68 190.99 1195.68 192.4 1192.85 192.4 1192.85 190.99 1190.02 190.99 1190.02 192.4 1188.61 192.4 1188.61 193.82 1190.02 193.82 1190.02 196.65 1188.61 196.65 1188.61 199.48 1190.02 199.48 1190.02 202.31 1188.61 202.31 1188.61 205.14 1190.02 205.14 1190.02 207.98 1188.61 207.98 1188.61 210.81 1190.02 210.81 1190.02 213.64 1188.61 213.64 1188.61 216.47 1190.02 216.47 1190.02 217.89 1194.27 217.89 1194.27 216.47 1197.1 216.47 1197.1 217.89 1199.93 217.89 1199.93 216.47 1202.76 216.47 1202.76 217.89 1205.59 217.89 1205.59 216.47 1208.42 216.47 1208.42 217.89 1211.26 217.89 1211.26 216.47 1214.09 216.47 1214.09 217.89 1216.92 217.89 1216.92 216.47 1219.75 216.47 1219.75 217.89 1222.58 217.89 1222.58 216.47 1225.41 216.47 1225.41 217.89 1228.24 217.89 1228.24 216.47 1231.08 216.47 1231.08 217.89 1233.91 217.89 1233.91 216.47 1236.74 216.47 1236.74 217.89 1239.57 217.89 1239.57 216.47 1242.4 216.47 1242.4 217.89 1245.23 217.89 1245.23 216.47 1248.07 216.47 1248.07 217.89 1250.9 217.89 1250.9 216.47 1253.73 216.47 1253.73 217.89 1256.56 217.89 1256.56 216.47 1259.39 216.47 1259.39 217.89 1262.22 217.89 1262.22 216.47 1265.05 216.47 1265.05 217.89 1267.88 217.89 1267.88 216.47 1270.72 216.47 1270.72 217.89 1273.55 217.89 1273.55 216.47 1276.38 216.47 1276.38 217.89 1279.21 217.89 1279.21 216.47 1282.04 216.47 1282.04 217.89 1284.87 217.89 1284.87 216.47 1287.7 216.47 1287.7 217.89 1290.54 217.89 1290.54 216.47 1293.37 216.47 1293.37 217.89 1296.2 217.89 1296.2 216.47 1299.03 216.47 1299.03 217.89 1301.86 217.89 1301.86 216.47 1304.69 216.47 1304.69 217.89 1307.52 217.89 1307.52 216.47 1310.36 216.47 1310.36 217.89 1313.19 217.89 1313.19 216.47 1316.02 216.47 1316.02 217.89 1318.85 217.89 1318.85 216.47 1321.68 216.47 1321.68 217.89 1324.51 217.89 1324.51 216.47 1327.34 216.47 1327.34 217.89 1330.17 217.89 1330.17 216.47 1333.01 216.47 1333.01 217.89 1335.84 217.89 1335.84 216.47 1338.67 216.47 1338.67 217.89 1341.5 217.89 1341.5 216.47 1344.33 216.47 1344.33 217.89 1347.16 217.89 1347.16 216.47 1349.99 216.47 1349.99 217.89 1352.83 217.89 1352.83 216.47 1354.24 216.47 1354.24 213.64 1352.83 213.64 1352.83 210.81 1354.24 210.81 1354.24 207.98 1352.83 207.98 1352.83 205.14 1354.24 205.14 1354.24 202.31 1352.83 202.31 1352.83 199.48 1354.24 199.48 1354.24 196.65 1352.83 196.65 1352.83 193.82 1354.24 193.82 1354.24 192.4 1352.83 192.4 1352.83 190.99"/><path class="cls-3" d="M1352.83,264.31h-1.42v1.41h-2.83v-1.41h-2.83v1.41h-2.83v-1.41h-2.83v1.41h-2.84v-1.41h-2.83v1.41h-2.83v-1.41h-2.83v1.41h-2.83v-1.41h-2.83v1.41h-2.83v-1.41h-2.84v1.41h-2.83v-1.41h-2.83v1.41h-2.83v-1.41h-2.83v1.41h-2.83v-1.41h-2.83v1.41h-2.84v-1.41h-2.83v1.41H1292v-1.41h-2.83v1.41h-2.83v-1.41h-2.83v1.41h-2.83v-1.41h-2.84v1.41h-1.41v1.42h1.41V270h-1.41v2.83h1.41v2.83h-1.41v2.83h1.41v2.84h-1.41v2.83h1.41V287h-1.41v2.83h1.41v1.42h1.42v-1.42H1282v1.42h2.83v-1.42h2.83v1.42h2.84v-1.42h2.83v1.42h2.83v-1.42H1299v1.42h2.83v-1.42h2.83v1.42h2.83v-1.42h2.84v1.42h2.83v-1.42H1316v1.42h2.83v-1.42h2.83v1.42h2.83v-1.42h2.83v1.42h2.84v-1.42H1333v1.42h2.83v-1.42h2.83v1.42h2.83v-1.42h2.83v1.42h2.83v-1.42H1350v1.42h2.83v-1.42h1.41V287h-1.41v-2.83h1.41V281.3h-1.41v-2.84h1.41v-2.83h-1.41V272.8h1.41V270h-1.41v-2.83h1.41v-1.42h-1.41Zm-13.44,20.41a6.66,6.66,0,1,1,6.66-6.66A6.66,6.66,0,0,1,1339.39,284.72Z"/><path class="cls-3" d="M1266.47,267.14v-1.42h-1.42v-1.41h-1.41v1.41h-2.83v-1.41H1258v1.41h-2.83v-1.41h-2.83v1.41h-2.83v-1.41h-2.83v1.41h-2.83v-1.41H1241v1.41h-2.84v-1.41h-2.83v1.41h-2.83v-1.41h-2.83v1.41h-2.83v-1.41H1224v1.41h-2.83v-1.41h-2.83v1.41h-2.84v-1.41h-2.83v1.41h-2.83v-1.41H1207v1.41h-2.83v-1.41h-2.83v1.41h-2.83v-1.41h-2.84v1.41h-2.83v-1.41H1190v1.41h-1.41v1.42H1190V270h-1.41v2.83H1190v2.83h-1.41v2.83H1190v2.84h-1.41v2.83H1190V287h-1.41v2.83H1190v1.42h1.42v-1.42h2.83v1.42h2.83v-1.42h2.83v1.42h2.83v-1.42h2.83v1.42h2.84v-1.42h2.83v1.42h2.83v-1.42h2.83v1.42h2.83v-1.42h2.83v1.42h2.83v-1.42h2.83v1.42h2.84v-1.42h2.83v1.42h2.83v-1.42h2.83v1.42h2.83v-1.42h2.83v1.42h2.83v-1.42h2.84v1.42h2.83v-1.42h2.83v1.42h2.83v-1.42h2.83v1.42h2.83v-1.42h1.42V287h-1.42v-2.83h1.42V281.3h-1.42v-2.84h1.42v-2.83h-1.42V272.8h1.42V270h-1.42v-2.83Zm-17.68,17.58a6.66,6.66,0,1,1,6.66-6.66A6.66,6.66,0,0,1,1248.79,284.72Z"/><path class="cls-2" d="M966.47,455.36h22.12c8.46,0,15.65,5,15.65,15.78,0,9.75-7.19,15.54-15.65,15.54h-8.72v10.11h-13.4Zm13.4,19.74h6.58a3.9,3.9,0,0,0,4-4.08,3.94,3.94,0,0,0-4-4.08h-6.58Z"/><path class="cls-2" d="M1009,455.36h22.48c8.47,0,14.8,4.76,14.8,14.14a12.52,12.52,0,0,1-7.92,11.7l10.17,12.55v3h-13.4l-10.54-14.25h-2.19v14.25H1009Zm13.4,17.92h6.82a3.17,3.17,0,1,0,0-6.34h-6.82Z"/><path class="cls-2" d="M1072,454.76c12.24,0,21.38,9.13,21.38,21.38s-9.14,21.26-21.38,21.26a20.79,20.79,0,0,1-21.26-21.26C1050.69,463.89,1059.83,454.76,1072,454.76Zm0,30c4.93,0,8.22-3.84,8.22-8.65s-3.29-8.77-8.22-8.77-8.23,3.83-8.23,8.77S1067.14,484.79,1072,484.79Z"/><path class="cls-2" d="M1137.93,456.28l-13,19.86,13,19.68v1h-15.35l-7-11.94-7,11.94h-15.35v-1l12.91-19.68-12.91-19.86v-.92h15.23l7.12,12.13,7.13-12.13h15.23Z"/><path class="cls-2" d="M966.47,510.31h13.4v41.42h-13.4Z"/><path class="cls-2" d="M1021.55,531.32l-9.87,11.82h-2.2l-9.86-11.82v20.41H986.21V510.31h11l13.4,15.23L1024,510.31h11v41.42h-13.4Z"/><path class="cls-2" d="M1042.51,510.31h13.4v41.42h-13.4Z"/><path class="cls-2" d="M1086.19,521.94v29.79h-13.4V521.94h-11V510.31h35.33v11.63Z"/><path class="cls-2" d="M1114.18,536.56l-15-25.34v-.91h14.93l6.76,13.95,6.76-13.95h14.93v.91l-15,25.28v15.23h-13.4Z"/><rect class="cls-3" x="970.07" y="571.84" width="80.39" height="80.39"/><rect class="cls-3" x="1229.79" y="463.05" width="80.39" height="80.39"/><path class="cls-3" d="M1185.85,536.47l39.66-5.21v-57.1L1185.85,469Zm128.62-62.17v56.81l39.66,5.36V469Z"/><rect class="cls-3" x="1320.37" y="571.84" width="33.76" height="33.76"/><rect class="cls-3" x="1320.37" y="618.47" width="33.76" height="33.76"/><rect class="cls-2" x="1062.05" y="587.38" width="246.73" height="1.07"/><rect class="cls-2" x="1060.64" y="583.1" width="1.4" height="9.65"/><rect class="cls-2" x="1308.78" y="583.1" width="1.4" height="9.65"/><rect class="cls-2" x="1062.05" y="634.55" width="246.73" height="1.07"/><rect class="cls-2" x="1060.64" y="630.26" width="1.4" height="9.65"/><rect class="cls-2" x="1308.78" y="630.26" width="1.4" height="9.65"/><rect class="cls-2" x="1181.12" y="590.27" width="7.5" height="40.93" transform="translate(-84.82 1016.69) rotate(-45)"/><rect class="cls-2" x="1164.41" y="606.99" width="40.93" height="7.5" transform="translate(-84.82 1016.71) rotate(-45)"/><path id="check-mark-6-icon" class="cls-7" d="M1254.45,500.22l3.3-3.06a63.1,63.1,0,0,1,10.64,6.39c8.16-9.26,13.55-13.95,23.57-20.19l1.07,2.47c-8.26,7.21-14.31,15.24-23,30.87A165.06,165.06,0,0,0,1254.45,500.22Z"/><rect class="cls-3" x="641.54" y="167.83" width="105.96" height="162.4"/><rect class="cls-3" x="753.97" y="167.83" width="105.96" height="84.36"/><rect class="cls-3" x="753.97" y="258.21" width="50.18" height="71.32"/><rect class="cls-3" x="809.75" y="258.21" width="50.18" height="71.32"/><rect class="cls-3" x="641.54" y="419.22" width="105.96" height="162.4" rx="20.93"/><rect class="cls-3" x="753.97" y="497.26" width="105.96" height="84.36" rx="16.47"/><rect class="cls-3" x="753.97" y="419.93" width="50.18" height="71.32" rx="15.6"/><rect class="cls-3" x="809.75" y="419.93" width="50.18" height="71.32" rx="15.6"/><path class="cls-2" d="M556.65,165.48h31.41a30.91,30.91,0,0,1,9.66,1.28,15.94,15.94,0,0,1,6.29,3.77,12.09,12.09,0,0,1,2.48,3.68,12.4,12.4,0,0,1,1,5v.16a11.79,11.79,0,0,1-2.72,8.13,17,17,0,0,1-7.29,4.69,20.64,20.64,0,0,1,8.71,4.73q3.23,3.12,3.23,8.89V206a14.13,14.13,0,0,1-1.37,6.21,13.52,13.52,0,0,1-4.09,4.93,20.37,20.37,0,0,1-6.78,3.25,34.2,34.2,0,0,1-9.35,1.16H556.65Zm26.45,22q5.92,0,5.93-3.84v-.16c0-2.57-2-3.85-6-3.85h-8.1v7.85Zm1.2,19.87a7.83,7.83,0,0,0,4.6-1.12,3.45,3.45,0,0,0,1.57-3v-.16a3.51,3.51,0,0,0-1.53-3,7.7,7.7,0,0,0-4.56-1.12h-9.46v8.33Z"/><path class="cls-2" d="M572.52,225.57h18.59l23.64,56.49H594.39l-3-7.53H571.8l-2.89,7.53h-20Zm14.26,35.66-5.13-13.62-5.12,13.62Z"/><path class="cls-2" d="M560.42,286.47h18.75v40.06h26.36v16H560.42Z"/><path class="cls-2" d="M572.52,346.56h18.59l23.64,56.49H594.39l-3-7.53H571.8l-2.89,7.53h-20Zm14.26,35.66-5.13-13.62-5.12,13.62Z"/><path class="cls-2" d="M553.77,407.46h17.55l19.95,24.76V407.46h18.59v56.09H593.19l-20.83-25.88v25.88H553.77Z"/><path class="cls-2" d="M583.86,525.25a29.8,29.8,0,0,1-11.1-2.09A28.22,28.22,0,0,1,557.14,508a29,29,0,0,1-2.37-11.86V496a29.24,29.24,0,0,1,2.29-11.62,28,28,0,0,1,6.33-9.29,29.1,29.1,0,0,1,9.49-6.13,30.88,30.88,0,0,1,11.7-2.21,31.36,31.36,0,0,1,8.53,1.09,27.94,27.94,0,0,1,7,3,25.28,25.28,0,0,1,5.61,4.61,30.78,30.78,0,0,1,4.21,5.89l-15.47,9.05a15.43,15.43,0,0,0-4-4.93,9.72,9.72,0,0,0-6.21-1.88,9.57,9.57,0,0,0-4.33,1,9.68,9.68,0,0,0-3.28,2.65,12.66,12.66,0,0,0-2.13,3.92,14.56,14.56,0,0,0-.76,4.73V496a15.71,15.71,0,0,0,.76,5,11.55,11.55,0,0,0,2.17,3.92,10,10,0,0,0,3.32,2.57,9.77,9.77,0,0,0,4.25.92,9.87,9.87,0,0,0,6.41-2,17.69,17.69,0,0,0,4.16-5.09l15.47,8.73a35.55,35.55,0,0,1-4.17,5.89,25.1,25.1,0,0,1-5.65,4.81,28.92,28.92,0,0,1-7.37,3.24A33.39,33.39,0,0,1,583.86,525.25Z"/><path class="cls-2" d="M558.38,528.45h47.83v15.38h-29.4v5.69h27.4v13.54h-27.4v6.09h29.8v15.39H558.38Z"/><line class="cls-8" x1="630.53" y1="374.73" x2="1053.69" y2="374.73"/><g id="Layer_2-2" data-name="Layer 2"><g id="Layer_1-2-2" data-name="Layer 1-2"><rect class="cls-7" x="1246.41" y="363.91" width="107.83" height="30.68" rx="0.49"/><path class="cls-3" d="M1178.21,356.28a.08.08,0,0,0,0-.07c-.1-.11-15,2.73-20.88,3.35a149.94,149.94,0,0,1-18.1,1c-3.52-.35-4.52.36-4.75,1s.19,1.34,1.06,2c1.28.86,2.82.19,4.5,0,1.49-.2,20.9-3,28.67-4.14-4.65,2.94-11.66,9.41-14,22.35-.33,2.28-1.68,8.21-4,8.26a10.14,10.14,0,0,1-2.38-.35c-2.49-.55-5.55-1.25-10.85,1.61a11.17,11.17,0,0,0,2.09-4.39c.09-1.13-.38-2.08-1.08-2.18-.37-.06-1.32.07-1.87,2.5a20.88,20.88,0,0,1-3.14,6.66l-.6.82,1-.36c.15-.06,14.4-5.51,22.45-.08l.57.38-.12-.68c0-.22-3.36-21,12.53-33.26a10.34,10.34,0,0,1,2.93-1.56l5.94-2.12Z"/><path class="cls-3" d="M1191.89,368.2v-.05l.13-.13-.2.08a1.5,1.5,0,0,0-1,0c-9.73,3.47-26.51,5.42-26.68,5.42h-.35l.1.28c1,2.88,2.65,2.58,5,2.15.68-.13,1.44-.27,2.28-.35,3.14-.3,14.64-4.68,18.46-6.16-3.47,3.65-6.56,9.21-7.26,11.77-.48,1.7-.2,5.85,0,8.67a5.06,5.06,0,0,0,.06,1h-.22a13.75,13.75,0,0,0-3-3.07c-2.18-1.56-11.52-5.62-11.87-5.76-3-1.62-4.31-1.23-4.88-.83-1,.74-.78,2.32-1,5.35a38.65,38.65,0,0,1-1.11,6.24c-.31.64-.61,1.32-.49,1.4s.23,0,1-1a7.86,7.86,0,0,1,1.23-.84,17.5,17.5,0,0,1,12.37-.9,15.61,15.61,0,0,0,6.83.41,19.2,19.2,0,0,1,1.55,1.81l.38.54.18-.61c0-.12.3-1.09.65-2.48a8.16,8.16,0,0,0,2-.88,8.29,8.29,0,0,0,1.13-.81l-2.92,1c.72-2.93,1.63-7,1.58-9.17s2-6.36,5.85-11.92l.06-.08C1191.9,369,1192.2,368.52,1191.89,368.2Zm-17.68,21.71a17.94,17.94,0,0,0-6.33-1,11.58,11.58,0,0,0-5,1.24,31,31,0,0,0,1.37-5.28,1.6,1.6,0,0,1,.79-1.42,2.4,2.4,0,0,1,1.7.25h.07a29.11,29.11,0,0,1,13.47,7.42A19.68,19.68,0,0,1,1174.21,389.91Z"/><path class="cls-3" d="M1218.49,355.07c-1.12-.52-2.71,1.24-3,1.74-.84,1.2-2.54,13.22-2.74,14.64-.73,10.73-3.6,17.68-4.5,19.63a132.56,132.56,0,0,0-8.47-12.68c-2-2.7-3.11-6.83-6.08-7.46a.89.89,0,0,0-.84.42c-2.21,3.5-.58,9.4-2.42,15.21a51.67,51.67,0,0,1-2.44,6.26l-1,1.82,1.46-1.42c4.38-4.3,8.91-2.16,13.66.13l.41.19a9.16,9.16,0,0,0,9-.19l2-1.37-2.23.76c-4,1.4-8.34-2.11-8.4-2.17-5-3.4-8.49-3-10.35-2.35,1-1.83,1.57-5.22,2.14-9.08.25-1.72.61-2.12.82-2.21s.61.18.88.39a1.21,1.21,0,0,0,.39.28c.67.61,7.09,9.39,11.3,15.2l.08.11h.11c.35,0,3.49.09,5.94-14.37a71.11,71.11,0,0,1,3.62-14.36,20.15,20.15,0,0,0,1.44-5.4C1219.48,356.65,1219.25,355.43,1218.49,355.07Z"/><path class="cls-3" d="M1239.69,387c-.68-.16-1.69.87-2.18,2,0,0-2.84,4.41-9.58,2.92-4.88-1.1-8-.25-9.45.33l.14-.32a69.72,69.72,0,0,0,2.33-8.64,5.4,5.4,0,0,0,1,1.72c.56.46,10.33-.83,14.22-3,1.84-1,2.84-2.06,3-3.13a2.56,2.56,0,0,0-.71-2.09c-.21-.28-.83-.45-2.55-.92-3.18-.85-9.08-2.43-12.69-5.85-1.88-1.77-3.19-2.37-4-1.83-1,.67-.68,2.83-.63,3.1.29,1.58.87,14.29-1.35,20.67l-.32,2.41a7,7,0,0,1,2.27-1.24,2.4,2.4,0,0,1,.38-.12c.57-.14,1.45-.11,4.09.4a67.4,67.4,0,0,0,7.21,1.08,19.3,19.3,0,0,0,1.95.1c7.32,0,7.81-4.6,7.81-4.8C1240.58,388.61,1240.35,387.18,1239.69,387Zm-18.39-13.32a7.55,7.55,0,0,1-.33-2.31,4,4,0,0,1,.71.92c1.68,2.66,13.93,5.68,16.19,6.21a4,4,0,0,1-1.79,1.82c-3.9,2.31-12,2.74-13.66,2.08a2.42,2.42,0,0,0-.84-.21.7.7,0,0,0-.42.13C1222.19,376.23,1221.35,373.83,1221.3,373.71Z"/><path class="cls-9" d="M1252.87,373.06h2.42l4.8,10.73,4.78-10.73h2.4v13.66H1265v-9.3l-4.17,9.37h-1.56l-4.18-9.37v9.37h-2.25Z"/><path class="cls-9" d="M1274.9,386.92a5.26,5.26,0,0,1-5.45-5.06,4.64,4.64,0,0,1,0-.53c0-3.41,2.2-5.6,5.41-5.6a5.07,5.07,0,0,1,5.32,4.8,4.51,4.51,0,0,1,0,.52,5.93,5.93,0,0,1-.08,1.11h-8.29a3,3,0,0,0,3.09,2.86,2.6,2.6,0,0,0,2.56-1.51h2.42A5,5,0,0,1,1274.9,386.92Zm-3.07-6.57h6a2.82,2.82,0,0,0-2.9-2.74h-.13A2.92,2.92,0,0,0,1271.83,380.35Z"/><path class="cls-9" d="M1286.78,375.71a5,5,0,0,1,3.74,1.71v-5.25h2.26v14.57h-2.26V385.1a4.49,4.49,0,0,1-3.76,1.82c-2.86,0-5.12-2.31-5.12-5.65S1283.9,375.71,1286.78,375.71Zm.45,2a3.31,3.31,0,0,0-3.3,3.35,2.09,2.09,0,0,0,0,.25,3.42,3.42,0,0,0,3.12,3.69h.17a3.39,3.39,0,0,0,3.3-3.46c0-.06,0-.12,0-.18a3.37,3.37,0,0,0-3.06-3.65Z"/><path class="cls-9" d="M1295.44,373a1.27,1.27,0,1,1,0,.07A.17.17,0,0,1,1295.44,373Zm.3,2.87H1298v10.85h-2.24Z"/><path class="cls-9" d="M1305.3,375.71a4.61,4.61,0,0,1,3.76,1.76v-1.58h2.26v10.85h-2.26v-1.62a4.66,4.66,0,0,1-3.8,1.8c-2.82,0-5.07-2.31-5.07-5.65S1302.44,375.71,1305.3,375.71Zm.47,2a3.32,3.32,0,0,0-3.29,3.36,1.93,1.93,0,0,0,0,.24,3.42,3.42,0,0,0,3.12,3.69h.16a3.37,3.37,0,0,0,3.3-3.44c0-.07,0-.14,0-.2a3.36,3.36,0,0,0-3-3.65Z"/><path class="cls-9" d="M1324,380.68H1321v6.06h-.89V372.92H1324c3.17,0,4.53,1.61,4.53,3.91S1327,380.68,1324,380.68Zm0-.79c2.65,0,3.65-1.2,3.65-3.07s-1-3.12-3.65-3.12H1321v6.19Z"/><path class="cls-9" d="M1331.76,386.74h-.88V376h.88v2.2c.53-1.55,1.85-2.42,4-2.42v.93h-.29c-1.84,0-3.67.91-3.67,3.82Z"/><path class="cls-9" d="M1342.47,386.9c-3,0-5.26-2.09-5.26-5.52a5.28,5.28,0,1,1,10.55-.45,3.38,3.38,0,0,1,0,.45,5.14,5.14,0,0,1-4.75,5.51Zm0-.79c2.25,0,4.41-1.48,4.41-4.73s-2.14-4.7-4.39-4.7-4.37,1.47-4.37,4.7S1340.23,386.11,1342.47,386.11Z"/></g></g></g></g></svg>