<svg xmlns="http://www.w3.org/2000/svg" viewBox="0 0 1476 738"><defs><style>.cls-1{fill:#512c79;}.cls-2{fill:#8958a3;}.cls-3{fill:#2b1a4e;}.cls-4{font-size:110.11px;font-family:BebasNeue, Bebas Neue;}.cls-4,.cls-9{fill:#fff;}.cls-5,.cls-6,.cls-7,.cls-8{font-size:89.46px;}.cls-6{letter-spacing:0em;}.cls-7{letter-spacing:0em;}.cls-8{letter-spacing:0em;}.cls-9{font-size:24.67px;font-family:Poppins-SemiBold, Poppins;font-weight:600;}.cls-10{fill:#77469a;}</style></defs><title>Asset 13</title><g id="Layer_2" data-name="Layer 2"><g id="Layer_1-2" data-name="Layer 1"><rect class="cls-1" width="1476" height="738"/><path class="cls-2" d="M83,218.47V49.64H1240.41a168.83,168.83,0,0,1,168.82,168.83H83Z"/><path class="cls-3" d="M0,218.47V49.64H1157.41a168.83,168.83,0,0,1,168.83,168.83H0Z"/><text class="cls-4" transform="translate(82.99 168.78)">9<tspan class="cls-5" x="44.04" y="0"> </tspan><tspan class="cls-6" x="58.36" y="0">t</tspan><tspan class="cls-5" x="91.28" y="0">yp</tspan><tspan class="cls-7" x="161.05" y="0">e</tspan><tspan class="cls-5" x="193.71" y="0">s of GRAPHIC D</tspan><tspan class="cls-8" x="603.24" y="0">E</tspan><tspan class="cls-5" x="635.89" y="0">SIGN ELEMENTS</tspan></text><path class="cls-2" d="M248.26,541.52l-77,77a19.19,19.19,0,0,1-27.13,0l-77-77a19.19,19.19,0,0,1,0-27.13l77-77a19.19,19.19,0,0,1,27.13,0l77,77A19.19,19.19,0,0,1,248.26,541.52Z"/><text class="cls-9" transform="translate(93.42 521.26)">Corporate <tspan x="21.66" y="29.6">design</tspan></text><path class="cls-3" d="M403.76,408.48,317.21,495a26.53,26.53,0,0,1-37.5,0l-86.55-86.55a26.52,26.52,0,0,1,0-37.51l86.55-86.54a26.51,26.51,0,0,1,37.5,0L403.76,371A26.54,26.54,0,0,1,403.76,408.48Z"/><text class="cls-9" transform="translate(220.31 376.23)">Marketing &amp; <tspan x="4.45" y="29.6">Advertising </tspan><tspan x="33.87" y="59.2">design</tspan></text><path class="cls-10" d="M1407.08,560.8l-90.51,90.51a22.55,22.55,0,0,1-31.9,0l-90.51-90.51a22.55,22.55,0,0,1,0-31.9l90.51-90.51a22.55,22.55,0,0,1,31.9,0l90.51,90.51A22.57,22.57,0,0,1,1407.08,560.8Z"/><text class="cls-9" transform="translate(1226.28 534.9)">Digital Art &amp; <tspan x="7.18" y="29.6">Illustration </tspan><tspan x="32.06" y="59.2">design</tspan></text><path class="cls-2" d="M685.26,408.48,598.71,495a26.53,26.53,0,0,1-37.5,0l-86.55-86.55a26.54,26.54,0,0,1,0-37.51l86.55-86.54a26.51,26.51,0,0,1,37.5,0L685.26,371A26.52,26.52,0,0,1,685.26,408.48Z"/><text class="cls-9" transform="translate(488.17 390.03)">Environmental <tspan x="49.16" y="29.6">design</tspan></text><path class="cls-3" d="M844.07,544.8l-90.51,90.51a22.55,22.55,0,0,1-31.9,0L631.15,544.8a22.55,22.55,0,0,1,0-31.9l90.51-90.51a22.55,22.55,0,0,1,31.9,0l90.51,90.51A22.57,22.57,0,0,1,844.07,544.8Z"/><text class="cls-9" transform="translate(667.72 524.46)">Publication <tspan x="28.25" y="29.6">design</tspan></text><path class="cls-10" d="M1000.55,408.48,914,495a26.53,26.53,0,0,1-37.5,0L790,408.48A26.52,26.52,0,0,1,790,371l86.55-86.54a26.51,26.51,0,0,1,37.5,0L1000.55,371A26.52,26.52,0,0,1,1000.55,408.48Z"/><text class="cls-9" transform="translate(828.1 387.14)">Packaging <tspan x="24.52" y="29.6">design</tspan></text><path class="cls-2" d="M1126.56,541.52l-77,77a19.19,19.19,0,0,1-27.13,0l-77-77a19.17,19.17,0,0,1,0-27.13l77-77a19.19,19.19,0,0,1,27.13,0l77,77A19.19,19.19,0,0,1,1126.56,541.52Z"/><text class="cls-9" transform="translate(989.17 521.77)">Motion <tspan x="0.55" y="29.6">design</tspan></text><path class="cls-3" d="M1255.43,412.57l-73.62,73.62a22.57,22.57,0,0,1-31.9,0l-73.61-73.62a22.55,22.55,0,0,1,0-31.9l73.61-73.62a22.55,22.55,0,0,1,31.9,0l73.62,73.62A22.55,22.55,0,0,1,1255.43,412.57Z"/><text class="cls-9" transform="translate(1153.84 389.1)">UI <tspan x="-30.61" y="29.6">design</tspan></text><path class="cls-10" d="M529.77,541.52l-77,77a19.2,19.2,0,0,1-27.14,0l-77-77a19.19,19.19,0,0,1,0-27.13l77-77a19.2,19.2,0,0,1,27.14,0l77,77A19.19,19.19,0,0,1,529.77,541.52Z"/><text class="cls-9" transform="translate(409.77 519.29)">NFTs <tspan x="-13.68" y="29.6">Design</tspan></text></g></g></svg>