<svg width="16" height="16" viewBox="0 0 16 16" fill="none" xmlns="http://www.w3.org/2000/svg">
<g clip-path="url(#clip0_201:788)">
<path d="M15.6063 7.05063L8.95086 0.395158C8.42594 -0.129766 7.5746 -0.129766 7.04967 0.395158C6.52475 0.920082 6.52475 1.77143 7.04967 2.29635L12.7539 8.00056L7.04967 13.7047C6.52475 14.2297 6.52475 15.081 7.04967 15.6059C7.5746 16.1309 8.42594 16.1309 8.95086 15.6059L15.6063 8.95049C16.1312 8.42687 16.1312 7.57555 15.6063 7.05063ZM7.6039 6.64761L2.32005 1.07864C1.78911 0.519755 0.92914 0.519755 0.398203 1.07864C-0.132734 1.63752 -0.132734 2.54416 0.398203 3.10372L4.72149 7.66015L0.398203 12.2166C-0.132734 12.7755 -0.132734 13.6828 0.398203 14.2417C0.92914 14.8006 1.78911 14.8006 2.32005 14.2417L7.6039 8.67269C8.13484 8.11381 8.13484 7.20717 7.6039 6.64761Z" fill="#252B42"/>
</g>
<defs>
<clipPath id="clip0_201:788">
<rect width="16" height="16" fill="white"/>
</clipPath>
</defs>
</svg>
