<svg width="35" height="32" viewBox="0 0 35 32" fill="none" xmlns="http://www.w3.org/2000/svg">
<path fill-rule="evenodd" clip-rule="evenodd" d="M6.8117 4.70834H2.89258V5.95834H6.34899L10.4657 19.4468L10.6008 19.8893H11.0635H27.4937H27.9449L28.087 19.4611L31.6901 8.59577L31.9626 7.77404H31.0969H11.0635V9.02404H30.2312L27.0425 18.6393H11.5262L7.40948 5.1509L7.27441 4.70834H6.8117ZM13.6334 22.7202C12.561 22.7202 11.7798 23.5105 11.7798 24.381C11.7798 25.2514 12.561 26.0417 13.6334 26.0417C14.7059 26.0417 15.4871 25.2514 15.4871 24.381C15.4871 23.5105 14.7059 22.7202 13.6334 22.7202ZM10.5298 24.381C10.5298 22.7267 11.968 21.4702 13.6334 21.4702C15.2989 21.4702 16.7371 22.7267 16.7371 24.381C16.7371 26.0352 15.2989 27.2917 13.6334 27.2917C11.968 27.2917 10.5298 26.0352 10.5298 24.381ZM25.2005 22.7202C24.1281 22.7202 23.3469 23.5105 23.3469 24.381C23.3469 25.2514 24.1281 26.0417 25.2005 26.0417C26.273 26.0417 27.0542 25.2514 27.0542 24.381C27.0542 23.5105 26.273 22.7202 25.2005 22.7202ZM22.0969 24.381C22.0969 22.7267 23.5351 21.4702 25.2005 21.4702C26.866 21.4702 28.3042 22.7267 28.3042 24.381C28.3042 26.0352 26.866 27.2917 25.2005 27.2917C23.5351 27.2917 22.0969 26.0352 22.0969 24.381Z" fill="white"/>
</svg>
