<svg width="47" height="46" viewBox="0 0 47 46" fill="none" xmlns="http://www.w3.org/2000/svg">
<path d="M2.66602 4.79169H7.07026C7.54865 4.79169 7.78784 4.79169 7.9823 4.87843C8.15372 4.9549 8.30016 5.07807 8.40487 5.23385C8.52365 5.41057 8.56463 5.64623 8.6466 6.11754L9.58268 11.5M9.58268 11.5L11.7411 23.9108C11.9203 24.9411 12.0098 25.4562 12.2752 25.8273C12.5088 26.1541 12.8354 26.4029 13.2125 26.5414C13.6407 26.6987 14.1611 26.6483 15.202 26.5476L39.0659 24.2382C40.0872 24.1394 40.5979 24.0899 40.9838 23.8592C41.3238 23.656 41.5957 23.3565 41.7652 22.9986C41.9577 22.5922 41.9577 22.0792 41.9577 21.0531V15.565C41.9577 14.4745 41.9577 13.9292 41.7477 13.5079C41.5629 13.1371 41.2675 12.8329 40.9024 12.6372C40.4874 12.4148 39.9424 12.3987 38.8524 12.3664L9.58268 11.5Z" stroke="black" stroke-width="1.8" stroke-linecap="round" stroke-linejoin="round"/>
<ellipse cx="17.0423" cy="36.4167" rx="3.83333" ry="3.83333" stroke="black" stroke-width="1.8"/>
<ellipse cx="35.2493" cy="36.4167" rx="3.83333" ry="3.83333" stroke="black" stroke-width="1.8"/>
</svg>
