<svg xmlns="http://www.w3.org/2000/svg" xmlns:xlink="http://www.w3.org/1999/xlink" viewBox="0 0 1476 777"><defs><style>.cls-1{isolation:isolate;}.cls-2{fill:#f4f6f6;}.cls-3{fill:#e1dfef;opacity:0.4;}.cls-3,.cls-4{mix-blend-mode:multiply;}.cls-5,.cls-61,.cls-66{fill:#fff;}.cls-5{opacity:0;}.cls-6{fill:#fefeff;opacity:0.02;}.cls-7{fill:#fdfdfe;opacity:0.04;}.cls-8{fill:#fcfcfe;opacity:0.06;}.cls-9{fill:#fbfbfd;opacity:0.08;}.cls-10{fill:#fafafd;opacity:0.1;}.cls-11{fill:#f9f9fc;opacity:0.12;}.cls-12{fill:#f8f8fc;opacity:0.14;}.cls-13{fill:#f7f7fb;opacity:0.16;}.cls-14{fill:#f6f6fb;opacity:0.18;}.cls-15{fill:#f5f5fa;opacity:0.2;}.cls-16{fill:#f4f4fa;opacity:0.22;}.cls-17{fill:#f3f3f9;opacity:0.24;}.cls-18{fill:#f3f2f9;opacity:0.25;}.cls-19{fill:#f2f1f8;opacity:0.27;}.cls-20{fill:#f1f0f8;opacity:0.29;}.cls-21{fill:#f0eff7;opacity:0.31;}.cls-22{fill:#efeef7;opacity:0.33;}.cls-23{fill:#eeedf7;opacity:0.35;}.cls-24{fill:#edecf6;opacity:0.37;}.cls-25{fill:#ecebf6;opacity:0.39;}.cls-26{fill:#ebeaf5;opacity:0.41;}.cls-27{fill:#eae9f5;opacity:0.43;}.cls-28{fill:#e9e8f4;opacity:0.45;}.cls-29{fill:#e8e7f4;opacity:0.47;}.cls-30{fill:#e7e6f3;opacity:0.49;}.cls-31{fill:#e6e6f3;opacity:0.51;}.cls-32{fill:#e5e5f2;opacity:0.53;}.cls-33{fill:#e4e4f2;opacity:0.55;}.cls-34{fill:#e3e3f1;opacity:0.57;}.cls-35{fill:#e2e2f1;opacity:0.59;}.cls-36{fill:#e1e1f0;opacity:0.61;}.cls-37{fill:#e0e0f0;opacity:0.63;}.cls-38{fill:#dfdfef;opacity:0.65;}.cls-39{fill:#dedeef;opacity:0.67;}.cls-40{fill:#ddddef;opacity:0.69;}.cls-41{fill:#dcdcee;opacity:0.71;}.cls-42{fill:#dbdbee;opacity:0.73;}.cls-43{fill:#dadaed;opacity:0.75;}.cls-44{fill:#dad9ed;opacity:0.76;}.cls-45{fill:#d9d8ec;opacity:0.78;}.cls-46{fill:#d8d7ec;opacity:0.8;}.cls-47{fill:#d7d6eb;opacity:0.82;}.cls-48{fill:#d6d5eb;opacity:0.84;}.cls-49{fill:#d5d4ea;opacity:0.86;}.cls-50{fill:#d4d3ea;opacity:0.88;}.cls-51{fill:#d3d2e9;opacity:0.9;}.cls-52{fill:#d2d1e9;opacity:0.92;}.cls-53{fill:#d1d0e8;opacity:0.94;}.cls-54{fill:#d0cfe8;opacity:0.96;}.cls-55{fill:#cfcee7;opacity:0.98;}.cls-56{fill:#cecde7;}.cls-57{fill:url(#Degradado_sin_nombre_4);}.cls-58,.cls-63,.cls-68,.cls-71,.cls-74,.cls-77,.cls-79{fill:none;}.cls-58,.cls-60,.cls-63,.cls-65,.cls-68,.cls-69,.cls-71,.cls-72,.cls-74,.cls-75,.cls-77,.cls-78{stroke-miterlimit:10;}.cls-58,.cls-63,.cls-68,.cls-71,.cls-74,.cls-77{stroke-width:3.79px;}.cls-58{stroke:url(#Degradado_sin_nombre_4-2);}.cls-59{font-size:25.89px;font-family:Poppins-Bold, Poppins;font-weight:700;}.cls-59,.cls-64{fill:#30302f;}.cls-60{stroke:#a588bf;fill:url(#Degradado_sin_nombre_5);}.cls-60,.cls-65,.cls-69,.cls-72,.cls-75,.cls-78{stroke-width:2.5px;}.cls-61{stroke:#fff;stroke-width:0.45px;}.cls-61,.cls-79{stroke-linecap:round;stroke-linejoin:round;}.cls-62{fill:url(#Degradado_sin_nombre_4-3);}.cls-63{stroke:url(#Degradado_sin_nombre_4-4);}.cls-64{font-size:19.42px;font-family:Poppins-SemiBold, Poppins;font-weight:600;}.cls-65,.cls-69,.cls-72,.cls-75,.cls-78{stroke:#65c4b3;}.cls-65{fill:url(#Degradado_sin_nombre_3);}.cls-67{fill:url(#Degradado_sin_nombre_4-5);}.cls-68{stroke:url(#Degradado_sin_nombre_4-6);}.cls-69{fill:url(#Degradado_sin_nombre_3-2);}.cls-70{fill:url(#Degradado_sin_nombre_4-7);}.cls-71{stroke:url(#Degradado_sin_nombre_4-8);}.cls-72{fill:url(#Degradado_sin_nombre_3-3);}.cls-73{fill:url(#Degradado_sin_nombre_4-9);}.cls-74{stroke:url(#Degradado_sin_nombre_4-10);}.cls-75{fill:url(#Degradado_sin_nombre_3-4);}.cls-76{fill:url(#Degradado_sin_nombre_4-11);}.cls-77{stroke:url(#Degradado_sin_nombre_4-12);}.cls-78{fill:url(#Degradado_sin_nombre_3-5);}.cls-79{stroke:#70c9c6;stroke-width:6.23px;}</style><linearGradient id="Degradado_sin_nombre_4" x1="668.02" y1="42.57" x2="793.28" y2="341.25" gradientUnits="userSpaceOnUse"><stop offset="0" stop-color="#d6dcdf"/><stop offset="0.92" stop-color="#fbfcfc"/><stop offset="1" stop-color="#fff"/></linearGradient><linearGradient id="Degradado_sin_nombre_4-2" x1="809.76" y1="330.08" x2="655.07" y2="62.15" xlink:href="#Degradado_sin_nombre_4"/><linearGradient id="Degradado_sin_nombre_5" x1="724.93" y1="79.48" x2="736.16" y2="137.07" gradientUnits="userSpaceOnUse"><stop offset="0" stop-color="#77469a"/><stop offset="1" stop-color="#a285bd"/></linearGradient><linearGradient id="Degradado_sin_nombre_4-3" x1="125.25" y1="221.77" x2="217.96" y2="442.86" xlink:href="#Degradado_sin_nombre_4"/><linearGradient id="Degradado_sin_nombre_4-4" x1="230.41" y1="435.01" x2="115.41" y2="235.84" xlink:href="#Degradado_sin_nombre_4"/><linearGradient id="Degradado_sin_nombre_3" x1="167.37" y1="249.09" x2="175.68" y2="291.72" gradientUnits="userSpaceOnUse"><stop offset="0" stop-color="#1eb79d"/><stop offset="1" stop-color="#6bc6b7"/></linearGradient><linearGradient id="Degradado_sin_nombre_4-5" x1="387.72" y1="396.69" x2="480.44" y2="617.77" xlink:href="#Degradado_sin_nombre_4"/><linearGradient id="Degradado_sin_nombre_4-6" x1="492.88" y1="609.93" x2="377.89" y2="410.76" xlink:href="#Degradado_sin_nombre_4"/><linearGradient id="Degradado_sin_nombre_3-2" x1="429.85" y1="424.01" x2="438.16" y2="466.64" xlink:href="#Degradado_sin_nombre_3"/><linearGradient id="Degradado_sin_nombre_4-7" x1="686.2" y1="481.55" x2="778.92" y2="702.64" xlink:href="#Degradado_sin_nombre_4"/><linearGradient id="Degradado_sin_nombre_4-8" x1="791.36" y1="694.8" x2="676.37" y2="495.62" xlink:href="#Degradado_sin_nombre_4"/><linearGradient id="Degradado_sin_nombre_3-3" x1="728.33" y1="508.87" x2="736.64" y2="551.5" xlink:href="#Degradado_sin_nombre_3"/><linearGradient id="Degradado_sin_nombre_4-9" x1="984.68" y1="396.69" x2="1077.39" y2="617.77" xlink:href="#Degradado_sin_nombre_4"/><linearGradient id="Degradado_sin_nombre_4-10" x1="1089.84" y1="609.93" x2="974.84" y2="410.76" xlink:href="#Degradado_sin_nombre_4"/><linearGradient id="Degradado_sin_nombre_3-4" x1="1026.8" y1="424.01" x2="1035.11" y2="466.64" xlink:href="#Degradado_sin_nombre_3"/><linearGradient id="Degradado_sin_nombre_4-11" x1="1247.15" y1="221.77" x2="1339.87" y2="442.86" xlink:href="#Degradado_sin_nombre_4"/><linearGradient id="Degradado_sin_nombre_4-12" x1="1352.31" y1="435.01" x2="1237.32" y2="235.84" xlink:href="#Degradado_sin_nombre_4"/><linearGradient id="Degradado_sin_nombre_3-5" x1="1289.28" y1="249.09" x2="1297.59" y2="291.72" xlink:href="#Degradado_sin_nombre_3"/></defs><title>SM PostArtboard 3</title><g class="cls-1"><g id="Layer_1" data-name="Layer 1"><rect class="cls-2" width="1476" height="777"/><rect class="cls-3" x="594.96" y="58.89" width="274.43" height="274.43" rx="36"/><g class="cls-4"><circle class="cls-5" cx="738.29" cy="274.95" r="158.06"/><circle class="cls-6" cx="738.29" cy="274.26" r="157.1"/><circle class="cls-7" cx="738.29" cy="273.58" r="156.13"/><circle class="cls-8" cx="738.29" cy="272.89" r="155.17"/><circle class="cls-9" cx="738.29" cy="272.2" r="154.2"/><circle class="cls-10" cx="738.29" cy="271.51" r="153.23"/><circle class="cls-11" cx="738.29" cy="270.83" r="152.27"/><circle class="cls-12" cx="738.29" cy="270.14" r="151.3"/><circle class="cls-13" cx="738.29" cy="269.45" r="150.34"/><circle class="cls-14" cx="738.29" cy="268.76" r="149.37"/><circle class="cls-15" cx="738.29" cy="268.08" r="148.4"/><circle class="cls-16" cx="738.29" cy="267.39" r="147.44"/><circle class="cls-17" cx="738.29" cy="266.7" r="146.47"/><circle class="cls-18" cx="738.29" cy="266.01" r="145.51"/><circle class="cls-19" cx="738.29" cy="265.33" r="144.54"/><circle class="cls-20" cx="738.29" cy="264.64" r="143.57"/><circle class="cls-21" cx="738.29" cy="263.95" r="142.61"/><circle class="cls-22" cx="738.29" cy="263.26" r="141.64"/><circle class="cls-23" cx="738.29" cy="262.58" r="140.68"/><circle class="cls-24" cx="738.29" cy="261.89" r="139.71"/><circle class="cls-25" cx="738.29" cy="261.2" r="138.75"/><circle class="cls-26" cx="738.29" cy="260.51" r="137.78"/><circle class="cls-27" cx="738.29" cy="259.83" r="136.81"/><circle class="cls-28" cx="738.29" cy="259.14" r="135.85"/><circle class="cls-29" cx="738.29" cy="258.45" r="134.88"/><circle class="cls-30" cx="738.29" cy="257.76" r="133.92"/><circle class="cls-31" cx="738.29" cy="257.08" r="132.95"/><circle class="cls-32" cx="738.29" cy="256.39" r="131.98"/><circle class="cls-33" cx="738.29" cy="255.7" r="131.02"/><circle class="cls-34" cx="738.29" cy="255.01" r="130.05"/><circle class="cls-35" cx="738.29" cy="254.33" r="129.09"/><circle class="cls-36" cx="738.29" cy="253.64" r="128.12"/><circle class="cls-37" cx="738.29" cy="252.95" r="127.15"/><circle class="cls-38" cx="738.29" cy="252.26" r="126.19"/><circle class="cls-39" cx="738.29" cy="251.58" r="125.22"/><circle class="cls-40" cx="738.29" cy="250.89" r="124.26"/><circle class="cls-41" cx="738.29" cy="250.2" r="123.29"/><circle class="cls-42" cx="738.29" cy="249.51" r="122.33"/><circle class="cls-43" cx="738.29" cy="248.83" r="121.36"/><circle class="cls-44" cx="738.29" cy="248.14" r="120.39"/><circle class="cls-45" cx="738.29" cy="247.45" r="119.43"/><circle class="cls-46" cx="738.29" cy="246.76" r="118.46"/><circle class="cls-47" cx="738.29" cy="246.08" r="117.5"/><circle class="cls-48" cx="738.29" cy="245.39" r="116.53"/><circle class="cls-49" cx="738.29" cy="244.7" r="115.56"/><circle class="cls-50" cx="738.29" cy="244.02" r="114.6"/><circle class="cls-51" cx="738.29" cy="243.33" r="113.63"/><circle class="cls-52" cx="738.29" cy="242.64" r="112.67"/><circle class="cls-53" cx="738.29" cy="241.95" r="111.7"/><circle class="cls-54" cx="738.29" cy="241.27" r="110.73"/><circle class="cls-55" cx="738.29" cy="240.58" r="109.77"/><circle class="cls-56" cx="738.29" cy="239.89" r="108.8"/></g><rect class="cls-57" x="579.64" y="43.34" width="305.54" height="305.54" rx="152.77"/><rect class="cls-58" x="579.64" y="43.34" width="305.54" height="305.54" rx="152.77"/><text class="cls-59" transform="translate(701.93 215.59)">OUR <tspan x="-17.31" y="31.07">DESIGN</tspan><tspan x="-29" y="62.13">PROCESS</tspan></text><g class="cls-4"><circle class="cls-5" cx="732.41" cy="142.71" r="41" transform="translate(454.15 835.07) rotate(-79.13)"/><circle class="cls-6" cx="732.41" cy="142.46" r="40.68" transform="translate(455.91 835.48) rotate(-79.26)"/><circle class="cls-7" cx="732.41" cy="142.22" r="40.36" transform="translate(457.7 835.89) rotate(-79.38)"/><circle class="cls-8" cx="732.41" cy="141.97" r="40.04" transform="translate(459.52 836.31) rotate(-79.51)"/><circle class="cls-9" cx="732.41" cy="141.72" r="39.72" transform="matrix(0.18, -0.98, 0.98, 0.18, 461.37, 836.74)"/><circle class="cls-10" cx="732.41" cy="141.48" r="39.4" transform="translate(463.25 837.18) rotate(-79.78)"/><circle class="cls-11" cx="732.41" cy="141.23" r="39.09" transform="translate(465.16 837.62) rotate(-79.92)"/><circle class="cls-12" cx="732.41" cy="140.99" r="38.77" transform="translate(467.11 838.06) rotate(-80.06)"/><circle class="cls-13" cx="732.41" cy="140.74" r="38.45" transform="translate(469.09 838.52) rotate(-80.2)"/><circle class="cls-14" cx="732.41" cy="140.49" r="38.13" transform="translate(471.1 838.98) rotate(-80.35)"/><circle class="cls-15" cx="732.41" cy="140.25" r="37.81" transform="translate(473.14 839.45) rotate(-80.5)"/><circle class="cls-16" cx="732.41" cy="140" r="37.49" transform="translate(475.23 839.92) rotate(-80.65)"/><circle class="cls-17" cx="732.41" cy="139.76" r="37.18" transform="translate(477.34 840.4) rotate(-80.8)"/><circle class="cls-18" cx="732.41" cy="139.51" r="36.86" transform="translate(479.5 840.88) rotate(-80.96)"/><circle class="cls-19" cx="732.41" cy="139.26" r="36.54" transform="translate(481.69 841.38) rotate(-81.11)"/><circle class="cls-20" cx="732.41" cy="139.02" r="36.22" transform="translate(483.93 841.88) rotate(-81.28)"/><circle class="cls-21" cx="732.41" cy="138.77" r="35.9" transform="translate(486.2 842.38) rotate(-81.44)"/><circle class="cls-22" cx="732.41" cy="138.53" r="35.58" transform="translate(488.52 842.89) rotate(-81.61)"/><circle class="cls-23" cx="732.41" cy="138.28" r="35.27" transform="matrix(0.14, -0.99, 0.99, 0.14, 490.88, 843.41)"/><circle class="cls-24" cx="732.41" cy="138.03" r="34.95" transform="translate(493.29 843.94) rotate(-81.96)"/><circle class="cls-25" cx="732.41" cy="137.79" r="34.63" transform="translate(495.73 844.47) rotate(-82.14)"/><circle class="cls-26" cx="732.41" cy="137.54" r="34.31" transform="translate(498.23 845) rotate(-82.32)"/><circle class="cls-27" cx="732.41" cy="137.3" r="33.99" transform="translate(500.77 845.55) rotate(-82.51)"/><circle class="cls-28" cx="732.41" cy="137.05" r="33.68" transform="translate(503.37 846.1) rotate(-82.7)"/><circle class="cls-29" cx="732.41" cy="136.8" r="33.36" transform="translate(506.01 846.65) rotate(-82.89)"/><circle class="cls-30" cx="732.41" cy="136.56" r="33.04" transform="translate(508.7 847.21) rotate(-83.09)"/><circle class="cls-31" cx="732.41" cy="136.31" r="32.72" transform="translate(511.45 847.78) rotate(-83.29)"/><circle class="cls-32" cx="732.41" cy="136.07" r="32.4" transform="translate(514.25 848.35) rotate(-83.5)"/><circle class="cls-33" cx="732.41" cy="135.82" r="32.08" transform="translate(517.11 848.92) rotate(-83.71)"/><circle class="cls-34" cx="732.41" cy="135.57" r="31.77" transform="translate(520.03 849.51) rotate(-83.92)"/><circle class="cls-35" cx="732.41" cy="135.33" r="31.45" transform="translate(523 850.09) rotate(-84.14)"/><circle class="cls-36" cx="732.41" cy="135.08" r="31.13" transform="translate(526.04 850.68) rotate(-84.36)"/><circle class="cls-37" cx="732.41" cy="134.83" r="30.81" transform="translate(529.14 851.28) rotate(-84.59)"/><circle class="cls-38" cx="732.41" cy="134.59" r="30.49" transform="translate(532.3 851.87) rotate(-84.82)"/><circle class="cls-39" cx="732.41" cy="134.34" r="30.17" transform="translate(535.53 852.47) rotate(-85.06)"/><circle class="cls-40" cx="732.41" cy="134.1" r="29.86" transform="translate(538.82 853.08) rotate(-85.31)"/><circle class="cls-41" cx="732.41" cy="133.85" r="29.54" transform="translate(542.19 853.68) rotate(-85.55)"/><circle class="cls-42" cx="732.41" cy="133.6" r="29.22" transform="translate(545.62 854.29) rotate(-85.81)"/><circle class="cls-43" cx="732.41" cy="133.36" r="28.9" transform="translate(549.13 854.9) rotate(-86.07)"/><circle class="cls-44" cx="732.41" cy="133.11" r="28.58" transform="translate(552.71 855.51) rotate(-86.33)"/><circle class="cls-45" cx="732.41" cy="132.87" r="28.26" transform="translate(556.37 856.12) rotate(-86.6)"/><circle class="cls-46" cx="732.41" cy="132.62" r="27.95" transform="translate(560.11 856.72) rotate(-86.88)"/><circle class="cls-47" cx="732.41" cy="132.37" r="27.63" transform="translate(563.93 857.33) rotate(-87.16)"/><circle class="cls-48" cx="732.41" cy="132.13" r="27.31" transform="translate(567.83 857.94) rotate(-87.45)"/><circle class="cls-49" cx="732.41" cy="131.88" r="26.99" transform="translate(571.82 858.54) rotate(-87.75)"/><circle class="cls-50" cx="732.41" cy="131.64" r="26.67" transform="translate(575.89 859.14) rotate(-88.05)"/><circle class="cls-51" cx="732.41" cy="131.39" r="26.35" transform="translate(580.05 859.73) rotate(-88.35)"/><circle class="cls-52" cx="732.41" cy="131.14" r="26.04" transform="translate(584.3 860.31) rotate(-88.67)"/><circle class="cls-53" cx="732.41" cy="130.9" r="25.72" transform="matrix(0.02, -1, 1, 0.02, 588.65, 860.89)"/><circle class="cls-54" cx="732.41" cy="130.65" r="25.4" transform="translate(593.08 861.46) rotate(-89.32)"/><circle class="cls-55" cx="732.41" cy="130.41" r="25.08" transform="translate(597.62 862.02) rotate(-89.66)"/><circle class="cls-56" cx="732.41" cy="130.16" r="24.76"/></g><circle class="cls-60" cx="733.11" cy="121.43" r="35.14"/><path class="cls-61" d="M744.75,102.54a3.73,3.73,0,0,0-2.49.85,3.83,3.83,0,0,0-3.55-2.87,3.77,3.77,0,0,0-2.37.76,3.85,3.85,0,0,0-3.67-3.78,3.72,3.72,0,0,0-2.77,1.1,3.85,3.85,0,0,0-1.12,2.75V110a11.83,11.83,0,0,0-10.87-3.13,3.2,3.2,0,0,0-2.25,1.86,3.24,3.24,0,0,0,.17,3,3.33,3.33,0,0,0,.83,1h-3.77a1.53,1.53,0,0,0-1.53,1.53v1.51l-.32,0a2.78,2.78,0,0,0-2.69,2.64,2.71,2.71,0,0,0,.76,2,2.76,2.76,0,0,0,2,.86h.25v1.51a1.54,1.54,0,0,0,1.53,1.53h2.44a3.15,3.15,0,0,0-.5.64,3.29,3.29,0,0,0-.24,2.79,3.23,3.23,0,0,0,2,2,11.76,11.76,0,0,0,3.91.66,9.34,9.34,0,0,0,1.6-.14,1.25,1.25,0,0,1,.69.07,1.16,1.16,0,0,1,.69,1.06V143a2.4,2.4,0,0,0,2.4,2.4h16.86a2.4,2.4,0,0,0,2.4-2.4v-4.22a.76.76,0,0,0-1.51,0V143a.89.89,0,0,1-.89.89H725.85A.89.89,0,0,1,725,143V131.28a2.69,2.69,0,0,0-.72-1.87,2.63,2.63,0,0,0-1.94-.84,2.59,2.59,0,0,0-.48,0,7.45,7.45,0,0,1-1.35.12,10.35,10.35,0,0,1-3.41-.58,1.72,1.72,0,0,1-1-1,1.76,1.76,0,0,1,2.21-2.29,6.8,6.8,0,1,0,2.63-13.21,6.9,6.9,0,0,0-1.82.15,1.76,1.76,0,0,1-1.89-.86,1.72,1.72,0,0,1-.09-1.59,1.68,1.68,0,0,1,1.19-1,10.76,10.76,0,0,1,2.12-.24,10.36,10.36,0,0,1,8.55,4.37.79.79,0,0,0,.67.34.76.76,0,0,0,.71-.76v-10.7a2.34,2.34,0,0,1,.72-1.71,2.28,2.28,0,0,1,1.61-.61,2.32,2.32,0,0,1,2.21,2.33v13a.77.77,0,0,0,.73.79.76.76,0,0,0,.78-.76v-10a2.35,2.35,0,0,1,.63-1.62,2.23,2.23,0,0,1,1.7-.69,2.31,2.31,0,0,1,2.2,2.32v12a.77.77,0,0,0,.73.78.75.75,0,0,0,.78-.75v-10a2.34,2.34,0,0,1,.7-1.7,2.25,2.25,0,0,1,1.63-.63,2.31,2.31,0,0,1,2.2,2.33v18.07a6.2,6.2,0,0,1-2.94,5.39.77.77,0,0,0-.37.65v4.94a.76.76,0,1,0,1.51,0V130.9a7.68,7.68,0,0,0,3.32-6.3V106.38A3.84,3.84,0,0,0,744.75,102.54Zm-23.19,14.78a.76.76,0,0,0,.38-.66V114.2a1.55,1.55,0,0,0-.33-1,5.35,5.35,0,0,1,3.94,3.7,5,5,0,0,1,.21,1.22v.27c0,.11,0,.21,0,.32a5.27,5.27,0,0,1-4.14,4.82,1.56,1.56,0,0,0,.33-1v-2.45a.76.76,0,0,0-.38-.66.77.77,0,0,0-.75,0,1.19,1.19,0,0,1-.63.17,1.25,1.25,0,0,1-.91-.39,1.23,1.23,0,0,1-.35-.93,1.29,1.29,0,0,1,1.22-1.2,1.45,1.45,0,0,1,.67.17A.75.75,0,0,0,721.56,117.32Zm-1.21-3.2a.09.09,0,0,1,.08.08v1.45l-.32,0a2.79,2.79,0,0,0-2.7,2.64,2.71,2.71,0,0,0,.76,2,2.77,2.77,0,0,0,2,.86h.25v1.44a.08.08,0,0,1-.08.08h-7.46s0,0,0,0v-2.52a.78.78,0,0,0-.38-.66.77.77,0,0,0-.76,0,1.17,1.17,0,0,1-.63.17,1.25,1.25,0,0,1-.91-.39,1.27,1.27,0,0,1-.35-.93,1.3,1.3,0,0,1,1.23-1.2,1.38,1.38,0,0,1,.66.17.76.76,0,0,0,.76,0,.78.78,0,0,0,.38-.66v-2.52s0,0,0,0Z"/><rect class="cls-3" x="71.17" y="233.86" width="203.14" height="203.14" rx="36"/><g class="cls-4"><circle class="cls-5" cx="177.26" cy="393.78" r="117"/><circle class="cls-6" cx="177.26" cy="393.27" r="116.28"/><circle class="cls-7" cx="177.26" cy="392.77" r="115.57"/><circle class="cls-8" cx="177.26" cy="392.26" r="114.85"/><circle class="cls-9" cx="177.26" cy="391.75" r="114.14"/><circle class="cls-10" cx="177.26" cy="391.24" r="113.42"/><circle class="cls-11" cx="177.26" cy="390.73" r="112.71"/><circle class="cls-12" cx="177.26" cy="390.22" r="111.99"/><circle class="cls-13" cx="177.26" cy="389.71" r="111.28"/><circle class="cls-14" cx="177.26" cy="389.2" r="110.56"/><circle class="cls-15" cx="177.26" cy="388.69" r="109.85"/><circle class="cls-16" cx="177.26" cy="388.19" r="109.13"/><circle class="cls-17" cx="177.26" cy="387.68" r="108.42"/><circle class="cls-18" cx="177.26" cy="387.17" r="107.7"/><circle class="cls-19" cx="177.26" cy="386.66" r="106.99"/><circle class="cls-20" cx="177.26" cy="386.15" r="106.28"/><circle class="cls-21" cx="177.26" cy="385.64" r="105.56"/><circle class="cls-22" cx="177.26" cy="385.13" r="104.85"/><circle class="cls-23" cx="177.26" cy="384.62" r="104.13"/><circle class="cls-24" cx="177.26" cy="384.11" r="103.42"/><circle class="cls-25" cx="177.26" cy="383.61" r="102.7"/><circle class="cls-26" cx="177.26" cy="383.1" r="101.99"/><circle class="cls-27" cx="177.26" cy="382.59" r="101.27"/><circle class="cls-28" cx="177.26" cy="382.08" r="100.56"/><circle class="cls-29" cx="177.26" cy="381.57" r="99.84"/><circle class="cls-30" cx="177.26" cy="381.06" r="99.13"/><circle class="cls-31" cx="177.26" cy="380.55" r="98.41"/><circle class="cls-32" cx="177.26" cy="380.04" r="97.7"/><circle class="cls-33" cx="177.26" cy="379.53" r="96.98"/><circle class="cls-34" cx="177.26" cy="379.03" r="96.27"/><circle class="cls-35" cx="177.26" cy="378.52" r="95.55"/><circle class="cls-36" cx="177.26" cy="378.01" r="94.84"/><circle class="cls-37" cx="177.26" cy="377.5" r="94.12"/><circle class="cls-38" cx="177.26" cy="376.99" r="93.41"/><circle class="cls-39" cx="177.26" cy="376.48" r="92.69"/><circle class="cls-40" cx="177.26" cy="375.97" r="91.98"/><circle class="cls-41" cx="177.26" cy="375.46" r="91.26"/><circle class="cls-42" cx="177.26" cy="374.96" r="90.55"/><circle class="cls-43" cx="177.26" cy="374.45" r="89.83"/><circle class="cls-44" cx="177.26" cy="373.94" r="89.12"/><circle class="cls-45" cx="177.26" cy="373.43" r="88.4"/><circle class="cls-46" cx="177.26" cy="372.92" r="87.69"/><circle class="cls-47" cx="177.26" cy="372.41" r="86.97"/><circle class="cls-48" cx="177.26" cy="371.9" r="86.26"/><circle class="cls-49" cx="177.26" cy="371.39" r="85.54"/><circle class="cls-50" cx="177.26" cy="370.88" r="84.83"/><circle class="cls-51" cx="177.26" cy="370.38" r="84.11"/><circle class="cls-52" cx="177.26" cy="369.87" r="83.4"/><circle class="cls-53" cx="177.26" cy="369.36" r="82.68"/><circle class="cls-54" cx="177.26" cy="368.85" r="81.97"/><circle class="cls-55" cx="177.26" cy="368.34" r="81.25"/><circle class="cls-56" cx="177.26" cy="367.83" r="80.54"/></g><rect class="cls-62" x="59.83" y="222.35" width="226.16" height="226.16" rx="113.08"/><rect class="cls-63" x="59.83" y="222.35" width="226.16" height="226.16" rx="113.08"/><text class="cls-64" transform="translate(118.36 349.84)">ANALYZING <tspan x="2.87" y="23.3">THE IDEA &amp; </tspan><tspan x="29.08" y="46.6">BRIEF</tspan></text><g class="cls-4"><circle class="cls-5" cx="172.91" cy="295.9" r="30.35" transform="translate(-150.28 409.91) rotate(-79.13)"/><circle class="cls-6" cx="172.91" cy="295.71" r="30.11" transform="translate(-149.85 410.47) rotate(-79.26)"/><circle class="cls-7" cx="172.91" cy="295.53" r="29.87" transform="translate(-149.42 411.04) rotate(-79.38)"/><circle class="cls-8" cx="172.91" cy="295.35" r="29.64" transform="translate(-148.98 411.62) rotate(-79.51)"/><circle class="cls-9" cx="172.91" cy="295.17" r="29.4" transform="translate(-148.53 412.22) rotate(-79.65)"/><circle class="cls-10" cx="172.91" cy="294.99" r="29.17" transform="translate(-148.07 412.83) rotate(-79.78)"/><circle class="cls-11" cx="172.91" cy="294.8" r="28.93" transform="translate(-147.61 413.45) rotate(-79.92)"/><circle class="cls-12" cx="172.91" cy="294.62" r="28.7" transform="translate(-147.14 414.08) rotate(-80.06)"/><circle class="cls-13" cx="172.91" cy="294.44" r="28.46" transform="translate(-146.66 414.72) rotate(-80.2)"/><circle class="cls-14" cx="172.91" cy="294.26" r="28.22" transform="translate(-146.17 415.38) rotate(-80.35)"/><circle class="cls-15" cx="172.91" cy="294.08" r="27.99" transform="matrix(0.17, -0.99, 0.99, 0.17, -145.68, 416.05)"/><circle class="cls-16" cx="172.91" cy="293.89" r="27.75" transform="translate(-145.18 416.73) rotate(-80.65)"/><circle class="cls-17" cx="172.91" cy="293.71" r="27.52" transform="translate(-144.67 417.43) rotate(-80.8)"/><circle class="cls-18" cx="172.91" cy="293.53" r="27.28" transform="translate(-144.15 418.15) rotate(-80.96)"/><circle class="cls-19" cx="172.91" cy="293.35" r="27.05" transform="translate(-143.62 418.87) rotate(-81.11)"/><circle class="cls-20" cx="172.91" cy="293.16" r="26.81" transform="translate(-143.09 419.62) rotate(-81.28)"/><circle class="cls-21" cx="172.91" cy="292.98" r="26.58" transform="translate(-142.54 420.37) rotate(-81.44)"/><circle class="cls-22" cx="172.91" cy="292.8" r="26.34" transform="translate(-141.98 421.15) rotate(-81.61)"/><circle class="cls-23" cx="172.91" cy="292.62" r="26.1" transform="translate(-141.42 421.94) rotate(-81.78)"/><circle class="cls-24" cx="172.91" cy="292.44" r="25.87" transform="translate(-140.84 422.74) rotate(-81.96)"/><circle class="cls-25" cx="172.91" cy="292.25" r="25.63" transform="translate(-140.25 423.56) rotate(-82.14)"/><circle class="cls-26" cx="172.91" cy="292.07" r="25.4" transform="translate(-139.65 424.4) rotate(-82.32)"/><circle class="cls-27" cx="172.91" cy="291.89" r="25.16" transform="translate(-139.04 425.26) rotate(-82.51)"/><circle class="cls-28" cx="172.91" cy="291.71" r="24.93" transform="translate(-138.41 426.13) rotate(-82.7)"/><circle class="cls-29" cx="172.91" cy="291.53" r="24.69" transform="translate(-137.77 427.02) rotate(-82.89)"/><circle class="cls-30" cx="172.91" cy="291.34" r="24.46" transform="translate(-137.12 427.93) rotate(-83.09)"/><circle class="cls-31" cx="172.91" cy="291.16" r="24.22" transform="translate(-136.46 428.86) rotate(-83.29)"/><circle class="cls-32" cx="172.91" cy="290.98" r="23.98" transform="translate(-135.78 429.81) rotate(-83.5)"/><circle class="cls-33" cx="172.91" cy="290.8" r="23.75" transform="translate(-135.09 430.78) rotate(-83.71)"/><circle class="cls-34" cx="172.91" cy="290.61" r="23.51" transform="translate(-134.38 431.77) rotate(-83.92)"/><circle class="cls-35" cx="172.91" cy="290.43" r="23.28" transform="translate(-133.66 432.78) rotate(-84.14)"/><circle class="cls-36" cx="172.91" cy="290.25" r="23.04" transform="translate(-132.92 433.81) rotate(-84.36)"/><circle class="cls-37" cx="172.91" cy="290.07" r="22.81" transform="translate(-132.17 434.87) rotate(-84.59)"/><circle class="cls-38" cx="172.91" cy="289.89" r="22.57" transform="translate(-131.39 435.94) rotate(-84.82)"/><circle class="cls-39" cx="172.91" cy="289.7" r="22.33" transform="translate(-130.6 437.04) rotate(-85.06)"/><circle class="cls-40" cx="172.91" cy="289.52" r="22.1" transform="translate(-129.79 438.16) rotate(-85.31)"/><circle class="cls-41" cx="172.91" cy="289.34" r="21.86" transform="translate(-128.96 439.3) rotate(-85.55)"/><circle class="cls-42" cx="172.91" cy="289.16" r="21.63" transform="translate(-128.11 440.47) rotate(-85.81)"/><circle class="cls-43" cx="172.91" cy="288.98" r="21.39" transform="translate(-127.24 441.66) rotate(-86.07)"/><circle class="cls-44" cx="172.91" cy="288.79" r="21.16" transform="translate(-126.35 442.87) rotate(-86.33)"/><circle class="cls-45" cx="172.91" cy="288.61" r="20.92" transform="translate(-125.44 444.11) rotate(-86.6)"/><circle class="cls-46" cx="172.91" cy="288.43" r="20.69" transform="translate(-124.5 445.38) rotate(-86.88)"/><circle class="cls-47" cx="172.91" cy="288.25" r="20.45" transform="translate(-123.55 446.67) rotate(-87.16)"/><circle class="cls-48" cx="172.91" cy="288.06" r="20.21" transform="translate(-122.56 447.99) rotate(-87.45)"/><circle class="cls-49" cx="172.91" cy="287.88" r="19.98" transform="translate(-121.55 449.33) rotate(-87.75)"/><circle class="cls-50" cx="172.91" cy="287.7" r="19.74" transform="translate(-120.52 450.7) rotate(-88.05)"/><circle class="cls-51" cx="172.91" cy="287.52" r="19.51" transform="translate(-119.45 452.1) rotate(-88.35)"/><circle class="cls-52" cx="172.91" cy="287.34" r="19.27" transform="translate(-118.36 453.53) rotate(-88.67)"/><circle class="cls-53" cx="172.91" cy="287.15" r="19.04" transform="translate(-117.24 454.98) rotate(-88.99)"/><circle class="cls-54" cx="172.91" cy="286.97" r="18.8" transform="translate(-116.09 456.47) rotate(-89.32)"/><circle class="cls-55" cx="172.91" cy="286.79" r="18.57" transform="translate(-114.91 457.98) rotate(-89.66)"/><circle class="cls-56" cx="172.91" cy="286.61" r="18.33"/></g><circle class="cls-65" cx="173.43" cy="280.14" r="26.01"/><path class="cls-66" d="M182.25,279a9.73,9.73,0,0,1,0,2.33,2.13,2.13,0,0,0,1.06,2.14l1,.57a.47.47,0,0,1,.17.64l-1.6,2.78a.47.47,0,0,1-.64.17l-1-.56a2.16,2.16,0,0,0-2.4.15,8.8,8.8,0,0,1-2,1.17,2.13,2.13,0,0,0-1.33,2v1.13a.47.47,0,0,1-.47.47h-3.21a.47.47,0,0,1-.47-.47v-1.13a2.14,2.14,0,0,0-1.32-2,8.86,8.86,0,0,1-2-1.17,2.15,2.15,0,0,0-1.31-.44,2.11,2.11,0,0,0-1.08.29l-1,.56a.46.46,0,0,1-.36.05.49.49,0,0,1-.29-.22l-1.6-2.78a.47.47,0,0,1,.17-.64l1-.57a2.16,2.16,0,0,0,1.07-2.15,8.45,8.45,0,0,1,0-2.32,2.16,2.16,0,0,0-1.07-2.15l-1-.56a.49.49,0,0,1-.22-.29.5.5,0,0,1,0-.36l1.6-2.78a.53.53,0,0,1,.29-.22.5.5,0,0,1,.36.05l1,.57a2.13,2.13,0,0,0,2.39-.16l.1-.07a.86.86,0,0,0,.29-.21,9.15,9.15,0,0,1,1.63-.88,2.15,2.15,0,0,0,1.32-2v-1.14a.47.47,0,0,1,.47-.47H175a.47.47,0,0,1,.47.47v1.14a2.14,2.14,0,0,0,1.33,2,9.38,9.38,0,0,1,2,1.16,2.15,2.15,0,0,0,2.4.16l1-.57a.48.48,0,0,1,.35-.05.47.47,0,0,1,.29.22l1.61,2.78a.48.48,0,0,1-.18.65l-1,.56A2.15,2.15,0,0,0,182.25,279Zm-8,14.68H175a2.17,2.17,0,0,0,2.17-2.17v-1.13a.46.46,0,0,1,.28-.43,10.54,10.54,0,0,0,2.39-1.38.45.45,0,0,1,.52,0l1,.56a2.14,2.14,0,0,0,1.64.22,2.17,2.17,0,0,0,1.32-1l1.6-2.78a2.14,2.14,0,0,0,.22-1.64,2.17,2.17,0,0,0-1-1.32l-1-.56a.45.45,0,0,1-.23-.46,10.81,10.81,0,0,0,.09-1.39,10.66,10.66,0,0,0-.09-1.38.45.45,0,0,1,.23-.46l1-.57a2.16,2.16,0,0,0,.79-3l-1.6-2.78a2.18,2.18,0,0,0-3-.8l-.32.18a1.43,1.43,0,0,1-1.69,0,11,11,0,0,0-1.88-1,.45.45,0,0,1-.28-.42v-1.14a2.17,2.17,0,0,0-2.17-2.16h-3.21a2.16,2.16,0,0,0-2.16,2.16v1.14a.45.45,0,0,1-.28.42l-.76.35-1.69,1.07a.49.49,0,0,1-.47,0l-1-.57a2.14,2.14,0,0,0-1.64-.21,2.09,2.09,0,0,0-1.31,1l-1.61,2.78a2.15,2.15,0,0,0,.79,3l1,.57a.48.48,0,0,1,.24.46,10.66,10.66,0,0,0-.09,1.38,10.81,10.81,0,0,0,.09,1.39.45.45,0,0,1-.24.45l-1,.57a2.17,2.17,0,0,0-.79,3l1.61,2.78a2.15,2.15,0,0,0,2.95.79l1-.56a.45.45,0,0,1,.51,0,10.28,10.28,0,0,0,2.4,1.39.46.46,0,0,1,.28.43v1.13a2.17,2.17,0,0,0,2.16,2.17h2.45Z"/><path class="cls-66" d="M172.92,277.67h-1.29v-2.06h3.59v9.45h-2.3Z"/><rect class="cls-3" x="333.65" y="408.77" width="203.14" height="203.14" rx="36"/><g class="cls-4"><circle class="cls-5" cx="439.74" cy="568.7" r="117"/><circle class="cls-6" cx="439.74" cy="568.19" r="116.28"/><circle class="cls-7" cx="439.74" cy="567.68" r="115.57"/><circle class="cls-8" cx="439.74" cy="567.17" r="114.85"/><circle class="cls-9" cx="439.74" cy="566.66" r="114.14"/><circle class="cls-10" cx="439.74" cy="566.16" r="113.42"/><circle class="cls-11" cx="439.74" cy="565.65" r="112.71"/><circle class="cls-12" cx="439.74" cy="565.14" r="111.99"/><circle class="cls-13" cx="439.74" cy="564.63" r="111.28"/><circle class="cls-14" cx="439.74" cy="564.12" r="110.56"/><circle class="cls-15" cx="439.74" cy="563.61" r="109.85"/><circle class="cls-16" cx="439.74" cy="563.1" r="109.13"/><circle class="cls-17" cx="439.74" cy="562.59" r="108.42"/><circle class="cls-18" cx="439.74" cy="562.09" r="107.7"/><circle class="cls-19" cx="439.74" cy="561.58" r="106.99"/><circle class="cls-20" cx="439.74" cy="561.07" r="106.28"/><circle class="cls-21" cx="439.74" cy="560.56" r="105.56"/><circle class="cls-22" cx="439.74" cy="560.05" r="104.85"/><circle class="cls-23" cx="439.74" cy="559.54" r="104.13"/><circle class="cls-24" cx="439.74" cy="559.03" r="103.42"/><circle class="cls-25" cx="439.74" cy="558.52" r="102.7"/><circle class="cls-26" cx="439.74" cy="558.01" r="101.99"/><circle class="cls-27" cx="439.74" cy="557.51" r="101.27"/><circle class="cls-28" cx="439.74" cy="557" r="100.56"/><circle class="cls-29" cx="439.74" cy="556.49" r="99.84"/><circle class="cls-30" cx="439.74" cy="555.98" r="99.13"/><circle class="cls-31" cx="439.74" cy="555.47" r="98.41"/><circle class="cls-32" cx="439.74" cy="554.96" r="97.7"/><circle class="cls-33" cx="439.74" cy="554.45" r="96.98"/><circle class="cls-34" cx="439.74" cy="553.94" r="96.27"/><circle class="cls-35" cx="439.74" cy="553.43" r="95.55"/><circle class="cls-36" cx="439.74" cy="552.93" r="94.84"/><circle class="cls-37" cx="439.74" cy="552.42" r="94.12"/><circle class="cls-38" cx="439.74" cy="551.91" r="93.41"/><circle class="cls-39" cx="439.74" cy="551.4" r="92.69"/><circle class="cls-40" cx="439.74" cy="550.89" r="91.98"/><circle class="cls-41" cx="439.74" cy="550.38" r="91.26"/><circle class="cls-42" cx="439.74" cy="549.87" r="90.55"/><circle class="cls-43" cx="439.74" cy="549.36" r="89.83"/><circle class="cls-44" cx="439.74" cy="548.85" r="89.12"/><circle class="cls-45" cx="439.74" cy="548.35" r="88.4"/><circle class="cls-46" cx="439.74" cy="547.84" r="87.69"/><circle class="cls-47" cx="439.74" cy="547.33" r="86.97"/><circle class="cls-48" cx="439.74" cy="546.82" r="86.26"/><circle class="cls-49" cx="439.74" cy="546.31" r="85.54"/><circle class="cls-50" cx="439.74" cy="545.8" r="84.83"/><circle class="cls-51" cx="439.74" cy="545.29" r="84.11"/><circle class="cls-52" cx="439.74" cy="544.78" r="83.4"/><circle class="cls-53" cx="439.74" cy="544.27" r="82.68"/><circle class="cls-54" cx="439.74" cy="543.77" r="81.97"/><circle class="cls-55" cx="439.74" cy="543.26" r="81.25"/><circle class="cls-56" cx="439.74" cy="542.75" r="80.54"/></g><rect class="cls-67" x="322.31" y="397.26" width="226.16" height="226.16" rx="113.08"/><rect class="cls-68" x="322.31" y="397.26" width="226.16" height="226.16" rx="113.08"/><text class="cls-64" transform="translate(376.51 524.76)">IDENTIFYING <tspan x="23.54" y="23.3">DESIGN </tspan><tspan x="-1.23" y="46.6">LIMITATIONS</tspan></text><g class="cls-4"><circle class="cls-5" cx="435.39" cy="470.81" r="30.35" transform="translate(-109.08 809.61) rotate(-79.13)"/><circle class="cls-6" cx="435.39" cy="470.63" r="30.11" transform="translate(-108.16 810.65) rotate(-79.26)"/><circle class="cls-7" cx="435.39" cy="470.45" r="29.87" transform="translate(-107.22 811.72) rotate(-79.38)"/><circle class="cls-8" cx="435.39" cy="470.27" r="29.64" transform="translate(-106.26 812.8) rotate(-79.51)"/><circle class="cls-9" cx="435.39" cy="470.09" r="29.4" transform="translate(-105.29 813.9) rotate(-79.65)"/><circle class="cls-10" cx="435.39" cy="469.9" r="29.17" transform="translate(-104.3 815.03) rotate(-79.78)"/><circle class="cls-11" cx="435.39" cy="469.72" r="28.93" transform="translate(-103.29 816.17) rotate(-79.92)"/><circle class="cls-12" cx="435.39" cy="469.54" r="28.7" transform="translate(-102.26 817.34) rotate(-80.06)"/><circle class="cls-13" cx="435.39" cy="469.36" r="28.46" transform="translate(-101.22 818.52) rotate(-80.2)"/><circle class="cls-14" cx="435.39" cy="469.17" r="28.22" transform="translate(-100.15 819.73) rotate(-80.35)"/><circle class="cls-15" cx="435.39" cy="468.99" r="27.99" transform="translate(-99.06 820.96) rotate(-80.5)"/><circle class="cls-16" cx="435.39" cy="468.81" r="27.75" transform="translate(-97.96 822.21) rotate(-80.65)"/><circle class="cls-17" cx="435.39" cy="468.63" r="27.52" transform="translate(-96.83 823.48) rotate(-80.8)"/><circle class="cls-18" cx="435.39" cy="468.45" r="27.28" transform="translate(-95.68 824.78) rotate(-80.96)"/><circle class="cls-19" cx="435.39" cy="468.26" r="27.05" transform="translate(-94.51 826.1) rotate(-81.11)"/><circle class="cls-20" cx="435.39" cy="468.08" r="26.81" transform="translate(-93.31 827.45) rotate(-81.28)"/><circle class="cls-21" cx="435.39" cy="467.9" r="26.58" transform="translate(-92.09 828.82) rotate(-81.44)"/><circle class="cls-22" cx="435.39" cy="467.72" r="26.34" transform="matrix(0.15, -0.99, 0.99, 0.15, -90.84, 830.21)"/><circle class="cls-23" cx="435.39" cy="467.54" r="26.1" transform="translate(-89.57 831.64) rotate(-81.78)"/><circle class="cls-24" cx="435.39" cy="467.35" r="25.87" transform="translate(-88.27 833.09) rotate(-81.96)"/><circle class="cls-25" cx="435.39" cy="467.17" r="25.63" transform="translate(-86.95 834.56) rotate(-82.14)"/><circle class="cls-26" cx="435.39" cy="466.99" r="25.4" transform="translate(-85.6 836.07) rotate(-82.32)"/><circle class="cls-27" cx="435.39" cy="466.81" r="25.16" transform="translate(-84.21 837.6) rotate(-82.51)"/><circle class="cls-28" cx="435.39" cy="466.62" r="24.93" transform="translate(-82.8 839.16) rotate(-82.7)"/><circle class="cls-29" cx="435.39" cy="466.44" r="24.69" transform="translate(-81.36 840.75) rotate(-82.89)"/><circle class="cls-30" cx="435.39" cy="466.26" r="24.46" transform="translate(-79.88 842.37) rotate(-83.09)"/><circle class="cls-31" cx="435.39" cy="466.08" r="24.22" transform="translate(-78.37 844.02) rotate(-83.29)"/><circle class="cls-32" cx="435.39" cy="465.9" r="23.98" transform="translate(-76.83 845.7) rotate(-83.5)"/><circle class="cls-33" cx="435.39" cy="465.71" r="23.75" transform="translate(-75.25 847.42) rotate(-83.71)"/><circle class="cls-34" cx="435.39" cy="465.53" r="23.51" transform="translate(-73.64 849.16) rotate(-83.92)"/><circle class="cls-35" cx="435.39" cy="465.35" r="23.28" transform="translate(-71.99 850.94) rotate(-84.14)"/><circle class="cls-36" cx="435.39" cy="465.17" r="23.04" transform="translate(-70.3 852.76) rotate(-84.36)"/><circle class="cls-37" cx="435.39" cy="464.99" r="22.81" transform="translate(-68.57 854.6) rotate(-84.59)"/><circle class="cls-38" cx="435.39" cy="464.8" r="22.57" transform="matrix(0.09, -1, 1, 0.09, -66.8, 856.48)"/><circle class="cls-39" cx="435.39" cy="464.62" r="22.33" transform="translate(-64.98 858.4) rotate(-85.06)"/><circle class="cls-40" cx="435.39" cy="464.44" r="22.1" transform="translate(-63.13 860.35) rotate(-85.31)"/><circle class="cls-41" cx="435.39" cy="464.26" r="21.86" transform="matrix(0.08, -1, 1, 0.08, -61.22, 862.34)"/><circle class="cls-42" cx="435.39" cy="464.07" r="21.63" transform="translate(-59.27 864.37) rotate(-85.81)"/><circle class="cls-43" cx="435.39" cy="463.89" r="21.39" transform="translate(-57.28 866.44) rotate(-86.07)"/><circle class="cls-44" cx="435.39" cy="463.71" r="21.16" transform="translate(-55.23 868.54) rotate(-86.33)"/><circle class="cls-45" cx="435.39" cy="463.53" r="20.92" transform="translate(-53.13 870.68) rotate(-86.6)"/><circle class="cls-46" cx="435.39" cy="463.35" r="20.69" transform="translate(-50.98 872.86) rotate(-86.88)"/><circle class="cls-47" cx="435.39" cy="463.16" r="20.45" transform="translate(-48.77 875.08) rotate(-87.16)"/><circle class="cls-48" cx="435.39" cy="462.98" r="20.21" transform="translate(-46.51 877.34) rotate(-87.45)"/><circle class="cls-49" cx="435.39" cy="462.8" r="19.98" transform="translate(-44.18 879.64) rotate(-87.75)"/><circle class="cls-50" cx="435.39" cy="462.62" r="19.74" transform="translate(-41.8 881.98) rotate(-88.05)"/><circle class="cls-51" cx="435.39" cy="462.44" r="19.51" transform="translate(-39.36 884.37) rotate(-88.35)"/><circle class="cls-52" cx="435.39" cy="462.25" r="19.27" transform="translate(-36.85 886.79) rotate(-88.67)"/><circle class="cls-53" cx="435.39" cy="462.07" r="19.04" transform="matrix(0.02, -1, 1, 0.02, -34.27, 889.26)"/><circle class="cls-54" cx="435.39" cy="461.89" r="18.8" transform="translate(-31.63 891.77) rotate(-89.32)"/><circle class="cls-55" cx="435.39" cy="461.71" r="18.57" transform="translate(-28.92 894.32) rotate(-89.66)"/><circle class="cls-56" cx="435.39" cy="461.52" r="18.33"/></g><circle class="cls-69" cx="435.9" cy="455.06" r="26.01"/><path class="cls-66" d="M432.67,458.26c2-1.66,4.14-3.3,4.14-4.89,0-.69-.31-1.13-1-1.13s-1.05.52-1.05,1.41h-2.14a3.07,3.07,0,0,1,3.28-3.27c2.14,0,3.1,1.25,3.1,2.84,0,2.07-1.85,3.73-3.35,4.88h3.49v1.8h-6.49Z"/><path class="cls-66" d="M444.72,453.79a8.45,8.45,0,0,1,0,2.32,2.16,2.16,0,0,0,1.07,2.15l1,.57a.44.44,0,0,1,.22.28.5.5,0,0,1-.05.36l-1.6,2.78a.49.49,0,0,1-.29.22.5.5,0,0,1-.36-.05l-1-.57a2.13,2.13,0,0,0-2.39.16,9.21,9.21,0,0,1-2,1.16,2.15,2.15,0,0,0-1.32,2v1.13a.47.47,0,0,1-.47.47H434.3a.47.47,0,0,1-.47-.47v-1.13a2.16,2.16,0,0,0-1.33-2,9.14,9.14,0,0,1-2-1.16,2.14,2.14,0,0,0-1.31-.45,2.25,2.25,0,0,0-1.09.29l-1,.57a.48.48,0,0,1-.35.05.44.44,0,0,1-.29-.22l-1.61-2.78a.47.47,0,0,1,.18-.64l1-.57a2.14,2.14,0,0,0,1.06-2.15,9.65,9.65,0,0,1,0-2.32,2.14,2.14,0,0,0-1.06-2.15l-1-.57a.44.44,0,0,1-.22-.28.45.45,0,0,1,.05-.36l1.6-2.78a.47.47,0,0,1,.64-.17l1,.56a2.16,2.16,0,0,0,2.4-.15l.1-.07a.86.86,0,0,0,.29-.21,8.47,8.47,0,0,1,1.62-.88,2.16,2.16,0,0,0,1.33-2V443.6a.47.47,0,0,1,.47-.47h3.21a.47.47,0,0,1,.47.47v1.13a2.16,2.16,0,0,0,1.32,2,8.82,8.82,0,0,1,2,1.16,2.15,2.15,0,0,0,2.39.15l1-.56a.46.46,0,0,1,.36-.05.49.49,0,0,1,.29.22l1.6,2.78a.47.47,0,0,1-.17.64l-1,.57A2.16,2.16,0,0,0,444.72,453.79Zm-8,14.67h.76a2.16,2.16,0,0,0,2.16-2.16v-1.13a.46.46,0,0,1,.28-.43,10.65,10.65,0,0,0,2.4-1.39.47.47,0,0,1,.51,0l1,.57a2.14,2.14,0,0,0,1.64.21,2.07,2.07,0,0,0,1.31-1l1.61-2.78a2.17,2.17,0,0,0,.22-1.65,2.15,2.15,0,0,0-1-1.31l-1-.57a.46.46,0,0,1-.24-.46,10.63,10.63,0,0,0,0-2.76.46.46,0,0,1,.24-.46l1-.57a2.17,2.17,0,0,0,.79-3l-1.61-2.78a2.15,2.15,0,0,0-2.95-.79l-.32.18a1.45,1.45,0,0,1-1.69,0,10.16,10.16,0,0,0-1.89-1,.46.46,0,0,1-.28-.43V443.6a2.17,2.17,0,0,0-2.16-2.17H434.3a2.17,2.17,0,0,0-2.17,2.17v1.13a.46.46,0,0,1-.28.43c-.25.11-.5.22-.75.35l-1.7,1.07a.47.47,0,0,1-.46,0l-1-.57a2.14,2.14,0,0,0-1.64-.22,2.17,2.17,0,0,0-1.32,1l-1.6,2.78a2.14,2.14,0,0,0-.22,1.64,2.17,2.17,0,0,0,1,1.32l1,.57a.44.44,0,0,1,.23.46,10.54,10.54,0,0,0-.09,1.38,10.66,10.66,0,0,0,.09,1.38.44.44,0,0,1-.23.46l-1,.57a2.17,2.17,0,0,0-.79,3l1.6,2.78a2.19,2.19,0,0,0,3,.79l1-.57a.49.49,0,0,1,.52,0,10.58,10.58,0,0,0,2.39,1.39.46.46,0,0,1,.28.43v1.13a2.17,2.17,0,0,0,2.17,2.16h2.45Z"/><rect class="cls-3" x="632.12" y="493.64" width="203.14" height="203.14" rx="36"/><g class="cls-4"><circle class="cls-5" cx="738.22" cy="653.57" r="117"/><circle class="cls-6" cx="738.22" cy="653.06" r="116.28"/><circle class="cls-7" cx="738.22" cy="652.55" r="115.57"/><circle class="cls-8" cx="738.22" cy="652.04" r="114.85"/><circle class="cls-9" cx="738.22" cy="651.53" r="114.14"/><circle class="cls-10" cx="738.22" cy="651.02" r="113.42"/><circle class="cls-11" cx="738.22" cy="650.51" r="112.71"/><circle class="cls-12" cx="738.22" cy="650" r="111.99"/><circle class="cls-13" cx="738.22" cy="649.49" r="111.28"/><circle class="cls-14" cx="738.22" cy="648.99" r="110.56"/><circle class="cls-15" cx="738.22" cy="648.48" r="109.85"/><circle class="cls-16" cx="738.22" cy="647.97" r="109.13"/><circle class="cls-17" cx="738.22" cy="647.46" r="108.42"/><circle class="cls-18" cx="738.22" cy="646.95" r="107.7"/><circle class="cls-19" cx="738.22" cy="646.44" r="106.99"/><circle class="cls-20" cx="738.22" cy="645.93" r="106.28"/><circle class="cls-21" cx="738.22" cy="645.42" r="105.56"/><circle class="cls-22" cx="738.22" cy="644.92" r="104.85"/><circle class="cls-23" cx="738.22" cy="644.41" r="104.13"/><circle class="cls-24" cx="738.22" cy="643.9" r="103.42"/><circle class="cls-25" cx="738.22" cy="643.39" r="102.7"/><circle class="cls-26" cx="738.22" cy="642.88" r="101.99"/><circle class="cls-27" cx="738.22" cy="642.37" r="101.27"/><circle class="cls-28" cx="738.22" cy="641.86" r="100.56"/><circle class="cls-29" cx="738.22" cy="641.35" r="99.84"/><circle class="cls-30" cx="738.22" cy="640.84" r="99.13"/><circle class="cls-31" cx="738.22" cy="640.34" r="98.41"/><circle class="cls-32" cx="738.22" cy="639.83" r="97.7"/><circle class="cls-33" cx="738.22" cy="639.32" r="96.98"/><circle class="cls-34" cx="738.22" cy="638.81" r="96.27"/><circle class="cls-35" cx="738.22" cy="638.3" r="95.55"/><circle class="cls-36" cx="738.22" cy="637.79" r="94.84"/><circle class="cls-37" cx="738.22" cy="637.28" r="94.12"/><circle class="cls-38" cx="738.22" cy="636.77" r="93.41"/><circle class="cls-39" cx="738.22" cy="636.26" r="92.69"/><circle class="cls-40" cx="738.22" cy="635.76" r="91.98"/><circle class="cls-41" cx="738.22" cy="635.25" r="91.26"/><circle class="cls-42" cx="738.22" cy="634.74" r="90.55"/><circle class="cls-43" cx="738.22" cy="634.23" r="89.83"/><circle class="cls-44" cx="738.22" cy="633.72" r="89.12"/><circle class="cls-45" cx="738.22" cy="633.21" r="88.4"/><circle class="cls-46" cx="738.22" cy="632.7" r="87.69"/><circle class="cls-47" cx="738.22" cy="632.19" r="86.97"/><circle class="cls-48" cx="738.22" cy="631.68" r="86.26"/><circle class="cls-49" cx="738.22" cy="631.18" r="85.54"/><circle class="cls-50" cx="738.22" cy="630.67" r="84.83"/><circle class="cls-51" cx="738.22" cy="630.16" r="84.11"/><circle class="cls-52" cx="738.22" cy="629.65" r="83.4"/><circle class="cls-53" cx="738.22" cy="629.14" r="82.68"/><circle class="cls-54" cx="738.22" cy="628.63" r="81.97"/><circle class="cls-55" cx="738.22" cy="628.12" r="81.25"/><circle class="cls-56" cx="738.22" cy="627.61" r="80.54"/></g><rect class="cls-70" x="620.78" y="482.13" width="226.16" height="226.16" rx="113.08"/><rect class="cls-71" x="620.78" y="482.13" width="226.16" height="226.16" rx="113.08"/><text class="cls-64" transform="translate(674.4 609.62)">DEVELOPING <tspan x="24.13" y="23.3">DESIGN </tspan><tspan x="9.27" y="46.6">BLUEPRINT</tspan></text><g class="cls-4"><circle class="cls-5" cx="733.86" cy="555.68" r="30.35" transform="translate(49.77 1171.59) rotate(-79.13)"/><circle class="cls-6" cx="733.86" cy="555.5" r="30.11" transform="translate(51.3 1172.94) rotate(-79.26)"/><circle class="cls-7" cx="733.86" cy="555.32" r="29.87" transform="translate(52.86 1174.32) rotate(-79.38)"/><circle class="cls-8" cx="733.86" cy="555.13" r="29.64" transform="translate(54.45 1175.71) rotate(-79.51)"/><circle class="cls-9" cx="733.86" cy="554.95" r="29.4" transform="translate(56.06 1177.14) rotate(-79.65)"/><circle class="cls-10" cx="733.86" cy="554.77" r="29.17" transform="translate(57.71 1178.58) rotate(-79.78)"/><circle class="cls-11" cx="733.86" cy="554.59" r="28.93" transform="translate(59.39 1180.05) rotate(-79.92)"/><circle class="cls-12" cx="733.86" cy="554.4" r="28.7" transform="translate(61.1 1181.55) rotate(-80.06)"/><circle class="cls-13" cx="733.86" cy="554.22" r="28.46" transform="translate(62.84 1183.07) rotate(-80.2)"/><circle class="cls-14" cx="733.86" cy="554.04" r="28.22" transform="translate(64.61 1184.61) rotate(-80.35)"/><circle class="cls-15" cx="733.86" cy="553.86" r="27.99" transform="matrix(0.17, -0.99, 0.99, 0.17, 66.42, 1186.19)"/><circle class="cls-16" cx="733.86" cy="553.68" r="27.75" transform="translate(68.27 1187.79) rotate(-80.65)"/><circle class="cls-17" cx="733.86" cy="553.49" r="27.52" transform="translate(70.15 1189.41) rotate(-80.8)"/><circle class="cls-18" cx="733.86" cy="553.31" r="27.28" transform="translate(72.07 1191.07) rotate(-80.96)"/><circle class="cls-19" cx="733.86" cy="553.13" r="27.05" transform="translate(74.02 1192.75) rotate(-81.11)"/><circle class="cls-20" cx="733.86" cy="552.95" r="26.81" transform="translate(76.02 1194.47) rotate(-81.28)"/><circle class="cls-21" cx="733.86" cy="552.77" r="26.58" transform="translate(78.06 1196.21) rotate(-81.44)"/><circle class="cls-22" cx="733.86" cy="552.58" r="26.34" transform="translate(80.13 1197.98) rotate(-81.61)"/><circle class="cls-23" cx="733.86" cy="552.4" r="26.1" transform="translate(82.26 1199.79) rotate(-81.78)"/><circle class="cls-24" cx="733.86" cy="552.22" r="25.87" transform="translate(84.42 1201.62) rotate(-81.96)"/><circle class="cls-25" cx="733.86" cy="552.04" r="25.63" transform="translate(86.63 1203.49) rotate(-82.14)"/><circle class="cls-26" cx="733.86" cy="551.85" r="25.4" transform="translate(88.89 1205.39) rotate(-82.32)"/><circle class="cls-27" cx="733.86" cy="551.67" r="25.16" transform="translate(91.2 1207.32) rotate(-82.51)"/><circle class="cls-28" cx="733.86" cy="551.49" r="24.93" transform="matrix(0.13, -0.99, 0.99, 0.13, 93.56, 1209.29)"/><circle class="cls-29" cx="733.86" cy="551.31" r="24.69" transform="translate(95.96 1211.29) rotate(-82.89)"/><circle class="cls-30" cx="733.86" cy="551.13" r="24.46" transform="translate(98.43 1213.33) rotate(-83.09)"/><circle class="cls-31" cx="733.86" cy="550.94" r="24.22" transform="translate(100.94 1215.4) rotate(-83.29)"/><circle class="cls-32" cx="733.86" cy="550.76" r="23.98" transform="translate(103.51 1217.51) rotate(-83.5)"/><circle class="cls-33" cx="733.86" cy="550.58" r="23.75" transform="translate(106.15 1219.66) rotate(-83.71)"/><circle class="cls-34" cx="733.86" cy="550.4" r="23.51" transform="translate(108.84 1221.84) rotate(-83.92)"/><circle class="cls-35" cx="733.86" cy="550.22" r="23.28" transform="translate(111.59 1224.06) rotate(-84.14)"/><circle class="cls-36" cx="733.86" cy="550.03" r="23.04" transform="translate(114.4 1226.32) rotate(-84.36)"/><circle class="cls-37" cx="733.86" cy="549.85" r="22.81" transform="translate(117.28 1228.62) rotate(-84.59)"/><circle class="cls-38" cx="733.86" cy="549.67" r="22.57" transform="translate(120.23 1230.95) rotate(-84.82)"/><circle class="cls-39" cx="733.86" cy="549.49" r="22.33" transform="translate(123.25 1233.33) rotate(-85.06)"/><circle class="cls-40" cx="733.86" cy="549.3" r="22.1" transform="translate(126.34 1235.75) rotate(-85.31)"/><circle class="cls-41" cx="733.86" cy="549.12" r="21.86" transform="translate(129.5 1238.21) rotate(-85.55)"/><circle class="cls-42" cx="733.86" cy="548.94" r="21.63" transform="translate(132.74 1240.71) rotate(-85.81)"/><circle class="cls-43" cx="733.86" cy="548.76" r="21.39" transform="matrix(0.07, -1, 1, 0.07, 136.06, 1243.25)"/><circle class="cls-44" cx="733.86" cy="548.58" r="21.16" transform="translate(139.46 1245.84) rotate(-86.33)"/><circle class="cls-45" cx="733.86" cy="548.39" r="20.92" transform="translate(142.94 1248.47) rotate(-86.6)"/><circle class="cls-46" cx="733.86" cy="548.21" r="20.69" transform="translate(146.51 1251.14) rotate(-86.88)"/><circle class="cls-47" cx="733.86" cy="548.03" r="20.45" transform="translate(150.16 1253.85) rotate(-87.16)"/><circle class="cls-48" cx="733.86" cy="547.85" r="20.21" transform="translate(153.91 1256.61) rotate(-87.45)"/><circle class="cls-49" cx="733.86" cy="547.67" r="19.98" transform="translate(157.75 1259.41) rotate(-87.75)"/><circle class="cls-50" cx="733.86" cy="547.48" r="19.74" transform="translate(161.69 1262.26) rotate(-88.05)"/><circle class="cls-51" cx="733.86" cy="547.3" r="19.51" transform="translate(165.72 1265.15) rotate(-88.35)"/><circle class="cls-52" cx="733.86" cy="547.12" r="19.27" transform="translate(169.86 1268.08) rotate(-88.67)"/><circle class="cls-53" cx="733.86" cy="546.94" r="19.04" transform="translate(174.1 1271.06) rotate(-88.99)"/><circle class="cls-54" cx="733.86" cy="546.75" r="18.8" transform="translate(178.44 1274.08) rotate(-89.32)"/><circle class="cls-55" cx="733.86" cy="546.57" r="18.57" transform="translate(182.9 1277.15) rotate(-89.66)"/><circle class="cls-56" cx="733.86" cy="546.39" r="18.33"/></g><circle class="cls-72" cx="734.38" cy="539.93" r="26.01"/><path class="cls-66" d="M734.39,535.05c2,0,3.07,1.14,3.07,2.57a2.14,2.14,0,0,1-1.43,2.12v0a2.21,2.21,0,0,1,1.6,2.28c0,1.59-1.14,2.73-3.12,2.73s-3.39-.93-3.46-3.07h2.15a1.13,1.13,0,0,0,1.23,1.23,1,1,0,0,0,1.06-1.06c0-.84-.5-1.18-1.66-1.18h-.41v-1.8h.41c.75,0,1.48-.18,1.48-1a.89.89,0,0,0-1-1,1,1,0,0,0-1,1h-2.16A2.87,2.87,0,0,1,734.39,535.05Z"/><path class="cls-66" d="M743.16,538.76a9.18,9.18,0,0,1,.07,1.17,9,9,0,0,1-.07,1.16,2.16,2.16,0,0,0,1.06,2.15l1,.56a.49.49,0,0,1,.22.29.45.45,0,0,1,0,.36l-1.61,2.78a.46.46,0,0,1-.28.21.45.45,0,0,1-.36,0l-1-.57a2.17,2.17,0,0,0-2.4.15,8.8,8.8,0,0,1-2,1.17,2.13,2.13,0,0,0-1.33,2v1.13a.47.47,0,0,1-.47.47h-3.21a.47.47,0,0,1-.47-.47v-1.13a2.15,2.15,0,0,0-1.32-2,8.86,8.86,0,0,1-2-1.17,2.15,2.15,0,0,0-1.3-.44,2.12,2.12,0,0,0-1.09.29l-1,.57a.45.45,0,0,1-.36,0,.46.46,0,0,1-.28-.21l-1.61-2.78a.48.48,0,0,1,.17-.65l1-.56a2.17,2.17,0,0,0,1.07-2.15,8.52,8.52,0,0,1,0-2.33,2.15,2.15,0,0,0-1.07-2.14l-1-.57a.5.5,0,0,1-.22-.29.48.48,0,0,1,0-.35l1.61-2.78a.44.44,0,0,1,.28-.22.45.45,0,0,1,.36,0l1,.57a2.15,2.15,0,0,0,2.39-.15l.1-.08a.84.84,0,0,0,.29-.2,9.2,9.2,0,0,1,1.63-.89,2.14,2.14,0,0,0,1.32-2v-1.13a.47.47,0,0,1,.47-.47h3.21a.47.47,0,0,1,.47.47v1.13a2.13,2.13,0,0,0,1.33,2,8.8,8.8,0,0,1,2,1.17,2.17,2.17,0,0,0,2.4.15l1-.57a.45.45,0,0,1,.36,0,.44.44,0,0,1,.28.22l1.61,2.78a.47.47,0,0,1-.18.64l-1,.57A2.12,2.12,0,0,0,743.16,538.76Zm-8,14.68h.76a2.17,2.17,0,0,0,2.17-2.17v-1.13a.46.46,0,0,1,.28-.43,10.83,10.83,0,0,0,2.4-1.38.43.43,0,0,1,.51,0l1,.57a2.18,2.18,0,0,0,3-.8l1.6-2.78a2.14,2.14,0,0,0,.22-1.64,2.17,2.17,0,0,0-1-1.32l-1-.56a.48.48,0,0,1-.23-.46,10.7,10.7,0,0,0,0-2.77.47.47,0,0,1,.23-.46l1-.56a2.16,2.16,0,0,0,.79-3l-1.6-2.78a2.17,2.17,0,0,0-1.32-1,2.14,2.14,0,0,0-1.64.22l-.31.18a1.45,1.45,0,0,1-1.7,0,10.31,10.31,0,0,0-1.88-1,.46.46,0,0,1-.28-.43v-1.13a2.17,2.17,0,0,0-2.17-2.17h-3.21a2.17,2.17,0,0,0-2.16,2.17v1.13a.46.46,0,0,1-.28.43,6.41,6.41,0,0,0-.75.35l-1.7,1.07a.45.45,0,0,1-.46,0l-1-.56a2.17,2.17,0,0,0-1.65-.22,2.15,2.15,0,0,0-1.31,1l-1.61,2.78a2.19,2.19,0,0,0,.79,3l1,.56a.48.48,0,0,1,.23.46,10.7,10.7,0,0,0,0,2.77.48.48,0,0,1-.23.46l-1,.56a2.17,2.17,0,0,0-.79,3l1.61,2.78a2.15,2.15,0,0,0,1.31,1,2.21,2.21,0,0,0,1.65-.21l1-.57a.44.44,0,0,1,.51,0,10.61,10.61,0,0,0,2.4,1.38.46.46,0,0,1,.28.43v1.13a2.17,2.17,0,0,0,2.16,2.17h2.45Z"/><rect class="cls-3" x="930.6" y="408.77" width="203.14" height="203.14" rx="36"/><g class="cls-4"><circle class="cls-5" cx="1036.69" cy="568.7" r="117"/><circle class="cls-6" cx="1036.69" cy="568.19" r="116.28"/><circle class="cls-7" cx="1036.69" cy="567.68" r="115.57"/><circle class="cls-8" cx="1036.69" cy="567.17" r="114.85"/><circle class="cls-9" cx="1036.69" cy="566.66" r="114.14"/><circle class="cls-10" cx="1036.69" cy="566.16" r="113.42"/><circle class="cls-11" cx="1036.69" cy="565.65" r="112.71"/><circle class="cls-12" cx="1036.69" cy="565.14" r="111.99"/><circle class="cls-13" cx="1036.69" cy="564.63" r="111.28"/><circle class="cls-14" cx="1036.69" cy="564.12" r="110.56"/><circle class="cls-15" cx="1036.69" cy="563.61" r="109.85"/><circle class="cls-16" cx="1036.69" cy="563.1" r="109.13"/><circle class="cls-17" cx="1036.69" cy="562.59" r="108.42"/><circle class="cls-18" cx="1036.69" cy="562.09" r="107.7"/><circle class="cls-19" cx="1036.69" cy="561.58" r="106.99"/><circle class="cls-20" cx="1036.69" cy="561.07" r="106.28"/><circle class="cls-21" cx="1036.69" cy="560.56" r="105.56"/><circle class="cls-22" cx="1036.69" cy="560.05" r="104.85"/><circle class="cls-23" cx="1036.69" cy="559.54" r="104.13"/><circle class="cls-24" cx="1036.69" cy="559.03" r="103.42"/><circle class="cls-25" cx="1036.69" cy="558.52" r="102.7"/><circle class="cls-26" cx="1036.69" cy="558.01" r="101.99"/><circle class="cls-27" cx="1036.69" cy="557.51" r="101.27"/><circle class="cls-28" cx="1036.69" cy="557" r="100.56"/><circle class="cls-29" cx="1036.69" cy="556.49" r="99.84"/><circle class="cls-30" cx="1036.69" cy="555.98" r="99.13"/><circle class="cls-31" cx="1036.69" cy="555.47" r="98.41"/><circle class="cls-32" cx="1036.69" cy="554.96" r="97.7"/><circle class="cls-33" cx="1036.69" cy="554.45" r="96.98"/><circle class="cls-34" cx="1036.69" cy="553.94" r="96.27"/><circle class="cls-35" cx="1036.69" cy="553.43" r="95.55"/><circle class="cls-36" cx="1036.69" cy="552.93" r="94.84"/><circle class="cls-37" cx="1036.69" cy="552.42" r="94.12"/><circle class="cls-38" cx="1036.69" cy="551.91" r="93.41"/><circle class="cls-39" cx="1036.69" cy="551.4" r="92.69"/><circle class="cls-40" cx="1036.69" cy="550.89" r="91.98"/><circle class="cls-41" cx="1036.69" cy="550.38" r="91.26"/><circle class="cls-42" cx="1036.69" cy="549.87" r="90.55"/><circle class="cls-43" cx="1036.69" cy="549.36" r="89.83"/><circle class="cls-44" cx="1036.69" cy="548.85" r="89.12"/><circle class="cls-45" cx="1036.69" cy="548.35" r="88.4"/><circle class="cls-46" cx="1036.69" cy="547.84" r="87.69"/><circle class="cls-47" cx="1036.69" cy="547.33" r="86.97"/><circle class="cls-48" cx="1036.69" cy="546.82" r="86.26"/><circle class="cls-49" cx="1036.69" cy="546.31" r="85.54"/><circle class="cls-50" cx="1036.69" cy="545.8" r="84.83"/><circle class="cls-51" cx="1036.69" cy="545.29" r="84.11"/><circle class="cls-52" cx="1036.69" cy="544.78" r="83.4"/><circle class="cls-53" cx="1036.69" cy="544.27" r="82.68"/><circle class="cls-54" cx="1036.69" cy="543.77" r="81.97"/><circle class="cls-55" cx="1036.69" cy="543.26" r="81.25"/><circle class="cls-56" cx="1036.69" cy="542.75" r="80.54"/></g><rect class="cls-73" x="919.26" y="397.26" width="226.16" height="226.16" rx="113.08"/><rect class="cls-74" x="919.26" y="397.26" width="226.16" height="226.16" rx="113.08"/><text class="cls-64" transform="translate(983.65 524.76)">CREATING <tspan x="-6.68" y="23.3">THE DESIGN </tspan><tspan x="-5.04" y="46.6">SOLUTIONS</tspan></text><g class="cls-4"><circle class="cls-5" cx="1032.34" cy="470.81" r="30.35" transform="matrix(0.19, -0.98, 0.98, 0.19, 375.3, 1395.85)"/><circle class="cls-6" cx="1032.34" cy="470.63" r="30.11" transform="translate(377.51 1397.14) rotate(-79.26)"/><circle class="cls-7" cx="1032.34" cy="470.45" r="29.87" transform="translate(379.76 1398.45) rotate(-79.38)"/><circle class="cls-8" cx="1032.34" cy="470.27" r="29.64" transform="translate(382.05 1399.79) rotate(-79.51)"/><circle class="cls-9" cx="1032.34" cy="470.09" r="29.4" transform="translate(384.38 1401.14) rotate(-79.65)"/><circle class="cls-10" cx="1032.34" cy="469.9" r="29.17" transform="translate(386.76 1402.51) rotate(-79.78)"/><circle class="cls-11" cx="1032.34" cy="469.72" r="28.93" transform="translate(389.18 1403.91) rotate(-79.92)"/><circle class="cls-12" cx="1032.34" cy="469.54" r="28.7" transform="translate(391.64 1405.33) rotate(-80.06)"/><circle class="cls-13" cx="1032.34" cy="469.36" r="28.46" transform="translate(394.15 1406.77) rotate(-80.2)"/><circle class="cls-14" cx="1032.34" cy="469.17" r="28.22" transform="translate(396.71 1408.23) rotate(-80.35)"/><circle class="cls-15" cx="1032.34" cy="468.99" r="27.99" transform="translate(399.31 1409.71) rotate(-80.5)"/><circle class="cls-16" cx="1032.34" cy="468.81" r="27.75" transform="translate(401.97 1411.22) rotate(-80.65)"/><circle class="cls-17" cx="1032.34" cy="468.63" r="27.52" transform="translate(404.67 1412.75) rotate(-80.8)"/><circle class="cls-18" cx="1032.34" cy="468.45" r="27.28" transform="translate(407.43 1414.31) rotate(-80.96)"/><circle class="cls-19" cx="1032.34" cy="468.26" r="27.05" transform="translate(410.25 1415.89) rotate(-81.11)"/><circle class="cls-20" cx="1032.34" cy="468.08" r="26.81" transform="translate(413.11 1417.5) rotate(-81.28)"/><circle class="cls-21" cx="1032.34" cy="467.9" r="26.58" transform="translate(416.04 1419.13) rotate(-81.44)"/><circle class="cls-22" cx="1032.34" cy="467.72" r="26.34" transform="translate(419.02 1420.78) rotate(-81.61)"/><circle class="cls-23" cx="1032.34" cy="467.54" r="26.1" transform="matrix(0.14, -0.99, 0.99, 0.14, 422.07, 1422.46)"/><circle class="cls-24" cx="1032.34" cy="467.35" r="25.87" transform="translate(425.18 1424.17) rotate(-81.96)"/><circle class="cls-25" cx="1032.34" cy="467.17" r="25.63" transform="translate(428.35 1425.9) rotate(-82.14)"/><circle class="cls-26" cx="1032.34" cy="466.99" r="25.4" transform="matrix(0.13, -0.99, 0.99, 0.13, 431.59, 1427.67)"/><circle class="cls-27" cx="1032.34" cy="466.81" r="25.16" transform="translate(434.89 1429.45) rotate(-82.51)"/><circle class="cls-28" cx="1032.34" cy="466.62" r="24.93" transform="translate(438.26 1431.27) rotate(-82.7)"/><circle class="cls-29" cx="1032.34" cy="466.44" r="24.69" transform="translate(441.71 1433.11) rotate(-82.89)"/><circle class="cls-30" cx="1032.34" cy="466.26" r="24.46" transform="translate(445.23 1434.98) rotate(-83.09)"/><circle class="cls-31" cx="1032.34" cy="466.08" r="24.22" transform="translate(448.83 1436.88) rotate(-83.29)"/><circle class="cls-32" cx="1032.34" cy="465.9" r="23.98" transform="translate(452.5 1438.81) rotate(-83.5)"/><circle class="cls-33" cx="1032.34" cy="465.71" r="23.75" transform="translate(456.25 1440.77) rotate(-83.71)"/><circle class="cls-34" cx="1032.34" cy="465.53" r="23.51" transform="matrix(0.11, -0.99, 0.99, 0.11, 460.09, 1442.76)"/><circle class="cls-35" cx="1032.34" cy="465.35" r="23.28" transform="translate(464.01 1444.78) rotate(-84.14)"/><circle class="cls-36" cx="1032.34" cy="465.17" r="23.04" transform="translate(468.02 1446.82) rotate(-84.36)"/><circle class="cls-37" cx="1032.34" cy="464.99" r="22.81" transform="translate(472.11 1448.9) rotate(-84.59)"/><circle class="cls-38" cx="1032.34" cy="464.8" r="22.57" transform="translate(476.3 1451) rotate(-84.82)"/><circle class="cls-39" cx="1032.34" cy="464.62" r="22.33" transform="translate(480.59 1453.14) rotate(-85.06)"/><circle class="cls-40" cx="1032.34" cy="464.44" r="22.1" transform="translate(484.97 1455.3) rotate(-85.31)"/><circle class="cls-41" cx="1032.34" cy="464.26" r="21.86" transform="translate(489.45 1457.5) rotate(-85.55)"/><circle class="cls-42" cx="1032.34" cy="464.07" r="21.63" transform="matrix(0.07, -1, 1, 0.07, 494.04, 1459.73)"/><circle class="cls-43" cx="1032.34" cy="463.89" r="21.39" transform="matrix(0.07, -1, 1, 0.07, 498.73, 1461.98)"/><circle class="cls-44" cx="1032.34" cy="463.71" r="21.16" transform="translate(503.53 1464.27) rotate(-86.33)"/><circle class="cls-45" cx="1032.34" cy="463.53" r="20.92" transform="translate(508.45 1466.58) rotate(-86.6)"/><circle class="cls-46" cx="1032.34" cy="463.35" r="20.69" transform="translate(513.47 1468.93) rotate(-86.88)"/><circle class="cls-47" cx="1032.34" cy="463.16" r="20.45" transform="translate(518.62 1471.3) rotate(-87.16)"/><circle class="cls-48" cx="1032.34" cy="462.98" r="20.21" transform="translate(523.89 1473.7) rotate(-87.45)"/><circle class="cls-49" cx="1032.34" cy="462.8" r="19.98" transform="translate(529.28 1476.13) rotate(-87.75)"/><circle class="cls-50" cx="1032.34" cy="462.62" r="19.74" transform="translate(534.81 1478.59) rotate(-88.05)"/><circle class="cls-51" cx="1032.34" cy="462.44" r="19.51" transform="translate(540.46 1481.07) rotate(-88.35)"/><circle class="cls-52" cx="1032.34" cy="462.25" r="19.27" transform="translate(546.25 1483.58) rotate(-88.67)"/><circle class="cls-53" cx="1032.34" cy="462.07" r="19.04" transform="translate(552.17 1486.12) rotate(-88.99)"/><circle class="cls-54" cx="1032.34" cy="461.89" r="18.8" transform="translate(558.24 1488.68) rotate(-89.32)"/><circle class="cls-55" cx="1032.34" cy="461.71" r="18.57" transform="translate(564.45 1491.26) rotate(-89.66)"/><circle class="cls-56" cx="1032.34" cy="461.52" r="18.33"/></g><circle class="cls-75" cx="1032.86" cy="455.06" r="26.01"/><path class="cls-66" d="M1033.24,458h-4.35v-1.79l4.09-5.84h2.47v5.71h1.06V458h-1.06v1.68h-2.21Zm.15-1.92V452.8l-2.17,3.28Z"/><path class="cls-66" d="M1041.68,453.9a9.65,9.65,0,0,1,0,2.32,2.14,2.14,0,0,0,1.06,2.15l1,.57a.44.44,0,0,1,.22.28.46.46,0,0,1,0,.36l-1.6,2.78a.46.46,0,0,1-.29.22.48.48,0,0,1-.35-.05l-1-.56a2.15,2.15,0,0,0-2.39.15,9,9,0,0,1-2,1.16,2.16,2.16,0,0,0-1.33,2v1.13a.47.47,0,0,1-.47.47h-3.21a.47.47,0,0,1-.47-.47v-1.13a2.16,2.16,0,0,0-1.33-2,9,9,0,0,1-2-1.16,2.1,2.1,0,0,0-1.31-.45,2.21,2.21,0,0,0-1.08.29l-1,.57a.46.46,0,0,1-.36.05.49.49,0,0,1-.29-.22l-1.6-2.78a.47.47,0,0,1,.17-.64l1-.57a2.16,2.16,0,0,0,1.07-2.15,8.45,8.45,0,0,1,0-2.32,2.16,2.16,0,0,0-1.07-2.15l-1-.57a.44.44,0,0,1-.22-.28.5.5,0,0,1,.05-.36l1.6-2.78a.49.49,0,0,1,.29-.22.5.5,0,0,1,.36,0l1,.57a2.17,2.17,0,0,0,2.39-.16l.1-.07a.86.86,0,0,0,.29-.21,8.79,8.79,0,0,1,1.62-.88,2.16,2.16,0,0,0,1.33-2v-1.13a.47.47,0,0,1,.47-.47h3.21a.47.47,0,0,1,.47.47v1.13a2.16,2.16,0,0,0,1.33,2,9,9,0,0,1,2,1.16,2.15,2.15,0,0,0,2.39.16l1-.57a.48.48,0,0,1,.35,0,.46.46,0,0,1,.29.22l1.6,2.78a.46.46,0,0,1-.17.64l-1,.57A2.14,2.14,0,0,0,1041.68,453.9Zm-8,14.67h.76a2.17,2.17,0,0,0,2.17-2.16v-1.13a.46.46,0,0,1,.28-.43,10.58,10.58,0,0,0,2.39-1.39.49.49,0,0,1,.52,0l1,.57a2.14,2.14,0,0,0,1.64.22,2.17,2.17,0,0,0,1.32-1l1.6-2.78a2.16,2.16,0,0,0-.79-3l-1-.57a.44.44,0,0,1-.23-.46,10.63,10.63,0,0,0,0-2.76.44.44,0,0,1,.23-.46l1-.57a2.17,2.17,0,0,0,.79-3l-1.6-2.78a2.17,2.17,0,0,0-1.32-1,2.14,2.14,0,0,0-1.64.22l-.32.18a1.45,1.45,0,0,1-1.69,0,11,11,0,0,0-1.88-1,.46.46,0,0,1-.28-.43v-1.13a2.17,2.17,0,0,0-2.17-2.16h-3.21a2.16,2.16,0,0,0-2.16,2.16v1.13a.46.46,0,0,1-.28.43c-.26.11-.51.22-.76.35l-1.69,1.07a.49.49,0,0,1-.47,0l-1-.57a2.14,2.14,0,0,0-1.64-.22,2.17,2.17,0,0,0-1.32,1l-1.6,2.78a2.16,2.16,0,0,0,.79,3l1,.57a.44.44,0,0,1,.23.46,12.62,12.62,0,0,0-.09,1.38,10.55,10.55,0,0,0,.1,1.38.46.46,0,0,1-.24.46l-1,.57a2.17,2.17,0,0,0-.79,3l1.6,2.78a2.17,2.17,0,0,0,1.32,1,2.14,2.14,0,0,0,1.64-.22l1-.57a.47.47,0,0,1,.51,0,10.65,10.65,0,0,0,2.4,1.39.45.45,0,0,1,.27.43v1.13a2.17,2.17,0,0,0,2.17,2.16h2.45Z"/><rect class="cls-3" x="1193.08" y="233.86" width="203.14" height="203.14" rx="36"/><g class="cls-4"><circle class="cls-5" cx="1299.17" cy="393.78" r="117"/><circle class="cls-6" cx="1299.17" cy="393.27" r="116.28"/><circle class="cls-7" cx="1299.17" cy="392.77" r="115.57"/><circle class="cls-8" cx="1299.17" cy="392.26" r="114.85"/><circle class="cls-9" cx="1299.17" cy="391.75" r="114.14"/><circle class="cls-10" cx="1299.17" cy="391.24" r="113.42"/><circle class="cls-11" cx="1299.17" cy="390.73" r="112.71"/><circle class="cls-12" cx="1299.17" cy="390.22" r="111.99"/><circle class="cls-13" cx="1299.17" cy="389.71" r="111.28"/><circle class="cls-14" cx="1299.17" cy="389.2" r="110.56"/><circle class="cls-15" cx="1299.17" cy="388.69" r="109.85"/><circle class="cls-16" cx="1299.17" cy="388.19" r="109.13"/><circle class="cls-17" cx="1299.17" cy="387.68" r="108.42"/><circle class="cls-18" cx="1299.17" cy="387.17" r="107.7"/><circle class="cls-19" cx="1299.17" cy="386.66" r="106.99"/><circle class="cls-20" cx="1299.17" cy="386.15" r="106.28"/><circle class="cls-21" cx="1299.17" cy="385.64" r="105.56"/><circle class="cls-22" cx="1299.17" cy="385.13" r="104.85"/><circle class="cls-23" cx="1299.17" cy="384.62" r="104.13"/><circle class="cls-24" cx="1299.17" cy="384.11" r="103.42"/><circle class="cls-25" cx="1299.17" cy="383.61" r="102.7"/><circle class="cls-26" cx="1299.17" cy="383.1" r="101.99"/><circle class="cls-27" cx="1299.17" cy="382.59" r="101.27"/><circle class="cls-28" cx="1299.17" cy="382.08" r="100.56"/><circle class="cls-29" cx="1299.17" cy="381.57" r="99.84"/><circle class="cls-30" cx="1299.17" cy="381.06" r="99.13"/><circle class="cls-31" cx="1299.17" cy="380.55" r="98.41"/><circle class="cls-32" cx="1299.17" cy="380.04" r="97.7"/><circle class="cls-33" cx="1299.17" cy="379.53" r="96.98"/><circle class="cls-34" cx="1299.17" cy="379.03" r="96.27"/><circle class="cls-35" cx="1299.17" cy="378.52" r="95.55"/><circle class="cls-36" cx="1299.17" cy="378.01" r="94.84"/><circle class="cls-37" cx="1299.17" cy="377.5" r="94.12"/><circle class="cls-38" cx="1299.17" cy="376.99" r="93.41"/><circle class="cls-39" cx="1299.17" cy="376.48" r="92.69"/><circle class="cls-40" cx="1299.17" cy="375.97" r="91.98"/><circle class="cls-41" cx="1299.17" cy="375.46" r="91.26"/><circle class="cls-42" cx="1299.17" cy="374.96" r="90.55"/><circle class="cls-43" cx="1299.17" cy="374.45" r="89.83"/><circle class="cls-44" cx="1299.17" cy="373.94" r="89.12"/><circle class="cls-45" cx="1299.17" cy="373.43" r="88.4"/><circle class="cls-46" cx="1299.17" cy="372.92" r="87.69"/><circle class="cls-47" cx="1299.17" cy="372.41" r="86.97"/><circle class="cls-48" cx="1299.17" cy="371.9" r="86.26"/><circle class="cls-49" cx="1299.17" cy="371.39" r="85.54"/><circle class="cls-50" cx="1299.17" cy="370.88" r="84.83"/><circle class="cls-51" cx="1299.17" cy="370.38" r="84.11"/><circle class="cls-52" cx="1299.17" cy="369.87" r="83.4"/><circle class="cls-53" cx="1299.17" cy="369.36" r="82.68"/><circle class="cls-54" cx="1299.17" cy="368.85" r="81.97"/><circle class="cls-55" cx="1299.17" cy="368.34" r="81.25"/><circle class="cls-56" cx="1299.17" cy="367.83" r="80.54"/></g><rect class="cls-76" x="1181.74" y="222.35" width="226.16" height="226.16" rx="113.08"/><rect class="cls-77" x="1181.74" y="222.35" width="226.16" height="226.16" rx="113.08"/><text class="cls-64" transform="translate(1245.38 349.84)">TESTING &amp; <tspan x="-3.95" y="23.3">REVIEWING </tspan><tspan x="-5.93" y="46.6">THE DESIGN</tspan></text><g class="cls-4"><circle class="cls-5" cx="1294.82" cy="295.9" r="30.35" transform="translate(760.06 1511.68) rotate(-79.13)"/><circle class="cls-6" cx="1294.82" cy="295.71" r="30.11" transform="translate(762.91 1512.71) rotate(-79.26)"/><circle class="cls-7" cx="1294.82" cy="295.53" r="29.87" transform="translate(765.81 1513.74) rotate(-79.38)"/><circle class="cls-8" cx="1294.82" cy="295.35" r="29.64" transform="translate(768.76 1514.79) rotate(-79.51)"/><circle class="cls-9" cx="1294.82" cy="295.17" r="29.4" transform="translate(771.76 1515.86) rotate(-79.65)"/><circle class="cls-10" cx="1294.82" cy="294.99" r="29.17" transform="matrix(0.18, -0.98, 0.98, 0.18, 774.82, 1516.94)"/><circle class="cls-11" cx="1294.82" cy="294.8" r="28.93" transform="translate(777.93 1518.03) rotate(-79.92)"/><circle class="cls-12" cx="1294.82" cy="294.62" r="28.7" transform="translate(781.1 1519.14) rotate(-80.06)"/><circle class="cls-13" cx="1294.82" cy="294.44" r="28.46" transform="translate(784.33 1520.26) rotate(-80.2)"/><circle class="cls-14" cx="1294.82" cy="294.26" r="28.22" transform="translate(787.61 1521.4) rotate(-80.35)"/><circle class="cls-15" cx="1294.82" cy="294.08" r="27.99" transform="translate(790.96 1522.55) rotate(-80.5)"/><circle class="cls-16" cx="1294.82" cy="293.89" r="27.75" transform="translate(794.37 1523.72) rotate(-80.65)"/><circle class="cls-17" cx="1294.82" cy="293.71" r="27.52" transform="translate(797.85 1524.9) rotate(-80.8)"/><circle class="cls-18" cx="1294.82" cy="293.53" r="27.28" transform="translate(801.39 1526.1) rotate(-80.96)"/><circle class="cls-19" cx="1294.82" cy="293.35" r="27.05" transform="translate(805 1527.32) rotate(-81.11)"/><circle class="cls-20" cx="1294.82" cy="293.16" r="26.81" transform="translate(808.68 1528.55) rotate(-81.28)"/><circle class="cls-21" cx="1294.82" cy="292.98" r="26.58" transform="translate(812.43 1529.79) rotate(-81.44)"/><circle class="cls-22" cx="1294.82" cy="292.8" r="26.34" transform="translate(816.26 1531.05) rotate(-81.61)"/><circle class="cls-23" cx="1294.82" cy="292.62" r="26.1" transform="translate(820.16 1532.33) rotate(-81.78)"/><circle class="cls-24" cx="1294.82" cy="292.44" r="25.87" transform="translate(824.14 1533.62) rotate(-81.96)"/><circle class="cls-25" cx="1294.82" cy="292.25" r="25.63" transform="translate(828.19 1534.92) rotate(-82.14)"/><circle class="cls-26" cx="1294.82" cy="292.07" r="25.4" transform="translate(832.34 1536.24) rotate(-82.32)"/><circle class="cls-27" cx="1294.82" cy="291.89" r="25.16" transform="translate(836.56 1537.58) rotate(-82.51)"/><circle class="cls-28" cx="1294.82" cy="291.71" r="24.93" transform="translate(840.87 1538.94) rotate(-82.7)"/><circle class="cls-29" cx="1294.82" cy="291.53" r="24.69" transform="translate(845.27 1540.3) rotate(-82.89)"/><circle class="cls-30" cx="1294.82" cy="291.34" r="24.46" transform="translate(849.76 1541.69) rotate(-83.09)"/><circle class="cls-31" cx="1294.82" cy="291.16" r="24.22" transform="translate(854.35 1543.09) rotate(-83.29)"/><circle class="cls-32" cx="1294.82" cy="290.98" r="23.98" transform="translate(859.03 1544.5) rotate(-83.5)"/><circle class="cls-33" cx="1294.82" cy="290.8" r="23.75" transform="translate(863.81 1545.93) rotate(-83.71)"/><circle class="cls-34" cx="1294.82" cy="290.61" r="23.51" transform="translate(868.7 1547.37) rotate(-83.92)"/><circle class="cls-35" cx="1294.82" cy="290.43" r="23.28" transform="matrix(0.1, -0.99, 0.99, 0.1, 873.69, 1548.82)"/><circle class="cls-36" cx="1294.82" cy="290.25" r="23.04" transform="translate(878.78 1550.29) rotate(-84.36)"/><circle class="cls-37" cx="1294.82" cy="290.07" r="22.81" transform="translate(883.99 1551.78) rotate(-84.59)"/><circle class="cls-38" cx="1294.82" cy="289.89" r="22.57" transform="translate(889.3 1553.27) rotate(-84.82)"/><circle class="cls-39" cx="1294.82" cy="289.7" r="22.33" transform="translate(894.74 1554.78) rotate(-85.06)"/><circle class="cls-40" cx="1294.82" cy="289.52" r="22.1" transform="matrix(0.08, -1, 1, 0.08, 900.3, 1556.3)"/><circle class="cls-41" cx="1294.82" cy="289.34" r="21.86" transform="translate(905.97 1557.83) rotate(-85.55)"/><circle class="cls-42" cx="1294.82" cy="289.16" r="21.63" transform="translate(911.78 1559.37) rotate(-85.81)"/><circle class="cls-43" cx="1294.82" cy="288.98" r="21.39" transform="translate(917.71 1560.92) rotate(-86.07)"/><circle class="cls-44" cx="1294.82" cy="288.79" r="21.16" transform="translate(923.78 1562.48) rotate(-86.33)"/><circle class="cls-45" cx="1294.82" cy="288.61" r="20.92" transform="translate(929.98 1564.05) rotate(-86.6)"/><circle class="cls-46" cx="1294.82" cy="288.43" r="20.69" transform="matrix(0.05, -1, 1, 0.05, 936.32, 1565.62)"/><circle class="cls-47" cx="1294.82" cy="288.25" r="20.45" transform="translate(942.8 1567.2) rotate(-87.16)"/><circle class="cls-48" cx="1294.82" cy="288.06" r="20.21" transform="matrix(0.04, -1, 1, 0.04, 949.43, 1568.78)"/><circle class="cls-49" cx="1294.82" cy="287.88" r="19.98" transform="translate(956.22 1570.37) rotate(-87.75)"/><circle class="cls-50" cx="1294.82" cy="287.7" r="19.74" transform="translate(963.15 1571.96) rotate(-88.05)"/><circle class="cls-51" cx="1294.82" cy="287.52" r="19.51" transform="translate(970.25 1573.55) rotate(-88.35)"/><circle class="cls-52" cx="1294.82" cy="287.34" r="19.27" transform="translate(977.5 1575.13) rotate(-88.67)"/><circle class="cls-53" cx="1294.82" cy="287.15" r="19.04" transform="translate(984.92 1576.72) rotate(-88.99)"/><circle class="cls-54" cx="1294.82" cy="286.97" r="18.8" transform="translate(992.51 1578.29) rotate(-89.32)"/><circle class="cls-55" cx="1294.82" cy="286.79" r="18.57" transform="translate(1000.27 1579.86) rotate(-89.66)"/><circle class="cls-56" cx="1294.82" cy="286.61" r="18.33"/></g><circle class="cls-78" cx="1295.33" cy="280.14" r="26.01"/><path class="cls-66" d="M1298.13,275.41v1.94h-4v1.79a2.33,2.33,0,0,1,1.73-.65,2.79,2.79,0,0,1,2.85,3.09,3,3,0,0,1-3.26,3.29c-2.12,0-3.35-1.18-3.43-2.81h2.16a1.12,1.12,0,0,0,1.19.94c.84,0,1.2-.61,1.2-1.43s-.42-1.3-1.21-1.3a1,1,0,0,0-1.1.77h-2.14v-5.63Z"/><path class="cls-66" d="M1304.15,279a8.52,8.52,0,0,1,0,2.33,2.16,2.16,0,0,0,1.07,2.14l1,.57a.47.47,0,0,1,.22.29.48.48,0,0,1-.05.35l-1.6,2.78a.49.49,0,0,1-.29.22.46.46,0,0,1-.36-.05l-1-.56a2.15,2.15,0,0,0-2.39.15,8.86,8.86,0,0,1-2,1.17,2.14,2.14,0,0,0-1.32,2v1.13a.47.47,0,0,1-.47.47h-3.21a.47.47,0,0,1-.47-.47v-1.13a2.13,2.13,0,0,0-1.33-2,8.8,8.8,0,0,1-2-1.17,2.2,2.2,0,0,0-1.31-.44,2.15,2.15,0,0,0-1.09.29l-1,.56a.47.47,0,0,1-.64-.17l-1.61-2.78a.47.47,0,0,1,.18-.64l1-.57a2.14,2.14,0,0,0,1.06-2.15,9.65,9.65,0,0,1,0-2.32,2.14,2.14,0,0,0-1.06-2.15l-1-.56a.49.49,0,0,1-.22-.29.45.45,0,0,1,0-.36l1.61-2.78a.47.47,0,0,1,.29-.22.48.48,0,0,1,.35.05l1,.57a2.15,2.15,0,0,0,2.4-.16l.1-.07a.86.86,0,0,0,.29-.21,9.07,9.07,0,0,1,1.62-.88,2.14,2.14,0,0,0,1.33-2v-1.14a.47.47,0,0,1,.47-.47h3.21a.47.47,0,0,1,.47.47v1.14a2.15,2.15,0,0,0,1.32,2,9.21,9.21,0,0,1,2,1.16,2.13,2.13,0,0,0,2.39.16l1-.57a.5.5,0,0,1,.36-.05.53.53,0,0,1,.29.22l1.6,2.78a.48.48,0,0,1-.17.65l-1,.56A2.17,2.17,0,0,0,1304.15,279Zm-8,14.68h.76a2.17,2.17,0,0,0,2.16-2.17v-1.13a.46.46,0,0,1,.28-.43,10.61,10.61,0,0,0,2.4-1.38.44.44,0,0,1,.51,0l1,.56a2.15,2.15,0,0,0,3-.79l1.61-2.78a2.16,2.16,0,0,0-.79-3l-1-.56a.48.48,0,0,1-.24-.46,10.81,10.81,0,0,0,.09-1.39,10.66,10.66,0,0,0-.09-1.38.48.48,0,0,1,.23-.46l1-.57a2.16,2.16,0,0,0,.79-3l-1.61-2.78a2.11,2.11,0,0,0-1.31-1,2.14,2.14,0,0,0-1.64.21l-.32.18a1.43,1.43,0,0,1-1.69,0,11.49,11.49,0,0,0-1.89-1,.45.45,0,0,1-.28-.42v-1.14a2.16,2.16,0,0,0-2.16-2.16h-3.21a2.17,2.17,0,0,0-2.17,2.16v1.14a.45.45,0,0,1-.28.42l-.75.35-1.7,1.07a.47.47,0,0,1-.46,0l-1-.57a2.18,2.18,0,0,0-3,.8l-1.6,2.78a2.15,2.15,0,0,0,.79,3l1,.57a.47.47,0,0,1,.23.46,10.66,10.66,0,0,0-.09,1.38,10.81,10.81,0,0,0,.09,1.39.43.43,0,0,1-.23.45l-1,.57a2.16,2.16,0,0,0-.79,3l1.6,2.78a2.17,2.17,0,0,0,1.32,1,2.14,2.14,0,0,0,1.64-.22l1-.56a.47.47,0,0,1,.52,0,10.22,10.22,0,0,0,2.39,1.39.46.46,0,0,1,.28.43v1.13a2.17,2.17,0,0,0,2.17,2.17h2.45Z"/><line class="cls-79" x1="559.87" y1="196.11" x2="301.54" y2="306.15"/><line class="cls-79" x1="590.01" y1="333.33" x2="535.25" y2="393.78"/><line class="cls-79" x1="886.58" y1="333.33" x2="941.34" y2="393.78"/><line class="cls-79" x1="916.72" y1="196.11" x2="1172.19" y2="304.94"/><line class="cls-79" x1="738" y1="372.1" x2="738.29" y2="470.81"/></g></g></svg>