<svg width="55" height="58" viewBox="0 0 55 58" fill="none" xmlns="http://www.w3.org/2000/svg">
<path d="M28.8729 50.3779H9.14053C7.88431 50.3779 6.86661 49.3119 6.86661 47.9974V9.63123C6.86661 8.31644 7.88447 7.25098 9.14053 7.25098H45.7928C47.0486 7.25098 48.0666 8.31644 48.0666 9.63123V47.9974C48.0666 49.3121 47.0484 50.3779 45.7928 50.3779H35.294V33.6768H40.6493L41.4512 27.168H35.294V23.0126C35.294 21.1282 35.7939 19.844 38.3754 19.844L41.668 19.8425V14.0211C41.0986 13.9418 39.144 13.7645 36.8701 13.7645C32.1229 13.7645 28.8729 16.7978 28.8729 22.368V27.168H23.5038V33.6768H28.8729V50.3779Z" fill="white"/>
</svg>
