<svg width="330" height="214" viewBox="0 0 330 214" fill="none" xmlns="http://www.w3.org/2000/svg">
<path d="M329.088 2.979H299.011V34.3312H329.088V2.979Z" fill="#E0E0E0"/>
<path d="M327.049 2.979H296.972V34.3312H327.049V2.979Z" fill="#FAFAFA"/>
<path d="M327.059 34.341H296.962V2.96899H327.059V34.341ZM296.982 34.341H327.039V2.98883H296.982V34.341Z" fill="#E0E0E0"/>
<path d="M323.007 7.18994H301.015V30.1151H323.007V7.18994Z" fill="#FAFAFA"/>
<path d="M301.015 30.2688C300.861 30.4998 300.679 30.7114 300.474 30.8987C300.122 31.2707 299.631 31.7717 299.075 32.3173C298.52 32.8629 298.014 33.344 297.637 33.6912C297.445 33.8908 297.232 34.0687 297.002 34.2219C297.156 33.9909 297.338 33.7794 297.543 33.592C297.895 33.22 298.391 32.719 298.941 32.1734C299.492 31.6278 300.008 31.1368 300.385 30.7946C300.572 30.594 300.784 30.4174 301.015 30.2688Z" fill="#E0E0E0"/>
<path d="M323.007 30.2095C323.236 30.3685 323.447 30.5514 323.637 30.7551C324.009 31.1072 324.51 31.5983 325.055 32.1538C325.601 32.7093 326.082 33.2152 326.429 33.5872C326.628 33.7798 326.806 33.9926 326.96 34.2221C326.73 34.069 326.518 33.8892 326.33 33.6864C325.958 33.3343 325.457 32.8383 324.911 32.2828C324.366 31.7272 323.875 31.2213 323.533 30.8444C323.333 30.6541 323.157 30.441 323.007 30.2095Z" fill="#E0E0E0"/>
<path d="M322.947 7.25439C323.1 7.02219 323.282 6.8105 323.488 6.62447C323.84 6.25247 324.331 5.75151 324.887 5.20591C325.442 4.66031 325.948 4.17423 326.325 3.83199C326.513 3.62874 326.727 3.45039 326.96 3.30127C326.804 3.53081 326.622 3.7421 326.419 3.93119C326.067 4.29823 325.571 4.80415 325.016 5.34975C324.46 5.89535 323.954 6.38143 323.577 6.72863C323.388 6.92731 323.177 7.10371 322.947 7.25439Z" fill="#E0E0E0"/>
<path d="M300.955 7.30407C300.726 7.14799 300.514 6.96664 300.325 6.76343C299.953 6.41127 299.452 5.91527 298.907 5.36471C298.361 4.81415 297.88 4.32807 297.533 3.93127C297.329 3.74313 297.151 3.52977 297.002 3.29639C297.233 3.44895 297.444 3.62881 297.632 3.83207C298.004 4.18423 298.505 4.67527 299.05 5.23079C299.596 5.78631 300.082 6.29719 300.429 6.67415C300.628 6.8634 300.804 7.07475 300.955 7.30407Z" fill="#E0E0E0"/>
<path d="M322.948 30.1199C322.942 30.0838 322.942 30.047 322.948 30.0108C322.948 29.9315 322.948 29.8273 322.948 29.6884C322.948 29.4007 322.948 28.9891 322.948 28.4534C322.948 27.3671 322.948 25.7849 322.948 23.7811C322.948 19.7635 322.923 14.0446 322.908 7.19483L322.992 7.27915H301.064L301.163 7.17995C301.163 15.6119 301.163 23.4686 301.163 30.1051L301.079 30.0207L316.951 30.0654H321.415H322.596H321.435H316.971L301.039 30.11H300.955V30.1199C300.955 23.4835 300.955 15.6119 300.955 7.19483V7.10059H301.054H322.982H323.067V7.18491C323.067 14.0595 323.032 19.7982 323.022 23.8257C323.022 25.8097 323.022 27.3969 323.022 28.4782C323.022 29.0039 323.022 29.4156 323.022 29.6983V30.0059C322.948 30.0803 322.948 30.1199 322.948 30.1199Z" fill="#E0E0E0"/>
<path d="M315.677 14.9822H308.341V22.318H315.677V14.9822Z" fill="#EBEBEB"/>
<path d="M300.762 91.5248C300.762 91.5248 296.298 91.2024 296.704 101.222C297.111 111.241 298.138 116.598 298.138 116.598C298.138 116.598 298.009 118.815 296.288 118.378C294.567 117.942 291.328 115.784 289.731 117.386C288.133 118.988 288.664 121.632 290.861 124.658C293.059 127.683 297.637 134.498 298.049 135.113C298.46 135.728 298.614 136.859 297.394 136.75C296.174 136.641 287.94 133.849 286.854 137.836C285.768 141.824 293.272 149.244 294.081 150.078C294.889 150.911 294.929 151.427 294.577 151.928C294.224 152.429 291.571 151.228 289.2 150.534C286.829 149.84 283.947 149.443 283.511 151.794C283.074 154.145 286.388 161.029 298.778 168.261L304.73 171.237L310.374 167.636C321.98 159.204 324.584 152.017 323.915 149.721C323.245 147.424 320.443 148.104 318.132 149.036C315.82 149.969 313.296 151.427 312.919 150.961C312.542 150.494 312.532 149.969 313.251 149.066C313.97 148.163 320.691 140.019 319.203 136.17C317.715 132.321 309.809 135.912 308.608 136.145C307.408 136.378 307.453 135.227 307.795 134.583C308.137 133.938 312.011 126.691 313.896 123.462C315.78 120.233 316.108 117.609 314.293 116.112C312.477 114.614 309.536 117.138 307.869 117.743C306.203 118.349 305.846 116.151 305.846 116.151C305.846 116.151 306.342 110.74 305.737 100.731C305.131 90.7213 300.628 91.5298 300.628 91.5298" fill="#EBEBEB"/>
<path d="M301.113 100.498C301.113 100.498 301.113 100.567 301.138 100.706C301.163 100.845 301.138 101.058 301.183 101.321C301.223 101.871 301.277 102.665 301.347 103.687C301.48 105.74 301.659 108.716 301.843 112.392C302.249 119.742 302.725 129.905 303.216 141.13C303.708 152.354 304.159 162.522 304.526 169.898C304.714 173.563 304.863 176.539 304.972 178.603C305.022 179.624 305.062 180.423 305.086 180.974C305.086 181.236 305.086 181.44 305.086 181.589C305.086 181.737 305.086 181.797 305.086 181.797C305.082 181.728 305.082 181.658 305.086 181.589C305.086 181.44 305.057 181.236 305.037 180.974C305.002 180.423 304.948 179.629 304.878 178.608C304.739 176.554 304.566 173.583 304.382 169.903C303.97 162.552 303.494 152.389 303.003 141.16C302.512 129.93 302.061 119.772 301.694 112.421C301.51 108.751 301.356 105.78 301.252 103.712C301.203 102.69 301.163 101.896 301.133 101.341C301.133 101.078 301.133 100.875 301.109 100.726C301.084 100.577 301.113 100.498 301.113 100.498Z" fill="#E0E0E0"/>
<path d="M294.14 120.586C294.273 120.674 294.396 120.777 294.507 120.893C294.74 121.102 295.062 121.414 295.454 121.801C296.243 122.585 297.299 123.686 298.43 124.926L301.342 128.12L302.229 129.082C302.349 129.191 302.454 129.314 302.542 129.449C302.406 129.362 302.281 129.258 302.17 129.142C301.942 128.933 301.619 128.621 301.227 128.229C300.449 127.44 299.407 126.324 298.251 125.084L295.315 121.915L294.422 120.958C294.313 120.846 294.217 120.721 294.14 120.586Z" fill="#E0E0E0"/>
<path d="M303.147 129.251C303.103 129.206 305.285 126.924 308.018 124.152C310.751 121.379 312.978 119.192 313.047 119.217C313.117 119.241 310.915 121.543 308.182 124.315C305.449 127.088 303.192 129.32 303.147 129.251Z" fill="#E0E0E0"/>
<path d="M303.122 146.526C303.25 146.422 303.39 146.334 303.539 146.263L304.704 145.609C305.696 145.053 307.045 144.284 308.509 143.387C309.972 142.489 311.281 141.631 312.219 141.001L313.33 140.257C313.459 140.157 313.601 140.073 313.751 140.009C313.643 140.132 313.52 140.24 313.384 140.331C313.131 140.525 312.769 140.802 312.308 141.135C311.395 141.794 310.101 142.677 308.628 143.58C307.155 144.483 305.786 145.232 304.779 145.747C304.283 146.005 303.866 146.209 303.578 146.338C303.435 146.419 303.281 146.483 303.122 146.526Z" fill="#E0E0E0"/>
<path d="M293.247 140.48C293.393 140.524 293.532 140.59 293.659 140.673C293.917 140.812 294.289 141.016 294.74 141.274C295.648 141.77 296.893 142.514 298.262 143.332C299.631 144.15 300.866 144.894 301.734 145.445C302.18 145.718 302.537 145.941 302.78 146.105C302.913 146.181 303.036 146.272 303.147 146.377C303.004 146.328 302.866 146.263 302.736 146.184C302.478 146.045 302.106 145.842 301.654 145.584C300.747 145.088 299.502 144.339 298.133 143.525C296.764 142.712 295.529 141.963 294.661 141.412C294.214 141.14 293.857 140.916 293.614 140.753C293.481 140.677 293.358 140.585 293.247 140.48Z" fill="#E0E0E0"/>
<path d="M291.288 155.727C291.472 155.792 291.648 155.877 291.814 155.98L293.203 156.744C294.368 157.399 295.97 158.321 297.736 159.348C299.502 160.375 301.089 161.332 302.235 162.001L303.589 162.83C303.765 162.923 303.931 163.035 304.085 163.162C303.903 163.095 303.729 163.01 303.564 162.909L302.175 162.14C301.01 161.486 299.403 160.568 297.642 159.541C295.881 158.515 294.284 157.557 293.138 156.888L291.789 156.059C291.612 155.965 291.444 155.854 291.288 155.727Z" fill="#E0E0E0"/>
<path d="M303.832 162.899C303.985 162.767 304.151 162.651 304.328 162.552L305.776 161.669C307.001 160.925 308.688 159.888 310.518 158.693C312.348 157.498 313.99 156.382 315.151 155.563L316.545 154.571C316.708 154.443 316.884 154.331 317.07 154.239C316.917 154.389 316.751 154.525 316.574 154.646C316.257 154.894 315.801 155.246 315.22 155.672C314.07 156.526 312.453 157.656 310.617 158.862C308.782 160.067 307.081 161.074 305.836 161.783C305.211 162.135 304.705 162.418 304.348 162.602C304.184 162.714 304.012 162.814 303.832 162.899Z" fill="#E0E0E0"/>
<path d="M312.769 173.186H296.277L301.659 213.928H307.388L312.769 173.186Z" fill="#E0E0E0"/>
<path d="M297.136 178.191C297.136 178.191 297.136 178.251 297.225 178.34C297.333 178.464 297.469 178.561 297.622 178.623C297.909 178.726 298.215 178.762 298.518 178.727C298.821 178.693 299.112 178.589 299.368 178.424C300.032 178.057 300.613 177.333 301.505 177.016C302.494 176.699 303.56 176.72 304.536 177.075C305.53 177.417 306.479 177.876 307.363 178.444C308.101 178.905 308.868 179.318 309.66 179.679C310.197 179.924 310.767 180.091 311.351 180.175C311.515 180.199 311.681 180.211 311.847 180.21C311.956 180.21 312.011 180.21 312.011 180.21C311.229 180.088 310.468 179.859 309.749 179.53C308.977 179.147 308.227 178.721 307.502 178.256C306.609 177.663 305.644 177.188 304.63 176.842C303.599 176.469 302.471 176.457 301.431 176.807C300.99 176.988 300.583 177.241 300.226 177.556C299.928 177.82 299.613 178.063 299.283 178.285C299.052 178.446 298.788 178.555 298.511 178.603C298.233 178.651 297.948 178.637 297.676 178.563C297.471 178.48 297.287 178.353 297.136 178.191Z" fill="#F5F5F5"/>
<path d="M297.737 185.695C297.737 185.695 297.865 185.532 298.123 185.259C298.499 184.89 298.949 184.606 299.443 184.426C300.176 184.158 300.955 184.04 301.734 184.078C302.699 184.15 303.658 184.281 304.606 184.47C305.573 184.657 306.563 184.699 307.542 184.594C308.342 184.49 309.121 184.266 309.854 183.93C310.347 183.706 310.814 183.43 311.248 183.106C311.412 182.996 311.559 182.863 311.684 182.709C311.077 183.106 310.44 183.456 309.779 183.756C309.055 184.058 308.292 184.257 307.513 184.346C306.555 184.436 305.59 184.388 304.646 184.202C303.688 184.014 302.719 183.89 301.744 183.83C300.934 183.804 300.126 183.946 299.373 184.247C298.864 184.452 298.41 184.775 298.049 185.189C297.953 185.304 297.869 185.426 297.796 185.557C297.751 185.646 297.727 185.69 297.737 185.695Z" fill="#F5F5F5"/>
<path d="M310.899 189.713C310.765 189.608 310.612 189.528 310.448 189.48C310.009 189.315 309.547 189.216 309.079 189.187C308.389 189.143 307.696 189.181 307.015 189.301C306.247 189.43 305.418 189.639 304.535 189.822C303.723 190.015 302.89 190.109 302.055 190.1C301.385 190.085 300.723 189.942 300.106 189.678C299.54 189.417 299.034 189.042 298.618 188.577C298.68 188.74 298.777 188.887 298.901 189.009C299.212 189.363 299.592 189.649 300.017 189.852C300.65 190.15 301.336 190.319 302.036 190.348C302.885 190.371 303.733 190.284 304.56 190.09C305.433 189.901 306.252 189.683 307.006 189.549C307.669 189.42 308.344 189.362 309.019 189.376C309.657 189.41 310.289 189.523 310.899 189.713Z" fill="#F5F5F5"/>
<path d="M299.194 195.367C299.698 195.148 300.258 195.091 300.796 195.204C301.376 195.346 301.937 195.556 302.468 195.829C303.433 196.29 304.499 196.503 305.568 196.448C306.637 196.392 307.675 196.07 308.588 195.511C308.946 195.298 309.279 195.045 309.58 194.757C309.691 194.654 309.79 194.537 309.873 194.41C309.434 194.747 308.977 195.06 308.504 195.348C307.337 195.99 306.007 196.273 304.68 196.161C303.117 196.072 301.917 195.139 300.836 195.015C300.418 194.942 299.989 194.98 299.591 195.124C299.303 195.234 299.184 195.358 299.194 195.367Z" fill="#F5F5F5"/>
<path d="M300.111 203.184C300.584 203.198 301.054 203.105 301.485 202.912C302.314 202.634 303.34 201.999 304.541 201.523C305.098 201.297 305.691 201.173 306.292 201.156C306.779 201.157 307.26 201.267 307.7 201.478C308.099 201.695 308.448 201.994 308.722 202.356C308.697 202.229 308.643 202.111 308.563 202.009C308.363 201.719 308.098 201.479 307.789 201.309C307.332 201.06 306.822 200.922 306.301 200.908C305.667 200.911 305.04 201.033 304.451 201.27C303.206 201.766 302.214 202.421 301.421 202.733C300.627 203.045 300.106 203.14 300.111 203.184Z" fill="#F5F5F5"/>
<path d="M300.92 206.825C301.251 206.987 301.603 207.1 301.966 207.162C302.825 207.37 303.697 207.517 304.575 207.604C305.454 207.691 306.337 207.716 307.219 207.678C307.587 207.689 307.955 207.645 308.31 207.549C308.31 207.47 306.639 207.549 304.6 207.336C302.562 207.123 300.94 206.746 300.92 206.825Z" fill="#F5F5F5"/>
<path d="M56.204 18.2115L51.9385 18.2346L52.0533 39.4482L56.3188 39.4252L56.204 18.2115Z" fill="#E0E0E0"/>
<path d="M26.0437 18.2608L15.0029 18.3206L15.0663 30.0309L26.1071 29.9712L26.0437 18.2608Z" fill="#EBEBEB"/>
<path d="M37.0349 18.2061L25.9941 18.2659L26.0575 29.9763L37.0983 29.9165L37.0349 18.2061Z" fill="#F5F5F5"/>
<path d="M15.0211 21.5591C22.3569 21.6236 29.7126 21.5591 37.0484 21.4599C37.0752 21.4544 37.0993 21.4397 37.1166 21.4185C37.1339 21.3973 37.1433 21.3707 37.1433 21.3434C37.1433 21.316 37.1339 21.2895 37.1166 21.2682C37.0993 21.247 37.0752 21.2324 37.0484 21.2268C29.7126 21.1871 22.3569 21.2268 15.0211 21.3607C14.9948 21.3607 14.9695 21.3712 14.9509 21.3898C14.9323 21.4084 14.9219 21.4336 14.9219 21.4599C14.9219 21.4862 14.9323 21.5115 14.9509 21.5301C14.9695 21.5487 14.9948 21.5591 15.0211 21.5591Z" fill="#E0E0E0"/>
<path d="M28.1742 29.7811L8.11621 29.8896L8.16784 39.4325L28.2258 39.324L28.1742 29.7811Z" fill="#EBEBEB"/>
<path d="M48.1429 29.6681L28.085 29.7766L28.1366 39.3195L48.1945 39.211L48.1429 29.6681Z" fill="#F5F5F5"/>
<path d="M8.13129 32.5455C21.4588 32.6943 34.826 32.5455 48.1535 32.3471C48.1803 32.3415 48.2044 32.3269 48.2217 32.3057C48.239 32.2844 48.2484 32.2579 48.2484 32.2305C48.2484 32.2031 48.239 32.1766 48.2217 32.1554C48.2044 32.1342 48.1803 32.1195 48.1535 32.114C34.831 32.0445 21.4588 32.0495 8.13625 32.3421C8.11312 32.3473 8.09243 32.3601 8.0776 32.3786C8.06277 32.3971 8.05469 32.4201 8.05469 32.4438C8.05469 32.4675 8.06277 32.4905 8.0776 32.509C8.09243 32.5275 8.11312 32.5403 8.13625 32.5455H8.13129Z" fill="#E0E0E0"/>
<path d="M78.3402 39.4351H0.631836V42.8525H78.3402V39.4351Z" fill="#E0E0E0"/>
<path d="M16.5091 41.0767H13.3545V52.7426H16.5091V41.0767Z" fill="#E0E0E0"/>
<path d="M63.5989 41.0767H60.4443V52.7426H63.5989V41.0767Z" fill="#E0E0E0"/>
<path d="M60.4843 9.89685L56.2236 9.93945L56.5154 39.1142L60.776 39.0716L60.4843 9.89685Z" fill="#EBEBEB"/>
<path d="M67.0239 15.7276L60.3975 15.7634L60.5254 39.4074L67.1518 39.3716L67.0239 15.7276Z" fill="#F5F5F5"/>
<path d="M66.9712 20.2894C65.8724 20.4042 64.767 20.4423 63.6629 20.4035C62.5571 20.4423 61.4501 20.4042 60.3496 20.2894C61.4501 20.1746 62.5571 20.1365 63.6629 20.1753C64.767 20.1365 65.8724 20.1747 66.9712 20.2894Z" fill="#E0E0E0"/>
<path d="M66.9712 19.2975C65.8722 19.4091 64.767 19.4472 63.6629 19.4115C62.5571 19.4474 61.4503 19.4092 60.3496 19.2975C61.4498 19.1794 62.557 19.1396 63.6629 19.1784C64.7671 19.1397 65.8726 19.1794 66.9712 19.2975Z" fill="#E0E0E0"/>
<path d="M66.9712 35.8192C65.8724 35.9339 64.767 35.972 63.6629 35.9333C62.5571 35.9721 61.4501 35.9339 60.3496 35.8192C61.4501 35.7044 62.5571 35.6663 63.6629 35.7051C64.767 35.6663 65.8724 35.7045 66.9712 35.8192Z" fill="#E0E0E0"/>
<path d="M66.9712 34.827C65.8724 34.9417 64.767 34.9799 63.6629 34.9411C62.5571 34.9799 61.4501 34.9418 60.3496 34.827C61.4501 34.7122 62.5571 34.6741 63.6629 34.7129C64.767 34.6741 65.8724 34.7123 66.9712 34.827Z" fill="#E0E0E0"/>
<path d="M63.7674 32.6597C63.7029 32.6597 63.6533 30.2739 63.6533 27.3327C63.6533 24.3914 63.7029 22.0056 63.7674 22.0056C63.8319 22.0056 63.8815 24.3914 63.8815 27.3327C63.8815 30.2739 63.8319 32.6597 63.7674 32.6597Z" fill="#E0E0E0"/>
<path d="M74.2578 21.5393H67.0459V39.3854H74.2578V21.5393Z" fill="#EBEBEB"/>
<path d="M58.1626 16.5098C58.8392 16.5098 59.3877 15.9613 59.3877 15.2847C59.3877 14.6081 58.8392 14.0596 58.1626 14.0596C57.486 14.0596 56.9375 14.6081 56.9375 15.2847C56.9375 15.9613 57.486 16.5098 58.1626 16.5098Z" fill="#E0E0E0"/>
<path d="M58.545 18.6526H57.7861V36.0076H58.545V18.6526Z" fill="#E0E0E0"/>
<path d="M33.5462 72.4089H3.46875V103.761H33.5462V72.4089Z" fill="#E0E0E0"/>
<path d="M31.513 72.4089H1.43555V103.761H31.513V72.4089Z" fill="#FAFAFA"/>
<path d="M31.528 103.771H1.42578V72.3992H31.528V103.771ZM1.45058 103.771H31.528V72.419H1.44562L1.45058 103.771Z" fill="#E0E0E0"/>
<path d="M27.4702 76.625H5.47754V99.5501H27.4702V76.625Z" fill="#FAFAFA"/>
<path d="M5.47749 99.699C5.321 99.9311 5.13788 100.144 4.93189 100.334C4.58469 100.701 4.08869 101.202 3.53813 101.747C2.98757 102.293 2.47668 102.779 2.09972 103.126C1.9095 103.326 1.6964 103.502 1.46484 103.652C1.61877 103.424 1.80036 103.216 2.00548 103.032C2.35764 102.66 2.84869 102.159 3.40421 101.609C3.95973 101.058 4.47061 100.577 4.84261 100.235C5.03177 100.031 5.24496 99.8512 5.47749 99.699Z" fill="#E0E0E0"/>
<path d="M27.4658 99.6445C27.6973 99.8001 27.9103 99.9815 28.1007 100.185C28.4677 100.537 28.9737 101.033 29.5143 101.584C30.0549 102.134 30.546 102.645 30.8932 103.022C31.0928 103.213 31.2693 103.426 31.4189 103.657C31.1902 103.502 30.9804 103.321 30.794 103.117C30.422 102.764 29.921 102.273 29.3705 101.718C28.8199 101.162 28.3388 100.651 27.9965 100.279C27.7947 100.09 27.6165 99.8768 27.4658 99.6445Z" fill="#E0E0E0"/>
<path d="M27.4053 76.6846C27.5643 76.4558 27.7472 76.2446 27.9509 76.0546C28.303 75.6826 28.7941 75.1817 29.3496 74.6361C29.9051 74.0905 30.411 73.6094 30.783 73.2622C30.9772 73.0654 31.1898 72.8877 31.4179 72.7314C31.2648 72.9618 31.085 73.1732 30.8822 73.3614C30.5301 73.7334 30.0341 74.2343 29.4786 74.7799C28.923 75.3255 28.4171 75.8166 28.0402 76.1588C27.8534 76.3621 27.6398 76.539 27.4053 76.6846Z" fill="#E0E0E0"/>
<path d="M5.41796 76.7441C5.18804 76.5866 4.97671 76.4036 4.78804 76.1985C4.41604 75.8513 3.91508 75.3553 3.36948 74.7998C2.82388 74.2442 2.3378 73.7383 1.99556 73.3663C1.7937 73.1769 1.6155 72.9637 1.46484 72.7314C1.69589 72.8855 1.9074 73.0671 2.09476 73.2721C2.4618 73.6193 2.96772 74.1153 3.51332 74.6708C4.05892 75.2263 4.54501 75.7372 4.89221 76.1092C5.09181 76.2994 5.26828 76.5125 5.41796 76.7441Z" fill="#E0E0E0"/>
<path d="M27.4059 99.56C27.4059 99.56 27.4059 99.5203 27.4059 99.4459C27.4059 99.3715 27.4059 99.2624 27.4059 99.1285C27.4059 98.8408 27.4059 98.4241 27.4059 97.8885C27.4059 96.8022 27.4059 95.2249 27.4059 93.2161C27.4059 89.2035 27.4059 83.4846 27.3613 76.6348L27.4456 76.7192H5.51748L5.61668 76.62C5.61668 85.052 5.61668 92.9036 5.61668 99.5451L5.53236 99.4608L21.4043 99.5005L25.8683 99.5252H27.0439H25.8783H21.4143L5.48276 99.5699H5.39844V99.56C5.39844 92.9185 5.39844 85.047 5.39844 76.6348V76.5356H5.49764H27.4258H27.5151V76.62C27.5151 83.4896 27.4853 89.2283 27.4754 93.2558C27.4754 95.2398 27.4754 96.827 27.4754 97.9083C27.4754 98.439 27.4754 98.8457 27.4754 99.1285C27.4754 99.2624 27.4754 99.3665 27.4754 99.4409C27.4608 99.485 27.4372 99.5256 27.4059 99.56Z" fill="#E0E0E0"/>
<path d="M20.1395 84.4172H12.8037V91.7531H20.1395V84.4172Z" fill="#EBEBEB"/>
<path d="M191.656 32.238H175.531V66.7497H191.656V32.238Z" fill="#F5F5F5"/>
<path d="M212.136 69.1653H192.326V102.511H212.136V69.1653Z" fill="#F5F5F5"/>
<path d="M214.552 31.6428H233.36V1.02473H234.03V31.6428H251.444V0.345215H214.552V31.6428Z" fill="#F5F5F5"/>
<path d="M191.656 69.1653H175.531V102.511H191.656V69.1653Z" fill="#F5F5F5"/>
<path d="M251.439 69.1653H234.029V102.511H251.439V69.1653Z" fill="#F5F5F5"/>
<path d="M212.136 32.238H192.326V66.7497H212.136V32.238Z" fill="#F5F5F5"/>
<path d="M251.439 32.238H234.029V66.7497H251.439V32.238Z" fill="#F5F5F5"/>
<path d="M191.656 103.106H175.531V133.159H191.656V103.106Z" fill="#F5F5F5"/>
<path d="M191.656 31.6428V1.02473H192.326V31.6428H212.136V0.345215H175.531V31.6428H191.656Z" fill="#F5F5F5"/>
<path d="M212.136 103.106H192.326V133.159H212.136V103.106Z" fill="#F5F5F5"/>
<path d="M251.439 103.106H234.029V133.159H251.439V103.106Z" fill="#F5F5F5"/>
<path d="M233.365 32.238H214.552V66.7497H233.365V32.238Z" fill="#F5F5F5"/>
<path d="M233.365 103.106H214.552V133.159H233.365V103.106Z" fill="#F5F5F5"/>
<path d="M233.365 69.1653H214.552V102.511H233.365V69.1653Z" fill="#F5F5F5"/>
<path d="M113.08 32.238H96.9551V66.7497H113.08V32.238Z" fill="#F5F5F5"/>
<path d="M133.555 69.1653H113.745V102.511H133.555V69.1653Z" fill="#F5F5F5"/>
<path d="M135.971 31.6428H154.784V1.02473H155.454V31.6428H172.863V0.345215H135.971V31.6428Z" fill="#F5F5F5"/>
<path d="M113.08 69.1653H96.9551V102.511H113.08V69.1653Z" fill="#F5F5F5"/>
<path d="M172.863 69.1653H155.453V102.511H172.863V69.1653Z" fill="#F5F5F5"/>
<path d="M133.555 32.238H113.745V66.7497H133.555V32.238Z" fill="#F5F5F5"/>
<path d="M172.863 32.238H155.453V66.7497H172.863V32.238Z" fill="#F5F5F5"/>
<path d="M113.08 103.106H96.9551V133.159H113.08V103.106Z" fill="#F5F5F5"/>
<path d="M113.075 31.6428V1.02473H113.745V31.6428H133.56V0.345215H96.9551V31.6428H113.075Z" fill="#F5F5F5"/>
<path d="M133.555 103.106H113.745V133.159H133.555V103.106Z" fill="#F5F5F5"/>
<path d="M172.863 103.106H155.453V133.159H172.863V103.106Z" fill="#F5F5F5"/>
<path d="M154.784 32.238H135.971V66.7497H154.784V32.238Z" fill="#F5F5F5"/>
<path d="M154.784 103.106H135.971V133.159H154.784V103.106Z" fill="#F5F5F5"/>
<path d="M154.784 69.1653H135.971V102.511H154.784V69.1653Z" fill="#F5F5F5"/>
</svg>
