<svg width="271" height="271" viewBox="0 0 271 271" fill="none" xmlns="http://www.w3.org/2000/svg">
<circle cx="135.14" cy="135.893" r="135.107" fill="url(#paint0_linear_243:964)"/>
<mask id="mask0_243:964" style="mask-type:alpha" maskUnits="userSpaceOnUse" x="0" y="0" width="271" height="271">
<circle cx="135.14" cy="135.893" r="135.107" fill="url(#paint1_linear_243:964)"/>
</mask>
<g mask="url(#mask0_243:964)">
<rect width="268.471" height="109.829" rx="1" transform="matrix(-1 0 0 1 269.367 169.888)" fill="url(#paint2_linear_243:964)"/>
<rect x="55.8145" y="72.2621" width="152.54" height="207.454" rx="1" fill="url(#paint3_linear_243:964)"/>
<path d="M98.5293 219.699C98.5293 219.147 98.977 218.699 99.5293 218.699H129.037V279.715H98.5293V219.699Z" fill="white"/>
<path d="M135.135 218.699H164.643C165.195 218.699 165.643 219.147 165.643 219.699V279.715H135.135V218.699Z" fill="white"/>
<circle cx="132.092" cy="69.2108" r="33.5588" fill="url(#paint4_linear_243:964)"/>
<path d="M147.342 61.8866H139.413V53.9571H124.763V61.8866H116.834V76.5356H124.763V84.4651H139.413V76.5356H147.342V61.8866Z" fill="white"/>
<rect x="151.695" y="121.075" width="26.1497" height="30.508" fill="#E9E4FF"/>
<path d="M177.845 151.583V121.075L151.695 151.583H177.845Z" fill="#F9F8FF"/>
<rect x="151.695" y="143.955" width="26.1497" height="7.627" fill="#6144ED"/>
<rect x="119.01" y="121.075" width="26.1497" height="30.508" fill="#E9E4FF"/>
<path d="M145.159 151.583V121.075L119.01 151.583H145.159Z" fill="#F9F8FF"/>
<rect x="119.01" y="143.954" width="26.1497" height="7.627" fill="#6144ED"/>
<rect x="86.3262" y="121.076" width="26.1497" height="30.508" fill="#E9E4FF"/>
<path d="M112.476 151.584V121.076L86.3262 151.584H112.476Z" fill="#F9F8FF"/>
<rect x="86.3262" y="143.953" width="26.1497" height="7.627" fill="#6144ED"/>
<rect x="151.695" y="157.683" width="26.1497" height="30.508" fill="#E9E4FF"/>
<path d="M177.845 188.191V157.683L151.695 188.191H177.845Z" fill="#F9F8FF"/>
<rect x="151.695" y="180.561" width="26.1497" height="7.627" fill="#6144ED"/>
<rect x="119.01" y="157.683" width="26.1497" height="30.508" fill="#E9E4FF"/>
<path d="M145.159 188.191V157.683L119.01 188.191H145.159Z" fill="#F9F8FF"/>
<rect x="119.01" y="180.562" width="26.1497" height="7.627" fill="#6144ED"/>
<rect x="86.3262" y="157.684" width="26.1497" height="30.508" fill="#E9E4FF"/>
<path d="M112.476 188.192V157.684L86.3262 188.192H112.476Z" fill="#F9F8FF"/>
<rect x="86.3262" y="180.562" width="26.1497" height="7.627" fill="#6144ED"/>
</g>
<defs>
<linearGradient id="paint0_linear_243:964" x1="135.14" y1="271" x2="126.483" y2="1.06352" gradientUnits="userSpaceOnUse">
<stop stop-color="#A491FF"/>
<stop offset="1" stop-color="#CBBFFF"/>
</linearGradient>
<linearGradient id="paint1_linear_243:964" x1="135.14" y1="271" x2="126.483" y2="1.06352" gradientUnits="userSpaceOnUse">
<stop stop-color="#A491FF"/>
<stop offset="1" stop-color="#CBBFFF"/>
</linearGradient>
<linearGradient id="paint2_linear_243:964" x1="134.235" y1="109.829" x2="132.795" y2="0.0189063" gradientUnits="userSpaceOnUse">
<stop stop-color="#A491FF"/>
<stop offset="1" stop-color="#CBBFFF"/>
</linearGradient>
<linearGradient id="paint3_linear_243:964" x1="135.135" y1="279.717" x2="238.702" y2="181.76" gradientUnits="userSpaceOnUse">
<stop stop-color="#6E52F1"/>
<stop offset="1" stop-color="#8267FF"/>
</linearGradient>
<linearGradient id="paint4_linear_243:964" x1="132.092" y1="102.77" x2="129.942" y2="35.7209" gradientUnits="userSpaceOnUse">
<stop stop-color="#E9A540"/>
<stop offset="1" stop-color="#FFC657"/>
</linearGradient>
</defs>
</svg>
