<svg width="56" height="58" viewBox="0 0 56 58" fill="none" xmlns="http://www.w3.org/2000/svg">
<path fill-rule="evenodd" clip-rule="evenodd" d="M27.3601 32.6143C25.313 32.6143 20.2856 32.6211 20.2856 32.6211V27.4022H32.8529C33.7282 33.717 31.0879 43.1893 20.2856 43.1893C13.0586 43.1893 7.20007 37.2894 7.20007 30.0116C7.20007 22.7338 13.0586 16.834 20.2856 16.834C23.6767 16.834 26.7664 18.133 29.0911 20.2638C27.2897 21.977 26.7122 22.6301 26.2215 23.185C25.9662 23.4736 25.7345 23.7357 25.3662 24.1066C24.0215 22.9868 22.5555 22.1833 20.2856 22.1833C15.9924 22.1833 12.6416 25.6882 12.6416 30.0116C12.6416 34.3351 15.9924 37.84 20.2856 37.84C24.5279 37.84 26.2516 35.9976 27.3601 32.6143ZM43.8655 23.0986V27.6651H48.4001V30.9269H43.8655V35.6239H40.6266V30.9269H35.9624V27.6651H40.6266V23.0986H43.8655Z" fill="white"/>
</svg>
