<svg width="24" height="26" viewBox="0 0 24 26" fill="none" xmlns="http://www.w3.org/2000/svg">
<path d="M20.1269 1.52344C19.5636 1.52344 19.0355 1.67319 18.58 1.93334V0.761719C18.58 0.341047 18.2337 0 17.8065 0H5.43078C5.00356 0 4.65724 0.341047 4.65724 0.761719V1.94264C4.19815 1.6767 3.66399 1.52344 3.09393 1.52344C1.38794 1.52344 0 2.89027 0 4.57031C0 5.85178 0.385607 7.08998 1.1151 8.1511C2.35701 9.95754 3.88845 10.4263 5.15567 10.9255C5.88636 12.7175 7.36397 14.1376 9.20718 14.81L8.63681 18.3828H8.52471C7.24521 18.3828 6.20426 19.4079 6.20426 20.668V24.4766H5.43078C5.00361 24.4766 4.65729 24.8176 4.65729 25.2383C4.65729 25.659 5.00361 26 5.43078 26H17.8065C18.2337 26 18.58 25.659 18.58 25.2383C18.58 24.8176 18.2337 24.4766 17.8065 24.4766H17.033V20.668C17.033 19.4079 15.9921 18.3828 14.7126 18.3828H14.6005L14.0302 14.81C15.876 14.1366 17.3553 12.7134 18.0849 10.9178C19.282 10.4462 20.8512 9.97608 22.1058 8.1511C22.8353 7.08998 23.2209 5.85173 23.2209 4.57031C23.2209 2.89027 21.8329 1.52344 20.1269 1.52344ZM4.65152 9.08614C2.76556 8.34321 1.54697 6.57069 1.54697 4.57031C1.54697 3.73029 2.24093 3.04688 3.09393 3.04688C3.94693 3.04688 4.6409 3.73029 4.6409 4.57031C4.6409 4.62389 4.64662 4.67609 4.65729 4.72652V8.37891C4.65729 8.62372 4.67065 8.86549 4.69623 9.10376L4.65152 9.08614ZM15.4861 24.4766H7.75122V22.9531H15.4861V24.4766ZM14.7126 19.9062C15.1391 19.9062 15.4861 20.248 15.4861 20.668V21.4297H7.75122V20.668C7.75122 20.248 8.09821 19.9062 8.52471 19.9062C8.94435 19.9062 13.7284 19.9062 14.7126 19.9062ZM10.2028 18.3828L10.7146 15.1766C11.0106 15.2146 11.3123 15.2344 11.6186 15.2344C11.925 15.2344 12.2267 15.2146 12.5227 15.1766L13.0345 18.3828H10.2028ZM17.033 8.37891C17.033 11.319 14.6041 13.7109 11.6186 13.7109C8.63315 13.7109 6.20426 11.319 6.20426 8.37891V4.57031H17.033V8.37891ZM17.033 3.04688H6.20426V1.52344H17.033V3.04688ZM18.5693 9.08614L18.5418 9.09695C18.5669 8.86092 18.5799 8.62139 18.5799 8.37891V4.57031C18.58 3.73029 19.274 3.04688 20.1269 3.04688C20.9799 3.04688 21.6739 3.73029 21.6739 4.57031C21.6739 6.57069 20.4553 8.34326 18.5693 9.08614Z" fill="#3A3A3A"/>
</svg>
