<svg width="56" height="58" viewBox="0 0 56 58" fill="none" xmlns="http://www.w3.org/2000/svg">
<path fill-rule="evenodd" clip-rule="evenodd" d="M27.9335 7.25195C22.3388 7.25195 21.6373 7.27678 19.4401 7.38172C17.2474 7.4864 15.75 7.85096 14.4397 8.38405C13.085 8.93503 11.9362 9.67236 10.7909 10.8711C9.6457 12.07 8.94131 13.2725 8.41495 14.6905C7.90567 16.0621 7.55741 17.6296 7.4574 19.9248C7.35715 22.2248 7.33344 22.9591 7.33344 28.8154C7.33344 34.6717 7.35715 35.406 7.4574 37.706C7.55741 40.0012 7.90567 41.5687 8.41495 42.9403C8.94131 44.3583 9.6457 45.5608 10.7909 46.7597C11.9362 47.9584 13.085 48.6958 14.4397 49.2468C15.75 49.7798 17.2474 50.1444 19.4401 50.2491C21.6373 50.354 22.3388 50.3788 27.9335 50.3788C33.5281 50.3788 34.2296 50.354 36.4268 50.2491C38.6194 50.1444 40.1169 49.7798 41.4272 49.2468C42.7818 48.6958 43.9307 47.9584 45.076 46.7597C46.2212 45.5608 46.9255 44.3583 47.452 42.9403C47.9612 41.5687 48.3095 40.0012 48.4095 37.706C48.5097 35.406 48.5334 34.6717 48.5334 28.8154C48.5334 22.9591 48.5097 22.2248 48.4095 19.9248C48.3095 17.6296 47.9612 16.0621 47.452 14.6905C46.9255 13.2725 46.2212 12.07 45.076 10.8711C43.9307 9.67236 42.7818 8.93503 41.4272 8.38405C40.1169 7.85096 38.6194 7.4864 36.4268 7.38172C34.2296 7.27678 33.5281 7.25195 27.9335 7.25195ZM27.9335 11.1357C33.4338 11.1357 34.0854 11.1577 36.2576 11.2615C38.2661 11.3574 39.3568 11.7086 40.0827 12.0039C41.0443 12.3951 41.7305 12.8624 42.4513 13.617C43.1722 14.3715 43.6186 15.0899 43.9923 16.0964C44.2744 16.8562 44.61 17.998 44.7016 20.1004C44.8007 22.3742 44.8217 23.0562 44.8217 28.8139C44.8217 34.5716 44.8007 35.2536 44.7016 37.5274C44.61 39.6298 44.2744 40.7716 43.9923 41.5314C43.6186 42.5379 43.1722 43.2562 42.4513 44.0108C41.7305 44.7654 41.0443 45.2327 40.0827 45.6238C39.3568 45.9191 38.2661 46.2704 36.2576 46.3663C34.0857 46.47 33.4342 46.492 27.9335 46.492C22.4326 46.492 21.7812 46.47 19.6093 46.3663C17.6008 46.2704 16.51 45.9191 15.7841 45.6238C14.8226 45.2327 14.1363 44.7654 13.4155 44.0108C12.6947 43.2562 12.2482 42.5379 11.8745 41.5314C11.5924 40.7716 11.2568 39.6298 11.1652 37.5274C11.0661 35.2536 11.0451 34.5716 11.0451 28.8139C11.0451 23.0562 11.0661 22.3742 11.1652 20.1004C11.2568 17.998 11.5924 16.8562 11.8745 16.0964C12.2482 15.0899 12.6946 14.3715 13.4155 13.617C14.1363 12.8624 14.8226 12.3951 15.7841 12.0039C16.51 11.7086 17.6008 11.3574 19.6093 11.2615C21.7814 11.1577 22.433 11.1357 27.9335 11.1357ZM17.3552 28.8153C17.3552 22.6998 22.0913 17.7422 27.9336 17.7422C33.7759 17.7422 38.512 22.6998 38.512 28.8153C38.512 34.9309 33.7759 39.8884 27.9336 39.8884C22.0913 39.8884 17.3552 34.9309 17.3552 28.8153ZM27.9336 36.0026C24.1412 36.0026 21.0669 32.7845 21.0669 28.8148C21.0669 24.845 24.1412 21.627 27.9336 21.627C31.7259 21.627 34.8002 24.845 34.8002 28.8148C34.8002 32.7845 31.7259 36.0026 27.9336 36.0026ZM38.9298 19.895C40.2951 19.895 41.4019 18.7365 41.4019 17.3074C41.4019 15.8783 40.2951 14.7197 38.9298 14.7197C37.5647 14.7197 36.4579 15.8783 36.4579 17.3074C36.4579 18.7365 37.5647 19.895 38.9298 19.895Z" fill="white"/>
</svg>
