<svg xmlns="http://www.w3.org/2000/svg" xmlns:xlink="http://www.w3.org/1999/xlink" viewBox="0 0 1476 777"><defs><style>.cls-1{isolation:isolate;}.cls-2{fill:#f4f6f6;}.cls-3{fill:#e1dfef;opacity:0.4;}.cls-3,.cls-4{mix-blend-mode:multiply;}.cls-5,.cls-61,.cls-79{fill:#fff;}.cls-5{opacity:0;}.cls-6{fill:#fefeff;opacity:0.02;}.cls-7{fill:#fdfdfe;opacity:0.04;}.cls-8{fill:#fcfcfe;opacity:0.06;}.cls-9{fill:#fbfbfd;opacity:0.08;}.cls-10{fill:#fafafd;opacity:0.1;}.cls-11{fill:#f9f9fc;opacity:0.12;}.cls-12{fill:#f8f8fc;opacity:0.14;}.cls-13{fill:#f7f7fb;opacity:0.16;}.cls-14{fill:#f6f6fb;opacity:0.18;}.cls-15{fill:#f5f5fa;opacity:0.2;}.cls-16{fill:#f4f4fa;opacity:0.22;}.cls-17{fill:#f3f3f9;opacity:0.24;}.cls-18{fill:#f3f2f9;opacity:0.25;}.cls-19{fill:#f2f1f8;opacity:0.27;}.cls-20{fill:#f1f0f8;opacity:0.29;}.cls-21{fill:#f0eff7;opacity:0.31;}.cls-22{fill:#efeef7;opacity:0.33;}.cls-23{fill:#eeedf7;opacity:0.35;}.cls-24{fill:#edecf6;opacity:0.37;}.cls-25{fill:#ecebf6;opacity:0.39;}.cls-26{fill:#ebeaf5;opacity:0.41;}.cls-27{fill:#eae9f5;opacity:0.43;}.cls-28{fill:#e9e8f4;opacity:0.45;}.cls-29{fill:#e8e7f4;opacity:0.47;}.cls-30{fill:#e7e6f3;opacity:0.49;}.cls-31{fill:#e6e6f3;opacity:0.51;}.cls-32{fill:#e5e5f2;opacity:0.53;}.cls-33{fill:#e4e4f2;opacity:0.55;}.cls-34{fill:#e3e3f1;opacity:0.57;}.cls-35{fill:#e2e2f1;opacity:0.59;}.cls-36{fill:#e1e1f0;opacity:0.61;}.cls-37{fill:#e0e0f0;opacity:0.63;}.cls-38{fill:#dfdfef;opacity:0.65;}.cls-39{fill:#dedeef;opacity:0.67;}.cls-40{fill:#ddddef;opacity:0.69;}.cls-41{fill:#dcdcee;opacity:0.71;}.cls-42{fill:#dbdbee;opacity:0.73;}.cls-43{fill:#dadaed;opacity:0.75;}.cls-44{fill:#dad9ed;opacity:0.76;}.cls-45{fill:#d9d8ec;opacity:0.78;}.cls-46{fill:#d8d7ec;opacity:0.8;}.cls-47{fill:#d7d6eb;opacity:0.82;}.cls-48{fill:#d6d5eb;opacity:0.84;}.cls-49{fill:#d5d4ea;opacity:0.86;}.cls-50{fill:#d4d3ea;opacity:0.88;}.cls-51{fill:#d3d2e9;opacity:0.9;}.cls-52{fill:#d2d1e9;opacity:0.92;}.cls-53{fill:#d1d0e8;opacity:0.94;}.cls-54{fill:#d0cfe8;opacity:0.96;}.cls-55{fill:#cfcee7;opacity:0.98;}.cls-56{fill:#cecde7;}.cls-57{fill:url(#Degradado_sin_nombre_4);}.cls-58,.cls-63,.cls-66,.cls-69,.cls-72,.cls-75,.cls-80{fill:none;}.cls-58,.cls-60,.cls-63,.cls-64,.cls-66,.cls-67,.cls-69,.cls-70,.cls-72,.cls-73,.cls-75,.cls-78{stroke-miterlimit:10;}.cls-58,.cls-63,.cls-66,.cls-69,.cls-72,.cls-75{stroke-width:3.79px;}.cls-58{stroke:url(#Degradado_sin_nombre_4-2);}.cls-59{font-size:19.42px;font-family:Poppins-SemiBold, Poppins;font-weight:600;}.cls-59,.cls-76{fill:#30302f;}.cls-60,.cls-64,.cls-67,.cls-70,.cls-73{stroke:#a588bf;}.cls-60,.cls-64,.cls-67,.cls-70,.cls-73,.cls-78{stroke-width:2.5px;}.cls-60{fill:url(#Degradado_sin_nombre_5);}.cls-62{fill:url(#Degradado_sin_nombre_4-3);}.cls-63{stroke:url(#Degradado_sin_nombre_4-4);}.cls-64{fill:url(#Degradado_sin_nombre_5-2);}.cls-65{fill:url(#Degradado_sin_nombre_4-5);}.cls-66{stroke:url(#Degradado_sin_nombre_4-6);}.cls-67{fill:url(#Degradado_sin_nombre_5-3);}.cls-68{fill:url(#Degradado_sin_nombre_4-7);}.cls-69{stroke:url(#Degradado_sin_nombre_4-8);}.cls-70{fill:url(#Degradado_sin_nombre_5-4);}.cls-71{fill:url(#Degradado_sin_nombre_4-9);}.cls-72{stroke:url(#Degradado_sin_nombre_4-10);}.cls-73{fill:url(#Degradado_sin_nombre_5-5);}.cls-74{fill:url(#Degradado_sin_nombre_4-11);}.cls-75{stroke:url(#Degradado_sin_nombre_4-12);}.cls-76{font-size:25.89px;font-family:Poppins-Bold, Poppins;font-weight:700;}.cls-77{letter-spacing:-0.01em;}.cls-78{stroke:#65c4b3;fill:url(#Degradado_sin_nombre_3);}.cls-79{stroke:#fff;stroke-width:0.45px;}.cls-79,.cls-80{stroke-linecap:round;stroke-linejoin:round;}.cls-80{stroke:#a285bd;stroke-width:6.23px;}</style><linearGradient id="Degradado_sin_nombre_4" x1="205.97" y1="378.06" x2="236.5" y2="487" gradientUnits="userSpaceOnUse"><stop offset="0" stop-color="#d6dcdf"/><stop offset="0.92" stop-color="#fbfcfc"/><stop offset="1" stop-color="#fff"/></linearGradient><linearGradient id="Degradado_sin_nombre_4-2" x1="286.37" y1="561.83" x2="174.06" y2="367.31" xlink:href="#Degradado_sin_nombre_4"/><linearGradient id="Degradado_sin_nombre_5" x1="113.06" y1="435.91" x2="120.68" y2="474.99" gradientTransform="translate(543.05 241.74) rotate(76.65)" gradientUnits="userSpaceOnUse"><stop offset="0" stop-color="#77469a"/><stop offset="1" stop-color="#a285bd"/></linearGradient><linearGradient id="Degradado_sin_nombre_4-3" x1="459.86" y1="542.03" x2="490.39" y2="650.97" xlink:href="#Degradado_sin_nombre_4"/><linearGradient id="Degradado_sin_nombre_4-4" x1="540.26" y1="725.8" x2="427.96" y2="531.28" xlink:href="#Degradado_sin_nombre_4"/><linearGradient id="Degradado_sin_nombre_5-2" x1="366.95" y1="599.88" x2="374.57" y2="638.96" gradientTransform="translate(897.85 120.82) rotate(76.65)" xlink:href="#Degradado_sin_nombre_5"/><linearGradient id="Degradado_sin_nombre_4-5" x1="713.75" y1="388.44" x2="744.29" y2="497.38" xlink:href="#Degradado_sin_nombre_4"/><linearGradient id="Degradado_sin_nombre_4-6" x1="794.15" y1="572.21" x2="681.85" y2="377.7" xlink:href="#Degradado_sin_nombre_4"/><linearGradient id="Degradado_sin_nombre_5-3" x1="620.85" y1="446.29" x2="628.46" y2="485.38" gradientTransform="translate(943.69 -244.33) rotate(76.65)" xlink:href="#Degradado_sin_nombre_5"/><linearGradient id="Degradado_sin_nombre_4-7" x1="967.65" y1="549.06" x2="998.18" y2="658" xlink:href="#Degradado_sin_nombre_4"/><linearGradient id="Degradado_sin_nombre_4-8" x1="1048.04" y1="732.83" x2="935.74" y2="538.31" xlink:href="#Degradado_sin_nombre_4"/><linearGradient id="Degradado_sin_nombre_5-4" x1="874.74" y1="606.91" x2="882.36" y2="645.99" gradientTransform="translate(1295.22 -367.84) rotate(76.65)" xlink:href="#Degradado_sin_nombre_5"/><linearGradient id="Degradado_sin_nombre_4-9" x1="1221.54" y1="385.42" x2="1252.07" y2="494.36" xlink:href="#Degradado_sin_nombre_4"/><linearGradient id="Degradado_sin_nombre_4-10" x1="1301.94" y1="569.19" x2="1189.63" y2="374.67" xlink:href="#Degradado_sin_nombre_4"/><linearGradient id="Degradado_sin_nombre_5-5" x1="1128.63" y1="443.27" x2="1136.25" y2="482.36" gradientTransform="translate(1331.27 -740.72) rotate(76.65)" xlink:href="#Degradado_sin_nombre_5"/><linearGradient id="Degradado_sin_nombre_4-11" x1="677.06" y1="62.82" x2="795.95" y2="346.34" xlink:href="#Degradado_sin_nombre_4"/><linearGradient id="Degradado_sin_nombre_4-12" x1="814.16" y1="340.17" x2="662.2" y2="76.97" xlink:href="#Degradado_sin_nombre_4"/><linearGradient id="Degradado_sin_nombre_3" x1="732.41" y1="118.56" x2="741.07" y2="163" gradientUnits="userSpaceOnUse"><stop offset="0" stop-color="#1eb79d"/><stop offset="1" stop-color="#6bc6b7"/></linearGradient></defs><title>SM PostArtboard 4</title><g class="cls-1"><g id="Layer_1" data-name="Layer 1"><rect class="cls-2" width="1476" height="777"/><rect class="cls-3" x="59.83" y="417.12" width="340.77" height="94.91" rx="15"/><g class="cls-4"><ellipse class="cls-5" cx="230.22" cy="481.79" rx="156.07" ry="50.62"/><ellipse class="cls-6" cx="230.22" cy="481.57" rx="155.11" ry="50.31"/><ellipse class="cls-7" cx="230.22" cy="481.35" rx="154.16" ry="50"/><ellipse class="cls-8" cx="230.22" cy="481.13" rx="153.21" ry="49.69"/><ellipse class="cls-9" cx="230.22" cy="480.91" rx="152.25" ry="49.38"/><ellipse class="cls-10" cx="230.22" cy="480.69" rx="151.3" ry="49.07"/><ellipse class="cls-11" cx="230.22" cy="480.47" rx="150.35" ry="48.76"/><ellipse class="cls-12" cx="230.22" cy="480.25" rx="149.39" ry="48.45"/><ellipse class="cls-13" cx="230.22" cy="480.03" rx="148.44" ry="48.14"/><ellipse class="cls-14" cx="230.22" cy="479.81" rx="147.48" ry="47.83"/><ellipse class="cls-15" cx="230.22" cy="479.59" rx="146.53" ry="47.52"/><ellipse class="cls-16" cx="230.22" cy="479.37" rx="145.58" ry="47.21"/><ellipse class="cls-17" cx="230.22" cy="479.15" rx="144.62" ry="46.9"/><ellipse class="cls-18" cx="230.22" cy="478.93" rx="143.67" ry="46.6"/><ellipse class="cls-19" cx="230.22" cy="478.71" rx="142.72" ry="46.29"/><ellipse class="cls-20" cx="230.22" cy="478.49" rx="141.76" ry="45.98"/><ellipse class="cls-21" cx="230.22" cy="478.27" rx="140.81" ry="45.67"/><ellipse class="cls-22" cx="230.22" cy="478.05" rx="139.85" ry="45.36"/><ellipse class="cls-23" cx="230.22" cy="477.83" rx="138.9" ry="45.05"/><ellipse class="cls-24" cx="230.22" cy="477.61" rx="137.95" ry="44.74"/><ellipse class="cls-25" cx="230.22" cy="477.39" rx="136.99" ry="44.43"/><ellipse class="cls-26" cx="230.22" cy="477.17" rx="136.04" ry="44.12"/><ellipse class="cls-27" cx="230.22" cy="476.95" rx="135.09" ry="43.81"/><ellipse class="cls-28" cx="230.22" cy="476.73" rx="134.13" ry="43.5"/><ellipse class="cls-29" cx="230.22" cy="476.51" rx="133.18" ry="43.19"/><ellipse class="cls-30" cx="230.22" cy="476.29" rx="132.23" ry="42.88"/><ellipse class="cls-31" cx="230.22" cy="476.07" rx="131.27" ry="42.57"/><ellipse class="cls-32" cx="230.22" cy="475.85" rx="130.32" ry="42.27"/><ellipse class="cls-33" cx="230.22" cy="475.63" rx="129.36" ry="41.96"/><ellipse class="cls-34" cx="230.22" cy="475.41" rx="128.41" ry="41.65"/><ellipse class="cls-35" cx="230.22" cy="475.19" rx="127.46" ry="41.34"/><ellipse class="cls-36" cx="230.22" cy="474.97" rx="126.5" ry="41.03"/><ellipse class="cls-37" cx="230.22" cy="474.75" rx="125.55" ry="40.72"/><ellipse class="cls-38" cx="230.22" cy="474.53" rx="124.6" ry="40.41"/><ellipse class="cls-39" cx="230.22" cy="474.31" rx="123.64" ry="40.1"/><ellipse class="cls-40" cx="230.22" cy="474.09" rx="122.69" ry="39.79"/><ellipse class="cls-41" cx="230.22" cy="473.87" rx="121.73" ry="39.48"/><ellipse class="cls-42" cx="230.22" cy="473.65" rx="120.78" ry="39.17"/><ellipse class="cls-43" cx="230.22" cy="473.43" rx="119.83" ry="38.86"/><ellipse class="cls-44" cx="230.22" cy="473.21" rx="118.87" ry="38.55"/><ellipse class="cls-45" cx="230.22" cy="472.99" rx="117.92" ry="38.24"/><ellipse class="cls-46" cx="230.22" cy="472.77" rx="116.97" ry="37.93"/><ellipse class="cls-47" cx="230.22" cy="472.55" rx="116.01" ry="37.63"/><ellipse class="cls-48" cx="230.22" cy="472.33" rx="115.06" ry="37.32"/><ellipse class="cls-49" cx="230.22" cy="472.11" rx="114.1" ry="37.01"/><ellipse class="cls-50" cx="230.22" cy="471.89" rx="113.15" ry="36.7"/><ellipse class="cls-51" cx="230.22" cy="471.67" rx="112.2" ry="36.39"/><ellipse class="cls-52" cx="230.22" cy="471.45" rx="111.24" ry="36.08"/><ellipse class="cls-53" cx="230.22" cy="471.23" rx="110.29" ry="35.77"/><ellipse class="cls-54" cx="230.22" cy="471.01" rx="109.34" ry="35.46"/><ellipse class="cls-55" cx="230.22" cy="470.79" rx="108.38" ry="35.15"/><ellipse class="cls-56" cx="230.22" cy="470.57" rx="107.43" ry="34.84"/></g><rect class="cls-57" x="67.82" y="424.5" width="324.79" height="80.14" rx="15"/><rect class="cls-58" x="67.82" y="424.5" width="324.79" height="80.14" rx="15"/><text class="cls-59" transform="translate(167.17 461.9)">PLANNING <tspan x="0" y="23.3">LAUNCH STRATEGY</tspan></text><g class="cls-4"><circle class="cls-5" cx="118.14" cy="478.83" r="27.82" transform="translate(-172.88 80.66) rotate(-22.3)"/><circle class="cls-6" cx="118.14" cy="478.66" r="27.61" transform="translate(-171.85 79.94) rotate(-22.16)"/><circle class="cls-7" cx="118.14" cy="478.49" r="27.39" transform="translate(-170.79 79.21) rotate(-22.02)"/><circle class="cls-8" cx="118.14" cy="478.32" r="27.18" transform="translate(-169.71 78.45) rotate(-21.87)"/><circle class="cls-9" cx="118.14" cy="478.16" r="26.96" transform="translate(-168.58 77.68) rotate(-21.72)"/><circle class="cls-10" cx="118.14" cy="477.99" r="26.74" transform="translate(-167.43 76.89) rotate(-21.57)"/><circle class="cls-11" cx="118.14" cy="477.82" r="26.53" transform="translate(-166.23 76.07) rotate(-21.4)"/><circle class="cls-12" cx="118.14" cy="477.66" r="26.31" transform="translate(-165 75.23) rotate(-21.24)"/><circle class="cls-13" cx="118.14" cy="477.49" r="26.1" transform="translate(-163.73 74.37) rotate(-21.07)"/><circle class="cls-14" cx="118.14" cy="477.32" r="25.88" transform="translate(-162.41 73.49) rotate(-20.89)"/><circle class="cls-15" cx="118.14" cy="477.15" r="25.66" transform="translate(-161.06 72.58) rotate(-20.7)"/><circle class="cls-16" cx="118.14" cy="476.99" r="25.45" transform="translate(-159.65 71.64) rotate(-20.51)"/><circle class="cls-17" cx="118.14" cy="476.82" r="25.23" transform="translate(-158.19 70.67) rotate(-20.31)"/><circle class="cls-18" cx="118.14" cy="476.65" r="25.02" transform="translate(-156.69 69.68) rotate(-20.11)"/><circle class="cls-19" cx="118.14" cy="476.49" r="24.8" transform="translate(-155.12 68.66) rotate(-19.9)"/><circle class="cls-20" cx="118.14" cy="476.32" r="24.58" transform="translate(-153.5 67.61) rotate(-19.68)"/><circle class="cls-21" cx="118.14" cy="476.15" r="24.37" transform="translate(-151.82 66.52) rotate(-19.45)"/><circle class="cls-22" cx="118.14" cy="475.99" r="24.15" transform="translate(-150.08 65.4) rotate(-19.22)"/><circle class="cls-23" cx="118.14" cy="475.82" r="23.94" transform="translate(-148.26 64.25) rotate(-18.97)"/><circle class="cls-24" cx="118.14" cy="475.65" r="23.72" transform="translate(-146.38 63.06) rotate(-18.72)"/><circle class="cls-25" cx="118.14" cy="475.48" r="23.5" transform="translate(-144.41 61.83) rotate(-18.45)"/><circle class="cls-26" cx="118.14" cy="475.32" r="23.29" transform="translate(-142.37 60.56) rotate(-18.18)"/><circle class="cls-27" cx="118.14" cy="475.15" r="23.07" transform="translate(-140.24 59.26) rotate(-17.89)"/><circle class="cls-28" cx="118.14" cy="474.98" r="22.86" transform="translate(-138.01 57.91) rotate(-17.59)"/><circle class="cls-29" cx="118.14" cy="474.82" r="22.64" transform="translate(-135.7 56.52) rotate(-17.28)"/><circle class="cls-30" cx="118.14" cy="474.65" r="22.42" transform="translate(-133.27 55.08) rotate(-16.95)"/><circle class="cls-31" cx="118.14" cy="474.48" r="22.21" transform="translate(-130.74 53.59) rotate(-16.62)"/><circle class="cls-32" cx="118.14" cy="474.32" r="21.99" transform="translate(-128.09 52.06) rotate(-16.26)"/><circle class="cls-33" cx="118.14" cy="474.15" r="21.78" transform="translate(-125.32 50.47) rotate(-15.89)"/><circle class="cls-34" cx="118.14" cy="473.98" r="21.56" transform="translate(-122.41 48.83) rotate(-15.51)"/><circle class="cls-35" cx="118.14" cy="473.81" r="21.34" transform="translate(-119.37 47.14) rotate(-15.1)"/><circle class="cls-36" cx="118.14" cy="473.65" r="21.13" transform="translate(-116.17 45.4) rotate(-14.68)"/><circle class="cls-37" cx="118.14" cy="473.48" r="20.91" transform="translate(-112.81 43.59) rotate(-14.24)"/><circle class="cls-38" cx="118.14" cy="473.31" r="20.7" transform="translate(-109.28 41.73) rotate(-13.77)"/><circle class="cls-39" cx="118.14" cy="473.15" r="20.48" transform="translate(-105.57 39.81) rotate(-13.29)"/><circle class="cls-40" cx="118.14" cy="472.98" r="20.26" transform="translate(-101.66 37.83) rotate(-12.77)"/><circle class="cls-41" cx="118.14" cy="472.81" r="20.05" transform="translate(-97.54 35.79) rotate(-12.24)"/><circle class="cls-42" cx="118.14" cy="472.65" r="19.83" transform="translate(-93.2 33.69) rotate(-11.68)"/><circle class="cls-43" cx="118.14" cy="472.48" r="19.62" transform="translate(-88.62 31.52) rotate(-11.08)"/><circle class="cls-44" cx="118.14" cy="472.31" r="19.4" transform="translate(-83.8 29.3) rotate(-10.46)"/><circle class="cls-45" cx="118.14" cy="472.14" r="19.18" transform="translate(-78.7 27.02) rotate(-9.81)"/><circle class="cls-46" cx="118.14" cy="471.98" r="18.97" transform="matrix(0.99, -0.16, 0.16, 0.99, -73.31, 24.69)"/><circle class="cls-47" cx="118.14" cy="471.81" r="18.75" transform="translate(-67.63 22.31) rotate(-8.4)"/><circle class="cls-48" cx="118.14" cy="471.64" r="18.53" transform="translate(-61.62 19.88) rotate(-7.64)"/><circle class="cls-49" cx="118.14" cy="471.48" r="18.32" transform="translate(-55.27 17.41) rotate(-6.83)"/><circle class="cls-50" cx="118.14" cy="471.31" r="18.1" transform="translate(-48.56 14.91) rotate(-5.99)"/><circle class="cls-51" cx="118.14" cy="471.14" r="17.89" transform="translate(-41.48 12.39) rotate(-5.11)"/><circle class="cls-52" cx="118.14" cy="470.98" r="17.67" transform="translate(-34.02 9.86) rotate(-4.18)"/><circle class="cls-53" cx="118.14" cy="470.81" r="17.45" transform="translate(-26.14 7.34) rotate(-3.21)"/><circle class="cls-54" cx="118.14" cy="470.64" r="17.24" transform="translate(-17.85 4.85) rotate(-2.18)"/><circle class="cls-55" cx="118.14" cy="470.47" r="17.02" transform="translate(-9.14 2.39) rotate(-1.12)"/><circle class="cls-56" cx="118.14" cy="470.31" r="16.81"/></g><circle class="cls-60" cx="118.61" cy="464.38" r="23.85" transform="translate(-360.61 472.55) rotate(-76.65)"/><path class="cls-61" d="M127.43,463.22a8.45,8.45,0,0,1,0,2.32,2.16,2.16,0,0,0,1.07,2.15l1,.57a.48.48,0,0,1,.22.28.5.5,0,0,1,0,.36l-1.6,2.78a.49.49,0,0,1-.29.22.5.5,0,0,1-.36,0l-1-.56a2.15,2.15,0,0,0-2.39.15,9.21,9.21,0,0,1-2,1.16,2.16,2.16,0,0,0-1.32,2v1.13a.47.47,0,0,1-.47.47H117a.47.47,0,0,1-.47-.47V474.6a2.16,2.16,0,0,0-1.33-2,8.76,8.76,0,0,1-2-1.16,2.14,2.14,0,0,0-1.31-.45,2.25,2.25,0,0,0-1.09.29l-1,.57a.48.48,0,0,1-.35,0,.44.44,0,0,1-.29-.22l-1.61-2.78a.47.47,0,0,1,.18-.64l1-.57a2.14,2.14,0,0,0,1.06-2.15,9.65,9.65,0,0,1,0-2.32,2.14,2.14,0,0,0-1.06-2.15l-1-.57a.44.44,0,0,1-.22-.28.5.5,0,0,1,0-.36l1.61-2.78a.44.44,0,0,1,.29-.22.48.48,0,0,1,.35.05l1,.56a2.17,2.17,0,0,0,2.4-.15l.1-.07a.86.86,0,0,0,.29-.21,8.47,8.47,0,0,1,1.62-.88,2.16,2.16,0,0,0,1.33-2V453a.47.47,0,0,1,.47-.47h3.21a.47.47,0,0,1,.47.47v1.13a2.16,2.16,0,0,0,1.32,2,8.82,8.82,0,0,1,2,1.16,2.15,2.15,0,0,0,2.39.16l1-.57a.5.5,0,0,1,.36-.05.49.49,0,0,1,.29.22l1.6,2.78a.47.47,0,0,1-.17.64l-1,.57A2.16,2.16,0,0,0,127.43,463.22Zm-8,14.67h.76a2.16,2.16,0,0,0,2.16-2.16V474.6a.46.46,0,0,1,.28-.43,10.65,10.65,0,0,0,2.4-1.39.47.47,0,0,1,.51,0l1,.57a2.15,2.15,0,0,0,2.95-.79l1.61-2.78a2.21,2.21,0,0,0,.22-1.65,2.17,2.17,0,0,0-1-1.31l-1-.57a.46.46,0,0,1-.24-.46,10.62,10.62,0,0,0,0-2.76.47.47,0,0,1,.23-.46l1-.57a2.17,2.17,0,0,0,.79-3l-1.61-2.78a2.15,2.15,0,0,0-2.95-.79l-.32.18a1.45,1.45,0,0,1-1.69,0,10.79,10.79,0,0,0-1.89-1,.46.46,0,0,1-.28-.43V453a2.16,2.16,0,0,0-2.16-2.16H117a2.17,2.17,0,0,0-2.17,2.16v1.13a.46.46,0,0,1-.28.43c-.25.11-.5.22-.75.35l-1.7,1.07a.47.47,0,0,1-.46,0l-1-.57a2.14,2.14,0,0,0-1.64-.22,2.17,2.17,0,0,0-1.32,1l-1.6,2.78a2.16,2.16,0,0,0,.79,3l1,.57a.45.45,0,0,1,.23.46,10.62,10.62,0,0,0,0,2.76.44.44,0,0,1-.23.46l-1,.57a2.16,2.16,0,0,0-.79,3l1.6,2.78a2.17,2.17,0,0,0,1.32,1,2.14,2.14,0,0,0,1.64-.22l1-.57a.49.49,0,0,1,.52,0,10.58,10.58,0,0,0,2.39,1.39.46.46,0,0,1,.28.43v1.13a2.17,2.17,0,0,0,2.17,2.16h2.45Z"/><path class="cls-61" d="M118.1,461.91h-1.28v-2.06h3.58v9.44h-2.3Z"/><rect class="cls-3" x="313.72" y="581.09" width="340.77" height="94.91" rx="15"/><g class="cls-4"><ellipse class="cls-5" cx="484.11" cy="645.76" rx="156.07" ry="50.62"/><ellipse class="cls-6" cx="484.11" cy="645.54" rx="155.11" ry="50.31"/><ellipse class="cls-7" cx="484.11" cy="645.32" rx="154.16" ry="50"/><ellipse class="cls-8" cx="484.11" cy="645.1" rx="153.21" ry="49.69"/><ellipse class="cls-9" cx="484.11" cy="644.88" rx="152.25" ry="49.38"/><ellipse class="cls-10" cx="484.11" cy="644.66" rx="151.3" ry="49.07"/><ellipse class="cls-11" cx="484.11" cy="644.44" rx="150.35" ry="48.76"/><ellipse class="cls-12" cx="484.11" cy="644.22" rx="149.39" ry="48.45"/><ellipse class="cls-13" cx="484.11" cy="644" rx="148.44" ry="48.14"/><ellipse class="cls-14" cx="484.11" cy="643.78" rx="147.48" ry="47.83"/><ellipse class="cls-15" cx="484.11" cy="643.56" rx="146.53" ry="47.52"/><ellipse class="cls-16" cx="484.11" cy="643.34" rx="145.58" ry="47.21"/><ellipse class="cls-17" cx="484.11" cy="643.12" rx="144.62" ry="46.9"/><ellipse class="cls-18" cx="484.11" cy="642.9" rx="143.67" ry="46.6"/><ellipse class="cls-19" cx="484.11" cy="642.68" rx="142.72" ry="46.29"/><ellipse class="cls-20" cx="484.11" cy="642.46" rx="141.76" ry="45.98"/><ellipse class="cls-21" cx="484.11" cy="642.24" rx="140.81" ry="45.67"/><ellipse class="cls-22" cx="484.11" cy="642.02" rx="139.85" ry="45.36"/><ellipse class="cls-23" cx="484.11" cy="641.8" rx="138.9" ry="45.05"/><ellipse class="cls-24" cx="484.11" cy="641.58" rx="137.95" ry="44.74"/><ellipse class="cls-25" cx="484.11" cy="641.36" rx="136.99" ry="44.43"/><ellipse class="cls-26" cx="484.11" cy="641.14" rx="136.04" ry="44.12"/><ellipse class="cls-27" cx="484.11" cy="640.92" rx="135.09" ry="43.81"/><ellipse class="cls-28" cx="484.11" cy="640.7" rx="134.13" ry="43.5"/><ellipse class="cls-29" cx="484.11" cy="640.48" rx="133.18" ry="43.19"/><ellipse class="cls-30" cx="484.11" cy="640.26" rx="132.23" ry="42.88"/><ellipse class="cls-31" cx="484.11" cy="640.04" rx="131.27" ry="42.57"/><ellipse class="cls-32" cx="484.11" cy="639.82" rx="130.32" ry="42.27"/><ellipse class="cls-33" cx="484.11" cy="639.6" rx="129.36" ry="41.96"/><ellipse class="cls-34" cx="484.11" cy="639.38" rx="128.41" ry="41.65"/><ellipse class="cls-35" cx="484.11" cy="639.16" rx="127.46" ry="41.34"/><ellipse class="cls-36" cx="484.11" cy="638.94" rx="126.5" ry="41.03"/><ellipse class="cls-37" cx="484.11" cy="638.72" rx="125.55" ry="40.72"/><ellipse class="cls-38" cx="484.11" cy="638.5" rx="124.6" ry="40.41"/><ellipse class="cls-39" cx="484.11" cy="638.28" rx="123.64" ry="40.1"/><ellipse class="cls-40" cx="484.11" cy="638.06" rx="122.69" ry="39.79"/><ellipse class="cls-41" cx="484.11" cy="637.84" rx="121.73" ry="39.48"/><ellipse class="cls-42" cx="484.11" cy="637.62" rx="120.78" ry="39.17"/><ellipse class="cls-43" cx="484.11" cy="637.4" rx="119.83" ry="38.86"/><ellipse class="cls-44" cx="484.11" cy="637.18" rx="118.87" ry="38.55"/><ellipse class="cls-45" cx="484.11" cy="636.96" rx="117.92" ry="38.24"/><ellipse class="cls-46" cx="484.11" cy="636.74" rx="116.97" ry="37.93"/><ellipse class="cls-47" cx="484.11" cy="636.52" rx="116.01" ry="37.63"/><ellipse class="cls-48" cx="484.11" cy="636.3" rx="115.06" ry="37.32"/><ellipse class="cls-49" cx="484.11" cy="636.08" rx="114.1" ry="37.01"/><ellipse class="cls-50" cx="484.11" cy="635.86" rx="113.15" ry="36.7"/><ellipse class="cls-51" cx="484.11" cy="635.64" rx="112.2" ry="36.39"/><ellipse class="cls-52" cx="484.11" cy="635.42" rx="111.24" ry="36.08"/><ellipse class="cls-53" cx="484.11" cy="635.2" rx="110.29" ry="35.77"/><ellipse class="cls-54" cx="484.11" cy="634.98" rx="109.34" ry="35.46"/><ellipse class="cls-55" cx="484.11" cy="634.76" rx="108.38" ry="35.15"/><ellipse class="cls-56" cx="484.11" cy="634.54" rx="107.43" ry="34.84"/></g><rect class="cls-62" x="321.71" y="588.47" width="324.79" height="80.14" rx="15"/><rect class="cls-63" x="321.71" y="588.47" width="324.79" height="80.14" rx="15"/><text class="cls-59" transform="translate(424.05 624.37)">PRE-ENGAGING <tspan x="0" y="23.3">WITH THE PUBLIC</tspan></text><g class="cls-4"><circle class="cls-5" cx="372.03" cy="642.79" r="27.82" transform="translate(-216.11 189.27) rotate(-22.3)"/><circle class="cls-6" cx="372.03" cy="642.63" r="27.61" transform="translate(-214.95 187.84) rotate(-22.16)"/><circle class="cls-7" cx="372.03" cy="642.46" r="27.39" transform="translate(-213.75 186.37) rotate(-22.02)"/><circle class="cls-8" cx="372.03" cy="642.29" r="27.18" transform="translate(-212.52 184.85) rotate(-21.87)"/><circle class="cls-9" cx="372.03" cy="642.13" r="26.96" transform="translate(-211.24 183.29) rotate(-21.72)"/><circle class="cls-10" cx="372.03" cy="641.96" r="26.74" transform="translate(-209.92 181.69) rotate(-21.57)"/><circle class="cls-11" cx="372.03" cy="641.79" r="26.53" transform="translate(-208.56 180.04) rotate(-21.4)"/><circle class="cls-12" cx="372.03" cy="641.62" r="26.31" transform="translate(-207.15 178.34) rotate(-21.24)"/><circle class="cls-13" cx="372.03" cy="641.46" r="26.1" transform="translate(-205.7 176.59) rotate(-21.07)"/><circle class="cls-14" cx="372.03" cy="641.29" r="25.88" transform="translate(-204.19 174.78) rotate(-20.89)"/><circle class="cls-15" cx="372.03" cy="641.12" r="25.66" transform="translate(-202.63 172.92) rotate(-20.7)"/><circle class="cls-16" cx="372.03" cy="640.96" r="25.45" transform="translate(-201.01 171) rotate(-20.51)"/><circle class="cls-17" cx="372.03" cy="640.79" r="25.23" transform="translate(-199.33 169.02) rotate(-20.31)"/><circle class="cls-18" cx="372.03" cy="640.62" r="25.02" transform="translate(-197.58 166.97) rotate(-20.11)"/><circle class="cls-19" cx="372.03" cy="640.46" r="24.8" transform="translate(-195.77 164.86) rotate(-19.9)"/><circle class="cls-20" cx="372.03" cy="640.29" r="24.58" transform="translate(-193.89 162.68) rotate(-19.68)"/><circle class="cls-21" cx="372.03" cy="640.12" r="24.37" transform="translate(-191.93 160.43) rotate(-19.45)"/><circle class="cls-22" cx="372.03" cy="639.95" r="24.15" transform="translate(-189.9 158.1) rotate(-19.22)"/><circle class="cls-23" cx="372.03" cy="639.79" r="23.94" transform="matrix(0.95, -0.33, 0.33, 0.95, -187.78, 155.69)"/><circle class="cls-24" cx="372.03" cy="639.62" r="23.72" transform="translate(-185.56 153.19) rotate(-18.72)"/><circle class="cls-25" cx="372.03" cy="639.45" r="23.5" transform="translate(-183.26 150.61) rotate(-18.45)"/><circle class="cls-26" cx="372.03" cy="639.29" r="23.29" transform="translate(-180.85 147.94) rotate(-18.18)"/><circle class="cls-27" cx="372.03" cy="639.12" r="23.07" transform="translate(-178.33 145.17) rotate(-17.89)"/><circle class="cls-28" cx="372.03" cy="638.95" r="22.86" transform="translate(-175.69 142.3) rotate(-17.59)"/><circle class="cls-29" cx="372.03" cy="638.79" r="22.64" transform="translate(-172.94 139.32) rotate(-17.28)"/><circle class="cls-30" cx="372.03" cy="638.62" r="22.42" transform="translate(-170.05 136.24) rotate(-16.95)"/><circle class="cls-31" cx="372.03" cy="638.45" r="22.21" transform="translate(-167.03 133.04) rotate(-16.62)"/><circle class="cls-32" cx="372.03" cy="638.28" r="21.99" transform="translate(-163.85 129.71) rotate(-16.26)"/><circle class="cls-33" cx="372.03" cy="638.12" r="21.78" transform="translate(-160.51 126.26) rotate(-15.89)"/><circle class="cls-34" cx="372.03" cy="637.95" r="21.56" transform="translate(-157.01 122.68) rotate(-15.51)"/><circle class="cls-35" cx="372.03" cy="637.78" r="21.34" transform="translate(-153.32 118.95) rotate(-15.1)"/><circle class="cls-36" cx="372.03" cy="637.62" r="21.13" transform="translate(-149.43 115.08) rotate(-14.68)"/><circle class="cls-37" cx="372.03" cy="637.45" r="20.91" transform="translate(-145.34 111.06) rotate(-14.24)"/><circle class="cls-38" cx="372.03" cy="637.28" r="20.7" transform="translate(-141.01 106.89) rotate(-13.77)"/><circle class="cls-39" cx="372.03" cy="637.12" r="20.48" transform="translate(-136.45 102.54) rotate(-13.29)"/><circle class="cls-40" cx="372.03" cy="636.95" r="20.26" transform="translate(-131.63 98.03) rotate(-12.77)"/><circle class="cls-41" cx="372.03" cy="636.78" r="20.05" transform="translate(-126.53 93.33) rotate(-12.24)"/><circle class="cls-42" cx="372.03" cy="636.61" r="19.83" transform="translate(-121.13 88.46) rotate(-11.68)"/><circle class="cls-43" cx="372.03" cy="636.45" r="19.62" transform="translate(-115.41 83.39) rotate(-11.08)"/><circle class="cls-44" cx="372.03" cy="636.28" r="19.4" transform="translate(-109.35 78.13) rotate(-10.46)"/><circle class="cls-45" cx="372.03" cy="636.11" r="19.18" transform="matrix(0.99, -0.17, 0.17, 0.99, -102.92, 72.67)"/><circle class="cls-46" cx="372.03" cy="635.95" r="18.97" transform="translate(-96.09 67) rotate(-9.12)"/><circle class="cls-47" cx="372.03" cy="635.78" r="18.75" transform="translate(-88.85 61.14) rotate(-8.4)"/><circle class="cls-48" cx="372.03" cy="635.61" r="18.53" transform="translate(-81.15 55.06) rotate(-7.64)"/><circle class="cls-49" cx="372.03" cy="635.45" r="18.32" transform="translate(-72.98 48.79) rotate(-6.83)"/><circle class="cls-50" cx="372.03" cy="635.28" r="18.1" transform="translate(-64.3 42.32) rotate(-5.99)"/><circle class="cls-51" cx="372.03" cy="635.11" r="17.89" transform="translate(-55.08 35.65) rotate(-5.11)"/><circle class="cls-52" cx="372.03" cy="634.94" r="17.67" transform="matrix(1, -0.07, 0.07, 1, -45.29, 28.81)"/><circle class="cls-53" cx="372.03" cy="634.78" r="17.45" transform="translate(-34.91 21.8) rotate(-3.21)"/><circle class="cls-54" cx="372.03" cy="634.61" r="17.24" transform="translate(-23.92 14.64) rotate(-2.18)"/><circle class="cls-55" cx="372.03" cy="634.44" r="17.02" transform="translate(-12.29 7.37) rotate(-1.12)"/><circle class="cls-56" cx="372.03" cy="634.28" r="16.81"/></g><circle class="cls-64" cx="372.5" cy="628.35" r="23.85" transform="translate(-324.88 845.69) rotate(-76.65)"/><path class="cls-61" d="M369.27,631.66c2-1.66,4.14-3.3,4.14-4.89,0-.69-.31-1.13-1-1.13s-1.05.52-1.05,1.41h-2.14a3.08,3.08,0,0,1,3.28-3.27c2.14,0,3.1,1.25,3.1,2.84,0,2.07-1.85,3.73-3.35,4.88h3.49v1.8h-6.49Z"/><path class="cls-61" d="M381.32,627.19a8.45,8.45,0,0,1,0,2.32,2.16,2.16,0,0,0,1.07,2.15l1,.57a.44.44,0,0,1,.22.28.46.46,0,0,1,0,.36l-1.6,2.78a.49.49,0,0,1-.29.22.5.5,0,0,1-.36,0l-1-.57a2.13,2.13,0,0,0-2.39.16,9.38,9.38,0,0,1-2,1.16,2.15,2.15,0,0,0-1.33,2v1.13a.47.47,0,0,1-.47.47H370.9a.47.47,0,0,1-.47-.47v-1.13a2.16,2.16,0,0,0-1.33-2,9.38,9.38,0,0,1-2-1.16,2.12,2.12,0,0,0-1.31-.45,2.19,2.19,0,0,0-1.08.29l-1,.57a.48.48,0,0,1-.35,0,.46.46,0,0,1-.29-.22l-1.6-2.78a.46.46,0,0,1,.17-.64l1-.57a2.14,2.14,0,0,0,1.06-2.15,9.65,9.65,0,0,1,0-2.32,2.14,2.14,0,0,0-1.06-2.15l-1-.57a.44.44,0,0,1-.22-.28.46.46,0,0,1,.05-.36l1.6-2.78a.46.46,0,0,1,.29-.22.43.43,0,0,1,.35,0l1,.56a2.15,2.15,0,0,0,2.39-.15l.1-.07a.86.86,0,0,0,.29-.21,8.47,8.47,0,0,1,1.62-.88,2.16,2.16,0,0,0,1.33-2V617a.47.47,0,0,1,.47-.47h3.21a.47.47,0,0,1,.47.47v1.13a2.16,2.16,0,0,0,1.33,2,9,9,0,0,1,2,1.16,2.15,2.15,0,0,0,2.39.15l1-.56a.43.43,0,0,1,.35,0,.49.49,0,0,1,.29.22l1.6,2.78a.47.47,0,0,1-.17.64l-1,.57A2.16,2.16,0,0,0,381.32,627.19Zm-8,14.67h.76a2.16,2.16,0,0,0,2.16-2.16v-1.13a.46.46,0,0,1,.28-.43,10.43,10.43,0,0,0,2.4-1.39.49.49,0,0,1,.52,0l1,.57a2.19,2.19,0,0,0,3-.79l1.6-2.78a2.17,2.17,0,0,0,.22-1.65,2.15,2.15,0,0,0-1-1.31l-1-.57a.44.44,0,0,1-.23-.46,12.62,12.62,0,0,0,.09-1.38A10.55,10.55,0,0,0,383,627a.46.46,0,0,1,.24-.46l1-.57a2.17,2.17,0,0,0,.79-3l-1.6-2.78a2.17,2.17,0,0,0-1.32-1,2.14,2.14,0,0,0-1.64.22l-.32.18a1.45,1.45,0,0,1-1.69,0,10.16,10.16,0,0,0-1.89-1,.46.46,0,0,1-.28-.43V617a2.17,2.17,0,0,0-2.16-2.17H370.9a2.18,2.18,0,0,0-2.17,2.17v1.13a.46.46,0,0,1-.28.43c-.25.11-.5.22-.75.35L366,620a.49.49,0,0,1-.47,0l-1-.57a2.14,2.14,0,0,0-1.64-.22,2.17,2.17,0,0,0-1.32,1L360,623a2.16,2.16,0,0,0,.79,3l1,.57a.44.44,0,0,1,.23.46,10.54,10.54,0,0,0-.09,1.38,10.66,10.66,0,0,0,.09,1.38.44.44,0,0,1-.23.46l-1,.57a2.17,2.17,0,0,0-.79,3l1.6,2.78a2.19,2.19,0,0,0,3,.79l1-.57a.49.49,0,0,1,.52,0,10.58,10.58,0,0,0,2.39,1.39.46.46,0,0,1,.28.43v1.13a2.17,2.17,0,0,0,2.17,2.16h2.45Z"/><rect class="cls-3" x="567.61" y="427.5" width="340.77" height="94.91" rx="15"/><g class="cls-4"><ellipse class="cls-5" cx="738" cy="492.18" rx="156.07" ry="50.62"/><ellipse class="cls-6" cx="738" cy="491.96" rx="155.11" ry="50.31"/><ellipse class="cls-7" cx="738" cy="491.74" rx="154.16" ry="50"/><ellipse class="cls-8" cx="738" cy="491.52" rx="153.21" ry="49.69"/><ellipse class="cls-9" cx="738" cy="491.3" rx="152.25" ry="49.38"/><ellipse class="cls-10" cx="738" cy="491.08" rx="151.3" ry="49.07"/><ellipse class="cls-11" cx="738" cy="490.86" rx="150.35" ry="48.76"/><ellipse class="cls-12" cx="738" cy="490.64" rx="149.39" ry="48.45"/><ellipse class="cls-13" cx="738" cy="490.42" rx="148.44" ry="48.14"/><ellipse class="cls-14" cx="738" cy="490.2" rx="147.48" ry="47.83"/><ellipse class="cls-15" cx="738" cy="489.98" rx="146.53" ry="47.52"/><ellipse class="cls-16" cx="738" cy="489.76" rx="145.58" ry="47.21"/><ellipse class="cls-17" cx="738" cy="489.54" rx="144.62" ry="46.9"/><ellipse class="cls-18" cx="738" cy="489.32" rx="143.67" ry="46.6"/><ellipse class="cls-19" cx="738" cy="489.1" rx="142.72" ry="46.29"/><ellipse class="cls-20" cx="738" cy="488.88" rx="141.76" ry="45.98"/><ellipse class="cls-21" cx="738" cy="488.66" rx="140.81" ry="45.67"/><ellipse class="cls-22" cx="738" cy="488.44" rx="139.85" ry="45.36"/><ellipse class="cls-23" cx="738" cy="488.22" rx="138.9" ry="45.05"/><ellipse class="cls-24" cx="738" cy="488" rx="137.95" ry="44.74"/><ellipse class="cls-25" cx="738" cy="487.78" rx="136.99" ry="44.43"/><ellipse class="cls-26" cx="738" cy="487.56" rx="136.04" ry="44.12"/><ellipse class="cls-27" cx="738" cy="487.34" rx="135.09" ry="43.81"/><ellipse class="cls-28" cx="738" cy="487.12" rx="134.13" ry="43.5"/><ellipse class="cls-29" cx="738" cy="486.9" rx="133.18" ry="43.19"/><ellipse class="cls-30" cx="738" cy="486.67" rx="132.23" ry="42.88"/><ellipse class="cls-31" cx="738" cy="486.45" rx="131.27" ry="42.57"/><ellipse class="cls-32" cx="738" cy="486.23" rx="130.32" ry="42.27"/><ellipse class="cls-33" cx="738" cy="486.01" rx="129.36" ry="41.96"/><ellipse class="cls-34" cx="738" cy="485.79" rx="128.41" ry="41.65"/><ellipse class="cls-35" cx="738" cy="485.57" rx="127.46" ry="41.34"/><ellipse class="cls-36" cx="738" cy="485.35" rx="126.5" ry="41.03"/><ellipse class="cls-37" cx="738" cy="485.13" rx="125.55" ry="40.72"/><ellipse class="cls-38" cx="738" cy="484.91" rx="124.6" ry="40.41"/><ellipse class="cls-39" cx="738" cy="484.69" rx="123.64" ry="40.1"/><ellipse class="cls-40" cx="738" cy="484.47" rx="122.69" ry="39.79"/><ellipse class="cls-41" cx="738" cy="484.25" rx="121.73" ry="39.48"/><ellipse class="cls-42" cx="738" cy="484.03" rx="120.78" ry="39.17"/><ellipse class="cls-43" cx="738" cy="483.81" rx="119.83" ry="38.86"/><ellipse class="cls-44" cx="738" cy="483.59" rx="118.87" ry="38.55"/><ellipse class="cls-45" cx="738" cy="483.37" rx="117.92" ry="38.24"/><ellipse class="cls-46" cx="738" cy="483.15" rx="116.97" ry="37.93"/><ellipse class="cls-47" cx="738" cy="482.93" rx="116.01" ry="37.63"/><ellipse class="cls-48" cx="738" cy="482.71" rx="115.06" ry="37.32"/><ellipse class="cls-49" cx="738" cy="482.49" rx="114.1" ry="37.01"/><ellipse class="cls-50" cx="738" cy="482.27" rx="113.15" ry="36.7"/><ellipse class="cls-51" cx="738" cy="482.05" rx="112.2" ry="36.39"/><ellipse class="cls-52" cx="738" cy="481.83" rx="111.24" ry="36.08"/><ellipse class="cls-53" cx="738" cy="481.61" rx="110.29" ry="35.77"/><ellipse class="cls-54" cx="738" cy="481.39" rx="109.34" ry="35.46"/><ellipse class="cls-55" cx="738" cy="481.17" rx="108.38" ry="35.15"/><ellipse class="cls-56" cx="738" cy="480.95" rx="107.43" ry="34.84"/></g><rect class="cls-65" x="575.61" y="434.88" width="324.79" height="80.14" rx="15"/><rect class="cls-66" x="575.61" y="434.88" width="324.79" height="80.14" rx="15"/><text class="cls-59" transform="translate(677.94 470.78)">INSTALLING THE <tspan x="0" y="23.3">DESIGN SOLUTION</tspan></text><g class="cls-4"><circle class="cls-5" cx="625.92" cy="489.21" r="27.82" transform="translate(-138.83 274.14) rotate(-22.3)"/><circle class="cls-6" cx="625.92" cy="489.04" r="27.61" transform="translate(-138.25 272.28) rotate(-22.16)"/><circle class="cls-7" cx="625.92" cy="488.88" r="27.39" transform="translate(-137.64 270.36) rotate(-22.02)"/><circle class="cls-8" cx="625.92" cy="488.71" r="27.18" transform="translate(-137.02 268.39) rotate(-21.87)"/><circle class="cls-9" cx="625.92" cy="488.54" r="26.96" transform="translate(-136.37 266.36) rotate(-21.72)"/><circle class="cls-10" cx="625.92" cy="488.37" r="26.74" transform="translate(-135.7 264.26) rotate(-21.57)"/><circle class="cls-11" cx="625.92" cy="488.21" r="26.53" transform="translate(-135 262.1) rotate(-21.4)"/><circle class="cls-12" cx="625.92" cy="488.04" r="26.31" transform="translate(-134.28 259.88) rotate(-21.24)"/><circle class="cls-13" cx="625.92" cy="487.87" r="26.1" transform="translate(-133.53 257.58) rotate(-21.07)"/><circle class="cls-14" cx="625.92" cy="487.71" r="25.88" transform="translate(-132.75 255.21) rotate(-20.89)"/><circle class="cls-15" cx="625.92" cy="487.54" r="25.66" transform="translate(-131.94 252.76) rotate(-20.7)"/><circle class="cls-16" cx="625.92" cy="487.37" r="25.45" transform="translate(-131.09 250.23) rotate(-20.51)"/><circle class="cls-17" cx="625.92" cy="487.21" r="25.23" transform="translate(-130.21 247.61) rotate(-20.31)"/><circle class="cls-18" cx="625.92" cy="487.04" r="25.02" transform="translate(-129.3 244.91) rotate(-20.11)"/><circle class="cls-19" cx="625.92" cy="486.87" r="24.8" transform="translate(-128.34 242.11) rotate(-19.9)"/><circle class="cls-20" cx="625.92" cy="486.7" r="24.58" transform="translate(-127.34 239.21) rotate(-19.68)"/><circle class="cls-21" cx="625.92" cy="486.54" r="24.37" transform="translate(-126.3 236.21) rotate(-19.45)"/><circle class="cls-22" cx="625.92" cy="486.37" r="24.15" transform="translate(-125.2 233.1) rotate(-19.22)"/><circle class="cls-23" cx="625.92" cy="486.2" r="23.94" transform="translate(-124.06 229.88) rotate(-18.97)"/><circle class="cls-24" cx="625.92" cy="486.04" r="23.72" transform="translate(-122.86 226.54) rotate(-18.72)"/><circle class="cls-25" cx="625.92" cy="485.87" r="23.5" transform="translate(-121.6 223.07) rotate(-18.45)"/><circle class="cls-26" cx="625.92" cy="485.7" r="23.29" transform="translate(-120.27 219.47) rotate(-18.18)"/><circle class="cls-27" cx="625.92" cy="485.54" r="23.07" transform="translate(-118.88 215.73) rotate(-17.89)"/><circle class="cls-28" cx="625.92" cy="485.37" r="22.86" transform="translate(-117.41 211.84) rotate(-17.59)"/><circle class="cls-29" cx="625.92" cy="485.2" r="22.64" transform="translate(-115.87 207.8) rotate(-17.28)"/><circle class="cls-30" cx="625.92" cy="485.03" r="22.42" transform="translate(-114.23 203.6) rotate(-16.95)"/><circle class="cls-31" cx="625.92" cy="484.87" r="22.21" transform="translate(-112.51 199.22) rotate(-16.62)"/><circle class="cls-32" cx="625.92" cy="484.7" r="21.99" transform="translate(-110.69 194.66) rotate(-16.26)"/><circle class="cls-33" cx="625.92" cy="484.53" r="21.78" transform="translate(-108.75 189.91) rotate(-15.89)"/><circle class="cls-34" cx="625.92" cy="484.37" r="21.56" transform="translate(-106.71 184.96) rotate(-15.51)"/><circle class="cls-35" cx="625.92" cy="484.2" r="21.34" transform="translate(-104.53 179.8) rotate(-15.1)"/><circle class="cls-36" cx="625.92" cy="484.03" r="21.13" transform="matrix(0.97, -0.25, 0.25, 0.97, -102.23, 174.41)"/><circle class="cls-37" cx="625.92" cy="483.86" r="20.91" transform="translate(-99.77 168.78) rotate(-14.24)"/><circle class="cls-38" cx="625.92" cy="483.7" r="20.7" transform="translate(-97.15 162.91) rotate(-13.77)"/><circle class="cls-39" cx="625.92" cy="483.53" r="20.48" transform="translate(-94.36 156.78) rotate(-13.29)"/><circle class="cls-40" cx="625.92" cy="483.36" r="20.26" transform="translate(-91.39 150.36) rotate(-12.77)"/><circle class="cls-41" cx="625.92" cy="483.2" r="20.05" transform="translate(-88.2 143.66) rotate(-12.24)"/><circle class="cls-42" cx="625.92" cy="483.03" r="19.83" transform="translate(-84.8 136.66) rotate(-11.68)"/><circle class="cls-43" cx="625.92" cy="482.86" r="19.62" transform="translate(-81.15 129.33) rotate(-11.08)"/><circle class="cls-44" cx="625.92" cy="482.7" r="19.4" transform="translate(-77.24 121.67) rotate(-10.46)"/><circle class="cls-45" cx="625.92" cy="482.53" r="19.18" transform="translate(-73.05 113.67) rotate(-9.81)"/><circle class="cls-46" cx="625.92" cy="482.36" r="18.97" transform="translate(-68.54 105.3) rotate(-9.12)"/><circle class="cls-47" cx="625.92" cy="482.19" r="18.75" transform="translate(-63.7 96.56) rotate(-8.4)"/><circle class="cls-48" cx="625.92" cy="482.03" r="18.53" transform="translate(-58.49 87.43) rotate(-7.64)"/><circle class="cls-49" cx="625.92" cy="481.86" r="18.32" transform="translate(-52.9 77.91) rotate(-6.83)"/><circle class="cls-50" cx="625.92" cy="481.69" r="18.1" transform="translate(-46.87 67.98) rotate(-5.99)"/><circle class="cls-51" cx="625.92" cy="481.53" r="17.89" transform="translate(-40.39 57.65) rotate(-5.11)"/><circle class="cls-52" cx="625.92" cy="481.36" r="17.67" transform="translate(-33.42 46.9) rotate(-4.18)"/><circle class="cls-53" cx="625.92" cy="481.19" r="17.45" transform="translate(-25.93 35.75) rotate(-3.21)"/><circle class="cls-54" cx="625.92" cy="481.03" r="17.24" transform="translate(-17.88 24.21) rotate(-2.18)"/><circle class="cls-55" cx="625.92" cy="480.86" r="17.02" transform="translate(-9.25 12.28) rotate(-1.12)"/><circle class="cls-56" cx="625.92" cy="480.69" r="16.81"/></g><circle class="cls-67" cx="626.4" cy="474.76" r="23.85" transform="translate(19.82 974.6) rotate(-76.65)"/><path class="cls-61" d="M626.45,469.89c2,0,3.07,1.14,3.07,2.57a2.14,2.14,0,0,1-1.43,2.12v.05a2.2,2.2,0,0,1,1.59,2.28c0,1.59-1.14,2.73-3.11,2.73s-3.39-.94-3.46-3.07h2.15a1.13,1.13,0,0,0,1.23,1.23,1,1,0,0,0,1.06-1.06c0-.84-.51-1.18-1.66-1.18h-.41v-1.8h.41c.75,0,1.48-.18,1.48-1a.9.9,0,0,0-1-1,1,1,0,0,0-1,1h-2.16A2.87,2.87,0,0,1,626.45,469.89Z"/><path class="cls-61" d="M635.22,473.6a9.73,9.73,0,0,1,0,2.33,2.15,2.15,0,0,0,1.06,2.15l1,.56a.46.46,0,0,1,.22.29.43.43,0,0,1-.05.35l-1.6,2.78a.46.46,0,0,1-.29.22.43.43,0,0,1-.35,0l-1-.57a2.16,2.16,0,0,0-2.4.15,9,9,0,0,1-2,1.17,2.13,2.13,0,0,0-1.33,2v1.13a.47.47,0,0,1-.47.47h-3.21a.47.47,0,0,1-.47-.47V485a2.14,2.14,0,0,0-1.32-2,8.86,8.86,0,0,1-2-1.17,2.15,2.15,0,0,0-1.31-.44,2.11,2.11,0,0,0-1.08.29l-1,.57a.45.45,0,0,1-.36,0,.49.49,0,0,1-.29-.22l-1.6-2.78a.47.47,0,0,1,.17-.64l1-.57a2.15,2.15,0,0,0,1.07-2.14,9.2,9.2,0,0,1-.08-1.17,9,9,0,0,1,.08-1.16,2.17,2.17,0,0,0-1.07-2.15l-1-.56a.49.49,0,0,1-.22-.29.47.47,0,0,1,.05-.35l1.6-2.79a.51.51,0,0,1,.29-.21.45.45,0,0,1,.36,0l1,.57a2.15,2.15,0,0,0,2.39-.15l.1-.08a.86.86,0,0,0,.29-.21,9.15,9.15,0,0,1,1.63-.88,2.14,2.14,0,0,0,1.32-2v-1.13a.47.47,0,0,1,.47-.47H628a.47.47,0,0,1,.47.47v1.13a2.14,2.14,0,0,0,1.33,2,9,9,0,0,1,2,1.17,2.15,2.15,0,0,0,2.39.15l1-.57a.43.43,0,0,1,.35,0,.46.46,0,0,1,.29.21l1.6,2.78a.47.47,0,0,1-.17.65l-1,.56A2.15,2.15,0,0,0,635.22,473.6Zm-8,14.68H628a2.17,2.17,0,0,0,2.17-2.17V485a.46.46,0,0,1,.28-.43,10.54,10.54,0,0,0,2.39-1.38.45.45,0,0,1,.52,0l1,.56a2.14,2.14,0,0,0,1.64.22,2.17,2.17,0,0,0,1.32-1l1.6-2.78a2.14,2.14,0,0,0,.22-1.64,2.17,2.17,0,0,0-1-1.32l-1-.56a.45.45,0,0,1-.23-.46,10.7,10.7,0,0,0,0-2.77.45.45,0,0,1,.23-.46l1-.56a2.17,2.17,0,0,0,.79-3l-1.6-2.78a2.18,2.18,0,0,0-3-.8L634,466a1.44,1.44,0,0,1-1.69,0,10.31,10.31,0,0,0-1.88-1,.46.46,0,0,1-.28-.43v-1.13a2.17,2.17,0,0,0-2.17-2.17h-3.21a2.17,2.17,0,0,0-2.16,2.17v1.13a.46.46,0,0,1-.28.43c-.26.1-.51.22-.76.34l-1.69,1.08a.47.47,0,0,1-.47,0l-1-.57a2.18,2.18,0,0,0-3,.8l-1.6,2.78a2.14,2.14,0,0,0-.22,1.64,2.17,2.17,0,0,0,1,1.32l1,.56a.45.45,0,0,1,.23.46,12.79,12.79,0,0,0-.09,1.38,10.83,10.83,0,0,0,.1,1.39.48.48,0,0,1-.24.46l-1,.56a2.17,2.17,0,0,0-.79,3l1.6,2.78a2.17,2.17,0,0,0,1.32,1,2.14,2.14,0,0,0,1.64-.22l1-.56a.44.44,0,0,1,.51,0,10.61,10.61,0,0,0,2.4,1.38.46.46,0,0,1,.28.43v1.13a2.17,2.17,0,0,0,2.16,2.17h2.45Z"/><rect class="cls-3" x="821.51" y="588.12" width="340.77" height="94.91" rx="15"/><g class="cls-4"><ellipse class="cls-5" cx="991.89" cy="652.79" rx="156.07" ry="50.62"/><ellipse class="cls-6" cx="991.89" cy="652.57" rx="155.11" ry="50.31"/><ellipse class="cls-7" cx="991.89" cy="652.35" rx="154.16" ry="50"/><ellipse class="cls-8" cx="991.89" cy="652.13" rx="153.21" ry="49.69"/><ellipse class="cls-9" cx="991.89" cy="651.91" rx="152.25" ry="49.38"/><ellipse class="cls-10" cx="991.89" cy="651.69" rx="151.3" ry="49.07"/><ellipse class="cls-11" cx="991.89" cy="651.47" rx="150.35" ry="48.76"/><ellipse class="cls-12" cx="991.89" cy="651.25" rx="149.39" ry="48.45"/><ellipse class="cls-13" cx="991.89" cy="651.03" rx="148.44" ry="48.14"/><ellipse class="cls-14" cx="991.89" cy="650.81" rx="147.48" ry="47.83"/><ellipse class="cls-15" cx="991.89" cy="650.59" rx="146.53" ry="47.52"/><ellipse class="cls-16" cx="991.89" cy="650.37" rx="145.58" ry="47.21"/><ellipse class="cls-17" cx="991.89" cy="650.15" rx="144.62" ry="46.9"/><ellipse class="cls-18" cx="991.89" cy="649.93" rx="143.67" ry="46.6"/><ellipse class="cls-19" cx="991.89" cy="649.71" rx="142.72" ry="46.29"/><ellipse class="cls-20" cx="991.89" cy="649.49" rx="141.76" ry="45.98"/><ellipse class="cls-21" cx="991.89" cy="649.27" rx="140.81" ry="45.67"/><ellipse class="cls-22" cx="991.89" cy="649.05" rx="139.85" ry="45.36"/><ellipse class="cls-23" cx="991.89" cy="648.83" rx="138.9" ry="45.05"/><ellipse class="cls-24" cx="991.89" cy="648.61" rx="137.95" ry="44.74"/><ellipse class="cls-25" cx="991.89" cy="648.39" rx="136.99" ry="44.43"/><ellipse class="cls-26" cx="991.89" cy="648.17" rx="136.04" ry="44.12"/><ellipse class="cls-27" cx="991.89" cy="647.95" rx="135.09" ry="43.81"/><ellipse class="cls-28" cx="991.89" cy="647.73" rx="134.13" ry="43.5"/><ellipse class="cls-29" cx="991.89" cy="647.51" rx="133.18" ry="43.19"/><ellipse class="cls-30" cx="991.89" cy="647.29" rx="132.23" ry="42.88"/><ellipse class="cls-31" cx="991.89" cy="647.07" rx="131.27" ry="42.57"/><ellipse class="cls-32" cx="991.89" cy="646.85" rx="130.32" ry="42.27"/><ellipse class="cls-33" cx="991.89" cy="646.63" rx="129.36" ry="41.96"/><ellipse class="cls-34" cx="991.89" cy="646.41" rx="128.41" ry="41.65"/><ellipse class="cls-35" cx="991.89" cy="646.19" rx="127.46" ry="41.34"/><ellipse class="cls-36" cx="991.89" cy="645.97" rx="126.5" ry="41.03"/><ellipse class="cls-37" cx="991.89" cy="645.75" rx="125.55" ry="40.72"/><ellipse class="cls-38" cx="991.89" cy="645.53" rx="124.6" ry="40.41"/><ellipse class="cls-39" cx="991.89" cy="645.31" rx="123.64" ry="40.1"/><ellipse class="cls-40" cx="991.89" cy="645.09" rx="122.69" ry="39.79"/><ellipse class="cls-41" cx="991.89" cy="644.87" rx="121.73" ry="39.48"/><ellipse class="cls-42" cx="991.89" cy="644.65" rx="120.78" ry="39.17"/><ellipse class="cls-43" cx="991.89" cy="644.43" rx="119.83" ry="38.86"/><ellipse class="cls-44" cx="991.89" cy="644.21" rx="118.87" ry="38.55"/><ellipse class="cls-45" cx="991.89" cy="643.99" rx="117.92" ry="38.24"/><ellipse class="cls-46" cx="991.89" cy="643.77" rx="116.97" ry="37.93"/><ellipse class="cls-47" cx="991.89" cy="643.55" rx="116.01" ry="37.63"/><ellipse class="cls-48" cx="991.89" cy="643.33" rx="115.06" ry="37.32"/><ellipse class="cls-49" cx="991.89" cy="643.11" rx="114.1" ry="37.01"/><ellipse class="cls-50" cx="991.89" cy="642.89" rx="113.15" ry="36.7"/><ellipse class="cls-51" cx="991.89" cy="642.67" rx="112.2" ry="36.39"/><ellipse class="cls-52" cx="991.89" cy="642.45" rx="111.24" ry="36.08"/><ellipse class="cls-53" cx="991.89" cy="642.23" rx="110.29" ry="35.77"/><ellipse class="cls-54" cx="991.89" cy="642.01" rx="109.34" ry="35.46"/><ellipse class="cls-55" cx="991.89" cy="641.79" rx="108.38" ry="35.15"/><ellipse class="cls-56" cx="991.89" cy="641.57" rx="107.43" ry="34.84"/></g><rect class="cls-68" x="829.5" y="595.5" width="324.79" height="80.14" rx="15"/><rect class="cls-69" x="829.5" y="595.5" width="324.79" height="80.14" rx="15"/><text class="cls-59" transform="translate(931.83 631.39)">ADVERTISING <tspan x="0" y="23.3">CAMPAIGN SET-UP</tspan></text><g class="cls-4"><circle class="cls-5" cx="879.81" cy="649.82" r="27.82" transform="translate(-180.79 382.51) rotate(-22.3)"/><circle class="cls-6" cx="879.81" cy="649.66" r="27.61" transform="translate(-180.08 379.93) rotate(-22.16)"/><circle class="cls-7" cx="879.81" cy="649.49" r="27.39" transform="translate(-179.34 377.28) rotate(-22.02)"/><circle class="cls-8" cx="879.81" cy="649.32" r="27.18" transform="translate(-178.58 374.55) rotate(-21.87)"/><circle class="cls-9" cx="879.81" cy="649.16" r="26.96" transform="translate(-177.78 371.73) rotate(-21.72)"/><circle class="cls-10" cx="879.81" cy="648.99" r="26.74" transform="translate(-176.96 368.83) rotate(-21.57)"/><circle class="cls-11" cx="879.81" cy="648.82" r="26.53" transform="translate(-176.1 365.84) rotate(-21.4)"/><circle class="cls-12" cx="879.81" cy="648.65" r="26.31" transform="translate(-175.21 362.75) rotate(-21.24)"/><circle class="cls-13" cx="879.81" cy="648.49" r="26.1" transform="translate(-174.29 359.57) rotate(-21.07)"/><circle class="cls-14" cx="879.81" cy="648.32" r="25.88" transform="translate(-173.33 356.28) rotate(-20.89)"/><circle class="cls-15" cx="879.81" cy="648.15" r="25.66" transform="translate(-172.32 352.89) rotate(-20.7)"/><circle class="cls-16" cx="879.81" cy="647.99" r="25.45" transform="translate(-171.28 349.38) rotate(-20.51)"/><circle class="cls-17" cx="879.81" cy="647.82" r="25.23" transform="translate(-170.18 345.75) rotate(-20.31)"/><circle class="cls-18" cx="879.81" cy="647.65" r="25.02" transform="translate(-169.04 342) rotate(-20.11)"/><circle class="cls-19" cx="879.81" cy="647.49" r="24.8" transform="translate(-167.85 338.11) rotate(-19.9)"/><circle class="cls-20" cx="879.81" cy="647.32" r="24.58" transform="translate(-166.6 334.09) rotate(-19.68)"/><circle class="cls-21" cx="879.81" cy="647.15" r="24.37" transform="translate(-165.29 329.93) rotate(-19.45)"/><circle class="cls-22" cx="879.81" cy="646.98" r="24.15" transform="translate(-163.92 325.61) rotate(-19.22)"/><circle class="cls-23" cx="879.81" cy="646.82" r="23.94" transform="translate(-162.48 321.14) rotate(-18.97)"/><circle class="cls-24" cx="879.81" cy="646.65" r="23.72" transform="translate(-160.97 316.5) rotate(-18.72)"/><circle class="cls-25" cx="879.81" cy="646.48" r="23.5" transform="translate(-159.38 311.68) rotate(-18.45)"/><circle class="cls-26" cx="879.81" cy="646.32" r="23.29" transform="translate(-157.7 306.68) rotate(-18.18)"/><circle class="cls-27" cx="879.81" cy="646.15" r="23.07" transform="translate(-155.94 301.48) rotate(-17.89)"/><circle class="cls-28" cx="879.81" cy="645.98" r="22.86" transform="matrix(0.95, -0.3, 0.3, 0.95, -154.08, 296.08)"/><circle class="cls-29" cx="879.81" cy="645.82" r="22.64" transform="translate(-152.11 290.46) rotate(-17.28)"/><circle class="cls-30" cx="879.81" cy="645.65" r="22.42" transform="translate(-150.03 284.61) rotate(-16.95)"/><circle class="cls-31" cx="879.81" cy="645.48" r="22.21" transform="translate(-147.83 278.52) rotate(-16.62)"/><circle class="cls-32" cx="879.81" cy="645.31" r="21.99" transform="translate(-145.5 272.18) rotate(-16.26)"/><circle class="cls-33" cx="879.81" cy="645.15" r="21.78" transform="translate(-143.03 265.57) rotate(-15.89)"/><circle class="cls-34" cx="879.81" cy="644.98" r="21.56" transform="translate(-140.4 258.68) rotate(-15.51)"/><circle class="cls-35" cx="879.81" cy="644.81" r="21.34" transform="matrix(0.97, -0.26, 0.26, 0.97, -137.61, 251.49)"/><circle class="cls-36" cx="879.81" cy="644.65" r="21.13" transform="matrix(0.97, -0.25, 0.25, 0.97, -134.64, 243.99)"/><circle class="cls-37" cx="879.81" cy="644.48" r="20.91" transform="translate(-131.47 236.15) rotate(-14.24)"/><circle class="cls-38" cx="879.81" cy="644.31" r="20.7" transform="translate(-128.09 227.97) rotate(-13.77)"/><circle class="cls-39" cx="879.81" cy="644.15" r="20.48" transform="translate(-124.48 219.42) rotate(-13.29)"/><circle class="cls-40" cx="879.81" cy="643.98" r="20.26" transform="translate(-120.61 210.48) rotate(-12.77)"/><circle class="cls-41" cx="879.81" cy="643.81" r="20.05" transform="translate(-116.48 201.13) rotate(-12.24)"/><circle class="cls-42" cx="879.81" cy="643.64" r="19.83" transform="translate(-112.05 191.36) rotate(-11.68)"/><circle class="cls-43" cx="879.81" cy="643.48" r="19.62" transform="translate(-107.29 181.14) rotate(-11.08)"/><circle class="cls-44" cx="879.81" cy="643.31" r="19.4" transform="translate(-102.18 170.44) rotate(-10.46)"/><circle class="cls-45" cx="879.81" cy="643.14" r="19.18" transform="translate(-96.69 159.26) rotate(-9.81)"/><circle class="cls-46" cx="879.81" cy="642.98" r="18.97" transform="translate(-90.79 147.57) rotate(-9.12)"/><circle class="cls-47" cx="879.81" cy="642.81" r="18.75" transform="translate(-84.43 135.36) rotate(-8.4)"/><circle class="cls-48" cx="879.81" cy="642.64" r="18.53" transform="matrix(0.99, -0.13, 0.13, 0.99, -77.58, 122.59)"/><circle class="cls-49" cx="879.81" cy="642.48" r="18.32" transform="translate(-70.2 109.27) rotate(-6.83)"/><circle class="cls-50" cx="879.81" cy="642.31" r="18.1" transform="translate(-62.25 95.37) rotate(-5.99)"/><circle class="cls-51" cx="879.81" cy="642.14" r="17.89" transform="translate(-53.69 80.9) rotate(-5.11)"/><circle class="cls-52" cx="879.81" cy="641.97" r="17.67" transform="translate(-44.45 65.84) rotate(-4.18)"/><circle class="cls-53" cx="879.81" cy="641.81" r="17.45" transform="translate(-34.51 50.2) rotate(-3.21)"/><circle class="cls-54" cx="879.81" cy="641.64" r="17.24" transform="translate(-23.82 34) rotate(-2.18)"/><circle class="cls-55" cx="879.81" cy="641.47" r="17.02" transform="translate(-12.33 17.26) rotate(-1.12)"/><circle class="cls-56" cx="879.81" cy="641.31" r="16.81"/></g><circle class="cls-70" cx="880.29" cy="635.38" r="23.85" transform="translate(58.81 1345.16) rotate(-76.65)"/><path class="cls-61" d="M880.67,638.32h-4.35v-1.79l4.09-5.85h2.47v5.72h1.06v1.92h-1.06V640h-2.21Zm.15-1.92v-3.28l-2.17,3.28Z"/><path class="cls-61" d="M889.11,634.22a9.65,9.65,0,0,1,0,2.32,2.14,2.14,0,0,0,1.06,2.15l1,.57a.44.44,0,0,1,.22.28.45.45,0,0,1,0,.36l-1.61,2.78a.44.44,0,0,1-.28.22.5.5,0,0,1-.36,0l-1-.57a2.15,2.15,0,0,0-2.4.16,9.14,9.14,0,0,1-2,1.16,2.15,2.15,0,0,0-1.33,2v1.13a.47.47,0,0,1-.47.47h-3.21a.47.47,0,0,1-.47-.47V645.6a2.16,2.16,0,0,0-1.32-2,9.21,9.21,0,0,1-2-1.16,2.1,2.1,0,0,0-1.31-.45,2.21,2.21,0,0,0-1.08.29l-1,.57a.5.5,0,0,1-.36,0,.49.49,0,0,1-.29-.22l-1.6-2.78a.47.47,0,0,1,.17-.64l1-.57a2.16,2.16,0,0,0,1.07-2.15,8.45,8.45,0,0,1,0-2.32,2.16,2.16,0,0,0-1.07-2.15l-1-.57a.48.48,0,0,1-.22-.28.5.5,0,0,1,0-.36l1.61-2.78a.44.44,0,0,1,.28-.22.46.46,0,0,1,.36,0l1,.56a2.15,2.15,0,0,0,2.39-.15l.1-.07a.86.86,0,0,0,.29-.21,8.55,8.55,0,0,1,1.63-.88,2.16,2.16,0,0,0,1.32-2V624a.47.47,0,0,1,.47-.47h3.21a.47.47,0,0,1,.47.47v1.13a2.16,2.16,0,0,0,1.33,2,8.76,8.76,0,0,1,2,1.16,2.17,2.17,0,0,0,2.4.15l1-.56a.45.45,0,0,1,.36,0,.44.44,0,0,1,.28.22l1.61,2.78a.47.47,0,0,1-.18.64l-1,.57A2.14,2.14,0,0,0,889.11,634.22Zm-8,14.67h.76a2.17,2.17,0,0,0,2.17-2.16V645.6a.46.46,0,0,1,.28-.43,10.87,10.87,0,0,0,2.4-1.39.47.47,0,0,1,.51,0l1,.57a2.14,2.14,0,0,0,1.64.21,2.12,2.12,0,0,0,1.32-1l1.6-2.78a2.17,2.17,0,0,0,.22-1.65,2.15,2.15,0,0,0-1-1.31l-1-.57a.45.45,0,0,1-.23-.46,10.63,10.63,0,0,0,0-2.76.45.45,0,0,1,.23-.46l1-.57a2.16,2.16,0,0,0,.79-3l-1.6-2.78a2.17,2.17,0,0,0-1.32-1,2.14,2.14,0,0,0-1.64.22l-.31.18a1.46,1.46,0,0,1-1.7,0,9.78,9.78,0,0,0-1.88-1,.46.46,0,0,1-.28-.43V624a2.17,2.17,0,0,0-2.17-2.17h-3.21a2.17,2.17,0,0,0-2.16,2.17v1.13a.46.46,0,0,1-.28.43c-.26.11-.51.22-.76.35L873.79,627a.47.47,0,0,1-.46,0l-1-.57a2.15,2.15,0,0,0-3,.79L867.78,630a2.16,2.16,0,0,0-.21,1.65,2.12,2.12,0,0,0,1,1.31l1,.57a.47.47,0,0,1,.23.46,10.54,10.54,0,0,0-.09,1.38,10.66,10.66,0,0,0,.09,1.38.47.47,0,0,1-.23.46l-1,.57a2.17,2.17,0,0,0-.79,3l1.61,2.78a2.1,2.1,0,0,0,1.31,1,2.14,2.14,0,0,0,1.64-.21l1-.57a.47.47,0,0,1,.51,0,10.65,10.65,0,0,0,2.4,1.39.46.46,0,0,1,.28.43v1.13a2.16,2.16,0,0,0,2.16,2.16h2.45Z"/><rect class="cls-3" x="1075.4" y="424.48" width="340.77" height="94.91" rx="15"/><g class="cls-4"><ellipse class="cls-5" cx="1245.78" cy="489.16" rx="156.07" ry="50.62"/><ellipse class="cls-6" cx="1245.78" cy="488.94" rx="155.11" ry="50.31"/><ellipse class="cls-7" cx="1245.78" cy="488.72" rx="154.16" ry="50"/><ellipse class="cls-8" cx="1245.78" cy="488.5" rx="153.21" ry="49.69"/><ellipse class="cls-9" cx="1245.78" cy="488.28" rx="152.25" ry="49.38"/><ellipse class="cls-10" cx="1245.78" cy="488.06" rx="151.3" ry="49.07"/><ellipse class="cls-11" cx="1245.78" cy="487.84" rx="150.35" ry="48.76"/><ellipse class="cls-12" cx="1245.78" cy="487.62" rx="149.39" ry="48.45"/><ellipse class="cls-13" cx="1245.78" cy="487.4" rx="148.44" ry="48.14"/><ellipse class="cls-14" cx="1245.78" cy="487.18" rx="147.48" ry="47.83"/><ellipse class="cls-15" cx="1245.78" cy="486.95" rx="146.53" ry="47.52"/><ellipse class="cls-16" cx="1245.78" cy="486.73" rx="145.58" ry="47.21"/><ellipse class="cls-17" cx="1245.78" cy="486.51" rx="144.62" ry="46.9"/><ellipse class="cls-18" cx="1245.78" cy="486.29" rx="143.67" ry="46.6"/><ellipse class="cls-19" cx="1245.78" cy="486.07" rx="142.72" ry="46.29"/><ellipse class="cls-20" cx="1245.78" cy="485.85" rx="141.76" ry="45.98"/><ellipse class="cls-21" cx="1245.78" cy="485.63" rx="140.81" ry="45.67"/><ellipse class="cls-22" cx="1245.78" cy="485.41" rx="139.85" ry="45.36"/><ellipse class="cls-23" cx="1245.78" cy="485.19" rx="138.9" ry="45.05"/><ellipse class="cls-24" cx="1245.78" cy="484.97" rx="137.95" ry="44.74"/><ellipse class="cls-25" cx="1245.78" cy="484.75" rx="136.99" ry="44.43"/><ellipse class="cls-26" cx="1245.78" cy="484.53" rx="136.04" ry="44.12"/><ellipse class="cls-27" cx="1245.78" cy="484.31" rx="135.09" ry="43.81"/><ellipse class="cls-28" cx="1245.78" cy="484.09" rx="134.13" ry="43.5"/><ellipse class="cls-29" cx="1245.78" cy="483.87" rx="133.18" ry="43.19"/><ellipse class="cls-30" cx="1245.78" cy="483.65" rx="132.23" ry="42.88"/><ellipse class="cls-31" cx="1245.78" cy="483.43" rx="131.27" ry="42.57"/><ellipse class="cls-32" cx="1245.78" cy="483.21" rx="130.32" ry="42.27"/><ellipse class="cls-33" cx="1245.78" cy="482.99" rx="129.36" ry="41.96"/><ellipse class="cls-34" cx="1245.78" cy="482.77" rx="128.41" ry="41.65"/><ellipse class="cls-35" cx="1245.78" cy="482.55" rx="127.46" ry="41.34"/><ellipse class="cls-36" cx="1245.78" cy="482.33" rx="126.5" ry="41.03"/><ellipse class="cls-37" cx="1245.78" cy="482.11" rx="125.55" ry="40.72"/><ellipse class="cls-38" cx="1245.78" cy="481.89" rx="124.6" ry="40.41"/><ellipse class="cls-39" cx="1245.78" cy="481.67" rx="123.64" ry="40.1"/><ellipse class="cls-40" cx="1245.78" cy="481.45" rx="122.69" ry="39.79"/><ellipse class="cls-41" cx="1245.78" cy="481.23" rx="121.73" ry="39.48"/><ellipse class="cls-42" cx="1245.78" cy="481.01" rx="120.78" ry="39.17"/><ellipse class="cls-43" cx="1245.78" cy="480.79" rx="119.83" ry="38.86"/><ellipse class="cls-44" cx="1245.78" cy="480.57" rx="118.87" ry="38.55"/><ellipse class="cls-45" cx="1245.78" cy="480.35" rx="117.92" ry="38.24"/><ellipse class="cls-46" cx="1245.78" cy="480.13" rx="116.97" ry="37.93"/><ellipse class="cls-47" cx="1245.78" cy="479.91" rx="116.01" ry="37.63"/><ellipse class="cls-48" cx="1245.78" cy="479.69" rx="115.06" ry="37.32"/><ellipse class="cls-49" cx="1245.78" cy="479.47" rx="114.1" ry="37.01"/><ellipse class="cls-50" cx="1245.78" cy="479.25" rx="113.15" ry="36.7"/><ellipse class="cls-51" cx="1245.78" cy="479.03" rx="112.2" ry="36.39"/><ellipse class="cls-52" cx="1245.78" cy="478.81" rx="111.24" ry="36.08"/><ellipse class="cls-53" cx="1245.78" cy="478.59" rx="110.29" ry="35.77"/><ellipse class="cls-54" cx="1245.78" cy="478.37" rx="109.34" ry="35.46"/><ellipse class="cls-55" cx="1245.78" cy="478.15" rx="108.38" ry="35.15"/><ellipse class="cls-56" cx="1245.78" cy="477.93" rx="107.43" ry="34.84"/></g><rect class="cls-71" x="1083.39" y="431.86" width="324.79" height="80.14" rx="15"/><rect class="cls-72" x="1083.39" y="431.86" width="324.79" height="80.14" rx="15"/><text class="cls-59" transform="translate(1185.73 467.76)">VALIDATING THE <tspan x="0" y="23.3">INSTALLED SOLUTION</tspan></text><g class="cls-4"><circle class="cls-5" cx="1133.71" cy="486.19" r="27.82" transform="translate(-99.7 466.62) rotate(-22.3)"/><circle class="cls-6" cx="1133.71" cy="486.02" r="27.61" transform="translate(-99.58 463.62) rotate(-22.16)"/><circle class="cls-7" cx="1133.71" cy="485.85" r="27.39" transform="translate(-99.46 460.54) rotate(-22.02)"/><circle class="cls-8" cx="1133.71" cy="485.69" r="27.18" transform="translate(-99.33 457.36) rotate(-21.87)"/><circle class="cls-9" cx="1133.71" cy="485.52" r="26.96" transform="translate(-99.19 454.08) rotate(-21.72)"/><circle class="cls-10" cx="1133.71" cy="485.35" r="26.74" transform="translate(-99.04 450.7) rotate(-21.57)"/><circle class="cls-11" cx="1133.71" cy="485.19" r="26.53" transform="translate(-98.87 447.21) rotate(-21.4)"/><circle class="cls-12" cx="1133.71" cy="485.02" r="26.31" transform="translate(-98.7 443.61) rotate(-21.24)"/><circle class="cls-13" cx="1133.71" cy="484.85" r="26.1" transform="translate(-98.51 439.89) rotate(-21.07)"/><circle class="cls-14" cx="1133.71" cy="484.68" r="25.88" transform="translate(-98.3 436.05) rotate(-20.89)"/><circle class="cls-15" cx="1133.71" cy="484.52" r="25.66" transform="translate(-98.08 432.07) rotate(-20.7)"/><circle class="cls-16" cx="1133.71" cy="484.35" r="25.45" transform="translate(-97.84 427.97) rotate(-20.51)"/><circle class="cls-17" cx="1133.71" cy="484.18" r="25.23" transform="translate(-97.58 423.72) rotate(-20.31)"/><circle class="cls-18" cx="1133.71" cy="484.02" r="25.02" transform="translate(-97.3 419.32) rotate(-20.11)"/><circle class="cls-19" cx="1133.71" cy="483.85" r="24.8" transform="translate(-97 414.76) rotate(-19.9)"/><circle class="cls-20" cx="1133.71" cy="483.68" r="24.58" transform="translate(-96.67 410.03) rotate(-19.68)"/><circle class="cls-21" cx="1133.71" cy="483.51" r="24.37" transform="translate(-96.31 405.14) rotate(-19.45)"/><circle class="cls-22" cx="1133.71" cy="483.35" r="24.15" transform="translate(-95.92 400.06) rotate(-19.22)"/><circle class="cls-23" cx="1133.71" cy="483.18" r="23.94" transform="translate(-95.5 394.79) rotate(-18.97)"/><circle class="cls-24" cx="1133.71" cy="483.01" r="23.72" transform="translate(-95.04 389.31) rotate(-18.72)"/><circle class="cls-25" cx="1133.71" cy="482.85" r="23.5" transform="translate(-94.54 383.62) rotate(-18.45)"/><circle class="cls-26" cx="1133.71" cy="482.68" r="23.29" transform="translate(-94 377.71) rotate(-18.18)"/><circle class="cls-27" cx="1133.71" cy="482.51" r="23.07" transform="translate(-93.4 371.56) rotate(-17.89)"/><circle class="cls-28" cx="1133.71" cy="482.35" r="22.86" transform="translate(-92.76 365.15) rotate(-17.59)"/><circle class="cls-29" cx="1133.71" cy="482.18" r="22.64" transform="translate(-92.05 358.48) rotate(-17.28)"/><circle class="cls-30" cx="1133.71" cy="482.01" r="22.42" transform="translate(-91.28 351.53) rotate(-16.95)"/><circle class="cls-31" cx="1133.71" cy="481.84" r="22.21" transform="translate(-90.44 344.29) rotate(-16.62)"/><circle class="cls-32" cx="1133.71" cy="481.68" r="21.99" transform="translate(-89.52 336.73) rotate(-16.26)"/><circle class="cls-33" cx="1133.71" cy="481.51" r="21.78" transform="translate(-88.52 328.84) rotate(-15.89)"/><circle class="cls-34" cx="1133.71" cy="481.34" r="21.56" transform="translate(-87.42 320.6) rotate(-15.51)"/><circle class="cls-35" cx="1133.71" cy="481.18" r="21.34" transform="translate(-86.21 311.99) rotate(-15.1)"/><circle class="cls-36" cx="1133.71" cy="481.01" r="21.13" transform="translate(-84.89 302.98) rotate(-14.68)"/><circle class="cls-37" cx="1133.71" cy="480.84" r="20.91" transform="translate(-83.43 293.56) rotate(-14.24)"/><circle class="cls-38" cx="1133.71" cy="480.68" r="20.7" transform="translate(-81.84 283.71) rotate(-13.77)"/><circle class="cls-39" cx="1133.71" cy="480.51" r="20.48" transform="translate(-80.08 273.38) rotate(-13.29)"/><circle class="cls-40" cx="1133.71" cy="480.34" r="20.26" transform="translate(-78.15 262.57) rotate(-12.77)"/><circle class="cls-41" cx="1133.71" cy="480.17" r="20.05" transform="translate(-76.02 251.23) rotate(-12.24)"/><circle class="cls-42" cx="1133.71" cy="480.01" r="19.83" transform="translate(-73.68 239.35) rotate(-11.68)"/><circle class="cls-43" cx="1133.71" cy="479.84" r="19.62" transform="matrix(0.98, -0.19, 0.19, 0.98, -71.1, 226.89)"/><circle class="cls-44" cx="1133.71" cy="479.67" r="19.4" transform="translate(-68.25 213.82) rotate(-10.46)"/><circle class="cls-45" cx="1133.71" cy="479.51" r="19.18" transform="translate(-65.11 200.12) rotate(-9.81)"/><circle class="cls-46" cx="1133.71" cy="479.34" r="18.97" transform="translate(-61.64 185.75) rotate(-9.12)"/><circle class="cls-47" cx="1133.71" cy="479.17" r="18.75" transform="translate(-57.82 170.67) rotate(-8.4)"/><circle class="cls-48" cx="1133.71" cy="479.01" r="18.53" transform="translate(-53.59 154.87) rotate(-7.64)"/><circle class="cls-49" cx="1133.71" cy="478.84" r="18.32" transform="translate(-48.93 138.32) rotate(-6.83)"/><circle class="cls-50" cx="1133.71" cy="478.67" r="18.1" transform="translate(-43.78 120.98) rotate(-5.99)"/><circle class="cls-51" cx="1133.71" cy="478.5" r="17.89" transform="translate(-38.11 102.85) rotate(-5.11)"/><circle class="cls-52" cx="1133.71" cy="478.34" r="17.67" transform="translate(-31.85 83.91) rotate(-4.18)"/><circle class="cls-53" cx="1133.71" cy="478.17" r="17.45" transform="translate(-24.97 64.14) rotate(-3.21)"/><circle class="cls-54" cx="1133.71" cy="478" r="17.24" transform="translate(-17.4 43.56) rotate(-2.18)"/><circle class="cls-55" cx="1133.71" cy="477.84" r="17.02" transform="translate(-9.09 22.17) rotate(-1.12)"/><circle class="cls-56" cx="1133.71" cy="477.67" r="16.81"/></g><circle class="cls-73" cx="1134.18" cy="471.74" r="23.85" transform="translate(413.29 1466.34) rotate(-76.65)"/><path class="cls-61" d="M1137,467V469h-4v1.79a2.37,2.37,0,0,1,1.74-.65,2.79,2.79,0,0,1,2.84,3.09,3,3,0,0,1-3.26,3.29c-2.12,0-3.35-1.18-3.42-2.81H1133a1.12,1.12,0,0,0,1.19.94c.84,0,1.2-.61,1.2-1.43s-.43-1.31-1.22-1.31a1.05,1.05,0,0,0-1.1.78h-2.13V467Z"/><path class="cls-61" d="M1143,470.58a9,9,0,0,1,.08,1.16,9.2,9.2,0,0,1-.08,1.17,2.15,2.15,0,0,0,1.06,2.14l1,.57a.46.46,0,0,1,.21.28.45.45,0,0,1,0,.36l-1.61,2.78a.44.44,0,0,1-.28.22.46.46,0,0,1-.36-.05l-1-.56a2.17,2.17,0,0,0-2.4.15,8.22,8.22,0,0,1-2,1.16,2.16,2.16,0,0,0-1.32,2v1.13a.48.48,0,0,1-.48.47h-3.21a.48.48,0,0,1-.47-.47V482a2.16,2.16,0,0,0-1.32-2,8.22,8.22,0,0,1-2-1.16,2.13,2.13,0,0,0-2.4-.15l-1,.56a.46.46,0,0,1-.36.05.44.44,0,0,1-.28-.22l-1.61-2.78a.47.47,0,0,1,.17-.64l1-.57a2.16,2.16,0,0,0,1.06-2.15,8.45,8.45,0,0,1,0-2.32,2.15,2.15,0,0,0-1.07-2.15l-1-.56a.53.53,0,0,1-.22-.29.5.5,0,0,1,.05-.36l1.61-2.78a.48.48,0,0,1,.28-.22.5.5,0,0,1,.36,0l1,.57a2.15,2.15,0,0,0,2.4-.16l.1-.07a.83.83,0,0,0,.28-.21,9.15,9.15,0,0,1,1.63-.88,2.15,2.15,0,0,0,1.32-2v-1.13a.48.48,0,0,1,.47-.47h3.22a.48.48,0,0,1,.47.47v1.13a2.15,2.15,0,0,0,1.32,2,9.14,9.14,0,0,1,2,1.16,2.15,2.15,0,0,0,2.4.16l1-.57a.5.5,0,0,1,.36,0,.48.48,0,0,1,.28.22l1.61,2.78a.48.48,0,0,1-.17.65l-1,.56A2.16,2.16,0,0,0,1143,470.58Zm-8,14.68h.76a2.17,2.17,0,0,0,2.17-2.17V482a.46.46,0,0,1,.28-.43,10.49,10.49,0,0,0,2.4-1.39.47.47,0,0,1,.51,0l1,.57a2.16,2.16,0,0,0,3-.79l1.61-2.78a2.14,2.14,0,0,0,.21-1.64,2.17,2.17,0,0,0-1-1.32l-1-.57a.46.46,0,0,1-.23-.45,10.81,10.81,0,0,0,.09-1.39,10.66,10.66,0,0,0-.09-1.38.48.48,0,0,1,.23-.46l1-.57a2.17,2.17,0,0,0,.8-3l-1.61-2.78a2.18,2.18,0,0,0-3-.79l-.31.18a1.44,1.44,0,0,1-1.7,0,11,11,0,0,0-1.88-1,.46.46,0,0,1-.28-.43v-1.13a2.17,2.17,0,0,0-2.17-2.16h-3.21a2.16,2.16,0,0,0-2.16,2.16v1.13a.46.46,0,0,1-.28.43c-.26.11-.51.23-.75.35l-1.7,1.07a.47.47,0,0,1-.46,0l-1-.57a2.16,2.16,0,0,0-1.65-.21,2.13,2.13,0,0,0-1.31,1l-1.61,2.78a2.17,2.17,0,0,0-.21,1.65,2.11,2.11,0,0,0,1,1.31l1,.57a.47.47,0,0,1,.23.46,10.62,10.62,0,0,0,0,2.76.47.47,0,0,1-.23.46l-1,.57a2.17,2.17,0,0,0-.8,3l1.61,2.78a2.16,2.16,0,0,0,3,.79l1-.57a.47.47,0,0,1,.51,0,10.49,10.49,0,0,0,2.4,1.39.46.46,0,0,1,.28.43v1.13a2.17,2.17,0,0,0,2.16,2.17H1135Z"/><circle class="cls-3" cx="738" cy="208.57" r="134.98" transform="translate(68.68 582.93) rotate(-45)"/><g class="cls-4"><circle class="cls-5" cx="742.72" cy="269.41" r="121.98"/><circle class="cls-6" cx="742.72" cy="268.88" r="121.23"/><circle class="cls-7" cx="742.72" cy="268.35" r="120.49"/><circle class="cls-8" cx="742.72" cy="267.82" r="119.74"/><circle class="cls-9" cx="742.72" cy="267.29" r="119"/><circle class="cls-10" cx="742.72" cy="266.76" r="118.25"/><circle class="cls-11" cx="742.72" cy="266.22" r="117.5"/><circle class="cls-12" cx="742.72" cy="265.69" r="116.76"/><circle class="cls-13" cx="742.72" cy="265.16" r="116.01"/><circle class="cls-14" cx="742.72" cy="264.63" r="115.27"/><circle class="cls-15" cx="742.72" cy="264.1" r="114.52"/><circle class="cls-16" cx="742.72" cy="263.57" r="113.78"/><circle class="cls-17" cx="742.72" cy="263.04" r="113.03"/><circle class="cls-18" cx="742.72" cy="262.51" r="112.29"/><circle class="cls-19" cx="742.72" cy="261.98" r="111.54"/><circle class="cls-20" cx="742.72" cy="261.45" r="110.8"/><circle class="cls-21" cx="742.72" cy="260.92" r="110.05"/><circle class="cls-22" cx="742.72" cy="260.39" r="109.31"/><circle class="cls-23" cx="742.72" cy="259.86" r="108.56"/><circle class="cls-24" cx="742.72" cy="259.33" r="107.82"/><circle class="cls-25" cx="742.72" cy="258.8" r="107.07"/><circle class="cls-26" cx="742.72" cy="258.27" r="106.32"/><circle class="cls-27" cx="742.72" cy="257.74" r="105.58"/><circle class="cls-28" cx="742.72" cy="257.21" r="104.83"/><circle class="cls-29" cx="742.72" cy="256.68" r="104.09"/><circle class="cls-30" cx="742.72" cy="256.14" r="103.34"/><circle class="cls-31" cx="742.72" cy="255.61" r="102.6"/><circle class="cls-32" cx="742.72" cy="255.08" r="101.85"/><circle class="cls-33" cx="742.72" cy="254.55" r="101.11"/><circle class="cls-34" cx="742.72" cy="254.02" r="100.36"/><circle class="cls-35" cx="742.72" cy="253.49" r="99.62"/><circle class="cls-36" cx="742.72" cy="252.96" r="98.87"/><circle class="cls-37" cx="742.72" cy="252.43" r="98.13"/><circle class="cls-38" cx="742.72" cy="251.9" r="97.38"/><circle class="cls-39" cx="742.72" cy="251.37" r="96.63"/><circle class="cls-40" cx="742.72" cy="250.84" r="95.89"/><circle class="cls-41" cx="742.72" cy="250.31" r="95.14"/><circle class="cls-42" cx="742.72" cy="249.78" r="94.4"/><circle class="cls-43" cx="742.72" cy="249.25" r="93.65"/><circle class="cls-44" cx="742.72" cy="248.72" r="92.91"/><circle class="cls-45" cx="742.72" cy="248.19" r="92.16"/><circle class="cls-46" cx="742.72" cy="247.66" r="91.42"/><circle class="cls-47" cx="742.72" cy="247.13" r="90.67"/><circle class="cls-48" cx="742.72" cy="246.6" r="89.93"/><circle class="cls-49" cx="742.72" cy="246.06" r="89.18"/><circle class="cls-50" cx="742.72" cy="245.53" r="88.44"/><circle class="cls-51" cx="742.72" cy="245" r="87.69"/><circle class="cls-52" cx="742.72" cy="244.47" r="86.94"/><circle class="cls-53" cx="742.72" cy="243.94" r="86.2"/><circle class="cls-54" cx="742.72" cy="243.41" r="85.45"/><circle class="cls-55" cx="742.72" cy="242.88" r="84.71"/><circle class="cls-56" cx="742.72" cy="242.35" r="83.96"/></g><rect class="cls-74" x="620.29" y="90.68" width="235.78" height="235.78" rx="30"/><rect class="cls-75" x="620.29" y="90.68" width="235.78" height="235.78" rx="30"/><text class="cls-76" transform="translate(707.7 223.6)">OUR <tspan class="cls-77"><tspan x="-81.98" y="31.07">IMPLEMENTATION</tspan></tspan><tspan x="-28.99" y="62.13">PROCESS</tspan></text><g class="cls-4"><circle class="cls-5" cx="738.18" cy="167.36" r="31.64" transform="translate(434.62 860.73) rotate(-79.13)"/><circle class="cls-6" cx="738.18" cy="167.17" r="31.39" transform="translate(436.33 861.24) rotate(-79.26)"/><circle class="cls-7" cx="738.18" cy="166.98" r="31.15" transform="translate(438.07 861.76) rotate(-79.38)"/><circle class="cls-8" cx="738.18" cy="166.79" r="30.9" transform="translate(439.84 862.29) rotate(-79.51)"/><circle class="cls-9" cx="738.18" cy="166.6" r="30.65" transform="translate(441.64 862.82) rotate(-79.65)"/><circle class="cls-10" cx="738.18" cy="166.41" r="30.41" transform="translate(443.46 863.36) rotate(-79.78)"/><circle class="cls-11" cx="738.18" cy="166.22" r="30.16" transform="translate(445.32 863.91) rotate(-79.92)"/><circle class="cls-12" cx="738.18" cy="166.03" r="29.92" transform="translate(447.22 864.46) rotate(-80.06)"/><circle class="cls-13" cx="738.18" cy="165.84" r="29.67" transform="matrix(0.17, -0.99, 0.99, 0.17, 449.14, 865.03)"/><circle class="cls-14" cx="738.18" cy="165.65" r="29.43" transform="translate(451.1 865.6) rotate(-80.35)"/><circle class="cls-15" cx="738.18" cy="165.46" r="29.18" transform="translate(453.1 866.18) rotate(-80.5)"/><circle class="cls-16" cx="738.18" cy="165.27" r="28.93" transform="translate(455.13 866.77) rotate(-80.65)"/><circle class="cls-17" cx="738.18" cy="165.08" r="28.69" transform="translate(457.19 867.36) rotate(-80.8)"/><circle class="cls-18" cx="738.18" cy="164.89" r="28.44" transform="translate(459.3 867.97) rotate(-80.96)"/><circle class="cls-19" cx="738.18" cy="164.7" r="28.2" transform="translate(461.44 868.58) rotate(-81.11)"/><circle class="cls-20" cx="738.18" cy="164.51" r="27.95" transform="translate(463.63 869.2) rotate(-81.28)"/><circle class="cls-21" cx="738.18" cy="164.32" r="27.71" transform="translate(465.85 869.83) rotate(-81.44)"/><circle class="cls-22" cx="738.18" cy="164.13" r="27.46" transform="translate(468.12 870.47) rotate(-81.61)"/><circle class="cls-23" cx="738.18" cy="163.94" r="27.22" transform="translate(470.43 871.11) rotate(-81.78)"/><circle class="cls-24" cx="738.18" cy="163.75" r="26.97" transform="translate(472.78 871.77) rotate(-81.96)"/><circle class="cls-25" cx="738.18" cy="163.56" r="26.72" transform="translate(475.18 872.43) rotate(-82.14)"/><circle class="cls-26" cx="738.18" cy="163.37" r="26.48" transform="translate(477.63 873.1) rotate(-82.32)"/><circle class="cls-27" cx="738.18" cy="163.18" r="26.23" transform="matrix(0.13, -0.99, 0.99, 0.13, 480.13, 873.77)"/><circle class="cls-28" cx="738.18" cy="162.99" r="25.99" transform="translate(482.67 874.46) rotate(-82.7)"/><circle class="cls-29" cx="738.18" cy="162.8" r="25.74" transform="translate(485.27 875.15) rotate(-82.89)"/><circle class="cls-30" cx="738.18" cy="162.61" r="25.5" transform="translate(487.92 875.85) rotate(-83.09)"/><circle class="cls-31" cx="738.18" cy="162.42" r="25.25" transform="translate(490.62 876.56) rotate(-83.29)"/><circle class="cls-32" cx="738.18" cy="162.23" r="25" transform="translate(493.37 877.28) rotate(-83.5)"/><circle class="cls-33" cx="738.18" cy="162.04" r="24.76" transform="translate(496.19 878) rotate(-83.71)"/><circle class="cls-34" cx="738.18" cy="161.85" r="24.51" transform="translate(499.06 878.73) rotate(-83.92)"/><circle class="cls-35" cx="738.18" cy="161.66" r="24.27" transform="translate(501.99 879.47) rotate(-84.14)"/><circle class="cls-36" cx="738.18" cy="161.47" r="24.02" transform="translate(504.98 880.22) rotate(-84.36)"/><circle class="cls-37" cx="738.18" cy="161.28" r="23.78" transform="translate(508.03 880.97) rotate(-84.59)"/><circle class="cls-38" cx="738.18" cy="161.09" r="23.53" transform="translate(511.15 881.73) rotate(-84.82)"/><circle class="cls-39" cx="738.18" cy="160.9" r="23.29" transform="matrix(0.09, -1, 1, 0.09, 514.34, 882.49)"/><circle class="cls-40" cx="738.18" cy="160.71" r="23.04" transform="translate(517.59 883.26) rotate(-85.31)"/><circle class="cls-41" cx="738.18" cy="160.52" r="22.79" transform="translate(520.92 884.03) rotate(-85.55)"/><circle class="cls-42" cx="738.18" cy="160.33" r="22.55" transform="matrix(0.07, -1, 1, 0.07, 524.31, 884.81)"/><circle class="cls-43" cx="738.18" cy="160.14" r="22.3" transform="translate(527.78 885.6) rotate(-86.07)"/><circle class="cls-44" cx="738.18" cy="159.95" r="22.06" transform="translate(531.33 886.38) rotate(-86.33)"/><circle class="cls-45" cx="738.18" cy="159.76" r="21.81" transform="translate(534.95 887.17) rotate(-86.6)"/><circle class="cls-46" cx="738.18" cy="159.57" r="21.57" transform="translate(538.65 887.97) rotate(-86.88)"/><circle class="cls-47" cx="738.18" cy="159.38" r="21.32" transform="translate(542.44 888.76) rotate(-87.16)"/><circle class="cls-48" cx="738.18" cy="159.19" r="21.07" transform="matrix(0.04, -1, 1, 0.04, 546.31, 889.56)"/><circle class="cls-49" cx="738.18" cy="159" r="20.83" transform="translate(550.26 890.35) rotate(-87.75)"/><circle class="cls-50" cx="738.18" cy="158.81" r="20.58" transform="translate(554.3 891.15) rotate(-88.05)"/><circle class="cls-51" cx="738.18" cy="158.62" r="20.34" transform="translate(558.43 891.94) rotate(-88.35)"/><circle class="cls-52" cx="738.18" cy="158.43" r="20.09" transform="translate(562.66 892.73) rotate(-88.67)"/><circle class="cls-53" cx="738.18" cy="158.24" r="19.85" transform="translate(566.97 893.52) rotate(-88.99)"/><circle class="cls-54" cx="738.18" cy="158.05" r="19.6" transform="translate(571.39 894.3) rotate(-89.32)"/><circle class="cls-55" cx="738.18" cy="157.86" r="19.36" transform="translate(575.9 895.08) rotate(-89.66)"/><circle class="cls-56" cx="738.18" cy="157.67" r="19.11"/></g><circle class="cls-78" cx="738.72" cy="150.93" r="27.12"/><path class="cls-79" d="M750.42,136.59h-1.83a1.14,1.14,0,0,0-1.13,1.13v.76h-2a.62.62,0,0,0-.52.28,7.85,7.85,0,0,1-6.52,3.49H735.7a1.19,1.19,0,0,0-1.05-.63h-6.11a1.18,1.18,0,0,0-1.19,1.18v.71h-1.42a1.09,1.09,0,0,0-1.09,1.09v6.3a1.09,1.09,0,0,0,1.09,1.09h1.42v.7a1.2,1.2,0,0,0,.63,1.05v11.57a1.14,1.14,0,0,0,1.14,1.13h3.69a1.14,1.14,0,0,0,1.14-1.13v-7.85a.2.2,0,0,1,.06-.15l.89-.89a1,1,0,0,0,.31-.74v-1.94a1.22,1.22,0,0,0,.49-.49h2.76a7.82,7.82,0,0,1,6.52,3.49.64.64,0,0,0,.52.28h2v.75a1.13,1.13,0,0,0,1.13,1.13h1.83a1.13,1.13,0,0,0,1.13-1.13V137.72A1.14,1.14,0,0,0,750.42,136.59Zm-23.07,14.46h-1.42a.15.15,0,0,1-.15-.15v-6.3a.15.15,0,0,1,.15-.15h1.42Zm6.92,4.63a.1.1,0,0,1,0,.07l-.88.89a1.15,1.15,0,0,0-.34.82v7.85a.2.2,0,0,1-.2.19h-3.69a.2.2,0,0,1-.2-.19V153.87h5.35v1.81Zm16.34,2.09a.19.19,0,0,1-.19.19h-1.83a.18.18,0,0,1-.18-.19V145.43a.48.48,0,0,0-.48-.47.47.47,0,0,0-.47.47v10.64h-1.79a8.78,8.78,0,0,0-7.21-3.77h-2.62V151a.48.48,0,0,0-1,0v1.69a.24.24,0,0,1-.24.24h-6.11a.25.25,0,0,1-.25-.24V142.8a.25.25,0,0,1,.25-.24h6.11a.24.24,0,0,1,.24.24v5.9a.48.48,0,0,0,1,0v-5.51h2.62a8.78,8.78,0,0,0,7.21-3.77h1.79v3.71a.47.47,0,0,0,.47.47.48.48,0,0,0,.48-.47v-5.41a.18.18,0,0,1,.18-.18h1.83a.19.19,0,0,1,.19.18Z"/><path class="cls-80" d="M589.57,198.7H237a6.8,6.8,0,0,0-6.75,6.85v199"/><path class="cls-80" d="M886.43,198.7H1239a6.8,6.8,0,0,1,6.75,6.85v199"/><path class="cls-80" d="M589.57,198.7H486.09c-1.09,0-2,5.48-2,12.24V566.6"/><path class="cls-80" d="M886.43,198.7H989.91c1.09,0,2,5.48,2,12.24V566.6"/><line class="cls-80" x1="738.18" y1="362.54" x2="738.18" y2="413.83"/></g></g></svg>