<svg width="357" height="64" viewBox="0 0 357 64" fill="none" xmlns="http://www.w3.org/2000/svg">
<g clip-path="url(#clip0_36_109)">
<path d="M356.213 14.4131H183.913C183.478 14.4131 183.126 14.7657 183.126 15.2007V63.1495C183.126 63.5845 183.478 63.9371 183.913 63.9371H356.213C356.648 63.9371 357 63.5845 357 63.1495V15.2007C357 14.7657 356.648 14.4131 356.213 14.4131Z" fill="#44BFB1"/>
<path d="M73.1686 2.09552C73.1728 2.05888 73.1728 2.02189 73.1686 1.98525C72.9955 1.81198 48.9994 6.39579 39.4953 7.40391C29.8063 8.51749 20.059 9.04351 10.3066 8.9791C4.64188 8.41203 3.02116 9.56192 2.65925 10.5543C2.29734 11.5467 2.95822 12.7281 4.35865 13.7047C6.41996 15.0908 8.90612 14.0197 11.6126 13.7047C14.0201 13.3896 45.3173 8.82158 57.8426 7.02586C50.3526 11.7672 39.039 22.2107 35.2468 43.0977C34.7118 46.7837 32.5246 56.3608 28.7482 56.4396C27.4509 56.3987 26.1626 56.2084 24.9088 55.8725C20.8963 54.9747 15.9555 53.8563 7.41127 58.4716C8.7645 56.5656 10.5583 53.5885 10.7786 51.3832C10.9202 49.556 10.1649 48.0281 9.032 47.8706C8.43406 47.7603 6.90775 47.9808 6.02658 51.903C4.98692 55.7562 3.27133 59.3938 0.959847 62.6458L0 63.969L1.57352 63.3862C1.80955 63.2917 24.7987 54.5021 37.7645 63.2602L38.6928 63.8745L38.504 62.7719C38.504 62.4253 33.0754 28.8895 58.708 9.08936C60.1349 7.99906 61.7292 7.14789 63.4286 6.56906L72.9955 3.15089L73.1686 2.09552Z" fill="white"/>
<path d="M95.2136 21.3436V21.2648L95.4339 21.06L95.1034 21.186C94.5958 20.9979 94.0376 20.9979 93.5299 21.186C77.8419 26.778 50.7774 29.9284 50.5099 29.9284H49.9434L50.1008 30.3852C51.6743 35.032 54.3808 34.5437 58.1572 33.8506C59.2429 33.6458 60.4703 33.4095 61.8235 33.2835C66.8902 32.811 85.4263 25.7383 91.5945 23.3441C85.9928 29.2353 81.0204 38.2139 79.8875 42.3409C79.1165 45.0817 79.5571 51.792 79.8875 56.3443C79.8875 56.8956 79.8875 57.4469 79.9819 57.9195H79.6357C78.2798 56.0197 76.6337 54.3452 74.7578 52.9576C71.2489 50.4531 56.1903 43.9003 55.6238 43.664C50.6987 41.0492 48.6689 41.6793 47.7562 42.3251C46.1827 43.5223 46.4974 46.0741 46.0568 50.9571C45.7409 54.3618 45.1408 57.7339 44.263 61.0384C43.7752 62.0622 43.2875 63.1649 43.4763 63.2909C43.6651 63.4169 43.8539 63.2909 45.0498 61.7157C45.663 61.1979 46.3273 60.744 47.0324 60.361C53.2762 57.4519 60.3677 56.9308 66.9689 58.8961C70.5454 59.935 74.3086 60.1611 77.9836 59.5577C78.8769 60.4819 79.7125 61.4604 80.4854 62.4875L81.0991 63.3539L81.3824 62.3773C81.3824 62.1883 81.8701 60.6131 82.4366 58.3763C83.5398 58.0348 84.5967 57.5587 85.5836 56.9586C86.2229 56.5618 86.8329 56.1196 87.4089 55.6355L82.6884 57.2107C83.8528 52.4851 85.3161 45.8378 85.2375 42.4039C85.1588 38.97 88.4947 32.1336 94.6786 23.1708L94.773 23.0448C95.245 22.6982 95.7171 21.8634 95.2136 21.3436ZM66.7172 56.3916C63.4423 55.2186 59.9827 54.6476 56.505 54.7061C53.7038 54.7606 50.9506 55.4443 48.4486 56.7066C49.4297 53.9357 50.1669 51.0843 50.6515 48.1848C50.64 47.7247 50.7522 47.2699 50.9764 46.8681C51.2006 46.4663 51.5286 46.1322 51.9261 45.9008C52.8559 45.687 53.8319 45.8273 54.664 46.2946H54.7899C62.9686 48.2746 70.4673 52.4141 76.5044 58.2818C73.1638 58.1642 69.8618 57.5265 66.7172 56.3916Z" fill="white"/>
<path d="M138.108 0.157722C136.298 -0.692881 133.749 2.15821 133.23 2.96156C131.877 4.89905 129.123 24.2896 128.808 26.5894C127.628 43.9165 123.002 55.1319 121.554 58.2823C117.399 51.1991 112.839 44.3619 107.896 37.8048C104.608 33.4415 102.877 26.7784 98.0932 25.7703C97.827 25.7455 97.5591 25.7958 97.3199 25.9155C97.0808 26.0352 96.8799 26.2195 96.74 26.4477C93.1681 32.0868 95.7959 41.6167 92.8376 50.9891C91.7461 54.4416 90.4321 57.8196 88.9038 61.1019L87.3303 64.0317L89.6906 61.7477C96.7557 54.8011 104.057 58.2665 111.72 61.9525L112.381 62.2675C114.614 63.4559 117.115 64.0509 119.644 63.9957C122.173 63.9406 124.646 63.2371 126.826 61.9525L129.973 59.7472L126.369 60.9758C119.871 63.2284 112.931 57.5577 112.821 57.4632C104.828 51.9815 99.1317 52.6431 96.142 53.667C97.7155 50.7213 98.6754 45.2554 99.588 39.0177C99.9972 36.2453 100.579 35.5995 100.91 35.4577C101.24 35.316 101.901 35.7413 102.326 36.0878C102.51 36.2689 102.722 36.418 102.955 36.5289C104.041 37.5212 114.395 51.6822 121.177 61.0704L121.303 61.2436H121.491C122.058 61.2436 127.109 61.3854 131.058 38.0568C133.403 24.2424 135.464 18.9025 136.896 14.87C138.076 12.0899 138.86 9.15762 139.225 6.1592C139.713 2.69378 139.335 0.72479 138.108 0.157722Z" fill="white"/>
<path d="M172.3 51.7452C171.199 51.4774 169.562 53.1471 168.776 54.8956C168.776 54.8956 164.197 62.0154 153.339 59.6211C145.472 57.8412 140.374 59.2116 138.092 60.141L138.328 59.6369C139.87 55.0689 141.121 50.4075 142.073 45.6807C142.445 46.704 143.011 47.6455 143.741 48.453C144.638 49.2091 160.389 47.1141 166.667 43.57C169.641 41.9002 171.246 40.2463 171.529 38.5136C171.602 37.9028 171.539 37.2833 171.343 36.7002C171.147 36.1172 170.823 35.5851 170.396 35.1427C170.05 34.6859 169.059 34.4181 166.274 33.662C161.16 32.2916 151.64 29.7398 145.818 24.2109C142.781 21.3598 140.673 20.3989 139.367 21.2653C137.793 22.3521 138.281 25.8333 138.36 26.2586C138.816 28.8104 139.76 49.3352 136.172 59.6369L135.653 63.5276C136.743 62.638 137.985 61.9548 139.319 61.5114C139.52 61.4359 139.725 61.3728 139.933 61.3224C140.846 61.1018 142.278 61.1491 146.526 61.9682C150.369 62.7554 154.25 63.339 158.154 63.7166C159.272 63.8269 160.31 63.8742 161.301 63.8742C173.103 63.8742 173.89 56.455 173.89 56.1242C173.732 54.2812 173.355 51.9815 172.3 51.7452ZM142.64 30.2438C142.275 29.0333 142.095 27.7749 142.105 26.5106C142.556 26.9471 142.942 27.4457 143.253 27.9913C145.96 32.2916 165.723 37.1589 169.358 38.0253C168.741 39.2891 167.731 40.3176 166.478 40.9551C160.184 44.6883 147.061 45.3814 144.449 44.3103C144.021 44.1206 143.563 44.0086 143.096 43.9795C142.854 43.9727 142.617 44.0445 142.419 44.1843C144.071 34.3078 142.718 30.4329 142.64 30.2438Z" fill="white"/>
<path d="M193.543 29.1885H197.445L205.187 46.5156L212.897 29.1885H216.768V51.2411H213.149V36.2296L206.43 51.3514H203.912L197.178 36.2296V51.3514H193.543V29.1885Z" fill="#1A1A1A"/>
<path d="M229.073 51.5566C227.888 51.6009 226.706 51.3959 225.605 50.9547C224.504 50.5136 223.508 49.8462 222.68 48.9957C221.853 48.1451 221.213 47.1303 220.802 46.0167C220.39 44.9032 220.217 43.7156 220.293 42.5308C220.293 37.0334 223.849 33.505 229.026 33.505C230.167 33.4461 231.309 33.6279 232.376 34.0385C233.443 34.4491 234.412 35.0794 235.22 35.8886C236.029 36.6978 236.658 37.6679 237.068 38.7361C237.479 39.8043 237.66 40.9469 237.601 42.0897C237.606 42.6854 237.564 43.2806 237.475 43.8697H224.101C224.154 45.1442 224.708 46.3459 225.642 47.2133C226.576 48.0807 227.815 48.5434 229.089 48.5008C229.942 48.5605 230.794 48.3589 231.53 47.9228C232.266 47.4868 232.853 46.8368 233.211 46.0592H237.114C236.568 47.7356 235.483 49.1839 234.028 50.1784C232.574 51.1728 230.831 51.6574 229.073 51.5566ZM224.116 40.9556H233.809C233.792 40.3395 233.65 39.7333 233.391 39.1739C233.133 38.6144 232.764 38.1133 232.306 37.7009C231.849 37.2885 231.312 36.9734 230.729 36.7747C230.147 36.576 229.529 36.4979 228.916 36.5451C227.703 36.5221 226.528 36.9675 225.634 37.7887C224.74 38.6099 224.197 39.744 224.116 40.9556Z" fill="#1A1A1A"/>
<path d="M248.223 33.4728C249.365 33.4783 250.493 33.7269 251.532 34.2022C252.571 34.6775 253.497 35.3685 254.249 36.2294V27.7549H257.9V51.2725H254.249V48.6262C253.551 49.568 252.635 50.3265 251.58 50.8367C250.525 51.3469 249.362 51.5937 248.191 51.556C243.581 51.556 239.93 47.8386 239.93 42.4357C239.93 37.0328 243.581 33.4728 248.223 33.4728ZM248.946 36.6232C248.208 36.6294 247.48 36.7879 246.806 37.0888C246.132 37.3897 245.527 37.8266 245.029 38.3721C244.532 38.9177 244.152 39.5601 243.913 40.2593C243.675 40.9585 243.583 41.6994 243.644 42.4357C243.581 43.1802 243.671 43.9296 243.907 44.6384C244.143 45.3473 244.52 46.0007 245.016 46.559C245.512 47.1173 246.116 47.5689 246.792 47.8864C247.467 48.2038 248.201 48.3805 248.946 48.4056C249.687 48.3886 250.416 48.2207 251.089 47.912C251.762 47.6034 252.365 47.1606 252.861 46.6106C253.358 46.0607 253.737 45.4152 253.975 44.7136C254.214 44.012 254.307 43.269 254.249 42.5302C254.314 41.7883 254.226 41.041 253.99 40.3347C253.754 39.6283 253.376 38.978 252.879 38.4241C252.382 37.8702 251.776 37.4246 251.1 37.1148C250.423 36.805 249.69 36.6376 248.946 36.6232Z" fill="#1A1A1A"/>
<path d="M262.18 29.1255C262.192 28.6711 262.338 28.2304 262.599 27.8583C262.86 27.4862 263.224 27.1993 263.647 27.0332C264.069 26.8671 264.532 26.8292 264.976 26.9242C265.42 27.0193 265.826 27.2431 266.144 27.5678C266.462 27.8924 266.677 28.3035 266.763 28.7499C266.849 29.1962 266.802 29.658 266.628 30.0778C266.453 30.4975 266.159 30.8565 265.783 31.1102C265.406 31.3638 264.963 31.5008 264.509 31.504C264.197 31.5085 263.889 31.4497 263.601 31.3311C263.313 31.2125 263.053 31.0367 262.835 30.8143C262.617 30.5919 262.447 30.3275 262.334 30.0372C262.222 29.7469 262.169 29.4368 262.18 29.1255ZM262.667 33.7566H266.287V51.2727H262.667V33.7566Z" fill="#1A1A1A"/>
<path d="M278.088 33.4732C279.249 33.4375 280.402 33.6755 281.455 34.168C282.507 34.6605 283.429 35.3938 284.146 36.3086V33.7568H287.797V51.2729H284.146V48.6581C283.425 49.5884 282.495 50.3357 281.431 50.8392C280.368 51.3427 279.201 51.5885 278.025 51.5564C273.478 51.5564 269.843 47.839 269.843 42.4361C269.843 37.0332 273.478 33.4732 278.088 33.4732ZM278.843 36.6236C278.107 36.6319 277.38 36.792 276.707 37.0939C276.035 37.3958 275.432 37.833 274.936 38.3783C274.44 38.9236 274.062 39.5652 273.825 40.2634C273.587 40.9615 273.496 41.7011 273.556 42.4361C273.494 43.1793 273.583 43.9275 273.818 44.6353C274.053 45.3431 274.429 45.9958 274.923 46.5539C275.418 47.112 276.02 47.5639 276.694 47.8823C277.367 48.2006 278.099 48.3788 278.843 48.406C279.584 48.3913 280.314 48.2249 280.988 47.917C281.663 47.6091 282.267 47.1663 282.764 46.6159C283.26 46.0655 283.639 45.419 283.877 44.7164C284.115 44.0138 284.206 43.2699 284.146 42.5306C284.213 41.7882 284.127 41.04 283.892 40.3326C283.657 39.6253 283.279 38.974 282.781 38.4196C282.284 37.8652 281.677 37.4196 280.999 37.1105C280.322 36.8015 279.588 36.6357 278.843 36.6236Z" fill="#1A1A1A"/>
<path d="M308.174 41.4905H303.453V51.2725H302.021V28.9678H308.205C313.319 28.9678 315.506 31.5668 315.506 35.2685C315.506 38.9702 313.13 41.4905 308.174 41.4905ZM308.174 40.2146C312.438 40.2146 314.059 38.2771 314.059 35.2528C314.059 32.2284 312.485 30.2279 308.174 30.2279H303.453V40.2146H308.174Z" fill="#1A1A1A"/>
<path d="M320.746 51.2723H319.33V33.9452H320.746V37.5051C321.612 35.0006 323.736 33.5986 327.135 33.5986V35.0951H326.663C323.704 35.0951 320.746 36.56 320.746 41.2541V51.2723Z" fill="#1A1A1A"/>
<path d="M338.023 51.5242C333.193 51.5242 329.542 48.1533 329.542 42.6244C329.493 41.4755 329.676 40.3285 330.081 39.2525C330.486 38.1765 331.105 37.1936 331.9 36.3632C332.694 35.5328 333.648 34.872 334.705 34.4205C335.761 33.9691 336.898 33.7363 338.047 33.7363C339.196 33.7363 340.332 33.9691 341.389 34.4205C342.445 34.872 343.4 35.5328 344.194 36.3632C344.989 37.1936 345.607 38.1765 346.013 39.2525C346.418 40.3285 346.601 41.4755 346.552 42.6244C346.636 43.784 346.476 44.9484 346.082 46.0421C345.688 47.1359 345.069 48.1346 344.265 48.9737C343.461 49.8127 342.49 50.4733 341.415 50.9127C340.34 51.352 339.184 51.5604 338.023 51.5242ZM338.023 50.2483C341.642 50.2483 345.136 47.8698 345.136 42.6244C345.136 37.379 341.674 35.032 338.055 35.032C334.436 35.032 331.005 37.4105 331.005 42.6244C331.005 47.8383 334.404 50.2483 338.023 50.2483Z" fill="#1A1A1A"/>
</g>
<defs>
<clipPath id="clip0_36_109">
<rect width="357" height="64" fill="white"/>
</clipPath>
</defs>
</svg>
