<svg width="201" height="36" viewBox="0 0 201 36" fill="none" xmlns="http://www.w3.org/2000/svg">
<g clip-path="url(#clip0_2232_3255)">
<path d="M200.557 8.1073H103.548C103.303 8.1073 103.105 8.30565 103.105 8.55032V35.5215C103.105 35.7662 103.303 35.9645 103.548 35.9645H200.557C200.802 35.9645 201 35.7662 201 35.5215V8.55032C201 8.30565 200.802 8.1073 200.557 8.1073Z" fill="#44BFB1"/>
<path d="M41.1958 1.17842C41.1981 1.15782 41.1981 1.13701 41.1958 1.1164C41.0983 1.01894 27.5879 3.59733 22.2369 4.16439C16.7817 4.79078 11.2937 5.08667 5.80285 5.05044C2.6135 4.73146 1.70099 5.37827 1.49722 5.93648C1.29346 6.49469 1.66555 7.15922 2.45403 7.70857C3.6146 8.48829 5.01437 7.88578 6.53817 7.70857C7.89364 7.53136 25.5148 4.96183 32.5668 3.95174C28.3498 6.61874 21.9799 12.4932 19.8449 24.2422C19.5436 26.3155 18.3122 31.7027 16.186 31.747C15.4556 31.7239 14.7302 31.6169 14.0243 31.428C11.7652 30.9229 8.98334 30.2939 4.17273 32.89C4.93463 31.8179 5.9446 30.1432 6.06863 28.9028C6.14836 27.875 5.72311 27.0155 5.08524 26.9269C4.74859 26.8649 3.88924 26.9889 3.39312 29.1952C2.80776 31.3626 1.84184 33.4087 0.540418 35.238L0 35.9823L0.885931 35.6544C1.01882 35.6013 13.9623 30.6571 21.2623 35.5835L21.785 35.9291L21.6787 35.3089C21.6787 35.1139 18.6223 16.25 33.0541 5.11246C33.8575 4.49917 34.7551 4.02038 35.7119 3.69479L41.0983 1.77207L41.1958 1.17842Z" fill="white"/>
<path d="M53.6077 12.0059V11.9616L53.7317 11.8464L53.5456 11.9173C53.2598 11.8114 52.9455 11.8114 52.6597 11.9173C43.827 15.0627 28.589 16.8348 28.4384 16.8348H28.1194L28.208 17.0918C29.0939 19.7056 30.6177 19.4309 32.744 19.0411C33.3553 18.9259 34.0463 18.793 34.8082 18.7221C37.6609 18.4563 48.0972 14.4779 51.57 13.1312C48.4161 16.445 45.6166 21.4954 44.9787 23.8169C44.5446 25.3586 44.7926 29.1331 44.9787 31.6938C44.9787 32.0039 44.9787 32.314 45.0318 32.5798H44.8369C44.0735 31.5112 43.1467 30.5693 42.0906 29.7888C40.1149 28.38 31.6366 24.694 31.3176 24.5611C28.5447 23.0903 27.4018 23.4447 26.888 23.808C26.002 24.4814 26.1792 25.9168 25.9312 28.6635C25.7533 30.5786 25.4154 32.4755 24.9212 34.3342C24.6466 34.9101 24.3719 35.5304 24.4782 35.6013C24.5846 35.6721 24.6909 35.6013 25.3642 34.7152C25.7094 34.4239 26.0834 34.1686 26.4805 33.9532C29.9959 32.3168 33.9885 32.0237 37.7052 33.1292C39.7189 33.7136 41.8376 33.8407 43.9067 33.5013C44.4097 34.0212 44.8801 34.5716 45.3153 35.1494L45.6609 35.6367L45.8203 35.0873C45.8203 34.981 46.095 34.095 46.4139 32.8368C47.035 32.6447 47.6301 32.3769 48.1858 32.0394C48.5457 31.8161 48.8891 31.5674 49.2134 31.2951L46.5556 32.1811C47.2112 29.523 48.0351 25.7839 47.9909 23.8523C47.9466 21.9207 49.8247 18.0753 53.3064 13.0337L53.3596 12.9628C53.6254 12.7679 53.8912 12.2983 53.6077 12.0059ZM37.5634 31.7204C35.7196 31.0606 33.7718 30.7394 31.8138 30.7723C30.2366 30.803 28.6865 31.1875 27.2778 31.8976C27.8302 30.339 28.2452 28.735 28.5181 27.1041C28.5116 26.8453 28.5748 26.5895 28.701 26.3634C28.8273 26.1374 29.0119 25.9495 29.2357 25.8193C29.7592 25.699 30.3087 25.778 30.7772 26.0408H30.8481C35.4529 27.1546 39.6749 29.483 43.0739 32.7836C41.1931 32.7175 39.3339 32.3588 37.5634 31.7204Z" fill="white"/>
<path d="M77.7582 0.0885964C76.7394 -0.389868 75.3042 1.21387 75.0118 1.66576C74.2499 2.75559 72.6995 13.6628 72.5223 14.9564C71.8579 24.7029 69.2532 31.0116 68.4382 32.7836C66.0986 28.7994 63.531 24.9534 60.7483 21.2651C58.8967 18.8107 57.9222 15.0628 55.229 14.4957C55.0791 14.4817 54.9282 14.51 54.7936 14.5773C54.6589 14.6447 54.5458 14.7484 54.4671 14.8767C52.456 18.0487 53.9355 23.4093 52.2699 28.6813C51.6554 30.6233 50.9156 32.5234 50.0551 34.3697L49.1692 36.0177L50.4981 34.7329C54.4759 30.8255 58.5866 32.7748 62.9011 34.8481L63.2732 35.0253C64.5308 35.6938 65.9389 36.0285 67.3627 35.9975C68.7866 35.9664 70.1787 35.5707 71.4061 34.8481L73.1779 33.6077L71.1491 34.2988C67.4902 35.5658 63.5833 32.3761 63.5213 32.3229C59.0207 29.2395 55.8137 29.6116 54.1304 30.1875C55.0163 28.5306 55.5568 25.4561 56.0706 21.9473C56.3009 20.3879 56.6287 20.0246 56.8148 19.9449C57.0008 19.8651 57.3729 20.1043 57.6121 20.2993C57.7156 20.4012 57.8354 20.485 57.9665 20.5474C58.5778 21.1056 64.4072 29.0711 68.2256 34.3519L68.2964 34.4494H68.4028C68.7217 34.4494 71.5655 34.5292 73.7892 21.4068C75.1093 13.6362 76.2698 10.6325 77.076 8.36425C77.7403 6.80043 78.1817 5.15104 78.3872 3.46443C78.6618 1.51513 78.4492 0.407573 77.7582 0.0885964Z" fill="white"/>
<path d="M97.0094 29.1065C96.3893 28.9559 95.4679 29.8951 95.0249 30.8786C95.0249 30.8786 92.4469 34.8836 86.334 33.5368C81.9043 32.5355 79.0339 33.3064 77.7493 33.8292L77.8822 33.5456C78.7505 30.9761 79.4548 28.3541 79.9907 25.6953C80.2001 26.2709 80.519 26.8005 80.9298 27.2547C81.4348 27.68 90.3029 26.5016 93.8378 24.508C95.5122 23.5688 96.4159 22.6384 96.5753 21.6638C96.6164 21.3202 96.5805 20.9717 96.4702 20.6438C96.3599 20.3158 96.1779 20.0165 95.9375 19.7676C95.7425 19.5107 95.1844 19.3601 93.6163 18.9348C90.737 18.1639 85.3772 16.7285 82.0992 13.6185C80.3894 12.0147 79.2022 11.4743 78.4669 11.9616C77.581 12.573 77.8556 14.5311 77.8999 14.7703C78.1568 16.2057 78.6884 27.7509 76.6685 33.5456L76.3761 35.7342C76.9895 35.2338 77.689 34.8494 78.4403 34.6C78.5532 34.5576 78.6686 34.5221 78.7858 34.4937C79.2997 34.3696 80.1059 34.3962 82.4979 34.857C84.6614 35.2998 86.8468 35.6281 89.0449 35.8405C89.6739 35.9025 90.2586 35.9291 90.8168 35.9291C97.4613 35.9291 97.9042 31.7558 97.9042 31.5697C97.8156 30.5331 97.603 29.2395 97.0094 29.1065ZM80.3096 17.012C80.1045 16.3311 80.0029 15.6232 80.0084 14.9121C80.2624 15.1576 80.4802 15.4381 80.6551 15.745C82.1789 18.1639 93.3062 20.9018 95.3527 21.3891C95.0057 22.1 94.4365 22.6785 93.7315 23.0371C90.1878 25.1371 82.7991 25.5269 81.3285 24.9244C81.0875 24.8177 80.8295 24.7547 80.5666 24.7383C80.4305 24.7345 80.2968 24.7749 80.1856 24.8535C81.1158 19.298 80.3539 17.1184 80.3096 17.012Z" fill="white"/>
<path d="M108.969 16.4184H111.167L115.525 26.1649L119.866 16.4184H122.046V28.823H120.008V20.379L116.225 28.885H114.808L111.016 20.379V28.885H108.969V16.4184Z" fill="#1A1A1A"/>
<path d="M128.974 29.0002C128.307 29.0251 127.641 28.9098 127.022 28.6617C126.402 28.4135 125.841 28.0381 125.375 27.5597C124.909 27.0812 124.549 26.5104 124.317 25.884C124.085 25.2577 123.988 24.5897 124.03 23.9232C124.03 20.8309 126.033 18.8462 128.947 18.8462C129.59 18.8131 130.233 18.9153 130.833 19.1463C131.434 19.3772 131.98 19.7318 132.435 20.187C132.89 20.6422 133.245 21.1878 133.476 21.7887C133.706 22.3896 133.809 23.0322 133.776 23.6751C133.778 24.0102 133.754 24.345 133.705 24.6763H126.174C126.204 25.3932 126.516 26.0692 127.042 26.5571C127.568 27.045 128.266 27.3053 128.983 27.2813C129.463 27.3149 129.943 27.2015 130.357 26.9562C130.772 26.7109 131.102 26.3453 131.304 25.9079H133.501C133.194 26.8509 132.583 27.6656 131.764 28.225C130.945 28.7843 129.964 29.0569 128.974 29.0002ZM126.183 23.0372H131.64C131.631 22.6906 131.551 22.3496 131.405 22.0349C131.26 21.7202 131.052 21.4383 130.794 21.2064C130.537 20.9744 130.235 20.7972 129.906 20.6854C129.578 20.5737 129.231 20.5297 128.885 20.5562C128.202 20.5433 127.541 20.7938 127.038 21.2558C126.535 21.7177 126.229 22.3556 126.183 23.0372Z" fill="#1A1A1A"/>
<path d="M139.756 18.8284C140.399 18.8315 141.034 18.9713 141.619 19.2387C142.204 19.506 142.725 19.8947 143.149 20.379V15.6121H145.204V28.8407H143.149V27.3522C142.755 27.8819 142.24 28.3086 141.646 28.5956C141.052 28.8826 140.397 29.0214 139.738 29.0002C137.142 29.0002 135.087 26.9091 135.087 23.87C135.087 20.8309 137.142 18.8284 139.756 18.8284ZM140.163 20.6005C139.748 20.604 139.337 20.6931 138.958 20.8624C138.578 21.0317 138.238 21.2774 137.958 21.5843C137.677 21.8911 137.463 22.2525 137.329 22.6458C137.195 23.0391 137.143 23.4558 137.177 23.87C137.142 24.2888 137.193 24.7104 137.326 25.1091C137.459 25.5078 137.671 25.8753 137.95 26.1894C138.229 26.5034 138.57 26.7575 138.95 26.936C139.33 27.1146 139.743 27.214 140.163 27.2281C140.58 27.2185 140.99 27.1241 141.369 26.9505C141.748 26.7769 142.088 26.5278 142.367 26.2184C142.647 25.9091 142.86 25.546 142.994 25.1513C143.129 24.7567 143.181 24.3388 143.149 23.9232C143.185 23.5059 143.136 23.0855 143.003 22.6882C142.87 22.2909 142.657 21.9251 142.377 21.6135C142.097 21.3019 141.756 21.0513 141.375 20.877C140.994 20.7027 140.582 20.6086 140.163 20.6005Z" fill="#1A1A1A"/>
<path d="M147.614 16.3829C147.621 16.1273 147.703 15.8794 147.85 15.6701C147.997 15.4608 148.202 15.2994 148.44 15.206C148.678 15.1125 148.938 15.0912 149.188 15.1447C149.438 15.1982 149.667 15.3241 149.846 15.5067C150.025 15.6893 150.146 15.9205 150.194 16.1716C150.243 16.4227 150.216 16.6825 150.118 16.9186C150.02 17.1546 149.854 17.3566 149.642 17.4993C149.43 17.642 149.181 17.719 148.925 17.7208C148.75 17.7233 148.576 17.6902 148.414 17.6236C148.252 17.5569 148.105 17.458 147.983 17.3329C147.86 17.2078 147.764 17.059 147.701 16.8958C147.637 16.7325 147.608 16.558 147.614 16.3829ZM147.888 18.9879H149.926V28.8407H147.888V18.9879Z" fill="#1A1A1A"/>
<path d="M156.57 18.8284C157.224 18.8083 157.874 18.9422 158.466 19.2193C159.058 19.4963 159.578 19.9087 159.981 20.4233V18.9879H162.037V28.8408H159.981V27.3699C159.575 27.8933 159.052 28.3136 158.453 28.5968C157.854 28.88 157.197 29.0183 156.535 29.0002C153.975 29.0002 151.928 26.9092 151.928 23.87C151.928 20.8309 153.975 18.8284 156.57 18.8284ZM156.996 20.6005C156.581 20.6052 156.172 20.6953 155.793 20.8651C155.415 21.0349 155.075 21.2808 154.796 21.5875C154.517 21.8943 154.304 22.2552 154.17 22.6479C154.036 23.0406 153.985 23.4566 154.019 23.87C153.984 24.2881 154.034 24.709 154.166 25.1071C154.299 25.5052 154.51 25.8724 154.789 26.1863C155.067 26.5003 155.406 26.7545 155.785 26.9335C156.165 27.1126 156.577 27.2128 156.996 27.2282C157.413 27.2199 157.824 27.1262 158.204 26.9531C158.583 26.7799 158.923 26.5308 159.203 26.2212C159.483 25.9116 159.696 25.548 159.83 25.1527C159.964 24.7575 160.015 24.3391 159.981 23.9232C160.019 23.5056 159.97 23.0847 159.838 22.6869C159.706 22.289 159.493 21.9227 159.213 21.6108C158.933 21.2989 158.591 21.0483 158.21 20.8744C157.828 20.7006 157.415 20.6074 156.996 20.6005Z" fill="#1A1A1A"/>
<path d="M173.51 23.3384H170.852V28.8407H170.046V16.2943H173.527C176.407 16.2943 177.638 17.7563 177.638 19.8385C177.638 21.9207 176.3 23.3384 173.51 23.3384ZM173.51 22.6207C175.91 22.6207 176.823 21.5308 176.823 19.8296C176.823 18.1284 175.937 17.0031 173.51 17.0031H170.852V22.6207H173.51Z" fill="#1A1A1A"/>
<path d="M180.588 28.8407H179.791V19.0942H180.588V21.0967C181.075 19.6879 182.271 18.8993 184.185 18.8993V19.741H183.919C182.254 19.741 180.588 20.5651 180.588 23.2055V28.8407Z" fill="#1A1A1A"/>
<path d="M190.316 28.9825C187.596 28.9825 185.541 27.0864 185.541 23.9763C185.513 23.3301 185.616 22.6849 185.844 22.0797C186.072 21.4744 186.42 20.9215 186.868 20.4544C187.315 19.9873 187.853 19.6156 188.447 19.3617C189.042 19.1077 189.682 18.9768 190.329 18.9768C190.976 18.9768 191.616 19.1077 192.211 19.3617C192.805 19.6156 193.343 19.9873 193.79 20.4544C194.238 20.9215 194.586 21.4744 194.814 22.0797C195.042 22.6849 195.145 23.3301 195.117 23.9763C195.165 24.6286 195.075 25.2836 194.853 25.8988C194.631 26.5141 194.283 27.0759 193.83 27.5478C193.377 28.0198 192.831 28.3913 192.225 28.6385C191.62 28.8856 190.969 29.0028 190.316 28.9825ZM190.316 28.2648C192.353 28.2648 194.32 26.9269 194.32 23.9763C194.32 21.0258 192.371 19.7056 190.333 19.7056C188.296 19.7056 186.364 21.0435 186.364 23.9763C186.364 26.9092 188.278 28.2648 190.316 28.2648Z" fill="#1A1A1A"/>
</g>
<defs>
<clipPath id="clip0_2232_3255">
<rect width="201" height="36" fill="white"/>
</clipPath>
</defs>
</svg>
