<svg width="271" height="74" viewBox="0 0 271 74" fill="none" xmlns="http://www.w3.org/2000/svg">
<rect width="271" height="74" fill="black"/>
<path d="M254.137 20.6924H131.667C131.359 20.6924 131.108 20.9537 131.108 21.2761V56.8119C131.108 57.1343 131.359 57.3956 131.667 57.3956H254.137C254.446 57.3956 254.696 57.1343 254.696 56.8119V21.2761C254.696 20.9537 254.446 20.6924 254.137 20.6924Z" fill="#44BFB1"/>
<path d="M52.9516 11.5169C52.9546 11.4898 52.9546 11.4623 52.9516 11.4352C52.8286 11.3068 35.7724 14.7039 29.017 15.4628C22.1299 16.2851 15.2017 16.675 8.26987 16.6302C4.24348 16.2099 3.09149 17.0621 2.83424 17.8559C2.577 18.6498 3.04675 19.4669 4.04216 20.1907C5.50732 21.2064 7.27446 20.4125 9.19818 20.1907C10.9094 19.9689 33.1552 16.5718 42.058 15.2526C36.7454 18.7548 28.7485 26.5181 26.0531 41.9979C25.6728 44.7296 24.1182 51.8391 21.4339 51.8858C20.5113 51.8612 19.595 51.7201 18.7049 51.4655C15.8529 50.8001 12.341 49.9712 6.26786 53.3917C7.22972 51.9792 8.50475 49.7728 8.66133 48.1501C8.76199 46.7842 8.22514 45.6635 7.41986 45.5351C6.99485 45.4651 5.90996 45.6168 5.28363 48.5354C4.53463 51.3851 3.32007 54.0785 1.69344 56.497L1 57.4777L2.11844 57.0341C2.28621 56.9757 18.6266 50.4616 27.8426 56.9407L28.5025 57.396L28.3683 56.5788C28.3683 56.3219 24.5096 31.4796 42.7291 16.7936C43.746 15.99 44.8785 15.3595 46.0844 14.9257L52.9852 12.4041L52.9516 11.5169Z" fill="#77459B"/>
<path d="M68.621 25.8175L68.565 25.7592L68.7216 25.6074L68.4867 25.7125C68.1257 25.5741 67.7293 25.5741 67.3683 25.7125C56.251 29.9035 37.0138 32.2383 36.8237 32.2499H36.4322L36.5329 32.5885C37.6513 36.0907 39.575 35.6704 42.2593 35.1568C43.031 35.005 43.9034 34.8416 44.8653 34.7482C48.4666 34.3863 61.6419 29.1563 66.0262 27.3702C62.0445 31.7363 58.5102 38.3905 57.705 41.4491C57.1569 43.4921 57.4701 48.4535 57.705 51.8273C57.705 52.2359 57.705 52.6445 57.7721 52.9947H57.526C56.5622 51.5867 55.3922 50.3458 54.0589 49.3174C51.5647 47.4729 40.8612 42.6165 40.4586 42.4414C36.9579 40.4918 35.5151 40.9588 34.8664 41.4374C33.748 42.3247 33.9716 44.2275 33.6585 47.8348C33.4349 50.3582 33.0084 52.8575 32.3835 55.3062C32.0367 56.065 31.69 56.8822 31.8242 56.9756C31.9584 57.069 32.0927 56.9756 32.9427 55.8082C33.3794 55.429 33.8515 55.0965 34.3519 54.8159C38.787 52.6481 43.8318 52.2616 48.5226 53.7302C51.0647 54.5002 53.7395 54.6677 56.3516 54.2205C56.9886 54.8995 57.5827 55.6209 58.13 56.3802L58.5662 57.0223L58.7675 56.2985C58.7675 56.1584 59.1142 54.991 59.5168 53.3333C60.3008 53.0848 61.0521 52.7358 61.7537 52.2943C62.2081 52.0002 62.6417 51.6725 63.0511 51.3137L59.6958 52.4811C60.5234 48.9789 61.5636 44.0641 61.5077 41.5075C61.4517 38.9509 63.8228 33.896 68.2183 27.2535L68.2742 27.1601C68.6433 26.8215 68.9789 26.2028 68.621 25.8175ZM48.3884 51.7923C46.0602 50.926 43.6009 50.5067 41.1297 50.5549C39.1422 50.582 37.1856 51.0726 35.4032 51.9908C36.1034 49.9381 36.6274 47.8246 36.9691 45.6751C36.9713 45.3354 37.0607 45.0025 37.2278 44.711C37.395 44.4194 37.6339 44.18 37.9197 44.0174C38.5806 43.8589 39.2744 43.963 39.8658 44.3092H39.9553C45.7496 45.7668 51.0638 48.8184 55.3451 53.1465C52.973 53.0732 50.6262 52.6164 48.3884 51.7923V51.7923Z" fill="#77459B"/>
<path d="M99.1097 10.1161C97.8235 9.48574 96.0451 11.5987 95.6425 12.2058C94.6806 13.63 92.7234 28.0125 92.4997 29.7169C91.6609 42.5583 88.3726 50.917 87.3437 53.2518C84.3925 48.0007 81.151 42.9334 77.6356 38.0755C75.2981 34.8535 74.0678 29.9037 70.6677 29.1565C70.4788 29.1408 70.2893 29.1792 70.1198 29.2677C69.9503 29.3562 69.8071 29.4913 69.7059 29.6585C67.167 33.8378 69.0348 40.9006 66.9321 47.8467C66.1562 50.4092 65.2222 52.9165 64.136 55.3531L63.0176 57.5128L64.6393 55.8551C69.6611 50.7068 74.8507 53.2751 80.2975 55.9952L80.7672 56.2287C82.3543 57.11 84.1312 57.5524 85.9286 57.5136C87.7259 57.4747 89.4838 56.956 91.0345 56.0068L93.2714 54.3608L90.7102 55.2831C86.091 56.9408 81.1587 52.7381 81.0804 52.6681C75.3428 48.6522 71.2605 49.1075 69.169 49.8546C70.2874 47.6716 70.9697 43.6207 71.6184 39.0094C71.9092 36.9548 72.323 36.4645 72.5579 36.3594C72.7928 36.2543 73.2625 36.5695 73.5645 36.8264C73.6919 36.9645 73.8439 37.0755 74.0119 37.1533C74.7836 37.8887 82.1429 48.3954 86.9634 55.3531L87.0529 55.4698H87.1871C87.5897 55.4698 91.1799 55.5866 93.9872 38.2973C95.6537 28.0241 97.1189 24.0199 98.1814 21.0897C99.0186 19.0288 99.5757 16.8559 99.8367 14.634C100.25 12.0073 99.9821 10.5481 99.1097 10.1161Z" fill="#77459B"/>
<path d="M123.413 48.3479C122.63 48.1611 121.467 49.3985 120.908 50.6827C120.908 50.6827 117.653 55.9477 109.936 54.1849C104.344 52.854 100.72 53.8814 99.0985 54.5584L99.2662 54.1966C100.362 50.8149 101.251 47.3641 101.928 43.865C102.189 44.625 102.592 45.3233 103.114 45.9197C103.751 46.48 114.947 44.939 119.409 42.3124C121.523 41.0632 122.664 39.8375 122.865 38.5533C122.916 38.1007 122.871 37.6418 122.731 37.2098C122.592 36.7778 122.363 36.3834 122.06 36.0551C121.814 35.7282 121.109 35.5181 119.13 34.9577C115.495 33.9421 108.728 32.0509 104.59 27.9533C102.431 25.852 100.933 25.1398 100.004 25.7702C98.8859 26.5757 99.2327 29.1674 99.2886 29.4826C99.6129 31.3621 100.284 46.5851 97.734 54.2082L97.3649 57.0917C98.1393 56.4324 99.0224 55.9261 99.9708 55.5974C100.113 55.5415 100.259 55.4948 100.407 55.4574C101.056 55.3056 102.074 55.3289 105.093 55.9477C107.039 56.3329 109.701 56.8699 113.359 57.2435C114.153 57.3252 114.891 57.3602 115.595 57.3602C123.984 57.3602 124.543 51.8617 124.543 51.6049C124.442 50.2274 124.163 48.5463 123.413 48.3479ZM102.331 32.4244C102.072 31.5232 101.944 30.5867 101.95 29.646C102.27 29.9751 102.545 30.3482 102.767 30.755C104.691 33.9304 118.738 37.5377 121.322 38.1797C120.88 39.1077 120.162 39.8613 119.275 40.3278C114.801 43.0945 105.474 43.6082 103.617 42.826C103.319 42.6769 102.996 42.5897 102.666 42.5692C102.491 42.5624 102.318 42.6157 102.174 42.721C103.349 35.4247 102.387 32.5295 102.331 32.4244V32.4244Z" fill="#77459B"/>
<path d="M138.524 31.6309H141.297L146.8 44.4723L152.28 31.6309H155.032V47.9745H152.459V36.7674L147.684 47.9745H145.894L141.096 36.7674V47.9745H138.524V31.6309Z" fill="#15181C"/>
<path d="M163.767 48.208C162.925 48.2361 162.087 48.0798 161.307 47.7493C160.527 47.4187 159.821 46.9212 159.237 46.2888C158.652 45.6564 158.201 44.9032 157.912 44.0776C157.623 43.252 157.503 42.3724 157.559 41.4954C157.559 37.4212 160.087 34.8179 163.767 34.8179C164.576 34.7791 165.384 34.9178 166.139 35.2252C166.894 35.5326 167.578 36.0017 168.148 36.6024C168.718 37.2031 169.162 37.9219 169.449 38.7124C169.737 39.5029 169.862 40.3476 169.818 41.1919C169.821 41.6334 169.791 42.0745 169.728 42.5111H160.233C160.267 43.4577 160.66 44.3513 161.324 44.9966C161.989 45.642 162.871 45.9865 163.778 45.9549C164.386 45.9966 164.991 45.8448 165.514 45.5196C166.037 45.1944 166.454 44.7112 166.708 44.1338H169.482C169.094 45.3762 168.323 46.4496 167.289 47.1866C166.255 47.9236 165.017 48.2827 163.767 48.208ZM160.233 40.3514H167.122C167.111 39.8938 167.011 39.4433 166.828 39.0273C166.645 38.6113 166.383 38.2385 166.058 37.9316C165.732 37.6247 165.351 37.3902 164.936 37.2422C164.521 37.0943 164.081 37.036 163.644 37.071C162.78 37.0542 161.943 37.3858 161.308 37.9969C160.672 38.608 160.287 39.4513 160.233 40.3514Z" fill="#15181C"/>
<path d="M177.378 34.8646C178.189 34.865 178.99 35.0453 179.728 35.3935C180.467 35.7417 181.126 36.2498 181.662 36.8842V30.6152H184.257V48.0446H181.662V46.095C181.164 46.7909 180.513 47.3508 179.763 47.7268C179.013 48.1029 178.187 48.284 177.356 48.2547C174.079 48.2547 171.484 45.4996 171.484 41.4954C171.484 37.4912 174.079 34.8646 177.378 34.8646ZM177.893 37.1994C177.368 37.204 176.85 37.3214 176.371 37.5445C175.892 37.7675 175.462 38.0913 175.108 38.4956C174.755 38.8999 174.485 39.376 174.315 39.8942C174.146 40.4123 174.08 40.9614 174.124 41.5071C174.079 42.0595 174.143 42.6155 174.31 43.1415C174.478 43.6674 174.746 44.1525 175.099 44.5672C175.451 44.9819 175.88 45.3177 176.36 45.5542C176.841 45.7907 177.362 45.9231 177.893 45.9433C178.92 45.8191 179.868 45.3051 180.556 44.499C181.244 43.6929 181.624 42.651 181.624 41.5713C181.624 40.4917 181.244 39.4497 180.556 38.6436C179.868 37.8375 178.92 37.3235 177.893 37.1994V37.1994Z" fill="#15181C"/>
<path d="M187.299 31.5842C187.299 31.2453 187.395 30.914 187.575 30.632C187.755 30.3501 188.011 30.1301 188.311 29.9999C188.611 29.8697 188.941 29.835 189.26 29.9003C189.578 29.9656 189.871 30.1278 190.101 30.3667C190.332 30.6055 190.489 30.9102 190.554 31.2423C190.619 31.5744 190.588 31.9191 190.465 32.2329C190.342 32.5466 190.133 32.8155 189.864 33.0054C189.596 33.1954 189.279 33.298 188.954 33.3003C188.737 33.3034 188.521 33.2612 188.32 33.1762C188.118 33.0912 187.935 32.9651 187.781 32.8053C187.627 32.6455 187.505 32.4552 187.422 32.2455C187.339 32.0358 187.297 31.811 187.299 31.5842V31.5842ZM187.645 35.0281H190.218V47.9979H187.645V35.0281Z" fill="#15181C"/>
<path d="M198.606 34.8644C199.431 34.8356 200.25 35.0098 200.998 35.3728C201.746 35.7358 202.402 36.2775 202.912 36.954V35.0745H205.507V48.0444H202.912V46.0715C202.399 46.7596 201.738 47.3116 200.982 47.6828C200.226 48.054 199.397 48.2339 198.561 48.2078C195.34 48.2078 192.746 45.4528 192.746 41.4486C192.746 37.4444 195.34 34.8644 198.606 34.8644ZM199.143 37.1992C198.619 37.2054 198.103 37.324 197.625 37.5477C197.147 37.7715 196.719 38.0955 196.366 38.4996C196.014 38.9037 195.745 39.3793 195.576 39.8967C195.407 40.4141 195.342 40.9622 195.385 41.5069C195.341 42.0584 195.404 42.6134 195.571 43.1386C195.738 43.6639 196.005 44.1484 196.356 44.5629C196.707 44.9774 197.135 45.3135 197.614 45.5507C198.093 45.7879 198.613 45.9214 199.143 45.9431C200.171 45.819 201.118 45.3049 201.807 44.4988C202.495 43.6927 202.875 42.6508 202.875 41.5711C202.875 40.4915 202.495 39.4496 201.807 38.6434C201.118 37.8373 200.171 37.3233 199.143 37.1992V37.1992Z" fill="#15181C"/>
<path d="M219.991 40.702H216.635V47.9516H215.618V31.4678H220.013C223.648 31.4678 225.203 33.394 225.203 36.1374C225.203 38.8808 223.492 40.702 219.991 40.702ZM219.991 39.7564C223.022 39.7564 224.174 38.3204 224.174 36.079C224.174 33.8376 223.055 32.3667 219.991 32.3667H216.635V39.7564H219.991Z" fill="#15181C"/>
<path d="M228.927 47.9979H227.921V35.2148H228.927V37.8532C229.542 35.9853 231.052 34.958 233.468 34.958V36.032H233.132C231.03 36.032 228.927 37.1177 228.927 40.6082V47.9979Z" fill="#15181C"/>
<path d="M241.208 48.185C237.774 48.185 235.179 45.6867 235.179 41.5892C235.232 40.3525 235.631 39.1592 236.328 38.1576C237.025 37.156 237.989 36.3904 239.1 35.9558C240.21 35.5211 241.418 35.4367 242.575 35.7131C243.731 35.9894 244.783 36.6142 245.602 37.5099C246.421 38.4056 246.969 39.5327 247.179 40.751C247.389 41.9694 247.251 43.2253 246.783 44.3627C246.315 45.5 245.537 46.4687 244.546 47.1483C243.554 47.8279 242.394 48.1884 241.208 48.185V48.185ZM241.208 47.2511C243.78 47.2511 246.263 45.4766 246.263 41.5892C246.263 37.7017 243.802 35.9623 241.23 35.9623C238.658 35.9623 236.219 37.7367 236.219 41.5892C236.219 45.4416 238.635 47.2511 241.208 47.2511V47.2511Z" fill="#15181C"/>
<path d="M254.137 20.6924H131.667C131.359 20.6924 131.108 20.9537 131.108 21.2761V56.8119C131.108 57.1343 131.359 57.3956 131.667 57.3956H254.137C254.446 57.3956 254.696 57.1343 254.696 56.8119V21.2761C254.696 20.9537 254.446 20.6924 254.137 20.6924Z" fill="#44BFB1"/>
<path d="M52.9516 11.5169C52.9546 11.4898 52.9546 11.4623 52.9516 11.4352C52.8286 11.3068 35.7724 14.7039 29.017 15.4628C22.1299 16.2851 15.2017 16.675 8.26987 16.6302C4.24348 16.2099 3.09149 17.0621 2.83424 17.8559C2.577 18.6498 3.04675 19.4669 4.04216 20.1907C5.50732 21.2064 7.27446 20.4125 9.19818 20.1907C10.9094 19.9689 33.1552 16.5718 42.058 15.2526C36.7454 18.7548 28.7485 26.5181 26.0531 41.9979C25.6728 44.7296 24.1182 51.8391 21.4339 51.8858C20.5113 51.8612 19.595 51.7201 18.7049 51.4655C15.8529 50.8001 12.341 49.9712 6.26786 53.3917C7.22972 51.9792 8.50475 49.7728 8.66133 48.1501C8.76199 46.7842 8.22514 45.6635 7.41986 45.5351C6.99485 45.4651 5.90996 45.6168 5.28363 48.5354C4.53463 51.3851 3.32007 54.0785 1.69344 56.497L1 57.4777L2.11844 57.0341C2.28621 56.9757 18.6266 50.4616 27.8426 56.9407L28.5025 57.396L28.3683 56.5788C28.3683 56.3219 24.5096 31.4796 42.7291 16.7936C43.746 15.99 44.8785 15.3595 46.0844 14.9257L52.9852 12.4041L52.9516 11.5169Z" fill="#77459B"/>
<path d="M68.621 25.8175L68.565 25.7592L68.7216 25.6074L68.4867 25.7125C68.1257 25.5741 67.7293 25.5741 67.3683 25.7125C56.251 29.9035 37.0138 32.2383 36.8237 32.2499H36.4322L36.5329 32.5885C37.6513 36.0907 39.575 35.6704 42.2593 35.1568C43.031 35.005 43.9034 34.8416 44.8653 34.7482C48.4666 34.3863 61.6419 29.1563 66.0262 27.3702C62.0445 31.7363 58.5102 38.3905 57.705 41.4491C57.1569 43.4921 57.4701 48.4535 57.705 51.8273C57.705 52.2359 57.705 52.6445 57.7721 52.9947H57.526C56.5622 51.5867 55.3922 50.3458 54.0589 49.3174C51.5647 47.4729 40.8612 42.6165 40.4586 42.4414C36.9579 40.4918 35.5151 40.9588 34.8664 41.4374C33.748 42.3247 33.9716 44.2275 33.6585 47.8348C33.4349 50.3582 33.0084 52.8575 32.3835 55.3062C32.0367 56.065 31.69 56.8822 31.8242 56.9756C31.9584 57.069 32.0927 56.9756 32.9427 55.8082C33.3794 55.429 33.8515 55.0965 34.3519 54.8159C38.787 52.6481 43.8318 52.2616 48.5226 53.7302C51.0647 54.5002 53.7395 54.6677 56.3516 54.2205C56.9886 54.8995 57.5827 55.6209 58.13 56.3802L58.5662 57.0223L58.7675 56.2985C58.7675 56.1584 59.1142 54.991 59.5168 53.3333C60.3008 53.0848 61.0521 52.7358 61.7537 52.2943C62.2081 52.0002 62.6417 51.6725 63.0511 51.3137L59.6958 52.4811C60.5234 48.9789 61.5636 44.0641 61.5077 41.5075C61.4517 38.9509 63.8228 33.896 68.2183 27.2535L68.2742 27.1601C68.6433 26.8215 68.9789 26.2028 68.621 25.8175ZM48.3884 51.7923C46.0602 50.926 43.6009 50.5067 41.1297 50.5549C39.1422 50.582 37.1856 51.0726 35.4032 51.9908C36.1034 49.9381 36.6274 47.8246 36.9691 45.6751C36.9713 45.3354 37.0607 45.0025 37.2278 44.711C37.395 44.4194 37.6339 44.18 37.9197 44.0174C38.5806 43.8589 39.2744 43.963 39.8658 44.3092H39.9553C45.7496 45.7668 51.0638 48.8184 55.3451 53.1465C52.973 53.0732 50.6262 52.6164 48.3884 51.7923V51.7923Z" fill="#77459B"/>
<path d="M99.1097 10.1161C97.8235 9.48574 96.0451 11.5987 95.6425 12.2058C94.6806 13.63 92.7234 28.0125 92.4997 29.7169C91.6609 42.5583 88.3726 50.917 87.3437 53.2518C84.3925 48.0007 81.151 42.9334 77.6356 38.0755C75.2981 34.8535 74.0678 29.9037 70.6677 29.1565C70.4788 29.1408 70.2893 29.1792 70.1198 29.2677C69.9503 29.3562 69.8071 29.4913 69.7059 29.6585C67.167 33.8378 69.0348 40.9006 66.9321 47.8467C66.1562 50.4092 65.2222 52.9165 64.136 55.3531L63.0176 57.5128L64.6393 55.8551C69.6611 50.7068 74.8507 53.2751 80.2975 55.9952L80.7672 56.2287C82.3543 57.11 84.1312 57.5524 85.9286 57.5136C87.7259 57.4747 89.4838 56.956 91.0345 56.0068L93.2714 54.3608L90.7102 55.2831C86.091 56.9408 81.1587 52.7381 81.0804 52.6681C75.3428 48.6522 71.2605 49.1075 69.169 49.8546C70.2874 47.6716 70.9697 43.6207 71.6184 39.0094C71.9092 36.9548 72.323 36.4645 72.5579 36.3594C72.7928 36.2543 73.2625 36.5695 73.5645 36.8264C73.6919 36.9645 73.8439 37.0755 74.0119 37.1533C74.7836 37.8887 82.1429 48.3954 86.9634 55.3531L87.0529 55.4698H87.1871C87.5897 55.4698 91.1799 55.5866 93.9872 38.2973C95.6537 28.0241 97.1189 24.0199 98.1814 21.0897C99.0186 19.0288 99.5757 16.8559 99.8367 14.634C100.25 12.0073 99.9821 10.5481 99.1097 10.1161Z" fill="#77459B"/>
<path d="M123.413 48.3479C122.63 48.1611 121.467 49.3985 120.908 50.6827C120.908 50.6827 117.653 55.9477 109.936 54.1849C104.344 52.854 100.72 53.8814 99.0985 54.5584L99.2662 54.1966C100.362 50.8149 101.251 47.3641 101.928 43.865C102.189 44.625 102.592 45.3233 103.114 45.9197C103.751 46.48 114.947 44.939 119.409 42.3124C121.523 41.0632 122.664 39.8375 122.865 38.5533C122.916 38.1007 122.871 37.6418 122.731 37.2098C122.592 36.7778 122.363 36.3834 122.06 36.0551C121.814 35.7282 121.109 35.5181 119.13 34.9577C115.495 33.9421 108.728 32.0509 104.59 27.9533C102.431 25.852 100.933 25.1398 100.004 25.7702C98.8859 26.5757 99.2327 29.1674 99.2886 29.4826C99.6129 31.3621 100.284 46.5851 97.734 54.2082L97.3649 57.0917C98.1393 56.4324 99.0224 55.9261 99.9708 55.5974C100.113 55.5415 100.259 55.4948 100.407 55.4574C101.056 55.3056 102.074 55.3289 105.093 55.9477C107.039 56.3329 109.701 56.8699 113.359 57.2435C114.153 57.3252 114.891 57.3602 115.595 57.3602C123.984 57.3602 124.543 51.8617 124.543 51.6049C124.442 50.2274 124.163 48.5463 123.413 48.3479ZM102.331 32.4244C102.072 31.5232 101.944 30.5867 101.95 29.646C102.27 29.9751 102.545 30.3482 102.767 30.755C104.691 33.9304 118.738 37.5377 121.322 38.1797C120.88 39.1077 120.162 39.8613 119.275 40.3278C114.801 43.0945 105.474 43.6082 103.617 42.826C103.319 42.6769 102.996 42.5897 102.666 42.5692C102.491 42.5624 102.318 42.6157 102.174 42.721C103.349 35.4247 102.387 32.5295 102.331 32.4244V32.4244Z" fill="#77459B"/>
<path d="M138.524 31.6309H141.297L146.8 44.4723L152.28 31.6309H155.032V47.9745H152.459V36.7674L147.684 47.9745H145.894L141.096 36.7674V47.9745H138.524V31.6309Z" fill="#15181C"/>
<path d="M163.767 48.208C162.925 48.2361 162.087 48.0798 161.307 47.7493C160.527 47.4187 159.821 46.9212 159.237 46.2888C158.652 45.6564 158.201 44.9032 157.912 44.0776C157.623 43.252 157.503 42.3724 157.559 41.4954C157.559 37.4212 160.087 34.8179 163.767 34.8179C164.576 34.7791 165.384 34.9178 166.139 35.2252C166.894 35.5326 167.578 36.0017 168.148 36.6024C168.718 37.2031 169.162 37.9219 169.449 38.7124C169.737 39.5029 169.862 40.3476 169.818 41.1919C169.821 41.6334 169.791 42.0745 169.728 42.5111H160.233C160.267 43.4577 160.66 44.3513 161.324 44.9966C161.989 45.642 162.871 45.9865 163.778 45.9549C164.386 45.9966 164.991 45.8448 165.514 45.5196C166.037 45.1944 166.454 44.7112 166.708 44.1338H169.482C169.094 45.3762 168.323 46.4496 167.289 47.1866C166.255 47.9236 165.017 48.2827 163.767 48.208ZM160.233 40.3514H167.122C167.111 39.8938 167.011 39.4433 166.828 39.0273C166.645 38.6113 166.383 38.2385 166.058 37.9316C165.732 37.6247 165.351 37.3902 164.936 37.2422C164.521 37.0943 164.081 37.036 163.644 37.071C162.78 37.0542 161.943 37.3858 161.308 37.9969C160.672 38.608 160.287 39.4513 160.233 40.3514Z" fill="#15181C"/>
<path d="M177.378 34.8646C178.189 34.865 178.99 35.0453 179.728 35.3935C180.467 35.7417 181.126 36.2498 181.662 36.8842V30.6152H184.257V48.0446H181.662V46.095C181.164 46.7909 180.513 47.3508 179.763 47.7268C179.013 48.1029 178.187 48.284 177.356 48.2547C174.079 48.2547 171.484 45.4996 171.484 41.4954C171.484 37.4912 174.079 34.8646 177.378 34.8646ZM177.893 37.1994C177.368 37.204 176.85 37.3214 176.371 37.5445C175.892 37.7675 175.462 38.0913 175.108 38.4956C174.755 38.8999 174.485 39.376 174.315 39.8942C174.146 40.4123 174.08 40.9614 174.124 41.5071C174.079 42.0595 174.143 42.6155 174.31 43.1415C174.478 43.6674 174.746 44.1525 175.099 44.5672C175.451 44.9819 175.88 45.3177 176.36 45.5542C176.841 45.7907 177.362 45.9231 177.893 45.9433C178.92 45.8191 179.868 45.3051 180.556 44.499C181.244 43.6929 181.624 42.651 181.624 41.5713C181.624 40.4917 181.244 39.4497 180.556 38.6436C179.868 37.8375 178.92 37.3235 177.893 37.1994V37.1994Z" fill="#15181C"/>
<path d="M187.299 31.5842C187.299 31.2453 187.395 30.914 187.575 30.632C187.755 30.3501 188.011 30.1301 188.311 29.9999C188.611 29.8697 188.941 29.835 189.26 29.9003C189.578 29.9656 189.871 30.1278 190.101 30.3667C190.332 30.6055 190.489 30.9102 190.554 31.2423C190.619 31.5744 190.588 31.9191 190.465 32.2329C190.342 32.5466 190.133 32.8155 189.864 33.0054C189.596 33.1954 189.279 33.298 188.954 33.3003C188.737 33.3034 188.521 33.2612 188.32 33.1762C188.118 33.0912 187.935 32.9651 187.781 32.8053C187.627 32.6455 187.505 32.4552 187.422 32.2455C187.339 32.0358 187.297 31.811 187.299 31.5842V31.5842ZM187.645 35.0281H190.218V47.9979H187.645V35.0281Z" fill="#15181C"/>
<path d="M198.606 34.8644C199.431 34.8356 200.25 35.0098 200.998 35.3728C201.746 35.7358 202.402 36.2775 202.912 36.954V35.0745H205.507V48.0444H202.912V46.0715C202.399 46.7596 201.738 47.3116 200.982 47.6828C200.226 48.054 199.397 48.2339 198.561 48.2078C195.34 48.2078 192.746 45.4528 192.746 41.4486C192.746 37.4444 195.34 34.8644 198.606 34.8644ZM199.143 37.1992C198.619 37.2054 198.103 37.324 197.625 37.5477C197.147 37.7715 196.719 38.0955 196.366 38.4996C196.014 38.9037 195.745 39.3793 195.576 39.8967C195.407 40.4141 195.342 40.9622 195.385 41.5069C195.341 42.0584 195.404 42.6134 195.571 43.1386C195.738 43.6639 196.005 44.1484 196.356 44.5629C196.707 44.9774 197.135 45.3135 197.614 45.5507C198.093 45.7879 198.613 45.9214 199.143 45.9431C200.171 45.819 201.118 45.3049 201.807 44.4988C202.495 43.6927 202.875 42.6508 202.875 41.5711C202.875 40.4915 202.495 39.4496 201.807 38.6434C201.118 37.8373 200.171 37.3233 199.143 37.1992V37.1992Z" fill="#15181C"/>
<path d="M219.991 40.702H216.635V47.9516H215.618V31.4678H220.013C223.648 31.4678 225.203 33.394 225.203 36.1374C225.203 38.8808 223.492 40.702 219.991 40.702ZM219.991 39.7564C223.022 39.7564 224.174 38.3204 224.174 36.079C224.174 33.8376 223.055 32.3667 219.991 32.3667H216.635V39.7564H219.991Z" fill="#15181C"/>
<path d="M228.927 47.9979H227.921V35.2148H228.927V37.8532C229.542 35.9853 231.052 34.958 233.468 34.958V36.032H233.132C231.03 36.032 228.927 37.1177 228.927 40.6082V47.9979Z" fill="#15181C"/>
<path d="M241.208 48.185C237.774 48.185 235.179 45.6867 235.179 41.5892C235.232 40.3525 235.631 39.1592 236.328 38.1576C237.025 37.156 237.989 36.3904 239.1 35.9558C240.21 35.5211 241.418 35.4367 242.575 35.7131C243.731 35.9894 244.783 36.6142 245.602 37.5099C246.421 38.4056 246.969 39.5327 247.179 40.751C247.389 41.9694 247.251 43.2253 246.783 44.3627C246.315 45.5 245.537 46.4687 244.546 47.1483C243.554 47.8279 242.394 48.1884 241.208 48.185V48.185ZM241.208 47.2511C243.78 47.2511 246.263 45.4766 246.263 41.5892C246.263 37.7017 243.802 35.9623 241.23 35.9623C238.658 35.9623 236.219 37.7367 236.219 41.5892C236.219 45.4416 238.635 47.2511 241.208 47.2511V47.2511Z" fill="#15181C"/>
</svg>
