<svg width="504" height="174" viewBox="0 0 504 174" fill="none" xmlns="http://www.w3.org/2000/svg">
<path d="M502.889 39.1543H259.588C258.974 39.1543 258.477 40.1113 258.477 41.2918V171.421C258.477 172.602 258.974 173.559 259.588 173.559H502.889C503.503 173.559 504 172.602 504 171.421V41.2918C504 40.1113 503.503 39.1543 502.889 39.1543Z" fill="#44BFB1"/>
<path d="M103.209 5.55543C103.214 5.456 103.214 5.35558 103.209 5.25615C102.964 4.7859 69.0798 17.2261 55.6593 20.0048C41.9773 23.0163 28.2136 24.4439 14.4425 24.2798C6.44359 22.7408 4.15501 25.8614 3.64396 28.7684C3.13292 31.6754 4.06613 34.6679 6.04365 37.3183C8.95437 41.0375 12.465 38.1306 16.2867 37.3183C19.6863 36.5061 63.8804 24.066 81.567 19.2353C71.0128 32.0601 55.1261 60.4886 49.7712 117.175C49.0157 127.178 45.9273 153.212 40.5946 153.383C38.7618 153.293 36.9414 152.777 35.1731 151.844C29.5072 149.408 22.5304 146.372 10.4653 158.898C12.3761 153.725 14.9092 145.646 15.2202 139.704C15.4202 134.702 14.3537 130.598 12.7539 130.128C11.9095 129.871 9.75427 130.427 8.50999 141.114C7.022 151.55 4.60913 161.413 1.3776 170.27L0 173.86L2.22193 172.236C2.55522 172.022 35.0176 148.168 53.3263 171.894L54.6372 173.561L54.3706 170.569C54.3706 169.628 46.7049 78.6572 82.9002 24.8783C84.9205 21.9354 87.1703 19.6268 89.566 18.0383L103.275 8.80437L103.209 5.55543Z" fill="white"/>
<path d="M134.338 57.9238L134.227 57.71L134.538 57.1543L134.071 57.539C133.354 57.0321 132.566 57.0321 131.849 57.539C109.763 72.8861 71.546 81.436 71.1682 81.4787H70.3905L70.5905 82.7185C72.8125 95.5434 76.6342 94.0044 81.9668 92.1234C83.4999 91.5677 85.233 90.9692 87.1439 90.6272C94.2985 89.3019 120.473 70.1501 129.183 63.6095C121.273 79.5978 114.251 103.965 112.652 115.165C111.563 122.647 112.185 140.815 112.652 153.17C112.652 154.666 112.652 156.162 112.785 157.445H112.296C110.381 152.289 108.057 147.744 105.408 143.979C100.453 137.224 79.1894 119.44 78.3895 118.799C71.4349 111.66 68.5686 113.37 67.2799 115.123C65.0579 118.372 65.5023 125.34 64.8802 138.549C64.436 147.79 63.5887 156.942 62.3472 165.909C61.6584 168.688 60.9696 171.68 61.2362 172.022C61.5028 172.364 61.7695 172.022 63.4581 167.747C64.3257 166.359 65.2636 165.141 66.2578 164.114C75.0686 156.175 85.0907 154.76 94.4096 160.138C99.4599 162.958 104.774 163.571 109.963 161.933C111.228 164.42 112.409 167.061 113.496 169.842L114.363 172.193L114.762 169.543C114.762 169.03 115.451 164.755 116.251 158.685C117.808 157.775 119.301 156.497 120.695 154.88C121.598 153.803 122.459 152.603 123.272 151.289L116.607 155.564C118.251 142.739 120.317 124.741 120.206 115.379C120.095 106.017 124.806 87.5064 133.538 63.1819L133.649 62.8399C134.382 61.6002 135.049 59.3345 134.338 57.9238ZM94.143 153.042C89.5177 149.869 84.6322 148.334 79.7227 148.51C75.7742 148.609 71.8873 150.406 68.3464 153.768C69.7372 146.252 70.7782 138.512 71.4571 130.641C71.4616 129.397 71.6391 128.178 71.9712 127.11C72.3033 126.043 72.7779 125.166 73.3457 124.57C74.6587 123.99 76.0369 124.371 77.2119 125.639H77.3896C88.9007 130.976 99.4581 142.151 107.963 158.001C103.251 157.732 98.5888 156.059 94.143 153.042V153.042Z" fill="white"/>
<path d="M194.908 0.425308C192.352 -1.88317 188.819 5.85447 188.02 8.07745C186.109 13.2929 182.22 65.9604 181.776 72.2018C180.11 119.226 173.577 149.835 171.533 158.385C165.67 139.156 159.23 120.6 152.247 102.811C147.603 91.0116 145.159 72.8858 138.404 70.1498C138.029 70.0922 137.652 70.233 137.315 70.557C136.979 70.8809 136.694 71.3758 136.493 71.988C131.449 87.2924 135.16 113.156 130.983 138.592C129.441 147.976 127.586 157.157 125.428 166.08L123.206 173.989L126.428 167.918C136.404 149.066 146.714 158.47 157.535 168.431L158.468 169.286C161.621 172.514 165.151 174.134 168.722 173.991C172.292 173.849 175.784 171.95 178.865 168.474L183.309 162.446L178.221 165.823C169.044 171.894 159.246 156.504 159.09 156.247C147.692 141.542 139.582 143.209 135.427 145.945C137.648 137.951 139.004 123.117 140.293 106.23C140.87 98.7066 141.692 96.9111 142.159 96.5263C142.626 96.1416 143.559 97.2958 144.159 98.2363C144.412 98.7421 144.714 99.1487 145.047 99.4333C146.581 102.127 161.201 140.601 170.777 166.08L170.955 166.507H171.222C172.022 166.507 179.154 166.935 184.731 103.623C188.042 66.0031 190.953 51.34 193.063 40.6099C194.727 33.0629 195.833 25.1058 196.352 16.9694C197.174 7.35072 196.641 2.00704 194.908 0.425308Z" fill="white"/>
<path d="M243.19 140.426C241.635 139.742 239.324 144.273 238.213 148.976C238.213 148.976 231.747 168.256 216.416 161.801C205.306 156.927 198.107 160.689 194.885 163.169L195.218 161.843C197.395 149.46 199.161 136.824 200.507 124.01C201.025 126.793 201.826 129.35 202.862 131.534C204.128 133.586 226.37 127.943 235.235 118.324C239.435 113.75 241.701 109.262 242.101 104.559C242.203 102.901 242.112 101.221 241.835 99.6392C241.559 98.0572 241.103 96.6131 240.501 95.4107C240.013 94.2137 238.613 93.4442 234.68 91.3922C227.459 87.673 214.016 80.7475 205.795 65.7424C201.507 58.0475 198.529 55.4398 196.685 57.7483C194.463 60.698 195.152 70.1884 195.263 71.3426C195.907 78.2253 197.24 133.971 192.174 161.886L191.441 172.445C192.98 170.031 194.734 168.177 196.618 166.973C196.901 166.769 197.191 166.597 197.485 166.46C198.774 165.905 200.795 165.99 206.795 168.256C210.661 169.667 215.949 171.633 223.215 173.001C224.792 173.3 226.259 173.429 227.659 173.429C244.323 173.429 245.434 153.294 245.434 152.353C245.234 147.309 244.679 141.153 243.19 140.426ZM201.307 82.1155C200.793 78.8152 200.538 75.386 200.551 71.9411C201.185 73.1462 201.731 74.5126 202.173 76.0023C205.995 87.6302 233.902 100.84 239.035 103.191C238.157 106.589 236.73 109.349 234.969 111.057C226.081 121.189 207.55 123.07 203.862 120.205C203.27 119.659 202.628 119.34 201.973 119.265C201.624 119.24 201.281 119.435 200.995 119.821C203.328 93.1021 201.418 82.5003 201.307 82.1155V82.1155Z" fill="white"/>
<path d="M273.208 79.2109H278.719L289.651 126.235L300.538 79.2109H306.004V139.06H300.894V98.0208L291.406 139.06H287.851L278.319 98.0208V139.06H273.208V79.2109Z" fill="#1A1A1A"/>
<path d="M323.357 139.913C321.685 140.016 320.02 139.444 318.47 138.234C316.92 137.023 315.519 135.201 314.357 132.886C313.196 130.57 312.299 127.811 311.725 124.788C311.151 121.765 310.913 118.544 311.025 115.332C311.025 100.413 316.047 90.8798 323.357 90.8798C324.965 90.7376 326.57 91.2457 328.07 92.3713C329.569 93.4969 330.929 95.2149 332.062 97.4145C333.194 99.6141 334.075 102.246 334.646 105.141C335.217 108.036 335.467 111.129 335.378 114.221C335.385 115.838 335.326 117.453 335.2 119.052H316.336C316.405 122.518 317.185 125.79 318.505 128.154C319.825 130.517 321.577 131.778 323.379 131.663C324.586 131.815 325.789 131.259 326.829 130.069C327.868 128.878 328.695 127.108 329.201 124.994H334.711C333.94 129.543 332.408 133.474 330.354 136.173C328.301 138.872 325.84 140.187 323.357 139.913ZM316.336 111.143H330.023C330.001 109.467 329.803 107.818 329.439 106.294C329.076 104.771 328.555 103.406 327.909 102.282C327.262 101.158 326.504 100.299 325.679 99.7574C324.855 99.2156 323.981 99.0023 323.113 99.1304C321.397 99.0688 319.734 100.283 318.472 102.521C317.209 104.759 316.444 107.847 316.336 111.143Z" fill="#1A1A1A"/>
<path d="M350.398 91.054C352.008 91.0555 353.599 91.7157 355.066 92.9908C356.534 94.2658 357.843 96.1266 358.908 98.4497V75.4932H364.063V139.318H358.908V132.179C357.92 134.727 356.625 136.778 355.136 138.155C353.646 139.532 352.005 140.195 350.354 140.088C343.843 140.088 338.688 129.999 338.688 115.336C338.688 100.673 343.843 91.054 350.398 91.054ZM351.42 99.6039C350.378 99.6207 349.349 100.051 348.397 100.868C347.445 101.684 346.591 102.87 345.889 104.35C345.186 105.831 344.649 107.574 344.313 109.472C343.976 111.369 343.847 113.38 343.932 115.379C343.844 117.401 343.971 119.437 344.304 121.363C344.637 123.289 345.169 125.066 345.869 126.584C346.569 128.103 347.422 129.332 348.376 130.199C349.33 131.065 350.366 131.549 351.42 131.623C353.461 131.169 355.345 129.287 356.711 126.335C358.078 123.383 358.834 119.567 358.834 115.614C358.834 111.66 358.078 107.845 356.711 104.893C355.345 101.941 353.461 100.058 351.42 99.6039V99.6039Z" fill="#1A1A1A"/>
<path d="M370.107 79.0399C370.107 77.7988 370.298 76.5855 370.655 75.5531C371.013 74.5206 371.522 73.7152 372.118 73.2383C372.713 72.7614 373.369 72.6345 374.002 72.8735C374.635 73.1125 375.217 73.7068 375.675 74.5814C376.132 75.456 376.445 76.5717 376.574 77.7879C376.702 79.0041 376.641 80.2663 376.397 81.4153C376.153 82.5643 375.738 83.5486 375.204 84.2443C374.669 84.9399 374.04 85.3156 373.395 85.3241C372.963 85.3355 372.535 85.181 372.135 84.8698C371.735 84.5585 371.371 84.0968 371.064 83.5115C370.758 82.9263 370.516 82.2293 370.351 81.4615C370.187 80.6936 370.104 79.8704 370.107 79.0399V79.0399ZM370.795 91.651H375.906V139.146H370.795V91.651Z" fill="#1A1A1A"/>
<path d="M392.57 91.0523C394.208 90.9468 395.836 91.5846 397.322 92.9139C398.808 94.2433 400.111 96.2269 401.125 98.7044V91.8217H406.28V139.317H401.125V132.092C400.105 134.612 398.791 136.633 397.289 137.992C395.788 139.352 394.14 140.01 392.481 139.915C386.082 139.915 380.927 129.826 380.927 115.163C380.927 100.5 386.082 91.0523 392.57 91.0523ZM393.637 99.6022C392.597 99.6247 391.57 100.059 390.621 100.878C389.672 101.698 388.82 102.884 388.12 104.364C387.42 105.844 386.885 107.586 386.55 109.48C386.215 111.375 386.086 113.382 386.171 115.377C386.083 117.396 386.209 119.429 386.541 121.352C386.872 123.275 387.403 125.049 388.1 126.567C388.798 128.086 389.648 129.316 390.6 130.185C391.551 131.053 392.584 131.542 393.637 131.622C395.678 131.167 397.561 129.285 398.928 126.333C400.295 123.381 401.05 119.565 401.05 115.612C401.05 111.658 400.295 107.843 398.928 104.891C397.561 101.939 395.678 100.057 393.637 99.6022V99.6022Z" fill="#1A1A1A"/>
<path d="M435.053 112.428H428.388V138.976H426.366V78.6133H435.098C442.319 78.6133 445.408 85.667 445.408 95.7131C445.408 105.759 442.008 112.428 435.053 112.428ZM435.053 108.966C441.075 108.966 443.363 103.707 443.363 95.4994C443.363 87.2914 441.141 81.905 435.053 81.905H428.388V108.966H435.053Z" fill="#1A1A1A"/>
<path d="M452.807 139.145H450.807V92.334H452.807V101.995C454.029 95.1555 457.028 91.3936 461.828 91.3936V95.3265H461.161C456.984 95.3265 452.807 99.3022 452.807 112.084V139.145Z" fill="#1A1A1A"/>
<path d="M477.203 139.83C470.382 139.83 465.227 130.682 465.227 115.677C465.332 111.148 466.125 106.778 467.51 103.11C468.895 99.4428 470.809 96.639 473.015 95.0475C475.222 93.4559 477.622 93.1469 479.919 94.1587C482.216 95.1705 484.307 97.4586 485.933 100.739C487.56 104.019 488.649 108.146 489.066 112.607C489.484 117.069 489.21 121.668 488.28 125.833C487.35 129.998 485.804 133.545 483.835 136.034C481.865 138.522 479.559 139.842 477.203 139.83V139.83ZM477.203 136.41C482.314 136.41 487.246 129.912 487.246 115.677C487.246 101.441 482.358 95.0713 477.248 95.0713C472.137 95.0713 467.293 101.569 467.293 115.677C467.293 129.784 472.093 136.41 477.203 136.41V136.41Z" fill="#1A1A1A"/>
</svg>
