<svg width="316" height="82" viewBox="0 0 316 82" fill="none" xmlns="http://www.w3.org/2000/svg">
<path d="M315 18.4521H162.601C162.217 18.4521 161.905 18.9031 161.905 19.4595V80.785C161.905 81.3413 162.217 81.7923 162.601 81.7923H315C315.385 81.7923 315.696 81.3413 315.696 80.785V19.4595C315.696 18.9031 315.385 18.4521 315 18.4521Z" fill="#44BFB1"/>
<path d="M64.6479 2.61786C64.6516 2.571 64.6516 2.52368 64.6479 2.47682C64.4948 2.25521 43.2703 8.11783 34.8639 9.42734C26.2938 10.8466 17.6724 11.5193 9.04653 11.442C4.03615 10.7167 2.60262 12.1874 2.28251 13.5573C1.9624 14.9273 2.54695 16.3375 3.78563 17.5866C5.60885 19.3393 7.80786 17.9694 10.2017 17.5866C12.3311 17.2038 40.0135 11.3412 51.092 9.06469C44.4811 15.1086 34.5299 28.5059 31.1757 55.22C30.7025 59.9342 28.768 72.2034 25.4277 72.2839C24.2797 72.2415 23.1394 71.998 22.0318 71.5587C18.4828 70.4103 14.1126 68.9799 6.55526 74.8828C7.75218 72.4451 9.33881 68.6375 9.53366 65.8371C9.65892 63.48 8.99087 61.5459 7.98879 61.3243C7.45992 61.2035 6.10989 61.4654 5.3305 66.502C4.39845 71.4198 2.88707 76.068 0.862904 80.2417L0 81.934L1.39177 81.1685C1.60054 81.0678 21.9344 69.8261 33.4026 81.0073L34.2237 81.793L34.0567 80.3828C34.0567 79.9396 29.2551 37.0681 51.9271 11.724C53.1926 10.3372 54.6018 9.24922 56.1024 8.50059L64.6897 4.14897L64.6479 2.61786Z" fill="#77459B"/>
<path d="M84.1466 27.2972L84.077 27.1965L84.2718 26.9346L83.9796 27.1159C83.5303 26.877 83.037 26.877 82.5878 27.1159C68.7536 34.3484 44.815 38.3777 44.5784 38.3978H44.0913L44.2166 38.9821C45.6084 45.026 48.0022 44.3007 51.3425 43.4143C52.3028 43.1524 53.3884 42.8703 54.5853 42.7091C59.0668 42.0846 75.4619 33.059 80.9177 29.9767C75.9629 37.5114 71.5649 48.9948 70.5629 54.2732C69.8809 57.7988 70.2706 66.361 70.5629 72.1833C70.5629 72.8884 70.5629 73.5935 70.6464 74.1979H70.3402C69.1409 71.768 67.6849 69.6265 66.0257 67.8518C62.922 64.6687 49.6028 56.2878 49.1017 55.9856C44.7455 52.6212 42.9501 53.427 42.1428 54.253C40.7511 55.7841 41.0294 59.068 40.6397 65.2932C40.3615 69.6479 39.8308 73.961 39.0531 78.1869C38.6217 79.4964 38.1902 80.9066 38.3572 81.0678C38.5242 81.229 38.6912 81.0678 39.749 79.0532C40.2924 78.3988 40.8799 77.825 41.5026 77.3407C47.0216 73.5996 53.2992 72.9326 59.1364 75.4671C62.2998 76.7959 65.6283 77.085 68.8788 76.3133C69.6714 77.4849 70.4107 78.7299 71.0917 80.0403L71.6345 81.1484L71.885 79.8993C71.885 79.6576 72.3165 77.6429 72.8175 74.7822C73.793 74.3533 74.728 73.751 75.6011 72.9891C76.1665 72.4816 76.706 71.916 77.2155 71.2968L73.0402 73.3114C74.0701 67.2675 75.3645 58.7859 75.2949 54.3739C75.2253 49.9618 78.1759 41.2385 83.6455 29.7752L83.7151 29.614C84.1744 29.0298 84.5919 27.962 84.1466 27.2972ZM58.9694 72.1228C56.0722 70.6278 53.012 69.9043 49.9368 69.9873C47.4636 70.0341 45.0289 70.8807 42.8109 72.4653C43.6821 68.9229 44.3342 65.2755 44.7594 61.5661C44.7622 60.9798 44.8734 60.4053 45.0814 59.9022C45.2894 59.3992 45.5867 58.9859 45.9424 58.7053C46.7648 58.4319 47.6281 58.6114 48.3641 59.209H48.4754C55.6857 61.7243 62.2987 66.9906 67.6262 74.4598C64.6745 74.3334 61.7542 73.545 58.9694 72.1228V72.1228Z" fill="#77459B"/>
<path d="M122.086 0.200433C120.486 -0.88747 118.273 2.759 117.772 3.80661C116.575 6.26447 114.139 31.0848 113.861 34.0261C112.817 56.1871 108.725 70.6119 107.445 74.6412C103.773 65.5792 99.7388 56.8343 95.3643 48.4509C92.4555 42.8905 90.9245 34.3485 86.6936 33.0591C86.4585 33.032 86.2227 33.0983 86.0117 33.251C85.8008 33.4037 85.6227 33.6369 85.4966 33.9254C82.3373 41.1378 84.6616 53.3263 82.045 65.3134C81.0795 69.7356 79.9173 74.0627 78.5656 78.2675L77.1738 81.9946L79.1919 79.1338C85.441 70.2493 91.8988 74.6815 98.6767 79.3756L99.2613 79.7785C101.236 81.2995 103.447 82.0629 105.684 81.9959C107.921 81.9289 110.108 81.0337 112.038 79.3957L114.821 76.5551L111.634 78.1466C105.886 81.0074 99.7484 73.7547 99.651 73.6339C92.5112 66.7035 87.4312 67.4892 84.8286 68.7786C86.2204 65.0112 87.0693 58.0204 87.8766 50.0626C88.2384 46.5169 88.7534 45.6707 89.0457 45.4894C89.3379 45.3081 89.9225 45.852 90.2982 46.2953C90.4569 46.5336 90.6459 46.7252 90.855 46.8594C91.8153 48.1286 100.973 66.2603 106.972 78.2675L107.083 78.469H107.25C107.751 78.469 112.219 78.6705 115.712 48.8337C117.786 31.1049 119.609 24.1947 120.931 19.138C121.973 15.5814 122.666 11.8315 122.991 7.99706C123.506 3.46413 123.172 0.945847 122.086 0.200433Z" fill="#77459B"/>
<path d="M152.33 66.1781C151.355 65.8558 149.908 67.9913 149.212 70.2074C149.212 70.2074 145.162 79.2934 135.559 76.2513C128.6 73.9546 124.09 75.7275 122.072 76.896L122.281 76.2714C123.644 70.4355 124.751 64.4804 125.594 58.4419C125.919 59.7534 126.42 60.9586 127.069 61.9877C127.862 62.9547 141.794 60.2954 147.347 55.7625C149.977 53.6068 151.397 51.4915 151.648 49.2754C151.711 48.4942 151.654 47.7023 151.481 46.9568C151.308 46.2113 151.022 45.5307 150.646 44.964C150.339 44.3999 149.463 44.0373 146.999 43.0703C142.476 41.3175 134.056 38.0538 128.906 30.9825C126.22 27.3561 124.355 26.1272 123.2 27.2151C121.808 28.6052 122.239 33.0777 122.309 33.6216C122.713 36.8652 123.548 63.136 120.374 76.2916L119.915 81.2677C120.879 80.13 121.978 79.2561 123.158 78.689C123.335 78.5925 123.517 78.5118 123.701 78.4473C124.508 78.1854 125.775 78.2256 129.532 79.2934C131.954 79.9582 135.266 80.885 139.818 81.5296C140.806 81.6707 141.724 81.7311 142.601 81.7311C153.039 81.7311 153.735 72.2422 153.735 71.799C153.61 69.4217 153.262 66.5206 152.33 66.1781ZM126.095 38.6985C125.773 37.1432 125.614 35.5271 125.621 33.9037C126.019 34.4716 126.361 35.1155 126.637 35.8176C129.031 41.2974 146.512 47.5226 149.727 48.6307C149.177 50.232 148.283 51.5325 147.18 52.3376C141.613 57.1123 130.006 57.9987 127.695 56.6489C127.324 56.3916 126.923 56.2411 126.512 56.2057C126.294 56.194 126.079 56.286 125.9 56.4676C127.361 43.8761 126.164 38.8798 126.095 38.6985V38.6985Z" fill="#77459B"/>
<path d="M171.132 37.3291H174.584L181.432 59.4901L188.251 37.3291H191.675V65.534H188.474V46.1935L182.531 65.534H180.304L174.334 46.1935V65.534H171.132V37.3291Z" fill="#1A1A1A"/>
<path d="M202.545 65.9362C201.498 65.9847 200.455 65.715 199.484 65.1446C198.513 64.5741 197.635 63.7155 196.908 62.6242C196.18 61.5328 195.618 60.2329 195.259 58.8082C194.899 57.3834 194.75 55.8654 194.82 54.3521C194.82 47.321 197.966 42.8284 202.545 42.8284C203.552 42.7614 204.557 43.0008 205.497 43.5313C206.436 44.0617 207.288 44.8714 207.997 45.908C208.707 46.9445 209.258 48.185 209.616 49.5493C209.974 50.9135 210.13 52.3712 210.074 53.8283C210.079 54.5902 210.042 55.3514 209.963 56.1048H198.147C198.19 57.7384 198.679 59.2805 199.506 60.3942C200.332 61.5079 201.43 62.1024 202.559 62.048C203.315 62.1198 204.068 61.8579 204.719 61.2967C205.37 60.7356 205.889 59.9016 206.205 58.9052H209.657C209.174 61.0492 208.214 62.9016 206.928 64.1734C205.641 65.4453 204.1 66.0651 202.545 65.9362ZM198.147 52.3777H206.72C206.707 51.588 206.582 50.8106 206.355 50.0926C206.127 49.3747 205.801 48.7314 205.396 48.2018C204.991 47.6722 204.516 47.2674 203.999 47.0121C203.483 46.7568 202.936 46.6562 202.392 46.7166C201.317 46.6876 200.275 47.2599 199.485 48.3145C198.694 49.369 198.215 50.8245 198.147 52.3777Z" fill="#1A1A1A"/>
<path d="M219.483 42.9104C220.491 42.9111 221.488 43.2223 222.407 43.8231C223.326 44.424 224.146 45.301 224.813 46.3957V35.5771H228.042V65.6556H224.813V62.2912C224.194 63.4921 223.383 64.4583 222.45 65.1073C221.517 65.7563 220.489 66.0688 219.455 66.0183C215.377 66.0183 212.148 61.2637 212.148 54.3535C212.148 47.4433 215.377 42.9104 219.483 42.9104ZM220.123 46.9397C219.47 46.9476 218.826 47.1503 218.229 47.5352C217.633 47.9201 217.098 48.4788 216.658 49.1766C216.218 49.8743 215.882 50.6959 215.671 51.5901C215.46 52.4844 215.379 53.432 215.433 54.3737C215.378 55.3269 215.457 56.2864 215.665 57.1941C215.874 58.1018 216.207 58.9388 216.646 59.6545C217.084 60.3702 217.619 60.9497 218.216 61.3579C218.814 61.7661 219.463 61.9945 220.123 62.0293C221.402 61.8151 222.581 60.9281 223.437 59.5369C224.294 58.1458 224.767 56.3476 224.767 54.4845C224.767 52.6213 224.294 50.8232 223.437 49.4321C222.581 48.0409 221.402 47.1539 220.123 46.9397V46.9397Z" fill="#1A1A1A"/>
<path d="M231.828 37.2486C231.828 36.6637 231.947 36.0919 232.172 35.6053C232.396 35.1188 232.715 34.7392 233.088 34.5145C233.461 34.2897 233.871 34.2299 234.268 34.3426C234.664 34.4552 235.029 34.7353 235.315 35.1474C235.602 35.5596 235.798 36.0854 235.879 36.6585C235.959 37.2317 235.921 37.8265 235.768 38.368C235.615 38.9095 235.355 39.3734 235.02 39.7012C234.686 40.029 234.292 40.2061 233.888 40.2101C233.617 40.2154 233.349 40.1426 233.098 39.996C232.848 39.8493 232.62 39.6317 232.428 39.3559C232.236 39.0801 232.084 38.7516 231.981 38.3897C231.878 38.0279 231.826 37.6399 231.828 37.2486V37.2486ZM232.259 43.1917H235.46V65.5743H232.259V43.1917Z" fill="#1A1A1A"/>
<path d="M245.899 42.9096C246.925 42.8599 247.944 43.1605 248.875 43.7869C249.806 44.4134 250.622 45.3482 251.257 46.5158V43.2722H254.486V65.6548H251.257V62.2501C250.618 63.4375 249.795 64.3902 248.855 65.0308C247.914 65.6714 246.882 65.9818 245.843 65.9369C241.835 65.9369 238.606 61.1823 238.606 54.2721C238.606 47.3619 241.835 42.9096 245.899 42.9096ZM246.567 46.9389C245.915 46.9495 245.272 47.1542 244.677 47.5403C244.083 47.9264 243.55 48.4856 243.111 49.183C242.672 49.8804 242.338 50.7011 242.128 51.594C241.917 52.4869 241.837 53.4328 241.89 54.3729C241.835 55.3245 241.914 56.2824 242.122 57.1888C242.329 58.0952 242.662 58.9313 243.099 59.6467C243.536 60.3621 244.068 60.9419 244.664 61.3513C245.26 61.7606 245.907 61.991 246.567 62.0285C247.845 61.8143 249.025 60.9272 249.881 59.5361C250.737 58.145 251.21 56.3468 251.21 54.4837C251.21 52.6205 250.737 50.8224 249.881 49.4312C249.025 48.0401 247.845 47.1531 246.567 46.9389V46.9389Z" fill="#1A1A1A"/>
<path d="M272.509 52.9836H268.334V65.4945H267.067V37.0479H272.537C277.06 37.0479 278.995 40.372 278.995 45.1064C278.995 49.8408 276.865 52.9836 272.509 52.9836ZM272.509 51.3518C276.281 51.3518 277.714 48.8738 277.714 45.0057C277.714 41.1376 276.323 38.5991 272.509 38.5991H268.334V51.3518H272.509Z" fill="#1A1A1A"/>
<path d="M283.63 65.5738H282.377V43.5135H283.63V48.0666C284.395 44.8432 286.274 43.0703 289.28 43.0703V44.9238H288.863C286.246 44.9238 283.63 46.7974 283.63 52.8211V65.5738Z" fill="#1A1A1A"/>
<path d="M298.911 65.8969C294.638 65.8969 291.409 61.5856 291.409 54.5142C291.475 52.38 291.972 50.3207 292.84 48.5923C293.707 46.8638 294.906 45.5425 296.288 44.7925C297.67 44.0424 299.174 43.8968 300.612 44.3736C302.051 44.8505 303.361 45.9288 304.379 47.4745C305.398 49.0203 306.081 50.9653 306.342 53.0678C306.603 55.1704 306.432 57.3378 305.849 59.3005C305.267 61.2633 304.298 62.935 303.065 64.1078C301.831 65.2806 300.387 65.9027 298.911 65.8969V65.8969ZM298.911 64.2852C302.112 64.2852 305.202 61.223 305.202 54.5142C305.202 47.8055 302.14 44.8037 298.939 44.8037C295.738 44.8037 292.704 47.8659 292.704 54.5142C292.704 61.1625 295.71 64.2852 298.911 64.2852V64.2852Z" fill="#1A1A1A"/>
</svg>
