<svg width="56" height="58" viewBox="0 0 56 58" fill="none" xmlns="http://www.w3.org/2000/svg">
<path fill-rule="evenodd" clip-rule="evenodd" d="M12.4497 18.6822H12.3916C9.48473 18.6822 7.60011 16.6915 7.60011 14.168C7.60011 11.5955 9.54045 9.64648 12.5055 9.64648C15.468 9.64648 17.2897 11.5906 17.3478 14.1607C17.3478 16.6841 15.468 18.6822 12.4497 18.6822ZM48.8001 47.9807H39.6943V34.5045C39.6943 30.9771 38.2699 28.569 35.1378 28.569C32.742 28.569 31.4097 30.194 30.7896 31.7601C30.5848 32.255 30.5885 32.9212 30.5923 33.6079C30.5929 33.7011 30.5934 33.7947 30.5934 33.8883V47.9807H21.5724C21.5724 47.9807 21.6887 24.1088 21.5724 21.9389H30.5934V26.0259C31.1263 24.2389 34.0089 21.6885 38.6091 21.6885C44.3162 21.6885 48.8001 25.4343 48.8001 33.5005V47.9807ZM16.6696 21.9414H8.63934V47.9833H16.6696V21.9414Z" fill="white"/>
</svg>
