<svg width="33" height="25" viewBox="0 0 33 25" fill="none" xmlns="http://www.w3.org/2000/svg">
<path d="M0.285645 1.77778C0.285645 1.30628 0.472946 0.854097 0.806343 0.520699C1.13974 0.187301 1.59193 0 2.06342 0H30.5079C30.9794 0 31.4315 0.187301 31.7649 0.520699C32.0983 0.854097 32.2856 1.30628 32.2856 1.77778C32.2856 2.24927 32.0983 2.70146 31.7649 3.03486C31.4315 3.36825 30.9794 3.55556 30.5079 3.55556H2.06342C1.59193 3.55556 1.13974 3.36825 0.806343 3.03486C0.472946 2.70146 0.285645 2.24927 0.285645 1.77778ZM0.285645 12.4444C0.285645 11.9729 0.472946 11.5208 0.806343 11.1874C1.13974 10.854 1.59193 10.6667 2.06342 10.6667H30.5079C30.9794 10.6667 31.4315 10.854 31.7649 11.1874C32.0983 11.5208 32.2856 11.9729 32.2856 12.4444C32.2856 12.9159 32.0983 13.3681 31.7649 13.7015C31.4315 14.0349 30.9794 14.2222 30.5079 14.2222H2.06342C1.59193 14.2222 1.13974 14.0349 0.806343 13.7015C0.472946 13.3681 0.285645 12.9159 0.285645 12.4444ZM0.285645 23.1111C0.285645 22.6396 0.472946 22.1874 0.806343 21.854C1.13974 21.5206 1.59193 21.3333 2.06342 21.3333H30.5079C30.9794 21.3333 31.4315 21.5206 31.7649 21.854C32.0983 22.1874 32.2856 22.6396 32.2856 23.1111C32.2856 23.5826 32.0983 24.0348 31.7649 24.3682C31.4315 24.7016 30.9794 24.8889 30.5079 24.8889H2.06342C1.59193 24.8889 1.13974 24.7016 0.806343 24.3682C0.472946 24.0348 0.285645 23.5826 0.285645 23.1111Z" fill="white"/>
</svg>
