<svg width="27" height="19" viewBox="0 0 27 19" fill="none" xmlns="http://www.w3.org/2000/svg">
<path d="M1.68803 0C2.13572 0 2.56508 0.181884 2.88164 0.50564C3.19821 0.829396 3.37605 1.2685 3.37605 1.72636V8.63181C3.37605 9.08967 3.5539 9.52878 3.87046 9.85254C4.18703 10.1763 4.61639 10.3582 5.06408 10.3582H21.2522L19.0578 8.13117C18.74 7.80609 18.5614 7.36518 18.5614 6.90545C18.5614 6.44572 18.74 6.00481 19.0578 5.67973C19.3757 5.35465 19.8068 5.17203 20.2563 5.17203C20.7058 5.17203 21.137 5.35465 21.4548 5.67973L26.5189 10.8588C26.6726 11.023 26.793 11.2166 26.8734 11.4285C27.0422 11.8488 27.0422 12.3203 26.8734 12.7406C26.793 12.9525 26.6726 13.1461 26.5189 13.3103L21.4548 18.4893C21.2979 18.6512 21.1112 18.7796 20.9055 18.8672C20.6998 18.9549 20.4792 19 20.2563 19C20.0335 19 19.8128 18.9549 19.6071 18.8672C19.4014 18.7796 19.2147 18.6512 19.0578 18.4893C18.8996 18.3289 18.774 18.1379 18.6883 17.9275C18.6026 17.7172 18.5585 17.4915 18.5585 17.2636C18.5585 17.0357 18.6026 16.8101 18.6883 16.5997C18.774 16.3893 18.8996 16.1984 19.0578 16.0379L21.2522 13.8109H5.06408C3.721 13.8109 2.43293 13.2653 1.48323 12.294C0.533535 11.3227 0 10.0054 0 8.63181V1.72636C0 1.2685 0.177845 0.829396 0.494411 0.50564C0.810978 0.181884 1.24033 0 1.68803 0Z" fill="#424242"/>
</svg>
