<svg width="56" height="58" viewBox="0 0 56 58" fill="none" xmlns="http://www.w3.org/2000/svg">
<path d="M27.6679 7.25195C16.2917 7.25195 7.06668 16.9059 7.06668 28.8167C7.06668 37.6439 12.1395 45.2311 19.3998 48.5657C19.3416 47.062 19.3901 45.2514 19.7559 43.6132C20.1532 41.8635 22.4061 31.8647 22.4061 31.8647C22.4061 31.8647 21.7496 30.4878 21.7496 28.4515C21.7496 25.2564 23.5205 22.8701 25.7226 22.8701C27.5952 22.8701 28.5012 24.3435 28.5012 26.1084C28.5012 28.0787 27.2997 31.0279 26.6819 33.759C26.1659 36.0489 27.7769 37.9127 29.933 37.9127C33.8357 37.9127 36.4641 32.6661 36.4641 26.4482C36.4641 21.7239 33.4238 18.1865 27.8932 18.1865C21.6455 18.1865 17.7525 23.0629 17.7525 28.5098C17.7525 30.3914 18.2806 31.7151 19.1091 32.7396C19.4918 33.2138 19.5427 33.4014 19.4046 33.9441C19.3077 34.3372 19.08 35.2957 18.9855 35.6735C18.8475 36.2188 18.4259 36.4165 17.956 36.2137C15.0756 34.9838 13.7359 31.6847 13.7359 27.9748C13.7359 21.8507 18.6706 14.5019 28.4576 14.5019C36.3236 14.5019 41.5005 20.4636 41.5005 26.8565C41.5005 35.316 37.0092 41.6353 30.3835 41.6353C28.1621 41.6353 26.069 40.3775 25.3519 38.9498C25.3519 38.9498 24.1552 43.9175 23.9033 44.8761C23.4672 46.5371 22.6121 48.2006 21.8296 49.4938C23.6828 50.0669 25.6402 50.3788 27.6679 50.3788C39.0441 50.3788 48.2667 40.7249 48.2667 28.8167C48.2667 16.9059 39.0441 7.25195 27.6679 7.25195Z" fill="white"/>
</svg>
