<svg width="27" height="19" viewBox="0 0 27 19" fill="none" xmlns="http://www.w3.org/2000/svg">
<path d="M25.312 0C24.8643 0 24.4349 0.181884 24.1184 0.50564C23.8018 0.829396 23.6239 1.2685 23.6239 1.72636V8.63181C23.6239 9.08967 23.4461 9.52878 23.1295 9.85254C22.813 10.1763 22.3836 10.3582 21.9359 10.3582H5.74775L7.94219 8.13117C8.26005 7.80609 8.43862 7.36518 8.43862 6.90545C8.43862 6.44572 8.26005 6.00481 7.94219 5.67973C7.62432 5.35465 7.19321 5.17203 6.74369 5.17203C6.29416 5.17203 5.86305 5.35465 5.54519 5.67973L0.48111 10.8588C0.327431 11.023 0.206965 11.2166 0.126625 11.4285C-0.0422083 11.8488 -0.0422083 12.3203 0.126625 12.7406C0.206965 12.9525 0.327431 13.1461 0.48111 13.3103L5.54519 18.4893C5.70211 18.6512 5.88881 18.7796 6.09451 18.8672C6.30021 18.9549 6.52085 19 6.74369 19C6.96653 19 7.18716 18.9549 7.39286 18.8672C7.59856 18.7796 7.78526 18.6512 7.94219 18.4893C8.1004 18.3289 8.22598 18.1379 8.31168 17.9275C8.39738 17.7172 8.4415 17.4915 8.4415 17.2636C8.4415 17.0357 8.39738 16.8101 8.31168 16.5997C8.22598 16.3893 8.1004 16.1984 7.94219 16.0379L5.74775 13.8109H21.9359C23.279 13.8109 24.5671 13.2653 25.5168 12.294C26.4665 11.3227 27 10.0054 27 8.63181V1.72636C27 1.2685 26.8222 0.829396 26.5056 0.50564C26.189 0.181884 25.7597 0 25.312 0Z" fill="#424242"/>
</svg>
