<svg xmlns="http://www.w3.org/2000/svg" xmlns:xlink="http://www.w3.org/1999/xlink" viewBox="0 0 1476 777"><defs><style>.cls-1{isolation:isolate;}.cls-2{fill:#f4f6f6;}.cls-3,.cls-59,.cls-64,.cls-67,.cls-70,.cls-73,.cls-76{fill:none;}.cls-3{stroke:#70c9c6;stroke-width:6.23px;}.cls-3,.cls-79{stroke-linecap:round;stroke-linejoin:round;}.cls-4{fill:#e1dfef;opacity:0.4;}.cls-4,.cls-5{mix-blend-mode:multiply;}.cls-6,.cls-62,.cls-79{fill:#fff;}.cls-6{opacity:0;}.cls-7{fill:#fefeff;opacity:0.02;}.cls-8{fill:#fdfdfe;opacity:0.04;}.cls-9{fill:#fcfcfe;opacity:0.06;}.cls-10{fill:#fbfbfd;opacity:0.08;}.cls-11{fill:#fafafd;opacity:0.1;}.cls-12{fill:#f9f9fc;opacity:0.12;}.cls-13{fill:#f8f8fc;opacity:0.14;}.cls-14{fill:#f7f7fb;opacity:0.16;}.cls-15{fill:#f6f6fb;opacity:0.18;}.cls-16{fill:#f5f5fa;opacity:0.2;}.cls-17{fill:#f4f4fa;opacity:0.22;}.cls-18{fill:#f3f3f9;opacity:0.24;}.cls-19{fill:#f3f2f9;opacity:0.25;}.cls-20{fill:#f2f1f8;opacity:0.27;}.cls-21{fill:#f1f0f8;opacity:0.29;}.cls-22{fill:#f0eff7;opacity:0.31;}.cls-23{fill:#efeef7;opacity:0.33;}.cls-24{fill:#eeedf7;opacity:0.35;}.cls-25{fill:#edecf6;opacity:0.37;}.cls-26{fill:#ecebf6;opacity:0.39;}.cls-27{fill:#ebeaf5;opacity:0.41;}.cls-28{fill:#eae9f5;opacity:0.43;}.cls-29{fill:#e9e8f4;opacity:0.45;}.cls-30{fill:#e8e7f4;opacity:0.47;}.cls-31{fill:#e7e6f3;opacity:0.49;}.cls-32{fill:#e6e6f3;opacity:0.51;}.cls-33{fill:#e5e5f2;opacity:0.53;}.cls-34{fill:#e4e4f2;opacity:0.55;}.cls-35{fill:#e3e3f1;opacity:0.57;}.cls-36{fill:#e2e2f1;opacity:0.59;}.cls-37{fill:#e1e1f0;opacity:0.61;}.cls-38{fill:#e0e0f0;opacity:0.63;}.cls-39{fill:#dfdfef;opacity:0.65;}.cls-40{fill:#dedeef;opacity:0.67;}.cls-41{fill:#ddddef;opacity:0.69;}.cls-42{fill:#dcdcee;opacity:0.71;}.cls-43{fill:#dbdbee;opacity:0.73;}.cls-44{fill:#dadaed;opacity:0.75;}.cls-45{fill:#dad9ed;opacity:0.76;}.cls-46{fill:#d9d8ec;opacity:0.78;}.cls-47{fill:#d8d7ec;opacity:0.8;}.cls-48{fill:#d7d6eb;opacity:0.82;}.cls-49{fill:#d6d5eb;opacity:0.84;}.cls-50{fill:#d5d4ea;opacity:0.86;}.cls-51{fill:#d4d3ea;opacity:0.88;}.cls-52{fill:#d3d2e9;opacity:0.9;}.cls-53{fill:#d2d1e9;opacity:0.92;}.cls-54{fill:#d1d0e8;opacity:0.94;}.cls-55{fill:#d0cfe8;opacity:0.96;}.cls-56{fill:#cfcee7;opacity:0.98;}.cls-57{fill:#cecde7;}.cls-58{fill:url(#Degradado_sin_nombre_4);}.cls-59,.cls-61,.cls-64,.cls-65,.cls-67,.cls-68,.cls-70,.cls-71,.cls-73,.cls-74,.cls-76,.cls-78{stroke-miterlimit:10;}.cls-59,.cls-64,.cls-67,.cls-70,.cls-73,.cls-76{stroke-width:3.79px;}.cls-59{stroke:url(#Degradado_sin_nombre_4-2);}.cls-60{font-size:19.42px;font-family:Poppins-SemiBold, Poppins;font-weight:600;}.cls-60,.cls-77{fill:#30302f;}.cls-61,.cls-65,.cls-68,.cls-71,.cls-74{stroke:#65c4b3;}.cls-61,.cls-65,.cls-68,.cls-71,.cls-74,.cls-78{stroke-width:2.5px;}.cls-61{fill:url(#Degradado_sin_nombre_3);}.cls-63{fill:url(#Degradado_sin_nombre_4-3);}.cls-64{stroke:url(#Degradado_sin_nombre_4-4);}.cls-65{fill:url(#Degradado_sin_nombre_3-2);}.cls-66{fill:url(#Degradado_sin_nombre_4-5);}.cls-67{stroke:url(#Degradado_sin_nombre_4-6);}.cls-68{fill:url(#Degradado_sin_nombre_3-3);}.cls-69{fill:url(#Degradado_sin_nombre_4-7);}.cls-70{stroke:url(#Degradado_sin_nombre_4-8);}.cls-71{fill:url(#Degradado_sin_nombre_3-4);}.cls-72{fill:url(#Degradado_sin_nombre_4-9);}.cls-73{stroke:url(#Degradado_sin_nombre_4-10);}.cls-74{fill:url(#Degradado_sin_nombre_3-5);}.cls-75{fill:url(#Degradado_sin_nombre_4-11);}.cls-76{stroke:url(#Degradado_sin_nombre_4-12);}.cls-77{font-size:25.89px;font-family:Poppins-Bold, Poppins;font-weight:700;}.cls-78{stroke:#a588bf;fill:url(#Degradado_sin_nombre_5);}.cls-79{stroke:#fff;stroke-width:0.45px;}</style><linearGradient id="Degradado_sin_nombre_4" x1="405.19" y1="302.46" x2="511.04" y2="554.87" gradientUnits="userSpaceOnUse"><stop offset="0" stop-color="#d6dcdf"/><stop offset="0.92" stop-color="#fbfcfc"/><stop offset="1" stop-color="#fff"/></linearGradient><linearGradient id="Degradado_sin_nombre_4-2" x1="527.28" y1="549.43" x2="391.93" y2="315" xlink:href="#Degradado_sin_nombre_4"/><linearGradient id="Degradado_sin_nombre_3" x1="454.43" y1="351.5" x2="462.19" y2="391.35" gradientUnits="userSpaceOnUse"><stop offset="0" stop-color="#1eb79d"/><stop offset="1" stop-color="#6bc6b7"/></linearGradient><linearGradient id="Degradado_sin_nombre_4-3" x1="126.63" y1="392.46" x2="232.48" y2="644.87" xlink:href="#Degradado_sin_nombre_4"/><linearGradient id="Degradado_sin_nombre_4-4" x1="248.72" y1="639.43" x2="113.37" y2="405" xlink:href="#Degradado_sin_nombre_4"/><linearGradient id="Degradado_sin_nombre_3-2" x1="175.87" y1="441.5" x2="183.64" y2="481.35" xlink:href="#Degradado_sin_nombre_3"/><linearGradient id="Degradado_sin_nombre_4-5" x1="962.31" y1="302.46" x2="1068.15" y2="554.87" xlink:href="#Degradado_sin_nombre_4"/><linearGradient id="Degradado_sin_nombre_4-6" x1="1084.39" y1="549.43" x2="949.05" y2="315" xlink:href="#Degradado_sin_nombre_4"/><linearGradient id="Degradado_sin_nombre_3-3" x1="1011.54" y1="351.5" x2="1019.31" y2="391.35" xlink:href="#Degradado_sin_nombre_3"/><linearGradient id="Degradado_sin_nombre_4-7" x1="1240.86" y1="392.46" x2="1346.71" y2="644.87" xlink:href="#Degradado_sin_nombre_4"/><linearGradient id="Degradado_sin_nombre_4-8" x1="1362.95" y1="639.43" x2="1227.6" y2="405" xlink:href="#Degradado_sin_nombre_4"/><linearGradient id="Degradado_sin_nombre_3-4" x1="1290.1" y1="441.5" x2="1297.87" y2="481.35" xlink:href="#Degradado_sin_nombre_3"/><linearGradient id="Degradado_sin_nombre_4-9" x1="683.75" y1="392.46" x2="789.59" y2="644.87" xlink:href="#Degradado_sin_nombre_4"/><linearGradient id="Degradado_sin_nombre_4-10" x1="805.83" y1="639.43" x2="670.49" y2="405" xlink:href="#Degradado_sin_nombre_4"/><linearGradient id="Degradado_sin_nombre_3-5" x1="732.98" y1="441.5" x2="740.75" y2="481.35" xlink:href="#Degradado_sin_nombre_3"/><linearGradient id="Degradado_sin_nombre_4-11" x1="705.05" y1="37.02" x2="746.54" y2="185.07" xlink:href="#Degradado_sin_nombre_4"/><linearGradient id="Degradado_sin_nombre_4-12" x1="814.08" y1="286.36" x2="661.92" y2="22.82" xlink:href="#Degradado_sin_nombre_4"/><linearGradient id="Degradado_sin_nombre_5" x1="580.57" y1="116.07" x2="590.81" y2="168.6" gradientTransform="translate(602.41 -453.44) rotate(76.65)" gradientUnits="userSpaceOnUse"><stop offset="0" stop-color="#77469a"/><stop offset="1" stop-color="#a285bd"/></linearGradient></defs><title>SM PostArtboard 5</title><g class="cls-1"><g id="Layer_1" data-name="Layer 1"><rect class="cls-2" width="1476" height="777"/><path class="cls-3" d="M494.21,159.91H187.41c-3.25,0-5.88,3.29-5.88,7.34V380.53"/><path class="cls-3" d="M494.21,159.91h-30c-.32,0-.58,2-.58,4.35V290.6"/><path class="cls-3" d="M982.15,159.91H1289c3.25,0,5.88,3.29,5.88,7.34V380.53"/><path class="cls-3" d="M982.15,159.91h30c.32,0,.58,2,.58,4.35V290.6"/><line class="cls-3" x1="738.18" y1="236.55" x2="738.18" y2="380.53"/><circle class="cls-4" cx="459.44" cy="432.22" r="121.05" transform="translate(-171.06 451.47) rotate(-45)"/><g class="cls-5"><circle class="cls-6" cx="463.67" cy="486.78" r="109.39"/><circle class="cls-7" cx="463.67" cy="486.31" r="108.73"/><circle class="cls-8" cx="463.67" cy="485.83" r="108.06"/><circle class="cls-9" cx="463.67" cy="485.36" r="107.39"/><circle class="cls-10" cx="463.67" cy="484.88" r="106.72"/><circle class="cls-11" cx="463.67" cy="484.4" r="106.05"/><circle class="cls-12" cx="463.67" cy="483.93" r="105.38"/><circle class="cls-13" cx="463.67" cy="483.45" r="104.71"/><circle class="cls-14" cx="463.67" cy="482.98" r="104.05"/><circle class="cls-15" cx="463.67" cy="482.5" r="103.38"/><circle class="cls-16" cx="463.67" cy="482.03" r="102.71"/><circle class="cls-17" cx="463.67" cy="481.55" r="102.04"/><circle class="cls-18" cx="463.67" cy="481.07" r="101.37"/><circle class="cls-19" cx="463.67" cy="480.6" r="100.7"/><circle class="cls-20" cx="463.67" cy="480.12" r="100.04"/><circle class="cls-21" cx="463.67" cy="479.65" r="99.37"/><circle class="cls-22" cx="463.67" cy="479.17" r="98.7"/><circle class="cls-23" cx="463.67" cy="478.69" r="98.03"/><circle class="cls-24" cx="463.67" cy="478.22" r="97.36"/><circle class="cls-25" cx="463.67" cy="477.74" r="96.69"/><circle class="cls-26" cx="463.67" cy="477.27" r="96.02"/><circle class="cls-27" cx="463.67" cy="476.79" r="95.36"/><circle class="cls-28" cx="463.67" cy="476.32" r="94.69"/><circle class="cls-29" cx="463.67" cy="475.84" r="94.02"/><circle class="cls-30" cx="463.67" cy="475.36" r="93.35"/><circle class="cls-31" cx="463.67" cy="474.89" r="92.68"/><circle class="cls-32" cx="463.67" cy="474.41" r="92.01"/><circle class="cls-33" cx="463.67" cy="473.94" r="91.34"/><circle class="cls-34" cx="463.67" cy="473.46" r="90.68"/><circle class="cls-35" cx="463.67" cy="472.99" r="90.01"/><circle class="cls-36" cx="463.67" cy="472.51" r="89.34"/><circle class="cls-37" cx="463.67" cy="472.03" r="88.67"/><circle class="cls-38" cx="463.67" cy="471.56" r="88"/><circle class="cls-39" cx="463.67" cy="471.08" r="87.33"/><circle class="cls-40" cx="463.67" cy="470.61" r="86.67"/><circle class="cls-41" cx="463.67" cy="470.13" r="86"/><circle class="cls-42" cx="463.67" cy="469.65" r="85.33"/><circle class="cls-43" cx="463.67" cy="469.18" r="84.66"/><circle class="cls-44" cx="463.67" cy="468.7" r="83.99"/><circle class="cls-45" cx="463.67" cy="468.23" r="83.32"/><circle class="cls-46" cx="463.67" cy="467.75" r="82.65"/><circle class="cls-47" cx="463.67" cy="467.28" r="81.99"/><circle class="cls-48" cx="463.67" cy="466.8" r="81.32"/><circle class="cls-49" cx="463.67" cy="466.32" r="80.65"/><circle class="cls-50" cx="463.67" cy="465.85" r="79.98"/><circle class="cls-51" cx="463.67" cy="465.37" r="79.31"/><circle class="cls-52" cx="463.67" cy="464.9" r="78.64"/><circle class="cls-53" cx="463.67" cy="464.42" r="77.98"/><circle class="cls-54" cx="463.67" cy="463.95" r="77.31"/><circle class="cls-55" cx="463.67" cy="463.47" r="76.64"/><circle class="cls-56" cx="463.67" cy="462.99" r="75.97"/><circle class="cls-57" cx="463.67" cy="462.52" r="75.3"/></g><rect class="cls-58" x="353.87" y="326.49" width="211.46" height="211.46" rx="30"/><rect class="cls-59" x="353.87" y="326.49" width="211.46" height="211.46" rx="30"/><text class="cls-60" transform="translate(406.22 440.39)">REVIEWING <tspan x="-6" y="23.3">FEEDBACK &amp; </tspan><tspan x="-6" y="46.6">CUSTOMERS </tspan><tspan x="-3.35" y="69.9">EXPERIENCE</tspan></text><g class="cls-5"><circle class="cls-6" cx="459.6" cy="395.26" r="28.37" transform="translate(-15.24 772.08) rotate(-79.13)"/><circle class="cls-7" cx="459.6" cy="395.09" r="28.15" transform="translate(-14.24 772.98) rotate(-79.26)"/><circle class="cls-8" cx="459.6" cy="394.92" r="27.93" transform="translate(-13.23 773.9) rotate(-79.38)"/><circle class="cls-9" cx="459.6" cy="394.75" r="27.71" transform="translate(-12.2 774.84) rotate(-79.51)"/><circle class="cls-10" cx="459.6" cy="394.58" r="27.49" transform="translate(-11.15 775.79) rotate(-79.65)"/><circle class="cls-11" cx="459.6" cy="394.41" r="27.27" transform="translate(-10.08 776.76) rotate(-79.78)"/><circle class="cls-12" cx="459.6" cy="394.24" r="27.05" transform="translate(-8.99 777.74) rotate(-79.92)"/><circle class="cls-13" cx="459.6" cy="394.07" r="26.83" transform="translate(-7.89 778.74) rotate(-80.06)"/><circle class="cls-14" cx="459.6" cy="393.9" r="26.61" transform="translate(-6.76 779.76) rotate(-80.2)"/><circle class="cls-15" cx="459.6" cy="393.73" r="26.39" transform="translate(-5.62 780.8) rotate(-80.35)"/><circle class="cls-16" cx="459.6" cy="393.56" r="26.17" transform="translate(-4.45 781.86) rotate(-80.5)"/><circle class="cls-17" cx="459.6" cy="393.39" r="25.95" transform="translate(-3.26 782.94) rotate(-80.65)"/><circle class="cls-18" cx="459.6" cy="393.22" r="25.73" transform="translate(-2.04 784.03) rotate(-80.8)"/><circle class="cls-19" cx="459.6" cy="393.05" r="25.51" transform="translate(-0.81 785.15) rotate(-80.96)"/><circle class="cls-20" cx="459.6" cy="392.88" r="25.29" transform="translate(0.45 786.28) rotate(-81.11)"/><circle class="cls-21" cx="459.6" cy="392.71" r="25.07" transform="translate(1.74 787.44) rotate(-81.28)"/><circle class="cls-22" cx="459.6" cy="392.53" r="24.85" transform="translate(3.05 788.61) rotate(-81.44)"/><circle class="cls-23" cx="459.6" cy="392.36" r="24.63" transform="translate(4.39 789.81) rotate(-81.61)"/><circle class="cls-24" cx="459.6" cy="392.19" r="24.41" transform="translate(5.75 791.03) rotate(-81.78)"/><circle class="cls-25" cx="459.6" cy="392.02" r="24.19" transform="translate(7.14 792.27) rotate(-81.96)"/><circle class="cls-26" cx="459.6" cy="391.85" r="23.97" transform="translate(8.56 793.54) rotate(-82.14)"/><circle class="cls-27" cx="459.6" cy="391.68" r="23.75" transform="translate(10.01 794.82) rotate(-82.32)"/><circle class="cls-28" cx="459.6" cy="391.51" r="23.53" transform="translate(11.5 796.13) rotate(-82.51)"/><circle class="cls-29" cx="459.6" cy="391.34" r="23.31" transform="translate(13.01 797.47) rotate(-82.7)"/><circle class="cls-30" cx="459.6" cy="391.17" r="23.09" transform="translate(14.55 798.83) rotate(-82.89)"/><circle class="cls-31" cx="459.6" cy="391" r="22.87" transform="translate(16.13 800.21) rotate(-83.09)"/><circle class="cls-32" cx="459.6" cy="390.83" r="22.65" transform="translate(17.74 801.62) rotate(-83.29)"/><circle class="cls-33" cx="459.6" cy="390.66" r="22.42" transform="translate(19.39 803.05) rotate(-83.5)"/><circle class="cls-34" cx="459.6" cy="390.49" r="22.2" transform="translate(21.08 804.51) rotate(-83.71)"/><circle class="cls-35" cx="459.6" cy="390.32" r="21.98" transform="translate(22.8 806) rotate(-83.92)"/><circle class="cls-36" cx="459.6" cy="390.15" r="21.76" transform="translate(24.56 807.51) rotate(-84.14)"/><circle class="cls-37" cx="459.6" cy="389.98" r="21.54" transform="translate(26.36 809.05) rotate(-84.36)"/><circle class="cls-38" cx="459.6" cy="389.81" r="21.32" transform="translate(28.2 810.62) rotate(-84.59)"/><circle class="cls-39" cx="459.6" cy="389.64" r="21.1" transform="translate(30.09 812.22) rotate(-84.82)"/><circle class="cls-40" cx="459.6" cy="389.47" r="20.88" transform="translate(32.02 813.84) rotate(-85.06)"/><circle class="cls-41" cx="459.6" cy="389.3" r="20.66" transform="translate(33.99 815.5) rotate(-85.31)"/><circle class="cls-42" cx="459.6" cy="389.13" r="20.44" transform="translate(36.02 817.18) rotate(-85.55)"/><circle class="cls-43" cx="459.6" cy="388.96" r="20.22" transform="translate(38.09 818.9) rotate(-85.81)"/><circle class="cls-44" cx="459.6" cy="388.79" r="20" transform="translate(40.21 820.64) rotate(-86.07)"/><circle class="cls-45" cx="459.6" cy="388.62" r="19.78" transform="translate(42.38 822.42) rotate(-86.33)"/><circle class="cls-46" cx="459.6" cy="388.45" r="19.56" transform="translate(44.6 824.22) rotate(-86.6)"/><circle class="cls-47" cx="459.6" cy="388.28" r="19.34" transform="translate(46.88 826.06) rotate(-86.88)"/><circle class="cls-48" cx="459.6" cy="388.11" r="19.12" transform="translate(49.21 827.93) rotate(-87.16)"/><circle class="cls-49" cx="459.6" cy="387.94" r="18.9" transform="translate(51.6 829.83) rotate(-87.45)"/><circle class="cls-50" cx="459.6" cy="387.77" r="18.68" transform="translate(54.05 831.76) rotate(-87.75)"/><circle class="cls-51" cx="459.6" cy="387.6" r="18.46" transform="translate(56.57 833.72) rotate(-88.05)"/><circle class="cls-52" cx="459.6" cy="387.43" r="18.24" transform="translate(59.14 835.72) rotate(-88.35)"/><circle class="cls-53" cx="459.6" cy="387.26" r="18.02" transform="translate(61.78 837.74) rotate(-88.67)"/><circle class="cls-54" cx="459.6" cy="387.09" r="17.8" transform="translate(64.49 839.8) rotate(-88.99)"/><circle class="cls-55" cx="459.6" cy="386.91" r="17.58" transform="matrix(0.01, -1, 1, 0.01, 67.26, 841.9)"/><circle class="cls-56" cx="459.6" cy="386.74" r="17.36" transform="translate(70.11 844.02) rotate(-89.66)"/><circle class="cls-57" cx="459.6" cy="386.57" r="17.14"/></g><circle class="cls-61" cx="460.08" cy="380.53" r="24.32"/><path class="cls-62" d="M456.85,383.84c2-1.66,4.14-3.3,4.14-4.89,0-.69-.31-1.13-1-1.13s-1.05.52-1.05,1.41h-2.13A3.07,3.07,0,0,1,460.1,376c2.14,0,3.1,1.25,3.1,2.85,0,2.07-1.85,3.72-3.35,4.87h3.49v1.8h-6.49Z"/><path class="cls-62" d="M468.9,379.37a7.45,7.45,0,0,1,.08,1.16,8.92,8.92,0,0,1-.07,1.16,2.14,2.14,0,0,0,1.06,2.15l1,.57a.44.44,0,0,1,.22.28.46.46,0,0,1-.05.36l-1.6,2.78a.46.46,0,0,1-.29.22.47.47,0,0,1-.35-.05l-1-.57a2.17,2.17,0,0,0-2.39.16,9.38,9.38,0,0,1-2,1.16,2.16,2.16,0,0,0-1.33,2v1.13a.47.47,0,0,1-.47.47h-3.21a.47.47,0,0,1-.47-.47v-1.13a2.16,2.16,0,0,0-1.33-2,9,9,0,0,1-2-1.16,2.1,2.1,0,0,0-1.31-.45,2.21,2.21,0,0,0-1.08.29l-1,.57a.47.47,0,0,1-.35.05.46.46,0,0,1-.29-.22l-1.6-2.78a.46.46,0,0,1,.17-.64l1-.57a2.16,2.16,0,0,0,1.07-2.15,7.45,7.45,0,0,1-.08-1.16,8.92,8.92,0,0,1,.07-1.16,2.14,2.14,0,0,0-1.06-2.15l-1-.57a.44.44,0,0,1-.22-.28.46.46,0,0,1,.05-.36l1.6-2.78a.46.46,0,0,1,.29-.22.47.47,0,0,1,.35.05l1,.56a2.15,2.15,0,0,0,2.39-.15l.1-.07a.86.86,0,0,0,.29-.21,8.47,8.47,0,0,1,1.62-.88,2.16,2.16,0,0,0,1.33-2v-1.13a.47.47,0,0,1,.47-.47h3.21a.47.47,0,0,1,.47.47v1.13a2.16,2.16,0,0,0,1.33,2,9,9,0,0,1,2,1.16,2.15,2.15,0,0,0,2.39.16l1-.57a.47.47,0,0,1,.35-.05.46.46,0,0,1,.29.22l1.6,2.78a.46.46,0,0,1-.17.64l-1,.57A2.16,2.16,0,0,0,468.9,379.37Zm-8,14.67h.76a2.17,2.17,0,0,0,2.17-2.16v-1.13a.47.47,0,0,1,.27-.43,10.43,10.43,0,0,0,2.4-1.39.49.49,0,0,1,.52,0l1,.57a2.14,2.14,0,0,0,1.64.22,2.17,2.17,0,0,0,1.32-1l1.6-2.78a2.16,2.16,0,0,0-.79-3l-1-.57a.44.44,0,0,1-.23-.46,10.63,10.63,0,0,0,0-2.76.44.44,0,0,1,.23-.46l1-.57a2.17,2.17,0,0,0,.79-3l-1.6-2.78a2.17,2.17,0,0,0-1.32-1,2.14,2.14,0,0,0-1.64.22l-.32.18a1.45,1.45,0,0,1-1.69,0,10.44,10.44,0,0,0-1.89-1,.47.47,0,0,1-.27-.43v-1.13a2.17,2.17,0,0,0-2.17-2.16h-3.21a2.17,2.17,0,0,0-2.17,2.16v1.13a.46.46,0,0,1-.28.43c-.25.11-.5.22-.75.35l-1.69,1.07a.49.49,0,0,1-.47,0l-1-.57a2.14,2.14,0,0,0-1.64-.22,2.17,2.17,0,0,0-1.32,1l-1.6,2.78a2.16,2.16,0,0,0,.79,3l1,.57a.44.44,0,0,1,.23.46,10.63,10.63,0,0,0,0,2.76.44.44,0,0,1-.23.46l-1,.57a2.17,2.17,0,0,0-.79,3l1.6,2.78a2.17,2.17,0,0,0,1.32,1,2.14,2.14,0,0,0,1.64-.22l1-.57a.49.49,0,0,1,.52,0,10.58,10.58,0,0,0,2.39,1.39.46.46,0,0,1,.28.43v1.13a2.17,2.17,0,0,0,2.17,2.16h2.45Z"/><circle class="cls-4" cx="180.88" cy="522.22" r="121.05" transform="translate(-316.29 280.86) rotate(-45)"/><g class="cls-5"><circle class="cls-6" cx="185.11" cy="576.78" r="109.39"/><circle class="cls-7" cx="185.11" cy="576.31" r="108.73"/><circle class="cls-8" cx="185.11" cy="575.83" r="108.06"/><circle class="cls-9" cx="185.11" cy="575.36" r="107.39"/><circle class="cls-10" cx="185.11" cy="574.88" r="106.72"/><circle class="cls-11" cx="185.11" cy="574.4" r="106.05"/><circle class="cls-12" cx="185.11" cy="573.93" r="105.38"/><circle class="cls-13" cx="185.11" cy="573.45" r="104.71"/><circle class="cls-14" cx="185.11" cy="572.98" r="104.05"/><circle class="cls-15" cx="185.11" cy="572.5" r="103.38"/><circle class="cls-16" cx="185.11" cy="572.03" r="102.71"/><circle class="cls-17" cx="185.11" cy="571.55" r="102.04"/><circle class="cls-18" cx="185.11" cy="571.07" r="101.37"/><circle class="cls-19" cx="185.11" cy="570.6" r="100.7"/><circle class="cls-20" cx="185.11" cy="570.12" r="100.04"/><circle class="cls-21" cx="185.11" cy="569.65" r="99.37"/><circle class="cls-22" cx="185.11" cy="569.17" r="98.7"/><circle class="cls-23" cx="185.11" cy="568.69" r="98.03"/><circle class="cls-24" cx="185.11" cy="568.22" r="97.36"/><circle class="cls-25" cx="185.11" cy="567.74" r="96.69"/><circle class="cls-26" cx="185.11" cy="567.27" r="96.02"/><circle class="cls-27" cx="185.11" cy="566.79" r="95.36"/><circle class="cls-28" cx="185.11" cy="566.32" r="94.69"/><circle class="cls-29" cx="185.11" cy="565.84" r="94.02"/><circle class="cls-30" cx="185.11" cy="565.36" r="93.35"/><circle class="cls-31" cx="185.11" cy="564.89" r="92.68"/><circle class="cls-32" cx="185.11" cy="564.41" r="92.01"/><circle class="cls-33" cx="185.11" cy="563.94" r="91.34"/><circle class="cls-34" cx="185.11" cy="563.46" r="90.68"/><circle class="cls-35" cx="185.11" cy="562.99" r="90.01"/><circle class="cls-36" cx="185.11" cy="562.51" r="89.34"/><circle class="cls-37" cx="185.11" cy="562.03" r="88.67"/><circle class="cls-38" cx="185.11" cy="561.56" r="88"/><circle class="cls-39" cx="185.11" cy="561.08" r="87.33"/><circle class="cls-40" cx="185.11" cy="560.61" r="86.67"/><circle class="cls-41" cx="185.11" cy="560.13" r="86"/><circle class="cls-42" cx="185.11" cy="559.65" r="85.33"/><circle class="cls-43" cx="185.11" cy="559.18" r="84.66"/><circle class="cls-44" cx="185.11" cy="558.7" r="83.99"/><circle class="cls-45" cx="185.11" cy="558.23" r="83.32"/><circle class="cls-46" cx="185.11" cy="557.75" r="82.65"/><circle class="cls-47" cx="185.11" cy="557.28" r="81.99"/><circle class="cls-48" cx="185.11" cy="556.8" r="81.32"/><circle class="cls-49" cx="185.11" cy="556.32" r="80.65"/><circle class="cls-50" cx="185.11" cy="555.85" r="79.98"/><circle class="cls-51" cx="185.11" cy="555.37" r="79.31"/><circle class="cls-52" cx="185.11" cy="554.9" r="78.64"/><circle class="cls-53" cx="185.11" cy="554.42" r="77.98"/><circle class="cls-54" cx="185.11" cy="553.95" r="77.31"/><circle class="cls-55" cx="185.11" cy="553.47" r="76.64"/><circle class="cls-56" cx="185.11" cy="552.99" r="75.97"/><circle class="cls-57" cx="185.11" cy="552.52" r="75.3"/></g><rect class="cls-63" x="75.31" y="416.49" width="211.46" height="211.46" rx="30"/><rect class="cls-64" x="75.31" y="416.49" width="211.46" height="211.46" rx="30"/><text class="cls-60" transform="translate(121.22 530.39)">TRACKING &amp; <tspan x="2.79" y="23.3" xml:space="preserve">MEASURING  </tspan><tspan x="12.01" y="46.6">SOLUTION</tspan><tspan x="22.48" y="69.9">IMPACT</tspan></text><g class="cls-5"><circle class="cls-6" cx="181.04" cy="485.26" r="28.37" transform="translate(-329.65 571.55) rotate(-79.13)"/><circle class="cls-7" cx="181.04" cy="485.09" r="28.15" transform="translate(-329.29 572.53) rotate(-79.26)"/><circle class="cls-8" cx="181.04" cy="484.92" r="27.93" transform="translate(-328.93 573.53) rotate(-79.38)"/><circle class="cls-9" cx="181.04" cy="484.75" r="27.71" transform="translate(-328.56 574.55) rotate(-79.51)"/><circle class="cls-10" cx="181.04" cy="484.58" r="27.49" transform="translate(-328.18 575.59) rotate(-79.65)"/><circle class="cls-11" cx="181.04" cy="484.41" r="27.27" transform="translate(-327.8 576.65) rotate(-79.78)"/><circle class="cls-12" cx="181.04" cy="484.24" r="27.05" transform="translate(-327.41 577.73) rotate(-79.92)"/><circle class="cls-13" cx="181.04" cy="484.07" r="26.83" transform="matrix(0.17, -0.98, 0.98, 0.17, -327.01, 578.83)"/><circle class="cls-14" cx="181.04" cy="483.9" r="26.61" transform="translate(-326.6 579.95) rotate(-80.2)"/><circle class="cls-15" cx="181.04" cy="483.73" r="26.39" transform="translate(-326.19 581.1) rotate(-80.35)"/><circle class="cls-16" cx="181.04" cy="483.56" r="26.17" transform="translate(-325.77 582.26) rotate(-80.5)"/><circle class="cls-17" cx="181.04" cy="483.39" r="25.95" transform="translate(-325.34 583.45) rotate(-80.65)"/><circle class="cls-18" cx="181.04" cy="483.22" r="25.73" transform="translate(-324.9 584.67) rotate(-80.8)"/><circle class="cls-19" cx="181.04" cy="483.05" r="25.51" transform="translate(-324.46 585.9) rotate(-80.96)"/><circle class="cls-20" cx="181.04" cy="482.88" r="25.29" transform="translate(-324 587.16) rotate(-81.11)"/><circle class="cls-21" cx="181.04" cy="482.71" r="25.07" transform="translate(-323.53 588.45) rotate(-81.28)"/><circle class="cls-22" cx="181.04" cy="482.53" r="24.85" transform="translate(-323.06 589.76) rotate(-81.44)"/><circle class="cls-23" cx="181.04" cy="482.36" r="24.63" transform="translate(-322.57 591.1) rotate(-81.61)"/><circle class="cls-24" cx="181.04" cy="482.19" r="24.41" transform="translate(-322.07 592.47) rotate(-81.78)"/><circle class="cls-25" cx="181.04" cy="482.02" r="24.19" transform="translate(-321.57 593.86) rotate(-81.96)"/><circle class="cls-26" cx="181.04" cy="481.85" r="23.97" transform="translate(-321.05 595.28) rotate(-82.14)"/><circle class="cls-27" cx="181.04" cy="481.68" r="23.75" transform="matrix(0.13, -0.99, 0.99, 0.13, -320.51, 596.74)"/><circle class="cls-28" cx="181.04" cy="481.51" r="23.53" transform="translate(-319.97 598.22) rotate(-82.51)"/><circle class="cls-29" cx="181.04" cy="481.34" r="23.31" transform="translate(-319.41 599.73) rotate(-82.7)"/><circle class="cls-30" cx="181.04" cy="481.17" r="23.09" transform="translate(-318.84 601.27) rotate(-82.89)"/><circle class="cls-31" cx="181.04" cy="481" r="22.87" transform="translate(-318.25 602.84) rotate(-83.09)"/><circle class="cls-32" cx="181.04" cy="480.83" r="22.65" transform="translate(-317.65 604.45) rotate(-83.29)"/><circle class="cls-33" cx="181.04" cy="480.66" r="22.42" transform="translate(-317.03 606.09) rotate(-83.5)"/><circle class="cls-34" cx="181.04" cy="480.49" r="22.2" transform="translate(-316.4 607.76) rotate(-83.71)"/><circle class="cls-35" cx="181.04" cy="480.32" r="21.98" transform="translate(-315.75 609.47) rotate(-83.92)"/><circle class="cls-36" cx="181.04" cy="480.15" r="21.76" transform="translate(-315.08 611.22) rotate(-84.14)"/><circle class="cls-37" cx="181.04" cy="479.98" r="21.54" transform="matrix(0.1, -1, 1, 0.1, -314.4, 613)"/><circle class="cls-38" cx="181.04" cy="479.81" r="21.32" transform="translate(-313.7 614.82) rotate(-84.59)"/><circle class="cls-39" cx="181.04" cy="479.64" r="21.1" transform="matrix(0.09, -1, 1, 0.09, -312.97, 616.68)"/><circle class="cls-40" cx="181.04" cy="479.47" r="20.88" transform="translate(-312.23 618.57) rotate(-85.06)"/><circle class="cls-41" cx="181.04" cy="479.3" r="20.66" transform="translate(-311.46 620.51) rotate(-85.31)"/><circle class="cls-42" cx="181.04" cy="479.13" r="20.44" transform="matrix(0.08, -1, 1, 0.08, -310.68, 622.49)"/><circle class="cls-43" cx="181.04" cy="478.96" r="20.22" transform="translate(-309.87 624.5) rotate(-85.81)"/><circle class="cls-44" cx="181.04" cy="478.79" r="20" transform="translate(-309.03 626.57) rotate(-86.07)"/><circle class="cls-45" cx="181.04" cy="478.62" r="19.78" transform="translate(-308.18 628.67) rotate(-86.33)"/><circle class="cls-46" cx="181.04" cy="478.45" r="19.56" transform="translate(-307.29 630.82) rotate(-86.6)"/><circle class="cls-47" cx="181.04" cy="478.28" r="19.34" transform="translate(-306.38 633.01) rotate(-86.88)"/><circle class="cls-48" cx="181.04" cy="478.11" r="19.12" transform="translate(-305.44 635.25) rotate(-87.16)"/><circle class="cls-49" cx="181.04" cy="477.94" r="18.9" transform="matrix(0.04, -1, 1, 0.04, -304.47, 637.54)"/><circle class="cls-50" cx="181.04" cy="477.77" r="18.68" transform="translate(-303.48 639.87) rotate(-87.75)"/><circle class="cls-51" cx="181.04" cy="477.6" r="18.46" transform="translate(-302.45 642.26) rotate(-88.05)"/><circle class="cls-52" cx="181.04" cy="477.43" r="18.24" transform="translate(-301.38 644.69) rotate(-88.35)"/><circle class="cls-53" cx="181.04" cy="477.26" r="18.02" transform="translate(-300.29 647.17) rotate(-88.67)"/><circle class="cls-54" cx="181.04" cy="477.09" r="17.8" transform="translate(-299.15 649.71) rotate(-88.99)"/><circle class="cls-55" cx="181.04" cy="476.91" r="17.58" transform="translate(-297.98 652.29) rotate(-89.32)"/><circle class="cls-56" cx="181.04" cy="476.74" r="17.36" transform="translate(-296.78 654.93) rotate(-89.66)"/><circle class="cls-57" cx="181.04" cy="476.57" r="17.14"/></g><circle class="cls-65" cx="181.53" cy="470.53" r="24.32"/><path class="cls-62" d="M190.35,469.37a9.65,9.65,0,0,1,0,2.32,2.14,2.14,0,0,0,1.06,2.15l1,.57a.44.44,0,0,1,.22.28.46.46,0,0,1-.05.36l-1.6,2.78a.44.44,0,0,1-.29.22.48.48,0,0,1-.35-.05l-1-.57a2.18,2.18,0,0,0-2.4.16,9.14,9.14,0,0,1-2,1.16,2.16,2.16,0,0,0-1.33,2v1.13a.47.47,0,0,1-.47.47h-3.21a.47.47,0,0,1-.47-.47v-1.13a2.16,2.16,0,0,0-1.32-2,8.82,8.82,0,0,1-2-1.16,2.1,2.1,0,0,0-1.31-.45,2.21,2.21,0,0,0-1.08.29l-1,.57a.5.5,0,0,1-.36.05.49.49,0,0,1-.29-.22l-1.6-2.78a.47.47,0,0,1,.17-.64l1-.57a2.16,2.16,0,0,0,1.07-2.15,8.45,8.45,0,0,1,0-2.32,2.16,2.16,0,0,0-1.07-2.15l-1-.57a.44.44,0,0,1-.22-.28.5.5,0,0,1,.05-.36l1.6-2.78a.49.49,0,0,1,.29-.22.5.5,0,0,1,.36.05l1,.56a2.15,2.15,0,0,0,2.39-.15l.1-.07a.86.86,0,0,0,.29-.21,8.55,8.55,0,0,1,1.63-.88,2.16,2.16,0,0,0,1.32-2v-1.13a.47.47,0,0,1,.47-.47h3.21a.47.47,0,0,1,.47.47v1.13a2.16,2.16,0,0,0,1.33,2,9,9,0,0,1,2,1.16,2.16,2.16,0,0,0,2.4.16l1-.57a.48.48,0,0,1,.35-.05.44.44,0,0,1,.29.22l1.6,2.78a.46.46,0,0,1-.17.64l-1,.57A2.14,2.14,0,0,0,190.35,469.37Zm-8,14.67h.76a2.17,2.17,0,0,0,2.17-2.16v-1.13a.46.46,0,0,1,.28-.43,10.58,10.58,0,0,0,2.39-1.39.49.49,0,0,1,.52,0l1,.57a2.14,2.14,0,0,0,1.64.22,2.17,2.17,0,0,0,1.32-1l1.6-2.78a2.16,2.16,0,0,0-.79-3l-1-.57a.44.44,0,0,1-.23-.46,10.63,10.63,0,0,0,0-2.76.44.44,0,0,1,.23-.46l1-.57a2.17,2.17,0,0,0,.79-3l-1.6-2.78a2.17,2.17,0,0,0-1.32-1,2.14,2.14,0,0,0-1.64.22l-.32.18a1.45,1.45,0,0,1-1.69,0,10.36,10.36,0,0,0-1.88-1,.46.46,0,0,1-.28-.43v-1.13a2.17,2.17,0,0,0-2.17-2.16h-3.21a2.16,2.16,0,0,0-2.16,2.16v1.13a.46.46,0,0,1-.28.43c-.26.11-.51.22-.76.35L175,462.16a.49.49,0,0,1-.47,0l-1-.57a2.15,2.15,0,0,0-3,.79L169,465.16a2.16,2.16,0,0,0,.79,3l1,.57a.46.46,0,0,1,.24.46,10.62,10.62,0,0,0,0,2.76.46.46,0,0,1-.24.46l-1,.57a2.17,2.17,0,0,0-.79,3l1.61,2.78a2.15,2.15,0,0,0,3,.79l1-.57a.47.47,0,0,1,.51,0,10.65,10.65,0,0,0,2.4,1.39.46.46,0,0,1,.28.43v1.13a2.16,2.16,0,0,0,2.16,2.16h2.45Z"/><path class="cls-62" d="M181,468.06h-1.29V466h3.59v9.44H181Z"/><circle class="cls-4" cx="1016.56" cy="432.22" r="121.05" transform="translate(-7.88 845.41) rotate(-45)"/><g class="cls-5"><circle class="cls-6" cx="1020.79" cy="486.78" r="109.39"/><circle class="cls-7" cx="1020.79" cy="486.31" r="108.73"/><circle class="cls-8" cx="1020.79" cy="485.83" r="108.06"/><circle class="cls-9" cx="1020.79" cy="485.36" r="107.39"/><circle class="cls-10" cx="1020.79" cy="484.88" r="106.72"/><circle class="cls-11" cx="1020.79" cy="484.4" r="106.05"/><circle class="cls-12" cx="1020.79" cy="483.93" r="105.38"/><circle class="cls-13" cx="1020.79" cy="483.45" r="104.71"/><circle class="cls-14" cx="1020.79" cy="482.98" r="104.05"/><circle class="cls-15" cx="1020.79" cy="482.5" r="103.38"/><circle class="cls-16" cx="1020.79" cy="482.03" r="102.71"/><circle class="cls-17" cx="1020.79" cy="481.55" r="102.04"/><circle class="cls-18" cx="1020.79" cy="481.07" r="101.37"/><circle class="cls-19" cx="1020.79" cy="480.6" r="100.7"/><circle class="cls-20" cx="1020.79" cy="480.12" r="100.04"/><circle class="cls-21" cx="1020.79" cy="479.65" r="99.37"/><circle class="cls-22" cx="1020.79" cy="479.17" r="98.7"/><circle class="cls-23" cx="1020.79" cy="478.69" r="98.03"/><circle class="cls-24" cx="1020.79" cy="478.22" r="97.36"/><circle class="cls-25" cx="1020.79" cy="477.74" r="96.69"/><circle class="cls-26" cx="1020.79" cy="477.27" r="96.02"/><circle class="cls-27" cx="1020.79" cy="476.79" r="95.36"/><circle class="cls-28" cx="1020.79" cy="476.32" r="94.69"/><circle class="cls-29" cx="1020.79" cy="475.84" r="94.02"/><circle class="cls-30" cx="1020.79" cy="475.36" r="93.35"/><circle class="cls-31" cx="1020.79" cy="474.89" r="92.68"/><circle class="cls-32" cx="1020.79" cy="474.41" r="92.01"/><circle class="cls-33" cx="1020.79" cy="473.94" r="91.34"/><circle class="cls-34" cx="1020.79" cy="473.46" r="90.68"/><circle class="cls-35" cx="1020.79" cy="472.99" r="90.01"/><circle class="cls-36" cx="1020.79" cy="472.51" r="89.34"/><circle class="cls-37" cx="1020.79" cy="472.03" r="88.67"/><circle class="cls-38" cx="1020.79" cy="471.56" r="88"/><circle class="cls-39" cx="1020.79" cy="471.08" r="87.33"/><circle class="cls-40" cx="1020.79" cy="470.61" r="86.67"/><circle class="cls-41" cx="1020.79" cy="470.13" r="86"/><circle class="cls-42" cx="1020.79" cy="469.65" r="85.33"/><circle class="cls-43" cx="1020.79" cy="469.18" r="84.66"/><circle class="cls-44" cx="1020.79" cy="468.7" r="83.99"/><circle class="cls-45" cx="1020.79" cy="468.23" r="83.32"/><circle class="cls-46" cx="1020.79" cy="467.75" r="82.65"/><circle class="cls-47" cx="1020.79" cy="467.28" r="81.99"/><circle class="cls-48" cx="1020.79" cy="466.8" r="81.32"/><circle class="cls-49" cx="1020.79" cy="466.32" r="80.65"/><circle class="cls-50" cx="1020.79" cy="465.85" r="79.98"/><circle class="cls-51" cx="1020.79" cy="465.37" r="79.31"/><circle class="cls-52" cx="1020.79" cy="464.9" r="78.64"/><circle class="cls-53" cx="1020.79" cy="464.42" r="77.98"/><circle class="cls-54" cx="1020.79" cy="463.95" r="77.31"/><circle class="cls-55" cx="1020.79" cy="463.47" r="76.64"/><circle class="cls-56" cx="1020.79" cy="462.99" r="75.97"/><circle class="cls-57" cx="1020.79" cy="462.52" r="75.3"/></g><rect class="cls-66" x="910.99" y="326.49" width="211.46" height="211.46" rx="30"/><rect class="cls-67" x="910.99" y="326.49" width="211.46" height="211.46" rx="30"/><text class="cls-60" transform="translate(953.8 440.39)">MONITORING <tspan x="5.32" y="23.3">&amp; TROUBLE- </tspan><tspan x="11.91" y="46.6">SHOOTING </tspan><tspan x="9.05" y="69.9">REGULARLY </tspan></text><g class="cls-5"><circle class="cls-6" cx="1016.72" cy="395.26" r="28.37" transform="translate(436.82 1319.2) rotate(-79.13)"/><circle class="cls-7" cx="1016.72" cy="395.09" r="28.15" transform="translate(439.02 1320.33) rotate(-79.26)"/><circle class="cls-8" cx="1016.72" cy="394.92" r="27.93" transform="translate(441.26 1321.48) rotate(-79.38)"/><circle class="cls-9" cx="1016.72" cy="394.75" r="27.71" transform="translate(443.53 1322.65) rotate(-79.51)"/><circle class="cls-10" cx="1016.72" cy="394.58" r="27.49" transform="translate(445.85 1323.84) rotate(-79.65)"/><circle class="cls-11" cx="1016.72" cy="394.41" r="27.27" transform="translate(448.21 1325.04) rotate(-79.78)"/><circle class="cls-12" cx="1016.72" cy="394.24" r="27.05" transform="matrix(0.18, -0.98, 0.98, 0.18, 450.61, 1326.26)"/><circle class="cls-13" cx="1016.72" cy="394.07" r="26.83" transform="translate(453.06 1327.5) rotate(-80.06)"/><circle class="cls-14" cx="1016.72" cy="393.9" r="26.61" transform="translate(455.55 1328.76) rotate(-80.2)"/><circle class="cls-15" cx="1016.72" cy="393.73" r="26.39" transform="translate(458.09 1330.03) rotate(-80.35)"/><circle class="cls-16" cx="1016.72" cy="393.56" r="26.17" transform="translate(460.67 1331.33) rotate(-80.5)"/><circle class="cls-17" cx="1016.72" cy="393.39" r="25.95" transform="translate(463.31 1332.64) rotate(-80.65)"/><circle class="cls-18" cx="1016.72" cy="393.22" r="25.73" transform="translate(465.99 1333.98) rotate(-80.8)"/><circle class="cls-19" cx="1016.72" cy="393.05" r="25.51" transform="translate(468.73 1335.34) rotate(-80.96)"/><circle class="cls-20" cx="1016.72" cy="392.88" r="25.29" transform="translate(471.52 1336.71) rotate(-81.11)"/><circle class="cls-21" cx="1016.72" cy="392.71" r="25.07" transform="translate(474.37 1338.11) rotate(-81.28)"/><circle class="cls-22" cx="1016.72" cy="392.53" r="24.85" transform="translate(477.27 1339.53) rotate(-81.44)"/><circle class="cls-23" cx="1016.72" cy="392.36" r="24.63" transform="translate(480.23 1340.97) rotate(-81.61)"/><circle class="cls-24" cx="1016.72" cy="392.19" r="24.41" transform="translate(483.25 1342.43) rotate(-81.78)"/><circle class="cls-25" cx="1016.72" cy="392.02" r="24.19" transform="translate(486.33 1343.91) rotate(-81.96)"/><circle class="cls-26" cx="1016.72" cy="391.85" r="23.97" transform="translate(489.47 1345.42) rotate(-82.14)"/><circle class="cls-27" cx="1016.72" cy="391.68" r="23.75" transform="translate(492.68 1346.94) rotate(-82.32)"/><circle class="cls-28" cx="1016.72" cy="391.51" r="23.53" transform="translate(495.96 1348.49) rotate(-82.51)"/><circle class="cls-29" cx="1016.72" cy="391.34" r="23.31" transform="translate(499.3 1350.06) rotate(-82.7)"/><circle class="cls-30" cx="1016.72" cy="391.17" r="23.09" transform="translate(502.71 1351.66) rotate(-82.89)"/><circle class="cls-31" cx="1016.72" cy="391" r="22.87" transform="translate(506.2 1353.28) rotate(-83.09)"/><circle class="cls-32" cx="1016.72" cy="390.83" r="22.65" transform="translate(509.76 1354.92) rotate(-83.29)"/><circle class="cls-33" cx="1016.72" cy="390.66" r="22.42" transform="translate(513.4 1356.58) rotate(-83.5)"/><circle class="cls-34" cx="1016.72" cy="390.49" r="22.2" transform="translate(517.11 1358.27) rotate(-83.71)"/><circle class="cls-35" cx="1016.72" cy="390.32" r="21.98" transform="translate(520.91 1359.98) rotate(-83.92)"/><circle class="cls-36" cx="1016.72" cy="390.15" r="21.76" transform="translate(524.79 1361.72) rotate(-84.14)"/><circle class="cls-37" cx="1016.72" cy="389.98" r="21.54" transform="translate(528.75 1363.48) rotate(-84.36)"/><circle class="cls-38" cx="1016.72" cy="389.81" r="21.32" transform="translate(532.81 1365.26) rotate(-84.59)"/><circle class="cls-39" cx="1016.72" cy="389.64" r="21.1" transform="translate(536.95 1367.06) rotate(-84.82)"/><circle class="cls-40" cx="1016.72" cy="389.47" r="20.88" transform="translate(541.18 1368.89) rotate(-85.06)"/><circle class="cls-41" cx="1016.72" cy="389.3" r="20.66" transform="translate(545.52 1370.75) rotate(-85.31)"/><circle class="cls-42" cx="1016.72" cy="389.13" r="20.44" transform="translate(549.95 1372.62) rotate(-85.55)"/><circle class="cls-43" cx="1016.72" cy="388.96" r="20.22" transform="translate(554.48 1374.52) rotate(-85.81)"/><circle class="cls-44" cx="1016.72" cy="388.79" r="20" transform="translate(559.11 1376.45) rotate(-86.07)"/><circle class="cls-45" cx="1016.72" cy="388.62" r="19.78" transform="translate(563.85 1378.39) rotate(-86.33)"/><circle class="cls-46" cx="1016.72" cy="388.45" r="19.56" transform="translate(568.7 1380.36) rotate(-86.6)"/><circle class="cls-47" cx="1016.72" cy="388.28" r="19.34" transform="translate(573.66 1382.35) rotate(-86.88)"/><circle class="cls-48" cx="1016.72" cy="388.11" r="19.12" transform="translate(578.74 1384.36) rotate(-87.16)"/><circle class="cls-49" cx="1016.72" cy="387.94" r="18.9" transform="translate(583.94 1386.39) rotate(-87.45)"/><circle class="cls-50" cx="1016.72" cy="387.77" r="18.68" transform="translate(589.25 1388.44) rotate(-87.75)"/><circle class="cls-51" cx="1016.72" cy="387.6" r="18.46" transform="translate(594.7 1390.51) rotate(-88.05)"/><circle class="cls-52" cx="1016.72" cy="387.43" r="18.24" transform="translate(600.27 1392.6) rotate(-88.35)"/><circle class="cls-53" cx="1016.72" cy="387.26" r="18.02" transform="translate(605.97 1394.71) rotate(-88.67)"/><circle class="cls-54" cx="1016.72" cy="387.09" r="17.8" transform="matrix(0.02, -1, 1, 0.02, 611.8, 1396.84)"/><circle class="cls-55" cx="1016.72" cy="386.91" r="17.58" transform="translate(617.77 1398.97) rotate(-89.32)"/><circle class="cls-56" cx="1016.72" cy="386.74" r="17.36" transform="translate(623.89 1401.13) rotate(-89.66)"/><circle class="cls-57" cx="1016.72" cy="386.57" r="17.14"/></g><circle class="cls-68" cx="1017.2" cy="380.53" r="24.32"/><path class="cls-62" d="M1017.58,383.47h-4.34v-1.79l4.08-5.84h2.47v5.71h1.07v1.92h-1.07v1.68h-2.21Zm.16-1.92v-3.28l-2.18,3.28Z"/><path class="cls-62" d="M1026,379.37a8.45,8.45,0,0,1,0,2.32,2.16,2.16,0,0,0,1.07,2.15l1,.57a.48.48,0,0,1,.22.28.5.5,0,0,1,0,.36l-1.61,2.78a.44.44,0,0,1-.28.22.5.5,0,0,1-.36-.05l-1-.57a2.17,2.17,0,0,0-2.39.16,9.21,9.21,0,0,1-2,1.16,2.16,2.16,0,0,0-1.32,2v1.13a.47.47,0,0,1-.47.47h-3.21a.47.47,0,0,1-.47-.47v-1.13a2.16,2.16,0,0,0-1.33-2,8.76,8.76,0,0,1-2-1.16,2.14,2.14,0,0,0-1.31-.45,2.25,2.25,0,0,0-1.09.29l-1,.57a.5.5,0,0,1-.36.05.44.44,0,0,1-.28-.22l-1.61-2.78a.47.47,0,0,1,.18-.64l1-.57a2.14,2.14,0,0,0,1.06-2.15,9.65,9.65,0,0,1,0-2.32,2.14,2.14,0,0,0-1.06-2.15l-1-.57a.44.44,0,0,1-.22-.28.45.45,0,0,1,0-.36l1.61-2.78a.44.44,0,0,1,.28-.22.5.5,0,0,1,.36.05l1,.56a2.17,2.17,0,0,0,2.4-.15l.1-.07a.86.86,0,0,0,.29-.21,8.47,8.47,0,0,1,1.62-.88,2.16,2.16,0,0,0,1.33-2v-1.13a.47.47,0,0,1,.47-.47h3.21a.47.47,0,0,1,.47.47v1.13a2.16,2.16,0,0,0,1.32,2,8.82,8.82,0,0,1,2,1.16,2.15,2.15,0,0,0,2.39.16l1-.57a.5.5,0,0,1,.36-.05.44.44,0,0,1,.28.22l1.61,2.78a.47.47,0,0,1-.17.64l-1,.57A2.16,2.16,0,0,0,1026,379.37Zm-8,14.67h.76a2.16,2.16,0,0,0,2.16-2.16v-1.13a.46.46,0,0,1,.28-.43,10.65,10.65,0,0,0,2.4-1.39.47.47,0,0,1,.51,0l1,.57a2.15,2.15,0,0,0,2.95-.79l1.61-2.78a2.18,2.18,0,0,0-.79-3l-1-.57a.47.47,0,0,1-.23-.46,10.63,10.63,0,0,0,0-2.76.47.47,0,0,1,.23-.46l1-.57a2.17,2.17,0,0,0,.79-3l-1.61-2.78a2.15,2.15,0,0,0-2.95-.79l-.32.18a1.45,1.45,0,0,1-1.69,0,10.79,10.79,0,0,0-1.89-1,.46.46,0,0,1-.28-.43v-1.13a2.16,2.16,0,0,0-2.16-2.16h-3.21a2.17,2.17,0,0,0-2.17,2.16v1.13a.46.46,0,0,1-.28.43c-.25.11-.5.22-.75.35l-1.7,1.07a.47.47,0,0,1-.46,0l-1-.57a2.14,2.14,0,0,0-1.64-.22,2.17,2.17,0,0,0-1.32,1l-1.6,2.78a2.16,2.16,0,0,0,.79,3l1,.57a.47.47,0,0,1,.23.46,10.62,10.62,0,0,0,0,2.76.45.45,0,0,1-.23.46l-1,.57a2.16,2.16,0,0,0-.79,3l1.6,2.78a2.17,2.17,0,0,0,1.32,1,2.14,2.14,0,0,0,1.64-.22l1-.57a.47.47,0,0,1,.51,0,10.87,10.87,0,0,0,2.4,1.39.46.46,0,0,1,.28.43v1.13a2.17,2.17,0,0,0,2.17,2.16h2.45Z"/><circle class="cls-4" cx="1295.12" cy="522.22" r="121.05" transform="translate(10.07 1068.74) rotate(-45)"/><g class="cls-5"><circle class="cls-6" cx="1299.35" cy="576.78" r="109.39"/><circle class="cls-7" cx="1299.35" cy="576.31" r="108.73"/><circle class="cls-8" cx="1299.35" cy="575.83" r="108.06"/><circle class="cls-9" cx="1299.35" cy="575.36" r="107.39"/><circle class="cls-10" cx="1299.35" cy="574.88" r="106.72"/><circle class="cls-11" cx="1299.35" cy="574.4" r="106.05"/><circle class="cls-12" cx="1299.35" cy="573.93" r="105.38"/><circle class="cls-13" cx="1299.35" cy="573.45" r="104.71"/><circle class="cls-14" cx="1299.35" cy="572.98" r="104.05"/><circle class="cls-15" cx="1299.35" cy="572.5" r="103.38"/><circle class="cls-16" cx="1299.35" cy="572.03" r="102.71"/><circle class="cls-17" cx="1299.35" cy="571.55" r="102.04"/><circle class="cls-18" cx="1299.35" cy="571.07" r="101.37"/><circle class="cls-19" cx="1299.35" cy="570.6" r="100.7"/><circle class="cls-20" cx="1299.35" cy="570.12" r="100.04"/><circle class="cls-21" cx="1299.35" cy="569.65" r="99.37"/><circle class="cls-22" cx="1299.35" cy="569.17" r="98.7"/><circle class="cls-23" cx="1299.35" cy="568.69" r="98.03"/><circle class="cls-24" cx="1299.35" cy="568.22" r="97.36"/><circle class="cls-25" cx="1299.35" cy="567.74" r="96.69"/><circle class="cls-26" cx="1299.35" cy="567.27" r="96.02"/><circle class="cls-27" cx="1299.35" cy="566.79" r="95.36"/><circle class="cls-28" cx="1299.35" cy="566.32" r="94.69"/><circle class="cls-29" cx="1299.35" cy="565.84" r="94.02"/><circle class="cls-30" cx="1299.35" cy="565.36" r="93.35"/><circle class="cls-31" cx="1299.35" cy="564.89" r="92.68"/><circle class="cls-32" cx="1299.35" cy="564.41" r="92.01"/><circle class="cls-33" cx="1299.35" cy="563.94" r="91.34"/><circle class="cls-34" cx="1299.35" cy="563.46" r="90.68"/><circle class="cls-35" cx="1299.35" cy="562.99" r="90.01"/><circle class="cls-36" cx="1299.35" cy="562.51" r="89.34"/><circle class="cls-37" cx="1299.35" cy="562.03" r="88.67"/><circle class="cls-38" cx="1299.35" cy="561.56" r="88"/><circle class="cls-39" cx="1299.35" cy="561.08" r="87.33"/><circle class="cls-40" cx="1299.35" cy="560.61" r="86.67"/><circle class="cls-41" cx="1299.35" cy="560.13" r="86"/><circle class="cls-42" cx="1299.35" cy="559.65" r="85.33"/><circle class="cls-43" cx="1299.35" cy="559.18" r="84.66"/><circle class="cls-44" cx="1299.35" cy="558.7" r="83.99"/><circle class="cls-45" cx="1299.35" cy="558.23" r="83.32"/><circle class="cls-46" cx="1299.35" cy="557.75" r="82.65"/><circle class="cls-47" cx="1299.35" cy="557.28" r="81.99"/><circle class="cls-48" cx="1299.35" cy="556.8" r="81.32"/><circle class="cls-49" cx="1299.35" cy="556.32" r="80.65"/><circle class="cls-50" cx="1299.35" cy="555.85" r="79.98"/><circle class="cls-51" cx="1299.35" cy="555.37" r="79.31"/><circle class="cls-52" cx="1299.35" cy="554.9" r="78.64"/><circle class="cls-53" cx="1299.35" cy="554.42" r="77.98"/><circle class="cls-54" cx="1299.35" cy="553.95" r="77.31"/><circle class="cls-55" cx="1299.35" cy="553.47" r="76.64"/><circle class="cls-56" cx="1299.35" cy="552.99" r="75.97"/><circle class="cls-57" cx="1299.35" cy="552.52" r="75.3"/></g><rect class="cls-69" x="1189.55" y="416.49" width="211.46" height="211.46" rx="30"/><rect class="cls-70" x="1189.55" y="416.49" width="211.46" height="211.46" rx="30"/><text class="cls-60" transform="translate(1230.56 530.39)">CONTINUOUS <tspan x="10.69" y="23.3">REPORTING </tspan><tspan x="49.96" y="46.6">ON </tspan><tspan x="14.3" y="69.9">PROGRESS</tspan></text><g class="cls-5"><circle class="cls-6" cx="1295.28" cy="485.26" r="28.37" transform="translate(574.47 1665.79) rotate(-79.13)"/><circle class="cls-7" cx="1295.28" cy="485.09" r="28.15" transform="translate(577.23 1667.23) rotate(-79.26)"/><circle class="cls-8" cx="1295.28" cy="484.92" r="27.93" transform="translate(580.04 1668.69) rotate(-79.38)"/><circle class="cls-9" cx="1295.28" cy="484.75" r="27.71" transform="translate(582.9 1670.18) rotate(-79.51)"/><circle class="cls-10" cx="1295.28" cy="484.58" r="27.49" transform="translate(585.81 1671.68) rotate(-79.65)"/><circle class="cls-11" cx="1295.28" cy="484.41" r="27.27" transform="translate(588.78 1673.21) rotate(-79.78)"/><circle class="cls-12" cx="1295.28" cy="484.24" r="27.05" transform="translate(591.8 1674.76) rotate(-79.92)"/><circle class="cls-13" cx="1295.28" cy="484.07" r="26.83" transform="matrix(0.17, -0.98, 0.98, 0.17, 594.88, 1676.34)"/><circle class="cls-14" cx="1295.28" cy="483.9" r="26.61" transform="translate(598.02 1677.94) rotate(-80.2)"/><circle class="cls-15" cx="1295.28" cy="483.73" r="26.39" transform="translate(601.21 1679.56) rotate(-80.35)"/><circle class="cls-16" cx="1295.28" cy="483.56" r="26.17" transform="translate(604.47 1681.2) rotate(-80.5)"/><circle class="cls-17" cx="1295.28" cy="483.39" r="25.95" transform="translate(607.79 1682.87) rotate(-80.65)"/><circle class="cls-18" cx="1295.28" cy="483.22" r="25.73" transform="translate(611.17 1684.56) rotate(-80.8)"/><circle class="cls-19" cx="1295.28" cy="483.05" r="25.51" transform="translate(614.62 1686.28) rotate(-80.96)"/><circle class="cls-20" cx="1295.28" cy="482.88" r="25.29" transform="translate(618.14 1688.03) rotate(-81.11)"/><circle class="cls-21" cx="1295.28" cy="482.71" r="25.07" transform="translate(621.72 1689.8) rotate(-81.28)"/><circle class="cls-22" cx="1295.28" cy="482.53" r="24.85" transform="translate(625.38 1691.59) rotate(-81.44)"/><circle class="cls-23" cx="1295.28" cy="482.36" r="24.63" transform="translate(629.11 1693.42) rotate(-81.61)"/><circle class="cls-24" cx="1295.28" cy="482.19" r="24.41" transform="translate(632.92 1695.27) rotate(-81.78)"/><circle class="cls-25" cx="1295.28" cy="482.02" r="24.19" transform="translate(636.81 1697.14) rotate(-81.96)"/><circle class="cls-26" cx="1295.28" cy="481.85" r="23.97" transform="translate(640.78 1699.05) rotate(-82.14)"/><circle class="cls-27" cx="1295.28" cy="481.68" r="23.75" transform="translate(644.82 1700.98) rotate(-82.32)"/><circle class="cls-28" cx="1295.28" cy="481.51" r="23.53" transform="translate(648.96 1702.93) rotate(-82.51)"/><circle class="cls-29" cx="1295.28" cy="481.34" r="23.31" transform="translate(653.18 1704.92) rotate(-82.7)"/><circle class="cls-30" cx="1295.28" cy="481.17" r="23.09" transform="translate(657.49 1706.94) rotate(-82.89)"/><circle class="cls-31" cx="1295.28" cy="481" r="22.87" transform="translate(661.89 1708.98) rotate(-83.09)"/><circle class="cls-32" cx="1295.28" cy="480.83" r="22.65" transform="translate(666.39 1711.05) rotate(-83.29)"/><circle class="cls-33" cx="1295.28" cy="480.66" r="22.42" transform="translate(670.98 1713.15) rotate(-83.5)"/><circle class="cls-34" cx="1295.28" cy="480.49" r="22.2" transform="translate(675.67 1715.28) rotate(-83.71)"/><circle class="cls-35" cx="1295.28" cy="480.32" r="21.98" transform="translate(680.47 1717.44) rotate(-83.92)"/><circle class="cls-36" cx="1295.28" cy="480.15" r="21.76" transform="translate(685.37 1719.63) rotate(-84.14)"/><circle class="cls-37" cx="1295.28" cy="479.98" r="21.54" transform="translate(690.38 1721.85) rotate(-84.36)"/><circle class="cls-38" cx="1295.28" cy="479.81" r="21.32" transform="translate(695.51 1724.09) rotate(-84.59)"/><circle class="cls-39" cx="1295.28" cy="479.64" r="21.1" transform="translate(700.74 1726.37) rotate(-84.82)"/><circle class="cls-40" cx="1295.28" cy="479.47" r="20.88" transform="translate(706.1 1728.67) rotate(-85.06)"/><circle class="cls-41" cx="1295.28" cy="479.3" r="20.66" transform="translate(711.58 1731) rotate(-85.31)"/><circle class="cls-42" cx="1295.28" cy="479.13" r="20.44" transform="translate(717.18 1733.37) rotate(-85.55)"/><circle class="cls-43" cx="1295.28" cy="478.96" r="20.22" transform="translate(722.91 1735.76) rotate(-85.81)"/><circle class="cls-44" cx="1295.28" cy="478.79" r="20" transform="translate(728.77 1738.18) rotate(-86.07)"/><circle class="cls-45" cx="1295.28" cy="478.62" r="19.78" transform="translate(734.77 1740.62) rotate(-86.33)"/><circle class="cls-46" cx="1295.28" cy="478.45" r="19.56" transform="translate(740.91 1743.09) rotate(-86.6)"/><circle class="cls-47" cx="1295.28" cy="478.28" r="19.34" transform="translate(747.19 1745.59) rotate(-86.88)"/><circle class="cls-48" cx="1295.28" cy="478.11" r="19.12" transform="translate(753.61 1748.12) rotate(-87.16)"/><circle class="cls-49" cx="1295.28" cy="477.94" r="18.9" transform="translate(760.19 1750.67) rotate(-87.45)"/><circle class="cls-50" cx="1295.28" cy="477.77" r="18.68" transform="translate(766.92 1753.25) rotate(-87.75)"/><circle class="cls-51" cx="1295.28" cy="477.6" r="18.46" transform="translate(773.81 1755.84) rotate(-88.05)"/><circle class="cls-52" cx="1295.28" cy="477.43" r="18.24" transform="translate(780.86 1758.46) rotate(-88.35)"/><circle class="cls-53" cx="1295.28" cy="477.26" r="18.02" transform="translate(788.08 1761.11) rotate(-88.67)"/><circle class="cls-54" cx="1295.28" cy="477.09" r="17.8" transform="matrix(0.02, -1, 1, 0.02, 795.47, 1763.77)"/><circle class="cls-55" cx="1295.28" cy="476.91" r="17.58" transform="translate(803.04 1766.45) rotate(-89.32)"/><circle class="cls-56" cx="1295.28" cy="476.74" r="17.36" transform="translate(810.78 1769.14) rotate(-89.66)"/><circle class="cls-57" cx="1295.28" cy="476.57" r="17.14"/></g><circle class="cls-71" cx="1295.76" cy="470.53" r="24.32"/><path class="cls-62" d="M1298.56,465.8v1.94h-4v1.79a2.37,2.37,0,0,1,1.74-.65,2.79,2.79,0,0,1,2.85,3.09,3,3,0,0,1-3.27,3.29c-2.12,0-3.35-1.18-3.42-2.81h2.16a1.11,1.11,0,0,0,1.19.93c.84,0,1.2-.61,1.2-1.42s-.43-1.31-1.22-1.31a1.05,1.05,0,0,0-1.1.78h-2.13V465.8Z"/><path class="cls-62" d="M1304.58,469.37a8.45,8.45,0,0,1,0,2.32,2.15,2.15,0,0,0,1.07,2.15l1,.57a.48.48,0,0,1,.22.28.5.5,0,0,1,0,.36l-1.61,2.78a.44.44,0,0,1-.28.22.5.5,0,0,1-.36-.05l-1-.57a2.17,2.17,0,0,0-2.39.16,9.21,9.21,0,0,1-2,1.16,2.16,2.16,0,0,0-1.32,2v1.13a.47.47,0,0,1-.47.47h-3.21a.48.48,0,0,1-.48-.47v-1.13a2.16,2.16,0,0,0-1.32-2,8.76,8.76,0,0,1-2-1.16,2.14,2.14,0,0,0-1.31-.45,2.25,2.25,0,0,0-1.09.29l-1,.57a.5.5,0,0,1-.36.05.44.44,0,0,1-.28-.22l-1.61-2.78a.47.47,0,0,1,.17-.64l1-.57a2.16,2.16,0,0,0,1.06-2.15,8.45,8.45,0,0,1,0-2.32,2.16,2.16,0,0,0-1.06-2.15l-1-.57a.46.46,0,0,1-.21-.28.45.45,0,0,1,0-.36l1.61-2.78a.44.44,0,0,1,.28-.22.5.5,0,0,1,.36.05l1,.56a2.17,2.17,0,0,0,2.4-.15l.1-.07a1,1,0,0,0,.29-.21,8.47,8.47,0,0,1,1.62-.88,2.17,2.17,0,0,0,1.33-2v-1.13a.47.47,0,0,1,.47-.47h3.21a.47.47,0,0,1,.47.47v1.13a2.16,2.16,0,0,0,1.32,2,8.55,8.55,0,0,1,2,1.16,2.17,2.17,0,0,0,2.4.16l1-.57a.5.5,0,0,1,.36-.05.44.44,0,0,1,.28.22l1.61,2.78a.47.47,0,0,1-.17.64l-1,.57A2.16,2.16,0,0,0,1304.58,469.37Zm-8,14.67h.76a2.16,2.16,0,0,0,2.16-2.16v-1.13a.46.46,0,0,1,.28-.43,10.65,10.65,0,0,0,2.4-1.39.47.47,0,0,1,.51,0l1,.57a2.16,2.16,0,0,0,3-.79l1.61-2.78a2.16,2.16,0,0,0,.21-1.65,2.14,2.14,0,0,0-1-1.31l-1-.57a.47.47,0,0,1-.23-.46,10.62,10.62,0,0,0,0-2.76.47.47,0,0,1,.23-.46l1-.57a2.17,2.17,0,0,0,.8-3l-1.61-2.78a2.16,2.16,0,0,0-3-.79l-.31.18a1.46,1.46,0,0,1-1.7,0,10.36,10.36,0,0,0-1.88-1,.46.46,0,0,1-.28-.43v-1.13a2.16,2.16,0,0,0-2.16-2.16h-3.21a2.17,2.17,0,0,0-2.17,2.16v1.13a.46.46,0,0,1-.28.43c-.26.11-.51.22-.75.35l-1.7,1.07a.47.47,0,0,1-.46,0l-1-.57a2.16,2.16,0,0,0-3,.79l-1.61,2.78a2.17,2.17,0,0,0,.8,3l1,.57a.47.47,0,0,1,.23.46,10.63,10.63,0,0,0,0,2.76.47.47,0,0,1-.23.46l-1,.57a2.17,2.17,0,0,0-.8,3l1.61,2.78a2.16,2.16,0,0,0,3,.79l1-.57a.47.47,0,0,1,.51,0,10.87,10.87,0,0,0,2.4,1.39.46.46,0,0,1,.28.43v1.13a2.17,2.17,0,0,0,2.17,2.16h2.45Z"/><circle class="cls-4" cx="738" cy="522.22" r="121.05" transform="translate(-153.11 674.8) rotate(-45)"/><g class="cls-5"><circle class="cls-6" cx="742.23" cy="576.78" r="109.39"/><circle class="cls-7" cx="742.23" cy="576.31" r="108.73"/><circle class="cls-8" cx="742.23" cy="575.83" r="108.06"/><circle class="cls-9" cx="742.23" cy="575.36" r="107.39"/><circle class="cls-10" cx="742.23" cy="574.88" r="106.72"/><circle class="cls-11" cx="742.23" cy="574.4" r="106.05"/><circle class="cls-12" cx="742.23" cy="573.93" r="105.38"/><circle class="cls-13" cx="742.23" cy="573.45" r="104.71"/><circle class="cls-14" cx="742.23" cy="572.98" r="104.05"/><circle class="cls-15" cx="742.23" cy="572.5" r="103.38"/><circle class="cls-16" cx="742.23" cy="572.03" r="102.71"/><circle class="cls-17" cx="742.23" cy="571.55" r="102.04"/><circle class="cls-18" cx="742.23" cy="571.07" r="101.37"/><circle class="cls-19" cx="742.23" cy="570.6" r="100.7"/><circle class="cls-20" cx="742.23" cy="570.12" r="100.04"/><circle class="cls-21" cx="742.23" cy="569.65" r="99.37"/><circle class="cls-22" cx="742.23" cy="569.17" r="98.7"/><circle class="cls-23" cx="742.23" cy="568.69" r="98.03"/><circle class="cls-24" cx="742.23" cy="568.22" r="97.36"/><circle class="cls-25" cx="742.23" cy="567.74" r="96.69"/><circle class="cls-26" cx="742.23" cy="567.27" r="96.02"/><circle class="cls-27" cx="742.23" cy="566.79" r="95.36"/><circle class="cls-28" cx="742.23" cy="566.32" r="94.69"/><circle class="cls-29" cx="742.23" cy="565.84" r="94.02"/><circle class="cls-30" cx="742.23" cy="565.36" r="93.35"/><circle class="cls-31" cx="742.23" cy="564.89" r="92.68"/><circle class="cls-32" cx="742.23" cy="564.41" r="92.01"/><circle class="cls-33" cx="742.23" cy="563.94" r="91.34"/><circle class="cls-34" cx="742.23" cy="563.46" r="90.68"/><circle class="cls-35" cx="742.23" cy="562.99" r="90.01"/><circle class="cls-36" cx="742.23" cy="562.51" r="89.34"/><circle class="cls-37" cx="742.23" cy="562.03" r="88.67"/><circle class="cls-38" cx="742.23" cy="561.56" r="88"/><circle class="cls-39" cx="742.23" cy="561.08" r="87.33"/><circle class="cls-40" cx="742.23" cy="560.61" r="86.67"/><circle class="cls-41" cx="742.23" cy="560.13" r="86"/><circle class="cls-42" cx="742.23" cy="559.65" r="85.33"/><circle class="cls-43" cx="742.23" cy="559.18" r="84.66"/><circle class="cls-44" cx="742.23" cy="558.7" r="83.99"/><circle class="cls-45" cx="742.23" cy="558.23" r="83.32"/><circle class="cls-46" cx="742.23" cy="557.75" r="82.65"/><circle class="cls-47" cx="742.23" cy="557.28" r="81.99"/><circle class="cls-48" cx="742.23" cy="556.8" r="81.32"/><circle class="cls-49" cx="742.23" cy="556.32" r="80.65"/><circle class="cls-50" cx="742.23" cy="555.85" r="79.98"/><circle class="cls-51" cx="742.23" cy="555.37" r="79.31"/><circle class="cls-52" cx="742.23" cy="554.9" r="78.64"/><circle class="cls-53" cx="742.23" cy="554.42" r="77.98"/><circle class="cls-54" cx="742.23" cy="553.95" r="77.31"/><circle class="cls-55" cx="742.23" cy="553.47" r="76.64"/><circle class="cls-56" cx="742.23" cy="552.99" r="75.97"/><circle class="cls-57" cx="742.23" cy="552.52" r="75.3"/></g><rect class="cls-72" x="632.43" y="416.49" width="211.46" height="211.46" rx="30"/><rect class="cls-73" x="632.43" y="416.49" width="211.46" height="211.46" rx="30"/><text class="cls-60" transform="translate(678.08 530.39)"><tspan xml:space="preserve">EVALUATING  </tspan><tspan x="16.59" y="23.3">PURPOSE </tspan><tspan x="34.88" y="46.6" xml:space="preserve">WITH  </tspan><tspan x="15.5" y="69.9">SUCCESS</tspan></text><g class="cls-5"><circle class="cls-6" cx="738.16" cy="485.26" r="28.37" transform="translate(122.41 1118.67) rotate(-79.13)"/><circle class="cls-7" cx="738.16" cy="485.09" r="28.15" transform="matrix(0.19, -0.98, 0.98, 0.19, 123.97, 1119.88)"/><circle class="cls-8" cx="738.16" cy="484.92" r="27.93" transform="translate(125.56 1121.11) rotate(-79.38)"/><circle class="cls-9" cx="738.16" cy="484.75" r="27.71" transform="translate(127.17 1122.37) rotate(-79.51)"/><circle class="cls-10" cx="738.16" cy="484.58" r="27.49" transform="translate(128.82 1123.64) rotate(-79.65)"/><circle class="cls-11" cx="738.16" cy="484.41" r="27.27" transform="translate(130.49 1124.93) rotate(-79.78)"/><circle class="cls-12" cx="738.16" cy="484.24" r="27.05" transform="matrix(0.18, -0.98, 0.98, 0.18, 132.2, 1126.25)"/><circle class="cls-13" cx="738.16" cy="484.07" r="26.83" transform="matrix(0.17, -0.98, 0.98, 0.17, 133.93, 1127.58)"/><circle class="cls-14" cx="738.16" cy="483.9" r="26.61" transform="translate(135.71 1128.94) rotate(-80.2)"/><circle class="cls-15" cx="738.16" cy="483.73" r="26.39" transform="translate(137.51 1130.33) rotate(-80.35)"/><circle class="cls-16" cx="738.16" cy="483.56" r="26.17" transform="translate(139.35 1131.73) rotate(-80.5)"/><circle class="cls-17" cx="738.16" cy="483.39" r="25.95" transform="translate(141.22 1133.16) rotate(-80.65)"/><circle class="cls-18" cx="738.16" cy="483.22" r="25.73" transform="translate(143.13 1134.62) rotate(-80.8)"/><circle class="cls-19" cx="738.16" cy="483.05" r="25.51" transform="translate(145.08 1136.09) rotate(-80.96)"/><circle class="cls-20" cx="738.16" cy="482.88" r="25.29" transform="translate(147.07 1137.6) rotate(-81.11)"/><circle class="cls-21" cx="738.16" cy="482.71" r="25.07" transform="translate(149.09 1139.12) rotate(-81.28)"/><circle class="cls-22" cx="738.16" cy="482.53" r="24.85" transform="translate(151.16 1140.68) rotate(-81.44)"/><circle class="cls-23" cx="738.16" cy="482.36" r="24.63" transform="translate(153.27 1142.26) rotate(-81.61)"/><circle class="cls-24" cx="738.16" cy="482.19" r="24.41" transform="translate(155.42 1143.87) rotate(-81.78)"/><circle class="cls-25" cx="738.16" cy="482.02" r="24.19" transform="translate(157.62 1145.5) rotate(-81.96)"/><circle class="cls-26" cx="738.16" cy="481.85" r="23.97" transform="translate(159.87 1147.16) rotate(-82.14)"/><circle class="cls-27" cx="738.16" cy="481.68" r="23.75" transform="translate(162.16 1148.86) rotate(-82.32)"/><circle class="cls-28" cx="738.16" cy="481.51" r="23.53" transform="translate(164.5 1150.58) rotate(-82.51)"/><circle class="cls-29" cx="738.16" cy="481.34" r="23.31" transform="translate(166.88 1152.32) rotate(-82.7)"/><circle class="cls-30" cx="738.16" cy="481.17" r="23.09" transform="translate(169.33 1154.1) rotate(-82.89)"/><circle class="cls-31" cx="738.16" cy="481" r="22.87" transform="translate(171.82 1155.91) rotate(-83.09)"/><circle class="cls-32" cx="738.16" cy="480.83" r="22.65" transform="translate(174.37 1157.75) rotate(-83.29)"/><circle class="cls-33" cx="738.16" cy="480.66" r="22.42" transform="translate(176.97 1159.62) rotate(-83.5)"/><circle class="cls-34" cx="738.16" cy="480.49" r="22.2" transform="translate(179.64 1161.52) rotate(-83.71)"/><circle class="cls-35" cx="738.16" cy="480.32" r="21.98" transform="translate(182.36 1163.46) rotate(-83.92)"/><circle class="cls-36" cx="738.16" cy="480.15" r="21.76" transform="translate(185.14 1165.42) rotate(-84.14)"/><circle class="cls-37" cx="738.16" cy="479.98" r="21.54" transform="translate(187.99 1167.42) rotate(-84.36)"/><circle class="cls-38" cx="738.16" cy="479.81" r="21.32" transform="translate(190.91 1169.46) rotate(-84.59)"/><circle class="cls-39" cx="738.16" cy="479.64" r="21.1" transform="translate(193.89 1171.52) rotate(-84.82)"/><circle class="cls-40" cx="738.16" cy="479.47" r="20.88" transform="translate(196.94 1173.62) rotate(-85.06)"/><circle class="cls-41" cx="738.16" cy="479.3" r="20.66" transform="translate(200.06 1175.76) rotate(-85.31)"/><circle class="cls-42" cx="738.16" cy="479.13" r="20.44" transform="translate(203.25 1177.93) rotate(-85.55)"/><circle class="cls-43" cx="738.16" cy="478.96" r="20.22" transform="translate(206.52 1180.13) rotate(-85.81)"/><circle class="cls-44" cx="738.16" cy="478.79" r="20" transform="translate(209.87 1182.37) rotate(-86.07)"/><circle class="cls-45" cx="738.16" cy="478.62" r="19.78" transform="translate(213.3 1184.65) rotate(-86.33)"/><circle class="cls-46" cx="738.16" cy="478.45" r="19.56" transform="translate(216.81 1186.96) rotate(-86.6)"/><circle class="cls-47" cx="738.16" cy="478.28" r="19.34" transform="translate(220.4 1189.3) rotate(-86.88)"/><circle class="cls-48" cx="738.16" cy="478.11" r="19.12" transform="translate(224.09 1191.69) rotate(-87.16)"/><circle class="cls-49" cx="738.16" cy="477.94" r="18.9" transform="translate(227.86 1194.1) rotate(-87.45)"/><circle class="cls-50" cx="738.16" cy="477.77" r="18.68" transform="translate(231.72 1196.56) rotate(-87.75)"/><circle class="cls-51" cx="738.16" cy="477.6" r="18.46" transform="translate(235.68 1199.05) rotate(-88.05)"/><circle class="cls-52" cx="738.16" cy="477.43" r="18.24" transform="translate(239.74 1201.58) rotate(-88.35)"/><circle class="cls-53" cx="738.16" cy="477.26" r="18.02" transform="translate(243.9 1204.14) rotate(-88.67)"/><circle class="cls-54" cx="738.16" cy="477.09" r="17.8" transform="translate(248.16 1206.74) rotate(-88.99)"/><circle class="cls-55" cx="738.16" cy="476.91" r="17.58" transform="translate(252.53 1209.37) rotate(-89.32)"/><circle class="cls-56" cx="738.16" cy="476.74" r="17.36" transform="translate(257 1212.03) rotate(-89.66)"/><circle class="cls-57" cx="738.16" cy="476.57" r="17.14"/></g><circle class="cls-74" cx="738.64" cy="470.53" r="24.32"/><path class="cls-62" d="M738.7,465.66c2,0,3.06,1.14,3.06,2.56a2.13,2.13,0,0,1-1.42,2.12v.05a2.22,2.22,0,0,1,1.59,2.28c0,1.59-1.14,2.73-3.12,2.73s-3.39-.93-3.45-3.06h2.15a1.12,1.12,0,0,0,1.23,1.22,1,1,0,0,0,1.06-1.06c0-.84-.51-1.17-1.66-1.17h-.41v-1.8h.41c.75,0,1.48-.18,1.48-1a.9.9,0,0,0-1-1,1,1,0,0,0-1,1h-2.16C735.55,466.68,736.77,465.66,738.7,465.66Z"/><path class="cls-62" d="M747.46,469.37a8.45,8.45,0,0,1,0,2.32,2.16,2.16,0,0,0,1.07,2.15l1,.57a.44.44,0,0,1,.22.28.5.5,0,0,1-.05.36l-1.6,2.78a.49.49,0,0,1-.29.22.5.5,0,0,1-.36-.05l-1-.57a2.17,2.17,0,0,0-2.39.16,9.21,9.21,0,0,1-2,1.16,2.16,2.16,0,0,0-1.32,2v1.13a.47.47,0,0,1-.47.47H737a.47.47,0,0,1-.47-.47v-1.13a2.16,2.16,0,0,0-1.33-2,9,9,0,0,1-2-1.16,2.14,2.14,0,0,0-1.31-.45,2.19,2.19,0,0,0-1.08.29l-1,.57a.48.48,0,0,1-.35.05.44.44,0,0,1-.29-.22l-1.6-2.78a.46.46,0,0,1,.17-.64l1-.57a2.14,2.14,0,0,0,1.06-2.15,9.65,9.65,0,0,1,0-2.32,2.14,2.14,0,0,0-1.06-2.15l-1-.57a.44.44,0,0,1-.22-.28.46.46,0,0,1,.05-.36l1.6-2.78a.44.44,0,0,1,.29-.22.48.48,0,0,1,.35.05l1,.56a2.16,2.16,0,0,0,2.4-.15l.1-.07a.86.86,0,0,0,.29-.21,8.47,8.47,0,0,1,1.62-.88,2.16,2.16,0,0,0,1.33-2v-1.13a.47.47,0,0,1,.47-.47h3.21a.47.47,0,0,1,.47.47v1.13a2.16,2.16,0,0,0,1.32,2,8.82,8.82,0,0,1,2,1.16,2.15,2.15,0,0,0,2.39.16l1-.57a.5.5,0,0,1,.36-.05.49.49,0,0,1,.29.22l1.6,2.78a.47.47,0,0,1-.17.64l-1,.57A2.16,2.16,0,0,0,747.46,469.37Zm-8,14.67h.76a2.16,2.16,0,0,0,2.16-2.16v-1.13a.46.46,0,0,1,.28-.43,10.43,10.43,0,0,0,2.4-1.39.47.47,0,0,1,.51,0l1,.57a2.15,2.15,0,0,0,2.95-.79l1.61-2.78a2.16,2.16,0,0,0-.79-3l-1-.57a.46.46,0,0,1-.24-.46,10.63,10.63,0,0,0,0-2.76.46.46,0,0,1,.24-.46l1-.57a2.17,2.17,0,0,0,.79-3l-1.61-2.78a2.15,2.15,0,0,0-2.95-.79l-.32.18a1.45,1.45,0,0,1-1.69,0,10.79,10.79,0,0,0-1.89-1,.46.46,0,0,1-.28-.43v-1.13a2.16,2.16,0,0,0-2.16-2.16H737a2.17,2.17,0,0,0-2.17,2.16v1.13a.46.46,0,0,1-.28.43c-.25.11-.5.22-.75.35l-1.69,1.07a.49.49,0,0,1-.47,0l-1-.57a2.14,2.14,0,0,0-1.64-.22,2.17,2.17,0,0,0-1.32,1l-1.6,2.78a2.16,2.16,0,0,0,.79,3l1,.57a.44.44,0,0,1,.23.46,10.62,10.62,0,0,0,0,2.76.44.44,0,0,1-.23.46l-1,.57a2.17,2.17,0,0,0-.79,3l1.6,2.78a2.17,2.17,0,0,0,1.32,1,2.14,2.14,0,0,0,1.64-.22l1-.57a.49.49,0,0,1,.52,0,10.58,10.58,0,0,0,2.39,1.39.46.46,0,0,1,.28.43v1.13A2.17,2.17,0,0,0,737,484h2.45Z"/><rect class="cls-4" x="509.04" y="90.82" width="457.92" height="127.53" rx="15"/><g class="cls-5"><ellipse class="cls-6" cx="738" cy="177.73" rx="209.72" ry="68.02"/><ellipse class="cls-7" cx="738" cy="177.44" rx="208.44" ry="67.6"/><ellipse class="cls-8" cx="738" cy="177.14" rx="207.16" ry="67.19"/><ellipse class="cls-9" cx="738" cy="176.85" rx="205.88" ry="66.77"/><ellipse class="cls-10" cx="738" cy="176.55" rx="204.59" ry="66.36"/><ellipse class="cls-11" cx="738" cy="176.26" rx="203.31" ry="65.94"/><ellipse class="cls-12" cx="738" cy="175.96" rx="202.03" ry="65.52"/><ellipse class="cls-13" cx="738" cy="175.66" rx="200.75" ry="65.11"/><ellipse class="cls-14" cx="738" cy="175.37" rx="199.47" ry="64.69"/><ellipse class="cls-15" cx="738" cy="175.07" rx="198.19" ry="64.28"/><ellipse class="cls-16" cx="738" cy="174.78" rx="196.91" ry="63.86"/><ellipse class="cls-17" cx="738" cy="174.48" rx="195.62" ry="63.45"/><ellipse class="cls-18" cx="738" cy="174.18" rx="194.34" ry="63.03"/><ellipse class="cls-19" cx="738" cy="173.89" rx="193.06" ry="62.61"/><ellipse class="cls-20" cx="738" cy="173.59" rx="191.78" ry="62.2"/><ellipse class="cls-21" cx="738" cy="173.3" rx="190.5" ry="61.78"/><ellipse class="cls-22" cx="738" cy="173" rx="189.22" ry="61.37"/><ellipse class="cls-23" cx="738" cy="172.71" rx="187.93" ry="60.95"/><ellipse class="cls-24" cx="738" cy="172.41" rx="186.65" ry="60.54"/><ellipse class="cls-25" cx="738" cy="172.11" rx="185.37" ry="60.12"/><ellipse class="cls-26" cx="738" cy="171.82" rx="184.09" ry="59.7"/><ellipse class="cls-27" cx="738" cy="171.52" rx="182.81" ry="59.29"/><ellipse class="cls-28" cx="738" cy="171.23" rx="181.53" ry="58.87"/><ellipse class="cls-29" cx="738" cy="170.93" rx="180.24" ry="58.46"/><ellipse class="cls-30" cx="738" cy="170.63" rx="178.96" ry="58.04"/><ellipse class="cls-31" cx="738" cy="170.34" rx="177.68" ry="57.63"/><ellipse class="cls-32" cx="738" cy="170.04" rx="176.4" ry="57.21"/><ellipse class="cls-33" cx="738" cy="169.75" rx="175.12" ry="56.8"/><ellipse class="cls-34" cx="738" cy="169.45" rx="173.84" ry="56.38"/><ellipse class="cls-35" cx="738" cy="169.16" rx="172.56" ry="55.96"/><ellipse class="cls-36" cx="738" cy="168.86" rx="171.27" ry="55.55"/><ellipse class="cls-37" cx="738" cy="168.56" rx="169.99" ry="55.13"/><ellipse class="cls-38" cx="738" cy="168.27" rx="168.71" ry="54.72"/><ellipse class="cls-39" cx="738" cy="167.97" rx="167.43" ry="54.3"/><ellipse class="cls-40" cx="738" cy="167.68" rx="166.15" ry="53.89"/><ellipse class="cls-41" cx="738" cy="167.38" rx="164.87" ry="53.47"/><ellipse class="cls-42" cx="738" cy="167.08" rx="163.58" ry="53.05"/><ellipse class="cls-43" cx="738" cy="166.79" rx="162.3" ry="52.64"/><ellipse class="cls-44" cx="738" cy="166.49" rx="161.02" ry="52.22"/><ellipse class="cls-45" cx="738" cy="166.2" rx="159.74" ry="51.81"/><ellipse class="cls-46" cx="738" cy="165.9" rx="158.46" ry="51.39"/><ellipse class="cls-47" cx="738" cy="165.61" rx="157.18" ry="50.98"/><ellipse class="cls-48" cx="738" cy="165.31" rx="155.9" ry="50.56"/><ellipse class="cls-49" cx="738" cy="165.01" rx="154.61" ry="50.15"/><ellipse class="cls-50" cx="738" cy="164.72" rx="153.33" ry="49.73"/><ellipse class="cls-51" cx="738" cy="164.42" rx="152.05" ry="49.31"/><ellipse class="cls-52" cx="738" cy="164.13" rx="150.77" ry="48.9"/><ellipse class="cls-53" cx="738" cy="163.83" rx="149.49" ry="48.48"/><ellipse class="cls-54" cx="738" cy="163.53" rx="148.21" ry="48.07"/><ellipse class="cls-55" cx="738" cy="163.24" rx="146.92" ry="47.65"/><ellipse class="cls-56" cx="738" cy="162.94" rx="145.64" ry="47.24"/><ellipse class="cls-57" cx="738" cy="162.65" rx="144.36" ry="46.82"/></g><rect class="cls-75" x="519.78" y="100.74" width="436.45" height="107.69" rx="15"/><rect class="cls-76" x="519.78" y="100.74" width="436.45" height="107.69" rx="15"/><text class="cls-77" transform="translate(680.32 148.86)">OUR RESULT <tspan x="0" y="31.07">PROCESS</tspan></text><g class="cls-5"><circle class="cls-6" cx="587.39" cy="173.74" r="37.39" transform="translate(-21.99 235.92) rotate(-22.3)"/><circle class="cls-7" cx="587.39" cy="173.52" r="37.1" transform="translate(-22.06 234.43) rotate(-22.16)"/><circle class="cls-8" cx="587.39" cy="173.3" r="36.81" transform="translate(-22.12 232.89) rotate(-22.02)"/><circle class="cls-9" cx="587.39" cy="173.07" r="36.52" transform="translate(-22.19 231.31) rotate(-21.87)"/><circle class="cls-10" cx="587.39" cy="172.85" r="36.23" transform="translate(-22.26 229.68) rotate(-21.72)"/><circle class="cls-11" cx="587.39" cy="172.62" r="35.94" transform="translate(-22.33 227.99) rotate(-21.57)"/><circle class="cls-12" cx="587.39" cy="172.4" r="35.65" transform="translate(-22.4 226.26) rotate(-21.4)"/><circle class="cls-13" cx="587.39" cy="172.17" r="35.36" transform="translate(-22.48 224.47) rotate(-21.24)"/><circle class="cls-14" cx="587.39" cy="171.95" r="35.07" transform="translate(-22.55 222.62) rotate(-21.07)"/><circle class="cls-15" cx="587.39" cy="171.72" r="34.78" transform="translate(-22.62 220.71) rotate(-20.89)"/><circle class="cls-16" cx="587.39" cy="171.5" r="34.49" transform="translate(-22.7 218.73) rotate(-20.7)"/><circle class="cls-17" cx="587.39" cy="171.28" r="34.2" transform="translate(-22.77 216.69) rotate(-20.51)"/><circle class="cls-18" cx="587.39" cy="171.05" r="33.91" transform="translate(-22.85 214.57) rotate(-20.31)"/><circle class="cls-19" cx="587.39" cy="170.83" r="33.62" transform="translate(-22.92 212.38) rotate(-20.11)"/><circle class="cls-20" cx="587.39" cy="170.6" r="33.33" transform="translate(-23 210.11) rotate(-19.9)"/><circle class="cls-21" cx="587.39" cy="170.38" r="33.04" transform="translate(-23.07 207.76) rotate(-19.68)"/><circle class="cls-22" cx="587.39" cy="170.15" r="32.74" transform="translate(-23.14 205.32) rotate(-19.45)"/><circle class="cls-23" cx="587.39" cy="169.93" r="32.45" transform="translate(-23.2 202.79) rotate(-19.22)"/><circle class="cls-24" cx="587.39" cy="169.7" r="32.16" transform="translate(-23.26 200.17) rotate(-18.97)"/><circle class="cls-25" cx="587.39" cy="169.48" r="31.87" transform="matrix(0.95, -0.32, 0.32, 0.95, -23.32, 197.44)"/><circle class="cls-26" cx="587.39" cy="169.26" r="31.58" transform="translate(-23.37 194.6) rotate(-18.45)"/><circle class="cls-27" cx="587.39" cy="169.03" r="31.29" transform="translate(-23.42 191.65) rotate(-18.18)"/><circle class="cls-28" cx="587.39" cy="168.81" r="31" transform="translate(-23.45 188.58) rotate(-17.89)"/><circle class="cls-29" cx="587.39" cy="168.58" r="30.71" transform="translate(-23.48 185.39) rotate(-17.59)"/><circle class="cls-30" cx="587.39" cy="168.36" r="30.42" transform="translate(-23.5 182.06) rotate(-17.28)"/><circle class="cls-31" cx="587.39" cy="168.13" r="30.13" transform="translate(-23.5 178.59) rotate(-16.95)"/><circle class="cls-32" cx="587.39" cy="167.91" r="29.84" transform="translate(-23.49 174.97) rotate(-16.62)"/><circle class="cls-33" cx="587.39" cy="167.68" r="29.55" transform="translate(-23.46 171.19) rotate(-16.26)"/><circle class="cls-34" cx="587.39" cy="167.46" r="29.26" transform="translate(-23.4 167.24) rotate(-15.89)"/><circle class="cls-35" cx="587.39" cy="167.24" r="28.97" transform="translate(-23.33 163.12) rotate(-15.51)"/><circle class="cls-36" cx="587.39" cy="167.01" r="28.68" transform="translate(-23.23 158.8) rotate(-15.1)"/><circle class="cls-37" cx="587.39" cy="166.79" r="28.39" transform="matrix(0.97, -0.25, 0.25, 0.97, -23.09, 154.29)"/><circle class="cls-38" cx="587.39" cy="166.56" r="28.1" transform="translate(-22.92 149.56) rotate(-14.24)"/><circle class="cls-39" cx="587.39" cy="166.34" r="27.81" transform="translate(-22.71 144.61) rotate(-13.77)"/><circle class="cls-40" cx="587.39" cy="166.11" r="27.52" transform="translate(-22.45 139.43) rotate(-13.29)"/><circle class="cls-41" cx="587.39" cy="165.89" r="27.23" transform="translate(-22.14 133.99) rotate(-12.77)"/><circle class="cls-42" cx="587.39" cy="165.66" r="26.94" transform="translate(-21.77 128.28) rotate(-12.24)"/><circle class="cls-43" cx="587.39" cy="165.44" r="26.65" transform="translate(-21.33 122.29) rotate(-11.68)"/><circle class="cls-44" cx="587.39" cy="165.22" r="26.36" transform="translate(-20.8 116) rotate(-11.08)"/><circle class="cls-45" cx="587.39" cy="164.99" r="26.07" transform="translate(-20.19 109.4) rotate(-10.46)"/><circle class="cls-46" cx="587.39" cy="164.77" r="25.78" transform="matrix(0.99, -0.17, 0.17, 0.99, -19.48, 102.46)"/><circle class="cls-47" cx="587.39" cy="164.54" r="25.49" transform="translate(-18.65 95.18) rotate(-9.12)"/><circle class="cls-48" cx="587.39" cy="164.32" r="25.2" transform="translate(-17.7 87.53) rotate(-8.4)"/><circle class="cls-49" cx="587.39" cy="164.09" r="24.91" transform="translate(-16.59 79.5) rotate(-7.64)"/><circle class="cls-50" cx="587.39" cy="163.87" r="24.62" transform="translate(-15.33 71.07) rotate(-6.83)"/><circle class="cls-51" cx="587.39" cy="163.64" r="24.33" transform="translate(-13.88 62.22) rotate(-5.99)"/><circle class="cls-52" cx="587.39" cy="163.42" r="24.04" transform="translate(-12.22 52.95) rotate(-5.11)"/><circle class="cls-53" cx="587.39" cy="163.2" r="23.75" transform="translate(-10.33 43.25) rotate(-4.18)"/><circle class="cls-54" cx="587.39" cy="162.97" r="23.46" transform="translate(-8.19 33.1) rotate(-3.21)"/><circle class="cls-55" cx="587.39" cy="162.75" r="23.17" transform="translate(-5.78 22.51) rotate(-2.18)"/><circle class="cls-56" cx="587.39" cy="162.52" r="22.87" transform="translate(-3.05 11.47) rotate(-1.12)"/><circle class="cls-57" cx="587.39" cy="162.3" r="22.58"/></g><circle class="cls-78" cx="588.03" cy="154.33" r="32.05" transform="translate(302.08 690.83) rotate(-76.65)"/><path class="cls-79" d="M602.54,143.69a.76.76,0,0,0,.21,0,.63.63,0,0,0,.46-.19l3.46-3.46a.63.63,0,0,0,.17-.61.65.65,0,0,0-.42-.47l-2.29-.76-.76-2.29a.7.7,0,0,0-.47-.43.66.66,0,0,0-.61.18l-3.46,3.46a.63.63,0,0,0-.16.66l.74,2.22-1.49,1.49a17.36,17.36,0,1,0,.91.92l1.5-1.49Zm-.44,12.37a15.81,15.81,0,1,1-5.1-11.62l-3.37,3.37a11,11,0,1,0,3.59,9.84.65.65,0,0,0-.64-.74h0a.65.65,0,0,0-.64.56,9.75,9.75,0,1,1-3.23-8.74l-3.38,3.38a5,5,0,1,0-4.85,8.59.66.66,0,0,0,.89-.61h0a.66.66,0,0,0-.42-.61A3.68,3.68,0,1,1,588.4,153l-2.56,2.56a.65.65,0,0,0,.46,1.11.65.65,0,0,0,.46-.19l2.56-2.56a3.68,3.68,0,0,1-1.69,5.53.66.66,0,0,0-.4.6.65.65,0,0,0,.89.6,5,5,0,0,0,2.13-7.66l3.38-3.38a9.68,9.68,0,0,1,2.28,4.85.65.65,0,0,0,.64.55h0a.65.65,0,0,0,.64-.75,11.1,11.1,0,0,0-2.65-5.57l3.37-3.37A15.78,15.78,0,0,1,602.1,156.06Zm.37-18.71L603,139a.64.64,0,0,0,.41.41l1.6.53-2.44,2.44-1.9-.64-.64-1.91Z"/></g></g></svg>