<svg width="96" height="96" viewBox="0 0 96 96" fill="none" xmlns="http://www.w3.org/2000/svg">
<path d="M66.4001 45.8V40C66.4001 37.4 64.3001 35.3 61.7001 35.3H55.9001V33.6C55.9001 31 53.8001 28.9 51.2001 28.9H44.8001C42.2001 28.9 40.1001 31 40.1001 33.6V35.3H34.3001C31.7001 35.3 29.6001 37.4 29.6001 40V45.8C29.6001 46.9 30.4001 47.9 31.5001 48.1C31.6001 48.1 31.7001 48.1 31.7001 48.1V57.1C31.7001 59.7 33.8001 61.8 36.4001 61.8H59.4001C62.0001 61.8 64.1001 59.7 64.1001 57.1V48.1C64.2001 48.1 64.3001 48.1 64.3001 48.1C65.5001 47.9 66.4001 47 66.4001 45.8ZM43.5001 33.6C43.5001 32.9 44.1001 32.3 44.8001 32.3H51.2001C51.9001 32.3 52.5001 32.9 52.5001 33.6V35.3H43.5001V33.6ZM33.0001 40C33.0001 39.3 33.6001 38.7 34.3001 38.7H61.7001C62.4001 38.7 63.0001 39.3 63.0001 40V45C60.1001 45.5 56.7001 45.8 53.1001 46V45.7C53.1001 44.1 51.8001 42.8 50.2001 42.8H45.9001C44.3001 42.8 43.0001 44.1 43.0001 45.7V46C39.4001 45.8 36.0001 45.5 33.1001 45V40H33.0001ZM49.7001 46.1V49.5H46.3001V46.1H49.7001ZM60.8001 57.2C60.8001 57.9 60.2001 58.5 59.5001 58.5H36.5001C35.8001 58.5 35.2001 57.9 35.2001 57.2V48.7C37.6001 49 40.2001 49.2 43.0001 49.4V50C43.0001 51.6 44.3001 52.9 45.9001 52.9H50.2001C51.8001 52.9 53.1001 51.6 53.1001 50V49.4C55.8001 49.3 58.4001 49.1 60.8001 48.7V57.2Z" fill="white"/>
<path d="M46.2999 14.5V21.3C46.2999 22.2 47.0999 23 47.9999 23C48.8999 23 49.6999 22.2 49.6999 21.3V14.5C52.7999 13.7 55.0999 11 55.0999 7.6C55.0999 3.7 51.8999 0.5 47.9999 0.5C44.0999 0.5 40.8999 3.7 40.8999 7.6C40.8999 10.9 43.1999 13.7 46.2999 14.5ZM47.9999 3.9C50.0999 3.9 51.6999 5.6 51.6999 7.6C51.6999 9.6 49.9999 11.3 47.9999 11.3C45.9999 11.3 44.2999 9.6 44.2999 7.6C44.2999 5.6 45.8999 3.9 47.9999 3.9Z" fill="white"/>
<path d="M19.4002 26.5C20.7002 26.5 22.0002 26.1 23.1002 25.4L27.9002 30.2C28.2002 30.5 28.7002 30.7 29.1002 30.7C29.5002 30.7 30.0002 30.5 30.3002 30.2C31.0002 29.5 31.0002 28.5 30.3002 27.8L25.5002 23C26.2002 21.9 26.6002 20.7 26.6002 19.3C26.6002 15.4 23.4002 12.2 19.5002 12.2C15.6002 12.2 12.4002 15.4 12.4002 19.3C12.3002 23.4 15.5002 26.5 19.4002 26.5ZM19.4002 15.7C21.5002 15.7 23.1002 17.4 23.1002 19.4C23.1002 21.4 21.4002 23.1 19.4002 23.1C17.4002 23.1 15.7002 21.4 15.7002 19.4C15.7002 17.4 17.4002 15.7 19.4002 15.7Z" fill="white"/>
<path d="M14.5 49.7H21.3C22.2 49.7 23 48.9 23 48C23 47.1 22.2 46.3 21.3 46.3H14.5C13.7 43.2 11 40.9 7.6 40.9C3.7 40.9 0.5 44.1 0.5 48C0.5 51.9 3.7 55.1 7.6 55.1C10.9 55.1 13.7 52.8 14.5 49.7ZM7.6 51.7C5.5 51.7 3.9 50 3.9 48C3.9 45.9 5.6 44.3 7.6 44.3C9.6 44.3 11.3 46 11.3 48C11.3 50.1 9.7 51.7 7.6 51.7Z" fill="white"/>
<path d="M27.8998 65.7L23.0998 70.5C21.9998 69.8 20.7998 69.4 19.3998 69.4C15.4998 69.4 12.2998 72.6 12.2998 76.5C12.2998 80.4 15.4998 83.6 19.3998 83.6C23.2998 83.6 26.4998 80.4 26.4998 76.5C26.4998 75.2 26.0998 73.9 25.3998 72.8L30.1998 68C30.8998 67.3 30.8998 66.3 30.1998 65.6C29.4998 64.9 28.5998 65.1 27.8998 65.7ZM19.3998 80.3C17.2998 80.3 15.6998 78.6 15.6998 76.6C15.6998 74.5 17.3998 72.9 19.3998 72.9C21.3998 72.9 23.0998 74.6 23.0998 76.6C23.1998 78.6 21.4998 80.3 19.3998 80.3Z" fill="white"/>
<path d="M49.6999 81.5V74.7C49.6999 73.8 48.8999 73 47.9999 73C47.0999 73 46.2999 73.8 46.2999 74.7V81.5C43.1999 82.3 40.8999 85 40.8999 88.4C40.8999 92.3 44.0999 95.5 47.9999 95.5C51.8999 95.5 55.0999 92.3 55.0999 88.4C55.0999 85.1 52.7999 82.3 49.6999 81.5ZM47.9999 92.1C45.8999 92.1 44.2999 90.4 44.2999 88.4C44.2999 86.3 45.9999 84.7 47.9999 84.7C49.9999 84.7 51.6999 86.4 51.6999 88.4C51.6999 90.5 50.0999 92.1 47.9999 92.1Z" fill="white"/>
<path d="M76.5998 69.5C75.2998 69.5 73.9998 69.9 72.8998 70.6L68.0998 65.8C67.3998 65.1 66.3998 65.1 65.6998 65.8C64.9998 66.5 64.9998 67.5 65.6998 68.2L70.4998 73C69.7998 74.1 69.3998 75.3 69.3998 76.7C69.3998 80.6 72.5998 83.8 76.4998 83.8C80.3998 83.8 83.5998 80.6 83.5998 76.7C83.6998 72.6 80.4998 69.5 76.5998 69.5ZM76.5998 80.3C74.4998 80.3 72.8998 78.6 72.8998 76.6C72.8998 74.5 74.5998 72.9 76.5998 72.9C78.5998 72.9 80.2998 74.6 80.2998 76.6C80.2998 78.6 78.5998 80.3 76.5998 80.3Z" fill="white"/>
<path d="M88.4 40.9C85.1 40.9 82.3 43.2 81.5 46.3H74.7C73.8 46.3 73 47.1 73 48C73 48.9 73.8 49.7 74.7 49.7H81.5C82.3 52.8 85 55.1 88.4 55.1C92.3 55.1 95.5 51.9 95.5 48C95.5 44.1 92.3 40.9 88.4 40.9ZM88.4 51.7C86.3 51.7 84.7 50 84.7 48C84.7 45.9 86.4 44.3 88.4 44.3C90.5 44.3 92.1 46 92.1 48C92.1 50.1 90.5 51.7 88.4 51.7Z" fill="white"/>
<path d="M66.8999 30.8C67.2999 30.8 67.7999 30.6 68.0999 30.3L72.8999 25.5C73.9999 26.2 75.1999 26.6 76.5999 26.6C80.4999 26.6 83.6999 23.4 83.6999 19.5C83.6999 15.6 80.4999 12.4 76.5999 12.4C72.6999 12.4 69.4999 15.6 69.4999 19.5C69.4999 20.8 69.8999 22.1 70.5999 23.2L65.7999 28C65.0999 28.7 65.0999 29.7 65.7999 30.4C65.9999 30.6 66.4999 30.8 66.8999 30.8ZM76.5999 15.7C78.6999 15.7 80.2999 17.4 80.2999 19.4C80.2999 21.4 78.5999 23.1 76.5999 23.1C74.5999 23.1 72.8999 21.4 72.8999 19.4C72.8999 17.4 74.4999 15.7 76.5999 15.7Z" fill="white"/>
</svg>
