<svg width="55" height="58" viewBox="0 0 55 58" fill="none" xmlns="http://www.w3.org/2000/svg">
<path fill-rule="evenodd" clip-rule="evenodd" d="M48.1327 50.3788H40.2857C40.2857 31.1273 25.3244 15.4661 6.93317 15.4661V7.25195C29.6503 7.25195 48.1327 26.599 48.1327 50.3788ZM6.93391 44.2163C6.93391 40.8139 9.56921 38.0553 12.8196 38.0553C16.0699 38.0553 18.7052 40.8139 18.7052 44.2163C18.7052 47.6187 16.0699 50.3772 12.8196 50.3772C9.56921 50.3772 6.93391 47.6187 6.93391 44.2163ZM26.553 50.3787H34.4001C34.4001 34.525 22.0785 21.627 6.93321 21.627V29.8426C17.751 29.8426 26.553 39.0549 26.553 50.3787Z" fill="white"/>
</svg>
