<svg width="79" height="75" viewBox="0 0 79 75" fill="none" xmlns="http://www.w3.org/2000/svg">
<g opacity="0.8">
<path d="M64.8981 43.7947C65.5105 43.586 66.0496 43.2201 66.455 42.738C66.8603 42.2558 67.116 41.6764 67.1934 41.0646C67.2708 40.4527 67.1668 39.8326 66.8931 39.2735C66.6194 38.7144 66.1868 38.2384 65.6437 37.8987L19.797 9.28965C19.2286 8.93472 18.5633 8.74407 17.8824 8.74095C17.2015 8.73784 16.5343 8.9224 15.9623 9.27211C15.3902 9.62183 14.9381 10.1216 14.661 10.7104C14.3839 11.2993 14.2938 11.9517 14.4017 12.5882L17.2942 29.6397C17.4153 30.3524 17.7783 31.0084 18.3284 31.5083C18.8785 32.0082 19.5856 32.3248 20.3428 32.4102L36.2648 34.2146C37.1886 34.3193 38.0306 34.7672 38.6057 35.4596C39.1807 36.152 39.4416 37.0324 39.331 37.9069C39.2204 38.7814 38.7474 39.5786 38.0159 40.1229C37.2845 40.6673 36.3546 40.9143 35.4308 40.8096L19.5088 39.0052C18.7517 38.919 17.9856 39.0686 17.3264 39.4315C16.6672 39.7943 16.1509 40.3506 15.8555 41.0161L8.79644 56.9398C8.53254 57.5339 8.45697 58.1879 8.57895 58.8221C8.70094 59.4562 9.0152 60.043 9.48342 60.5109C9.95163 60.9788 10.5536 61.3077 11.2158 61.4573C11.8781 61.607 12.572 61.571 13.213 61.3537L64.8976 43.798L64.8981 43.7947Z" fill="#F5F3FF"/>
</g>
</svg>
