<svg width="56" height="58" viewBox="0 0 56 58" fill="none" xmlns="http://www.w3.org/2000/svg">
<path d="M48.9334 16.2975C47.4196 17.0191 45.7897 17.5072 44.08 17.7252C45.826 16.6038 47.1657 14.8257 47.7969 12.7075C46.1621 13.7458 44.3557 14.5012 42.4259 14.9062C40.8879 13.1436 38.6897 12.043 36.2569 12.043C31.5921 12.043 27.8075 16.1054 27.8075 21.1153C27.8075 21.8266 27.88 22.5171 28.0251 23.1816C21.0001 22.8026 14.773 19.1944 10.6015 13.6991C9.87361 15.0437 9.45767 16.6038 9.45767 18.2651C9.45767 21.4113 10.9497 24.1888 13.2181 25.8164C11.8348 25.7722 10.529 25.3595 9.38754 24.6846V24.7962C9.38754 29.1935 12.3015 32.8614 16.1708 33.6921C15.4622 33.9049 14.715 34.0114 13.9436 34.0114C13.3994 34.0114 12.8674 33.9568 12.3523 33.8504C13.4285 37.4534 16.548 40.0778 20.248 40.1479C17.3557 42.5827 13.709 44.0338 9.75028 44.0338C9.06833 44.0338 8.39363 43.9923 7.73344 43.9092C11.4745 46.4791 15.9193 47.982 20.6905 47.982C36.24 47.982 44.7402 34.1593 44.7402 22.1692C44.7402 21.7747 44.7329 21.3801 44.7184 20.9933C46.3701 19.7136 47.8041 18.1172 48.9334 16.2975Z" fill="white"/>
</svg>
