<svg width="530" height="88" viewBox="0 0 530 88" fill="none" xmlns="http://www.w3.org/2000/svg">
<path d="M15.12 69.072L26.928 69L36.792 33.216L46.224 69H58.104L72.144 18.744H61.272L52.344 57.552L42.696 18.744H31.464L21.24 57.768L12.384 18.744H1.584L15.12 69.072ZM96.0261 47.544H126.554V39.048H96.0261V47.544ZM165.167 69.072L176.975 69L186.839 33.216L196.271 69H208.151L222.191 18.744H211.319L202.391 57.552L192.743 18.744H181.511L171.287 57.768L162.431 18.744H151.631L165.167 69.072ZM246.073 47.544H276.601V39.048H246.073V47.544ZM315.214 69.072L327.022 69L336.886 33.216L346.318 69H358.198L372.238 18.744H361.366L352.438 57.552L342.79 18.744H331.558L321.334 57.768L312.478 18.744H301.678L315.214 69.072ZM396.12 47.544H426.648V39.048H396.12V47.544ZM486.717 69H496.797V18.744H486.717V39.408H465.189V18.744H455.109V69H465.189V47.616H486.717V69Z" fill="white"/>
</svg>
