<svg width="123" height="46" viewBox="0 0 123 46" fill="none" xmlns="http://www.w3.org/2000/svg">
<g clip-path="url(#clip0_7_6)">
<path d="M52.0725 1.48438C52.0536 1.45621 52.0323 1.42973 52.0089 1.40522C51.8915 1.27657 34.8129 4.57183 28.0304 5.30411C21.1429 6.10232 14.2141 6.47904 7.28164 6.43221C3.24933 6.02154 2.09445 6.85278 1.8302 7.61969C1.56594 8.38661 2.05041 9.17826 3.03891 9.84127C4.50698 10.8308 6.28335 10.0639 8.20652 9.81653C9.91928 9.59388 32.185 6.30357 41.1011 5.01713C35.7916 8.45588 27.7857 15.9617 25.0796 30.9735C24.7028 33.6453 23.1466 40.5129 20.46 40.5723C19.5355 40.5439 18.6174 40.4061 17.7245 40.1616C14.8667 39.5134 11.3629 38.7119 5.27527 42.0269C6.25399 40.6564 7.55568 38.5189 7.67313 36.9406C7.7661 35.6195 7.2327 34.531 6.43016 34.4073C5.99952 34.333 4.91804 34.4914 4.29167 37.3116C3.4255 41.2303 0.714462 44.9907 0.689994 45.0253L0 45.9802L1.07659 45.5547C1.24297 45.4904 17.6022 39.177 26.8119 45.4607L27.4627 45.906L27.3306 45.1144C27.2866 44.862 23.2396 19.3411 43.3669 5.30906L51.9404 2.27603L52.0725 1.48438Z" fill="white"/>
<path d="M67.7515 15.3383L67.6977 15.2838L67.8543 15.1354L67.6145 15.2294C67.2668 15.085 66.8792 15.0727 66.5232 15.1948C55.3904 19.252 36.1341 21.5132 35.9384 21.533L35.5469 21.5824L35.6546 21.904C36.7605 25.2537 38.7033 24.8727 41.3801 24.378C42.1581 24.2345 43.0341 24.0712 43.9932 23.9772C47.5998 23.6308 60.7733 18.5346 65.1824 16.8276C61.1941 21.0629 57.661 27.5149 56.8633 30.4836C56.3201 32.4627 56.6333 37.3264 56.8633 40.5475C56.8633 40.9433 56.9123 41.3441 56.9367 41.7201L56.6872 41.7498C55.7217 40.385 54.5511 39.1813 53.2176 38.1824C50.717 36.3913 40.005 31.681 39.5988 31.5078C36.0901 29.6177 34.6563 30.0729 34.0201 30.5182C32.8212 31.4138 33.0855 33.2544 32.7869 36.7624C32.5676 39.2092 32.1419 41.6325 31.5146 44.006C31.1623 44.7383 30.8148 45.5349 30.9519 45.624C31.0106 45.6635 31.221 45.5893 32.0774 44.5404C32.5151 44.1638 32.9888 43.8323 33.4916 43.5508C36.3641 42.0021 41.8107 40.7998 47.683 42.4969C50.236 43.2567 52.9254 43.4258 55.5518 42.9917C56.1891 43.6538 56.784 44.3562 57.3331 45.0945L57.7686 45.713L57.9644 45.0104C58.0035 44.8768 58.3167 43.7438 58.718 42.1407C59.4945 41.8916 60.2387 41.5494 60.9348 41.1214C61.3907 40.8415 61.8228 40.5237 62.2267 40.1714L58.9284 41.2897C59.7554 37.9152 60.8027 33.1208 60.739 30.6469C60.6754 28.173 63.0488 23.2548 67.4383 16.8226L67.4971 16.7286C67.7809 16.3278 68.1185 15.7143 67.7515 15.3383ZM47.4677 40.5277C45.1385 39.6868 42.6784 39.2778 40.2056 39.3204C38.2162 39.3504 36.2586 39.8288 34.4752 40.7207C35.1755 38.7294 35.7012 36.6797 36.0461 34.5952C36.1684 33.7343 36.4914 33.195 37.0248 32.9872C37.8469 32.6606 38.9822 33.2643 38.9822 33.2692L39.0752 33.3039C44.8758 34.7159 50.1956 37.6753 54.4802 41.8735C52.0876 41.7971 49.7215 41.343 47.4677 40.5277Z" fill="white"/>
<path d="M98.2776 0.113838C96.9906 -0.499693 95.2143 1.54871 94.813 2.13255C93.8343 3.52289 91.8768 17.4708 91.6566 19.0789C90.8198 31.5672 87.5313 39.6371 86.4988 41.9082C83.5464 36.8001 80.2996 31.8718 76.7753 27.1488C74.4361 24.0168 73.2127 19.1877 69.8068 18.5C69.6141 18.4803 69.4198 18.5163 69.2465 18.6039C69.0732 18.6915 68.9281 18.827 68.8281 18.9948C66.2932 23.052 68.1577 29.88 66.0534 36.6338C65.2803 39.1197 64.3452 41.5511 63.2543 43.9121L62.1484 46.0149L63.773 44.4019C68.8036 39.4046 74.0006 41.8983 79.501 44.5355L79.9903 44.768C85.8333 47.5636 90.0809 44.674 90.2669 44.5503L92.5424 42.9571L89.983 43.8477C85.3488 45.4558 80.4161 41.3738 80.3378 41.3194C74.5976 37.4254 70.5066 37.8559 68.4122 38.5832C69.5572 36.4705 70.2081 32.5419 70.8589 28.0641C71.1477 26.085 71.5734 25.5902 71.7985 25.4962C72.097 25.3626 72.5081 25.704 72.8066 25.9514C72.9414 26.0799 73.0949 26.1867 73.2617 26.2681C74.03 26.9806 81.4046 37.1533 86.2248 43.9121L86.3128 44.0358H86.4499C86.856 44.0358 90.443 44.1397 93.2568 27.3764C94.9255 17.4214 96.3887 13.5225 97.4604 10.6874C98.2955 8.69636 98.8553 6.59856 99.1242 4.45309C99.4227 1.93959 99.1487 0.524508 98.2776 0.113838Z" fill="white"/>
<path d="M121.874 37.1929C121.101 36.9999 119.917 38.1824 119.374 39.5035C119.349 39.5579 116.12 44.6196 108.393 42.8433C102.814 41.5618 99.1585 42.5514 97.5338 43.2144L97.71 42.8532C98.7999 39.5756 99.6873 36.2326 100.367 32.8437C100.636 33.5736 101.04 34.2452 101.556 34.8229C102.202 35.3622 113.404 33.863 117.876 31.3149C119.995 30.1076 121.126 28.9201 121.336 27.6782C121.387 27.2381 121.341 26.7922 121.201 26.3722C121.062 25.9523 120.832 25.5686 120.529 25.2488C120.279 24.9321 119.579 24.7293 117.593 24.19C113.957 23.2004 107.184 21.3697 103.029 17.4312C100.871 15.3878 99.3689 14.6951 98.444 15.3136C97.2598 16.0953 97.666 18.5989 97.7198 18.9106C98.0477 20.7364 98.6985 35.4908 96.1685 42.8928L95.8015 45.6883C96.5731 45.0475 97.4559 44.5576 98.4049 44.2435C98.5492 44.1835 98.6982 44.1355 98.8502 44.1C99.4913 43.9516 100.509 43.9764 103.538 44.5948C106.273 45.1589 109.035 45.5801 111.813 45.8565C112.606 45.9307 113.35 45.9703 114.035 45.9703C122.432 45.9703 122.985 40.6366 123.005 40.3892C122.897 39.0087 122.633 37.3759 121.874 37.1929ZM100.778 21.7408C100.517 20.8682 100.389 19.9607 100.397 19.0492C100.716 19.3665 100.99 19.728 101.209 20.1229C103.132 23.2054 117.201 26.7035 119.804 27.3269C119.357 28.2253 118.637 28.9553 117.749 29.4099C113.262 32.0966 103.93 32.5914 102.026 31.8294C101.726 31.6898 101.402 31.6076 101.072 31.587C100.898 31.5798 100.726 31.6302 100.583 31.7305C101.786 24.6551 100.808 21.8744 100.778 21.7408Z" fill="white"/>
</g>
<defs>
<clipPath id="clip0_7_6">
<rect width="123" height="46" fill="white"/>
</clipPath>
</defs>
</svg>
