<svg width="56" height="58" viewBox="0 0 56 58" fill="none" xmlns="http://www.w3.org/2000/svg">
<path fill-rule="evenodd" clip-rule="evenodd" d="M46.617 16.763C47.8517 18.1068 48.2547 21.1582 48.2547 21.1582C48.2547 21.1582 48.6667 24.7425 48.6667 28.3254V31.6855C48.6667 35.2698 48.2547 38.8526 48.2547 38.8526C48.2547 38.8526 47.8517 41.9041 46.617 43.2479C45.2054 44.8375 43.6402 45.0017 42.7554 45.0946C42.6581 45.1048 42.569 45.1141 42.4893 45.1244C36.7239 45.5728 28.0667 45.5866 28.0667 45.5866C28.0667 45.5866 17.3547 45.4815 14.0587 45.141C13.9026 45.1097 13.7133 45.0853 13.4989 45.0576C12.4549 44.923 10.8162 44.7118 9.51516 43.2479C8.28044 41.9041 7.87874 38.8526 7.87874 38.8526C7.87874 38.8526 7.46674 35.2698 7.46674 31.6855V28.3254C7.46674 24.7425 7.87874 21.1582 7.87874 21.1582C7.87874 21.1582 8.28044 18.1068 9.51516 16.763C10.9299 15.1711 12.4967 15.0087 13.3815 14.9169C13.4774 14.907 13.5653 14.8979 13.6442 14.8878C19.4096 14.4395 28.0577 14.4395 28.0577 14.4395H28.0758C28.0758 14.4395 36.7239 14.4395 42.4893 14.8878C42.5681 14.8979 42.6561 14.907 42.7521 14.917C43.6363 15.0087 45.2036 15.1714 46.617 16.763ZM23.8117 23.3154L23.813 35.758L34.9434 29.5582L23.8117 23.3154Z" fill="white"/>
</svg>
