<?xml version="1.0" encoding="utf-8"?>
<!-- Generator: Adobe Illustrator 24.0.1, SVG Export Plug-In . SVG Version: 6.00 Build 0)  -->
<svg version="1.1" id="Layer_1" xmlns="http://www.w3.org/2000/svg" xmlns:xlink="http://www.w3.org/1999/xlink" x="0px" y="0px"
	 viewBox="0 0 750 500" style="enable-background:new 0 0 750 500;" xml:space="preserve">
<style type="text/css">
	.st0{fill:#E0E0E0;}
	.st1{fill:#FAFAFA;}
	.st2{fill:#F5F5F5;}
	.st3{opacity:0.3;}
	.st4{fill:#263238;}
	.st5{fill:#455A64;}
	.st6{fill:#77459B;}
	.st7{fill:#FFFFFF;}
	.st8{fill:#FFBE9D;}
	.st9{fill:#EB996E;}
	.st10{fill:none;}
	.st11{fill:#FFBEA9;}
	.st12{fill:#E4977C;}
	.st13{opacity:0.6;}
	.st14{fill:#AF8B82;}
	.st15{fill:#7F6360;}
</style>
<g id="freepik--background-complete--inject-5">
	<path class="st0" d="M70.5,381.8c-4.3-2.7-9.1-4.4-14.2-4.9c-2.3-0.2-4.8-0.2-6.7,1.2c-0.4,0.3-0.7,0.7-0.7,1.2
		c0.1,0.3,0.3,0.6,0.7,0.8C55.4,384.6,64.1,385.2,70.5,381.8"/>
	<path class="st0" d="M70.2,381.4c-3.3-2.4-6.3-5.1-9.2-8.1c-2.8-3-4.8-6.6-5.7-10.6c-0.4-1.2-0.2-2.5,0.5-3.5
		C63,364.9,68.7,372.3,70.2,381.4"/>
	<path class="st0" d="M70.4,381.8c-0.7-4-0.6-8,0.2-12c0.8-4,3.1-7.5,6.4-9.9c1.3,3,0.7,6.3-0.2,9.4c-1.4,4.8-3.5,9.3-6.3,13.4"/>
	<path class="st0" d="M77.6,394.6c-4.3,0.5-8.1,2.8-11.4,5.8c-3.3,3-5.5,6.9-6.5,11.2c4.3-0.3,7.9-3.3,10.5-6.6
		S74.7,397.8,77.6,394.6"/>
	<path class="st0" d="M79.2,396.6c-3.5-8.8-2.3-18.8,3.2-26.5C84.9,378.9,84,388.9,79.2,396.6"/>
	<path class="st0" d="M88.6,407.9c-8.1-0.5-15.8,3.9-19.4,11.2c-0.2,0.5-0.4,1.1-0.1,1.5c0.3,0.3,0.8,0.5,1.3,0.4
		c3.8-0.3,7.2-2.5,10-5.2S85.6,410.1,88.6,407.9"/>
	<path class="st0" d="M88.3,407.3c-2-6.6-2.1-13.6-0.3-20.2c0.7-2.6,1.9-5.3,4.3-6.5c0.2-0.1,0.4-0.2,0.7-0.1
		c0.2,0.1,0.4,0.3,0.4,0.5c0.8,1.8,1.1,3.8,1,5.8c-0.1,2-0.4,3.9-0.9,5.9c-0.8,3.6-1.2,7.4-3.1,10.5c-0.5,0.7-0.9,1.5-1.3,2.3
		c-0.4,0.8-0.4,1.1-0.7,1.7"/>
	<path class="st0" d="M113.3,411c-1.9-7,0.1-15.6,4.6-21.4c0.3-0.4,0.8-0.9,1.3-0.8c0.8,0.1,1,1.2,1,2
		C119.9,398,117.5,405,113.3,411"/>
	<path class="st0" d="M115.6,412.5c8.9,2.1,18.2,0.2,25.5-5.2c-4.3-2.1-9.2-2.7-13.8-1.7C122.7,406.7,118.5,408.8,115.6,412.5"/>
	<path class="st0" d="M117.5,407.9c4.8-7.8,14-12.9,23.2-13.4c-1.1,3.7-4.1,6.6-7.6,8.4s-7.3,2.5-11.1,3.3
		C120.5,406.4,118.5,406.7,117.5,407.9"/>
	<path class="st0" d="M113.8,385.1c1.5-4.4,2.5-9,3-13.6c0.5-4.6-0.4-9.3-2.7-13.4c-4.5,8.7-4.9,18.8-0.4,27.5"/>
	<path class="st0" d="M128.9,377.4c5.2-9.5,15.9-17.1,26.8-18.2C151.5,369.6,140.1,377.6,128.9,377.4"/>
	<path class="st0" d="M125.6,379.3c7.8,1.2,14.5,6.2,21.8,9.2c1.5,0.7,3.2,1.1,4.9,0.9c1.7-0.2,3.2-1.3,3.7-3
		c0.2-1.4-0.3-2.8-1.3-3.8c-1-1-2.3-1.7-3.6-2.2c-8-3.3-16.5-3.4-24.9-1.4"/>
	<path class="st0" d="M121.1,384.8c1.8,0.5,2.4,1.4,3.8,2.6c4.8,4.1,10.4,7,16.5,8.5c0.6,0.1,1.5,0.2,1.8-0.4s-0.1-1.1-0.4-1.5
		c-2.7-3.1-6.1-5.5-10-6.8c-3.8-1.4-7.1-3.1-11.7-2.8"/>
	<path class="st0" d="M116,351.7c6.5,6,15.2,8.9,24,8.2c0.4,0,0.8-0.1,1.1-0.4c0.6-0.7-0.1-1.7-0.8-2.2
		C133.2,351.7,124.7,349.4,116,351.7"/>
	<path class="st0" d="M122,349.5c8.6-6.4,19.8-8.2,30-4.9c-3.9,3.6-8.9,5.8-14.3,6.3C132.5,351.3,127.1,350.8,122,349.5"/>
	<path class="st0" d="M119.6,334.2c-0.7-7-0.2-12.6-0.7-19.7c0-0.6-0.2-1.2-0.7-1.5c-0.7-0.3-1.3,0.6-1.6,1.4
		c-2.1,6.6-1,13.9,3,19.6"/>
	<path class="st0" d="M119.1,335c4.6-3,8.6-6.8,11.7-11.3c2.3-3.1,4.3-6.9,3.7-10.8c-3.3,0.1-6.4,1.6-8.4,4.2
		c-2,2.5-3.5,5.5-4.3,8.6C120.9,328.8,120.2,332,119.1,335"/>
	<path class="st0" d="M130.6,331.8c10.5-3.9,20.2-9.6,28.7-16.9c-3.4-1.4-7.4-0.5-10.8,0.8c-7.8,2.9-14.2,8.6-18.1,16"/>
	<path class="st0" d="M122.3,338.9c5.3,0.6,10.7,1,15.9,0.1s10.1-2.9,14.9-4.9c0.4-0.1,0.8-0.4,1-0.8c0.2-0.5,0-1-0.4-1.3
		c-0.4-0.3-0.8-0.5-1.3-0.6c-5.2-1.5-10.9-0.8-16.1,1C131.5,334,126.8,336.2,122.3,338.9"/>
	<path class="st0" d="M92.1,351.9c-3.6-7.3-3.4-15.8-0.3-23.3c2.2,3.4,2.5,7.6,2.1,11.6s-1.6,8.1-1.7,12.1"/>
	<path class="st0" d="M77.7,344.6c-9.1-0.1-17.9,3.6-24.2,10.3c4.6,0.5,9.2-0.3,13.2-2.5c4-2.1,7.8-4.7,11.3-7.6"/>
	<path class="st0" d="M68,341.4c-4.4-0.4-8.7-0.9-12.9,0.4c-4.3,1.2-7.9,4.3-9.8,8.3c4.2,0.3,8.3-0.5,12.1-2.3
		C61.1,346,64.7,343.8,68,341.4"/>
	<path class="st0" d="M82.3,341.5c-4-2.6-8-5.3-12.7-6.3s-10-0.3-13.2,3.2c3.7,2.2,8.3,2.5,12.6,2.5s9.7-0.1,13.7,1.4"/>
	<path class="st0" d="M82.4,341.7c-6.8-6.7-9.4-18.6-6.6-27.7C81.1,322.2,83.4,332,82.4,341.7"/>
	<path class="st0" d="M101,322.9c1.3-3,2.2-6.1,3.3-9.1c1-3.1,2.7-5.9,4.8-8.4c2.1-2.5,5.1-4.1,8.4-4.4c-2.1,9.3-8,17.2-16.3,21.9"
		/>
	<path class="st0" d="M97.7,326.8c-2.1-2.9-4.6-6.9-7.4-9s-6.6-3.5-10.1-2.7C83.8,321.5,90.3,325.9,97.7,326.8"/>
	<path class="st0" d="M98.3,323.1c-1.5-3.5-2.6-7.1-3.3-10.8c-0.7-3.8-0.1-7.6,1.7-11c3.7,7,4.9,14.6,1.8,21.9"/>
	<path class="st0" d="M101.1,301.2c2.1-7,8.5-12.1,15.4-14.5c0.9-0.4,1.8-0.5,2.7-0.4c0.9,0.1,1.7,0.8,2,1.7c0.3,1.2-0.7,2.3-1.7,3
		C114.1,295.6,107.8,299.1,101.1,301.2"/>
	<path class="st0" d="M101.1,295.5c0.3-4.5,0.6-9.1,2-13.3s4.3-8.3,8.4-10.1c0.7,4.5-1.3,9.1-3.7,13s-5.3,7.6-6.8,12"/>
	<path class="st0" d="M101,298.6c-1.8-5.1-1.9-11.5-5-16c-2.1-3.1-5.5-5.2-7.4-8.5c-1.1,3.1-1,6.6,0.4,9.6c1.4,3,3.3,5.7,5.6,8.1
		C96.9,294.3,98.9,296.1,101,298.6"/>
	<path class="st0" d="M101.1,448.4c-0.1,0-0.3-33.9-0.3-75.8s0.1-75.8,0.2-75.8s0.3,33.9,0.3,75.8S101.2,448.4,101.1,448.4z"/>
	<path class="st0" d="M130.7,346.8c-0.4,0.2-0.8,0.4-1.3,0.5l-3.5,1.2c-3,1-7,2.5-11.4,4.3s-8.5,3.4-10.8,5.4
		c-0.9,0.8-1.7,1.8-2.2,2.9c-0.3,0.8-0.4,1.3-0.4,1.3s0-0.1,0-0.4c0.1-0.3,0.1-0.7,0.3-1c0.4-1.2,1.2-2.2,2.1-3.1
		c1.4-1.2,3-2.2,4.7-2.9c1.9-0.9,4-1.8,6.2-2.7c4.4-1.8,8.5-3.2,11.5-4.1c1.5-0.5,2.7-0.8,3.6-1C129.8,347,130.3,346.9,130.7,346.8z
		"/>
	<path class="st0" d="M140.4,322.9c-0.1,0.1-0.2,0.3-0.4,0.4l-1.1,1l-4.1,3.7l-13.5,12c-5.3,4.7-9.8,9.2-13,12.6
		c-1.6,1.7-2.8,3.1-3.7,4.1l-1,1.1c-0.2,0.3-0.3,0.4-0.4,0.4c0.1-0.2,0.2-0.3,0.3-0.4c0.2-0.3,0.5-0.7,0.9-1.2c0.8-1,2-2.5,3.6-4.2
		c4.1-4.5,8.4-8.7,12.9-12.7c5.3-4.7,10.1-8.9,13.6-11.9l4.2-3.6l1.1-1C140.1,323.1,140.3,323,140.4,322.9z"/>
	<path class="st0" d="M115.7,344.8c-0.1-0.1,1-2.6,2.1-5.8s1.6-5.9,1.8-5.9c-0.1,2.1-0.6,4.1-1.3,6.1c-0.5,1.4-1,2.8-1.6,4.1
		C116.4,343.8,116.1,344.3,115.7,344.8z"/>
	<path class="st0" d="M101.1,365.4c-0.3-0.3-0.6-0.6-0.8-1l-2.1-2.7c-1.8-2.3-4.2-5.4-6.9-8.8s-5.2-6.5-7-8.7l-2.1-2.6
		c-0.3-0.3-0.5-0.6-0.7-1c0.3,0.3,0.6,0.6,0.9,0.9c0.5,0.6,1.3,1.5,2.3,2.5c1.9,2.2,4.4,5.2,7.1,8.6s5.1,6.6,6.8,8.9
		c0.8,1.2,1.5,2.1,2,2.8C100.7,364.6,100.9,365,101.1,365.4z"/>
	<path class="st0" d="M94.6,357c-1.3-1.5-2.2-3.2-2.7-5.1c-0.5-1.7-0.7-3.4-0.6-5.1h0.2c-0.1,0.4-0.2,0.6-0.2,0.6s0-0.2,0-0.6h0.2
		c0.1,1.7,0.4,3.4,0.9,5C93,353.5,93.7,355.3,94.6,357z"/>
	<path class="st0" d="M86.2,346.5c-0.6-0.4-1.2-0.8-1.9-1.1c-1.7-0.5-3.5-0.7-5.3-0.4c-1.8,0.1-3.6,0.4-5.3,0.9
		c-0.7,0.2-1.4,0.4-2.2,0.5c0.7-0.4,1.4-0.7,2.1-0.9c1.7-0.5,3.5-0.9,5.4-1c1.8-0.2,3.7,0,5.4,0.6C85.2,345.3,85.8,345.8,86.2,346.5
		z"/>
	<path class="st0" d="M84.2,343.9c0,0.1-1.1-0.4-2.9-1.1c-2.4-0.8-4.8-1.3-7.3-1.5c-2.5-0.2-5-0.1-7.4,0.4c-1.9,0.3-3,0.7-3,0.6
		c0.2-0.1,0.5-0.3,0.8-0.3c0.7-0.3,1.5-0.5,2.2-0.6c5-1.1,10.1-0.7,14.9,1.1c0.7,0.3,1.4,0.6,2.1,0.9
		C83.8,343.6,84,343.7,84.2,343.9z"/>
	<path class="st0" d="M101,333.1c-0.9-2.4-1.6-4.9-2.1-7.4c-0.7-2.5-1.3-5-1.7-7.5c0.9,2.4,1.6,4.9,2.1,7.4
		C100.1,328,100.6,330.5,101,333.1z"/>
	<path class="st0" d="M101.2,333.1c-0.7-1.5-1.5-3-2.3-4.4c-1-1.3-2.2-2.5-3.5-3.6c0.5,0.1,1,0.4,1.3,0.7c1,0.7,1.8,1.6,2.5,2.6
		C100.3,329.7,100.9,331.4,101.2,333.1z"/>
	<path class="st0" d="M101.1,430.3c0,0-0.2-0.8-0.5-2.3c-0.6-2-1.3-4-2.3-5.9c-3.3-6.1-7.3-11.8-12-17c-2.7-3.1-5.3-6-7.5-8.7
		c-2-2.4-3.8-5-5.4-7.7c-1.1-1.8-2-3.8-2.7-5.8c-0.3-0.7-0.4-1.3-0.5-1.6c-0.1-0.2-0.1-0.4-0.1-0.6c0,0,0.3,0.8,0.8,2.2
		c0.8,1.9,1.7,3.8,2.8,5.6c1.6,2.7,3.4,5.2,5.4,7.6c2.2,2.7,4.8,5.6,7.5,8.7c5.4,6.1,9.7,12.3,12,17.1c0.9,1.9,1.7,3.9,2.1,6
		c0.1,0.6,0.2,1.1,0.3,1.7C101.1,429.9,101.1,430.1,101.1,430.3z"/>
	<path class="st0" d="M127.8,400.1c-0.5,0.3-0.9,0.5-1.4,0.8c-1.3,0.7-2.5,1.5-3.6,2.4c-1.7,1.3-3.3,2.8-4.8,4.4
		c-1.7,1.8-3.4,3.8-5.2,6c-3.5,4.4-6.8,8.4-8.8,11.5c-1,1.5-1.7,2.9-2.2,3.8c-0.2,0.5-0.5,1-0.8,1.4c0-0.1,0.1-0.3,0.1-0.4
		c0.1-0.3,0.3-0.6,0.5-1.1c0.6-1.3,1.3-2.6,2.1-3.9c1.9-3.2,5.2-7.2,8.7-11.6c1.8-2.2,3.5-4.3,5.2-6c1.5-1.6,3.1-3,4.9-4.3
		c1.2-0.9,2.4-1.6,3.8-2.3c0.5-0.2,0.8-0.4,1.1-0.5S127.8,400,127.8,400.1z"/>
	<path class="st0" d="M128.4,409.9c-1,0.2-2,0.4-3,0.4c-2.4,0.3-4.7,0.7-7,1.4c-2.3,0.7-4.4,1.9-6.3,3.3c-1.4,1.1-2.1,2-2.2,2
		c0.1-0.3,0.3-0.5,0.4-0.7c0.5-0.6,1-1.1,1.6-1.6c1.9-1.6,4-2.8,6.4-3.5c2.3-0.7,4.7-1.1,7.2-1.3
		C126.4,409.9,127.4,409.8,128.4,409.9z"/>
	<path class="st0" d="M110.7,415.9c-0.2-0.1,1.2-2.1,2.2-4.9s1.2-5.2,1.4-5.2c0.1,0.5,0.1,1.1,0,1.6c-0.1,1.3-0.4,2.5-0.9,3.8
		c-0.5,1.2-1,2.4-1.7,3.4C111.5,415.1,111.1,415.6,110.7,415.9z"/>
	<path class="st0" d="M136.5,373.7c-0.1,0.1-0.3,0.2-0.5,0.3l-1.4,0.6c-0.6,0.3-1.4,0.6-2.2,1s-1.8,0.9-2.8,1.5L128,378
		c-0.6,0.3-1.1,0.7-1.7,1.1c-1.2,0.7-2.4,1.6-3.7,2.5c-5.5,4.1-10.2,9-14.1,14.6c-0.9,1.3-1.7,2.5-2.4,3.8c-0.3,0.6-0.7,1.2-1,1.8
		s-0.6,1.1-0.9,1.6c-0.6,1-1,2-1.4,2.9s-0.7,1.6-1,2.2s-0.4,1-0.6,1.4c-0.1,0.2-0.1,0.3-0.2,0.5c0-0.2,0.1-0.4,0.2-0.5
		c0.1-0.4,0.3-0.9,0.5-1.5c0.3-0.8,0.5-1.5,0.9-2.3c0.4-0.9,0.8-1.9,1.3-2.9c0.3-0.5,0.6-1.1,0.8-1.7s0.7-1.2,1-1.8
		c0.7-1.2,1.5-2.5,2.4-3.8c3.9-5.7,8.7-10.7,14.2-14.7c1.3-0.9,2.5-1.8,3.7-2.5c0.6-0.4,1.2-0.7,1.7-1.1l1.6-0.9c1-0.6,2-1,2.9-1.4
		s1.6-0.7,2.2-1l1.4-0.5C136.2,373.7,136.3,373.7,136.5,373.7z"/>
	<path class="st0" d="M115.3,387.9c0.2-0.7,0.6-1.3,1.2-1.7c1.3-1.1,3-1.8,4.7-1.8c1.7,0,3.4,0.3,4.9,1c0.7,0.2,1.3,0.5,1.9,0.9
		c-0.7-0.1-1.4-0.3-2-0.6c-1.5-0.5-3.2-0.8-4.8-0.8c-1.6,0-3.2,0.6-4.5,1.6C116.2,386.9,115.7,387.4,115.3,387.9z"/>
	<path class="st0" d="M112.2,391.2c0.6-1.4,1.1-2.8,1.3-4.3c0.1-1.5,0-3-0.3-4.5c0.1,0,0.3,0.4,0.6,1.3c0.3,1.1,0.4,2.2,0.2,3.3
		c-0.1,1.1-0.5,2.2-1,3.2C112.8,390.5,112.5,390.9,112.2,391.2z"/>
	<path class="st0" d="M77.6,435.2c0.7,13,4.6,26.1,10.7,39.5h26.1c5.7-13.2,9.4-26.4,10-39.5H77.6z"/>
	<path class="st1" d="M120.2,456.2c0,0.1-8.6,0.3-19.2,0.3s-19.2-0.1-19.2-0.3s8.6-0.2,19.2-0.2S120.2,456,120.2,456.2z"/>
	<path class="st1" d="M119.6,460.9c0,0.1-8.1,0.2-18,0.2s-18-0.1-18-0.2s8.1-0.3,18-0.3S119.6,460.7,119.6,460.9z"/>
	<path class="st1" d="M88.7,443.7c0.3,4,0.3,8,0,12C88.4,451.7,88.4,447.7,88.7,443.7z"/>
	<path class="st1" d="M102.7,443.7c0.3,4.1,0.3,8.3,0,12.5C102.4,452,102.4,447.9,102.7,443.7z"/>
	<path class="st1" d="M115.8,443.6c0.3,4.2,0.3,8.5,0,12.7C115.5,452.1,115.5,447.8,115.8,443.6z"/>
	<path class="st1" d="M123.6,443.7c0,0.1-10.1,0.3-22.5,0.3s-22.5-0.1-22.5-0.3s10.1-0.2,22.5-0.2S123.6,443.6,123.6,443.7z"/>
	<path class="st0" d="M589.7,88.1c0,0,0-0.3,0-0.9s0-1.5,0-2.6c0-2.3,0-5.7,0-9.9c0-8.6,0-20.8-0.1-35.5l0.2,0.2h-60.1l0,0l0.2-0.2
		c0,17.7,0,34.4,0,49l-0.2-0.2L573,88h12.3h3.3l0,0h-3.2h-12.3l-43.5,0.1h-0.2v-0.2c0-14.6,0-31.3,0-49v-0.2h0.2h60.1h0.2v0.2
		c0,14.8-0.1,27.1-0.1,35.6c0,4.3,0,7.6,0,9.9c0,1.1,0,2,0,2.6S589.7,88.1,589.7,88.1z"/>
	<path class="st0" d="M590.2,46.4c0,0.1-13.6,0.2-30.3,0.2s-30.3-0.1-30.3-0.2s13.6-0.2,30.3-0.2S590.2,46.3,590.2,46.4z"/>
	<path class="st0" d="M534.5,42.8c0,0.4-0.4,0.8-0.8,0.8c-0.4,0-0.8-0.4-0.8-0.8c0,0,0,0,0,0c0-0.4,0.4-0.8,0.8-0.8
		C534.1,42,534.5,42.4,534.5,42.8C534.5,42.8,534.5,42.8,534.5,42.8z"/>
	<path class="st0" d="M537.4,42.8c0,0.4-0.4,0.8-0.8,0.8c-0.4,0-0.8-0.4-0.8-0.8c0,0,0,0,0,0c0-0.4,0.4-0.8,0.8-0.8
		C537.1,42,537.4,42.4,537.4,42.8C537.4,42.8,537.4,42.8,537.4,42.8z"/>
	<path class="st0" d="M540.4,42.8c0,0.4-0.4,0.8-0.8,0.8c-0.4,0-0.8-0.4-0.8-0.8c0-0.4,0.4-0.8,0.8-0.8
		C540,42,540.4,42.4,540.4,42.8C540.4,42.8,540.4,42.8,540.4,42.8z"/>
	<path class="st0" d="M713.5,163.6c0,0,0-0.3,0-0.9s0-1.4,0-2.6c0-2.3,0-5.5-0.1-9.7c0-8.4-0.1-20.4-0.1-35.1l0.2,0.2l-74.6,0.1l0,0
		l0.3-0.3c0,17.1,0,33.4,0,48.2l-0.3-0.3l53.7,0.1l15.4,0.1h4.1h1.1L713.5,163.6l-0.3-0.1h-1h-4l-15.3,0.1l-53.9,0.1h-0.3v-0.3
		c0-14.8,0-31.1,0-48.2V115h0.3l74.6,0.1h0.2v0.2c0,14.7-0.1,26.8-0.1,35.2c0,4.2,0,7.4-0.1,9.6c0,1.1,0,1.9,0,2.5
		S713.5,163.6,713.5,163.6z"/>
	<path class="st0" d="M713.5,122.5c0,0.2-16.7,0.3-37.3,0.3s-37.3-0.1-37.3-0.3s16.7-0.3,37.3-0.3S713.5,122.4,713.5,122.5z"/>
	<path class="st0" d="M644.4,119c0.1,0.5-0.3,1-0.8,1c-0.5,0.1-1-0.3-1-0.8s0.3-1,0.8-1c0,0,0.1,0,0.1,0
		C644,118.2,644.4,118.5,644.4,119z"/>
	<path class="st0" d="M647.7,119c0.1,0.5-0.3,1-0.8,1c-0.5,0.1-1-0.3-1-0.8s0.3-1,0.8-1c0,0,0.1,0,0.1,0
		C647.3,118.2,647.7,118.5,647.7,119z"/>
	<path class="st0" d="M651,119c0.1,0.5-0.3,1-0.8,1c-0.5,0.1-1-0.3-1-0.8s0.3-1,0.8-1c0,0,0.1,0,0.1,0
		C650.6,118.2,651,118.5,651,119z"/>
	<path class="st0" d="M129.1,234.8c0,0,0-0.4,0-1s0-1.7,0-3c0-2.6,0-6.4,0-11.3c0-9.8,0-23.9-0.1-41.3l0.2,0.2H31.4l0,0l0.2-0.2
		c0,20,0,39.1,0,56.6l-0.2-0.2l70.3,0.1l20.2,0.1h5.4h0.1H122l-20.2,0.1L31.3,235h-0.2v-0.2c0-17.4,0-36.5,0-56.6V178h0.2l97.8,0.1
		h0.1v0.1c0,17.4-0.1,31.5-0.1,41.3c0,4.9,0,8.7,0,11.3c0,1.3,0,2.3,0,2.9S129.1,234.8,129.1,234.8z"/>
	<path class="st0" d="M129.1,185.1c0,0.1-21.9,0.2-48.8,0.2s-48.8-0.1-48.8-0.2s21.9-0.2,48.8-0.2S129.1,185,129.1,185.1z"/>
	<rect x="39.8" y="194.4" class="st2" width="30.2" height="30.2"/>
	<path class="st0" d="M122,199.4h-0.4h-1.3l-4.7,0.1l-15.5,0.1l-15.4-0.1H80h-1.3h-0.4c0.1,0,0.3,0,0.4,0H80l4.7-0.1l15.4-0.1
		l15.5,0.1l4.7,0.1h1.3C121.7,199.4,121.8,199.4,122,199.4z"/>
	<path class="st0" d="M123,206.1c-0.1,0-0.3,0-0.4,0h-1.3l-4.8,0.1l-15.8,0.1l-15.8-0.1l-4.9,0h-1.3c-0.1,0-0.3,0-0.4,0
		c0.1,0,0.3,0,0.4,0H80l4.8-0.1l15.8-0.1l15.8,0.1l4.8,0.1h1.3C122.6,206.2,122.8,206.1,123,206.1z"/>
	<path class="st0" d="M123,212.9c-0.1,0-0.3,0-0.4,0h-1.3l-4.8,0.1l-15.8,0.1l-15.8,0H80h-1.3c-0.1,0-0.3,0-0.4,0c0.1,0,0.3,0,0.4,0
		H80l4.8-0.1l15.8-0.1l15.8,0.1l4.8,0.1h1.3C122.6,212.9,122.8,212.9,123,212.9z"/>
	<path class="st0" d="M123,219.6c-0.1,0-0.3,0-0.4,0h-1.3l-4.8,0.1l-15.8,0.1l-15.8-0.1l-4.9,0h-1.3c-0.1,0-0.3,0-0.4,0
		c0.1,0,0.3,0,0.4,0H80l4.8-0.1l15.8-0.1l15.8,0.1l4.8,0.1h1.3C122.6,219.7,122.8,219.6,123,219.6z"/>
	<path class="st0" d="M702.2,353.4c0,0,0-0.4,0-1.2s0-2,0-3.5c0-3,0-7.5,0-13.3c0-11.5-0.1-28.2-0.1-48.9l0.2,0.2l-164.4,0.1l0,0
		l0.3-0.3c0,23.4,0,46,0,66.8l-0.3-0.3l117.9,0.1l34.2,0.1h9.2h2.4L702.2,353.4l-0.7-0.1h-2.3h-9.1l-34.2,0.1l-118.1,0.1h-0.3v-0.3
		c0-20.8,0-43.4,0-66.8v-0.3h0.3l164.4,0.1h0.2v0.2c0,20.7-0.1,37.4-0.1,49c0,5.8,0,10.2,0,13.3c0,1.5,0,2.6,0,3.4
		S702.2,353.4,702.2,353.4z"/>
	<path class="st0" d="M702.2,353.4c0,0,0-0.4,0-1.2s0-2,0-3.5c0-3,0-7.5,0-13.3c0-11.5-0.1-28.2-0.1-48.9l0.2,0.2l-164.4,0.1l0,0
		l0.3-0.3c0,23.4,0,46,0,66.8l-0.3-0.3l117.9,0.1l34.2,0.1h9.2h2.4L702.2,353.4l-0.7-0.1h-2.3h-9.1l-34.2,0.1l-118.1,0.1h-0.3v-0.3
		c0-20.8,0-43.4,0-66.8v-0.3h0.3l164.4,0.1h0.2v0.2c0,20.7-0.1,37.4-0.1,49c0,5.8,0,10.2,0,13.3c0,1.5,0,2.6,0,3.4
		S702.2,353.4,702.2,353.4z"/>
	<path class="st0" d="M537.9,295.6c0-0.1,36.8-0.3,82.1-0.3s82.1,0.1,82.1,0.3s-36.8,0.3-82.1,0.3S537.9,295.8,537.9,295.6z"/>
	<g class="st3">
		<path class="st0" d="M544.8,291.6c0,0.7-0.5,1.2-1.2,1.2c-0.7,0-1.2-0.5-1.2-1.2c0-0.7,0.5-1.2,1.2-1.2c0,0,0,0,0,0
			C544.2,290.4,544.8,290.9,544.8,291.6L544.8,291.6z"/>
	</g>
	<g class="st3">
		<path class="st0" d="M548.9,291.6c0,0.7-0.5,1.2-1.2,1.2c-0.7,0-1.2-0.5-1.2-1.2c0-0.7,0.5-1.2,1.2-1.2c0,0,0,0,0,0
			C548.3,290.4,548.9,290.9,548.9,291.6L548.9,291.6z"/>
	</g>
	<g class="st3">
		<path class="st0" d="M552.9,291.6c0,0.7-0.5,1.2-1.2,1.2c-0.7,0-1.2-0.5-1.2-1.2c0-0.7,0.5-1.2,1.2-1.2c0,0,0,0,0,0
			C552.4,290.4,552.9,290.9,552.9,291.6L552.9,291.6z"/>
	</g>
	<rect x="551.7" y="306.5" class="st0" width="39.7" height="39.7"/>
	<path class="st0" d="M690.8,317.1c0,0.1-20.4,0.3-45.6,0.3s-45.7-0.1-45.7-0.3s20.4-0.3,45.7-0.3S690.8,317,690.8,317.1z"/>
	<path class="st0" d="M690.8,325.2c0,0.1-20.4,0.3-45.6,0.3s-45.7-0.1-45.7-0.3s20.4-0.3,45.7-0.3S690.8,325.1,690.8,325.2z"/>
	<path class="st0" d="M658.3,333.3c-0.2,0-0.4,0-0.6,0l-1.7,0l-6.3,0.1l-20.8,0.1l-20.8-0.1l-6.3-0.1l-1.7,0c-0.2,0-0.4,0-0.6,0
		c0.2,0,0.4-0.1,0.6-0.1h1.7l6.3-0.1l20.8-0.1l20.8,0.1l6.3,0.1h1.7C657.9,333.3,658.1,333.3,658.3,333.3z"/>
</g>
<g id="freepik--Plant--inject-5">
	<path class="st4" d="M286.2,407.2c-0.1,0.1-0.6-0.3-1.3-0.8s-1.1-1-1-1.1s0.6,0.3,1.3,0.8S286.3,407.1,286.2,407.2z"/>
	<path class="st5" d="M303.8,380.8c0.2-2.5,0-4.9-0.6-7.3c-0.8-2.3-2.6-4.5-5-5c-2.8-0.6-5.6,1.2-7.1,3.5s-2.1,5.2-2.5,8
		c-3.1,19.2-4.3,38.6-3.5,58l11.3,1.6C301.4,419.3,302.9,401.6,303.8,380.8z"/>
	<path class="st4" d="M296.7,368.4c0,0.1,0,0.1,0,0.2l-0.2,0.5l-0.8,2c-0.2,0.4-0.4,0.9-0.5,1.4s-0.4,1.1-0.5,1.7l-0.6,2
		c-0.2,0.7-0.4,1.5-0.6,2.2c-0.9,3.7-1.7,7.4-2.2,11.2c-0.6,4.2-1,8.9-1.3,13.9c-0.6,9.9-0.7,18.9-0.9,25.3
		c-0.1,3.2-0.2,5.9-0.4,7.7l-0.1,2.1c0,0.2,0,0.4,0,0.5v0.2c0-0.1,0-0.1,0-0.2c0-0.1,0-0.3,0-0.5c0-0.5,0-1.2,0.1-2.1
		c0.1-1.8,0.1-4.4,0.2-7.7c0.2-6.5,0.2-15.5,0.8-25.4c0.3-4.9,0.7-9.6,1.4-13.9c0.5-3.8,1.3-7.5,2.3-11.2c0.2-0.8,0.4-1.5,0.6-2.2
		s0.5-1.4,0.7-2s0.4-1.2,0.6-1.7s0.4-1,0.6-1.4c0.4-0.8,0.6-1.5,0.8-1.9l0.2-0.5C296.6,368.4,296.7,368.4,296.7,368.4z"/>
	<path class="st4" d="M297.7,368.4c0.6,0.7,1.1,1.5,1.4,2.3c0.9,2.3,1.2,4.8,1,7.3c-0.3,6.2-0.9,14.8-1.6,24.3s-1.6,18-2.2,24.3
		c-0.3,3.1-0.6,5.6-0.8,7.3c-0.1,0.8-0.2,1.5-0.3,2c0,0.2,0,0.4-0.1,0.5c0,0.1,0,0.1,0,0.2c0,0,0-0.1,0-0.2s0-0.3,0-0.5
		c0-0.5,0.1-1.2,0.2-2c0.2-1.8,0.4-4.3,0.7-7.3c0.6-6.2,1.4-14.8,2.1-24.3s1.3-18.1,1.7-24.3c0.2-2.4-0.1-4.9-0.9-7.2
		C298.6,370,298.2,369.2,297.7,368.4z"/>
	<path class="st4" d="M305.5,397.6c-0.7-0.1-1.5-0.3-2.1-0.6c-0.7-0.2-1.4-0.5-2-0.9c0.7,0.1,1.5,0.2,2.1,0.5
		C304.3,396.8,304.9,397.1,305.5,397.6z"/>
	<path class="st4" d="M306.9,386.1c-0.6,0.5-1.3,0.9-2,1.1c-0.7,0.4-1.4,0.6-2.2,0.8c0.6-0.5,1.3-0.9,2-1.1
		C305.4,386.5,306.1,386.2,306.9,386.1z"/>
	<path class="st4" d="M306.2,376.7c0,0.1-0.8,0.1-1.7,0.1s-1.7-0.2-1.6-0.3c0.5-0.2,1.1-0.2,1.7-0.1
		C305.1,376.4,305.7,376.5,306.2,376.7z"/>
	<path class="st4" d="M294.6,370.7c-0.1,0-0.6-0.6-1.1-1.4c-0.4-0.5-0.6-1-0.8-1.6c0.1-0.1,0.6,0.6,1.1,1.4
		C294.2,369.6,294.4,370.1,294.6,370.7z"/>
	<path class="st4" d="M290.7,376.4c-1.1,0.2-2.1,0.2-3.2-0.1c0.5-0.2,1.1-0.2,1.6-0.2C290,376.1,290.7,376.3,290.7,376.4z"/>
	<path class="st4" d="M288,387.7c0,0.1-0.8-0.1-1.7-0.5s-1.6-0.7-1.5-0.8c0.6,0,1.2,0.2,1.7,0.5C287.3,387.2,288,387.6,288,387.7z"
		/>
	<path class="st4" d="M287.7,397.3c0,0.1-0.6,0.3-1.4,0.5c-0.5,0.2-1,0.2-1.5,0.1c0-0.1,0.6-0.3,1.4-0.5S287.6,397.1,287.7,397.3z"
		/>
	<path class="st4" d="M286.4,412.9c0,0.1-0.7,0.3-1.5,0.5c-0.5,0.2-1.1,0.2-1.6,0.1c0-0.1,0.7-0.3,1.5-0.5S286.3,412.8,286.4,412.9z
		"/>
	<path class="st4" d="M285.5,421.5c0,0.1-0.5,0.5-1.3,0.9s-1.4,0.6-1.5,0.5s0.5-0.5,1.3-0.9S285.4,421.4,285.5,421.5z"/>
	<path class="st4" d="M292.5,431.3c-0.1,0.1-0.6-0.6-1.1-1.5c-0.4-0.5-0.6-1.1-0.8-1.7c0.1-0.1,0.6,0.6,1.1,1.5
		C292.1,430.1,292.4,430.6,292.5,431.3z"/>
	<path class="st4" d="M294.6,415c0.1,0.1-0.5,0.8-1.2,1.5s-1.4,1.3-1.5,1.2c0.3-0.6,0.7-1.1,1.2-1.5
		C293.8,415.5,294.5,414.9,294.6,415z"/>
	<path class="st4" d="M294.1,406.5c-0.1,0.1-0.6-0.3-1.1-0.9s-0.9-1.1-0.9-1.2s0.6,0.4,1.1,0.9S294.2,406.4,294.1,406.5z"/>
	<path class="st4" d="M295.5,395.6c0.1,0.1-0.4,0.7-1,1.5s-1.2,1.3-1.3,1.2s0.4-0.7,1-1.5S295.4,395.5,295.5,395.6z"/>
	<path class="st4" d="M296.3,387.7c-0.1,0.1-0.7-0.4-1.4-1.1s-1.2-1.3-1.1-1.4s0.7,0.4,1.4,1.1S296.4,387.6,296.3,387.7z"/>
	<path class="st4" d="M297.8,377c-0.1,0.6-0.4,1.1-0.7,1.6c-0.5,0.8-1,1.5-1.1,1.4c0.1-0.6,0.4-1.1,0.7-1.6
		C297.3,377.6,297.7,376.9,297.8,377z"/>
	<path class="st4" d="M300.7,367.1c0.1,0.1-0.2,0.8-0.6,1.6s-0.9,1.5-1,1.4c0.1-0.6,0.3-1.1,0.6-1.6
		C300.2,367.7,300.6,367,300.7,367.1z"/>
	<path class="st4" d="M304,371.6c0,0.1-0.4,0.4-1,0.7s-1.1,0.4-1.2,0.3s0.4-0.4,1-0.7S304,371.5,304,371.6z"/>
	<path class="st4" d="M304.1,407.2c-0.8,0-1.5-0.2-2.2-0.5c-0.7-0.2-1.4-0.7-1.9-1.2c0.7,0.2,1.4,0.5,2.1,0.9
		C302.8,406.5,303.5,406.8,304.1,407.2z"/>
	<path class="st4" d="M302.8,414.7c0,0.1-0.7,0.3-1.5,0.5s-1.6,0.2-1.6,0.1s0.7-0.3,1.5-0.5S302.8,414.6,302.8,414.7z"/>
	<path class="st4" d="M301.1,427.6c-1.3-0.8-2.3-2-2.8-3.5c0.5,0.6,1,1.1,1.4,1.8C300.2,426.4,300.7,427,301.1,427.6z"/>
	<path class="st4" d="M283,433.5c-0.1-0.1,0.4-0.6,1-1.1s1.2-0.9,1.3-0.8s-0.4,0.6-1,1.1S283.1,433.6,283,433.5z"/>
	<path class="st5" d="M277.8,405.3c-0.7-2.3-2.1-5-4.5-5c-1.5,0.1-2.7,0.9-3.4,2.3c-0.7,1.3-1,2.7-0.9,4.1c0.3,10.2,2,20.3,5.2,30
		h8.8C282.8,426.1,281.1,415.5,277.8,405.3z"/>
	<path class="st5" d="M261.9,390.9c-0.9-4.4-4.7-7.6-9.2-7.8c-3.9,0.7-5.4,4.5-5.9,8.4s0.8,7.8,2,11.6c3.9,12.1,7.7,24.2,11.6,36.3
		l11-1.2C267.9,422,265.9,407,261.9,390.9z"/>
	<path class="st4" d="M273.3,400.3c-0.3,0.4-0.5,0.8-0.7,1.2c-0.5,1.2-0.6,2.6-0.4,3.9c0.2,1.7,0.4,3.7,0.6,5.9s0.7,4.6,1.2,7.2
		c1,5.1,2.1,9.6,2.8,12.9c0.4,1.6,0.6,3,0.8,3.9c0.1,0.4,0.1,0.8,0.2,1.1c0,0.3,0.1,0.4,0,0.4c-0.1-0.1-0.1-0.2-0.1-0.4l-0.3-1
		c-0.2-1-0.5-2.3-0.9-3.9c-0.8-3.3-2-7.8-3-12.9c-0.5-2.5-0.9-5-1.1-7.2c-0.1-1.1-0.2-2.2-0.3-3.2s-0.2-1.9-0.2-2.8
		c-0.2-1.4,0-2.7,0.5-4C272.5,401,272.9,400.6,273.3,400.3z"/>
	<path class="st4" d="M252.9,382.8c-0.5,0.6-0.9,1.2-1.3,1.8c-1,1.7-1.6,3.7-1.7,5.7c-0.1,3,0.4,6,1.4,8.8l3.1,10.6
		c2.2,7.5,4.2,14.3,5.6,19.3c0.7,2.4,1.3,4.4,1.6,5.9l0.4,1.6c0.1,0.2,0.1,0.4,0.1,0.6c-0.1-0.2-0.2-0.4-0.2-0.5
		c-0.1-0.4-0.3-0.9-0.5-1.6c-0.4-1.4-1-3.4-1.8-5.8c-1.5-5-3.5-11.7-5.7-19.2c-1.1-3.8-2.1-7.3-3.1-10.6c-0.9-2.9-1.4-5.9-1.3-8.9
		c0.1-2.1,0.7-4,1.8-5.8C251.8,383.8,252.3,383.2,252.9,382.8z"/>
	<path class="st4" d="M268.9,437c-0.1-0.2-0.2-0.3-0.2-0.5c-0.1-0.4-0.4-0.9-0.6-1.5c-0.5-1.3-1.2-3.3-1.9-5.8s-1.4-5.5-2-8.8
		s-1.3-7-2.1-10.9s-1.6-7.5-2.6-10.8c-0.9-2.9-1.9-5.7-3.2-8.4c-0.9-1.8-1.9-3.6-3-5.3c-0.4-0.6-0.7-1-0.9-1.4
		c-0.1-0.1-0.2-0.3-0.3-0.5c0.1,0.1,0.3,0.3,0.4,0.5c0.2,0.3,0.6,0.7,1,1.3c1.2,1.7,2.2,3.4,3.1,5.3c1.3,2.7,2.4,5.6,3.3,8.5
		c1.1,3.5,1.9,7.2,2.6,10.8c0.7,3.9,1.4,7.5,2,10.9s1.3,6.4,2,8.8s1.3,4.5,1.8,5.8c0.2,0.7,0.4,1.2,0.5,1.6
		C268.8,436.6,268.9,436.8,268.9,437z"/>
	<path class="st4" d="M249,401.3c0,0.1-0.6,0.4-1.3,0.5s-1.4,0.3-1.4,0.1s0.6-0.3,1.3-0.5S249,401.2,249,401.3z"/>
	<path class="st4" d="M247.8,393.8c-0.6,0.2-1.2,0.2-1.9,0.2c-0.6,0.1-1.2,0.1-1.9-0.1C245.3,393.5,246.6,393.5,247.8,393.8z"/>
	<path class="st4" d="M249.1,387c-0.1,0.1-0.7-0.3-1.3-0.9s-1.1-1.1-1.1-1.2s0.7,0.3,1.3,0.9S249.1,386.9,249.1,387z"/>
	<path class="st4" d="M252.4,380.7c0.1,0,0.1,0.6,0.1,1.2s0,1.2-0.1,1.2s-0.3-0.5-0.3-1.2S252.3,380.6,252.4,380.7z"/>
	<path class="st4" d="M259.2,383.6c0.1,0.1-0.2,0.6-0.6,1.2s-0.8,1-0.9,1s0.2-0.6,0.6-1.2S259.1,383.6,259.2,383.6z"/>
	<path class="st4" d="M263.7,391.3c0,0.1-0.5,0.4-1.3,0.7s-1.4,0.5-1.4,0.4s0.5-0.4,1.3-0.7S263.6,391.2,263.7,391.3z"/>
	<path class="st4" d="M266.4,399.3c-0.5,0.4-1.1,0.7-1.7,0.8c-0.6,0.2-1.3,0.2-1.9,0.1c0.6-0.2,1.2-0.4,1.8-0.5
		C265.1,399.4,265.7,399.3,266.4,399.3z"/>
	<path class="st4" d="M254,397c-0.1,0,0-0.6,0.2-1.2s0.4-1.1,0.6-1.1s0,0.6-0.2,1.2S254.1,397,254,397z"/>
	<path class="st4" d="M255.7,407c0-0.6,0.2-1.1,0.5-1.6c0.4-0.9,0.8-1.5,0.9-1.5c0,0.6-0.2,1.1-0.5,1.6
		C256.2,406.3,255.8,407,255.7,407z"/>
	<path class="st4" d="M251.5,409.7c-0.5,0-1.1-0.1-1.6-0.4c-0.8-0.3-1.5-0.5-1.5-0.6c0.5-0.1,1.1,0,1.6,0.3
		C250.9,409.2,251.5,409.6,251.5,409.7z"/>
	<path class="st4" d="M253.9,417.8c0.1,0.1-0.4,0.5-1.1,1s-1.2,0.8-1.3,0.7s0.4-0.5,1-1S253.9,417.7,253.9,417.8z"/>
	<path class="st4" d="M255.9,425.9c0,0.1-0.6,0.3-1.3,0.5s-1.4,0.2-1.4,0.1s0.6-0.3,1.3-0.5S255.9,425.8,255.9,425.9z"/>
	<path class="st4" d="M266.6,406c0.1,0.1-0.4,0.5-1.2,0.8s-1.4,0.3-1.4,0.2s0.5-0.3,1.2-0.6S266.5,405.9,266.6,406z"/>
	<path class="st4" d="M268.1,418.6c0,0.1-0.6-0.1-1.3-0.4s-1.2-0.7-1.1-0.8s0.6,0.1,1.3,0.4S268.1,418.5,268.1,418.6z"/>
	<path class="st4" d="M270.8,427.6c-0.6,0-1.2-0.2-1.8-0.5c-0.6-0.2-1.1-0.4-1.6-0.8c0.6,0,1.2,0.2,1.7,0.5
		C270.1,427.1,270.8,427.5,270.8,427.6z"/>
	<path class="st4" d="M256.3,434.6c0-0.1,0.7-0.6,1.5-1.2s1.5-1.2,1.5-1.2s-0.4,0.8-1.3,1.5C257.6,434.2,257,434.5,256.3,434.6z"/>
	<path class="st4" d="M263.4,430.1c-0.1,0-0.3-0.6-0.5-1.3s-0.6-1.3-0.5-1.3s0.5,0.4,0.8,1.2S263.5,430,263.4,430.1z"/>
	<path class="st4" d="M261.5,419.2c-0.1,0.1-0.5-0.1-1-0.5s-0.9-0.7-0.8-0.8s0.5,0.1,1,0.5S261.6,419.1,261.5,419.2z"/>
	<path class="st4" d="M278.1,402.3c0.1,0.1-0.4,0.5-1,1s-1.2,0.8-1.2,0.7s0.4-0.5,1-1S278.1,402.2,278.1,402.3z"/>
	<path class="st4" d="M280.6,409.1c0,0.1-0.7,0.3-1.6,0.2s-1.5-0.4-1.5-0.5s0.7,0,1.5,0.1C279.6,408.9,280.2,408.9,280.6,409.1z"/>
	<path class="st4" d="M269.9,410.6c0,0.1-0.6,0.3-1.5,0.4s-1.5-0.1-1.5-0.2s0.7-0.1,1.5-0.2S269.9,410.5,269.9,410.6z"/>
	<path class="st4" d="M270.8,404.2c0,0.1-0.7,0.1-1.4-0.2s-1.1-0.8-1-0.9s0.6,0.3,1.2,0.5S270.8,404.1,270.8,404.2z"/>
	<path class="st4" d="M281.6,416.5c-0.1,0.1-0.7-0.2-1.5-0.7s-1.4-1-1.3-1s0.7,0.2,1.5,0.7S281.6,416.4,281.6,416.5z"/>
	<rect x="250.4" y="435.6" class="st6" width="57.3" height="10.2"/>
	<polygon class="st6" points="254.7,443.8 261.7,474.1 295.9,474.1 303.5,443.8 	"/>
	<path class="st4" d="M307.7,445.8c0,0.1-12.9,0.2-28.9,0.2s-28.9-0.1-28.9-0.2s12.9-0.2,28.9-0.2S307.7,445.7,307.7,445.8z"/>
	<path class="st4" d="M275.9,410.9c-0.1,0.1-0.5-0.4-0.9-1s-0.6-1.2-0.5-1.2s0.5,0.4,0.9,1S276,410.8,275.9,410.9z"/>
	<path class="st4" d="M275.9,419c0-0.5,0.1-1.1,0.3-1.5c0.3-0.8,0.6-1.5,0.7-1.4c0,0.5-0.1,1.1-0.3,1.5
		C276.3,418.4,276,419.1,275.9,419z"/>
	<path class="st4" d="M278.7,427.6c-0.1,0-0.5-0.6-1-1.5c-0.3-0.5-0.5-1.1-0.6-1.7c0.4,0.4,0.8,1,1,1.5
		C278.4,426.4,278.6,427,278.7,427.6z"/>
	<path class="st4" d="M272.6,434.5c-0.1-0.1,0.3-0.6,0.8-1.2s1-1,1.1-0.9s-0.3,0.6-0.8,1.2S272.7,434.6,272.6,434.5z"/>
	<path class="st4" d="M271.4,422c0,0.1-0.6,0.1-1.2,0s-1.2-0.3-1.2-0.4s0.6-0.1,1.2,0S271.4,421.9,271.4,422z"/>
</g>
<g id="freepik--speech-bubble--inject-5">
	<path class="st1" d="M115.7,144.4l-6.7-11.9c9.2-15,4.5-34.5-10.4-43.8S64,84.2,54.8,99.2s-4.5,34.5,10.4,43.8
		c11.3,6.9,25.7,6.2,36.1-1.9l0,0L115.7,144.4z"/>
	<path class="st4" d="M115.7,144.4l-14.4-3.3c-0.1,0-0.1-0.1-0.1-0.2v-0.1l0,0l0.2,0.2c-4.4,3.5-9.7,5.7-15.3,6.4
		c-1.7,0.2-3.3,0.3-5,0.3c-0.9,0-1.8-0.1-2.6-0.1l-2.7-0.4c-8-1.6-15.1-6.1-19.9-12.8c-2.7-3.7-4.5-7.9-5.4-12.3
		c-0.9-4.7-0.8-9.6,0.4-14.2c1.2-4.8,3.6-9.3,6.8-13c3.3-3.9,7.5-6.9,12.3-8.8c4.5-1.8,9.4-2.5,14.3-2.2c4.6,0.3,9.1,1.6,13.1,3.9
		c7.2,4,12.6,10.7,15.1,18.6c1,3.4,1.4,6.8,1.4,10.3c-0.2,5.6-1.8,11-4.8,15.8v-0.1C113.2,140,115.3,143.6,115.7,144.4l-6.9-11.8
		c0,0,0-0.1,0-0.1c2.9-4.7,4.5-10.1,4.6-15.7c0-3.5-0.4-6.9-1.4-10.2c-2.5-7.8-7.8-14.3-14.9-18.3c-4-2.2-8.4-3.5-12.9-3.8
		c-4.8-0.3-9.6,0.4-14,2.2c-4.6,1.9-8.8,4.8-12.1,8.6c-3.2,3.7-5.5,8.1-6.7,12.9c-1.2,4.6-1.3,9.3-0.4,13.9
		c0.9,4.4,2.7,8.5,5.3,12.1c4.7,6.5,11.7,11.1,19.6,12.6l2.7,0.4c0.9,0.1,1.8,0.1,2.6,0.1c1.7,0.1,3.3,0,5-0.2
		c5.5-0.7,10.7-2.9,15.1-6.3c0-0.1,0.1-0.1,0.2,0c0,0,0,0,0,0c0,0,0,0.1,0,0.2l0,0l-0.1-0.2L115.7,144.4z"/>
	<polygon class="st6" points="69,117 72.7,113.4 79.7,119.6 93.4,106.4 96.8,110 79.2,126.7 	"/>
</g>
<g id="freepik--Code--inject-5">
	<path class="st4" d="M504.4,326.5c0.8-0.3,1.7-0.3,2.5-0.3l-0.3,0.3l0,0V326c0-0.1,0-0.3,0-0.5s0-0.6,0.1-0.8
		c0-0.5,0.1-0.7,0.2-0.7s0.1,0.3,0.2,0.7c0,0.2,0,0.5,0.1,0.8s0,0.3,0,0.5v0.5l0,0l-0.3,0.3C506,326.8,505.2,326.7,504.4,326.5z"/>
	<path class="st4" d="M494.6,326.5c1.6-0.3,3.3-0.3,4.9,0C497.9,326.8,496.2,326.8,494.6,326.5z"/>
	<path class="st4" d="M484.7,326.5c1.6-0.3,3.3-0.3,4.9,0C488,326.8,486.4,326.8,484.7,326.5z"/>
	<path class="st4" d="M474.9,326.5c1.6-0.3,3.3-0.3,4.9,0C478.2,326.8,476.5,326.8,474.9,326.5z"/>
	<path class="st4" d="M465.1,326.5c1.6-0.3,3.3-0.3,4.9,0C468.4,326.8,466.7,326.8,465.1,326.5z"/>
	<path class="st4" d="M455.3,326.5c1.6-0.3,3.3-0.3,4.9,0C458.5,326.8,456.9,326.8,455.3,326.5z"/>
	<path class="st4" d="M445.4,326.5c1.6-0.3,3.3-0.3,4.9,0C448.7,326.8,447,326.8,445.4,326.5z"/>
	<path class="st4" d="M435.6,326.5c1.6-0.3,3.3-0.3,4.9,0C438.9,326.8,437.2,326.8,435.6,326.5z"/>
	<path class="st4" d="M425.8,326.5c1.6-0.3,3.3-0.3,4.9,0C429.1,326.8,427.4,326.8,425.8,326.5z"/>
	<path class="st4" d="M415.9,326.5c1.6-0.3,3.3-0.3,4.9,0C419.2,326.8,417.5,326.8,415.9,326.5z"/>
	<path class="st4" d="M406.1,326.5c1.6-0.3,3.3-0.3,4.9,0C409.4,326.8,407.7,326.8,406.1,326.5z"/>
	<path class="st4" d="M396.3,326.5c1.6-0.3,3.3-0.3,4.9,0C399.6,326.8,397.9,326.8,396.3,326.5z"/>
	<path class="st4" d="M386.4,326.5c1.6-0.3,3.3-0.3,4.9,0C389.7,326.8,388.1,326.8,386.4,326.5z"/>
	<path class="st4" d="M376.6,326.5c1.6-0.3,3.3-0.3,4.9,0C379.9,326.8,378.2,326.8,376.6,326.5z"/>
	<path class="st4" d="M366.8,326.5c1.6-0.3,3.3-0.3,4.9,0C370.1,326.8,368.4,326.8,366.8,326.5z"/>
	<path class="st4" d="M357,326.5c1.6-0.3,3.3-0.3,4.9,0C360.3,326.8,358.6,326.8,357,326.5z"/>
	<path class="st4" d="M347.1,326.5c1.6-0.3,3.3-0.3,4.9,0C350.4,326.8,348.7,326.8,347.1,326.5z"/>
	<path class="st4" d="M337.3,326.5c1.6-0.3,3.3-0.3,4.9,0C340.6,326.8,338.9,326.8,337.3,326.5z"/>
	<path class="st4" d="M327.5,326.5c1.6-0.3,3.3-0.3,4.9,0C330.8,326.8,329.1,326.8,327.5,326.5z"/>
	<path class="st4" d="M317.6,326.5c1.6-0.3,3.3-0.3,4.9,0C320.9,326.8,319.3,326.8,317.6,326.5z"/>
	<path class="st4" d="M307.8,326.5c1.6-0.3,3.3-0.3,4.9,0C311.1,326.8,309.4,326.8,307.8,326.5z"/>
	<path class="st4" d="M298,326.5c1.6-0.3,3.3-0.3,4.9,0C301.3,326.8,299.6,326.8,298,326.5z"/>
	<path class="st4" d="M288.2,326.5c1.6-0.3,3.3-0.3,4.9,0C291.5,326.8,289.8,326.8,288.2,326.5z"/>
	<path class="st4" d="M278.3,326.5c1.6-0.3,3.3-0.3,4.9,0C281.6,326.8,279.9,326.8,278.3,326.5z"/>
	<path class="st4" d="M268.5,326.5c1.6-0.3,3.3-0.3,4.9,0C271.8,326.8,270.1,326.8,268.5,326.5z"/>
	<path class="st4" d="M261.1,324c0.3,0.8,0.3,1.7,0.3,2.5l-0.3-0.3h1l0.8,0.1c0.5,0,0.7,0.1,0.7,0.2s-0.3,0.1-0.7,0.2l-0.8,0h-0.5
		h-0.5l-0.3-0.3C260.8,325.6,260.8,324.8,261.1,324z"/>
	<path class="st4" d="M261.1,315c0.3,1.5,0.3,3,0,4.5C260.7,318,260.7,316.5,261.1,315z"/>
	<path class="st4" d="M261.1,305.9c0.3,1.5,0.3,3,0,4.5C260.7,308.9,260.7,307.4,261.1,305.9z"/>
	<path class="st4" d="M261.1,296.9c0.3,1.5,0.3,3,0,4.5C260.7,299.9,260.7,298.3,261.1,296.9z"/>
	<path class="st4" d="M261.1,287.8c0.3,1.5,0.3,3,0,4.5C260.7,290.8,260.7,289.3,261.1,287.8z"/>
	<path class="st4" d="M261.1,278.8c0.3,1.5,0.3,3,0,4.5C260.7,281.8,260.7,280.2,261.1,278.8z"/>
	<path class="st4" d="M263.6,271.7c-0.8,0.3-1.7,0.3-2.5,0.3l0.3-0.3l0,0v0.5v0.5c0,0.3,0,0.6,0,0.8c0,0.5-0.1,0.7-0.2,0.7
		s-0.1-0.3-0.2-0.7c0-0.2,0-0.5-0.1-0.8s0-0.3,0-0.5v-0.5l0,0l0.3-0.3C261.9,271.4,262.8,271.5,263.6,271.7z"/>
	<path class="st4" d="M273.4,271.7c-1.6,0.3-3.3,0.3-4.9,0C270.1,271.4,271.8,271.4,273.4,271.7z"/>
	<path class="st4" d="M283.2,271.7c-1.6,0.3-3.3,0.3-4.9,0C279.9,271.4,281.6,271.4,283.2,271.7z"/>
	<path class="st4" d="M293.1,271.7c-1.6,0.3-3.3,0.3-4.9,0C289.8,271.4,291.5,271.4,293.1,271.7z"/>
	<path class="st4" d="M302.9,271.7c-1.6,0.3-3.3,0.3-4.9,0C299.6,271.4,301.3,271.4,302.9,271.7z"/>
	<path class="st4" d="M312.7,271.7c-1.6,0.3-3.3,0.3-4.9,0C309.4,271.4,311.1,271.4,312.7,271.7z"/>
	<path class="st4" d="M322.6,271.7c-1.6,0.3-3.3,0.3-4.9,0C319.3,271.4,320.9,271.4,322.6,271.7z"/>
	<path class="st4" d="M332.4,271.7c-1.6,0.3-3.3,0.3-4.9,0C329.1,271.4,330.8,271.4,332.4,271.7z"/>
	<path class="st4" d="M342.2,271.7c-1.6,0.3-3.3,0.3-4.9,0C338.9,271.4,340.6,271.4,342.2,271.7z"/>
	<path class="st4" d="M352,271.7c-1.6,0.3-3.3,0.3-4.9,0C348.7,271.4,350.4,271.4,352,271.7z"/>
	<path class="st4" d="M361.9,271.7c-1.6,0.3-3.3,0.3-4.9,0C358.6,271.4,360.3,271.4,361.9,271.7z"/>
	<path class="st4" d="M371.7,271.7c-1.6,0.3-3.3,0.3-4.9,0C368.4,271.4,370.1,271.4,371.7,271.7z"/>
	<path class="st4" d="M381.5,271.7c-1.6,0.3-3.3,0.3-4.9,0C378.2,271.4,379.9,271.4,381.5,271.7z"/>
	<path class="st4" d="M391.4,271.7c-1.6,0.3-3.3,0.3-4.9,0C388.1,271.4,389.7,271.4,391.4,271.7z"/>
	<path class="st4" d="M401.2,271.7c-1.6,0.3-3.3,0.3-4.9,0C397.9,271.4,399.6,271.4,401.2,271.7z"/>
	<path class="st4" d="M411,271.7c-1.6,0.3-3.3,0.3-4.9,0C407.7,271.4,409.4,271.4,411,271.7z"/>
	<path class="st4" d="M420.8,271.7c-1.6,0.3-3.3,0.3-4.9,0C417.5,271.4,419.2,271.4,420.8,271.7z"/>
	<path class="st4" d="M430.7,271.7c-1.6,0.3-3.3,0.3-4.9,0C427.4,271.4,429.1,271.4,430.7,271.7z"/>
	<path class="st4" d="M440.5,271.7c-1.6,0.3-3.3,0.3-4.9,0C437.2,271.4,438.9,271.4,440.5,271.7z"/>
	<path class="st4" d="M450.3,271.7c-1.6,0.3-3.3,0.3-4.9,0C447,271.4,448.7,271.4,450.3,271.7z"/>
	<path class="st4" d="M460.2,271.7c-1.6,0.3-3.3,0.3-4.9,0C456.9,271.4,458.5,271.4,460.2,271.7z"/>
	<path class="st4" d="M470,271.7c-1.6,0.3-3.3,0.3-4.9,0C466.7,271.4,468.4,271.4,470,271.7z"/>
	<path class="st4" d="M479.8,271.7c-1.6,0.3-3.3,0.3-4.9,0C476.5,271.4,478.2,271.4,479.8,271.7z"/>
	<path class="st4" d="M489.6,271.7c-1.6,0.3-3.3,0.3-4.9,0C486.4,271.4,488,271.4,489.6,271.7z"/>
	<path class="st4" d="M499.5,271.7c-1.6,0.3-3.3,0.3-4.9,0C496.2,271.4,497.9,271.4,499.5,271.7z"/>
	<path class="st4" d="M506.9,274.2c-0.3-0.8-0.3-1.7-0.3-2.5l0.3,0.3h-1c-0.3,0-0.6,0-0.8-0.1c-0.5,0-0.7-0.1-0.7-0.2
		s0.3-0.1,0.7-0.2l0.8,0h0.5h0.5c0.1,0.1-0.3-0.3,0.3,0.3C507.2,272.6,507.1,273.4,506.9,274.2z"/>
	<path class="st4" d="M506.9,283.3c-0.3-1.5-0.3-3,0-4.5C507.2,280.2,507.2,281.8,506.9,283.3z"/>
	<path class="st4" d="M506.9,292.3c-0.3-1.5-0.3-3,0-4.5C507.2,289.3,507.2,290.8,506.9,292.3z"/>
	<path class="st4" d="M506.9,301.4c-0.3-1.5-0.3-3,0-4.5C507.2,298.3,507.2,299.9,506.9,301.4z"/>
	<path class="st4" d="M506.9,310.4c-0.3-1.5-0.3-3,0-4.5C507.2,307.4,507.2,308.9,506.9,310.4z"/>
	<path class="st4" d="M506.9,319.5c-0.3-1.5-0.3-3,0-4.5C507.2,316.4,507.2,318,506.9,319.5z"/>
	<rect x="261.3" y="194.9" class="st1" width="245.6" height="64.7"/>
	<path class="st4" d="M506.9,259.6c0,0,0-0.4,0-1.1s0-1.8,0-3.3c0-2.9,0-7.1,0-12.7c0-11.1,0-27.2-0.1-47.6l0.2,0.2l-245.5,0.1l0,0
		l0.3-0.3v64.7l-0.3-0.3l175.3,0.1l51.5,0.1h13.9h3.6L506.9,259.6l-1.1-0.1h-3.6h-13.8l-51.5,0.1l-175.5,0.1h-0.3v-0.3
		c0-20.8,0-42.5,0-64.7v-0.3h0.3l245.6,0.1h0.2v0.2c0,20.5-0.1,36.6-0.1,47.7c0,5.5,0,9.8,0,12.6c0,1.4,0,2.5,0,3.2
		S506.9,259.6,506.9,259.6z"/>
	<path class="st4" d="M281,204.5c-2.7,0.3-5.5,0.3-8.2,0C275.5,204.2,278.3,204.2,281,204.5z"/>
	<path class="st4" d="M281,213.6c-2.7,0.3-5.5,0.3-8.2,0C275.5,213.3,278.3,213.3,281,213.6z"/>
	<path class="st4" d="M281,222.7c-2.7,0.3-5.5,0.3-8.2,0C275.5,222.4,278.3,222.4,281,222.7z"/>
	<path class="st4" d="M281,231.8c-2.7,0.3-5.5,0.3-8.2,0C275.5,231.5,278.3,231.5,281,231.8z"/>
	<path class="st4" d="M281,240.9c-2.7,0.3-5.5,0.3-8.2,0C275.5,240.6,278.3,240.6,281,240.9z"/>
	<path class="st4" d="M281,250c-2.7,0.3-5.5,0.3-8.2,0C275.5,249.7,278.3,249.7,281,250z"/>
	<path class="st6" d="M313.9,250c0,0.1-4.8,0.3-10.7,0.3s-10.7-0.1-10.7-0.3s4.8-0.2,10.7-0.2S313.9,249.9,313.9,250z"/>
	<path class="st5" d="M313.9,240.9c0,0.1-4.8,0.2-10.7,0.2s-10.7-0.1-10.7-0.2s4.8-0.3,10.7-0.3S313.9,240.8,313.9,240.9z"/>
	<path class="st6" d="M343.6,204.5c0,0.1-8.9,0.3-20,0.3s-20-0.1-20-0.3s8.9-0.3,20-0.3S343.6,204.4,343.6,204.5z"/>
	<path class="st4" d="M389.8,204.5c0,0.1-8.9,0.3-20,0.3s-20-0.1-20-0.3s8.9-0.3,20-0.3S389.8,204.4,389.8,204.5z"/>
	<path class="st4" d="M372.1,213.6c0,0.1-13.2,0.3-29.4,0.3s-29.4-0.1-29.4-0.3s13.2-0.3,29.4-0.3S372.1,213.4,372.1,213.6z"/>
	<path class="st4" d="M372.1,222.7c0,0.1-13.2,0.2-29.4,0.2s-29.4-0.1-29.4-0.2s13.2-0.3,29.4-0.3S372.1,222.6,372.1,222.7z"/>
	<path class="st4" d="M395.2,231.8c0,0.1-13.2,0.3-29.4,0.3s-29.4-0.1-29.4-0.3s13.2-0.2,29.4-0.2S395.2,231.6,395.2,231.8z"/>
	<path class="st4" d="M467,231.8c0,0.1-13.2,0.3-29.4,0.3s-29.4-0.1-29.4-0.3s13.2-0.2,29.4-0.2S467,231.6,467,231.8z"/>
	<path class="st1" d="M442,213.6c0,0.1-13.2,0.3-29.4,0.3s-29.4-0.1-29.4-0.3s13.2-0.3,29.4-0.3S442,213.4,442,213.6z"/>
	<path class="st5" d="M474.6,222.7c0,0.1-20.5,0.2-45.7,0.2s-45.7-0.1-45.7-0.2s20.5-0.3,45.7-0.3S474.6,222.6,474.6,222.7z"/>
	<path class="st5" d="M324.5,231.8c0,0.1-4.8,0.3-10.7,0.3s-10.7-0.1-10.7-0.3s4.8-0.2,10.7-0.2S324.5,231.6,324.5,231.8z"/>
	<path class="st6" d="M495.5,231.8c0,0.1-4.8,0.3-10.7,0.3s-10.7-0.1-10.7-0.3s4.8-0.2,10.7-0.2S495.5,231.6,495.5,231.8z"/>
	<rect x="262.2" y="35.3" class="st1" width="244.7" height="86.9"/>
	<path class="st4" d="M506.9,122.2c0,0,0-0.5,0-1.5s0-2.5,0-4.4c0-3.9,0-9.7,0-17.2c0-14.9,0-36.6-0.1-63.8l0.2,0.2l-244.7,0.1l0,0
		l0.3-0.3c0,30.3,0,59.6,0,86.9l-0.3-0.3l175.3,0.1l51,0.1h13.7h3.5L506.9,122.2l-1.1-0.1h-3.5h-13.6l-51,0.1l-175.4,0.1H262V35h0.3
		l244.7,0.1h0.2v0.2c-0.1,27.2-0.1,49-0.1,63.9c0,7.4,0,13.2,0,17.1c0,1.9,0,3.4,0,4.4S506.9,122.2,506.9,122.2z"/>
	<path class="st4" d="M506.9,53.8c0,0.1-54.7,0.3-122.2,0.3S262.5,54,262.5,53.8s54.7-0.3,122.2-0.3S506.9,53.7,506.9,53.8z"/>
	<path class="st4" d="M275.7,44.9c0,1.3-1,2.3-2.3,2.3c-1.3,0-2.3-1-2.3-2.3c0-1.3,1-2.3,2.3-2.3l0,0
		C274.7,42.6,275.7,43.6,275.7,44.9z"/>
	<path class="st4" d="M283.7,44.9c0,1.3-1,2.3-2.3,2.3c-1.3,0-2.3-1-2.3-2.3c0-1.3,1-2.3,2.3-2.3l0,0
		C282.7,42.6,283.7,43.6,283.7,44.9z"/>
	<path class="st4" d="M291.2,44.9c0,1.3-1,2.3-2.3,2.3c-1.3,0-2.3-1-2.3-2.3c0-1.3,1-2.3,2.3-2.3l0,0
		C290.2,42.6,291.2,43.6,291.2,44.9z"/>
	<path class="st4" d="M282.9,72.9c-2.6,0.3-5.3,0.3-7.9,0C277.6,72.5,280.3,72.5,282.9,72.9z"/>
	<path class="st4" d="M283.2,64.4c-2.6,0.3-5.3,0.3-7.9,0C277.9,64.1,280.6,64.1,283.2,64.4z"/>
	<path class="st4" d="M282.9,82c-2.6,0.3-5.3,0.3-7.9,0C277.6,81.7,280.3,81.7,282.9,82L282.9,82z"/>
	<path class="st4" d="M282.9,91.1c-2.6,0.3-5.3,0.3-7.9,0C277.6,90.7,280.3,90.7,282.9,91.1z"/>
	<path class="st4" d="M282.9,100.2c-2.6,0.3-5.3,0.3-7.9,0C277.6,99.8,280.3,99.8,282.9,100.2z"/>
	<path class="st4" d="M282.9,109.3c-2.6,0.3-5.3,0.3-7.9,0C277.6,108.9,280.2,108.9,282.9,109.3z"/>
	<path class="st6" d="M314.6,72.3c0,0.1-4.6,0.3-10.3,0.3s-10.3-0.1-10.3-0.3s4.6-0.3,10.3-0.3S314.6,72.2,314.6,72.3z"/>
	<path class="st6" d="M343.2,91.1c0,0.1-8.6,0.2-19.2,0.2s-19.2-0.1-19.2-0.2s8.6-0.3,19.2-0.3S343.2,90.9,343.2,91.1z"/>
	<path class="st4" d="M387.6,91.1c0,0.1-8.6,0.2-19.2,0.2s-19.2-0.1-19.2-0.2s8.6-0.3,19.2-0.3S387.6,90.9,387.6,91.1z"/>
	<path class="st4" d="M370.7,100.2c0,0.1-12.7,0.2-28.3,0.2s-28.3-0.1-28.3-0.2s12.7-0.3,28.3-0.3S370.7,100,370.7,100.2z"/>
	<path class="st4" d="M370.7,109.3c0,0.1-12.7,0.3-28.3,0.3s-28.3-0.1-28.3-0.3s12.7-0.2,28.3-0.2S370.7,109.1,370.7,109.3z"/>
	<path class="st4" d="M438,100.2c0,0.1-12.7,0.2-28.3,0.2s-28.3-0.1-28.3-0.2s12.7-0.3,28.3-0.3S438,100,438,100.2z"/>
	<path class="st5" d="M469.3,109.3c0,0.1-19.7,0.3-44,0.3s-44-0.1-44-0.3s19.7-0.2,44-0.2S469.3,109.1,469.3,109.3z"/>
	<path class="st4" d="M314.6,82c0,0.1-4.6,0.3-10.3,0.3s-10.3-0.1-10.3-0.3s4.6-0.3,10.3-0.3S314.6,81.8,314.6,82z"/>
	<path class="st4" d="M289.7,115.7c-0.1,0-0.3-13-0.3-28.9s0.1-28.9,0.3-28.9s0.3,13,0.3,28.9S289.8,115.7,289.7,115.7z"/>
	<path class="st1" d="M328,126.2c0,0.1-4.6,0.2-10.3,0.2s-10.3-0.1-10.3-0.2s4.5-0.2,10.3-0.2S328,126.1,328,126.2z"/>
	<path class="st4" d="M504.4,182.8c0.8-0.3,1.7-0.3,2.5-0.3l-0.3,0.3l0,0v-0.5c0-0.1,0-0.3,0-0.5s0-0.6,0.1-0.8
		c0-0.4,0.1-0.7,0.2-0.7s0.1,0.3,0.2,0.7c0,0.2,0,0.5,0.1,0.8s0,0.3,0,0.5v0.5l0,0c-0.1,0.1,0.3-0.3-0.3,0.3
		C506,183.1,505.2,183,504.4,182.8z"/>
	<path class="st4" d="M494.2,182.8c1.7-0.3,3.4-0.3,5.1,0C497.6,183.1,495.9,183.1,494.2,182.8z"/>
	<path class="st4" d="M484,182.8c1.7-0.3,3.4-0.3,5.1,0C487.5,183.1,485.7,183.1,484,182.8z"/>
	<path class="st4" d="M473.9,182.8c1.7-0.3,3.4-0.3,5.1,0C477.3,183.1,475.6,183.1,473.9,182.8z"/>
	<path class="st4" d="M463.7,182.8c1.7-0.3,3.4-0.3,5.1,0C467.1,183.1,465.4,183.1,463.7,182.8z"/>
	<path class="st4" d="M453.5,182.8c1.7-0.3,3.4-0.3,5.1,0C457,183.1,455.2,183.1,453.5,182.8z"/>
	<path class="st4" d="M443.4,182.8c1.7-0.3,3.4-0.3,5.1,0C446.8,183.1,445.1,183.1,443.4,182.8z"/>
	<path class="st4" d="M433.2,182.8c1.7-0.3,3.4-0.3,5.1,0C436.6,183.1,434.9,183.1,433.2,182.8z"/>
	<path class="st4" d="M423,182.8c1.7-0.3,3.4-0.3,5.1,0C426.4,183.1,424.7,183.1,423,182.8z"/>
	<path class="st4" d="M412.9,182.8c1.7-0.3,3.4-0.3,5.1,0C416.3,183.1,414.6,183.1,412.9,182.8z"/>
	<path class="st4" d="M402.7,182.8c1.7-0.3,3.4-0.3,5.1,0C406.1,183.1,404.4,183.1,402.7,182.8z"/>
	<path class="st4" d="M392.5,182.8c1.7-0.3,3.4-0.3,5.1,0C395.9,183.1,394.2,183.1,392.5,182.8z"/>
	<path class="st4" d="M382.4,182.8c1.7-0.3,3.4-0.3,5.1,0C385.8,183.1,384,183.1,382.4,182.8z"/>
	<path class="st4" d="M372.2,182.8c1.7-0.3,3.4-0.3,5.1,0C375.6,183.1,373.9,183.1,372.2,182.8z"/>
	<path class="st4" d="M362,182.8c1.7-0.3,3.4-0.3,5.1,0C365.4,183.1,363.7,183.1,362,182.8z"/>
	<path class="st4" d="M351.9,182.8c1.7-0.3,3.4-0.3,5.1,0C355.3,183.1,353.5,183.1,351.9,182.8z"/>
	<path class="st4" d="M341.7,182.8c1.7-0.3,3.4-0.3,5.1,0C345.1,183.1,343.4,183.1,341.7,182.8z"/>
	<path class="st4" d="M331.5,182.8c1.7-0.3,3.4-0.3,5.1,0C334.9,183.1,333.2,183.1,331.5,182.8z"/>
	<path class="st4" d="M321.4,182.8c1.7-0.3,3.4-0.3,5.1,0C324.8,183.1,323,183.1,321.4,182.8z"/>
	<path class="st4" d="M311.2,182.8c1.7-0.3,3.4-0.3,5.1,0C314.6,183.1,312.9,183.1,311.2,182.8z"/>
	<path class="st4" d="M301,182.8c1.7-0.3,3.4-0.3,5.1,0C304.4,183.1,302.7,183.1,301,182.8z"/>
	<path class="st4" d="M290.9,182.8c1.7-0.3,3.4-0.3,5.1,0C294.3,183.1,292.5,183.1,290.9,182.8z"/>
	<path class="st4" d="M280.7,182.8c1.7-0.3,3.4-0.3,5.1,0C284.1,183.1,282.4,183.1,280.7,182.8z"/>
	<path class="st4" d="M270.5,182.8c1.7-0.3,3.4-0.3,5.1,0C273.9,183.1,272.2,183.1,270.5,182.8z"/>
	<path class="st4" d="M262.9,180.3c0.3,0.8,0.3,1.7,0.3,2.5l-0.3-0.3h0.5h0.5l0.8,0.1c0.5,0,0.7,0.1,0.7,0.2s-0.3,0.1-0.7,0.2
		l-0.8,0.1h-1l-0.3-0.3C262.6,181.9,262.7,181.1,262.9,180.3z"/>
	<path class="st4" d="M262.9,170c0.3,1.7,0.3,3.4,0,5.1C262.6,173.4,262.6,171.7,262.9,170z"/>
	<path class="st4" d="M262.9,159.8c0.3,1.7,0.3,3.4,0,5.1C262.6,163.2,262.6,161.5,262.9,159.8z"/>
	<path class="st4" d="M262.9,149.6c0.3,1.7,0.3,3.4,0,5.1C262.6,153,262.6,151.2,262.9,149.6z"/>
	<path class="st4" d="M262.9,139.3c0.3,1.7,0.3,3.4,0,5.1C262.6,142.8,262.6,141,262.9,139.3z"/>
	<path class="st4" d="M265.4,131.7c-0.8,0.3-1.7,0.3-2.5,0.3l0.3-0.3l0,0v0.9c0,0.3,0,0.6-0.1,0.8c0,0.4-0.1,0.7-0.2,0.7
		s-0.1-0.3-0.2-0.7c0-0.2,0-0.5,0-0.8v-0.5v-0.5l0,0l0.3-0.3C263.8,131.4,264.6,131.5,265.4,131.7z"/>
	<path class="st4" d="M275.6,131.7c-1.7,0.3-3.4,0.3-5.1,0C272.2,131.4,273.9,131.4,275.6,131.7z"/>
	<path class="st4" d="M285.8,131.7c-1.7,0.3-3.4,0.3-5.1,0C282.4,131.4,284.1,131.4,285.8,131.7z"/>
	<path class="st4" d="M295.9,131.7c-1.7,0.3-3.4,0.3-5.1,0C292.5,131.4,294.3,131.4,295.9,131.7z"/>
	<path class="st4" d="M306.1,131.7c-1.7,0.3-3.4,0.3-5.1,0C302.7,131.4,304.4,131.4,306.1,131.7z"/>
	<path class="st4" d="M316.3,131.7c-1.7,0.3-3.4,0.3-5.1,0C312.9,131.4,314.6,131.4,316.3,131.7z"/>
	<path class="st4" d="M326.5,131.7c-1.7,0.3-3.4,0.3-5.1,0C323,131.4,324.8,131.4,326.5,131.7z"/>
	<path class="st4" d="M336.6,131.7c-1.7,0.3-3.4,0.3-5.1,0C333.2,131.4,334.9,131.4,336.6,131.7z"/>
	<path class="st4" d="M346.8,131.7c-1.7,0.3-3.4,0.3-5.1,0C343.4,131.4,345.1,131.4,346.8,131.7z"/>
	<path class="st4" d="M357,131.7c-1.7,0.3-3.4,0.3-5.1,0C353.6,131.4,355.3,131.4,357,131.7z"/>
	<path class="st4" d="M367.1,131.7c-1.7,0.3-3.4,0.3-5.1,0C363.7,131.4,365.4,131.4,367.1,131.7z"/>
	<path class="st4" d="M377.3,131.7c-1.7,0.3-3.4,0.3-5.1,0C373.9,131.4,375.6,131.4,377.3,131.7z"/>
	<path class="st4" d="M387.5,131.7c-1.7,0.3-3.4,0.3-5.1,0C384,131.4,385.8,131.4,387.5,131.7z"/>
	<path class="st4" d="M397.6,131.7c-1.7,0.3-3.4,0.3-5.1,0C394.2,131.4,395.9,131.4,397.6,131.7z"/>
	<path class="st4" d="M407.8,131.7c-1.7,0.3-3.4,0.3-5.1,0C404.4,131.4,406.1,131.4,407.8,131.7z"/>
	<path class="st4" d="M418,131.7c-1.7,0.3-3.4,0.3-5.1,0C414.6,131.4,416.3,131.4,418,131.7z"/>
	<path class="st4" d="M428.1,131.7c-1.7,0.3-3.4,0.3-5.1,0C424.7,131.4,426.5,131.4,428.1,131.7z"/>
	<path class="st4" d="M438.3,131.7c-1.7,0.3-3.4,0.3-5.1,0C434.9,131.4,436.6,131.4,438.3,131.7z"/>
	<path class="st4" d="M448.5,131.7c-1.7,0.3-3.4,0.3-5.1,0C445.1,131.4,446.8,131.4,448.5,131.7z"/>
	<path class="st4" d="M458.6,131.7c-1.7,0.3-3.4,0.3-5.1,0C455.2,131.4,457,131.4,458.6,131.7z"/>
	<path class="st4" d="M468.8,131.7c-1.7,0.3-3.4,0.3-5.1,0C465.4,131.4,467.1,131.4,468.8,131.7z"/>
	<path class="st4" d="M479,131.7c-1.7,0.3-3.4,0.3-5.1,0C475.6,131.4,477.3,131.4,479,131.7z"/>
	<path class="st4" d="M489.1,131.7c-1.7,0.3-3.4,0.3-5.1,0C485.7,131.4,487.5,131.4,489.1,131.7z"/>
	<path class="st4" d="M499.3,131.7c-1.7,0.3-3.4,0.3-5.1,0C495.9,131.4,497.6,131.4,499.3,131.7z"/>
	<path class="st4" d="M506.9,134.2c-0.3-0.8-0.3-1.7-0.3-2.5l0.3,0.3h-1c-0.3,0-0.6,0-0.8-0.1c-0.5,0-0.7-0.1-0.7-0.2
		s0.3-0.1,0.7-0.2c0.2,0,0.5-0.1,0.8-0.1h0.5h0.5l0.3,0.3C507.2,132.6,507.1,133.4,506.9,134.2z"/>
	<path class="st4" d="M506.9,144.4c-0.3-1.7-0.3-3.4,0-5.1C507.2,141,507.2,142.8,506.9,144.4z"/>
	<path class="st4" d="M506.9,154.7c-0.3-1.7-0.3-3.4,0-5.1C507.2,151.2,507.2,153,506.9,154.7z"/>
	<path class="st4" d="M506.9,164.9c-0.3-1.7-0.3-3.4,0-5.1C507.2,161.5,507.2,163.2,506.9,164.9z"/>
	<path class="st4" d="M506.9,175.1c-0.3-1.7-0.3-3.4,0-5.1C507.2,171.7,507.2,173.5,506.9,175.1z"/>
	<path class="st5" d="M285.8,255.8c-0.1,0-0.3-12.8-0.3-28.5s0.1-28.5,0.3-28.5s0.3,12.8,0.3,28.5S286,255.8,285.8,255.8z"/>
</g>
<g id="freepik--character-3--inject-5">
	<path class="st5" d="M588.3,441.4l0.5,32.4l-40.3,0.8c0.2-3.9,20.9-12,20.9-12l-1.1-20.7L588.3,441.4z"/>
	<path class="st7" d="M581.8,460.6c0.8,0.2,1.3,1,1.2,1.9c-0.2,0.8-1,1.3-1.8,1.2c-0.9-0.2-1.4-1.1-1.2-2c0.3-0.8,1.2-1.2,2-1"/>
	<path class="st4" d="M588.8,473.7v-3.3l-38.8,2.2c0,0-1.8,0.8-1.5,2.1L588.8,473.7z"/>
	<path class="st4" d="M568.7,462.4c0,0.2,1,0.3,2,0.9s1.5,1.4,1.7,1.4s-0.1-1.2-1.3-1.9S568.6,462.2,568.7,462.4z"/>
	<path class="st4" d="M564.5,464.2c0,0.2,0.8,0.5,1.5,1.3s0.9,1.7,1.1,1.7s0.3-1.1-0.6-2.1S564.5,464,564.5,464.2z"/>
	<path class="st4" d="M562.2,469.3c0.2,0,0.4-1-0.1-2s-1.5-1.5-1.5-1.3s0.5,0.7,0.9,1.6S562,469.3,562.2,469.3z"/>
	<path class="st4" d="M568.9,457.6c0.1,0.2,1-0.1,2.1,0s2,0.4,2.1,0.2s-0.8-0.9-2.1-0.9S568.8,457.5,568.9,457.6z"/>
	<path class="st4" d="M569.8,452.8c0.7,0.2,1.3,0.2,2,0c0.7-0.1,1.4-0.4,2.1-0.7c0.4-0.2,0.8-0.4,1.2-0.6c0.2-0.1,0.4-0.3,0.6-0.5
		c0.2-0.3,0.3-0.7,0.1-1c-0.2-0.3-0.5-0.4-0.9-0.4c-0.3,0-0.5,0-0.8,0.1c-0.4,0.1-0.8,0.3-1.2,0.5c-0.7,0.3-1.3,0.7-1.8,1.3
		c-0.9,0.9-1.2,1.6-1.2,1.7s0.5-0.6,1.5-1.3c0.6-0.4,1.2-0.8,1.8-1c0.4-0.2,0.8-0.3,1.2-0.4c0.4-0.1,0.8-0.1,0.9,0.1s0,0.1,0,0.2
		c-0.1,0.1-0.3,0.3-0.4,0.4c-0.3,0.2-0.7,0.4-1.1,0.6c-0.6,0.3-1.3,0.6-1.9,0.8C571.1,452.5,570.4,452.6,569.8,452.8z"/>
	<path class="st4" d="M570.1,453.1c0.4-0.6,0.5-1.3,0.5-2c0-0.7-0.1-1.5-0.3-2.2c-0.1-0.4-0.3-0.8-0.5-1.2c-0.2-0.5-0.7-0.9-1.3-1
		c-0.4,0-0.7,0.2-0.8,0.6c-0.1,0.2-0.2,0.5-0.2,0.7c-0.1,0.5-0.1,0.9,0,1.4c0.1,0.8,0.4,1.5,0.9,2.1c0.8,1,1.6,1.3,1.7,1.2
		s-0.6-0.5-1.3-1.5c-0.4-0.6-0.6-1.2-0.7-1.9c-0.1-0.4-0.1-0.8,0-1.2c0-0.4,0.2-0.8,0.4-0.7s0.5,0.3,0.7,0.6
		c0.2,0.3,0.4,0.7,0.5,1.1c0.2,0.6,0.4,1.3,0.4,2C570.2,452.3,570,453.1,570.1,453.1z"/>
	<path class="st5" d="M604.8,441.4l-0.5,32.4l40.3,0.8c-0.2-3.9-20.9-12-20.9-12l1.1-20.7L604.8,441.4z"/>
	<path class="st7" d="M611.3,460.6c-0.8,0.2-1.3,1-1.2,1.9c0.2,0.8,1,1.3,1.8,1.2c0.9-0.2,1.4-1.1,1.2-2c-0.3-0.8-1.2-1.2-2-1"/>
	<path class="st4" d="M604.3,473.7v-3.3l38.7,2.2c0,0,1.8,0.8,1.5,2.1L604.3,473.7z"/>
	<path class="st4" d="M624.4,462.4c0,0.2-1,0.3-2,0.9s-1.5,1.4-1.7,1.4s0.1-1.2,1.3-1.9S624.5,462.2,624.4,462.4z"/>
	<path class="st4" d="M628.6,464.2c0,0.2-0.8,0.5-1.5,1.3s-0.9,1.7-1.1,1.7s-0.3-1.1,0.6-2.1S628.6,464,628.6,464.2z"/>
	<path class="st4" d="M630.9,469.3c-0.2,0-0.4-1,0.1-2s1.5-1.5,1.5-1.3s-0.5,0.7-0.9,1.6S631.1,469.3,630.9,469.3z"/>
	<path class="st4" d="M624.2,457.6c-0.1,0.2-1-0.1-2.1,0s-2,0.4-2.1,0.2s0.8-0.9,2.1-0.9S624.3,457.5,624.2,457.6z"/>
	<path class="st4" d="M623.3,452.8c-0.7,0.2-1.3,0.2-2,0c-0.7-0.1-1.4-0.4-2.1-0.7c-0.4-0.2-0.8-0.4-1.1-0.6
		c-0.2-0.1-0.4-0.3-0.6-0.5c-0.2-0.3-0.3-0.7-0.1-1c0.2-0.3,0.5-0.4,0.9-0.4c0.3,0,0.5,0,0.8,0.1c0.4,0.1,0.8,0.3,1.3,0.5
		c0.7,0.3,1.3,0.7,1.8,1.3c0.9,0.9,1.2,1.6,1.2,1.7s-0.5-0.6-1.5-1.3c-0.5-0.4-1.1-0.8-1.8-1c-0.4-0.2-0.8-0.3-1.2-0.4
		c-0.4-0.1-0.8-0.1-0.9,0.1s0,0.1,0,0.2c0.1,0.1,0.3,0.3,0.4,0.4c0.3,0.2,0.7,0.4,1,0.6c0.6,0.3,1.3,0.6,1.9,0.8
		C622,452.5,622.7,452.6,623.3,452.8z"/>
	<path class="st4" d="M623,453.1c-0.4-0.6-0.6-1.3-0.5-2c0-0.7,0.1-1.5,0.3-2.2c0.1-0.4,0.3-0.8,0.5-1.2c0.2-0.5,0.7-0.9,1.3-1
		c0.4,0,0.7,0.2,0.8,0.6c0.1,0.2,0.2,0.5,0.2,0.7c0.1,0.5,0.1,0.9,0,1.4c-0.1,0.8-0.4,1.5-0.9,2.1c-0.8,1-1.6,1.3-1.6,1.2
		s0.6-0.5,1.3-1.5c0.4-0.6,0.6-1.2,0.7-1.9c0.1-0.4,0.1-0.8,0-1.2c-0.1-0.4-0.2-0.8-0.4-0.7s-0.5,0.3-0.7,0.6
		c-0.2,0.3-0.4,0.7-0.5,1.1c-0.2,0.6-0.4,1.3-0.4,2C622.9,452.3,623.1,453.1,623,453.1z"/>
	<path class="st4" d="M638.9,253.9l-62,6.3v4.7l-5.5,9.4c0,0-5.6,5.6-1.6,16.1v6.7c-0.3,2.7-0.8,5.4-1.5,8.1c-1,4-1,154.5-1,154.5
		l23.5,1.7l16.3-151.9l-3.4,150.3l24.2-0.7l20.4-178l0,0L638.9,253.9z"/>
	<path class="st5" d="M607.3,313.2c-0.1-0.5-0.1-1-0.1-1.5c-0.1-1.1-0.1-2.5-0.2-4c-0.3-3.6-0.6-8.2-0.9-13.4s-0.7-10-0.7-13.4
		c0-1.7,0-3.1,0-4.1c0-0.5,0-1,0.1-1.5c0.1,0.5,0.2,1,0.2,1.5c0.1,1.1,0.1,2.5,0.2,4.1c0.3,3.6,0.6,8.2,0.9,13.4s0.7,10,0.7,13.4
		c0,1.7,0,3.1,0,4.1C607.4,312.2,607.4,312.7,607.3,313.2z"/>
	<path class="st5" d="M621.1,263.9c-0.2,0-0.1-1.8-0.4-4s-0.9-3.8-0.8-3.9s1.1,1.5,1.4,3.8S621.3,264,621.1,263.9z"/>
	<path class="st5" d="M626.3,262.2c-0.2,0-0.5-1.4-0.6-3.2s-0.2-3.2,0-3.2s0.5,1.4,0.6,3.2S626.5,262.2,626.3,262.2z"/>
	<path class="st5" d="M585.5,267.1c-0.2,0-0.7-1.6-0.5-3.7s1-3.6,1.2-3.6s-0.3,1.6-0.5,3.6S585.7,267.1,585.5,267.1z"/>
	<path class="st5" d="M590.8,266.3c-0.2,0-0.3-1.5-0.2-3.4s0.3-3.3,0.5-3.3s0.3,1.5,0.2,3.4S590.9,266.3,590.8,266.3z"/>
	<path class="st5" d="M578.3,267.7c0.2,0.1-1.2,2.4-3.5,4.9s-4.5,4-4.6,3.9s1.9-1.9,4.1-4.3S578.1,267.6,578.3,267.7z"/>
	<path class="st5" d="M648.4,279.5c-0.9-0.4-1.8-1-2.6-1.6c-3.9-3.1-7.1-7-9.2-11.5c-0.5-0.9-0.8-1.9-1-2.9c0.2-0.1,1.8,4.3,5.4,8.8
		S648.6,279.3,648.4,279.5z"/>
	<path class="st5" d="M609.8,261.7c0,0,0.2-0.1,0.5-0.2c0.5,0,1,0.1,1.4,0.4c0.6,0.4,1,1.1,1,1.9c0,1-0.7,1.8-1.6,2.1
		c-0.9,0.4-1.9,0.1-2.5-0.6c-0.4-0.6-0.6-1.4-0.3-2.1c0.1-0.5,0.4-0.9,0.8-1.2c0.3-0.2,0.5-0.2,0.5-0.1s-0.7,0.4-0.8,1.4
		c-0.1,0.6,0,1.2,0.4,1.6c0.8,0.7,1.9,0.6,2.6-0.2c0.2-0.3,0.4-0.6,0.4-0.9c0-0.6-0.3-1.1-0.7-1.5
		C610.9,261.9,610.4,261.7,609.8,261.7z"/>
	<path class="st6" d="M580.6,166.5c0,0-8.7,0.8-11.2,8.2c-1.8,5-9.2,37.1-9.2,37.1l-24.6,2.8v5.4c0,0,18.9,17.1,26.4,17.2
		s9.3-2.8,12.2-5S580.6,166.5,580.6,166.5z"/>
	<path class="st6" d="M644,244.9l-4.2-43.8l0.3-16.5l0.2-16.2l-26.1-10.5l-18.1,2.3l-17.5,6.6l0.5,45.7l-4.5,28c0,0-1.9,15-0.5,17.2
		c0.7,1.1,1.6,2,2.7,2.6l62-6.3l0.9-0.6C642.6,251.8,644.3,248.4,644,244.9z"/>
	<path class="st4" d="M623.4,114.6c-0.1-3.3-1.6-7.8-4.3-9.8c-1.7-1.3-4.2-0.4-6.2-1.2c-2.6-1-4.5-4-7-5.3s-5.5-2.2-7.9-0.9
		c-1.2,0.6-2.1,1.7-3.4,2.2c-1.5,0.6-3.1,0.4-4.6,0.8c-2.9,0.9-4.6,3.8-4.1,6.7c-2.7,0.8-4.3,3.6-3.5,6.3c0.5,1.8,2,3.2,3.9,3.6
		c1.8,0.3,3.8-0.3,5.4,0.7s1.9,3.3,1.7,5.3s-0.8,4-0.1,5.8l26.3,5c1.1-2.1,1.8-5.1,2.7-7.4C623.8,122.8,623.6,118.4,623.4,114.6z"/>
	<path class="st8" d="M619,131.1c0.2-0.1,6.8-2.2,6.8,4.7s-7,5.3-7,5.1S619,131.1,619,131.1z"/>
	<path class="st9" d="M620.9,138.3c0,0,0.1,0.1,0.3,0.2c0.3,0.1,0.6,0.1,0.9,0c0.9-0.6,1.4-1.6,1.4-2.6c0-0.6-0.1-1.2-0.3-1.7
		c-0.1-0.4-0.5-0.8-0.9-0.9c-0.3-0.1-0.6,0.1-0.7,0.3c-0.1,0.2,0,0.3-0.1,0.3s-0.1-0.1-0.1-0.4c0-0.2,0.1-0.3,0.3-0.4
		c0.2-0.1,0.4-0.2,0.7-0.2c0.6,0.1,1,0.5,1.2,1.1c0.3,0.6,0.4,1.3,0.4,1.9c0.1,1.2-0.6,2.4-1.8,2.9c-0.4,0.1-0.8,0-1.1-0.2
		C620.9,138.5,620.9,138.3,620.9,138.3z"/>
	<path class="st8" d="M584.3,145c-0.2-4.8,0.4-14.8,0.9-23.9c0.6-9.7,8.6-17.3,18.3-17.5h1c10.4,0.4,15.9,9.5,15.2,20l-0.9,36.3
		l-1.5,1c-6.9,4.5-15.7,4.4-22.6-0.1l0,0l-0.1-4.3C594.6,156.5,584.6,155.1,584.3,145z"/>
	<path class="st9" d="M594.6,156.4c4.6,0,9.2-1.4,13-3.9c0,0-2.9,7.4-12.9,6.6L594.6,156.4z"/>
	<path class="st4" d="M587.2,129.1c0,0.8,0.6,1.4,1.4,1.4c0.8,0,1.4-0.5,1.5-1.3c0,0,0,0,0,0c0-0.8-0.6-1.4-1.4-1.4
		C587.9,127.7,587.3,128.3,587.2,129.1C587.2,129.1,587.2,129.1,587.2,129.1z"/>
	<path class="st4" d="M601.7,129.6c0,0.8,0.6,1.4,1.4,1.4c0.8,0,1.4-0.5,1.4-1.3c0,0,0,0,0,0c0-0.8-0.6-1.4-1.4-1.4
		C602.4,128.3,601.8,128.9,601.7,129.6C601.7,129.6,601.7,129.6,601.7,129.6z"/>
	<path class="st4" d="M587.3,125.8c0.2,0.2,1.3-0.6,2.8-0.7s2.7,0.7,2.8,0.5s-0.1-0.4-0.6-0.8c-0.7-0.5-1.5-0.7-2.3-0.7
		c-0.8,0-1.6,0.3-2.2,0.8C587.4,125.3,587.3,125.7,587.3,125.8z"/>
	<path class="st4" d="M602.1,125.8c0.2,0.2,1.2-0.7,2.8-0.8s2.7,0.6,2.9,0.3s-0.1-0.4-0.7-0.7c-0.7-0.4-1.5-0.6-2.3-0.5
		c-0.8,0.1-1.6,0.4-2.2,0.9C602.1,125.4,602,125.8,602.1,125.8z"/>
	<path class="st4" d="M597.2,137.6c-0.8-0.2-1.7-0.4-2.5-0.4c-0.4,0-0.8-0.1-0.8-0.4c0-0.4,0-0.8,0.3-1.2l1.1-3
		c1.5-4.3,2.7-7.8,2.5-7.9s-1.6,3.4-3.1,7.7c-0.4,1.1-0.7,2.1-1.1,3c-0.2,0.5-0.3,1-0.2,1.6c0.1,0.3,0.4,0.5,0.7,0.6
		c0.2,0.1,0.4,0.1,0.7,0.1C595.5,137.7,596.4,137.7,597.2,137.6z"/>
	<path class="st4" d="M601.7,138.6c-0.3,0-0.2,1.7-1.6,2.9s-3.2,1.1-3.2,1.3s0.4,0.3,1.2,0.3c1,0,1.9-0.4,2.7-1
		c0.7-0.6,1.2-1.5,1.3-2.4C602,139,601.9,138.6,601.7,138.6z"/>
	<path class="st4" d="M602.2,119.3c0.2,0.4,1.7,0,3.5,0.1s3.3,0.4,3.5,0c0.1-0.2-0.2-0.6-0.8-0.9c-0.8-0.4-1.7-0.6-2.7-0.6
		c-0.9,0-1.9,0.2-2.7,0.6C602.4,118.8,602.1,119.1,602.2,119.3z"/>
	<path class="st4" d="M587.6,120.9c0.3,0.3,1.3,0,2.6-0.1s2.4,0.2,2.6-0.2c0.1-0.2-0.1-0.5-0.5-0.8c-1.3-0.8-3-0.7-4.2,0.2
		C587.6,120.3,587.4,120.7,587.6,120.9z"/>
	<path class="st4" d="M596.2,102.9c3.5-1.5,7.1-0.9,10.9-0.5c2.8,0.3,5.5,1.2,7.8,2.7c3.8,2.6,6.2,6.7,6.5,11.3
		c0.5,4.8,0.2,9.6-0.9,14.3l-0.4-0.1c0.3,1.4,0.7,2.9-0.2,4.2c-0.4,0.8-1.3,1.2-2.2,1c-1.4-0.4-1.5-2.2-1.5-3.7
		c0.2-4.3,0.1-8.5-0.3-12.8c-0.3-3.4-1.9-7.3-4.6-8.8c-3.8-2.1-8.5-2-12.2,0.3c-1.2,0.8-2.7,0.8-3.9,0.1c-2.7-1.6-4.9-1.5-6.5,0.6
		C589.3,107.6,592.7,104.4,596.2,102.9z"/>
	<path class="st5" d="M589.3,133.6c0,0,0.3,0,0.7-0.1c0.7-0.1,1.3-0.3,1.8-0.6c0.4-0.2,0.8-0.5,1.1-0.9c0.4-0.4,0.7-0.8,0.9-1.3
		c0.3-0.5,0.5-1.1,0.5-1.7c0.1-0.6,0-1.3,0-2l0.1,0.1h-11.8l0.1-0.1c0,0.8,0,1.5,0.1,2.3c0.1,0.7,0.4,1.3,0.7,1.9
		c0.6,1,1.5,1.7,2.6,2.1c0.7,0.3,1.5,0.4,2.2,0.3h0.6C589.2,133.6,589.3,133.6,589.3,133.6l-0.2,0h-0.6c-0.8,0.1-1.5,0-2.3-0.3
		c-1.1-0.4-2.1-1.1-2.7-2.1c-0.4-0.6-0.7-1.3-0.8-2c-0.1-0.8-0.1-1.5-0.1-2.3v-0.1h12v0.2c0,0.7,0,1.4,0,2.1
		c-0.1,0.6-0.3,1.2-0.6,1.8c-0.5,0.9-1.2,1.7-2.1,2.2c-0.6,0.3-1.2,0.5-1.9,0.6c-0.2,0-0.4,0-0.5,0L589.3,133.6z"/>
	<path class="st5" d="M605.9,133.6c0,0,0.3,0,0.7-0.1c0.7-0.1,1.3-0.3,1.8-0.6c0.4-0.2,0.8-0.5,1.1-0.9c0.4-0.4,0.7-0.8,0.9-1.3
		c0.3-0.5,0.4-1.1,0.5-1.7c0.1-0.6,0-1.3,0-2l0.1,0.1h-11.7l0.1-0.1c0,0.8,0,1.5,0.1,2.3c0.1,0.7,0.4,1.3,0.7,1.9
		c0.6,1,1.5,1.7,2.6,2.1c0.7,0.3,1.5,0.4,2.2,0.3h0.6C605.9,133.6,605.9,133.6,605.9,133.6l-0.2,0h-0.6c-0.8,0.1-1.5,0-2.3-0.3
		c-1.1-0.4-2.1-1.1-2.7-2.1c-0.4-0.6-0.7-1.3-0.8-2c-0.1-0.8-0.1-1.5-0.1-2.3v-0.1h12v0.2c0,0.7,0,1.4,0,2.1
		c-0.1,0.6-0.3,1.2-0.6,1.8c-0.3,0.5-0.6,0.9-1,1.3c-0.3,0.3-0.7,0.6-1.2,0.9c-0.6,0.3-1.2,0.5-1.9,0.6c-0.2,0-0.4,0-0.5,0
		L605.9,133.6z"/>
	<path class="st5" d="M599.3,128.5c0,0-0.2-0.2-0.6-0.5c-0.5-0.4-1.1-0.6-1.7-0.6c-0.6,0-1.2,0.2-1.7,0.6c-0.4,0.3-0.6,0.5-0.6,0.5
		c0.1-0.3,0.3-0.5,0.5-0.7c0.5-0.5,1.2-0.7,1.9-0.7c0.7,0,1.3,0.3,1.8,0.8C599.2,128.2,599.3,128.5,599.3,128.5z"/>
	<path class="st5" d="M621.3,131.1c-0.5-0.1-1-0.2-1.5-0.3c-0.9-0.2-2.2-0.5-3.6-0.8s-2.7-0.5-3.6-0.6c-0.5,0-1-0.1-1.5-0.3
		c0.5,0,1,0,1.5,0.1c1,0.1,2.2,0.3,3.7,0.5s2.7,0.6,3.6,0.8C620.4,130.7,620.9,130.8,621.3,131.1z"/>
	<path class="st7" d="M588.9,133c-0.4,0.1-0.9,0-1.3-0.1c-1-0.2-2-0.7-2.8-1.4c-0.8-0.7-1.3-1.7-1.5-2.7c-0.1-0.4-0.1-0.9,0-1.3
		c0,0,0,0.5,0.2,1.2c0.3,1,0.8,1.9,1.5,2.5c0.7,0.7,1.6,1.2,2.6,1.4C588.4,132.9,588.9,133,588.9,133z"/>
	<path class="st0" d="M623.3,113.5c0,0-4.7,4.1-7.6,4.3c-0.2-1-0.4-1.9-0.8-2.8c-0.7-1.4-1.5-2.6-2.5-3.8c3.4,0.6,6.9,0,9.9-1.8
		C622.9,110.8,623.2,112.1,623.3,113.5z"/>
	<path class="st0" d="M623.5,115.1c-1.5,2.7-4.3,4.5-7.5,4.7c1.4-0.5,2.7-1.2,4-1.9C621.2,117.1,622.4,116.2,623.5,115.1z"/>
	<path class="st9" d="M606.3,131.2c0.1,0.1-0.7,1.1-2.1,1.3c-0.8,0.2-1.7,0-2.4-0.5c0.8,0.1,1.5,0.1,2.3,0
		C604.9,131.7,605.6,131.5,606.3,131.2z"/>
	<path class="st9" d="M590.4,131.3c-0.7,0.4-1.5,0.5-2.2,0.4c-1.3-0.2-2.1-0.8-2.1-0.9c0.7,0.1,1.4,0.2,2.1,0.4
		C588.9,131.2,589.7,131.2,590.4,131.3z"/>
	<path class="st9" d="M603.5,139.7c-0.2,0-0.2-0.4-0.4-0.9s-0.3-0.8-0.2-0.9s0.5,0.2,0.7,0.8S603.6,139.8,603.5,139.7z"/>
	<path class="st9" d="M613.6,155.6c-0.1,0-0.2-0.7-0.2-1.6s0-1.6,0.2-1.6s0.4,0.7,0.3,1.6S613.7,155.6,613.6,155.6z"/>
	<polygon class="st5" points="487.5,188.3 641.9,282.7 673.7,233.7 519.1,139.5 	"/>
	<path class="st0" d="M524.9,158.8c-0.9-0.4-1.8-0.8-2.6-1.4c-0.9-0.5-1.7-1-2.4-1.7c0.9,0.4,1.8,0.8,2.6,1.4
		C523.4,157.6,524.2,158.1,524.9,158.8z"/>
	<path class="st0" d="M528.3,153.8c-0.9-0.4-1.8-0.8-2.6-1.4c-0.9-0.5-1.7-1.1-2.4-1.7c0.9,0.4,1.8,0.8,2.6,1.4
		C526.8,152.6,527.6,153.2,528.3,153.8z"/>
	<path class="st0" d="M521.5,164.3c-0.9-0.4-1.8-0.8-2.6-1.4c-0.9-0.5-1.7-1-2.4-1.7C518.2,162,519.9,163,521.5,164.3z"/>
	<path class="st0" d="M518,169.7c-0.9-0.4-1.8-0.8-2.6-1.4c-0.9-0.5-1.7-1-2.4-1.7c0.9,0.4,1.8,0.8,2.6,1.4
		C516.4,168.5,517.3,169.1,518,169.7z"/>
	<path class="st0" d="M514.6,175.2c-0.9-0.4-1.8-0.8-2.6-1.4c-0.9-0.5-1.7-1-2.4-1.7c0.9,0.4,1.8,0.8,2.6,1.4
		C513,174,513.8,174.5,514.6,175.2z"/>
	<path class="st0" d="M511.1,180.7c-0.9-0.4-1.8-0.8-2.6-1.4c-0.9-0.5-1.7-1-2.4-1.7c0.9,0.4,1.8,0.8,2.6,1.4
		C509.6,179.4,510.4,180,511.1,180.7z"/>
	<path class="st0" d="M507.7,186.1c-0.9-0.4-1.8-0.8-2.6-1.4c-0.9-0.5-1.7-1-2.4-1.7c0.9,0.4,1.8,0.8,2.6,1.4
		C506.1,184.9,506.9,185.5,507.7,186.1z"/>
	<path class="st6" d="M545.4,171c0,0.1-3-1.7-6.7-3.9s-6.5-4.1-6.5-4.2s3,1.7,6.7,3.9S545.4,170.9,545.4,171z"/>
	<path class="st6" d="M556.5,193.5c-0.1,0.1-5.6-3.2-12.4-7.4s-12.2-7.6-12.2-7.7s5.6,3.2,12.4,7.4S556.6,193.4,556.5,193.5z"/>
	<path class="st0" d="M584.9,211c0,0.1-5.6-3.2-12.4-7.4s-12.2-7.6-12.2-7.7s5.6,3.2,12.4,7.4S585,210.9,584.9,211z"/>
	<path class="st0" d="M570.6,209.8c-0.1,0.1-8.2-4.9-18.2-11s-18-11.2-18-11.3s8.2,4.9,18.2,11S570.7,209.7,570.6,209.8z"/>
	<path class="st0" d="M567.2,215.2c0,0.1-8.2-4.9-18.2-11s-18-11.2-18-11.3s8.2,4.8,18.2,11S567.2,215.1,567.2,215.2z"/>
	<path class="st0" d="M577.9,229.4c-0.1,0.1-8.2-4.8-18.2-11s-18-11.2-18-11.3s8.2,4.8,18.2,11S577.9,229.4,577.9,229.4z"/>
	<path class="st0" d="M622.1,256.7c0,0.1-8.2-4.9-18.2-11s-18-11.2-18-11.3s8.2,4.9,18.2,11S622.1,256.6,622.1,256.7z"/>
	<path class="st1" d="M613.6,236.3c0,0.1-8.2-4.8-18.2-11s-18-11.2-18-11.3s8.2,4.8,18.2,11S613.7,236.2,613.6,236.3z"/>
	<path class="st4" d="M630.1,254.1c-0.1,0.1-12.7-7.6-28.2-17.2s-28-17.4-28-17.5s12.7,7.6,28.2,17.2S630.2,254,630.1,254.1z"/>
	<path class="st1" d="M541.7,176.8c0,0.1-3-1.7-6.7-3.9s-6.5-4.1-6.5-4.2s3,1.7,6.7,3.9S541.8,176.7,541.7,176.8z"/>
	<path class="st1" d="M534.4,202.6c0,0.1-3-1.7-6.7-3.9s-6.5-4.1-6.5-4.2s3,1.7,6.7,3.9S534.5,202.6,534.4,202.6z"/>
	<path class="st6" d="M639.5,267.5c-0.1,0.1-3-1.7-6.7-3.9s-6.5-4.1-6.5-4.2s3,1.7,6.7,3.9S639.6,267.4,639.5,267.5z"/>
	<path class="st4" d="M507.2,195.8c-0.1-0.1,6.1-9.8,13.8-21.8s14.2-21.6,14.3-21.5s-6.1,9.8-13.8,21.8S507.3,195.9,507.2,195.8z"/>
	<path class="st6" d="M637.1,167.3c0,0,17.5,4,17.5,23.4c-0.1,22,0,52-6.1,55.2c-8.1,4.1-22.8,2.1-22.8,2.1l-3.1-19.5l9.8-2.6
		l0.6-42.3L637.1,167.3z"/>
	<path class="st4" d="M632.9,191.1c0.1,0.5,0.1,0.9,0.1,1.4c0,1,0,2.2,0.1,3.7c0,3.2,0,7.5,0,12.3s-0.1,9.2-0.1,12.3
		c0,1.5-0.1,2.8-0.1,3.7c0,0.5,0,0.9-0.1,1.4c-0.1-0.4-0.1-0.9-0.1-1.4c0-1,0-2.2-0.1-3.7c0-3.2,0-7.5,0-12.3s0.1-9.2,0.1-12.3
		c0-1.5,0.1-2.8,0.1-3.7C632.8,192,632.8,191.5,632.9,191.1z"/>
	<path class="st8" d="M580,243.6c-0.2-0.3,6.2-7.6,7.8-8.7s5.6-0.3,7,0.2s27.8-6,27.8-6l3,18.2l-22.3-0.8c0,0-6.5,10-8.4,9.9
		c-1,0-1.8-0.5-2.2-1.4c0,0-3-0.1-3.5-2.5c0,0-3.5,0.4-3.1-1.6c0,0-1.6,2.9-3.3,2.3s-2.2-1.6-1.3-3.1s3.8-7.1,3.8-7.1
		S581.5,245.7,580,243.6z"/>
	<path class="st8" d="M541.7,221.1c0,0-5.7,1-8.5-0.1s-13.4-10.7-13.4-10.7l-0.6-10.1l6.3-6c0,0,2.4,1.2,0.3,3.9l-2.1,3.3
		c0,0,2.5-3.9,4.2-3.3c1,0.3,1.6,1.2,1.7,2.3c0,0,3-1.8,3.3,1.2c0.1,2-0.5,3.9-1.7,5.6l0.3,6.5l1.3-5.3l3.8-3.2
		c1,0.8,1.1,2.2,0.4,3.1c0,0,0,0.1-0.1,0.1l-2.1,2.6l0.2,5.7L541.7,221.1z"/>
	<path class="st4" d="M641.8,238.3c-1.2-2.3-2.6-4.5-4.2-6.6c-1.7-2-3.6-3.8-5.7-5.4c0.7,0.3,1.4,0.7,2,1.2c1.5,1.1,2.9,2.4,4.1,3.9
		c1.2,1.5,2.2,3,3,4.8C641.4,236.7,641.7,237.5,641.8,238.3z"/>
	<path class="st4" d="M641.1,173.7c-1.5,0.6-3,1.3-4.3,2.2c-1.3,1-2.4,2.2-3.4,3.5c0.6-1.6,1.7-3,3.1-3.9
		C637.7,174.4,639.4,173.8,641.1,173.7z"/>
</g>
<g id="freepik--character-2--inject-5">
	<path class="st4" d="M451.1,268.3l-23.7-8.5c1.5,18.5,3.1,37.5-1.9,55.4c-0.5,1.9-1,4.4,0.5,5.7c1,0.7,2.2,0.9,3.5,0.8
		c2.5-0.1,4.9-0.3,7.4-0.5c2.6-0.3,5.4-0.8,7.2-2.7c1.6-1.6,2.2-3.8,2.7-5.9C450.4,298.1,451.8,283.2,451.1,268.3z"/>
	<path class="st6" d="M356.7,328.9l38.1,8.1c4.3,1.4,9.9-0.6,14-2.7l35.4-19.4l-9.3-24.2l0,0c-1,0.3-1.9,0.7-2.8,1.2l-30.7,24.8
		l-41.2-3.3L356.7,328.9z"/>
	<polygon class="st1" points="262.2,357.9 498.6,378.4 505.1,317.2 268.8,295.4 	"/>
	<path class="st4" d="M262.2,357.9l0.1-1c0.1-0.7,0.2-1.8,0.3-3.1c0.3-2.8,0.7-6.9,1.3-12.2c1.1-10.7,2.8-26.4,4.8-46.2v-0.1h0.2
		l235.6,21.7l0.7,0.1h0.3v0.3c-2.3,21-4.5,41.5-6.6,61.2v0.3h-0.3l-169-14.8l-49.6-4.4l-13.3-1.2l-3.4-0.3L262.2,357.9l1.2,0.1
		l3.5,0.3l13.4,1.1l49.6,4.2l168.8,14.5l-0.3,0.2c2.1-19.7,4.3-40.2,6.6-61.2l0.2,0.3l-0.7-0.1l-235.6-21.9l0.2-0.1
		c-2.1,19.8-3.8,35.4-5,46c-0.6,5.4-1,9.5-1.3,12.2c-0.1,1.4-0.3,2.5-0.4,3.2S262.2,357.9,262.2,357.9z"/>
	<path class="st4" d="M284.4,311.4c-1.1,0.1-2.2,0-3.4-0.1c-1.1,0-2.2-0.2-3.3-0.5c1.1-0.1,2.2,0,3.3,0.1
		C282.2,310.9,283.3,311.1,284.4,311.4z"/>
	<path class="st4" d="M285.3,305c-1.1,0.1-2.2,0-3.4-0.1c-1.1,0-2.2-0.2-3.3-0.5c1.1-0.1,2.2,0,3.3,0.1
		C283.1,304.5,284.2,304.7,285.3,305z"/>
	<path class="st4" d="M283.6,318.4c-1.1,0.1-2.2,0-3.4-0.1c-1.1,0-2.2-0.2-3.3-0.5c1.1-0.1,2.2,0,3.3,0.1
		C281.5,317.9,282.6,318.1,283.6,318.4z"/>
	<path class="st4" d="M282.9,325.3c-1.1,0.1-2.2,0-3.3-0.1c-1.1,0-2.2-0.2-3.3-0.5c1.1-0.1,2.2,0,3.4,0.1
		C280.8,324.8,281.9,325,282.9,325.3z"/>
	<path class="st4" d="M282.2,332.3c-1.1,0.1-2.2,0-3.3-0.1c-1.1,0-2.2-0.2-3.3-0.5c1.1-0.1,2.2,0,3.3,0.1
		C280,331.8,281.2,332,282.2,332.3z"/>
	<path class="st4" d="M281.5,339.2c-1.1,0.1-2.2,0-3.4-0.1c-1.1,0-2.2-0.2-3.3-0.5c1.1-0.1,2.2,0,3.3,0.1
		C279.3,338.8,280.5,338.9,281.5,339.2z"/>
	<path class="st4" d="M280.8,346.2c-1.1,0.1-2.2,0-3.3-0.1c-1.1,0-2.2-0.2-3.3-0.5c1.1-0.1,2.2,0,3.4,0.1
		C278.6,345.7,279.8,345.9,280.8,346.2z"/>
	<path class="st4" d="M311,313.4c0,0.1-3.9-0.2-8.6-0.6s-8.6-0.9-8.6-1s3.9,0.2,8.6,0.6S311,313.3,311,313.4z"/>
	<path class="st4" d="M333.6,330c0,0.1-7.3-0.5-16.2-1.3s-16.1-1.6-16.1-1.7s7.3,0.5,16.2,1.3S333.6,329.9,333.6,330z"/>
	<path class="st4" d="M371,333.5c0,0.1-7.2-0.5-16.2-1.3s-16.1-1.6-16.1-1.7s7.3,0.5,16.2,1.3S371,333.4,371,333.5z"/>
	<path class="st4" d="M356,339.1c0,0.1-10.7-0.8-23.8-2s-23.8-2.3-23.8-2.4s10.7,0.8,23.8,2S356,339,356,339.1z"/>
	<path class="st4" d="M355.3,346c0,0.1-10.7-0.8-23.8-2s-23.8-2.3-23.8-2.4s10.7,0.8,23.8,2S355.3,346,355.3,346z"/>
	<path class="st4" d="M373.2,354.7c0,0.1-10.7-0.8-23.8-2s-23.8-2.3-23.8-2.4s10.7,0.8,23.8,2S373.2,354.6,373.2,354.7z"/>
	<path class="st4" d="M431.4,360.1c0,0.1-10.7-0.8-23.8-2s-23.8-2.3-23.8-2.4s10.7,0.8,23.8,2S431.4,360,431.4,360.1z"/>
	<path class="st6" d="M412.5,344.3c0,0.1-10.7-0.8-23.8-2s-23.8-2.3-23.7-2.4s10.7,0.8,23.8,2S412.5,344.2,412.5,344.3z"/>
	<path class="st4" d="M438.1,353.7c0,0.1-16.6-1.4-37-3.2s-36.9-3.5-36.9-3.6s16.6,1.3,37,3.2S438.1,353.6,438.1,353.7z"/>
	<path class="st6" d="M310.3,320.8c0,0.1-3.9-0.2-8.6-0.6s-8.6-0.9-8.6-1s3.9,0.2,8.6,0.6S310.3,320.7,310.3,320.8z"/>
	<path class="st6" d="M316,349.4c0,0.1-3.9-0.2-8.6-0.6s-8.6-0.9-8.6-1s3.9,0.2,8.6,0.6S316,349.3,316,349.4z"/>
	<path class="st6" d="M454.4,362.2c0,0.1-3.9-0.2-8.6-0.6s-8.6-0.9-8.6-1s3.9,0.2,8.6,0.6S454.4,362.1,454.4,362.2z"/>
	<line class="st10" x1="291.6" y1="300.3" x2="285.3" y2="355.8"/>
	<path class="st5" d="M285.3,355.8c-0.1,0,1.2-12.4,2.9-27.8s3.3-27.7,3.5-27.7s-1.2,12.4-2.9,27.8S285.4,355.8,285.3,355.8z"/>
	<path class="st11" d="M416.6,332.2c0,0-4.4-6-5.4-8.1s-6.3-7.3-6.3-7.3s-1,0.4-0.9,2.1c0.7,1.6,1.5,3.2,2.4,4.8
		c0,0,0.5,2.6-0.6,2.7s-15-2-15-2c-3-0.5-3,1.3-3,1.3s-2-0.4-2.4,1c-0.2,0.9,1.5,2.1,1.5,2.1s-2.1-0.8-2.9,0.6s3,3,3,3
		c0,2.2,7.3,5.4,9.3,6.3S416,344,416,344l4.4-9.8L416.6,332.2z"/>
	<path class="st12" d="M402.1,329.6c-0.7,0-1.5,0-2.2-0.2c-1.7-0.2-3.5-0.6-5.2-1.1c-1.7-0.5-3.4-1.1-5-1.8c-0.7-0.3-1.4-0.6-2-1
		c0.7,0.2,1.4,0.4,2.1,0.7c1.3,0.5,3,1.1,5,1.7s3.8,1,5.1,1.2C400.7,329.3,401.4,329.4,402.1,329.6z"/>
	<path class="st12" d="M400.7,333.2c-0.7-0.1-1.4-0.2-2-0.4c-1.3-0.3-3-0.8-4.9-1.4c-1.6-0.5-3.2-1.1-4.8-1.8
		c-0.7-0.2-1.3-0.6-1.9-1c0.7,0.2,1.4,0.4,2,0.7c1.2,0.5,2.9,1,4.8,1.6l4.8,1.5C399.4,332.6,400.1,332.9,400.7,333.2z"/>
	<path class="st12" d="M398.8,336.6c-0.6,0-1.2-0.1-1.9-0.2c-1.5-0.3-2.9-0.7-4.3-1.3c-1.4-0.5-2.8-1.2-4.1-1.9
		c-0.6-0.3-1.1-0.6-1.6-1c0.1-0.1,2.5,1.3,5.8,2.5c1.4,0.5,2.8,1,4.2,1.4C397.6,336.2,398.2,336.4,398.8,336.6z"/>
	<path class="st6" d="M434.8,290.6c0,1-4.3,33.1-4.3,39.7S443,344,443,344l13.7,29.2h48.9l-18.9-31.6l-5.4-25.1
		c-2.9-9.5-2.6-14.5-9.7-21.4l-13.7-9.2L434.8,290.6z"/>
	<path class="st4" d="M443.8,345.6c-0.4-0.7-0.8-1.3-1.3-1.8c-0.3-0.1-0.8-0.4-1.3-0.7c-1.6-0.9-3.1-1.9-4.5-3
		c-2.2-1.6-4-3.7-5.4-6.1c-1.3-2.9-1.2-6.4-0.8-9.9s1.2-6.7,1.6-9.7s0.8-5.7,1-8s0.2-4.1,0.2-5.4c0-0.7,0-1.3,0-2
		c0,0.2,0.1,0.3,0.1,0.5c0,0.3,0.1,0.8,0.1,1.5c0.1,1.8,0.1,3.6,0,5.5c-0.1,2.3-0.4,5-0.8,8s-1.1,6.3-1.6,9.7s-0.6,6.9,0.7,9.6
		c1.3,2.3,3,4.4,5.1,6c1.4,1.1,2.9,2.2,4.4,3.1C442.3,343.6,443.2,344.5,443.8,345.6z"/>
	<path class="st6" d="M449.3,311.4l7.5,31.6l-38-10.7l-6.5,11.4l49.4,22.5c6.1,2.8,13.3,0.8,17.1-4.7l0,0c2.3-3.3,3.1-7.5,2.1-11.4
		l-11.1-43.2c-1.5-5.7-7.2-9.1-12.9-7.6c-0.2,0.1-0.5,0.1-0.7,0.2l0,0C451.4,301.2,448.4,306.2,449.3,311.4z"/>
	<path class="st4" d="M470.1,309.4c0.1,0.2,0.2,0.4,0.2,0.5c0.1,0.4,0.3,0.9,0.4,1.6c0.4,1.4,0.9,3.4,1.5,5.8c1.3,5,3,11.8,4.9,19.3
		c0.9,3.8,1.8,7.4,2.6,10.6c0.8,2.9,1,5.9,0.7,8.9c-0.2,2-1,4-2.1,5.6c-0.4,0.6-0.9,1.2-1.5,1.6c0.5-0.5,0.9-1.1,1.4-1.7
		c1.1-1.7,1.7-3.6,1.9-5.6c0.2-3,0-5.9-0.8-8.8c-0.8-3.3-1.7-6.8-2.6-10.6c-1.8-7.5-3.5-14.3-4.7-19.3c-0.6-2.4-1-4.4-1.4-5.9
		c-0.1-0.6-0.3-1.2-0.4-1.6C470.1,309.8,470.1,309.6,470.1,309.4z"/>
	<g class="st3">
		<path d="M471.9,367.1c0,0,5.3-1.9,7.4-7s1.7-7,0.6-12s-3.9-16-3.9-16s10,22.5,9.1,27.9s-8.1,8.9-8.1,8.9L471.9,367.1z"/>
	</g>
	<path class="st4" d="M458.1,299.1h-0.2h-0.7c-0.4,0-0.7,0.1-1,0.2c-0.5,0.2-0.9,0.4-1.3,0.6c-1.9,1.2-3.8,4-5,7.8
		c-0.3,1-0.5,2-0.5,3c0.1,1.1,0.2,2.2,0.4,3.3c0.4,2.3,1,4.8,1.6,7.4c1.2,5.2,2.7,10.8,4.4,16.7c0.5,1.6,0.9,3.2,1.3,4.7l0.1,0.4
		l-0.5-0.1l-27-7.7l-8-2.3l-2.1-0.6c-0.3-0.1-0.5-0.2-0.7-0.3c0.3,0,0.5,0.1,0.8,0.2l2.2,0.6l8.1,2.2l27,7.5l-0.3,0.3
		c-0.4-1.5-0.9-3.1-1.3-4.8c-1.6-5.9-3.1-11.6-4.3-16.7c-0.6-2.6-1.1-5-1.6-7.4c-0.2-1.1-0.4-2.3-0.4-3.4c0.1-1.1,0.3-2.1,0.6-3.1
		c1.2-3.9,3.2-6.7,5.2-7.8c0.4-0.3,0.9-0.5,1.4-0.6c0.4-0.1,0.7-0.1,1.1-0.2h0.7C458.1,299.1,458.1,299.1,458.1,299.1z"/>
	<path class="st11" d="M458.4,244.8l-17.2-8.4c-6.3-0.7-12.8,10.4-13.2,16.7c-0.3,6.9,0,13.8,1.1,20.6c1.6,10.5,8.7,10.8,8.7,10.8
		s0.4,10.8,0.5,17.9l22.1-14.2l1.3-39.7C461.7,246.6,460.3,245,458.4,244.8z"/>
	<path class="st4" d="M430.7,260.8c0,0.7,0.6,1.3,1.3,1.4c0.7,0.1,1.3-0.5,1.4-1.2c0,0,0,0,0,0c0-0.7-0.6-1.3-1.3-1.4
		C431.4,259.5,430.8,260,430.7,260.8C430.7,260.7,430.7,260.7,430.7,260.8z"/>
	<path class="st4" d="M429.9,257.9c0.1,0.1,1.2,0,2.6,0.3s2.4,1,2.5,0.9s0-0.2-0.5-0.5c-0.6-0.4-1.3-0.7-2-0.8
		c-0.7-0.2-1.4-0.2-2.1-0.1C430,257.7,429.8,257.8,429.9,257.9z"/>
	<path class="st4" d="M444.1,261.2c0,0.7,0.6,1.3,1.3,1.4c0.7,0.1,1.3-0.5,1.4-1.2c0,0,0,0,0,0c0-0.7-0.6-1.3-1.3-1.4
		C444.8,259.9,444.2,260.4,444.1,261.2C444.1,261.2,444.1,261.2,444.1,261.2z"/>
	<path class="st4" d="M444.1,259c0.2,0,1.1-0.7,2.6-1.1s2.8-0.3,2.9-0.4s-0.2-0.2-0.7-0.3c-0.8-0.1-1.6,0-2.4,0.2
		c-0.7,0.2-1.5,0.5-2.1,1C444.1,258.8,444,259,444.1,259z"/>
	<path class="st4" d="M438.8,268.5c-0.8-0.2-1.6-0.4-2.4-0.4c-0.4,0-0.7-0.1-0.8-0.4c0-0.4,0-0.8,0.2-1.1c0.4-0.9,0.7-1.8,1.1-2.8
		c1.5-4,2.6-7.3,2.5-7.3s-1.5,3.1-3,7.1l-1,2.8c-0.2,0.4-0.3,1-0.2,1.5c0.1,0.3,0.3,0.5,0.6,0.5c0.2,0.1,0.4,0.1,0.6,0.1
		C437.2,268.6,438,268.6,438.8,268.5z"/>
	<path class="st12" d="M437.8,284.6c4.9,0.1,9.8-1.2,14-3.7c0,0-3.5,7.4-14,6.4V284.6z"/>
	<path class="st12" d="M439,272c0.6-1,1.6-1.7,2.8-1.8c0.7-0.1,1.3,0.3,1.6,0.9c0.3,0.8,0.2,1.7-0.2,2.4c-0.5,0.8-1.3,1.2-2.2,1.1
		c-0.7-0.2-1.3-0.6-1.8-1.2c-0.2-0.1-0.3-0.3-0.4-0.5C438.7,272.6,438.8,272.3,439,272"/>
	<path class="st4" d="M443,269.5c-0.2,0-0.2,1.5-1.6,2.7s-3,0.9-3,1.1s0.4,0.3,1.1,0.3c0.9,0,1.8-0.3,2.5-0.9
		c0.7-0.6,1.1-1.4,1.2-2.2C443.3,269.9,443.1,269.5,443,269.5z"/>
	<path class="st4" d="M442.9,252.7c0.2,0.4,1.6,0.1,3.3,0.1s3.1,0.4,3.3,0c0.1-0.2-0.2-0.5-0.8-0.8c-0.8-0.4-1.6-0.6-2.5-0.6
		c-0.9,0-1.7,0.2-2.5,0.6C443.1,252.2,442.8,252.5,442.9,252.7z"/>
	<path class="st4" d="M429.4,254.7c0.3,0.3,1.5,0,3,0s2.7,0.2,3-0.1c0.1-0.2-0.1-0.5-0.6-0.8c-0.8-0.4-1.6-0.6-2.5-0.5
		c-0.9,0-1.7,0.2-2.4,0.7C429.5,254.2,429.3,254.5,429.4,254.7z"/>
	<path class="st4" d="M476.7,292.1c-2.3-3.7-4.1-12.9-4.9-17.5s-3.3-19.6-7.2-27.4s-8.6-11-13.2-12.3c-2.5-0.7-5.1-0.5-7.4,0.5
		c-5.4-0.3-8.1,1.1-11.1,3.9s-5.4,8.3-5.7,12.5c-0.1,3.9,0.1,7.8,0.6,11.6c0,0,0.8-9.3,1.9-12.6c1.2-4,4.9-6.6,9-6.5l0,0
		c0,0,11.1,2.5,14.8,8.8c4.3,7.2,5.3,10.9,5.3,10.9l1.4,4c0,0-1.3,7.7-1.8,11.5s-0.4,7.5,2.7,9.1l7,4.2c0,0,10.4,8.4,11.9,17.2
		C479.7,310,481.3,299.6,476.7,292.1z"/>
	<path class="st11" d="M458.4,264.6c0.1-1.8,1.5-3.1,3.3-3.1c0.5,0,0.9,0.1,1.4,0.4c1.1,0.6,1.9,1.9,1.8,4.4
		c-0.3,6.6-6.8,4.9-6.8,4.8S458.3,267.3,458.4,264.6z"/>
	<path class="st12" d="M460.2,268.6c0,0,0.1,0.1,0.3,0.2c0.3,0.1,0.6,0.1,0.9,0c0.9-0.5,1.4-1.5,1.4-2.5c0-0.6,0-1.1-0.3-1.6
		c-0.1-0.4-0.4-0.8-0.8-0.9c-0.3-0.1-0.6,0-0.7,0.3c-0.1,0.2-0.1,0.3-0.1,0.3s-0.1-0.1-0.1-0.4c0-0.2,0.1-0.3,0.3-0.4
		c0.2-0.1,0.4-0.2,0.6-0.1c0.5,0.1,1,0.5,1.2,1.1c0.2,0.6,0.4,1.2,0.3,1.8c0,1.2-0.7,2.3-1.8,2.8c-0.3,0.1-0.7,0-1-0.2
		C460.2,268.8,460.2,268.7,460.2,268.6z"/>
	<path class="st5" d="M448.7,234.5c0,0-0.9,0-2.3,0.2c-0.8,0.1-1.6,0.3-2.4,0.7c-0.9,0.5-1.7,1.1-2.4,1.9c-1.2,1.4-2.2,3.1-2.6,4.9
		c-0.4,1.4-0.4,2.3-0.5,2.3c0-0.2,0-0.4,0-0.6c0-0.6,0.1-1.1,0.3-1.7c0.5-1.9,1.4-3.6,2.6-5c1.3-1.5,3-2.4,4.9-2.6
		c0.6-0.1,1.1-0.1,1.7-0.1C448.2,234.4,448.5,234.4,448.7,234.5z"/>
	<path class="st4" d="M457.9,281.8c-1.1,4.8,2.5,12.3,5.9,15.8s7.5,6.5,9.7,10.9c2.5,5.1,2,11.6,5.6,16c0.8,1.2,2.1,1.9,3.5,2.1
		c1.4,0,2.9-1.2,2.6-2.6c3.1-0.1,5-3.8,4.6-6.8s-2.6-5.6-4.6-7.9c1.9,0.8,4.2-0.8,4.7-2.8c0.4-2.1-0.2-4.2-1.6-5.8
		c-1.4-1.5-2.9-2.9-4.6-4.1c-7.9-6.7-11.6-17.4-13.1-28"/>
	<path class="st4" d="M463.4,230.7c-1.3-1.7-3.2-2.9-5.4-3.3c-2.2-0.3-4.4,0.5-5.8,2.1c-1.4,1.7-3.7,4.2-2.4,5.9c2,2,4.2,4,6.9,5
		s6.1,0.4,7.7-2S465.1,232.8,463.4,230.7z"/>
	<path class="st5" d="M461.6,242.4c-0.1,0-0.5-0.7-1.5-1.8c-1.2-1.4-2.6-2.5-4.2-3.4c-3.7-2.2-7.3-2.4-7.3-2.6
		c0.8-0.1,1.5,0,2.3,0.2c1.8,0.4,3.6,1.1,5.2,2c1.6,0.9,3.1,2.2,4.2,3.7C461,241,461.4,241.7,461.6,242.4z"/>
	<path class="st5" d="M462.8,229.9c0.3,0.5,0.3,1.1,0.2,1.6c-0.2,1.4-0.8,2.6-1.8,3.6c-1,0.9-2.3,1.5-3.6,1.8
		c-0.5,0.2-1.1,0.2-1.6,0.1c0.5-0.2,1-0.4,1.6-0.5c1.2-0.3,2.4-1,3.3-1.8c0.9-0.9,1.6-2,1.8-3.2
		C462.9,230.6,462.7,229.9,462.8,229.9z"/>
	<path class="st5" d="M462.5,233.3c-0.5-0.3-1-0.6-1.5-1c-1.2-0.7-2.5-1.3-3.9-1.6c-1.4-0.3-2.8-0.4-4.2-0.2
		c-0.6,0.1-1.2,0.2-1.7,0.3c0.5-0.3,1.1-0.5,1.7-0.6c2.9-0.6,5.9,0.1,8.3,1.8C461.8,232.3,462.2,232.8,462.5,233.3z"/>
	<path class="st5" d="M464.7,276.6c1.1-1.7,2-3.5,2.7-5.4c0.7-2.1,0.9-4.3,0.5-6.5c-0.3-1.3-0.8-2.4-1.5-3.5c-0.8-1.1-1.8-2.1-2.9-3
		c-2.2-1.6-4.4-3.1-6.8-4.5c-2.1-1.3-4.1-2.5-5.6-3.6c-1.2-0.9-2.4-1.9-3.4-3c-0.3-0.3-0.6-0.6-0.8-0.9c-0.1-0.1-0.2-0.2-0.3-0.4
		c0.4,0.4,0.8,0.7,1.2,1.1c1.1,1,2.2,1.9,3.5,2.8c1.5,1.1,3.5,2.3,5.6,3.5c2.4,1.3,4.7,2.8,6.9,4.5c1.1,0.9,2.1,1.9,3,3.1
		c0.8,1.1,1.3,2.4,1.5,3.7c0.4,2.2,0.2,4.5-0.6,6.7c-0.5,1.4-1.2,2.8-2,4c-0.2,0.3-0.5,0.7-0.7,1
		C464.8,276.5,464.7,276.6,464.7,276.6z"/>
	<path class="st6" d="M500.8,441.7l-18.9-8.3l-5,16.4l14.7,5.2l-0.1,14.1c-7,2-8,5.5-8,5.5l14.7-0.3l12.8-26L500.8,441.7z"/>
	<g class="st13">
		<polygon class="st7" points="510.9,448.3 498.1,474.3 483.4,474.6 485,472.4 497,471.5 508.7,446.9 		"/>
	</g>
	<path class="st4" d="M491.4,462.6c0.1,0.1,1-0.4,2.1-0.4s2,0.5,2.1,0.3s-0.7-1-2.1-1S491.2,462.5,491.4,462.6z"/>
	<path class="st4" d="M491.5,459.1c0.1,0.1,0.8-0.8,2-1s2.1,0.3,2.2,0.1s-0.1-0.3-0.5-0.5c-1.2-0.6-2.5-0.3-3.3,0.8
		C491.5,458.8,491.5,459.1,491.5,459.1z"/>
	<path class="st4" d="M491.3,454.6c0.2,0.1,0.6-0.8,1.7-1.2s1.9-0.1,2-0.2s-0.2-0.3-0.6-0.4c-0.5-0.2-1.1-0.2-1.7,0
		c-0.5,0.2-1,0.6-1.3,1.1C491.3,454.3,491.3,454.6,491.3,454.6z"/>
	<path class="st4" d="M490.3,454.6c0.2,0,0.1-1,0.5-2s1.1-1.6,1.1-1.7s-1.1,0.2-1.7,1.5S490.1,454.7,490.3,454.6z"/>
	<path class="st4" d="M488.5,453c0.2-0.6,0.3-1.3,0.3-2c0.1-0.7,0.1-1.4,0.2-2.1c0.1-0.5,0.1-0.9,0-1.4c-0.1-0.3-0.3-0.6-0.5-0.7
		c-0.3-0.2-0.7-0.2-1,0c-0.4,0.3-0.7,0.8-0.8,1.3c-0.1,0.4-0.2,0.9-0.3,1.3c0,0.8,0.1,1.5,0.4,2.2c0.5,1.2,1.3,1.6,1.3,1.6
		c-0.3-0.6-0.6-1.1-0.9-1.7c-0.2-0.6-0.3-1.3-0.2-2c0-0.4,0.1-0.8,0.3-1.1c0.1-0.4,0.3-0.7,0.6-1c0.1-0.1,0.2-0.1,0.3,0
		c0.1,0.1,0.2,0.2,0.2,0.3c0,0.4,0,0.8,0,1.2l-0.1,2.2C488.3,451.6,488.4,452.3,488.5,453z"/>
	<path class="st4" d="M488.3,453.6c0.1,0-0.4-0.7-1.5-1c-1.6-0.5-3.3,0.1-4.2,1.5c-0.1,0.2,0,0.4,0.1,0.6c0.1,0.1,0.2,0.3,0.4,0.3
		c0.2,0.1,0.4,0.1,0.7,0.1c0.4,0,0.8,0,1.2,0c0.7-0.1,1.3-0.2,1.9-0.5C487.9,454.1,488.4,453.6,488.3,453.6c0-0.1-0.5,0.2-1.6,0.5
		c-0.6,0.2-1.2,0.3-1.8,0.3c-0.4,0-0.7,0-1.1,0c-0.2,0-0.3,0-0.5-0.1c-0.1-0.1-0.1,0-0.1-0.1c0.1-0.1,0.2-0.2,0.3-0.3
		c0.1-0.1,0.3-0.2,0.4-0.4c0.3-0.2,0.6-0.3,1-0.5c0.6-0.2,1.2-0.2,1.8-0.1C487.2,453.2,487.8,453.4,488.3,453.6z"/>
	<g class="st13">
		<path class="st7" d="M499.1,448.1c0,1,0.8,1.7,1.8,1.7c1,0,1.7-0.8,1.7-1.8c0-1-0.8-1.7-1.8-1.7c0,0,0,0,0,0
			C499.9,446.4,499.1,447.2,499.1,448.1z"/>
	</g>
	<path class="st6" d="M401.6,443.9l0.2,19.2c0,0-19.5,6.7-19.8,10.2l37.3,1l0.9-30L401.6,443.9z"/>
	<g class="st13">
		<path class="st7" d="M413.4,461.8c0.7,0.3,1.2,1,1,1.8c-0.2,0.7-1,1.2-1.8,1c-0.8-0.3-1.2-1.1-1-1.9c0.3-0.8,1.2-1.1,1.9-0.9"/>
	</g>
	<g class="st13">
		<path class="st7" d="M419.3,474.3v-3l-35.8,0.2c0,0-1.7,0.7-1.5,1.9L419.3,474.3z"/>
	</g>
	<path class="st4" d="M401.2,463c0,0.2,0.9,0.3,1.8,0.9s1.3,1.4,1.5,1.3s-0.1-1.1-1.1-1.8S401.2,462.8,401.2,463z"/>
	<path class="st4" d="M397.3,464.5c0,0.2,0.7,0.5,1.3,1.3s0.8,1.6,0.9,1.6s0.3-1-0.4-2S397.3,464.3,397.3,464.5z"/>
	<path class="st4" d="M394.9,469.1c0.2,0,0.4-0.9,0-1.9s-1.3-1.4-1.4-1.3s0.4,0.7,0.8,1.5S394.7,469.1,394.9,469.1z"/>
	<path class="st4" d="M401.6,458.6c0.1,0.2,0.9-0.1,2,0s1.8,0.4,1.9,0.3s-0.7-0.8-1.9-0.9S401.6,458.4,401.6,458.6z"/>
	<g class="st3">
		<polygon points="401.6,447.7 401.7,451.2 420,451.5 420.1,448.4 		"/>
	</g>
	<path class="st4" d="M401.7,454.7c0.6,0.2,1.3,0.2,1.9,0c0.7-0.1,1.4-0.3,2-0.5c0.4-0.2,0.7-0.3,1.1-0.5c0.2-0.1,0.4-0.3,0.6-0.4
		c0.3-0.3,0.3-0.7,0.1-1c-0.2-0.3-0.5-0.4-0.8-0.4c-0.2,0-0.5,0-0.7,0.1c-0.4,0.1-0.8,0.2-1.2,0.4c-0.6,0.3-1.2,0.6-1.8,1.1
		C402,454,401.7,454.7,401.7,454.7c0.1,0.1,0.6-0.4,1.5-1.1c0.5-0.4,1.1-0.7,1.7-0.9c0.4-0.1,0.7-0.2,1.1-0.3
		c0.4-0.1,0.7-0.1,0.8,0.1s0,0.1,0,0.2c-0.1,0.1-0.3,0.2-0.4,0.3c-0.3,0.2-0.7,0.4-1,0.5c-0.6,0.3-1.2,0.5-1.8,0.6
		C402.9,454.3,402.3,454.5,401.7,454.7z"/>
	<path class="st4" d="M401.9,455c0.4-0.5,0.5-1.2,0.5-1.8c0.1-0.7,0-1.4-0.2-2c-0.1-0.4-0.3-0.8-0.4-1.1c-0.2-0.5-0.6-0.9-1.2-1
		c-0.3,0-0.7,0.2-0.8,0.5c-0.1,0.2-0.2,0.4-0.2,0.7c-0.1,0.4-0.1,0.8,0,1.3c0.1,0.7,0.3,1.4,0.8,2c0.7,1,1.5,1.2,1.5,1.2
		s-0.6-0.5-1.1-1.4c-0.3-0.5-0.5-1.1-0.5-1.8c0-0.4,0-0.7,0.1-1.1c0.1-0.4,0.2-0.7,0.4-0.7s0.5,0.3,0.6,0.6c0.2,0.3,0.3,0.7,0.4,1
		c0.2,0.6,0.3,1.2,0.3,1.9C402,454.2,401.8,454.9,401.9,455z"/>
	<polygon class="st4" points="488.3,434.1 445.4,418.2 490.5,411.8 492.8,389.8 408.4,397.2 396.4,414.4 399.6,435.9 481.8,456.8 	
		"/>
	<path class="st4" d="M397.2,449.5l-4.1-78.6c0.2-7.7,4.4-14.6,11-18.5l0,0c5.5-3.2,12.1-3.8,18.1-1.8l54.8,18.3l26.8,4.3
		c0,0,8.4,16.1,5.4,25.9c-3,9.6-13.5,16-22.7,13.3c-11.5-3.4-64.3-26.1-64.3-26.1v64L397.2,449.5z"/>
	<path class="st5" d="M485.6,412.5c-0.1,0-0.2,0-0.3-0.1l-0.9-0.4l-3.6-1.4l-13.2-5.4l-43.4-17.9l-2.2-0.9l0.4-0.2
		c0,17.8,0,33.8-0.1,45.4c0,5.8-0.1,10.4-0.1,13.6c0,1.6,0,2.8,0,3.7c0,0.4,0,0.7,0,1c0,0.1,0,0.2,0,0.3c0-0.1,0-0.2,0-0.3
		c0-0.2,0-0.6,0-1c0-0.9,0-2.1,0-3.7c0-3.3,0-7.9-0.1-13.6c0-11.6,0-27.6-0.1-45.4v-0.4l0.4,0.1l2.2,0.9l43.3,18l13.1,5.5l3.6,1.5
		l0.9,0.4L485.6,412.5z"/>
	<path class="st5" d="M435,412.6c4,0.7,7.6,2.7,10.3,5.7c-0.1,0.1-2.1-1.7-4.9-3.3S435,412.7,435,412.6z"/>
	<path class="st5" d="M417.3,375.5c1.2,1.7,2.1,3.4,2.9,5.3c0.9,1.8,1.6,3.7,2,5.7c-0.1,0-1.1-2.5-2.5-5.5S417.2,375.6,417.3,375.5z
		"/>
</g>
<g id="freepik--character-1--inject-5">
	<polygon class="st4" points="216.4,168.9 401.9,144.6 394.8,85.2 209.4,109.7 	"/>
	<path class="st0" d="M226.8,121.4c-2,0.5-4,0.8-6.1,0.8c1-0.3,2-0.5,3-0.6C224.7,121.4,225.8,121.3,226.8,121.4z"/>
	<path class="st0" d="M226.2,115.3c-1,0.3-2,0.5-3,0.6c-1,0.2-2,0.3-3.1,0.2c1-0.3,2-0.5,3-0.6C224.2,115.3,225.2,115.2,226.2,115.3
		z"/>
	<path class="st0" d="M227.6,128c-1,0.3-2,0.5-3,0.6c-1,0.2-2,0.3-3.1,0.2c1-0.3,2-0.5,3-0.6C225.6,128,226.6,128,227.6,128z"/>
	<path class="st0" d="M228.5,134.5c-1,0.3-2,0.5-3,0.6c-1,0.2-2,0.3-3.1,0.2C224.4,134.8,226.5,134.5,228.5,134.5L228.5,134.5z"/>
	<path class="st0" d="M229.4,141.1c-1,0.3-2,0.5-3,0.6c-1,0.2-2,0.3-3.1,0.2C225.3,141.4,227.3,141.1,229.4,141.1L229.4,141.1z"/>
	<path class="st0" d="M230.2,147.7c-1,0.3-2,0.5-3,0.6c-1,0.2-2,0.3-3.1,0.2c1-0.3,2-0.5,3-0.6C228.2,147.7,229.2,147.6,230.2,147.7
		z"/>
	<path class="st0" d="M231.1,154.3c-1,0.3-2,0.5-3,0.6c-1,0.2-2,0.3-3.1,0.2c1-0.3,2-0.5,3-0.6C229,154.3,230,154.2,231.1,154.3z"/>
	<path class="st6" d="M251.1,117.9c0,0.1-3.5,0.6-7.9,1.2s-7.9,0.9-7.9,0.8s3.5-0.6,7.9-1.2S251.1,117.8,251.1,117.9z"/>
	<path class="st6" d="M274.9,128.6c0,0.1-6.6,1-14.8,2.1s-14.8,1.8-14.8,1.7s6.6-1,14.8-2.1C268.3,129.3,274.9,128.5,274.9,128.6z"
		/>
	<path class="st0" d="M309.1,124.3c0,0.1-6.6,1-14.8,2.1s-14.8,1.8-14.8,1.7s6.6-1,14.8-2.1S309,124.2,309.1,124.3z"/>
	<path class="st0" d="M296.9,132.5c0,0.1-9.7,1.4-21.8,3s-21.8,2.7-21.8,2.6s9.7-1.4,21.8-3S296.9,132.4,296.9,132.5z"/>
	<path class="st0" d="M297.7,139.1c0,0.1-9.7,1.4-21.8,2.9s-21.8,2.7-21.8,2.6s9.7-1.4,21.7-3S297.7,139,297.7,139.1z"/>
	<path class="st0" d="M315.6,143.5c0,0.1-9.7,1.4-21.8,3s-21.8,2.7-21.8,2.6s9.7-1.4,21.8-2.9S315.6,143.4,315.6,143.5z"/>
	<path class="st0" d="M368.8,136.7c0,0.1-9.7,1.4-21.8,3s-21.8,2.7-21.8,2.6s9.7-1.4,21.8-2.9S368.8,136.6,368.8,136.7z"/>
	<path class="st1" d="M348.6,125.9c0,0.1-9.7,1.4-21.8,3s-21.8,2.7-21.8,2.6s9.7-1.4,21.8-3S348.6,125.8,348.6,125.9z"/>
	<path class="st5" d="M373.5,129.4c0,0.1-15.1,2.1-33.8,4.5s-33.8,4.2-33.8,4.1s15.1-2.1,33.8-4.5S373.5,129.3,373.5,129.4z"/>
	<path class="st1" d="M252,124.9c0,0.1-3.5,0.6-7.9,1.2s-7.9,0.9-7.9,0.8s3.5-0.6,7.9-1.2S252,124.8,252,124.9z"/>
	<path class="st1" d="M263.3,150.1c0,0.1-3.5,0.6-7.9,1.2s-7.9,0.9-7.9,0.8s3.5-0.6,7.9-1.2S263.3,150.1,263.3,150.1z"/>
	<path class="st6" d="M389.9,134c0,0.1-3.5,0.6-7.9,1.2s-7.9,0.9-7.9,0.8s3.5-0.6,7.9-1.2S389.9,133.9,389.9,134z"/>
	<path class="st5" d="M237.1,162.2c-0.1,0-1.6-11.7-3.3-26.2s-2.9-26.3-2.8-26.3s1.6,11.7,3.3,26.2S237.2,162.2,237.1,162.2z"/>
	<path class="st14" d="M222.2,168.1l-5.9,0.8l-0.7-7.9l-1-7l-1.3-11.3l-4.2,6.2c-0.5,0.8-0.8,1.6-0.9,2.6l-0.6,21.5l-0.1,9.2
		l10.4,6.5l-0.2-10.9l2.4-2.6C222.5,172.5,222.2,168.1,222.2,168.1z"/>
	<path class="st14" d="M209.4,161.1c1.4-2.4,2.9-4.6,4.7-6.7c0.5-0.7,1.2-1.3,2-1.8c0.8-0.4,1.8-0.4,2.5,0.2
		c0.7,0.8,0.9,1.9,0.4,2.8c-0.5,0.9-1.1,1.7-1.8,2.4c-0.7,0.7-1.2,1.6-1.4,2.6c0,1,0.2,1.9,0.5,2.8c0.7,3.1-0.2,6.4-2.4,8.6"/>
	<path class="st15" d="M213.9,172.1c0,0,0.3-0.4,0.8-1.1c0.7-1,1.2-2.2,1.4-3.4c0.2-0.8,0.2-1.7,0.2-2.5c-0.1-1-0.3-1.9-0.6-2.9
		c-0.2-0.5-0.2-1.1-0.2-1.7c0.1-0.6,0.3-1.2,0.6-1.6c0.6-1,1.6-1.8,2.2-2.7c0.3-0.5,0.5-1,0.6-1.5c0.1-0.5-0.1-1-0.4-1.5
		c-0.7-0.7-1.8-0.8-2.7-0.3c-0.8,0.5-1.5,1.2-2.1,2c-0.6,0.7-1.1,1.4-1.6,2c-0.9,1.3-1.6,2.3-2.1,3.1c-0.2,0.4-0.5,0.8-0.8,1.1
		c0.2-0.4,0.4-0.9,0.6-1.2c0.6-1.1,1.3-2.1,2-3.2c0.5-0.6,1-1.3,1.6-2.1c0.6-0.8,1.3-1.5,2.2-2.1c0.5-0.3,1.1-0.4,1.7-0.4
		c0.6,0,1.2,0.3,1.6,0.8c0.7,1.1,0.6,2.6-0.2,3.6c-0.7,1-1.6,1.8-2.2,2.7c-0.3,0.4-0.5,0.9-0.6,1.4c0,0.5,0,1,0.1,1.5
		c0.3,1,0.5,2,0.6,3c0,0.9,0,1.8-0.3,2.6c-0.3,1.2-0.8,2.4-1.6,3.4c-0.2,0.3-0.4,0.5-0.7,0.8C214,172,213.9,172.1,213.9,172.1z"/>
	<path class="st6" d="M176.1,435.2l-3.9,21c0,0,20,11,19.7,15l-41-6.1l4.8-33L176.1,435.2z"/>
	<g class="st3">
		<path d="M176.1,435.2l-3.9,21c0,0,20,11,19.7,15l-41-6.1l4.8-33L176.1,435.2z"/>
	</g>
	<path class="st0" d="M159.8,452.5c-0.9,0.1-1.5,0.9-1.4,1.7c0.1,0.9,0.8,1.5,1.7,1.5c0.9-0.1,1.6-0.9,1.5-1.9
		c-0.2-0.9-1-1.5-1.9-1.3"/>
	<path class="st4" d="M150.9,465l0.6-3.3l39.1,7.1c0,0,1.7,1.1,1.3,2.3L150.9,465z"/>
	<path class="st4" d="M172.9,456c0,0.2-1,0.1-2.1,0.6s-1.7,1.3-1.9,1.1s0.3-1.2,1.6-1.8S173,455.9,172.9,456z"/>
	<path class="st4" d="M177,458.5c0,0.2-0.9,0.4-1.7,1.2s-1.1,1.6-1.3,1.6s-0.2-1.2,0.9-2.1S177,458.3,177,458.5z"/>
	<path class="st4" d="M178.6,464c-0.2,0-0.3-1,0.4-2s1.7-1.3,1.7-1.1s-0.6,0.7-1.1,1.5S178.8,464,178.6,464z"/>
	<path class="st4" d="M173.3,451.2c-0.1,0.2-1-0.3-2.1-0.3s-2.1,0.1-2.1,0s0.9-0.8,2.2-0.6S173.4,451,173.3,451.2z"/>
	<path class="st6" d="M162.8,440.2l-0.4,21.4c0,0,21.6,7.5,21.9,11.5l-41.4,0.8l-0.8-33.3L162.8,440.2z"/>
	<path class="st0" d="M149.6,460c-0.8,0.3-1.3,1.1-1.1,2c0.2,0.8,1.1,1.3,1.9,1.1c0.9-0.3,1.4-1.2,1.2-2.1c-0.3-0.9-1.3-1.3-2.1-1"
		/>
	<path class="st4" d="M142.9,473.8l0.1-3.4l39.7,0.5c0,0,1.9,0.8,1.7,2.1L142.9,473.8z"/>
	<path class="st4" d="M163.1,461.3c0,0.2-1,0.3-2,1s-1.5,1.5-1.7,1.5s0.1-1.3,1.3-2S163.1,461.1,163.1,461.3z"/>
	<path class="st4" d="M167.4,463c0.1,0.2-0.8,0.6-1.5,1.4s-0.9,1.8-1.1,1.8s-0.4-1.1,0.5-2.2S167.4,462.8,167.4,463z"/>
	<path class="st4" d="M170,468.2c-0.2,0-0.5-1,0-2.1s1.4-1.6,1.5-1.4s-0.5,0.8-0.9,1.7S170.2,468.1,170,468.2z"/>
	<path class="st4" d="M162.6,456.4c-0.1,0.2-1-0.1-2.2,0s-2,0.5-2.1,0.3s0.7-0.9,2.1-1S162.7,456.3,162.6,456.4z"/>
	<path class="st4" d="M133.6,274.4l0.6,21.1l6.2,65.6c0,0-2,31.9-3.3,50c-1.1,15.7,2.1,42.8,2.1,42.8l26.4-0.7l7.1-91l4.4-56.7
		l8.9-29.6L133.6,274.4z"/>
	<path class="st4" d="M198.7,279.2l1.7,85.8c0.1,4.4-0.6,8.7-2.1,12.8l-22.6,63.1l-1.1,4.2l-15.8-3.4l7.7-167.2L198.7,279.2z"/>
	<path class="st5" d="M176.6,294.4c0,0.1,0,0.3,0,0.4c0,0.3,0,0.7,0,1.2c0,1.1,0,2.6,0,4.6c0,4-0.1,9.9-0.3,17.1
		c-0.4,14.4-1.4,34.3-3.1,56.2s-3.7,41.7-5.2,56c-0.8,7.1-1.4,12.9-1.8,17l-0.5,4.6c-0.1,0.5-0.1,0.9-0.1,1.2c0,0.1,0,0.3-0.1,0.4
		c0-0.1,0-0.3,0-0.4c0-0.3,0-0.7,0.1-1.2l0.4-4.6c0.4-4,0.9-9.8,1.6-17c1.4-14.3,3.3-34.1,5-56.1s2.8-41.8,3.3-56.2
		c0.2-7.2,0.4-13,0.5-17.1c0-2,0.1-3.5,0.1-4.6c0-0.5,0-0.9,0-1.2C176.5,294.7,176.6,294.5,176.6,294.4z"/>
	<path class="st5" d="M153.6,279.9c0,0.3,0,0.7-0.1,1c-0.1,0.9-0.4,1.7-0.7,2.6c-2,5.7-6.9,9.8-12.8,10.9c-0.9,0.2-1.8,0.2-2.6,0.3
		c-0.3,0-0.7,0-1-0.1c0-0.1,1.4,0,3.6-0.5c5.7-1.2,10.4-5.2,12.6-10.7C153.3,281.2,153.5,279.8,153.6,279.9z"/>
	<path class="st5" d="M178,283.2c0,0.8-0.6,1.4-1.3,1.4c-0.8,0-1.4-0.6-1.4-1.3c0-0.8,0.6-1.4,1.3-1.4c0,0,0,0,0,0
		C177.4,281.9,178,282.5,178,283.2C178,283.2,178,283.2,178,283.2z"/>
	<path class="st5" d="M199.4,293.4c-0.7-0.5-1.4-1-1.9-1.7c-2.8-3.1-4.6-6.9-5.3-11c-0.2-0.8-0.2-1.7-0.1-2.5c0.1,0,0.2,1,0.5,2.5
		c0.4,2,1,3.9,1.9,5.7c0.9,1.8,2,3.5,3.3,5.1C198.7,292.6,199.4,293.3,199.4,293.4z"/>
	<path class="st6" d="M181.5,171c0,0,7.4,5.8,10.4,12.3c2.6,5.3,5.5,10.5,8.7,15.4l5.3-19.3l14.4,6.9c0,0-4.4,30.2-5.5,33.7
		c-1.5,4.9-5,9.3-10.5,8.8s-8.8-3-12.4-8.2l-4.9-8.8L181.5,171z"/>
	<path class="st6" d="M145.6,158.4c0,0-20.6,10.2-25,16.2c-5.2,7.3,9.3,30.7,10.4,36.5c0.5,2.8,4,23.8,2.4,40.3
		c-1.1,11-1.5,22-1.2,33.1l66.6-5.4c0-11.6-3-20.6-5-35.3l-5-48.1l-7.2-24.8l-10.3-4.4L145.6,158.4z"/>
	<path class="st4" d="M187.5,187.6c0.1,0.2,0.1,0.3,0.1,0.5c0.1,0.4,0.1,0.9,0.2,1.5c0.2,1.3,0.4,3.1,0.8,5.4
		c0.6,4.6,1.4,10.9,2.1,17.9s1.3,13.4,1.7,18c0.2,2.3,0.3,4.2,0.4,5.5c0,0.6,0.1,1.1,0.1,1.5c0,0.2,0,0.3,0,0.5
		c-0.1-0.2-0.1-0.3-0.1-0.5c0-0.4-0.1-0.9-0.2-1.5L192,231c-0.5-4.7-1.1-11-1.8-17.9s-1.4-13.3-2-17.9c-0.2-2.2-0.4-4.1-0.6-5.4
		c-0.1-0.6-0.1-1.1-0.1-1.5C187.4,188,187.4,187.8,187.5,187.6z"/>
	<path class="st7" d="M176.7,207.6c0,0,0.1-0.2,0.4-0.4l1.1-1.1c1-0.9,2.3-2.2,3.7-3.6l0,0v0.2c-1.5-1.4-2.8-2.6-3.8-3.5l-1.1-1.1
		c-0.3-0.3-0.4-0.4-0.4-0.4c0.2,0.1,0.3,0.2,0.4,0.4l1.2,1c1,0.9,2.3,2.1,3.8,3.5l0.1,0.1l-0.1,0.1l0,0c-1.5,1.4-2.8,2.6-3.8,3.5
		l-1.2,1.1C177,207.3,176.9,207.5,176.7,207.6z"/>
	<path class="st7" d="M165.3,197.6c-0.1,0.2-0.2,0.3-0.4,0.4l-1.1,1.1c-0.9,0.9-2.3,2.2-3.7,3.6l0,0v-0.2c1.5,1.4,2.8,2.6,3.7,3.5
		l1.1,1.1c0.1,0.1,0.3,0.3,0.4,0.4c-0.2-0.1-0.3-0.2-0.4-0.4l-1.2-1c-1-0.9-2.3-2.1-3.8-3.5l-0.1-0.1l0.1-0.1l0,0
		c1.5-1.4,2.8-2.6,3.8-3.5l1.2-1.1C165,197.8,165.2,197.7,165.3,197.6z"/>
	<path class="st7" d="M168.2,209.9c-0.1,0,1.1-3.4,2.7-7.5s2.8-7.4,2.9-7.4s-1.1,3.4-2.7,7.5S168.3,210,168.2,209.9z"/>
	<path class="st4" d="M137.3,192.6c-0.1,0,0-1.4-0.5-3.5c-1.1-5.7-5-10.5-10.4-12.7c-2-0.9-3.4-1.1-3.4-1.1c0.3,0,0.7,0,1,0.1
		c0.9,0.2,1.7,0.4,2.6,0.7c2.7,1.1,5.1,2.8,7,5.1c1.9,2.3,3.1,5,3.6,8c0.1,0.9,0.2,1.7,0.2,2.6C137.4,191.9,137.4,192.2,137.3,192.6
		z"/>
	<path class="st4" d="M182.1,248.5c-0.4,0-0.9-0.1-1.3-0.2c-1.2-0.2-2.3-0.5-3.5-0.9c-1.7-0.5-3.4-1.1-5-1.9c-2-0.9-3.9-2-5.7-3.1
		c-1.8-1.2-3.5-2.5-5.1-4c-1.3-1.2-2.6-2.5-3.7-3.8c-0.8-0.9-1.5-1.9-2.2-2.9c-0.3-0.3-0.5-0.7-0.7-1.1c0.1-0.1,1.1,1.5,3.1,3.7
		c1.2,1.3,2.4,2.5,3.8,3.7c1.6,1.4,3.3,2.7,5.1,3.9c1.8,1.2,3.7,2.2,5.6,3.1c1.6,0.8,3.2,1.4,4.9,2
		C180.3,248.1,182.1,248.4,182.1,248.5z"/>
	<g class="st3">
		<path d="M134.2,206.5c-4.3,25.5-2.1,52.5,4.5,77.6l1.7-0.1C141.8,258.1,139.2,231.9,134.2,206.5z"/>
	</g>
	<path class="st14" d="M136.6,289.1l0.5,5.8c0,0,4.5,2.3,6.1,4s6.3,10.3,6.3,10.3c-0.9,0.8-2.2,0.9-3.1,0.2c-1.2-1.5-2.3-3-3.3-4.6
		l0,0c-1.4-0.3-2.7,0.6-2.9,2c-0.1,0.3-0.1,0.7,0,1c0.6,2.6,1.3,5.6,1.3,6s2.6,2.9,4.6,4.7c0.7,0.6,0.7,1.7,0.1,2.4
		c-0.4,0.4-0.9,0.6-1.4,0.5c-0.1,0-0.3-0.1-0.4-0.2c0,0,0.2,2.8-3.6,0.6c0,0-3.4,0.8-5-1.1c0,0-4.1-0.6-5.6-1.8s-4.8-13.7-4.8-13.7
		l-1.9-13.4L136.6,289.1z"/>
	<path class="st15" d="M136.3,309.3c-0.1,0.8-0.1,1.5,0.1,2.3c0.1,1.9,0.7,3.7,1.6,5.3c1.1,1.5,2.5,2.7,4.2,3.4
		c0.6,0.4,1.4,0.7,2.1,0.8c-0.6-0.5-1.2-0.9-1.9-1.2c-1.5-0.8-2.9-2-3.9-3.4c-0.9-1.5-1.5-3.2-1.7-5
		C136.7,310.7,136.5,310,136.3,309.3z"/>
	<path class="st15" d="M133.4,310.8c-0.2,0.7-0.2,1.4-0.1,2.1c0.1,0.7,0.2,1.5,0.4,2.2c0.2,0.9,0.6,1.8,1.2,2.5
		c0.6,0.7,1.3,1.3,2.1,1.8l1.8,1.3c0.5,0.4,1.1,0.8,1.7,1.1c0.1-0.1-0.5-0.6-1.5-1.4c-0.5-0.4-1.1-0.9-1.7-1.4
		c-0.7-0.5-1.4-1.1-2-1.8c-0.5-0.7-0.9-1.5-1.1-2.3c-0.2-0.7-0.4-1.4-0.5-2.1C133.5,311.6,133.5,310.8,133.4,310.8z"/>
	<path class="st15" d="M130.3,312.8c-0.2,0.1,0.4,2.3,1.2,4.9c0.1,0.4,0.3,0.7,0.6,0.9c0.2,0.2,0.5,0.4,0.7,0.6
		c0.4,0.3,0.9,0.6,1.4,0.9c0.8,0.4,1.4,0.5,1.4,0.5s-0.5-0.3-1.2-0.8c-0.4-0.3-0.8-0.6-1.2-1c-0.2-0.2-0.5-0.4-0.7-0.6
		c-0.2-0.2-0.4-0.4-0.5-0.7c-0.4-1.3-0.9-2.5-1.2-3.4C130.7,313.7,130.5,313.3,130.3,312.8z"/>
	<path class="st6" d="M120.6,174.7c0,0-8,10-8.1,18.1s-1.7,60.7-1.7,60.7l11.2,43.8l17.9-4.5l-6.4-46.1l0.6-40.1L120.6,174.7z"/>
	<path class="st4" d="M122,297.3c0.1,0,0.2-0.1,0.3-0.1l0.9-0.3l3.6-1l13.1-3.4l-0.1,0.2c-1.3-9.2-3.1-21.5-5.1-34.9
		c-0.5-3.2-0.9-6.3-1.3-9.3l0,0c0.2-12.6,0.4-23.6,0.6-31.6c0.1-3.9,0.2-7.1,0.2-9.3c0-1.1,0.1-1.9,0.1-2.5c0-0.3,0-0.5,0-0.6
		s0-0.2,0-0.2c0,0.1,0,0.1,0,0.2c0,0.2,0,0.4,0,0.6c0,0.6,0,1.4,0,2.5c0,2.2,0,5.4-0.1,9.3c-0.1,8-0.2,19-0.4,31.6l0,0l1.3,9.3
		c1.9,13.4,3.6,25.7,5,34.9v0.2l-0.2,0l-13.1,3.2l-3.6,0.9l-0.9,0.2C122.2,297.3,122.1,297.3,122,297.3z"/>
	<g class="st3">
		<path d="M163.9,250.1c7,2.9,14.4,4.4,22,4.5c-1.1,1.7-3.3,2.2-5.4,2.3c-2,0.2-4.1,0-6-0.6C170.8,255.1,166.3,253.4,163.9,250.1"/>
	</g>
	<g class="st3">
		<path d="M200.5,198.8c-0.9,4.9-1,9.8-0.3,14.7c0,0.6,0.2,1.2,0.6,1.7c0.4,0.5,1.1,0.5,1.5,0.1c0,0,0,0,0.1,0c0.2-0.5,0.2-1,0-1.5
			C200.9,209,200.3,203.9,200.5,198.8"/>
	</g>
	<path class="st4" d="M188.3,118.5c-1-2.2-3.7-3.9-3.8-4.6c-0.5-1.9,1.1-3.9,0.5-5.7c-1.4-4.3-4.9-3.7-4.9-3.7
		c-1.6-1.9-3.8-4.5-7.2-5.4c-3.8-1-9.4-1.7-12.8,0.3s-5.9,3.3-6.9,7.1l23.9,42c2.7-1.3,4.4-4.1,5.4-6.9s1.5-5.9,2.6-8.7
		c0.8-2.1-0.1-5.4,1.8-6.7C189.2,124.7,189.2,120.6,188.3,118.5z"/>
	<path class="st14" d="M180.5,122.3c-0.6-9.6-8.5-17.1-18.1-17.3h-1c-10.3,0.4-15.7,9.4-15,19.7l-0.9,33.7l17.5,11.7
		c5.9,4.4,8.2,0.9,8.2-3.4l0,0v-9.6c0,0,9.9-1.4,10.2-11.3C181.6,141,181.1,131.2,180.5,122.3z"/>
	<path class="st4" d="M178.3,129.9c0,0.8-0.6,1.4-1.4,1.4c-0.7,0-1.4-0.5-1.4-1.3c0,0,0,0,0,0c0-0.8,0.6-1.4,1.4-1.4
		C177.6,128.6,178.3,129.1,178.3,129.9C178.3,129.9,178.3,129.9,178.3,129.9z"/>
	<path class="st4" d="M178.4,127.6c-0.2,0.2-1.2-0.6-2.8-0.7s-2.6,0.7-2.8,0.5s0.1-0.4,0.6-0.8c0.7-0.4,1.5-0.7,2.3-0.7
		c0.8,0,1.6,0.3,2.2,0.8C178.4,127.2,178.5,127.5,178.4,127.6z"/>
	<path class="st4" d="M163.8,130.5c0,0.8-0.6,1.4-1.4,1.4c-0.7,0-1.4-0.5-1.4-1.3c0,0,0,0,0,0c0-0.8,0.6-1.4,1.4-1.4
		C163.1,129.1,163.7,129.7,163.8,130.5C163.8,130.4,163.8,130.4,163.8,130.5z"/>
	<path class="st4" d="M163.7,127.8c-0.2,0.2-1.3-0.6-2.8-0.6s-2.6,0.8-2.8,0.6s0.1-0.4,0.6-0.8c0.7-0.5,1.4-0.7,2.2-0.7
		c0.8,0,1.6,0.2,2.2,0.7C163.7,127.4,163.8,127.7,163.7,127.8z"/>
	<path class="st4" d="M168.7,138.4c0.8-0.2,1.6-0.4,2.5-0.4c0.4,0,0.8-0.1,0.8-0.4c0-0.4,0-0.8-0.2-1.1c-0.4-0.9-0.7-1.9-1.1-3
		c-1.5-4.2-2.6-7.7-2.4-7.8s1.5,3.3,3.1,7.5c0.4,1,0.7,2,1.1,3c0.2,0.5,0.3,1,0.2,1.5c-0.1,0.3-0.4,0.5-0.6,0.6
		c-0.2,0.1-0.4,0.1-0.7,0.1C170.3,138.6,169.5,138.6,168.7,138.4z"/>
	<path class="st4" d="M163.8,122.5c-0.2,0.4-1.7,0-3.5,0s-3.3,0.3-3.5-0.1c-0.1-0.2,0.2-0.5,0.9-0.9c1.7-0.8,3.6-0.7,5.3,0.1
		C163.6,121.9,163.8,122.3,163.8,122.5z"/>
	<path class="st4" d="M178.6,122.5c-0.3,0.3-1.5,0-2.9-0.1s-2.6,0.2-2.9-0.2c-0.1-0.2,0.1-0.5,0.6-0.8c0.7-0.4,1.5-0.6,2.4-0.5
		c0.8,0,1.6,0.3,2.3,0.7C178.6,122,178.7,122.3,178.6,122.5z"/>
	<path class="st4" d="M153.9,105.7c0,4.1,3.3,7.5,7.4,7.5c0.5,0,0.9,0,1.4-0.1c1.7-0.3,3.5-1.2,4.9-0.3s1.6,3.2,2.9,4.4
		c1.9,1.7,5,0.1,7.4,0.8c1.9,0.6,3.1,2.4,4.3,3.9s3.1,3,5,2.4c-0.1-1.7-0.3-3.4-0.8-5c-0.5-1.7-1.5-3.1-2.9-4.1
		c-0.8-0.4-1.6-0.9-2.4-1.4c-1.6-1.3-1.9-3.5-2.9-5.2c-1.3-2.3-3.6-3.9-6.3-4.1c-2.1-0.2-4.4,0.4-6.5-0.1c-1.6-0.4-2.9-1.4-4.5-1.7
		c-3.1-0.6-5.9,1.6-8.1,3.8"/>
	<path class="st4" d="M163.7,110.1c-1.4-0.4-4.2-1.3-4.9-2.5c-1.5-2.6-4.3-4.2-7.3-4.2c-3.1,0.2-5.6,2.5-6.2,5.5
		c-3.6,0.1-6.9,2.2-8.6,5.5c-1.7,3.4-1.6,7.4,0.3,10.7c0.6,0.8,1,1.7,1.1,2.6c0,1.2-0.9,2.2-1.5,3.2c-1.7,2.8-1.6,6.5-0.3,9.5
		s2.3,4,4.2,4.6c3.7,1.2,4.2,6.4,5.7,7.8l1.8-21.4c0.2,0.1,0.4,0.2,0.6,0.2c3.7,0.8,4.2-6.3,3.3-8.4c1.4-1.1,2.6-2.4,3.7-3.9
		c1.2-2.3,1.8-4.9,1.7-7.4C158.6,112.1,164.3,110.2,163.7,110.1z"/>
	<path class="st14" d="M148.5,131.7c-0.2-0.1-6.8-2.1-6.7,4.6s6.9,5.3,6.9,5.1S148.5,131.7,148.5,131.7z"/>
	<path class="st15" d="M146.6,138.8c0,0-0.1,0.1-0.3,0.2c-0.3,0.1-0.6,0.1-0.9,0c-0.9-0.6-1.4-1.5-1.4-2.6c0-0.6,0.1-1.2,0.3-1.7
		c0.1-0.4,0.4-0.8,0.9-0.9c0.3-0.1,0.6,0.1,0.7,0.3c0.1,0.2,0.1,0.3,0.1,0.3s0.1-0.1,0.1-0.4c0-0.2-0.1-0.3-0.3-0.4
		c-0.2-0.1-0.4-0.2-0.6-0.2c-0.6,0.1-1,0.5-1.2,1.1c-0.3,0.6-0.4,1.2-0.4,1.9c-0.1,1.2,0.6,2.4,1.8,2.9c0.4,0.1,0.8,0,1.1-0.2
		C146.6,139,146.7,138.9,146.6,138.8z"/>
	<path class="st15" d="M171.2,157.1c0,0-9-1.4-14.3-5.4c0,0,2.8,8.2,14.2,8.5L171.2,157.1z"/>
	<path class="st4" d="M164.8,139.4c0.3,0,0.2,1.7,1.6,2.9s3.2,1.1,3.2,1.3s-0.4,0.3-1.1,0.3c-1,0-1.9-0.4-2.7-1
		c-0.7-0.6-1.2-1.5-1.3-2.4C164.4,139.8,164.6,139.4,164.8,139.4z"/>
</g>
<g id="freepik--Floor--inject-5">
	<path class="st4" d="M672.7,474.3c0,0.1-136.4,0.3-304.6,0.3s-304.7-0.1-304.7-0.3S199.7,474,368,474S672.7,474.1,672.7,474.3z"/>
</g>
</svg>