<?xml version="1.0" encoding="utf-8"?>
<!-- Generator: Adobe Illustrator 24.0.1, SVG Export Plug-In . SVG Version: 6.00 Build 0)  -->
<svg version="1.1" id="Layer_1" xmlns="http://www.w3.org/2000/svg" xmlns:xlink="http://www.w3.org/1999/xlink" x="0px" y="0px"
	 viewBox="0 0 750 500" style="enable-background:new 0 0 750 500;" xml:space="preserve">
<style type="text/css">
	.st0{fill:#F5F5F5;}
	.st1{fill:#E0E0E0;}
	.st2{fill:#EBEBEB;}
	.st3{fill:#FAFAFA;}
	.st4{fill:#FFFFFF;}
	.st5{fill:#FFBE9D;}
	.st6{fill:#EB996E;}
	.st7{fill:#77459B;}
	.st8{fill:#263238;}
	.st9{opacity:0.3;}
	.st10{fill:#455A64;}
	.st11{fill:#9F7362;}
	.st12{fill:#65463C;}
</style>
<g id="freepik--background-complete--inject-2">
	<rect x="355.5" y="104.7" class="st0" width="56.8" height="15"/>
	<path class="st1" d="M388.3,135.5c0-0.1,0-0.2,0-0.3c0-0.2,0-0.4,0-0.8c0-0.7,0-1.7,0-2.9c0-2.6-0.1-6.3-0.1-11l0.2,0.2l-56.8,0.1
		c0.1-0.1-0.3,0.3,0.3-0.3l0,0v15l-0.3-0.3l40.5,0.1l11.9,0.1h3.2h0.9C388.2,135.4,388.3,135.4,388.3,135.5l-0.2-0.1h-0.8h-3.2
		l-11.9,0.1l-40.7,0.1h-0.3V128c0-1.3,0-2.5,0-3.8v-3.8l0,0c0.6-0.6,0.2-0.2,0.3-0.3l56.8,0.1h0.2v0.2c0,4.7-0.1,8.5-0.1,11.1
		c0,1.3,0,2.2,0,2.9c0,0.3,0,0.6,0,0.7C388.4,135.3,388.4,135.4,388.3,135.5z"/>
	<rect x="62.1" y="47.5" class="st1" width="118.8" height="196.7"/>
	<rect x="58.1" y="47.5" class="st2" width="118.8" height="196.7"/>
	<rect x="63.2" y="51.5" class="st3" width="108.7" height="188.7"/>
	<circle class="st1" cx="117.4" cy="131.4" r="39.8"/>
	<circle class="st2" cx="117.4" cy="131.4" r="16.3"/>
	<path class="st3" d="M129.7,130.7c0,6.7-5.4,12.2-12.2,12.2c-6.7,0-12.2-5.4-12.2-12.2c0-6.7,5.4-12.2,12.2-12.2
		C124.3,118.6,129.7,124,129.7,130.7z"/>
	<rect x="96.4" y="199" class="st1" width="42.6" height="6.2"/>
	<path class="st4" d="M105.4,145.8c0.1,0.1-3,3-7.1,6.4s-7.4,6.1-7.5,5.9s3-3,7.1-6.4S105.3,145.7,105.4,145.8z"/>
	<path class="st4" d="M103.7,143.3c0.1,0.1-1.8,1.9-4.2,3.9s-4.3,3.8-4.4,3.6s1.6-2.1,4-4.1S103.6,143.1,103.7,143.3z"/>
	<path class="st4" d="M143.6,109.4c0.1,0.2-2.6,2-5.7,4.5s-5.5,4.7-5.7,4.6s2.1-2.6,5.2-5.1S143.5,109.3,143.6,109.4z"/>
	<path class="st4" d="M145.7,103.7c0.1,0.2-2.4,2.2-5.6,4.6s-5.9,4.2-6,4s2.4-2.2,5.6-4.6S145.6,103.5,145.7,103.7z"/>
	<rect x="676" y="241.2" class="st2" width="56.8" height="15"/>
	<path class="st1" d="M708.7,272.1c0,0,0-0.1,0-0.3s0-0.5,0-0.8c0-0.7,0-1.7,0-3c0-2.6-0.1-6.3-0.1-11l0.2,0.2l-56.8,0.1l0.3-0.3
		l0,0v7.6c0,2.5,0,5,0,7.4l-0.3-0.3l40.5,0.1l11.9,0.1h3.2h0.8h0.3c-0.1,0-0.2,0-0.3,0h-0.8h-3.2l-11.9,0.1l-40.7,0.1h-0.3v-0.3
		c0-2.4,0-4.9,0-7.4v-7.6l0,0l0.3-0.3l56.8,0.1h0.2v0.3c0,4.8-0.1,8.5-0.1,11.1c0,1.2,0,2.2,0,2.9c0,0.3,0,0.5,0,0.7
		S708.7,272.1,708.7,272.1z"/>
	<path class="st3" d="M607.8,165.4l10.8-19c-14.8-24-7.4-55.4,16.5-70.2c24-14.8,55.4-7.4,70.2,16.5s7.4,55.4-16.5,70.2
		c-18.1,11.2-41.2,10-58-3l0,0L607.8,165.4z"/>
	<path class="st1" d="M607.8,165.4l23.1-5.3l0.2-0.1l-0.2-0.2l0,0l-0.2,0.2c3.2,2.5,6.7,4.6,10.5,6.3c4.5,2,9.2,3.3,14,4
		c2.7,0.4,5.4,0.5,8.1,0.4c1.4-0.1,2.8-0.1,4.2-0.2l4.3-0.6c12.8-2.5,24.2-9.8,31.8-20.4c4.2-5.9,7.2-12.6,8.6-19.7
		c1.5-7.5,1.3-15.3-0.6-22.7c-1.9-7.8-5.7-15-10.9-21l-2.1-2.3c-0.7-0.8-1.5-1.4-2.2-2.1s-1.5-1.4-2.3-2l-2.5-1.8
		c-0.8-0.6-1.6-1.2-2.5-1.7l-2.6-1.6l-2.7-1.3c-0.9-0.5-1.8-0.9-2.7-1.2c-7.3-2.9-15.1-4.1-22.8-3.5c-7.4,0.5-14.5,2.6-21,6.2
		C625.6,81.4,617,92,613,104.7c-1.6,5.4-2.3,11-2.2,16.6c0.1,4.9,1,9.7,2.5,14.3c1.3,3.9,3,7.5,5.1,11v-0.1
		C611.6,158.6,608.2,164.6,607.8,165.4l10.9-18.9v-0.1v-0.1c-2.1-3.4-3.8-7.1-5-10.9c-1.5-4.6-2.3-9.4-2.4-14.2
		c-0.1-5.6,0.7-11.1,2.3-16.4c3.9-12.5,12.5-23,24-29.4c6.4-3.5,13.5-5.6,20.7-6.1c7.7-0.6,15.4,0.6,22.6,3.5
		c0.9,0.3,1.8,0.7,2.7,1.2l2.7,1.3l2.6,1.6c0.9,0.5,1.7,1.1,2.5,1.7l2.4,1.8c0.8,0.6,1.5,1.3,2.3,2s1.5,1.3,2.2,2.1l2.1,2.3
		c5.2,5.9,8.9,13,10.8,20.6c1.9,7.3,2.1,15,0.6,22.4c-1.4,7-4.3,13.7-8.5,19.5c-7.5,10.5-18.8,17.8-31.5,20.3l-4.3,0.7
		c-1.4,0.1-2.8,0.2-4.2,0.2c-2.7,0.1-5.3,0-8-0.4c-4.8-0.6-9.5-2-13.9-3.9c-3.7-1.7-7.2-3.7-10.4-6.2l-1-0.7l0.7,0.9l0,0l0.1-0.3
		L607.8,165.4z"/>
	<ellipse transform="matrix(0.9728 -0.2316 0.2316 0.9728 -9.7966 156.6408)" class="st1" cx="662.3" cy="120" rx="18" ry="18"/>
	<path class="st4" d="M658,114.8v10.6c0,0.4,0.3,0.7,0.7,0.7c0.1,0,0.2,0,0.3-0.1l9.5-5.4c0.3-0.2,0.4-0.6,0.3-0.9
		c-0.1-0.1-0.2-0.2-0.3-0.3l-9.5-5.3c-0.3-0.2-0.7-0.1-0.9,0.3C658,114.6,658,114.7,658,114.8z"/>
	<path class="st2" d="M610.1,78.3c0-0.1,0-0.2,0-0.3c0-0.2,0-0.5,0-0.8c0-0.8,0-1.8,0-3.2c0-2.8-0.1-6.9-0.1-12l0.2,0.2l-61.8,0.1
		l0.3-0.3l0,0v8.3c0,2.7,0,5.4,0,8l-0.3-0.3l44,0.1l13,0.1h3.5h0.9h0.3c-0.1,0-0.2,0-0.3,0h-0.9h-3.5l-12.9,0.1l-44.3,0.1H548v-0.1
		c0-2.6,0-5.3,0-8V62l0,0l0.3-0.3l61.8,0.1h0.2V62c0,5.2-0.1,9.3-0.1,12.1c0,1.4,0,2.4,0,3.2c0,0.3,0,0.6,0,0.8
		S610.1,78.3,610.1,78.3z"/>
	<path class="st2" d="M618.4,62c0-0.1,0-0.2,0-0.3c0-0.2,0-0.5,0-0.9c0-0.8,0-1.9-0.1-3.3c0-2.9-0.1-6.9-0.1-11.9l0.2,0.2L581.3,46
		l0.3-0.3l0,0V54c0,2.7,0,5.4,0,7.9l-0.3-0.3l26.6,0.1l7.7,0.1h2.1c0.2,0,0.5,0,0.8,0c-0.2,0-0.5,0-0.7,0h-2l-7.7,0.1l-26.8,0.1H581
		V62c0-2.5,0-5.2,0-7.9v-8.5l0,0l0.3-0.3l37.1,0.1h0.2v0.2c-0.1,5-0.1,9.1-0.1,12c0,1.4,0,2.4,0,3.2S618.5,62,618.4,62z"/>
	<path class="st2" d="M397.6,250.5c0-0.1,0-0.2,0-0.3c0-0.2,0-0.5,0-0.8c0-0.8,0-1.9,0-3.2c0-2.8-0.1-6.9-0.1-12l0.2,0.2l-61.8,0.1
		l0.3-0.3l0,0v8.3c0,2.7,0,5.4,0,8l-0.3-0.3l44,0.1l13,0.1h3.5h0.9h0.3c-0.1,0-0.2,0-0.3,0h-0.9H393l-12.9,0.1l-44.3,0.1h-0.3v-0.3
		c0-2.6,0-5.3,0-8V234l0,0c0.6-0.6,0.2-0.2,0.3-0.3l61.8,0.1h0.2v0.2c0,5.2-0.1,9.3-0.1,12.1c0,1.4,0,2.4,0,3.2v0.8
		C397.6,250.4,397.6,250.5,397.6,250.5z"/>
	<path class="st2" d="M406,234.1c0-0.1,0-0.2,0-0.3c0-0.2,0-0.5,0-0.9c0-0.8,0-1.9-0.1-3.3c0-2.9-0.1-6.9-0.1-11.9l0.2,0.2
		l-37.1,0.1l0.3-0.3l0,0v8.4c0,2.7,0,5.4,0,7.9l-0.3-0.3l26.6,0.1l7.7,0.1h2.1C405.6,234,405.8,234,406,234.1
		c-0.2-0.1-0.4-0.1-0.6-0.1h-2l-7.7,0.1l-26.8,0.1h-0.3V234c0-2.5,0-5.2,0-7.9v-4.2c0-0.7,0-1.4,0-2.1v-2l0,0
		c-0.1,0.1,0.6-0.6,0.3-0.3l37.1,0.1h0.2v0.2c0,5-0.1,9.1-0.1,12c0,1.4,0,2.4,0,3.2S406,234.2,406,234.1z"/>
	<path class="st2" d="M306.6,54.3c0,0,0-0.1,0-0.3s0-0.5,0-0.8c0-0.7,0-1.7,0-3c0-2.6,0-6.3-0.1-11l0.2,0.2l-56.8,0.1
		c0.1-0.1-0.3,0.3,0.3-0.3l0,0v7.7c0,2.5,0,5,0,7.4L250,54l40.5,0.1l11.9,0.1h3.2h0.8L306.6,54.3c0-0.1-0.1-0.1-0.2-0.1h-0.8h-3.2
		l-11.9,0.1L250,54.4h-0.3V39.3l0,0L250,39l56.8,0.1h0.2v0.2c0,4.8-0.1,8.5-0.1,11.1c0,1.3,0,2.2,0,2.9c0,0.3,0,0.5,0,0.7
		C306.8,54.1,306.7,54.2,306.6,54.3z"/>
</g>
<g id="freepik--character-2--inject-2">
	<path class="st5" d="M456.4,335.3c0,0,10.8-9.1,11.7-13.6l2.3-26.6c0,0-0.9-2.9-4.2,0.9c-3,3.5-3.2,9.9-3.2,9.9l-2.8,5.7l-2.1-5.3
		l0.3-18c0,0,0.5-13-1.7-12.1s-3.6,4.4-3.8,10s-0.5,12.7-0.5,12.7s-0.2,2.2-1.4-1.8s-0.1-19.5-0.4-21.8s0.6-7.6-2.6-8
		s-2.9,6.9-2.9,6.9l-2,22.9c0,0-0.9-9.6-1.1-11.2s0-6.7-0.4-9.6s-1.7-4.6-3.1-4.8c-1.4-0.2-2.7,0.6-3,2l0.3,20c0,0,0.6,9.2,0.3,9.7
		s-2.6-4.4-2.6-4.4l-1.1-6.7c0,0-0.1-9.2-2.4-10s-2.8,1-2.8,1l0.3,16.8l3.1,19.7l3.6,15.2c0,0,9.7,0.6,9.9,1.2
		S456.4,335.3,456.4,335.3z"/>
	<path class="st6" d="M441.6,323.9c0.2,0.1,1.1-1.4,2.8-3.6s4.4-5.2,8.6-5.8c1.7-0.3,3.5-0.1,5,0.7l0.5,0.3l0.3-0.6
		c1.2-2.5,2.5-4.8,3.3-6.4s1.2-2.6,1-2.7c-0.6,0.7-1.1,1.5-1.6,2.3c-0.9,1.5-2.3,3.5-3.8,6.3l0.8-0.3c-1.7-1-3.8-1.3-5.7-0.9
		c-2.1,0.4-4.1,1.3-5.7,2.7c-1.3,1.1-2.4,2.4-3.4,3.8C442.2,322.2,441.5,323.9,441.6,323.9z"/>
	<path class="st5" d="M456.3,333.2l11.5,59.9l10.9,39c-9.5,9.2-19.8,10.5-19.8,10.5c-19.3,1.5-25.9-15.9-26.8-24.6
		c-1.6-15.9,2.1-87.5,2.1-87.5L456.3,333.2z"/>
	<polygon class="st5" points="624.8,291.6 603.5,287.5 562.6,296.8 541.8,301.1 541.6,329.5 587.8,338 619,328.7 630.8,311.4 	"/>
	<path class="st7" d="M639.9,294.4l-20.1-4.7c0,0-14.2,44-49.3,42.1c-28.6-1.5-28.6-30.6-28.6-30.6l-20.9,3.7c0,0-8.8,53.1,0.8,90.3
		c8,31,12.8,75.8,12.8,75.8l141.8,0.3L639.9,294.4z"/>
	<path class="st7" d="M503.7,317.2c11.3-14.1,20.3-12.5,20.3-12.5l6.1,67.6l-49.3,62.4l-20.1-51.3
		C460.7,383.3,493.4,330,503.7,317.2z"/>
	<path class="st7" d="M637.5,293.8c0,0,32.6,2.6,44.2,56c5.3,24.1,12,52.4,13.9,71.4c1.4,13.8-6.1,35.4-19.8,37.1l-22.5,3.1
		c-10.8,0.2-16.6-9.7-18.9-19.1l-5-15.9c-2.6-18.2,11.3-18,19.1-17.8l-5.8-69.1L637.5,293.8z"/>
	<path class="st8" d="M518.3,342.2c-0.1,0.2-0.1,0.5-0.2,0.7c-0.1,0.5-0.2,1.3-0.3,2.1c-0.1,0.5-0.1,1-0.2,1.6s-0.1,1.2-0.2,1.9
		c-0.1,1.3-0.3,2.9-0.4,4.5c-0.2,4-0.3,7.9-0.1,11.9c0.2,4.5,0.7,9.4,1.4,14.5s1.7,9.9,2.7,14.3s1.9,8.3,2.7,11.5s1.5,5.9,2,7.7
		c0.2,0.9,0.4,1.6,0.6,2.1c0.1,0.2,0.1,0.5,0.2,0.7c0-0.3-0.1-0.5-0.1-0.8l-0.5-2.1c-0.5-1.9-1.1-4.5-1.9-7.8s-1.7-7.2-2.6-11.6
		s-1.9-9.2-2.6-14.3s-1.3-10-1.5-14.4s-0.2-8.5,0-11.8c0-1.7,0.2-3.2,0.3-4.5c0.1-0.7,0.1-1.3,0.2-1.9c0.1-0.6,0.1-1.1,0.2-1.6
		c0.1-0.9,0.2-1.6,0.2-2.2C518.3,342.7,518.3,342.4,518.3,342.2z"/>
	<path class="st8" d="M674.1,427.4c0-0.5-0.1-0.9-0.3-1.3c-0.3-1.2-0.7-2.4-1.3-3.5c-3.5-7.7-10.7-13-19.1-13.9
		c-1.2-0.2-2.5-0.2-3.7-0.1c-0.5,0-0.9,0.1-1.4,0.2c1.7,0,3.3,0.1,5,0.3c8.2,1.1,15.2,6.3,18.8,13.7
		C672.9,424.2,673.5,425.8,674.1,427.4z"/>
	<path class="st8" d="M666.6,400.8c-0.3-0.1-0.5-0.1-0.8-0.1c-0.7,0-1.4,0-2.2,0.1c-4.8,0.5-9.3,2.3-13,5.3
		c-0.6,0.4-1.1,0.9-1.6,1.4c-0.3,0.4-0.5,0.6-0.5,0.6s0.9-0.7,2.3-1.8c3.8-2.8,8.2-4.6,12.8-5.3
		C665.4,400.9,666.6,400.9,666.6,400.8z"/>
	<path class="st8" d="M632.8,331.7c0.1-0.5,0.1-1,0.1-1.4c0-0.9,0.1-2.2,0.2-3.9c0.3-4.3,1-8.5,2.2-12.6c1.2-4.1,2.8-8.1,4.7-11.8
		c0.8-1.5,1.4-2.6,1.9-3.4c0.3-0.4,0.5-0.8,0.7-1.3c-0.3,0.4-0.6,0.7-0.8,1.1c-0.5,0.8-1.2,1.9-2,3.3c-4.2,7.6-6.5,16-6.9,24.6
		c-0.1,1.6-0.1,3,0,3.9C632.8,330.8,632.8,331.2,632.8,331.7z"/>
	<g class="st9">
		<path d="M519.8,387c-8.3-14.1-8.5-32.4-1.2-47c-2.3,15.6-1.8,31.5,1.5,46.9"/>
	</g>
	<g class="st9">
		<path d="M593.7,402.9c6.3,1.9,15,2.3,21.2,0c-4.8,6.8-14.1,9.3-22.1,7.1s-15.5-10.3-16.1-18.6C580.5,396.6,587.4,401,593.7,402.9z
			"/>
	</g>
	<path class="st8" d="M570.5,380.1c0,0.2,0.1,0.4,0.1,0.6c0.1,0.4,0.3,0.9,0.5,1.6c0.7,1.9,1.6,3.7,2.7,5.5
		c3.6,5.8,8.7,10.5,14.8,13.4c6.2,2.9,13,4,19.8,3.1c2-0.2,4-0.7,6-1.3c0.7-0.2,1.2-0.4,1.6-0.6c0.2-0.1,0.4-0.1,0.5-0.2
		c0,0-0.8,0.2-2.2,0.6c-15.3,4.5-31.7-1.8-40.2-15.3c-1.1-1.7-2-3.5-2.8-5.4C570.8,380.9,570.5,380.1,570.5,380.1z"/>
	<path class="st8" d="M639.1,455.2c0,0,0.6,0.7,1.8,1.7c1.8,1.4,3.8,2.3,6,2.9c3.2,0.8,6.5,1.1,9.8,0.9c3.7-0.3,7.8-0.7,12.1-1.3
		c4-0.5,8-1.4,11.8-2.7c1.6-0.7,3.1-1.7,4.3-2.9c1.1-1,2.1-2.2,3-3.4c1.3-1.8,2.4-3.7,3.3-5.8c0.3-0.7,0.5-1.3,0.7-1.7
		c0.1-0.2,0.1-0.4,0.3-0.6c0,0.2-0.1,0.4-0.2,0.6c-0.1,0.4-0.3,1-0.6,1.7c-0.8,2.1-1.9,4.1-3.2,5.9c-0.9,1.3-1.9,2.5-3,3.5
		c-1.3,1.3-2.8,2.3-4.5,3c-3.9,1.3-7.8,2.3-11.9,2.8c-4.3,0.6-8.4,1-12.1,1.3c-3.3,0.2-6.7-0.1-9.9-1c-2.2-0.6-4.2-1.6-6-3
		c-0.5-0.4-0.9-0.8-1.3-1.3C639.4,455.6,639.2,455.4,639.1,455.2z"/>
	<path class="st8" d="M633.7,348.7c0.1,0,3.6,13.3,7.7,29.8s7.3,29.9,7.2,29.9s-3.6-13.3-7.7-29.8S633.6,348.8,633.7,348.7z"/>
	<path class="st8" d="M629.6,423.9c-0.1-0.4-0.2-0.7-0.2-1.1c-0.1-1-0.1-2-0.1-3c0.1-1.5,0.6-3,1.5-4.3c0.5-0.8,1-1.5,1.7-2.1
		c0.7-0.7,1.5-1.2,2.3-1.7c3-1.6,6.2-2.6,9.5-3c1-0.1,2-0.2,3-0.3c0.4,0,0.7,0,1.1,0c0,0.1-1.6,0.1-4.1,0.6
		c-3.2,0.6-6.4,1.6-9.3,3.1c-0.8,0.4-1.6,1-2.2,1.6c-0.6,0.6-1.1,1.3-1.6,2c-0.8,1.2-1.3,2.6-1.5,4c-0.1,1-0.1,2-0.1,3
		C629.7,423.2,629.6,423.6,629.6,423.9z"/>
	<path class="st8" d="M533.2,185.8l-4.1-3.8c-5.5,2.2-8,8.1-8.9,13.6s-0.8,11.4-3.3,16.4c-1.9,3.9-5.4,7.5-5,11.8
		c0.4,4.1,4.3,7.4,4.4,11.4c0,3.9-3.5,6.9-5.5,10.4c-4.1,6.9-6.8,35.4-4.6,43.1c18.2-1.4,50.3-3.2,68.5-7.1
		C569.8,252.3,549.6,211.1,533.2,185.8z"/>
	<ellipse class="st10" cx="523.3" cy="229.9" rx="18.3" ry="20.3"/>
	<g class="st9">
		<path d="M518.2,218.7c0.5-1.4,1.1-2.7,1.8-4c0.4,12.7,1.2,23,2.5,35.5c-3.6-6.4-4.6-14.3-5-22
			C517.2,223.9,517.1,221.7,518.2,218.7z"/>
	</g>
	<path class="st5" d="M553.5,309.9"/>
	<path class="st5" d="M519.7,215c-1.3-21.3,14.2-40.8,35.8-43.3c22.9-2.7,43.1,13.6,45,35.9l5.4,89.9c0.1,1.7-0.4,3.5-1.4,4.9
		c-5.3,7.7-14.8,13.8-23.4,14.9c-8.3,1.1-16.7-1-23.7-4.9c-2.4-1.3-3.9-3.9-3.9-6.6l-0.4-20.2c0-0.1,0-0.1-0.1-0.1c0,0,0,0,0,0
		c-1.9,0.1-3.8,0.1-5.6-0.2c-5.3-1.3-18.9-6.5-23.5-26.4C522.3,252.4,520.8,233.6,519.7,215z"/>
	<path class="st8" d="M549.2,244.4c0-0.2-2.2-0.4-5.8-0.6c-0.9,0-1.8-0.1-2-0.7c-0.1-0.9,0-1.9,0.4-2.7c0.7-2.2,1.5-4.5,2.2-7
		c3.1-9.9,5.3-18,4.9-18.2s-3.3,7.8-6.3,17.8l-2.1,7c-0.3,1-0.8,2.2-0.2,3.5c0.3,0.6,0.9,1.1,1.6,1.2c0.5,0.1,1,0.1,1.6,0.1
		C547,244.7,549.2,244.6,549.2,244.4z"/>
	<path class="st8" d="M525.5,222.5c0.4,0.4,2.8-1.6,6.1-1.6s5.9,1.7,6.3,1.2c0.2-0.2-0.2-1-1.3-1.8c-3-2.1-7.1-2-9.9,0.4
		C525.7,221.5,525.3,222.3,525.5,222.5z"/>
	<path class="st8" d="M559.9,223.4c0.5,0.4,2.9-1.8,6.6-2.1s6.6,1.4,6.9,0.9c0.2-0.2-0.3-1-1.6-1.8c-1.7-1-3.6-1.5-5.6-1.3
		c-1.9,0.2-3.8,1-5.2,2.3C560,222.3,559.7,223.2,559.9,223.4z"/>
	<path class="st6" d="M553,285.6c0,0,13.8,0.1,30.3-11.2c0,0-4.3,18.2-30.2,17.6L553,285.6z"/>
	<path class="st6" d="M551.3,252.7c1.3-1.8,3.4-2.8,5.6-2.7c1.6,0,3.1,0.7,4.2,1.8c1.1,1.1,1.3,2.8,0.5,4.1
		c-0.9,1.4-2.8,1.8-4.6,1.5c-1.7-0.5-3.3-1.3-4.7-2.4c-0.4-0.3-0.8-0.6-1.1-1c-0.3-0.4-0.3-0.9-0.1-1.3"/>
	<path class="st8" d="M559.8,246.1c-0.6,0-0.3,3.8-3.5,6.7s-7.3,2.8-7.2,3.3c0,0.2,1,0.7,2.7,0.6c2.3-0.1,4.4-1,6.1-2.6
		c1.6-1.5,2.5-3.5,2.7-5.6C560.6,246.9,560.1,246,559.8,246.1z"/>
	<path class="st8" d="M559.3,209.4c0.4,0.9,3.9,0.2,8.1,0.4s7.6,1,8.1,0.1c0.2-0.4-0.4-1.3-1.8-2.1c-1.9-1-4-1.6-6.1-1.6
		c-2.1-0.1-4.3,0.3-6.3,1.2C559.9,208.2,559.1,209,559.3,209.4z"/>
	<path class="st8" d="M524.8,210.2c0.7,0.8,3.6,0,7,0s6.3,0.6,7-0.3c0.3-0.4-0.2-1.2-1.4-2c-1.7-0.9-3.7-1.4-5.7-1.3
		c-2,0-3.9,0.5-5.6,1.6C524.9,209,524.5,209.8,524.8,210.2z"/>
	<path class="st8" d="M552.3,167.1c1.8-3.2,5.3-4.6,9.2-5.2c15.8-2.4,33.3,7.1,42.2,20.4s9.3,33,2.8,47.6l-9.8-6.1
		c-19.7-8.1-33.7-27.1-46.3-46.8C548.5,174.3,550.6,169.9,552.3,167.1z"/>
	<path class="st8" d="M520,216.3l-1.1-2c-3.9-7.5-2.2-16.1,0.7-24c2.6-7.1,4-9.4,8.4-14.4c6.6-7.5,18-16.1,27.6-11.8
		c2,3.8-4.6,10.9-8,13.8c-5,4.3-9.3,7.1-12.6,10.2C528.5,194.1,520.6,205,520,216.3"/>
	<path class="st8" d="M531.5,228c0,1.6,1.2,3,2.8,3.1c1.6,0.2,3-1,3.1-2.6c0,0,0,0,0-0.1c0-1.6-1.2-3-2.8-3.1
		C533.1,225.2,531.7,226.4,531.5,228C531.5,228,531.5,228,531.5,228z"/>
	<path class="st8" d="M564.5,227.3c0,1.6,1.2,3,2.8,3.1c1.6,0.1,3-1,3.1-2.6c0,0,0,0,0-0.1c0-1.6-1.2-3-2.8-3.1
		C566,224.5,564.6,225.7,564.5,227.3C564.5,227.3,564.5,227.3,564.5,227.3z"/>
	<path class="st5" d="M596.6,223.8c0.4-0.2,14.9-6,15.8,9.4s-14.6,13.1-14.7,12.6S596.6,223.8,596.6,223.8z"/>
	<path class="st6" d="M602.1,239.7c0.1-0.1,0.3,0.2,0.7,0.4c0.7,0.2,1.4,0.2,2-0.1c1.6-0.7,2.8-3.3,2.7-6.1c0-1.3-0.4-2.6-1-3.8
		c-0.3-1-1.1-1.7-2.1-1.9c-0.6-0.1-1.3,0.2-1.5,0.8c-0.2,0.4-0.1,0.7-0.1,0.8s-0.3-0.2-0.3-0.9c0.1-0.4,0.3-0.7,0.5-1
		c0.4-0.3,0.9-0.5,1.5-0.5c1.3,0.2,2.4,1,2.9,2.2c0.7,1.3,1.1,2.7,1.2,4.2c0.1,3.1-1.3,6.1-3.5,6.8c-0.8,0.3-1.7,0.2-2.5-0.3
		C602.1,240,602,239.7,602.1,239.7z"/>
	<path class="st4" d="M542.1,227.8c-0.1-1.2-0.2-2.3-0.5-3.4c-0.7-3.1-2.5-5.8-5-7.7c-3.7-2.9-8.7-3.7-13.1-2.2
		c-2.6,0.9-4.9,2.6-6.5,4.7c-3.7,4.8-3.8,11.5-0.3,16.4c1.6,2.2,3.8,4,6.4,4.9c2.3,0.9,4.8,1.1,7.3,0.7c2.1-0.4,4.2-1.2,5.9-2.5
		c2.6-1.9,4.4-4.5,5.3-7.6C541.8,230.1,542,228.9,542.1,227.8c0,0.1,0,0.2,0,0.2c0,0.2,0,0.4,0,0.7c0,0.4,0,0.7-0.1,1.1
		c-0.1,0.5-0.2,1-0.3,1.5c-1.4,5.4-5.8,9.5-11.3,10.4c-2.5,0.4-5.1,0.2-7.5-0.7c-1.3-0.5-2.5-1.1-3.6-2c-1.2-0.9-2.2-1.9-3-3.1
		c-3.7-5.1-3.6-12,0.3-17c1.7-2.3,4.1-4,6.8-4.9c2.4-0.8,5-1,7.5-0.5c2.2,0.4,4.3,1.4,6,2.8c2.5,2,4.3,4.8,5,8
		c0.1,0.5,0.2,1,0.2,1.5c0.1,0.4,0.1,0.7,0.1,1.1v0.7C542.2,227.6,542.2,227.7,542.1,227.8z"/>
	<path class="st4" d="M580.8,228.4c-0.1-1.2-0.2-2.3-0.5-3.4c-0.8-3.1-2.5-5.8-5-7.7c-1.7-1.3-3.7-2.2-5.8-2.7
		c-2.4-0.5-5-0.3-7.3,0.5c-1.3,0.4-2.5,1-3.5,1.8c-1.2,0.8-2.2,1.8-3,2.9c-3.7,4.8-3.8,11.5-0.3,16.4c0.8,1.1,1.8,2.2,2.9,3
		c1.1,0.8,2.2,1.5,3.5,1.9c2.3,0.9,4.8,1.1,7.3,0.7c2.1-0.4,4.2-1.2,5.9-2.5c2.6-1.9,4.4-4.5,5.3-7.6
		C580.5,230.7,580.7,229.6,580.8,228.4c0,0.1,0,0.2,0,0.2c0,0.2,0,0.4,0,0.7c0,0.4,0,0.7-0.1,1.1c-0.1,0.5-0.2,1-0.3,1.5
		c-1.4,5.4-5.8,9.5-11.3,10.4c-2.5,0.4-5.1,0.2-7.5-0.7c-2.7-1-5-2.8-6.6-5.1c-3.7-5.1-3.6-12,0.3-17c1.7-2.3,4.1-4,6.8-4.9
		c2.4-0.8,5-1,7.5-0.5c5.5,1.1,9.8,5.3,11,10.8c0.1,0.5,0.2,1,0.2,1.5c0,0.4,0.1,0.7,0.1,1.1v0.7
		C580.8,228.3,580.8,228.3,580.8,228.4z"/>
	<path class="st4" d="M553.2,227.4c-0.1,0.1-0.5-0.6-1.4-1.3c-2.5-2-6-2.1-8.5-0.2c-1,0.7-1.4,1.4-1.5,1.3c0.3-0.6,0.7-1.2,1.2-1.6
		c2.6-2.3,6.5-2.2,9,0.2C552.6,226.1,553,226.7,553.2,227.4z"/>
	<path class="st4" d="M600.1,222.8c-0.9,0.3-1.9,0.5-2.8,0.6c-1.8,0.3-4.2,0.5-6.9,0.8l-6.9,0.6c-1,0.2-1.9,0.2-2.9,0.2
		c0.9-0.3,1.9-0.5,2.8-0.6c1.8-0.3,4.2-0.5,6.9-0.8l6.9-0.6C598.2,222.9,599.1,222.8,600.1,222.8z"/>
	<path class="st4" d="M519.8,236.4c-1.2-1.4-2.3-3.1-3-4.8c-0.6-1.8-0.8-3.7-0.8-5.6c-0.2,0.5-0.3,1.1-0.3,1.7
		c-0.1,2.8,0.9,5.6,2.8,7.7C518.9,235.8,519.3,236.2,519.8,236.4z"/>
	<path class="st4" d="M517.4,220.6c-0.1-0.1-0.7,0.2-1,0.9s-0.2,1.3-0.1,1.3s0.3-0.5,0.5-1.1S517.5,220.7,517.4,220.6z"/>
	<path class="st4" d="M555.1,233.4c0.1,0-0.2-0.8-0.4-2.1c-0.3-1.7-0.3-3.4,0-5.1c0.3-1.7,0.9-3.3,1.8-4.7c0.4-0.6,0.8-1.2,1.2-1.8
		c-0.6,0.4-1.1,1-1.5,1.6c-1,1.5-1.7,3.1-2,4.9c-0.3,1.7-0.3,3.5,0.1,5.2C554.4,232.1,554.7,232.8,555.1,233.4z"/>
	<path class="st1" d="M608.3,245.6c0,0,0.2,0.3,0.5,0.9c0.4,0.8,0.6,1.7,0.7,2.6c0,1.3-0.5,2.6-1.4,3.5c-1.1,1.1-2.8,1.6-4.3,1.4
		c-1.6-0.3-2.9-1.4-3.6-2.8c-0.6-1.2-0.6-2.5-0.1-3.8c0.3-0.8,0.8-1.6,1.5-2.2c0.5-0.4,0.8-0.6,0.8-0.6c-0.3,0.1-0.6,0.2-0.9,0.5
		c-0.8,0.6-1.4,1.3-1.7,2.2c-0.6,1.3-0.6,2.8,0,4.1c1.2,2.7,4.3,3.9,6.9,2.8c0.7-0.3,1.2-0.7,1.7-1.2c1-1,1.5-2.4,1.4-3.8
		c0-0.9-0.3-1.9-0.8-2.6C608.6,245.8,608.3,245.5,608.3,245.6z"/>
	<path class="st1" d="M523.8,257.4c-0.8,0.3-1.8,0.4-2.7,0.2c-0.9-0.3-1.8-0.8-2.5-1.5c-0.8-0.9-1.4-2-1.6-3.1
		c-0.2-1.2-0.1-2.4,0.4-3.5c0.4-0.9,1-1.7,1.8-2.3c0.7-0.5,1.6-1,2.4-1.3c-0.3,0-0.5,0-0.8,0.1c-0.7,0.2-1.3,0.5-1.9,0.9
		c-0.9,0.6-1.5,1.4-2,2.4c-0.6,1.2-0.7,2.5-0.5,3.8c0.2,1.3,0.8,2.4,1.8,3.4c0.7,0.8,1.7,1.3,2.7,1.5c0.7,0.2,1.4,0.1,2.1-0.1
		C523.4,257.7,523.6,257.5,523.8,257.4z"/>
	<path class="st8" d="M590.3,172.6c14.2,0,20.2,20.8,23.5,28.5s4.2,16.3,8.3,23.5c3.3,5.8,8.5,10.8,9.3,17.3
		c0.5,4.8-1.5,9.6-1.2,14.4c0.3,5,2.9,9.5,4.8,14.1s2.7,10.3-0.3,14.3c-10.9,1.1-21.8,1.4-32.7,0.8c-1.8-0.1-3.8-0.3-5.3-1.4
		c-1.8-1.5-2.3-4-2.5-6.4c-3-24.1,3.6-34.9,0.6-59"/>
	<ellipse class="st10" cx="606.3" cy="234.3" rx="18.3" ry="20.3"/>
	<path class="st8" d="M595.5,234.3c0-0.3,0-0.6,0-0.9c0-0.8,0.1-1.7,0.3-2.5c0.3-1.3,0.7-2.6,1.3-3.8c0.8-1.6,1.9-3,3.2-4.2
		c1.6-1.5,3.6-2.5,5.7-3c2.5-0.5,5-0.3,7.3,0.7c2.6,1.1,4.7,3,6.2,5.3c0.8,1.2,1.4,2.6,1.8,4c0.8,2.9,0.8,6,0,8.9
		c-0.4,1.4-1,2.8-1.8,4c-1.5,2.4-3.6,4.2-6.2,5.3c-2.3,1-4.9,1.2-7.3,0.7c-2.1-0.5-4.1-1.5-5.7-3c-1.3-1.2-2.4-2.6-3.2-4.2
		c-0.6-1.2-1-2.5-1.3-3.8c-0.2-0.8-0.3-1.7-0.3-2.5C595.5,234.9,595.5,234.6,595.5,234.3c0.1,1.1,0.3,2.3,0.5,3.4
		c0.3,1.3,0.8,2.5,1.4,3.7c0.8,1.6,1.9,2.9,3.2,4.1c1.6,1.4,3.5,2.4,5.5,2.8c2.4,0.5,4.8,0.3,7.1-0.7c2.5-1.1,4.5-2.9,5.9-5.1
		c0.7-1.2,1.3-2.5,1.7-3.9c0.8-2.8,0.8-5.8,0-8.6c-0.4-1.3-1-2.6-1.7-3.8c-1.4-2.3-3.5-4.1-5.9-5.1c-2.2-1-4.7-1.2-7.1-0.7
		c-2.1,0.5-4,1.4-5.5,2.8c-1.3,1.2-2.4,2.5-3.2,4.1c-0.6,1.2-1.1,2.4-1.3,3.7C595.8,232.1,595.6,233.2,595.5,234.3z"/>
	<path class="st10" d="M609.8,215.2c0,0,3.1-53.3-50-54.9c0,0-17.9,0-25.3,9.3c0,0,12.2-7.1,26-3.2c11.3,3.2,36.7,14.5,38.2,49.6
		l4.9,1.7L609.8,215.2z"/>
	<g class="st9">
		<path d="M620.1,241.3c-1.2,5.5-6.6,9.6-12.2,9.5c-5.7-0.2-10.8-3.8-12.9-9.2c-2-5.2-1.2-10.2,2.2-14.8c-2.1,4.5-2.2,9.6-0.2,14.2
			c1.7,4.2,6.6,7.4,11.1,7.8S617.7,246.1,620.1,241.3"/>
	</g>
	<path class="st8" d="M597.8,216.5c0.6-0.5,1.3-0.9,2.1-1.2c1.8-0.7,3.7-1.2,5.6-1.3c1.9-0.1,3.9,0.1,5.7,0.6
		c0.8,0.2,1.5,0.5,2.2,0.9C608.2,213.8,602.7,214.2,597.8,216.5L597.8,216.5z"/>
	<path class="st10" d="M531.9,171.7c0-0.1,0-0.2,0.1-0.3c0.1-0.2,0.2-0.5,0.3-0.9c0.5-1.1,1.1-2.1,1.8-3c1.1-1.5,2.5-2.8,4-3.9
		c2-1.4,4.2-2.6,6.5-3.5c1.3-0.5,2.7-0.9,4.1-1.4s3-0.8,4.5-1c3.4-0.6,6.8-0.9,10.3-0.8c7.9,0.2,15.7,2.2,22.7,6
		c3.6,1.9,6.9,4.4,9.9,7.2c2.7,2.6,5.2,5.6,7.2,8.8c3.5,5.4,5.9,11.5,7.1,17.8c0.8,4.3,1.1,8.6,0.7,12.9c-0.1,1.2-0.2,2.3-0.4,3.5
		c-0.1,0.4-0.1,0.7-0.2,0.9c0,0.1,0,0.2-0.1,0.3c0-0.1,0-0.2,0-0.3c0-0.2,0.1-0.5,0.1-0.9c0.1-0.8,0.3-2,0.3-3.5
		c0.3-4.3,0-8.6-0.9-12.8c-2-10-7-19.2-14.3-26.3c-2.9-2.8-6.2-5.2-9.8-7.1c-6.9-3.7-14.6-5.8-22.4-6c-3.4-0.1-6.8,0.1-10.2,0.7
		c-1.6,0.2-3.1,0.6-4.5,1s-2.8,0.8-4,1.3c-2.3,0.9-4.5,2-6.5,3.4c-1.5,1.1-2.9,2.3-4.1,3.7c-0.7,0.9-1.4,1.9-1.9,3l-0.4,0.8
		C532,171.6,531.9,171.6,531.9,171.7z"/>
	<path class="st8" d="M527.5,176.1c0-0.1,0.1-0.2,0.1-0.3l0.4-0.8c0.4-0.6,1-1.6,1.8-2.8c1-1.4,2.2-2.7,3.5-3.9
		c1.8-1.5,3.8-2.7,5.9-3.7c2.5-1.2,5.2-2.1,8-2.6c3.2-0.4,6.4-0.6,9.6-0.5c3.6,0.2,7.1,0.6,10.6,1.3c3.8,0.7,7.4,1.8,10.9,3.4
		c3.5,1.6,6.7,3.7,9.5,6.3c2.6,2.4,4.9,5.2,6.7,8.3c3.1,5.2,5.3,10.8,6.7,16.7c1.2,5,1.8,9.1,2.3,11.9l0.5,3.3
		c0,0.4,0.1,0.6,0.1,0.9c0,0.1,0,0.2,0,0.3c0-0.1-0.1-0.2-0.1-0.3l-0.2-0.9l-0.5-3.3c-0.5-2.8-1.1-6.9-2.4-11.9
		c-1.4-5.8-3.7-11.4-6.7-16.5c-1.8-3-4.1-5.8-6.6-8.2c-2.8-2.6-6-4.6-9.4-6.2c-3.4-1.6-7.1-2.7-10.8-3.4c-3.5-0.7-7-1.2-10.5-1.3
		c-3.2-0.1-6.4,0-9.5,0.4c-2.7,0.5-5.4,1.3-7.9,2.5c-2.1,0.9-4.1,2.1-5.8,3.6c-1.3,1.1-2.5,2.4-3.5,3.8c-0.8,1.1-1.4,2.1-1.8,2.7
		l-0.5,0.7C527.5,176,527.5,176.1,527.5,176.1z"/>
	<path class="st5" d="M563.7,422.1L563.7,422.1L563.7,422.1z"/>
	<path class="st5" d="M564.1,422.2l0.1,0.1L564.1,422.2z"/>
	<path class="st5" d="M563.8,422.1l0.3,0.1L563.8,422.1z"/>
	<path class="st5" d="M563.6,422l0.1,0.1L563.6,422z"/>
	<path class="st5" d="M533,450.1c2.6-4.9,23-18,23-18l-5.5-1.3l-6.1,2.6c-0.5,2.1-1.4,4-2.6,5.7c-2.2,3.2-6-0.1-6-0.1l2.6-12.4
		l12.1-7.3c0,0,11.4,1.7,13.2,2.6l4.8,4.4c2.1,1.7,8.3,8.2,10,8.4s54.4-11.7,54.4-11.7l0,0c7.2,5.7,11,17.1,12.2,25.3
		c0,0,1.3,4-0.1,6.2l-64.7,5.1l-13.7,3.8c0,0-7.6,3.1-11.3,3.9c-4.6,1-7.6-0.5-7.8-3s3.4-2.8,3.4-2.8c3-1.1,6-2.4,8.8-3.9
		c2.1-1.4,3.8-3.3,5-5.5l-4.9,0.6c0,0-10.4,7.2-14.3,9.3s-4.7-1.8-5-3s11.7-12.9,11.7-12.9s-11.4,7-13.5,8.8s-5.1,2.3-5.7,1.1
		S530.4,455,533,450.1z"/>
	<path class="st5" d="M564.2,422.3l0.1,0.1L564.2,422.3z"/>
	<path class="st5" d="M564.4,422.4"/>
	<path class="st5" d="M564.3,422.4L564.3,422.4L564.3,422.4z"/>
	<path class="st6" d="M589.3,451.3c0.1-0.3,0.1-0.5,0.1-0.8c0-0.3,0-0.6-0.1-0.9c0-0.4-0.1-0.8-0.2-1.2c-0.7-2.3-1.8-4.5-3.3-6.4
		c-1.5-1.9-3.2-3.6-5-5.2c-0.7-0.7-1.5-1.3-2.3-1.8c0.7,0.7,1.4,1.4,2.1,2.1c1.7,1.6,3.4,3.4,4.8,5.2c1.5,1.8,2.6,3.9,3.4,6.2
		C589.2,450.1,589.2,451.3,589.3,451.3z"/>
	<path class="st6" d="M556.5,431.7c2.4,0.3,4.8-0.5,6.5-2.2c-0.1-0.1-1.3,0.8-3.1,1.4S556.5,431.6,556.5,431.7z"/>
	<path class="st6" d="M553.1,445.3c1.8-0.5,3.5-1.1,5.2-1.9c1.7-0.6,3.4-1.4,5-2.3C559.8,442.2,556.4,443.6,553.1,445.3L553.1,445.3
		z"/>
	<path class="st6" d="M564.1,452.2c0.9-0.2,1.8-0.5,2.7-0.9c0.9-0.3,1.8-0.6,2.6-1.1C567.5,450.3,565.6,451,564.1,452.2L564.1,452.2
		z"/>
	<path class="st6" d="M554.8,446.2c-0.1,0.1,1.1,0.6,2,1.8c0.5,0.8,0.9,1.6,1.2,2.4c0.1,0,0.1-0.3,0-0.8c-0.3-1.4-1.1-2.5-2.4-3.1
		C555.2,446.1,554.8,446.1,554.8,446.2z"/>
	<path class="st6" d="M550,438.6c-0.1,0.1,0.8,0.6,1.4,1.6c0.3,0.7,0.5,1.3,0.7,2c0.3-0.8,0.2-1.6-0.3-2.3
		C551.2,438.8,550,438.5,550,438.6z"/>
	<path class="st6" d="M551.7,425.1c0,0,0.2-0.2,0.4-0.6c0.2-0.6,0.2-1.2,0-1.8c-0.1-0.6-0.4-1.1-0.9-1.6c-0.3-0.3-0.6-0.4-0.6-0.4
		C551.5,421.9,551.9,423.6,551.7,425.1L551.7,425.1z"/>
	<path class="st8" d="M645.5,456.6c-0.1-0.5-0.1-1-0.1-1.5c0-0.5,0-1.1-0.1-1.7s-0.1-1.5-0.2-2.3c-0.4-4.4-1.3-8.8-2.8-13
		c-0.8-2.3-1.9-4.5-3.1-6.6c-0.6-1-1.1-1.9-1.7-2.7l-0.8-1.2l-0.8-1c-2.2-2.6-3.8-4-3.7-4.1c0.4,0.3,0.8,0.6,1.2,0.9
		c0.5,0.4,0.9,0.8,1.3,1.2c0.5,0.5,1,1,1.6,1.7l0.9,1c0.3,0.4,0.6,0.8,0.9,1.2c0.6,0.8,1.2,1.7,1.8,2.7c1.2,2.1,2.3,4.4,3.1,6.7
		c1.5,4.2,2.4,8.7,2.7,13.1c0.1,0.9,0.1,1.6,0.1,2.3s0,1.3,0,1.8C645.6,455.6,645.5,456.1,645.5,456.6z"/>
	<path class="st1" d="M420.1,377.9l18.9,92.8h164.1c1.8,0,3.3-1.4,3.3-3.2c0,0,0,0,0,0l0,0c0-1.8-1.5-3.3-3.3-3.3c0,0,0,0,0,0h-33
		l-17.5-86.3c-0.3-1.7-1.8-2.9-3.5-2.9l-125.4-1.4c-2,0-3.6,1.6-3.6,3.5C420,377.4,420,377.6,420.1,377.9z"/>
	<path class="st8" d="M420.1,377.9c0,0,0-0.1,0-0.3c-0.2-1.4,0.5-2.8,1.7-3.6c0.3-0.2,0.7-0.3,1.1-0.4c0.4-0.1,0.9-0.1,1.3-0.1h3
		l7.4,0.1l47.4,0.5l33.1,0.3l18.5,0.2l9.7,0.1l5,0c0.4,0,0.8,0,1.3,0c1.4,0.1,2.5,1,3.1,2.3c0.2,0.4,0.3,0.8,0.3,1.3l0.3,1.3
		l0.5,2.5c0.3,1.7,0.7,3.4,1,5.1l2.1,10.3c1.4,7,2.9,14.1,4.3,21.4c3,14.5,6,29.7,9.2,45.3l-0.2-0.2h32.5c0.4,0,0.9,0,1.3,0.1
		c1.9,0.4,3.1,2.3,2.7,4.2c-0.2,1-0.9,1.8-1.7,2.3c-0.5,0.3-1,0.4-1.5,0.4H516h-77h-0.1v-0.1l-13.8-67.8c-1.6-8-2.9-14.3-3.7-18.5
		l-1-4.8C420.2,378.5,420.1,377.9,420.1,377.9c0,0,0.1,0.6,0.3,1.6s0.6,2.7,1,4.8c0.9,4.3,2.2,10.5,3.8,18.5
		c3.3,16.1,8,39.3,13.9,67.8l-0.2-0.1h77h87.2c0.5,0,0.9-0.1,1.3-0.4c0.8-0.5,1.4-1.3,1.6-2.2c0.1-0.8-0.1-1.6-0.5-2.2
		c-0.4-0.6-1.1-1.1-1.9-1.3c-0.4-0.1-0.8-0.1-1.2-0.1h-32.6v-0.2l-9.2-45.3c-1.5-7.3-2.9-14.4-4.3-21.4l-2.1-10.3l-1-5.1l-0.5-2.5
		l-0.3-1.3c-0.1-0.4-0.2-0.8-0.3-1.2c-0.3-0.7-0.9-1.3-1.6-1.7c-0.4-0.2-0.7-0.3-1.1-0.3c-0.4,0-0.8,0-1.2,0h-5l-9.7-0.1l-18.5-0.4
		l-33-0.4l-47.4-0.6l-7.4-0.1l-3,0c-0.4,0-0.8,0-1.3,0.1c-0.4,0.1-0.7,0.2-1.1,0.4c-1,0.6-1.6,1.5-1.7,2.6
		C420.1,377.2,420.1,377.5,420.1,377.9z"/>
	<path class="st4" d="M495.7,420.4c0,3-2.4,5.4-5.4,5.5s-5.4-2.4-5.5-5.4s2.4-5.4,5.4-5.5c0,0,0,0,0,0
		C493.3,415,495.7,417.4,495.7,420.4z"/>
	<path class="st8" d="M420.3,378.6c0,0,0.2,0,0.6,0h8l23.5,0.1l77.4,0.5l11.2,0.1h2.8c0.5,0,0.9,0,1.4,0.1c0.5,0.1,0.9,0.3,1.3,0.5
		c0.8,0.5,1.4,1.3,1.7,2.3c0.2,0.9,0.4,1.8,0.5,2.6c1.4,7,2.7,13.7,4,20.2c2.5,12.8,4.8,24.4,6.8,34.1s3.4,17.6,4.5,23
		c0.5,2.7,0.9,4.8,1.2,6.3l0.3,1.6c0.1,0.4,0.1,0.5,0.1,0.5s0-0.2-0.1-0.5s-0.2-0.9-0.3-1.6c-0.3-1.4-0.7-3.5-1.3-6.2
		c-1.1-5.5-2.7-13.3-4.7-23s-4.3-21.3-6.8-34.1c-1.3-6.4-2.6-13.2-4-20.2c-0.2-0.9-0.3-1.8-0.5-2.6c-0.2-0.8-0.7-1.5-1.5-2
		c-0.4-0.2-0.8-0.4-1.2-0.5c-0.4-0.1-0.9-0.1-1.3-0.1h-2.8l-11.2-0.1l-77.4-0.7l-23.5-0.3l-6.4-0.1h-1.7L420.3,378.6z"/>
</g>
<g id="freepik--speech-bubble-2--inject-2">
	<path class="st3" d="M507.4,207.9l-16.6-7.5c-18.8,14.1-45.4,10.3-59.5-8.5c-14.1-18.8-10.3-45.4,8.5-59.5
		c18.8-14.1,45.4-10.3,59.5,8.5c10.6,14.1,11.4,33.4,1.9,48.3l0,0L507.4,207.9z"/>
	<path class="st8" d="M507.4,207.9c-0.3-0.9-2.2-6.8-6.1-18.7l-0.1-0.2l-0.1,0.1l0,0l0.2,0.2c1.8-2.9,3.3-5.9,4.4-9.2
		c1.3-3.8,2.1-7.8,2.3-11.9c0.1-2.2,0-4.5-0.3-6.7c-0.2-1.1-0.3-2.3-0.5-3.5s-0.6-2.3-0.9-3.5c-4.9-16.6-19.2-28.6-36.3-30.5
		c-6.3-0.6-12.7,0.1-18.7,2.2c-6.3,2.2-12,5.8-16.5,10.7l-1.7,1.9c-0.6,0.6-1,1.4-1.6,2s-1.1,1.3-1.5,2.1l-1.3,2.2
		c-0.4,0.7-0.8,1.5-1.2,2.2l-1.1,2.3l-0.9,2.3c-0.3,0.8-0.6,1.6-0.8,2.4c-1.8,6.2-2.2,12.8-1.2,19.2c1,6.1,3.3,11.8,6.7,16.9
		c6.2,9.1,15.7,15.5,26.5,17.8c4.6,0.9,9.3,1.1,13.9,0.6c4-0.5,8-1.5,11.7-3.1c3.1-1.3,6-3.1,8.7-5.1h-0.1L507.4,207.9l-16.5-7.6
		h-0.1h-0.1c-2.7,2-5.6,3.7-8.7,5c-3.7,1.6-7.6,2.6-11.6,3.1c-4.6,0.5-9.2,0.3-13.8-0.6c-10.7-2.3-20-8.6-26.2-17.6
		c-3.4-5-5.7-10.7-6.6-16.7c-1-6.3-0.6-12.8,1.2-19c0.2-0.8,0.5-1.6,0.8-2.3l0.9-2.3c0.4-0.7,0.7-1.5,1.1-2.2
		c0.3-0.8,0.7-1.5,1.2-2.2l1.3-2.1c0.5-0.7,0.9-1.4,1.5-2c0.5-0.7,1-1.4,1.6-2l1.7-1.9c4.5-4.8,10.1-8.4,16.3-10.5
		c5.9-2.1,12.3-2.8,18.5-2.2c5.9,0.6,11.6,2.5,16.8,5.5c9.3,5.4,16.2,14.2,19.2,24.5l0.9,3.5c0.2,1.2,0.3,2.3,0.5,3.4
		c0.3,2.2,0.4,4.4,0.3,6.7c-0.2,4-0.9,8-2.2,11.8c-1.1,3.2-2.6,6.3-4.4,9.1l-0.5,0.8l0.7-0.7l0,0l-0.2-0.1
		C505.1,201.1,507.1,207,507.4,207.9z"/>
	<path class="st8" d="M472.5,153.3L472.5,153.3c-0.2-0.5-3.9,0.8-8.5,0.7c-2,0-3.9-0.4-5.7-1.1c-0.6-0.3-1.2-0.6-1.8-0.9
		c-0.1-0.4-0.3-0.5-0.4-0.5c-0.5,0.1-0.2,5.3,0.3,11.9c0.2,2.5,0.6,5.1,1.1,7.6c-2.2-1.8-5.4-1.4-7.2,0.8c-0.3,0.4-0.5,0.8-0.7,1.2
		c-1.1,2.6,0.1,5.6,2.7,6.7c2.6,1.1,5.6-0.1,6.7-2.7c0.5-1.2,0.5-2.5,0.1-3.8c-0.1-2.1-0.6-5.7-0.9-9.9c-0.2-2-0.4-3.9-0.6-5.6
		c2.3,1.3,4.9,2,7.5,1.9c2.6,0,5.1-0.7,7.3-2.1c0.1,2.1,0.3,4.8,0.5,7.7c0.2,2.5,0.6,5.1,1.1,7.6c-0.4-0.3-0.8-0.6-1.2-0.8
		c-2.6-1.1-5.6,0.1-6.8,2.7c-1.1,2.6,0.1,5.6,2.7,6.8c2.6,1.1,5.6-0.1,6.8-2.7c0.5-1.2,0.6-2.5,0.1-3.8c-0.1-2.1-0.6-5.8-0.9-9.9
		C474.1,158.5,473,153.2,472.5,153.3z M465,157.8c-2.6,0-5.1-0.3-7.6-0.8c-0.2-1.4-0.4-2.7-0.7-3.6c0.3,0.2,0.6,0.5,0.9,0.7
		c1.9,1.1,4.1,1.7,6.3,1.7c4.5,0.1,7.8-1.6,8.5-2.3c-0.1,1-0.1,2.1-0.1,3.2C469.9,157.3,467.5,157.7,465,157.8z"/>
</g>
<g id="freepik--speech-bubble-1--inject-2">
	<path class="st3" d="M244,233.5l9.9-17.4c-13.5-21.9-6.7-50.7,15.3-64.2c21.9-13.5,50.7-6.7,64.2,15.3
		c13.5,21.9,6.7,50.7-15.3,64.2c-16.5,10.2-37.7,9.1-53-2.8l0,0L244,233.5z"/>
	<path class="st8" d="M244,233.5l21.1-4.8l0.2-0.1l-0.1-0.2l0,0l-0.2,0.2c3,2.3,6.2,4.2,9.6,5.8c4.1,1.8,8.4,3,12.8,3.6
		c2.4,0.3,4.9,0.5,7.4,0.4c1.3-0.1,2.6-0.1,3.9-0.2l3.9-0.6c11.7-2.3,22.1-9,29.1-18.7c3.9-5.4,6.6-11.5,7.9-18
		c1.3-6.9,1.2-13.9-0.6-20.7c-1.8-7.1-5.2-13.7-10-19.2l-1.9-2.1c-0.6-0.7-1.4-1.3-2-1.9s-1.4-1.3-2.1-1.8l-2.2-1.7
		c-0.7-0.6-1.5-1.1-2.3-1.5l-2.4-1.5l-2.5-1.2c-0.8-0.4-1.6-0.8-2.5-1.1c-6.6-2.6-13.8-3.7-20.9-3.2c-6.7,0.5-13.2,2.4-19.1,5.7
		c-10.6,5.9-18.5,15.7-22.1,27.2c-1.4,4.9-2.1,10-2,15.2c0.1,4.5,0.9,8.9,2.3,13.1c1.2,3.5,2.7,6.9,4.7,10V216L244,233.5l10-17.4
		v-0.1V216c-1.9-3.1-3.5-6.5-4.6-10c-1.4-4.2-2.1-8.6-2.2-13c-0.1-5.1,0.6-10.1,2.1-15c3.6-11.5,11.5-21.1,22-26.9
		c5.8-3.2,12.3-5.1,19-5.6c7-0.5,14.1,0.6,20.6,3.2c0.8,0.3,1.7,0.7,2.5,1.1l2.5,1.2l2.3,1.4c0.8,0.5,1.6,1,2.3,1.5l2.2,1.7
		c0.8,0.5,1.4,1.2,2.1,1.8s1.4,1.2,2,1.9l1.9,2.1c4.7,5.4,8.1,11.9,9.9,18.9c1.7,6.7,1.9,13.7,0.6,20.5c-1.3,6.4-3.9,12.5-7.8,17.8
		c-6.9,9.6-17.2,16.3-28.8,18.6l-3.9,0.6c-1.3,0.1-2.6,0.1-3.8,0.2c-2.4,0.1-4.9,0-7.3-0.3c-4.4-0.6-8.7-1.8-12.7-3.6
		c-3.4-1.5-6.6-3.4-9.5-5.7l-0.9-0.7l0.7,0.9l0,0l0.1-0.2L244,233.5z"/>
	<path class="st8" d="M306.2,189.8c0,2.5,2,4.5,4.6,4.5c2.5,0,4.5-2,4.5-4.6c0-2.5-2-4.5-4.5-4.5
		C308.2,185.2,306.2,187.2,306.2,189.8C306.2,189.8,306.2,189.8,306.2,189.8z"/>
	<path class="st8" d="M287.9,189.8c0,2.5,2,4.6,4.6,4.6s4.6-2,4.6-4.6s-2-4.6-4.6-4.6l0,0C290,185.2,287.9,187.3,287.9,189.8z"/>
	<path class="st8" d="M269.8,187.5c-1.3,2.2-0.5,5,1.7,6.2c2.2,1.3,5,0.5,6.2-1.7c1.3-2.2,0.5-5-1.7-6.2
		C273.8,184.6,271,185.3,269.8,187.5z"/>
</g>
<g id="freepik--character-1--inject-2">
	<path class="st11" d="M305,319.6c0,0-10.9-13.2-11-18.8l3.2-32.1c0,0,1.7-3.3,4.8,2c2.8,4.8,1.6,12.5,1.6,12.5l2.1,7.5l3.7-5.8
		l3.7-21.6c0,0,2.3-15.5,4.7-14s3.3,6,2.3,12.7s-2.2,15.2-2.2,15.2s-0.2,2.6,2.1-1.9s4.4-23.2,5.3-25.8s1-9.2,4.8-9s1.9,8.8,1.9,8.8
		l-2.7,27.7c0,0,3.2-11.2,3.8-13.1s1.5-8,2.6-11.3s3-5.1,4.7-5c1.7,0,3,1.3,3.1,3l-4.9,23.8c0,0-2.8,10.8-2.5,11.5s4-4.6,4-4.6
		l2.8-7.7c0,0,2.1-10.9,5-11.3s3.1,1.9,3.1,1.9l-4.1,20l-8,22.7l-7.7,17.2l-1.8,9.2c-0.3,0.5-21.1-3.4-27.7-7.2L305,319.6z"/>
	<path class="st12" d="M319.6,308.5c0.2-1.6,0.1-3.1-0.2-4.7c-0.4-1.7-1.1-3.2-2.1-4.5c-1.3-1.6-3-2.9-4.9-3.6
		c-1.5-0.6-3.2-0.8-4.8-0.7h-0.2l-0.1-0.1c-1.3-2.4-2.4-4.9-3.1-7.5c-0.3-1-0.5-1.7-0.6-2.3c-0.1-0.3-0.1-0.6-0.1-0.8
		c0.1,0,0.4,1.1,1,3c0.9,2.5,1.9,5,3.3,7.3l-0.2-0.1c5.9-0.5,11.1,3.5,12.2,9.3c0.2,1.2,0.3,2.3,0.1,3.5c0,0.3-0.1,0.6-0.2,0.9
		C319.7,308.4,319.6,308.5,319.6,308.5z"/>
	<path class="st8" d="M182.9,122.3c6.1-0.9,12.3,1.6,16.1,6.4c6.1-1.4,12.1,2.4,13.5,8.4c0.6,2.8,0.2,5.7-1.2,8.1
		c5.6,4,6.9,11.9,2.9,17.5c-0.6,0.8-1.3,1.6-2,2.2l-42.7-31.7C171.7,127.5,176.8,123.4,182.9,122.3z"/>
	<ellipse class="st10" cx="209.6" cy="193.4" rx="18.3" ry="20.3"/>
	<path class="st11" d="M212.4,167c-3-22.5-22.7-39-45.4-37.9l-2.3,0.1c-24.2,2.6-35.6,24.7-32.3,48.8l7.5,80.8l0.4,3.9l56.7,8.5
		l-1.1-20.6c0,0,23.2-4.8,22.3-28.2C217.9,211.1,215.1,188,212.4,167z"/>
	<path class="st12" d="M196.2,250.6c0,0-14.9,1.6-31.1-7.4c0,0,8,16.5,31.3,13.2L196.2,250.6z"/>
	<path class="st8" d="M203.5,186.2c0.1,1.8-1.2,3.4-3,3.5c-1.8,0.2-3.4-1-3.6-2.8c0,0,0,0,0-0.1c-0.1-1.8,1.2-3.3,3-3.5
		C201.6,183.2,203.2,184.4,203.5,186.2C203.5,186.2,203.5,186.2,203.5,186.2z"/>
	<path class="st8" d="M207.9,178.7c-0.4,0.4-3-1.3-6.6-1.1s-6.1,2.1-6.5,1.7c-0.2-0.2,0.2-1,1.3-1.9c1.5-1.1,3.3-1.8,5.2-1.9
		c1.9-0.1,3.7,0.4,5.3,1.4C207.7,177.7,208.1,178.5,207.9,178.7z"/>
	<path class="st8" d="M169.4,188.6c0.1,1.8-1.2,3.4-3,3.5c-1.7,0.2-3.3-1-3.6-2.8c0,0,0-0.1,0-0.1c-0.1-1.8,1.2-3.4,3-3.5
		C167.6,185.5,169.2,186.8,169.4,188.6C169.4,188.5,169.4,188.6,169.4,188.6z"/>
	<path class="st8" d="M172.7,181.1c-0.4,0.4-3-1.3-6.6-1.1s-6.1,2.1-6.6,1.7c-0.2-0.2,0.2-1,1.3-1.9c1.5-1.2,3.3-1.8,5.2-1.9
		c1.9-0.1,3.7,0.4,5.3,1.4C172.5,180.1,172.9,180.9,172.7,181.1z"/>
	<path class="st8" d="M187,207.1c0-0.2,2.2-0.7,5.8-1.3c0.9-0.1,1.8-0.4,1.9-1c0-1-0.2-1.9-0.8-2.7l-3.1-6.9c-4.3-9.8-7.4-17.8-7-18
		s4.2,7.6,8.4,17.4l2.9,6.9c0.4,1,1.1,2.2,0.6,3.6c-0.2,0.7-0.8,1.2-1.4,1.4c-0.5,0.2-1,0.3-1.5,0.3
		C189.3,207.2,187.1,207.3,187,207.1z"/>
	<path class="st8" d="M176.6,210.1c0.6-0.1,0.8,3.8,4.3,6.4s7.6,2,7.7,2.5c0.1,0.2-0.9,0.8-2.6,0.9c-2.3,0.1-4.5-0.5-6.4-1.9
		c-1.8-1.3-3-3.2-3.3-5.4C175.9,211.1,176.3,210.1,176.6,210.1z"/>
	<path class="st8" d="M172.9,167c-0.3,1-3.9,0.7-8.1,1.4s-7.5,2-8.1,1.2c-0.3-0.4,0.3-1.4,1.6-2.4c3.6-2.5,8.2-3.3,12.4-2
		C172.2,165.8,173,166.5,172.9,167z"/>
	<path class="st8" d="M206.1,168.4c-0.6,0.9-3.1,0.1-6.1,0.2s-5.5,0.8-6.1,0c-0.3-0.4,0.1-1.2,1.1-2.1c2.9-2,6.8-2.1,9.8-0.2
		C206,167.1,206.4,168,206.1,168.4z"/>
	<path class="st8" d="M209.6,156.4c0,0-6.9-14.3-14.1-17.4c-8.7-3.7-12,5.9-20.2,4s-16.6-5.4-24.6,1.3c-8.8,7.3-4.3,12-4.3,22.4
		c-0.2,42.1-7.3,54.4-10.4,34.7c-0.3-2.2-6.4-3.6-7.8-12.7c-1.7-11.8-2.9-26.2-0.7-34.8c1.9-7.2,5.7-12.3,12.7-18.1
		c11.1-9.1,26.8-10.1,37.6-9.5S209.7,138,209.6,156.4z"/>
	<path class="st11" d="M137.4,200.6c-0.3-3.5-3.4-6.1-6.9-5.8c-0.1,0-0.2,0-0.3,0c-4.3,0.6-9.1,3.3-8.3,12.3
		c1.3,15.9,17.1,11.4,17,10.9S138,207.3,137.4,200.6z"/>
	<path class="st12" d="M135,212.4c-0.1-0.1-0.3,0.2-0.7,0.5c-0.6,0.3-1.4,0.4-2.1,0.2c-1.7-0.5-3.4-3-3.7-5.9c-0.1-1.4,0-2.7,0.5-4
		c0.2-1,0.9-1.9,1.9-2.3c0.6-0.2,1.4,0,1.7,0.6c0.3,0.4,0.2,0.8,0.3,0.8s0.3-0.3,0.1-0.9c-0.1-0.4-0.4-0.7-0.7-0.9
		c-0.5-0.3-1-0.4-1.6-0.3c-1.3,0.4-2.3,1.4-2.7,2.7c-0.6,1.4-0.8,3-0.6,4.5c0.4,3.2,2.2,6.1,4.6,6.6c0.9,0.2,1.8-0.1,2.5-0.6
		C135,212.8,135,212.4,135,212.4z"/>
	<path class="st8" d="M131.4,173.6c2.3,1.4,4.8,2.9,7.5,3s5.7-1.6,6-4.3c0.1-1.2-0.2-2.6,0.5-3.6c0.9-1.1,2.6-0.9,4.1-0.8
		c5.2,0.1,9.8-3.4,11-8.4c1.4,1.9,4.4,1.6,6.2,0.3s3-3.4,4.4-5.3s3.5-3.5,5.8-3.3c1.3,0.1,2.5,0.8,3.8,0.6c2.3-0.3,3.2-3,3.5-5.3
		s0.4-4.9,2.2-6.2s4.1-0.7,6.1-0.5s4.8-0.4,5.2-2.5c0.1-1.1-0.2-2.2-0.9-3.1c-3.1-4.1-8.6-5.6-13.4-3.6c-2.1-5.7-7.3-9.6-13.4-10.1
		c-5.9-0.3-11.4-2-14,3.3c-3.8-3.1-9.6,1-14.4,2.3c-4.8,1.4-8.7,5-10.4,9.7c-6-1.3-11.9,2.6-13.2,8.6c-0.6,2.8-0.1,5.8,1.5,8.2
		c-3,1.9-5.5,5.1-5.4,8.7s3.8,7,7.2,5.8c-1.6,3-0.3,6.8,2.7,8.3s6.8,0.3,8.3-2.7l0,0"/>
	<path class="st1" d="M136.4,185.4c-0.1-2.7-0.1-5.4,0.1-8.1c0-2.7,0.2-5.4,0.6-8.1c0.1,2.7,0.1,5.4-0.1,8.1
		C137,180,136.8,182.7,136.4,185.4z"/>
	<path class="st1" d="M126.3,183.1c-0.2,0-0.1-3.2,0.3-7.1c0.2-1.9,0.3-3.5,0.5-5c0-0.7,0.1-1.4,0.3-2.1c0.2,0,0.1,3.2-0.2,7.1
		c-0.2,1.9-0.3,3.5-0.5,5C126.5,181.7,126.4,182.4,126.3,183.1z"/>
	<ellipse class="st10" cx="128.5" cy="200.9" rx="18.3" ry="20.3"/>
	<path class="st8" d="M139.3,200.9c-0.1-1.1-0.2-2.2-0.5-3.4c-0.3-1.3-0.7-2.5-1.4-3.7c-0.8-1.6-1.9-2.9-3.2-4.1
		c-1.6-1.4-3.5-2.4-5.6-2.8c-2.4-0.5-4.8-0.3-7.1,0.7c-2.5,1.1-4.5,2.9-5.9,5.1c-0.7,1.2-1.3,2.5-1.7,3.8c-0.8,2.8-0.8,5.8,0,8.6
		c0.4,1.4,1,2.7,1.7,3.9c1.4,2.3,3.5,4.1,5.9,5.1c2.2,0.9,4.7,1.2,7.1,0.7c2.1-0.5,4-1.4,5.6-2.8c1.3-1.2,2.4-2.5,3.2-4.1
		c0.6-1.2,1.1-2.4,1.4-3.7C139.1,203.2,139.2,202,139.3,200.9c0,0.3,0,0.6,0,0.9c0,0.8-0.1,1.7-0.3,2.5c-0.3,1.3-0.7,2.6-1.3,3.8
		c-0.8,1.6-1.9,3-3.2,4.2c-1.6,1.5-3.6,2.5-5.7,3c-2.5,0.5-5,0.3-7.3-0.7c-2.5-1.1-4.7-3-6.2-5.3c-0.8-1.2-1.4-2.6-1.8-4
		c-0.8-2.9-0.8-6,0-8.9c0.4-1.4,1-2.8,1.8-4c1.5-2.4,3.6-4.2,6.2-5.3c2.3-1,4.9-1.2,7.3-0.7c2.1,0.5,4.1,1.5,5.7,3
		c1.3,1.2,2.4,2.6,3.2,4.2c0.6,1.2,1,2.5,1.3,3.8c0.2,0.8,0.3,1.7,0.3,2.5C139.3,200.3,139.3,200.6,139.3,200.9z"/>
	<path class="st10" d="M126.3,170c0,0-2.6-40.8,48.7-43c0,0,17.9,0,25.3,9.3c0,0-12.2-7.1-26-3.2c-11.3,3.2-33.4,9-36.4,36.9
		L126.3,170z"/>
	<g class="st9">
		<path d="M114.7,207.9c1.2,5.5,6.6,9.5,12.2,9.5c5.7-0.2,10.8-3.8,12.9-9.2c2-5.2,1.1-10.3-2.1-14.8c2.1,4.5,2.2,9.6,0.2,14.2
			c-1.7,4.2-6.6,7.4-11.1,7.8S117.1,212.7,114.7,207.9"/>
	</g>
	<path class="st8" d="M137.1,183.1c-2.5-1-5-1.7-7.7-2c-2.7-0.1-5.3,0.2-7.9,0.9c0.7-0.4,1.4-0.7,2.2-0.9c3.8-1,7.7-0.7,11.3,0.8
		C135.8,182.1,136.5,182.5,137.1,183.1z"/>
	<path class="st10" d="M194.1,131.3c0.5,0.2,1.1,0.5,1.6,0.8c0.6,0.3,1.2,0.7,1.7,1.1c0.8,0.5,1.5,1,2.2,1.6l1.2,1
		c0.4,0.4,0.8,0.8,1.2,1.2c0.9,0.9,1.8,1.8,2.6,2.8c3.7,4.5,6.3,9.8,7.7,15.4c0.3,1.2,0.5,2.5,0.7,3.8c0.1,0.6,0.2,1.2,0.2,1.7
		s0,1.1,0.1,1.6c0.1,0.9,0.1,1.8,0,2.7c0,0.7-0.1,1.4-0.2,2.1c0,0.6-0.1,1.2-0.3,1.7c-0.1,0,0.3-2.5,0.1-6.5c0-0.5-0.1-1-0.1-1.6
		s-0.1-1.1-0.2-1.7c-0.2-1.2-0.4-2.5-0.7-3.7c-1.4-5.6-4-10.8-7.6-15.3c-0.9-1-1.6-2-2.5-2.8c-0.4-0.4-0.8-0.8-1.2-1.2l-1.2-1
		C196.3,132.5,194.1,131.4,194.1,131.3z"/>
	<path class="st10" d="M118.9,217.8c0,0-0.1,0-0.2,0.1c-0.2,0-0.3,0.1-0.5,0.1c-0.6,0.1-1.3,0-1.9-0.2c-1-0.3-1.9-0.7-2.7-1.4
		c-1.1-0.8-1.9-1.9-2.5-3.1c-0.7-1.4-1.3-3-1.7-4.6c-0.5-1.8-0.8-3.6-1-5.5c-0.6-4.2-0.1-8.6,1.4-12.6c1.6-4.1,4.7-7.3,8.6-9.1
		c1.7-0.6,3.5-1.1,5.3-1.5c1.5-0.4,3-1.1,4.1-2.2c1.7-1.6,2.6-3.8,2.8-6.1c0-0.8,0-1.7-0.2-2.5c0.1,0.2,0.2,0.4,0.2,0.6
		c0.1,0.6,0.2,1.3,0.2,1.9c0,1-0.2,2-0.6,3c-0.5,1.3-1.2,2.4-2.1,3.4c-1.2,1.2-2.6,2-4.2,2.4c-1.8,0.4-3.5,0.9-5.3,1.6
		c-3.8,1.8-6.8,5-8.3,8.9c-1.5,3.9-2,8.2-1.4,12.3c0.2,1.8,0.5,3.6,1,5.4c0.4,1.6,0.9,3.1,1.6,4.5c1,2.1,2.8,3.7,5,4.4
		C117.2,217.8,118,217.8,118.9,217.8z"/>
	<path class="st7" d="M89.1,397.9l-47.2-10.2c0,0,6.5-35.5,14.5-71.5c6.4-28.7,38.1-36.7,38.1-36.7l0,0l36.7-16.2l5-19.1
		c20.2,10,39.8,19.6,51.6,24.4l10.8-12l4.6,14.4l3.9,0.4c0,0,12.6,1,14.2,1.1c12.9,0.7,27.9,11.7,35,28.8c5,12,22.8,54.9,26.5,65
		l15.1-47.7l35.5,13c0,0-15.1,70-20.3,87.8c-2.9,9.7-14.2,28.2-36,22.4l-0.3-0.1c-10.5-3.3-18.7-11.4-22.2-21.8l-12.1-28.7
		l-4.2,80.4l-160.5-0.5l11.4-67.6L89.1,397.9z"/>
	<path class="st8" d="M248,325.6c0.1,0-1.2,17.7-3,39.5s-3.4,39.5-3.5,39.5s1.2-17.7,3-39.5S247.8,325.6,248,325.6z"/>
	<path class="st1" d="M130.7,264l47.7,24l8.9-19.4c0,0-16-6.9-30.5-14.6c-14.8-7.9-20.6-9.6-20.6-9.6"/>
	<polyline class="st1" points="198.7,256.8 187.9,268.7 197.6,286.1 203.3,271.1 	"/>
	<path class="st8" d="M83.8,286.3c-0.1,0.1,1.5,1.3,3.7,3.6c5.8,6,9.9,13.5,11.7,21.7c0.7,3.1,0.8,5.1,1,5.1c0.1-0.5,0.1-0.9,0-1.4
		c-0.1-1.3-0.2-2.6-0.5-3.8c-1.5-8.4-5.7-16.1-11.8-22c-0.9-0.9-1.9-1.7-2.9-2.5C84.6,286.7,84.2,286.4,83.8,286.3z"/>
	<path class="st8" d="M187.3,268.5c-0.1,0.1,1.1,1.8,2.8,4.8c2.3,3.8,4.4,7.7,6.3,11.7c0.2,0.4,0.4,0.8,0.5,1.1l0.3,0.7l0.4-0.7
		c1.8-3.8,3.3-7.7,4.6-11.6c0.5-1.5,0.8-2.8,1-3.6c0.1-0.4,0.2-0.9,0.3-1.4c-0.1,0-0.7,1.8-1.8,4.8c-1.4,3.9-3,7.7-4.8,11.5h0.7
		c-0.2-0.4-0.3-0.8-0.5-1.1c-1.9-4-4.1-7.9-6.5-11.7c-0.9-1.4-1.7-2.6-2.3-3.3C188,269.3,187.7,268.9,187.3,268.5z"/>
	<path class="st8" d="M135,266.1c0.2,0.1,0.4,0.2,0.6,0.3l1.9,0.9l6.7,3.3l22.1,11l12.2,6.1l-0.3,0.1l6.5-14c0.8-1.7,1.4-3,1.9-4
		l0.5-1c0-0.1,0.1-0.2,0.2-0.4c0,0.1-0.1,0.3-0.1,0.4l-0.4,1.1c-0.4,1-1,2.3-1.8,4c-1.6,3.5-3.8,8.3-6.3,14l-0.1,0.2l-0.2-0.1
		l-12.2-6.1l-22.1-11l-6.7-3.4l-1.8-1C135.4,266.4,135.2,266.3,135,266.1z"/>
	<g class="st9">
		<path d="M260.8,431.5c2.7-13.9,3.6-21.7,4.4-37.1c0.2-3.8,0.9-7.6,0.2-11.4c-1.9-11-10-28.3-19.3-34.4l-3.6,42.8
			c5.1,12.9,9.6,24.1,14,33.5C257.8,427.2,259.2,429.4,260.8,431.5z"/>
	</g>
	<path class="st7" d="M46.5,363.4c0,0-9.8,47.3-10.5,58.2c-1.6,21.4,8.7,34.3,18.4,40.4c10.1,6.3,66.9,9.3,66.9,9.3l3.4-34L87.8,415
		l5-38.7L46.5,363.4z"/>
	<path class="st8" d="M88,413.7c0-0.3,0-0.5,0.1-0.8c0.1-0.5,0.2-1.3,0.3-2.2c0.3-2,0.7-4.8,1.2-8.2c1.1-6.9,2.6-16.4,4.2-26.9l6-38
		c0,0.3,0,0.5,0,0.8c0,0.5-0.1,1.3-0.2,2.2c-0.2,1.9-0.6,4.7-1.1,8.2c-1,6.9-2.5,16.4-4.1,26.9s-3.2,20-4.4,26.9
		c-0.6,3.4-1,6.2-1.4,8.1c-0.2,0.9-0.3,1.7-0.4,2.2C88.1,413.2,88.1,413.4,88,413.7z"/>
	<path class="st8" d="M51.3,460.1c0.1,0.1,0.2,0.1,0.3,0.2c0.3,0.2,0.5,0.4,0.8,0.6c1.2,0.7,2.4,1.3,3.7,1.7
		c4.8,1.6,9.7,2.7,14.6,3.5c16.7,2.6,33.6,4.3,50.5,4.9l-0.3,0.2c0.3-3.4,0.7-6.9,1.1-10.5c0.8-8.2,1.7-16.2,2.4-23.5l0.1,0.2
		l-35.8-21.6l-10.3-6.3l-2.8-1.7l-0.7-0.4c-0.2-0.1-0.2-0.2-0.2-0.2l0.3,0.1l0.7,0.4l2.8,1.6l10.5,6.2l35.9,21.5l0.1,0.1v0.1
		l-2.4,23.5c-0.4,3.6-0.7,7.1-1.1,10.5v0.2h-0.2c-16.9-0.7-33.8-2.4-50.6-5.1c-5-0.8-10-2-14.8-3.6c-1.3-0.4-2.5-1-3.7-1.8
		c-0.3-0.2-0.6-0.4-0.8-0.7C51.4,460.2,51.3,460.1,51.3,460.1z"/>
	<path class="st8" d="M269.3,407c0.1-0.6,0.2-1.2,0.3-1.7c0.2-1.1,0.6-2.7,1.1-4.6c1-3.9,2.4-9.3,4.3-15.1s3.9-11,5.5-14.7
		c0.8-1.9,1.4-3.3,1.9-4.4c0.2-0.5,0.5-1,0.8-1.5c-0.1,0.6-0.3,1.1-0.6,1.6l-1.7,4.4c-1.4,3.7-3.4,8.9-5.3,14.7s-3.4,11.1-4.4,15
		c-0.5,1.9-0.9,3.4-1.2,4.6C269.7,405.9,269.5,406.4,269.3,407z"/>
	<g class="st9">
		<path d="M62.7,400.9c0.4-0.4,0.9-0.7,1.4-0.8c2.7-0.6,5.5,0.4,8.1,1.5c7.6,3.7,14.3,9,19.6,15.7l-0.6-0.4
			c-8.7-5.1-16.3-10.3-25.6-12.8c-0.8-0.2-1.6-0.5-2.3-1C62.6,402.7,62.3,401.7,62.7,400.9z"/>
	</g>
	<polygon class="st1" points="254.7,368.6 259,372.9 166.4,372.9 151,471.4 147.5,465.5 163.2,369.2 	"/>
	<polygon class="st10" points="162.1,404.8 166.4,372.9 259,372.9 261.6,372.9 245.3,471.9 151,471.4 	"/>
	<path class="st8" d="M166.5,373.8c0,0,0.2-0.1,0.6-0.3s1.1-0.4,1.9-0.8c1-0.5,1.9-1.1,2.7-1.9c1.1-1,1.7-2.5,1.6-4
		c-0.1-0.9-0.5-1.7-1.2-2.2c-0.7-0.6-1.7-0.9-2.7-0.6c-1,0.4-1.6,1.3-1.6,2.4c0,1.2,0.4,2.3,1.1,3.2c1.6,2,4,3.3,6.5,3.6
		c1.4,0.2,2.8,0.1,4.1-0.2c1.4-0.3,2.7-1.1,3.8-2.1c0.5-0.5,0.9-1.2,1.1-1.9c0.2-0.7,0.2-1.5-0.1-2.2c-0.2-0.7-0.7-1.4-1.3-1.8
		c-0.6-0.4-1.5-0.6-2.2-0.3c-1.5,0.7-2.5,2.2-2.3,3.9c0.3,1.7,1.4,3.2,2.9,3.9c3.3,1.6,7.2,1.7,10.6,0.2c1.8-0.7,3.3-1.9,4.3-3.5
		c0.5-0.8,0.6-1.8,0.3-2.7c-0.3-0.9-1.1-1.5-2-1.6c-0.9,0.1-1.8,0.7-2.1,1.5c-0.5,0.9-0.5,1.9-0.1,2.8c0.8,1.8,2.7,3,4.5,3.9
		c1.9,1,3.9,1.6,6,1.8c2.1,0.2,4.3-0.4,6-1.6c0.9-0.6,1.5-1.5,2-2.4c0.4-1,0.6-2.1,0.4-3.1c-0.2-1.1-0.7-2-1.4-2.8
		c-0.8-0.8-1.8-1.1-2.9-1c-1.1,0.2-2,0.7-2.7,1.6c-0.7,0.8-0.9,2-0.5,3c0.5,1,1.2,1.8,2.2,2.3c1,0.5,2,1,3.1,1.3
		c2.2,0.6,4.5,0.8,6.8,0.6c1.1-0.1,2.2-0.4,3.2-0.9c1-0.4,1.8-1.2,2.4-2.1c0.5-1,0.6-2.1,0.2-3.1c-0.3-1-1.1-1.8-2.2-1.9
		c-1-0.1-2,0.5-2.6,1.4c-0.6,0.8-0.8,1.9-0.6,2.9c0.7,2,2.2,3.6,4.2,4.4c1.9,0.8,4,1.2,6.1,1c2.1-0.1,4-0.9,5.6-2.1
		c0.8-0.6,1.4-1.4,1.8-2.3c0.2-0.4,0.3-0.9,0.3-1.4c0-0.5-0.1-0.9-0.2-1.4c-0.4-0.9-1-1.6-1.9-2c-0.8-0.5-1.8-0.4-2.6,0
		c-0.7,0.5-1.2,1.4-1.1,2.3c0,0.9,0.3,1.8,0.8,2.6c1,1.6,2.5,2.8,4.2,3.4c1.7,0.7,3.5,0.9,5.3,0.7c1.7-0.2,3.4-0.8,4.8-1.9
		c1.4-0.9,2.3-2.4,2.6-4c0.2-1.6-0.7-3.1-2.2-3.7c-0.7-0.2-1.5-0.2-2.1,0.2c-0.6,0.4-1.1,1-1.4,1.7c-0.5,1.4-0.3,2.9,0.6,4.1
		c0.7,1.2,1.8,2.1,3,2.8c2.3,1.2,5,1.4,7.4,0.6c2.2-0.8,4.1-2.5,4.5-4.5c0.3-1.7-0.8-3.4-2.5-3.7c-0.2,0-0.3,0-0.5-0.1
		c-0.8,0.1-1.5,0.6-1.8,1.3c-0.3,0.6-0.5,1.3-0.5,2c0.1,1.1,0.5,2.2,1.3,3c0.4,0.5,0.9,1,1.4,1.5l0.5,0.5c0,0-0.2-0.1-0.5-0.5
		c-0.5-0.5-1-1-1.4-1.5c-0.7-0.8-1.2-1.9-1.3-3c0-0.7,0.1-1.5,0.5-2.1c0.4-0.8,1.1-1.3,2-1.4c1.9,0,3.4,1.5,3.3,3.4
		c0,0.2,0,0.4-0.1,0.6c-0.4,2.2-2.3,3.9-4.6,4.7c-2.5,0.9-5.3,0.6-7.7-0.6c-1.3-0.7-2.4-1.7-3.2-2.9c-0.9-1.3-1.1-2.9-0.6-4.4
		c0.3-0.8,0.8-1.4,1.5-1.8c0.7-0.5,1.6-0.5,2.4-0.3c1.6,0.7,2.6,2.4,2.4,4.1c-0.3,1.8-1.3,3.3-2.7,4.3c-1.5,1.1-3.2,1.8-5,2
		c-1.9,0.2-3.7,0-5.5-0.7c-0.9-0.3-1.7-0.8-2.5-1.4c-0.8-0.6-1.4-1.3-1.9-2.2c-0.5-0.9-0.8-1.9-0.8-2.9c0-1.1,0.4-2.1,1.3-2.7
		c0.9-0.6,2.1-0.6,3.1-0.1c1,0.5,1.7,1.3,2.1,2.3c0.2,0.5,0.3,1,0.3,1.6c0,0.5-0.2,1.1-0.4,1.6c-0.4,1-1.1,1.8-1.9,2.5
		c-1.7,1.3-3.8,2.1-5.9,2.3c-2.2,0.2-4.4-0.1-6.4-1c-1-0.4-2-1.1-2.8-1.8c-0.9-0.8-1.5-1.8-1.7-2.9c-0.3-1.2,0-2.4,0.7-3.4
		c0.7-1,1.8-1.6,3.1-1.6c1.2,0.2,2.3,1.1,2.6,2.3c0.4,1.2,0.3,2.4-0.3,3.5c-0.6,1-1.5,1.8-2.6,2.3c-1.1,0.5-2.2,0.8-3.4,0.9
		c-2.4,0.2-4.7,0-7-0.6c-1.1-0.3-2.2-0.8-3.3-1.3c-1.1-0.6-1.9-1.5-2.5-2.6c-0.5-1.2-0.2-2.5,0.6-3.5c0.8-1,1.9-1.6,3.1-1.8
		c1.2-0.2,2.4,0.2,3.3,1.1c0.8,0.8,1.4,1.9,1.6,3.1c0.2,1.2,0.1,2.3-0.4,3.4c-0.5,1-1.2,1.9-2.2,2.6c-1.8,1.3-4.1,1.9-6.3,1.7
		c-2.2-0.2-4.3-0.8-6.2-1.8c-1-0.4-1.9-1-2.8-1.6c-0.9-0.6-1.6-1.5-2-2.5c-0.4-1-0.4-2.2,0.2-3.2c0.5-1,1.5-1.7,2.6-1.8
		c1.1,0.1,2.1,0.8,2.4,1.9c0.3,1,0.2,2.1-0.3,3.1c-0.5,0.9-1.2,1.6-2,2.2c-0.8,0.6-1.6,1.1-2.6,1.5c-1.8,0.8-3.7,1.2-5.6,1.1
		c-1.9,0-3.7-0.5-5.4-1.3c-1.7-0.8-2.9-2.4-3.1-4.3c-0.1-1.8,0.9-3.6,2.6-4.3c0.9-0.3,1.8-0.1,2.5,0.4c0.7,0.5,1.2,1.2,1.5,2
		c0.3,0.8,0.3,1.6,0.1,2.5c-0.2,0.8-0.6,1.5-1.2,2.1c-1.1,1.1-2.4,1.9-3.9,2.2c-1.4,0.4-2.9,0.4-4.3,0.2c-2.6-0.4-5-1.7-6.7-3.8
		c-0.7-1-1.1-2.2-1.1-3.4c0-0.6,0.2-1.1,0.5-1.6c0.3-0.5,0.8-0.8,1.3-1c1-0.3,2.1,0,2.9,0.7c0.7,0.6,1.2,1.4,1.3,2.4
		c0.1,1.6-0.6,3.1-1.7,4.1c-0.8,0.8-1.8,1.4-2.8,1.9C168.2,373.3,167.3,373.6,166.5,373.8z"/>
	<path class="st11" d="M124.7,437.9l5.4,0.5c0,0,0.7-7.9,1.9-10.9s3.5-12.5,3.5-12.5s24.3-10.2,24.8-10.2s24.3,6.5,24.3,6.5
		s-0.5,6.5-8.6,6.9c-4.8,0.2-9.7-0.2-14.4-1.2l-7.6,2.8l15.1,1l26.6,15.9c0,0-0.2,4.7-10.6,2.3s-15.7-6.9-15.7-6.9l-19.6,2.9l20.7,1
		l15.5,7.7c0,0-0.1,6.4-6.5,4.8S169,446,169,446l-18.5,2.2l15.6,0.9c0,0,10.6,0.3,10,3.1s-8.3,5.3-8.3,5.3l-11,1.9
		c0,0-0.4,4.9-2.4,6.5s-4.9,3.8-6.7,3.8s-26.6,1.4-26.6,1.4L124.7,437.9z"/>
	<path class="st12" d="M138.2,462c-0.3-0.2-0.6-0.4-0.9-0.6c-0.8-0.6-1.5-1.3-2.2-2.1c-2.2-2.6-3.6-5.8-4-9.1
		c-0.2-1.9-0.1-3.7,0.3-5.5c0.4-1.7,0.9-3.1,1.1-4.3c0.2-1,0.1-2-0.2-2.9c-0.3-0.7-0.5-1-0.5-1s0.4,0.2,0.7,0.9c0.4,0.9,0.5,2,0.4,3
		c-0.1,1.3-0.7,2.8-1,4.4c-0.4,1.8-0.4,3.6-0.2,5.4c0.4,3.3,1.7,6.4,3.7,9C136.2,460.1,137.2,461.1,138.2,462z"/>
	<path class="st12" d="M141.2,460.1c2.7-0.4,5.4-0.5,8.1-0.5c2.7-0.2,5.4-0.2,8.1,0c-2.7,0.4-5.4,0.5-8.1,0.5
		C146.6,460.2,143.9,460.2,141.2,460.1z"/>
	<path class="st12" d="M142.4,448.4c1.4-0.2,2.9-0.3,4.3-0.2c1.4-0.1,2.9,0,4.3,0.3c-1.4,0.2-2.9,0.3-4.3,0.2
		C145.2,448.8,143.8,448.7,142.4,448.4z"/>
	<path class="st12" d="M141.6,421.3c0-0.2,2.7,0.3,6,0s5.8-1.3,5.9-1.1c-1.8,1-3.8,1.5-5.8,1.6C145.6,422.1,143.5,421.9,141.6,421.3
		z"/>
</g>
<g id="freepik--Microphones--inject-2">
	<polygon class="st10" points="381,312.7 397.8,471.4 387.6,471.4 371.8,315.9 	"/>
	<path class="st10" d="M466.4,226.8l0.1,0.4c1.7,7.8-3.1,15.5-10.8,17.4l-24,6l-8.3-25.7l23.6-8.8c7.6-2.8,16.1,1.1,18.9,8.7
		C466,225.5,466.2,226.2,466.4,226.8z"/>
	<path class="st8" d="M458.4,243.5c0.2-1.1,0.4-2.2,0.7-3.2c0.7-2.8,1.3-5.2,1.9-7.7l1.7-7.8c0.2-1.1,0.4-2.2,0.8-3.2
		c0,1.1-0.2,2.2-0.4,3.3c-0.3,2-0.9,4.8-1.6,7.8s-1.5,5.8-2.1,7.7C459.2,241.4,458.8,242.5,458.4,243.5z"/>
	<path class="st8" d="M451.6,245.8c-0.2,0,0.9-6.5,2.4-14.5s2.8-14.4,3-14.4s-0.9,6.5-2.4,14.5S451.8,245.9,451.6,245.8z"/>
	<path class="st8" d="M443.3,247.3c-0.1,0,1.2-7.1,3-15.9s3.4-15.8,3.5-15.7s-1.2,7.1-3,15.9S443.4,247.4,443.3,247.3z"/>
	<path class="st8" d="M437,241.1c0-1.1,0.1-2.3,0.3-3.4c0.2-2.1,0.7-4.9,1.3-8s1.2-5.9,1.8-7.9c0.2-1.1,0.6-2.2,1-3.2
		c-0.1,1.1-0.3,2.2-0.6,3.3c-0.6,2.8-1,5.3-1.6,8s-0.9,5.2-1.4,8C437.6,239,437.4,240.1,437,241.1z"/>
	<path class="st8" d="M431.1,228.4c0-1.3,0.2-2.6,0.6-3.9c0.2-1.3,0.6-2.5,1.2-3.7c0,1.3-0.2,2.6-0.6,3.9
		C432.1,226,431.7,227.3,431.1,228.4z"/>
	<path class="st8" d="M438.3,243.2c5.1,0.4,10.1,1.1,15,2.3c-2.5-0.1-5.1-0.4-7.6-0.9C443.2,244.3,440.7,243.9,438.3,243.2z"/>
	<path class="st8" d="M433.6,234.8c0-0.2,6.7,0.9,14.9,2.3s14.9,2.7,14.8,2.9s-6.7-0.9-14.9-2.3S433.6,234.9,433.6,234.8z"/>
	<path class="st8" d="M430,226.9c0-0.2,8.3,0.9,18.6,2.4s18.5,2.8,18.5,2.9s-8.3-0.9-18.6-2.4S430,227.1,430,226.9z"/>
	<path class="st8" d="M437.5,219.9c0-0.2,6.3,0.6,14,1.7s13.9,2.1,13.9,2.3s-6.3-0.6-14-1.7S437.5,220,437.5,219.9z"/>
	<path class="st8" d="M429.7,221.5l9.9,29l-46.9,14.8c-4.4,1-8.9-1.5-10.4-5.8l-3-9.1c-1.4-4.3,0.7-8.9,4.8-10.8L429.7,221.5z"/>
	<path class="st10" d="M368.4,341l-11.9-8.2l0,0l64.7-94.4c0.7-1.1,2.2-1.4,3.3-0.6l8,5.5c1.1,0.7,1.4,2.2,0.6,3.3L368.4,341
		L368.4,341L368.4,341z"/>
	<path class="st8" d="M420,247.5c0,2.6,2.1,4.7,4.6,4.7s4.7-2.1,4.7-4.6s-2.1-4.7-4.6-4.7c0,0,0,0,0,0
		C422.1,242.9,420,245,420,247.5z"/>
	<polygon class="st8" points="385.8,255.4 372.3,259.4 371.3,255.4 385.8,251.1 	"/>
	<path class="st8" d="M383.1,331.1c0.1,0,0.1-0.1,0.2-0.1l0.6-0.3c0.8-0.4,1.5-0.9,2.2-1.4c2.6-1.9,4.7-4.3,6.4-7
		c1.2-1.8,2-3.9,2.5-6c1.1-5.2,0-10.7-3.2-15c-1.8-2.4-4.1-4.4-6.6-6c-2.5-1.6-5-3.4-7.3-5.3c-2.1-1.9-3.9-4.1-5.2-6.6
		c-1.2-2.3-2.1-4.7-2.6-7.2c-0.4-2.2-0.6-4.4-0.5-6.6c0.2-3.2,1-6.4,2.4-9.3c0.3-0.5,0.5-1,0.7-1.3l0.6-0.9l0.4-0.6l0.1-0.2
		c0,0,0,0.1-0.1,0.2l-0.3,0.6l-0.5,1c-0.2,0.4-0.4,0.9-0.6,1.4c-1.3,2.9-2,6-2.2,9.2c-0.1,2.2,0.1,4.4,0.5,6.5
		c0.5,2.5,1.4,4.8,2.6,7c1.3,2.4,3.1,4.6,5.1,6.5c2.3,1.9,4.8,3.6,7.3,5.3c2.6,1.6,4.8,3.7,6.7,6.1c1.7,2.3,2.8,5,3.3,7.8
		c0.5,2.5,0.4,5.1-0.1,7.6c-0.5,2.2-1.4,4.2-2.6,6.1c-1.7,2.8-3.9,5.1-6.6,7C385.3,330.2,384.2,330.7,383.1,331.1z"/>
	<path class="st8" d="M400,471.3c0-0.1-0.1-0.2-0.1-0.4l-0.1-1c-0.1-1-0.3-2.3-0.4-4c-0.4-3.5-0.9-8.5-1.4-14.8
		c-1.1-12.5-2.7-29.7-4.4-48.7c-0.5-4.8-0.9-9.4-1.5-13.8c-0.5-4.3-1.7-8.5-3.4-12.4c-0.8-1.8-1.8-3.5-3-5.1
		c-1.2-1.5-2.4-2.9-3.8-4.2c-2.5-2.3-4.8-4.8-7-7.4c-1.8-2.2-3.1-4.8-3.8-7.5c-0.5-2.1-0.4-4.3,0.2-6.4c0.4-1.3,1.1-2.5,2-3.5
		c0.2-0.3,0.5-0.5,0.8-0.7l0.3-0.2c0,0-0.4,0.3-1,1c-0.9,1-1.5,2.2-1.9,3.5c-0.6,2-0.6,4.2-0.1,6.2c0.7,2.7,2,5.2,3.8,7.4
		c2.2,2.6,4.6,5,7.1,7.4c1.4,1.3,2.6,2.8,3.8,4.3c1.2,1.6,2.3,3.4,3.1,5.2c1.7,4,2.9,8.2,3.4,12.5c0.7,4.5,1,9.1,1.5,13.9
		c1.8,19,3.2,36.2,4.2,48.7c0.5,6.2,1,11.2,1.3,14.8c0.1,1.7,0.3,3.1,0.4,4c0,0.4,0.1,0.8,0.1,1S400,471.3,400,471.3z"/>
	<path class="st10" d="M271.1,321.1c-0.1,0.1-0.1,0.3-0.2,0.4c-3.4,7.2-0.4,15.8,6.6,19.4l22,11.2l13.9-23.1l-21-13.9
		c-6.8-4.5-15.9-2.6-20.4,4.2C271.8,319.9,271.4,320.5,271.1,321.1z"/>
	<path class="st8" d="M275.2,339.1c0.1-1.1,0.1-2.2,0-3.3c0-2.8-0.1-5.3-0.1-8s0-5.1,0.1-8c0.1-1.1,0.1-2.2,0-3.3
		c-0.2,1.1-0.3,2.2-0.4,3.3c-0.1,2-0.2,4.9-0.2,8s0.1,6,0.3,8C274.8,336.9,274.9,338,275.2,339.1z"/>
	<path class="st8" d="M281.3,343c0.2,0,0.6-6.5,0.9-14.6s0.5-14.7,0.4-14.7s-0.6,6.5-0.9,14.6S281.1,343,281.3,343z"/>
	<path class="st8" d="M289,346.3c0.2,0,0.5-7.2,0.7-16.1s0.3-16.1,0.1-16.1s-0.5,7.2-0.7,16.1S288.9,346.3,289,346.3z"/>
	<path class="st8" d="M296.5,341.6c0.3-1.1,0.5-2.2,0.5-3.3c0.2-2.1,0.5-5,0.6-8.1s0.1-6,0.1-8.1c0-1.1-0.1-2.3-0.2-3.4
		c-0.1,1.1-0.2,2.2-0.2,3.4c-0.1,2.9-0.2,5.4-0.2,8.1s-0.3,5.2-0.4,8.1C296.5,339.4,296.4,340.5,296.5,341.6z"/>
	<path class="st8" d="M305.1,330.6c0.3-1.3,0.4-2.6,0.3-3.9c0.1-1.3,0-2.6-0.3-3.9c-0.3,1.3-0.4,2.6-0.3,3.9
		C304.7,328,304.8,329.3,305.1,330.6z"/>
	<path class="st8" d="M294.8,343.4c0-0.2-3.4-0.6-7.5-0.9c-2.5-0.3-5.1-0.4-7.6-0.3c2.5,0.5,5,0.8,7.5,0.9
		C289.8,343.4,292.3,343.5,294.8,343.4z"/>
	<path class="st8" d="M301.3,336.2c0-0.2-6.7-0.7-15.1-1.1s-15.1-0.7-15.1-0.6s6.7,0.7,15.1,1.1S301.2,336.4,301.3,336.2z"/>
	<path class="st8" d="M306.5,329.4c0-0.2-8.3-1-18.6-1.9s-18.7-1.4-18.7-1.3s8.3,1,18.6,1.9S306.5,329.6,306.5,329.4z"/>
	<path class="st8" d="M300.8,320.8c0-0.2-6.3-0.8-14-1.5s-14-1.1-14.1-0.9s6.3,0.8,14,1.5S300.8,321,300.8,320.8z"/>
	<path class="st8" d="M308,324.2l-16.2,26.1l42.3,24.9c4.1,2,9.1,0.6,11.4-3.3l4.9-8.2c2.3-3.9,1.3-8.9-2.3-11.6L308,324.2z"/>
	<path class="st10" d="M313,348.6h9.6c1.3,0,2.4,1.1,2.4,2.4v120.4l0,0h-14.4l0,0V351C310.6,349.7,311.7,348.6,313,348.6
		C313,348.6,313,348.6,313,348.6z"/>
	<path class="st8" d="M322.5,357.4c0,2.6-2.1,4.6-4.6,4.6s-4.6-2.1-4.6-4.6c0-2.6,2.1-4.6,4.6-4.6
		C320.4,352.7,322.5,354.8,322.5,357.4C322.5,357.4,322.5,357.4,322.5,357.4z"/>
	<polygon class="st8" points="343.2,367 355.5,374 357.3,370.3 344.2,362.9 	"/>
	<path class="st8" d="M327.2,471.3c0-0.1,0-0.2,0-0.3c0-0.3,0.1-0.6,0.1-1c0.1-0.9,0.3-2.2,0.4-3.9c0.3-3.4,0.6-8.3,0.6-14.3v-9.9
		c-0.1-3.8,0-7.6,0.4-11.4c0.4-4.2,1.3-8.3,2.7-12.3c1.5-4.3,4-8.2,7.3-11.4c1.7-1.6,3.7-2.8,5.9-3.6c1.1-0.4,2.2-0.6,3.4-0.6
		c1.1,0,2.2,0,3.3,0.2c2.1,0.4,4.2,0.7,6.3,0.9c2,0.1,4-0.3,5.9-1.2c3.4-1.7,5.9-4.7,7.2-8.3c0.5-1.6,0.8-3.3,0.9-5
		c0.1-1.6-0.2-3.1-0.7-4.6c-1-2.5-2.7-4.7-4.8-6.4c-1.6-1.3-3.3-2.5-5-3.5l-3.3-2l-0.9-0.5c-0.1-0.1-0.2-0.1-0.3-0.2l0.3,0.2
		l0.9,0.5c0.8,0.4,1.9,1.1,3.4,2c1.8,1,3.5,2.2,5.1,3.5c2.2,1.7,4,3.9,5,6.5c0.6,1.5,0.8,3.1,0.8,4.7c0,1.7-0.3,3.5-0.9,5.1
		c-1.2,3.7-3.9,6.8-7.4,8.5c-1.9,0.9-4,1.3-6.1,1.3c-2.1-0.2-4.3-0.5-6.4-0.9c-1.1-0.2-2.2-0.2-3.2-0.2c-1.1,0.1-2.2,0.3-3.2,0.6
		c-2.1,0.8-4.1,2-5.7,3.5c-3.2,3.1-5.7,6.9-7.2,11.1c-1.4,3.9-2.3,8-2.7,12.2c-0.3,3.8-0.5,7.6-0.4,11.4c0,3.6,0,6.9-0.1,9.9
		c-0.1,6.1-0.4,11-0.8,14.4c-0.2,1.7-0.4,3-0.5,3.9c-0.1,0.4-0.1,0.7-0.2,1C327.3,471.1,327.3,471.2,327.2,471.3z"/>
</g>
<g id="freepik--Text--inject-2">
	<path class="st8" d="M334.4,54.3c0,0-0.2,0-0.7,0h-2.1h-8.2l-30.6,0.1l0.2-0.2c0,13.8,0,30.7,0.1,49.9l-0.2-0.2h89.9h90.1l-0.2,0.2
		c0-19.3,0-36.2,0.1-49.9l0.2,0.2l-30.5-0.1h-8.1h-2.1c-0.5,0-0.7,0-0.7,0h0.7h2.1h8.1l30.5-0.1h0.2v0.2c0,13.7,0,30.6,0.1,49.9v0.2
		h-0.2h-90.1h-89.9h-0.2v-0.2c0-19.2,0-36.1,0.1-49.9v-0.2h0.2l30.6,0.1h8.2h2.1C334.1,54.3,334.4,54.3,334.4,54.3z"/>
</g>
<g id="freepik--Desk--inject-2">
	<path class="st8" d="M725,471.3c0,0.1-156.7,0.3-350,0.3s-350-0.1-350-0.3s156.7-0.3,350-0.3S725,471.1,725,471.3z"/>
</g>
<g>
	<path class="st8" d="M316.4,73c4.3,0,6.4,2.5,6.4,5.5c0,2.2-1.2,4.3-3.9,5.1l4,6.9h-4.8l-3.6-6.6h-1v6.6h-4.3V73H316.4z
		 M316.2,76.5h-2.6v4.3h2.6c1.6,0,2.3-0.8,2.3-2.2C318.5,77.3,317.8,76.5,316.2,76.5z"/>
	<path class="st8" d="M336.2,76.4h-6.4v3.5h5.7v3.3h-5.7V87h6.4v3.4h-10.7V73h10.7V76.4z"/>
	<path class="st8" d="M347.1,72.8c4.2,0,7.3,2.3,8.3,6.1h-4.7c-0.7-1.5-2-2.2-3.7-2.2c-2.6,0-4.4,1.9-4.4,5s1.8,5,4.4,5
		c1.6,0,2.9-0.7,3.7-2.2h4.7c-1,3.8-4.1,6.1-8.3,6.1c-5.2,0-8.8-3.7-8.8-8.9S341.9,72.8,347.1,72.8z"/>
	<path class="st8" d="M366.2,90.6c-5,0-9-3.7-9-9s4-8.9,9-8.9c5,0,8.9,3.7,8.9,8.9S371.2,90.6,366.2,90.6z M366.2,86.7
		c2.8,0,4.6-2,4.6-5.1c0-3.1-1.8-5.1-4.6-5.1c-2.8,0-4.6,2-4.6,5.1C361.6,84.7,363.4,86.7,366.2,86.7z"/>
	<path class="st8" d="M384.7,73c4.3,0,6.4,2.5,6.4,5.5c0,2.2-1.2,4.3-3.9,5.1l4,6.9h-4.8l-3.6-6.6h-1v6.6h-4.3V73H384.7z
		 M384.4,76.5h-2.6v4.3h2.6c1.6,0,2.3-0.8,2.3-2.2C386.8,77.3,386,76.5,384.4,76.5z"/>
	<path class="st8" d="M409.5,81.7c0,5.2-3.6,8.7-9.2,8.7h-6.5V73h6.5C405.9,73,409.5,76.5,409.5,81.7z M400,86.8
		c3.2,0,5.1-1.8,5.1-5.1s-1.9-5.1-5.1-5.1h-2v10.2H400z"/>
	<path class="st8" d="M411.9,73h4.3v17.5h-4.3V73z"/>
	<path class="st8" d="M434.9,73v17.5h-4.3l-7.1-10.8v10.8h-4.3V73h4.3l7.1,10.8V73H434.9z"/>
	<path class="st8" d="M454.3,78.5h-4.7c-0.6-1.2-1.8-1.8-3.4-1.8c-2.7,0-4.6,1.9-4.6,5c0,3.2,1.8,5.1,4.9,5.1c2.1,0,3.6-1.1,4.2-3.1
		h-5.4v-3.1h9.3v4c-0.9,3-3.8,6-8.4,6c-5.2,0-8.9-3.7-8.9-8.9s3.7-8.9,8.9-8.9C450.3,72.8,453.3,74.9,454.3,78.5z"/>
</g>
</svg>